<?xml version="1.0" encoding="utf-8" standalone="no"?>
<!DOCTYPE svg PUBLIC "-//W3C//DTD SVG 1.1//EN"
  "http://www.w3.org/Graphics/SVG/1.1/DTD/svg11.dtd">
<svg xmlns:xlink="http://www.w3.org/1999/xlink" width="460.8pt" height="345.6pt" viewBox="0 0 460.8 345.6" xmlns="http://www.w3.org/2000/svg" version="1.1">
 <metadata>
  <rdf:RDF xmlns:dc="http://purl.org/dc/elements/1.1/" xmlns:cc="http://creativecommons.org/ns#" xmlns:rdf="http://www.w3.org/1999/02/22-rdf-syntax-ns#">
   <cc:Work>
    <dc:type rdf:resource="http://purl.org/dc/dcmitype/StillImage"/>
    <dc:date>2024-03-14T16:32:50.197121</dc:date>
    <dc:format>image/svg+xml</dc:format>
    <dc:creator>
     <cc:Agent>
      <dc:title>Matplotlib v3.5.2, https://matplotlib.org/</dc:title>
     </cc:Agent>
    </dc:creator>
   </cc:Work>
  </rdf:RDF>
 </metadata>
 <defs>
  <style type="text/css">*{stroke-linejoin: round; stroke-linecap: butt}</style>
 </defs>
 <g id="figure_1">
  <g id="patch_1">
   <path d="M 0 345.6 
L 460.8 345.6 
L 460.8 0 
L 0 0 
z
" style="fill: #ffffff"/>
  </g>
  <g id="axes_1">
   <g id="patch_2">
    <path d="M 154.270457 331.3 
L 306.529543 331.3 
L 306.529543 10.8 
L 154.270457 10.8 
z
" style="fill: #ffffff"/>
   </g>
   <g id="matplotlib.axis_1"/>
   <g id="matplotlib.axis_2"/>
   <g id="line2d_1">
    <path d="M 205.879463 192.035115 
L 233.932545 188.487166 
L 268.380078 184.116768 
L 269.103819 183.836633 
L 269.764986 183.417474 
L 270.347839 182.843006 
L 271.240434 181.422222 
L 271.740921 179.884249 
L 271.88804 178.317548 
L 271.772952 176.734547 
L 271.316163 174.34653 
L 264.868239 145.983697 
L 264.19999 144.468503 
L 263.756585 143.797424 
L 263.223218 143.223212 
L 262.596617 142.760739 
L 261.148269 142.082097 
L 256.510903 140.589009 
L 249.577952 138.416876 
L 248.111348 137.752126 
L 246.724213 136.943327 
L 244.137452 135.000107 
L 241.554847 133.059417 
L 240.415624 131.928708 
L 237.263755 128.23083 
L 236.336958 126.919609 
L 235.20207 124.787332 
L 234.323199 122.516238 
L 233.955542 120.950033 
L 233.73647 118.549163 
L 233.660744 115.309208 
L 233.880595 113.724937 
L 234.600332 111.41283 
L 236.862322 104.50298 
L 237.747497 101.398098 
L 238.616758 97.459435 
L 239.23482 93.469691 
L 239.59753 89.444702 
L 239.677066 86.215755 
L 239.521687 82.183169 
L 239.025118 76.54847 
L 236.532279 52.453703 
L 236.213406 51.780516 
L 235.580655 51.393547 
L 232.381202 50.679666 
L 230.820204 50.303694 
L 230.088749 49.974031 
L 229.414558 49.503408 
L 228.833295 48.913818 
L 228.383925 48.238152 
L 228.105413 47.509301 
L 228.032007 46.758654 
L 228.143913 46.000363 
L 228.705932 44.473288 
L 230.285234 40.691565 
L 232.422071 35.498259 
L 233.601139 32.472442 
L 234.03122 30.887318 
L 234.155136 30.081916 
L 234.085549 29.324302 
L 233.701256 28.674598 
L 233.054635 28.187808 
L 232.2941 27.911012 
L 231.495349 27.842961 
L 230.69172 27.954806 
L 229.916059 28.21737 
L 229.201219 28.601693 
L 228.580737 29.092576 
L 228.089235 29.696667 
L 227.482068 31.187066 
L 225.864566 35.769405 
L 189.778875 136.112991 
L 181.184514 160.490226 
L 179.457284 166.717713 
L 177.640196 172.918669 
L 175.805118 178.266556 
L 163.865319 211.752263 
L 163.652093 212.521225 
L 163.692001 213.322996 
L 164.023082 214.076194 
L 164.588297 214.627532 
L 165.317525 214.905611 
L 166.927811 215.011261 
L 174.163648 214.570777 
L 174.698494 215.044925 
L 174.987948 215.751668 
L 176.211892 221.317451 
L 178.050257 228.346519 
L 179.054123 231.41595 
L 181.051822 236.703139 
L 182.125391 238.869657 
L 183.767324 241.652244 
L 186.457474 245.685917 
L 188.4179 248.248368 
L 190.561686 250.664089 
L 192.86079 252.937499 
L 195.886964 255.610581 
L 210.784307 268.018485 
L 232.655311 285.927313 
L 237.357334 289.070882 
L 245.500365 294.327682 
L 249.689918 296.759744 
L 255.422742 299.743257 
L 272.767482 308.407579 
L 284.356377 314.126262 
L 285.174636 314.256116 
L 285.938184 314.124552 
L 286.486029 313.637571 
L 286.83144 312.893471 
L 287.419746 310.52461 
L 288.020248 307.345131 
L 288.671381 305.86403 
L 289.134259 305.219948 
L 289.696016 304.675192 
L 290.360852 304.254683 
L 291.112661 303.962413 
L 292.747946 303.711751 
L 295.142734 303.757181 
L 295.926011 303.521526 
L 296.555179 303.043316 
L 296.846373 302.341276 
L 296.906926 299.882215 
L 297.071183 285.356977 
L 296.802528 280.495592 
L 296.550846 279.740838 
L 296.053868 279.191754 
L 295.325018 279.0195 
L 293.679194 279.298381 
L 285.70857 280.537474 
L 280.906799 281.147397 
L 265.616553 282.521531 
L 260.792357 282.996587 
L 251.986866 284.163632 
L 250.400165 284.020706 
L 248.866162 283.545689 
L 246.681754 282.452228 
L 243.951746 280.732485 
L 230.674439 271.555525 
L 229.517812 270.412738 
L 229.029262 269.768752 
L 228.353658 268.321044 
L 227.748675 265.979596 
L 224.762663 250.917079 
L 225.037595 250.223871 
L 225.664943 249.759914 
L 226.436802 249.495858 
L 228.842886 249.121383 
L 242.453142 247.230686 
L 243.138931 246.91337 
L 243.623023 246.32764 
L 243.91984 245.550564 
L 244.17825 243.928356 
L 244.247329 239.099148 
L 244.395079 229.402437 
L 244.333509 228.589144 
L 244.138876 227.808666 
L 243.75517 227.113003 
L 243.188523 226.591529 
L 242.46073 226.316634 
L 234.438214 225.229808 
L 232.835854 225.365845 
L 224.835098 226.499151 
L 199.201892 229.865215 
L 198.411875 229.833476 
L 197.64151 229.622922 
L 196.199717 228.841537 
L 194.938887 227.832752 
L 193.896624 226.625858 
L 193.06115 225.256002 
L 186.620449 213.121719 
L 182.038919 204.581116 
L 181.533323 203.063535 
L 181.251227 201.466176 
L 181.082359 198.24724 
L 181.2706 197.466016 
L 181.630453 196.746136 
L 182.161201 196.136732 
L 182.813651 195.649168 
L 184.278918 195.006281 
L 185.852649 194.660468 
L 190.664174 194.043708 
L 205.07842 192.139753 
L 205.07842 192.139753 
" clip-path="url(#p4308189df9)" style="fill: none; stroke: #575fcf; stroke-width: 2; stroke-linecap: square"/>
   </g>
   <g id="line2d_2">
    <path d="M 206.221609 191.180349 
L 221.025926 189.981004 
L 246.598147 187.924819 
L 257.343499 186.820765 
L 262.695577 186.106313 
L 264.435286 185.649036 
L 265.67926 185.13491 
L 266.847023 184.451077 
L 267.919805 183.610507 
L 269.144829 182.322114 
L 269.995008 181.267146 
L 270.635473 180.080377 
L 271.288855 178.404805 
L 271.73971 176.661411 
L 271.983838 174.877015 
L 272.012224 173.077681 
L 271.824979 171.288793 
L 271.209033 168.199911 
L 267.517023 151.96345 
L 266.908452 150.270319 
L 266.109147 148.660107 
L 265.13084 147.14839 
L 263.990204 145.74813 
L 260.227324 141.889639 
L 258.753063 140.85889 
L 257.158796 140.025628 
L 254.653812 139.020598 
L 249.609704 137.088584 
L 245.097508 135.058118 
L 243.958354 134.333379 
L 242.57619 133.180812 
L 239.329518 130.070922 
L 238.288324 128.602862 
L 237.20578 126.630535 
L 236.260871 124.590488 
L 235.676085 122.887881 
L 235.067678 120.260351 
L 234.820598 118.47538 
L 234.808645 116.673009 
L 234.917463 113.08242 
L 234.976821 110.379354 
L 235.311484 107.702182 
L 236.092947 103.269851 
L 237.879572 94.449722 
L 238.514272 89.539938 
L 239.28942 81.475912 
L 239.550273 76.532177 
L 239.553535 72.031804 
L 239.3151 67.537761 
L 238.726367 61.264272 
L 238.280659 58.146134 
L 237.791917 56.416016 
L 237.234434 55.19455 
L 236.269322 53.656134 
L 235.706054 52.922863 
L 233.934239 51.613477 
L 232.068906 50.347128 
L 230.709714 49.167242 
L 229.8016 48.177881 
L 229.353692 47.392911 
L 228.87896 46.141738 
L 228.709394 44.803788 
L 228.833293 43.457339 
L 229.273836 42.186897 
L 229.94996 41.021264 
L 231.317757 39.233024 
L 232.933107 37.072027 
L 233.564681 35.88056 
L 233.999481 34.605112 
L 234.193619 33.272078 
L 234.113086 31.926668 
L 233.893588 31.053945 
L 233.513923 30.212346 
L 232.898447 29.587433 
L 232.136688 29.14466 
L 231.247782 29.106579 
L 230.380022 29.363715 
L 228.432563 30.440347 
L 227.341831 31.280578 
L 226.419801 32.265336 
L 225.662939 33.37748 
L 224.870254 34.991818 
L 223.766775 37.942246 
L 215.97136 60.010377 
L 208.11716 83.011072 
L 182.411028 158.889891 
L 180.711246 163.056916 
L 176.522706 173.013135 
L 174.382305 178.939297 
L 168.467769 195.466318 
L 163.920031 208.176581 
L 163.712138 209.506991 
L 163.786063 210.854527 
L 164.000576 211.728224 
L 164.368306 212.558146 
L 164.934838 213.267105 
L 165.884738 214.156794 
L 166.703237 214.574899 
L 167.997541 214.972908 
L 169.33131 215.172011 
L 172.947101 215.389226 
L 173.715833 215.691728 
L 174.469381 216.166235 
L 175.415787 217.165899 
L 176.189247 218.269314 
L 176.805991 219.466098 
L 177.416693 221.157829 
L 178.437252 225.077909 
L 180.021233 230.709342 
L 180.897985 233.263636 
L 182.159836 236.15012 
L 184.136525 240.192281 
L 185.727601 242.911401 
L 187.776219 245.871671 
L 191.328635 250.520128 
L 195.03295 255.049276 
L 198.044861 258.393404 
L 200.932503 261.23329 
L 204.638154 264.515924 
L 210.202955 269.086502 
L 215.193687 272.932771 
L 220.678983 276.868419 
L 225.171261 279.865893 
L 230.564226 283.125848 
L 233.962279 285.328849 
L 241.829409 290.566626 
L 253.558896 298.121391 
L 259.996117 302.257023 
L 266.172762 305.959138 
L 272.456039 309.477255 
L 278.842294 312.804535 
L 280.508495 313.477672 
L 281.830025 313.751135 
L 283.178347 313.761373 
L 284.503899 313.51224 
L 285.340414 313.087281 
L 286.016139 312.58622 
L 286.601945 311.902463 
L 287.519612 310.358352 
L 289.46705 306.799602 
L 290.329152 305.76861 
L 291.396643 304.95185 
L 296.268516 301.855408 
L 297.083232 300.725259 
L 297.650028 299.49952 
L 298.002853 298.200857 
L 298.210731 296.414417 
L 298.345853 291.465445 
L 298.319194 287.415811 
L 298.123548 285.626994 
L 297.70226 283.879721 
L 297.190955 282.636341 
L 296.496496 281.469424 
L 295.396093 280.146231 
L 295.078252 279.836745 
L 293.817972 279.211298 
L 292.520858 278.857872 
L 290.728724 278.723284 
L 288.931658 278.819651 
L 285.816191 279.282359 
L 281.401897 280.155337 
L 267.339908 283.259256 
L 262.899281 283.992339 
L 260.209283 284.20724 
L 257.960495 284.171802 
L 255.275512 283.884617 
L 253.066618 283.43671 
L 249.126856 282.544589 
L 246.479032 282.002754 
L 243.897805 281.209857 
L 241.814304 280.359281 
L 239.819464 279.321675 
L 237.554931 277.852576 
L 235.783596 276.465914 
L 234.151043 274.918038 
L 232.689393 273.208589 
L 231.407988 271.355605 
L 229.211929 267.965726 
L 227.912927 266.127188 
L 226.801562 264.168807 
L 225.937117 262.094047 
L 225.296856 259.9377 
L 224.750008 257.294144 
L 224.571468 255.504322 
L 224.623023 254.157126 
L 224.90013 252.852273 
L 225.438304 251.593513 
L 225.728571 251.185676 
L 226.026685 250.968986 
L 226.587183 250.258604 
L 227.671022 249.43988 
L 228.888946 248.865813 
L 230.193432 248.524914 
L 231.534262 248.385549 
L 233.784103 248.427146 
L 236.932081 248.520279 
L 238.273808 248.380055 
L 239.575219 248.037057 
L 240.795769 247.460428 
L 241.896479 246.627209 
L 243.290271 244.934418 
L 244.033543 243.79672 
L 244.801614 242.165909 
L 245.190019 240.875909 
L 245.441105 239.095864 
L 245.541805 235.947236 
L 245.471198 233.699357 
L 245.267468 232.367379 
L 244.882884 231.072683 
L 244.320322 229.845872 
L 243.573267 228.721584 
L 242.482325 227.365221 
L 241.928926 226.629474 
L 240.892301 225.730665 
L 239.723174 225.054801 
L 238.444568 224.645523 
L 237.106773 224.46844 
L 234.855916 224.442975 
L 229.910264 224.586524 
L 227.24823 225.035709 
L 223.744465 225.864301 
L 218.119095 227.473548 
L 212.046686 229.153872 
L 208.523278 229.892631 
L 205.847534 230.250876 
L 204.04948 230.309941 
L 202.260713 230.136824 
L 200.519974 229.685474 
L 199.271787 229.147967 
L 194.655119 226.384276 
L 192.868502 225.009339 
L 191.565502 223.764043 
L 190.430123 222.371002 
L 189.208344 220.482504 
L 187.263811 216.929417 
L 182.6829 208.157404 
L 181.960037 206.025882 
L 181.464625 203.831584 
L 181.220704 201.596524 
L 181.306054 200.253482 
L 181.553126 199.379233 
L 182.165708 198.171885 
L 183.451015 196.351543 
L 184.414145 195.397696 
L 185.497163 194.593369 
L 186.676914 193.934589 
L 188.358965 193.297623 
L 190.111956 192.895998 
L 193.233973 192.478294 
L 202.187656 191.549625 
L 205.324959 191.260318 
L 205.324959 191.260318 
" clip-path="url(#p4308189df9)" style="fill: none; stroke: #f53b57; stroke-width: 2; stroke-linecap: square"/>
   </g>
   <g id="line2d_3">
    <path d="M 206.199389 194.49006 
L 234.236915 190.944089 
L 268.079864 186.728387 
L 269.110464 186.48228 
L 270.219711 186.046586 
L 271.310038 185.351879 
L 272.227941 184.453697 
L 272.938766 183.47681 
L 273.485808 182.465008 
L 273.893614 181.425112 
L 274.167753 180.373735 
L 274.363735 178.324082 
L 274.227168 176.40908 
L 273.732524 173.807726 
L 267.202286 145.158267 
L 266.346767 143.235436 
L 265.704546 142.269498 
L 264.872961 141.377282 
L 263.91466 140.66506 
L 262.023783 139.766372 
L 258.0117 138.46001 
L 249.858292 135.845918 
L 248.088796 134.87765 
L 245.624972 133.021119 
L 242.712905 130.755076 
L 241.246249 129.099783 
L 238.803478 126.158396 
L 237.762049 124.403107 
L 236.908634 122.439904 
L 236.521801 121.171557 
L 236.311945 119.888647 
L 236.135314 116.842596 
L 236.187174 114.851562 
L 236.462968 113.646669 
L 240.146167 102.010871 
L 241.050243 97.914693 
L 241.691883 93.772923 
L 242.016925 90.423138 
L 242.15166 87.045519 
L 242.085252 83.683304 
L 241.727385 78.734109 
L 239.943821 61.008801 
L 238.872257 51.645241 
L 238.055754 50.126775 
L 236.521472 49.103575 
L 233.651657 48.389174 
L 231.671176 47.978838 
L 231.011881 47.611935 
L 230.581988 47.099018 
L 230.506905 46.821801 
L 230.710188 46.092658 
L 235.664213 34.085996 
L 236.224306 32.336144 
L 236.459149 31.371329 
L 236.629345 30.167919 
L 236.441744 28.564396 
L 235.534944 27.011259 
L 234.235418 26.011834 
L 232.828701 25.493718 
L 231.427711 25.368182 
L 230.120625 25.545873 
L 228.930414 25.946332 
L 227.8441 26.531105 
L 226.843693 27.328549 
L 225.998099 28.371428 
L 225.451708 29.478137 
L 221.895515 39.49349 
L 203.289398 91.172917 
L 187.446525 135.282779 
L 178.812373 159.781666 
L 177.069488 166.063849 
L 175.282177 172.164445 
L 173.47396 177.433005 
L 161.516994 210.968376 
L 161.191324 212.249699 
L 161.283886 213.89753 
L 161.98258 215.478143 
L 163.252647 216.712034 
L 164.725117 217.309392 
L 165.956814 217.475138 
L 167.943043 217.42608 
L 173.3973 216.9571 
L 173.174455 216.840272 
L 172.617012 216.464249 
L 173.422988 220.318899 
L 175.221034 227.438554 
L 176.44582 231.459974 
L 178.44521 236.901826 
L 179.545476 239.2852 
L 181.228987 242.257503 
L 183.486643 245.751234 
L 185.44853 248.486763 
L 187.616703 251.118781 
L 189.954353 253.578827 
L 193.033878 256.424324 
L 198.027407 260.614599 
L 229.191496 286.45342 
L 231.915712 288.427961 
L 238.6958 292.918832 
L 244.91364 296.867591 
L 249.227042 299.325047 
L 255.748032 302.682713 
L 274.561616 312.061188 
L 283.723896 316.519811 
L 285.177312 316.731818 
L 286.994315 316.363681 
L 288.489825 315.0915 
L 289.148286 313.766017 
L 289.682319 311.841578 
L 290.568237 307.577532 
L 291.009558 306.836229 
L 291.473582 306.46623 
L 292.294344 306.232908 
L 293.454895 306.200307 
L 294.310435 306.259451 
L 295.551674 306.198876 
L 297.042734 305.73106 
L 298.507463 304.565713 
L 299.262943 302.879143 
L 299.372587 300.706632 
L 299.474252 283.63605 
L 299.218382 279.954522 
L 298.697794 278.508067 
L 297.309441 277.058061 
L 295.448051 276.546855 
L 293.205285 276.868459 
L 285.342834 278.088935 
L 280.657972 278.68423 
L 265.420826 280.053577 
L 260.464396 280.542703 
L 251.992957 281.687936 
L 250.882936 281.592529 
L 249.792588 281.249857 
L 247.905961 280.300386 
L 245.337834 278.681176 
L 232.303513 269.691329 
L 231.406583 268.812222 
L 230.888394 268.020512 
L 230.50389 266.886616 
L 230.020919 264.710127 
L 227.62117 252.798052 
L 227.20997 251.290974 
L 226.80764 251.956127 
L 227.639751 251.789363 
L 243.208587 249.588315 
L 244.651694 248.87313 
L 245.771066 247.558503 
L 246.294761 246.249749 
L 246.647646 244.104963 
L 246.722306 239.159123 
L 246.868667 229.300092 
L 246.777832 228.196212 
L 246.443976 226.905548 
L 245.706502 225.589385 
L 244.485787 224.482923 
L 243.067012 223.916315 
L 235.383762 222.777318 
L 233.426592 222.806374 
L 230.835002 223.181274 
L 226.118121 223.835205 
L 198.791746 227.387089 
L 198.080457 227.092115 
L 197.09089 226.42938 
L 196.261982 225.635327 
L 195.572886 224.667025 
L 194.145802 221.950546 
L 188.407477 211.226289 
L 184.337402 203.661286 
L 183.930735 202.445857 
L 183.712079 201.19541 
L 183.534571 198.587486 
L 183.687207 198.124131 
L 184.130389 197.745667 
L 185.00652 197.37265 
L 186.263368 197.101865 
L 190.967318 196.500781 
L 205.399854 194.594502 
L 205.399854 194.594502 
" clip-path="url(#p4308189df9)" style="fill: none; stroke: #05c46b; stroke-linecap: square"/>
   </g>
   <g id="line2d_4">
    <path d="M 205.559537 189.58017 
L 233.628175 186.030244 
L 267.649693 181.751256 
L 268.219934 181.483069 
L 268.746098 180.842807 
L 269.185239 179.89291 
L 269.388325 178.871964 
L 269.388157 177.707115 
L 269.06645 175.646096 
L 263.103866 148.882372 
L 262.534193 146.809128 
L 262.053212 145.701571 
L 261.573476 145.069142 
L 260.846602 144.630937 
L 258.831915 143.913252 
L 252.729929 142.046031 
L 249.492623 141.032332 
L 247.814197 140.355698 
L 246.159304 139.506132 
L 244.6076 138.482641 
L 239.927588 134.925197 
L 238.586167 133.5967 
L 235.313374 129.755666 
L 234.24071 128.236747 
L 233.339943 126.63053 
L 232.254805 124.130557 
L 231.701425 122.30311 
L 231.389401 120.422489 
L 231.186778 117.011205 
L 231.18915 115.166618 
L 231.465651 113.179816 
L 232.259766 110.606073 
L 234.501416 103.757842 
L 235.535328 100.034283 
L 236.32109 96.240708 
L 236.868106 92.394784 
L 237.162325 88.538297 
L 237.190914 85.45931 
L 236.996268 81.559942 
L 236.39546 75.199217 
L 234.377375 54.968347 
L 234.192301 53.262166 
L 234.371057 53.434258 
L 234.639837 53.683519 
L 231.00958 52.930151 
L 229.969233 52.62855 
L 228.86385 52.12548 
L 227.817235 51.394881 
L 226.913808 50.477364 
L 226.185862 49.377286 
L 225.696907 48.082196 
L 225.557109 46.695507 
L 225.732941 45.437938 
L 226.433226 43.491495 
L 227.980773 39.786818 
L 230.149035 34.51723 
L 231.243619 31.71666 
L 231.680926 29.995914 
L 231.729355 30.084208 
L 231.873853 30.363782 
L 231.7595 30.328306 
L 231.262815 30.363739 
L 230.558337 30.672282 
L 230.180372 31.021906 
L 229.830014 31.97209 
L 228.193081 36.610312 
L 192.111225 136.943202 
L 183.556654 161.198785 
L 181.84508 167.371578 
L 179.998215 173.672893 
L 178.136277 179.100106 
L 166.112862 212.792751 
L 166.063583 212.674245 
L 165.909933 212.501831 
L 166.857842 212.536547 
L 173.413959 212.005721 
L 175.152841 212.301283 
L 176.728545 213.627885 
L 177.358883 215.039087 
L 179.003269 222.271725 
L 180.648691 228.386503 
L 181.930343 232.087666 
L 183.314016 235.697362 
L 184.302012 237.690068 
L 185.863632 240.335202 
L 188.470517 244.244819 
L 190.328791 246.674327 
L 192.355614 248.957944 
L 194.550708 251.128277 
L 197.486884 253.721305 
L 212.981107 266.620355 
L 234.079776 283.902465 
L 238.71952 287.003624 
L 246.79177 292.215484 
L 250.878764 294.588165 
L 256.542479 297.535249 
L 273.867406 306.189635 
L 285.17196 311.780414 
L 284.882053 311.885423 
L 284.482233 312.183642 
L 284.514595 312.020926 
L 284.982104 310.092163 
L 285.400257 307.595605 
L 286.035518 305.584824 
L 286.559266 304.572488 
L 287.258961 303.603668 
L 288.164988 302.729668 
L 289.248122 302.043136 
L 290.399347 301.591698 
L 291.544138 301.338664 
L 293.677513 301.253906 
L 294.809289 301.311992 
L 294.429803 301.80341 
L 294.446204 299.030221 
L 294.622803 286.230353 
L 294.403898 280.973609 
L 294.798296 281.325448 
L 295.201985 281.492144 
L 293.24599 281.881514 
L 288.500769 282.606277 
L 282.804288 283.429648 
L 277.891388 283.902662 
L 262.654965 285.268264 
L 258.795242 285.802603 
L 253.850886 286.527987 
L 251.980775 286.639328 
L 249.917394 286.448882 
L 247.939737 285.841521 
L 246.236324 285.03285 
L 243.97354 283.70895 
L 240.553756 281.394972 
L 233.87423 276.90943 
L 229.754912 274.00814 
L 228.33737 272.76674 
L 227.62904 272.013254 
L 226.952412 271.116271 
L 226.40152 270.114407 
L 225.734425 268.216519 
L 225.16144 265.65981 
L 222.780545 253.839584 
L 222.364849 252.091613 
L 222.315356 250.543184 
L 223.085244 248.701558 
L 224.522246 247.563701 
L 225.80742 247.101493 
L 228.509449 246.668236 
L 241.697697 244.873058 
L 241.626168 244.953611 
L 241.474981 245.096778 
L 241.64699 244.345655 
L 241.731548 243.084526 
L 241.818609 236.635435 
L 241.833776 228.711784 
L 241.803839 228.636622 
L 241.854448 228.716953 
L 238.805339 228.29092 
L 235.101727 227.720687 
L 233.845451 227.740033 
L 230.815629 228.199663 
L 222.756448 229.26963 
L 199.270772 232.339961 
L 198.032005 232.279862 
L 196.774766 231.941944 
L 194.824536 230.900174 
L 193.224921 229.619209 
L 191.883772 228.067225 
L 190.887068 226.440265 
L 184.061218 213.598308 
L 179.740437 205.500946 
L 179.135912 203.681212 
L 178.790375 201.736943 
L 178.577139 199.088533 
L 178.630148 197.906994 
L 178.945065 196.6169 
L 179.573699 195.36814 
L 180.47802 194.32124 
L 181.496914 193.552668 
L 182.532751 193.011554 
L 184.526174 192.390172 
L 187.137698 191.976311 
L 204.756985 189.685005 
L 204.756985 189.685005 
" clip-path="url(#p4308189df9)" style="fill: none; stroke: #05c46b; stroke-linecap: square"/>
   </g>
   <g id="patch_3">
    <path d="M 154.270457 331.3 
L 154.270457 10.8 
" style="fill: none; stroke: #000000; stroke-width: 0.8; stroke-linejoin: miter; stroke-linecap: square"/>
   </g>
   <g id="patch_4">
    <path d="M 306.529543 331.3 
L 306.529543 10.8 
" style="fill: none; stroke: #000000; stroke-width: 0.8; stroke-linejoin: miter; stroke-linecap: square"/>
   </g>
   <g id="patch_5">
    <path d="M 154.270457 331.3 
L 306.529543 331.3 
" style="fill: none; stroke: #000000; stroke-width: 0.8; stroke-linejoin: miter; stroke-linecap: square"/>
   </g>
   <g id="patch_6">
    <path d="M 154.270457 10.8 
L 306.529543 10.8 
" style="fill: none; stroke: #000000; stroke-width: 0.8; stroke-linejoin: miter; stroke-linecap: square"/>
   </g>
   <g id="legend_1">
    <g id="patch_7">
     <path d="M 161.270457 326.3 
L 249.653269 326.3 
Q 251.653269 326.3 251.653269 324.3 
L 251.653269 281.265625 
Q 251.653269 279.265625 249.653269 279.265625 
L 161.270457 279.265625 
Q 159.270457 279.265625 159.270457 281.265625 
L 159.270457 324.3 
Q 159.270457 326.3 161.270457 326.3 
z
" style="fill: #ffffff; opacity: 0.8; stroke: #cccccc; stroke-linejoin: miter"/>
    </g>
    <g id="line2d_5">
     <path d="M 163.270457 287.364062 
L 173.270457 287.364062 
L 183.270457 287.364062 
" style="fill: none; stroke: #575fcf; stroke-width: 2; stroke-linecap: square"/>
    </g>
    <g id="text_1">
     <!-- Track -->
     <g transform="translate(191.270457 290.864062)scale(0.1 -0.1)">
      <defs>
       <path id="DejaVuSans-54" d="M -19 4666 
L 3928 4666 
L 3928 4134 
L 2272 4134 
L 2272 0 
L 1638 0 
L 1638 4134 
L -19 4134 
L -19 4666 
z
" transform="scale(0.015625)"/>
       <path id="DejaVuSans-72" d="M 2631 2963 
Q 2534 3019 2420 3045 
Q 2306 3072 2169 3072 
Q 1681 3072 1420 2755 
Q 1159 2438 1159 1844 
L 1159 0 
L 581 0 
L 581 3500 
L 1159 3500 
L 1159 2956 
Q 1341 3275 1631 3429 
Q 1922 3584 2338 3584 
Q 2397 3584 2469 3576 
Q 2541 3569 2628 3553 
L 2631 2963 
z
" transform="scale(0.015625)"/>
       <path id="DejaVuSans-61" d="M 2194 1759 
Q 1497 1759 1228 1600 
Q 959 1441 959 1056 
Q 959 750 1161 570 
Q 1363 391 1709 391 
Q 2188 391 2477 730 
Q 2766 1069 2766 1631 
L 2766 1759 
L 2194 1759 
z
M 3341 1997 
L 3341 0 
L 2766 0 
L 2766 531 
Q 2569 213 2275 61 
Q 1981 -91 1556 -91 
Q 1019 -91 701 211 
Q 384 513 384 1019 
Q 384 1609 779 1909 
Q 1175 2209 1959 2209 
L 2766 2209 
L 2766 2266 
Q 2766 2663 2505 2880 
Q 2244 3097 1772 3097 
Q 1472 3097 1187 3025 
Q 903 2953 641 2809 
L 641 3341 
Q 956 3463 1253 3523 
Q 1550 3584 1831 3584 
Q 2591 3584 2966 3190 
Q 3341 2797 3341 1997 
z
" transform="scale(0.015625)"/>
       <path id="DejaVuSans-63" d="M 3122 3366 
L 3122 2828 
Q 2878 2963 2633 3030 
Q 2388 3097 2138 3097 
Q 1578 3097 1268 2742 
Q 959 2388 959 1747 
Q 959 1106 1268 751 
Q 1578 397 2138 397 
Q 2388 397 2633 464 
Q 2878 531 3122 666 
L 3122 134 
Q 2881 22 2623 -34 
Q 2366 -91 2075 -91 
Q 1284 -91 818 406 
Q 353 903 353 1747 
Q 353 2603 823 3093 
Q 1294 3584 2113 3584 
Q 2378 3584 2631 3529 
Q 2884 3475 3122 3366 
z
" transform="scale(0.015625)"/>
       <path id="DejaVuSans-6b" d="M 581 4863 
L 1159 4863 
L 1159 1991 
L 2875 3500 
L 3609 3500 
L 1753 1863 
L 3688 0 
L 2938 0 
L 1159 1709 
L 1159 0 
L 581 0 
L 581 4863 
z
" transform="scale(0.015625)"/>
      </defs>
      <use xlink:href="#DejaVuSans-54"/>
      <use xlink:href="#DejaVuSans-72" x="46.333984"/>
      <use xlink:href="#DejaVuSans-61" x="87.447266"/>
      <use xlink:href="#DejaVuSans-63" x="148.726562"/>
      <use xlink:href="#DejaVuSans-6b" x="203.707031"/>
     </g>
    </g>
    <g id="line2d_6">
     <path d="M 163.270457 302.042187 
L 173.270457 302.042187 
L 183.270457 302.042187 
" style="fill: none; stroke: #f53b57; stroke-width: 2; stroke-linecap: square"/>
    </g>
    <g id="text_2">
     <!-- Raceline -->
     <g transform="translate(191.270457 305.542187)scale(0.1 -0.1)">
      <defs>
       <path id="DejaVuSans-52" d="M 2841 2188 
Q 3044 2119 3236 1894 
Q 3428 1669 3622 1275 
L 4263 0 
L 3584 0 
L 2988 1197 
Q 2756 1666 2539 1819 
Q 2322 1972 1947 1972 
L 1259 1972 
L 1259 0 
L 628 0 
L 628 4666 
L 2053 4666 
Q 2853 4666 3247 4331 
Q 3641 3997 3641 3322 
Q 3641 2881 3436 2590 
Q 3231 2300 2841 2188 
z
M 1259 4147 
L 1259 2491 
L 2053 2491 
Q 2509 2491 2742 2702 
Q 2975 2913 2975 3322 
Q 2975 3731 2742 3939 
Q 2509 4147 2053 4147 
L 1259 4147 
z
" transform="scale(0.015625)"/>
       <path id="DejaVuSans-65" d="M 3597 1894 
L 3597 1613 
L 953 1613 
Q 991 1019 1311 708 
Q 1631 397 2203 397 
Q 2534 397 2845 478 
Q 3156 559 3463 722 
L 3463 178 
Q 3153 47 2828 -22 
Q 2503 -91 2169 -91 
Q 1331 -91 842 396 
Q 353 884 353 1716 
Q 353 2575 817 3079 
Q 1281 3584 2069 3584 
Q 2775 3584 3186 3129 
Q 3597 2675 3597 1894 
z
M 3022 2063 
Q 3016 2534 2758 2815 
Q 2500 3097 2075 3097 
Q 1594 3097 1305 2825 
Q 1016 2553 972 2059 
L 3022 2063 
z
" transform="scale(0.015625)"/>
       <path id="DejaVuSans-6c" d="M 603 4863 
L 1178 4863 
L 1178 0 
L 603 0 
L 603 4863 
z
" transform="scale(0.015625)"/>
       <path id="DejaVuSans-69" d="M 603 3500 
L 1178 3500 
L 1178 0 
L 603 0 
L 603 3500 
z
M 603 4863 
L 1178 4863 
L 1178 4134 
L 603 4134 
L 603 4863 
z
" transform="scale(0.015625)"/>
       <path id="DejaVuSans-6e" d="M 3513 2113 
L 3513 0 
L 2938 0 
L 2938 2094 
Q 2938 2591 2744 2837 
Q 2550 3084 2163 3084 
Q 1697 3084 1428 2787 
Q 1159 2491 1159 1978 
L 1159 0 
L 581 0 
L 581 3500 
L 1159 3500 
L 1159 2956 
Q 1366 3272 1645 3428 
Q 1925 3584 2291 3584 
Q 2894 3584 3203 3211 
Q 3513 2838 3513 2113 
z
" transform="scale(0.015625)"/>
      </defs>
      <use xlink:href="#DejaVuSans-52"/>
      <use xlink:href="#DejaVuSans-61" x="67.232422"/>
      <use xlink:href="#DejaVuSans-63" x="128.511719"/>
      <use xlink:href="#DejaVuSans-65" x="183.492188"/>
      <use xlink:href="#DejaVuSans-6c" x="245.015625"/>
      <use xlink:href="#DejaVuSans-69" x="272.798828"/>
      <use xlink:href="#DejaVuSans-6e" x="300.582031"/>
      <use xlink:href="#DejaVuSans-65" x="363.960938"/>
     </g>
    </g>
    <g id="line2d_7">
     <path d="M 163.270457 316.720312 
L 173.270457 316.720312 
L 183.270457 316.720312 
" style="fill: none; stroke: #05c46b; stroke-linecap: square"/>
    </g>
    <g id="text_3">
     <!-- Boundaries -->
     <g transform="translate(191.270457 320.220312)scale(0.1 -0.1)">
      <defs>
       <path id="DejaVuSans-42" d="M 1259 2228 
L 1259 519 
L 2272 519 
Q 2781 519 3026 730 
Q 3272 941 3272 1375 
Q 3272 1813 3026 2020 
Q 2781 2228 2272 2228 
L 1259 2228 
z
M 1259 4147 
L 1259 2741 
L 2194 2741 
Q 2656 2741 2882 2914 
Q 3109 3088 3109 3444 
Q 3109 3797 2882 3972 
Q 2656 4147 2194 4147 
L 1259 4147 
z
M 628 4666 
L 2241 4666 
Q 2963 4666 3353 4366 
Q 3744 4066 3744 3513 
Q 3744 3084 3544 2831 
Q 3344 2578 2956 2516 
Q 3422 2416 3680 2098 
Q 3938 1781 3938 1306 
Q 3938 681 3513 340 
Q 3088 0 2303 0 
L 628 0 
L 628 4666 
z
" transform="scale(0.015625)"/>
       <path id="DejaVuSans-6f" d="M 1959 3097 
Q 1497 3097 1228 2736 
Q 959 2375 959 1747 
Q 959 1119 1226 758 
Q 1494 397 1959 397 
Q 2419 397 2687 759 
Q 2956 1122 2956 1747 
Q 2956 2369 2687 2733 
Q 2419 3097 1959 3097 
z
M 1959 3584 
Q 2709 3584 3137 3096 
Q 3566 2609 3566 1747 
Q 3566 888 3137 398 
Q 2709 -91 1959 -91 
Q 1206 -91 779 398 
Q 353 888 353 1747 
Q 353 2609 779 3096 
Q 1206 3584 1959 3584 
z
" transform="scale(0.015625)"/>
       <path id="DejaVuSans-75" d="M 544 1381 
L 544 3500 
L 1119 3500 
L 1119 1403 
Q 1119 906 1312 657 
Q 1506 409 1894 409 
Q 2359 409 2629 706 
Q 2900 1003 2900 1516 
L 2900 3500 
L 3475 3500 
L 3475 0 
L 2900 0 
L 2900 538 
Q 2691 219 2414 64 
Q 2138 -91 1772 -91 
Q 1169 -91 856 284 
Q 544 659 544 1381 
z
M 1991 3584 
L 1991 3584 
z
" transform="scale(0.015625)"/>
       <path id="DejaVuSans-64" d="M 2906 2969 
L 2906 4863 
L 3481 4863 
L 3481 0 
L 2906 0 
L 2906 525 
Q 2725 213 2448 61 
Q 2172 -91 1784 -91 
Q 1150 -91 751 415 
Q 353 922 353 1747 
Q 353 2572 751 3078 
Q 1150 3584 1784 3584 
Q 2172 3584 2448 3432 
Q 2725 3281 2906 2969 
z
M 947 1747 
Q 947 1113 1208 752 
Q 1469 391 1925 391 
Q 2381 391 2643 752 
Q 2906 1113 2906 1747 
Q 2906 2381 2643 2742 
Q 2381 3103 1925 3103 
Q 1469 3103 1208 2742 
Q 947 2381 947 1747 
z
" transform="scale(0.015625)"/>
       <path id="DejaVuSans-73" d="M 2834 3397 
L 2834 2853 
Q 2591 2978 2328 3040 
Q 2066 3103 1784 3103 
Q 1356 3103 1142 2972 
Q 928 2841 928 2578 
Q 928 2378 1081 2264 
Q 1234 2150 1697 2047 
L 1894 2003 
Q 2506 1872 2764 1633 
Q 3022 1394 3022 966 
Q 3022 478 2636 193 
Q 2250 -91 1575 -91 
Q 1294 -91 989 -36 
Q 684 19 347 128 
L 347 722 
Q 666 556 975 473 
Q 1284 391 1588 391 
Q 1994 391 2212 530 
Q 2431 669 2431 922 
Q 2431 1156 2273 1281 
Q 2116 1406 1581 1522 
L 1381 1569 
Q 847 1681 609 1914 
Q 372 2147 372 2553 
Q 372 3047 722 3315 
Q 1072 3584 1716 3584 
Q 2034 3584 2315 3537 
Q 2597 3491 2834 3397 
z
" transform="scale(0.015625)"/>
      </defs>
      <use xlink:href="#DejaVuSans-42"/>
      <use xlink:href="#DejaVuSans-6f" x="68.603516"/>
      <use xlink:href="#DejaVuSans-75" x="129.785156"/>
      <use xlink:href="#DejaVuSans-6e" x="193.164062"/>
      <use xlink:href="#DejaVuSans-64" x="256.542969"/>
      <use xlink:href="#DejaVuSans-61" x="320.019531"/>
      <use xlink:href="#DejaVuSans-72" x="381.298828"/>
      <use xlink:href="#DejaVuSans-69" x="422.412109"/>
      <use xlink:href="#DejaVuSans-65" x="450.195312"/>
      <use xlink:href="#DejaVuSans-73" x="511.71875"/>
     </g>
    </g>
   </g>
  </g>
 </g>
 <defs>
  <clipPath id="p4308189df9">
   <rect x="154.270457" y="10.8" width="152.259087" height="320.5"/>
  </clipPath>
 </defs>
</svg>
