<?xml version="1.0" encoding="utf-8" standalone="no"?>
<!DOCTYPE svg PUBLIC "-//W3C//DTD SVG 1.1//EN"
  "http://www.w3.org/Graphics/SVG/1.1/DTD/svg11.dtd">
<svg xmlns:xlink="http://www.w3.org/1999/xlink" width="460.8pt" height="345.6pt" viewBox="0 0 460.8 345.6" xmlns="http://www.w3.org/2000/svg" version="1.1">
 <metadata>
  <rdf:RDF xmlns:dc="http://purl.org/dc/elements/1.1/" xmlns:cc="http://creativecommons.org/ns#" xmlns:rdf="http://www.w3.org/1999/02/22-rdf-syntax-ns#">
   <cc:Work>
    <dc:type rdf:resource="http://purl.org/dc/dcmitype/StillImage"/>
    <dc:date>2024-03-12T22:17:10.002603</dc:date>
    <dc:format>image/svg+xml</dc:format>
    <dc:creator>
     <cc:Agent>
      <dc:title>Matplotlib v3.5.2, https://matplotlib.org/</dc:title>
     </cc:Agent>
    </dc:creator>
   </cc:Work>
  </rdf:RDF>
 </metadata>
 <defs>
  <style type="text/css">*{stroke-linejoin: round; stroke-linecap: butt}</style>
 </defs>
 <g id="figure_1">
  <g id="patch_1">
   <path d="M 0 345.6 
L 460.8 345.6 
L 460.8 0 
L 0 0 
z
" style="fill: #ffffff"/>
  </g>
  <g id="axes_1">
   <g id="patch_2">
    <path d="M 46.649981 331.3 
L 414.150019 331.3 
L 414.150019 10.8 
L 46.649981 10.8 
z
" style="fill: #ffffff"/>
   </g>
   <g id="matplotlib.axis_1"/>
   <g id="matplotlib.axis_2"/>
   <g id="line2d_1">
    <path d="M 143.352138 33.24582 
L 148.449381 32.457738 
L 149.73773 32.443115 
L 153.587414 32.13177 
L 154.877203 32.126432 
L 158.726571 31.780531 
L 161.30536 31.70155 
L 163.872078 31.450411 
L 171.614917 31.489096 
L 176.776574 31.495831 
L 181.937441 31.496778 
L 193.464094 32.763889 
L 196.010935 33.160423 
L 202.370144 34.241069 
L 209.931154 35.905742 
L 214.892916 37.32445 
L 219.767288 39.018115 
L 223.350297 40.484 
L 235.034552 45.948283 
L 237.360694 47.064584 
L 242.088792 49.124113 
L 243.197391 49.773753 
L 244.180749 50.603128 
L 244.999602 51.597506 
L 245.605472 52.736143 
L 246.075292 53.934237 
L 246.408205 55.181046 
L 246.648766 57.747282 
L 246.596152 59.033098 
L 246.767273 61.602377 
L 246.735107 62.891946 
L 247.664015 77.040215 
L 252.641154 110.206157 
L 253.052289 112.753309 
L 253.806452 117.857418 
L 254.226265 120.401955 
L 254.787569 124.230599 
L 255.982327 131.877167 
L 256.734524 136.982502 
L 257.334304 140.805232 
L 259.083936 152.284705 
L 259.665374 154.798046 
L 261.373038 159.667772 
L 264.020442 165.551358 
L 265.144892 167.873543 
L 266.783548 172.768402 
L 267.765505 176.512745 
L 268.468693 180.319175 
L 270.453708 191.761536 
L 271.806648 199.384554 
L 273.562802 209.556678 
L 275.140537 217.131662 
L 275.650523 218.317017 
L 276.994025 220.518266 
L 278.514427 222.603825 
L 280.231092 224.530229 
L 284.897633 228.986078 
L 286.846337 230.676906 
L 288.982101 232.124572 
L 291.27233 233.320094 
L 292.47136 233.786091 
L 295.008846 234.255558 
L 296.285073 234.440203 
L 297.576233 234.33829 
L 300.068399 233.650776 
L 301.303538 233.279203 
L 302.493721 232.782597 
L 304.691693 231.432251 
L 323.970806 218.48084 
L 326.359001 217.505672 
L 328.830813 216.763213 
L 331.388209 216.457817 
L 333.968139 216.476185 
L 335.23221 216.727366 
L 336.41373 217.233389 
L 341.680729 220.960568 
L 385.767584 252.486986 
L 387.666245 254.234613 
L 388.538542 255.184362 
L 389.297014 256.222771 
L 389.888998 257.368426 
L 390.254784 258.60421 
L 390.455934 259.871463 
L 390.335781 261.154839 
L 389.940228 262.378311 
L 389.243309 263.461676 
L 388.304798 264.33703 
L 387.139592 264.882952 
L 383.455505 266.051771 
L 380.941382 266.631191 
L 377.101734 267.099267 
L 374.538612 267.326312 
L 373.248394 267.314709 
L 364.26843 268.149023 
L 359.218244 269.202133 
L 356.800641 270.102676 
L 355.64515 270.67443 
L 354.560557 271.376961 
L 353.5862 272.217341 
L 351.969452 274.241464 
L 351.330138 275.36385 
L 350.870617 276.5683 
L 350.631201 277.847159 
L 350.598451 279.175325 
L 350.775744 280.499024 
L 351.167346 281.763514 
L 351.777526 282.914054 
L 352.59138 283.915845 
L 353.540699 284.789805 
L 354.629527 285.486134 
L 355.820471 286.009625 
L 357.060367 286.383804 
L 358.334148 286.588889 
L 362.205048 286.609587 
L 367.333902 286.07281 
L 368.592084 285.794915 
L 369.868015 285.637666 
L 371.157577 285.610167 
L 372.438237 285.762897 
L 373.654986 286.186377 
L 374.718527 286.913138 
L 375.672795 287.778413 
L 376.440274 288.814402 
L 377.078586 289.933397 
L 377.55271 291.133101 
L 378.834898 297.455098 
L 379.665146 302.549111 
L 379.994876 305.101254 
L 379.787454 306.374066 
L 379.362004 307.590262 
L 378.656825 308.668522 
L 377.708896 309.538691 
L 376.601467 310.198217 
L 375.382342 310.612315 
L 374.117478 310.846237 
L 372.831142 310.934814 
L 366.402975 310.519629 
L 365.138872 310.262439 
L 363.855057 310.182454 
L 361.30481 309.774344 
L 360.019605 309.657588 
L 358.755538 309.39905 
L 357.472076 309.26739 
L 346.097392 306.931438 
L 339.848562 305.325564 
L 332.419035 303.14966 
L 323.875992 300.217422 
L 319.064752 298.348568 
L 313.122057 295.839137 
L 309.633701 294.161141 
L 301.63058 289.976466 
L 297.205989 287.317967 
L 295.055457 285.891513 
L 293.10131 284.207306 
L 290.385338 281.450138 
L 281.779218 271.835184 
L 277.697295 266.838066 
L 274.543452 262.751657 
L 270.791767 257.502708 
L 266.569661 251.01212 
L 262.829151 244.235052 
L 259.650135 237.18016 
L 258.684658 234.787742 
L 257.745142 232.384643 
L 256.481886 228.72541 
L 254.755216 222.509434 
L 253.842937 218.747326 
L 253.037085 214.961332 
L 252.094211 209.886617 
L 250.071794 197.144291 
L 249.465283 193.323103 
L 248.276927 185.673955 
L 247.056433 178.029517 
L 246.706417 175.474088 
L 246.074678 171.655251 
L 245.060473 165.283745 
L 244.778368 164.027294 
L 244.211851 162.808722 
L 243.468189 161.642247 
L 242.568326 160.590426 
L 241.533208 159.715817 
L 240.383781 159.080977 
L 239.141016 158.748627 
L 235.275817 158.680343 
L 234.642636 157.709889 
L 234.189253 156.511826 
L 233.324233 152.740207 
L 231.995049 142.519332 
L 232.084299 141.245211 
L 232.944496 138.813087 
L 233.892028 136.414467 
L 235.038216 134.101769 
L 235.503184 132.898639 
L 235.837115 131.649841 
L 235.978995 130.369189 
L 235.966922 127.790503 
L 235.472439 125.253561 
L 233.602633 111.195361 
L 233.024914 107.368168 
L 232.046545 99.69178 
L 229.981155 86.954558 
L 228.67456 79.32274 
L 228.041704 75.503517 
L 227.457498 72.989388 
L 227.054315 71.764137 
L 225.882222 69.467711 
L 225.143077 68.410056 
L 224.306476 67.427185 
L 223.380756 66.528897 
L 222.370295 65.724245 
L 221.267335 65.05565 
L 218.891806 64.050945 
L 216.422361 63.301178 
L 211.400865 62.108007 
L 205.049377 60.980821 
L 193.547659 59.518833 
L 190.973362 59.426623 
L 189.701254 59.223697 
L 183.273974 58.819243 
L 181.9853 58.901174 
L 180.709538 59.212562 
L 179.48367 59.712571 
L 178.34774 60.385082 
L 177.341792 61.213977 
L 176.554783 62.232884 
L 175.583675 63.078159 
L 174.508148 63.788498 
L 173.307702 64.26103 
L 172.069056 64.610882 
L 165.695704 65.601842 
L 156.760844 66.917523 
L 142.738297 69.073216 
L 140.185463 68.797871 
L 137.700907 68.108712 
L 135.264817 67.257231 
L 132.92296 66.173915 
L 128.311184 63.860421 
L 127.080137 63.469109 
L 124.537053 63.040974 
L 121.956834 62.990712 
L 120.666213 63.039491 
L 118.118416 63.445331 
L 115.619979 64.088415 
L 113.181512 64.929815 
L 110.860104 66.056487 
L 107.60481 68.151697 
L 104.508509 70.474496 
L 102.554457 72.159393 
L 98.869748 75.773724 
L 97.145697 77.694116 
L 95.561459 79.731207 
L 94.085569 81.848319 
L 87.925926 91.691309 
L 86.664222 93.942336 
L 85.118195 97.49105 
L 83.285963 102.309081 
L 82.603395 103.401079 
L 81.774976 104.388264 
L 80.768563 105.191666 
L 79.666029 105.860369 
L 78.477489 106.360291 
L 77.209125 106.572985 
L 74.644996 106.458117 
L 73.435792 106.008461 
L 72.377058 105.280306 
L 71.549125 104.292405 
L 70.844128 103.21287 
L 70.384021 102.00802 
L 70.066586 100.757745 
L 69.500536 87.874573 
L 69.37035 80.135405 
L 69.168766 74.979243 
L 69.236912 67.23684 
L 69.267392 65.947774 
L 69.137249 64.674946 
L 69.761297 62.176466 
L 70.370371 61.042957 
L 71.152972 60.020932 
L 72.142785 59.198166 
L 73.283662 58.604673 
L 74.509067 58.217161 
L 77.0675 57.969377 
L 80.930237 58.019661 
L 83.518936 57.843556 
L 84.666928 57.281287 
L 85.68001 56.515976 
L 88.177889 55.67095 
L 89.224314 54.946018 
L 93.096545 51.532202 
L 96.163648 49.170315 
L 99.355286 46.979807 
L 102.640985 44.933167 
L 107.214815 42.540338 
L 110.752041 40.968219 
L 115.616209 39.257337 
L 119.359373 38.270624 
L 139.538326 33.905345 
L 140.806451 33.67025 
L 140.806451 33.67025 
" clip-path="url(#pd02ee47241)" style="fill: none; stroke: #575fcf; stroke-width: 2; stroke-linecap: square"/>
   </g>
   <g id="line2d_2">
    <path d="M 145.855397 32.69173 
L 149.691641 32.32981 
L 153.545173 32.166495 
L 154.822531 32.048856 
L 157.395003 32.081864 
L 161.239709 31.755467 
L 163.812668 31.724017 
L 170.217127 31.098271 
L 174.069413 30.870146 
L 177.925076 30.741438 
L 183.086944 30.730798 
L 184.355967 30.648221 
L 198.493042 31.170505 
L 203.605582 31.78091 
L 208.660634 32.735227 
L 213.648074 33.965842 
L 218.543109 35.565481 
L 222.147582 36.950747 
L 226.836228 39.079343 
L 230.179764 41.010136 
L 233.280208 43.309799 
L 236.24225 45.782708 
L 239.03871 48.441895 
L 239.88558 49.410735 
L 243.554132 54.697127 
L 245.301815 58.13063 
L 246.325258 60.500922 
L 248.019274 65.345618 
L 249.080602 69.061867 
L 249.688345 71.550789 
L 251.316506 83.023608 
L 252.349917 90.67121 
L 257.220233 121.155835 
L 257.994846 126.248819 
L 258.536666 130.064482 
L 259.403272 136.440589 
L 260.328433 144.104204 
L 260.886467 147.924358 
L 262.20852 155.528209 
L 263.147815 161.894307 
L 263.581273 165.728376 
L 263.974354 169.564618 
L 264.495847 173.393613 
L 265.444272 179.754194 
L 268.943252 198.736668 
L 270.547637 204.963459 
L 271.755188 208.629958 
L 272.686259 211.033676 
L 273.857184 213.319344 
L 275.240358 215.489716 
L 278.85336 220.81155 
L 281.408283 223.705894 
L 283.238303 225.512546 
L 285.245801 227.124739 
L 287.43514 228.475292 
L 289.70372 229.684904 
L 290.874085 230.220655 
L 293.317377 230.992439 
L 294.563982 231.331682 
L 297.120081 231.568114 
L 298.403921 231.619711 
L 299.697609 231.52735 
L 304.735428 230.491567 
L 307.157739 229.625164 
L 309.491379 228.541854 
L 312.845977 226.632061 
L 318.416232 223.413381 
L 320.710585 222.248396 
L 323.121695 221.345567 
L 328.050513 219.862147 
L 331.866713 219.326029 
L 335.714247 219.327512 
L 337.008187 219.359846 
L 338.288842 219.527736 
L 340.778233 220.168945 
L 344.421001 221.441552 
L 347.989422 222.918374 
L 350.30161 224.047677 
L 353.623301 226.011768 
L 357.86128 228.93217 
L 380.813467 245.491256 
L 382.655374 247.291826 
L 384.330328 249.244099 
L 385.791546 251.365416 
L 386.447203 252.470262 
L 386.988978 253.635948 
L 387.390651 254.862788 
L 387.667541 256.12316 
L 387.810299 257.400965 
L 387.820549 258.6852 
L 387.655756 259.954991 
L 387.293256 261.186479 
L 386.70548 262.321491 
L 385.970418 263.375664 
L 385.071219 264.302768 
L 384.042934 265.077588 
L 381.773544 266.285113 
L 379.389334 267.238541 
L 376.917742 267.982607 
L 371.887562 269.011666 
L 369.327222 269.336356 
L 362.961925 270.198409 
L 360.516382 270.999611 
L 358.208725 272.13618 
L 357.144914 272.86455 
L 355.232106 274.57009 
L 354.436388 275.587377 
L 353.869113 276.742772 
L 353.534298 277.974444 
L 353.490495 279.258681 
L 353.784011 280.508319 
L 354.401842 281.628691 
L 355.271088 282.572563 
L 356.269673 283.37566 
L 358.515187 284.620528 
L 359.699039 285.146044 
L 360.92772 285.537272 
L 364.712718 286.279863 
L 367.242193 286.758913 
L 369.699311 287.52685 
L 370.897389 288.001746 
L 372.031485 288.612125 
L 373.101555 289.314441 
L 374.092615 290.132404 
L 375.012309 291.038756 
L 376.581558 293.057812 
L 377.228365 294.179874 
L 377.740275 295.362877 
L 378.378931 297.850455 
L 378.627513 300.405781 
L 378.537021 301.694686 
L 378.267139 302.959874 
L 377.328269 305.342621 
L 376.64816 306.439324 
L 375.833695 307.427527 
L 373.947949 309.168284 
L 371.763079 310.529456 
L 370.586351 311.056927 
L 368.099795 311.710561 
L 364.286189 312.272953 
L 361.706796 312.441342 
L 359.148265 312.276521 
L 355.315818 311.773527 
L 351.537072 311.026045 
L 346.547376 309.752592 
L 341.634004 308.223371 
L 335.565809 306.084572 
L 328.410277 303.184777 
L 321.414489 299.918905 
L 317.961943 298.192023 
L 309.00308 293.124313 
L 306.858068 291.701584 
L 301.677529 287.888485 
L 298.733287 285.391445 
L 294.871871 281.996941 
L 289.982212 277.809897 
L 287.275255 275.058996 
L 283.843479 271.223533 
L 280.563224 267.257525 
L 277.438763 263.16712 
L 274.474985 258.957977 
L 270.984866 253.553694 
L 268.42633 249.0899 
L 266.587429 245.695917 
L 264.277151 241.093701 
L 261.26363 233.984494 
L 258.151047 224.174947 
L 256.260663 216.695533 
L 254.77179 209.120205 
L 253.88616 204.046966 
L 252.186947 192.592049 
L 251.272607 186.224314 
L 250.56453 182.430597 
L 249.594642 178.692574 
L 248.698665 176.282925 
L 247.703581 173.910723 
L 245.90606 170.489705 
L 243.908401 167.187255 
L 238.741192 159.820145 
L 237.489743 157.561071 
L 236.473819 155.204827 
L 235.860223 152.702694 
L 235.401304 150.184454 
L 234.300832 146.487881 
L 233.799577 143.948785 
L 233.424448 141.427672 
L 233.03946 138.858693 
L 232.96831 132.432885 
L 233.112048 129.873683 
L 234.226569 113.1855 
L 234.768888 106.773854 
L 234.815078 102.915885 
L 234.649129 99.060205 
L 234.252914 95.219028 
L 233.665752 91.404909 
L 233.1168 88.892246 
L 231.993037 85.19726 
L 230.576861 81.605891 
L 228.91694 78.123492 
L 227.583574 75.921637 
L 226.080853 73.826752 
L 222.749533 69.914264 
L 220.835121 68.189684 
L 217.789717 65.826035 
L 215.599766 64.477245 
L 213.268638 63.383817 
L 209.616185 62.140348 
L 205.863943 61.248897 
L 203.324675 60.830258 
L 200.756269 60.631456 
L 196.90139 60.669951 
L 194.312431 60.748201 
L 175.113066 62.491084 
L 166.161342 63.49275 
L 162.310804 63.657662 
L 158.470344 64.009833 
L 154.647919 64.58928 
L 147.062363 65.973009 
L 145.78738 66.131054 
L 141.928826 66.149093 
L 138.065451 66.058835 
L 132.940663 65.593869 
L 130.371377 65.49992 
L 122.650655 65.721909 
L 118.827376 66.246177 
L 116.329778 66.865935 
L 113.916502 67.754509 
L 110.413006 69.365746 
L 108.230189 70.733388 
L 106.171259 72.278315 
L 103.314025 74.869636 
L 101.57373 76.766599 
L 99.16374 79.781282 
L 95.313359 84.93349 
L 93.916058 87.098552 
L 89.323328 94.840217 
L 87.767033 96.895096 
L 86.089953 98.84223 
L 84.141221 100.528532 
L 82.021208 101.98613 
L 79.725275 103.137717 
L 78.487787 103.521599 
L 77.214444 103.700446 
L 75.940267 103.687029 
L 74.687048 103.45849 
L 73.501197 102.955195 
L 72.424378 102.246857 
L 71.446937 101.406158 
L 69.739906 99.481713 
L 69.015786 98.418086 
L 67.985949 96.063864 
L 67.588384 94.839681 
L 66.814014 91.055415 
L 66.611493 87.201362 
L 66.631491 82.060134 
L 66.992749 78.216504 
L 67.57443 74.400821 
L 68.203469 71.902335 
L 68.99933 69.456326 
L 70.033315 67.095387 
L 72.000669 63.78336 
L 73.526206 61.716328 
L 75.411631 59.972508 
L 78.503023 57.657396 
L 79.58141 56.939258 
L 86.401822 53.304209 
L 87.538858 52.759819 
L 91.151513 51.39149 
L 97.165791 49.112608 
L 104.44197 46.530523 
L 110.430296 44.176229 
L 116.438243 41.883206 
L 124.837081 38.630571 
L 128.505968 37.431211 
L 138.318778 34.318201 
L 142.029637 33.263131 
L 143.296173 33.038368 
L 143.296173 33.038368 
" clip-path="url(#pd02ee47241)" style="fill: none; stroke: #f53b57; stroke-width: 2; stroke-linecap: square"/>
   </g>
   <g id="line2d_3">
    <path d="M 144.314996 38.992504 
L 145.574023 38.745414 
L 147.999401 38.401853 
L 151.762737 38.058741 
L 152.693113 37.653548 
L 153.557337 38.244578 
L 155.22974 38.220653 
L 157.8784 37.395204 
L 158.766357 37.571546 
L 161.754272 37.475276 
L 163.153398 37.348594 
L 164.104346 37.146759 
L 165.073743 37.261597 
L 166.417651 37.602762 
L 167.787088 37.598738 
L 169.056224 37.262659 
L 170.285065 37.267083 
L 171.642678 37.601915 
L 172.955763 37.255276 
L 174.13009 37.266272 
L 175.416716 37.606071 
L 178.162024 37.592469 
L 179.421784 37.246511 
L 180.555681 37.242022 
L 181.517948 37.595249 
L 182.630573 37.46988 
L 184.109567 37.53384 
L 185.143383 37.874417 
L 186.266664 37.802331 
L 187.541207 38.113362 
L 188.948498 38.13725 
L 190.235623 38.521991 
L 191.476544 38.442816 
L 192.693308 38.503517 
L 195.183336 39.113596 
L 196.407843 39.089682 
L 198.790085 39.773003 
L 200.014601 39.716689 
L 203.714295 40.639797 
L 204.917198 40.677705 
L 208.504616 41.527658 
L 210.81153 42.189331 
L 212.063451 42.52204 
L 213.075651 43.053564 
L 216.572329 43.985424 
L 217.581012 44.514185 
L 218.824758 44.835499 
L 219.896627 45.43293 
L 221.02089 45.746818 
L 223.032337 47.049678 
L 224.336609 47.649924 
L 225.434475 47.99227 
L 226.5393 48.724178 
L 227.977095 49.36425 
L 229.089147 49.663549 
L 230.022114 50.295219 
L 231.329987 50.920508 
L 232.49406 51.280165 
L 233.567361 51.98718 
L 236.020601 53.131715 
L 239.364845 54.587073 
L 239.548323 54.93509 
L 239.355863 55.367176 
L 239.461236 55.564577 
L 239.490824 56.09611 
L 239.65503 56.48449 
L 240.029544 57.073223 
L 240.450333 59.134494 
L 240.384085 60.734209 
L 240.646821 61.706825 
L 240.623351 63.009297 
L 241.143149 65.791986 
L 240.859261 67.111362 
L 241.21258 68.35619 
L 241.35616 70.974956 
L 241.76299 77.649735 
L 242.106564 79.042435 
L 242.109894 80.404721 
L 242.49046 81.829698 
L 242.643077 82.95055 
L 242.61074 84.294401 
L 243.060606 85.625214 
L 243.159311 86.807352 
L 243.605244 89.477062 
L 243.717193 90.748868 
L 244.035728 91.896873 
L 244.131669 93.202304 
L 244.408164 94.436825 
L 244.696322 97.197728 
L 245.011818 98.239151 
L 245.265765 100.891891 
L 245.511115 102.082649 
L 245.557654 103.538407 
L 245.970753 104.691652 
L 246.0617 105.941327 
L 246.517547 108.498538 
L 246.497547 109.765869 
L 246.9206 111.163344 
L 247.079394 112.410581 
L 247.098601 113.577197 
L 247.472648 114.93364 
L 247.598462 116.26849 
L 247.912966 117.373304 
L 248.122444 120.102832 
L 248.475708 121.158282 
L 248.530073 122.612486 
L 248.909136 123.844682 
L 249.064017 126.445138 
L 249.44975 127.595913 
L 249.494089 128.919583 
L 249.855346 130.287613 
L 250.038964 131.539321 
L 250.029931 132.71034 
L 250.411462 134.01669 
L 250.497012 135.303051 
L 250.796303 136.538767 
L 251.021674 139.131232 
L 251.370756 140.359064 
L 251.475718 141.738277 
L 251.782406 142.884728 
L 251.985033 145.630607 
L 252.378205 146.722553 
L 252.408216 148.065052 
L 252.782854 149.365226 
L 252.910973 150.555431 
L 252.929225 151.95401 
L 253.379684 153.334683 
L 253.612649 154.873795 
L 254.114172 156.47885 
L 254.672393 157.824608 
L 254.870911 159.116676 
L 255.345138 160.510409 
L 256.061067 161.882803 
L 256.463425 163.182513 
L 258.127847 166.911246 
L 258.710653 168.137707 
L 259.416974 169.214085 
L 259.665096 170.100294 
L 260.069298 170.941366 
L 260.262005 172.210271 
L 261.536485 175.51698 
L 262.083883 177.805279 
L 263.858744 188.945353 
L 264.288585 190.179694 
L 264.62659 192.874329 
L 264.995404 194.041482 
L 265.272715 196.591685 
L 265.646545 197.914344 
L 265.859515 199.149102 
L 265.953159 200.349057 
L 266.304883 201.636483 
L 266.718481 204.225986 
L 266.770114 205.470902 
L 267.208163 206.696644 
L 267.426324 209.308508 
L 267.861 210.619882 
L 268.090044 211.868767 
L 268.177499 213.08426 
L 268.557035 214.415673 
L 268.778793 215.764077 
L 268.934063 217.402313 
L 270.226188 220.984569 
L 272.066512 223.914483 
L 273.877763 226.304494 
L 275.988697 228.65196 
L 278.884849 231.629972 
L 279.719163 232.521568 
L 280.831944 233.282211 
L 281.8197 234.501729 
L 283.117224 235.56312 
L 284.540722 236.377788 
L 285.914455 237.333102 
L 287.322579 238.090894 
L 288.731268 238.990408 
L 290.732171 239.637504 
L 294.068557 240.431265 
L 296.088193 240.549914 
L 298.5297 240.410544 
L 300.46196 239.923845 
L 301.816399 239.319823 
L 303.329184 238.937997 
L 310.211298 234.929021 
L 311.145327 233.971032 
L 312.170988 233.266072 
L 313.293657 232.729606 
L 314.365002 232.025138 
L 315.304875 231.066578 
L 316.487508 230.482567 
L 321.794348 226.879668 
L 322.97987 226.326074 
L 324.005927 225.327201 
L 325.08716 224.557402 
L 326.666074 223.73618 
L 327.34345 223.328874 
L 328.316636 223.07799 
L 329.225282 222.56405 
L 329.934386 222.356464 
L 330.800134 222.391648 
L 331.730153 222.238865 
L 332.637095 222.24501 
L 333.317551 222.554348 
L 333.495748 222.335728 
L 333.552467 222.430193 
L 338.237942 225.759556 
L 340.388401 227.283746 
L 341.499819 227.935058 
L 343.457427 229.554886 
L 344.619167 230.162471 
L 345.571908 231.06721 
L 356.112312 238.500141 
L 357.226014 239.165174 
L 359.217875 240.813982 
L 360.374335 241.41384 
L 361.317476 242.31458 
L 370.865599 249.004508 
L 377.116408 253.484866 
L 379.21395 255.055517 
L 381.89652 256.959283 
L 382.716685 257.70699 
L 383.786095 259.082516 
L 383.879117 259.572779 
L 383.517588 260.130178 
L 383.514223 260.091904 
L 383.226091 259.692241 
L 383.296871 259.232148 
L 383.776527 258.897195 
L 384.543994 258.770436 
L 384.772026 258.925743 
L 382.932455 260.02891 
L 381.851529 260.161858 
L 378.88546 261.048903 
L 377.765632 261.218502 
L 376.457693 261.263666 
L 375.311336 261.490702 
L 374.40697 261.214848 
L 372.998608 261.215412 
L 371.239264 261.650035 
L 369.20544 261.534608 
L 366.239335 262.151206 
L 364.986078 261.903244 
L 363.352461 262.394678 
L 360.584785 262.612269 
L 359.131068 263.226616 
L 355.886598 263.952792 
L 352.777286 265.632971 
L 351.082385 266.735489 
L 349.383649 268.030198 
L 347.150918 271.094224 
L 346.085468 272.887082 
L 345.185321 274.968151 
L 344.653265 277.22308 
L 344.494629 279.50802 
L 344.813661 281.809515 
L 345.560212 284.089417 
L 348.112717 288.125708 
L 349.835829 289.598518 
L 351.765666 290.838524 
L 353.726455 291.680105 
L 355.728187 292.164712 
L 357.8024 292.355576 
L 359.578144 292.732932 
L 360.938617 292.399472 
L 362.485782 292.39393 
L 363.900535 292.268905 
L 365.274201 292.416667 
L 366.857876 292.042673 
L 368.461196 292.072228 
L 369.609274 291.71864 
L 370.299722 291.632566 
L 370.860087 291.715806 
L 370.997065 292.009234 
L 370.767896 291.909874 
L 370.911218 291.73867 
L 371.116684 291.904334 
L 371.26404 292.191089 
L 371.877434 292.860774 
L 372.257658 293.609986 
L 372.748047 296.032418 
L 372.913599 297.297289 
L 373.415762 298.435694 
L 373.595247 299.684651 
L 373.652036 300.901482 
L 374.057133 302.08843 
L 373.927451 303.334152 
L 374.045949 304.575665 
L 373.891121 305.011904 
L 373.871294 304.869784 
L 373.670023 304.785451 
L 373.942674 304.436582 
L 373.856459 304.763304 
L 372.813165 305.14369 
L 370.485109 304.959773 
L 369.323704 305.211745 
L 368.190245 305.136022 
L 364.50131 304.518119 
L 361.969437 304.335931 
L 360.849947 304.017299 
L 359.606233 303.845038 
L 358.339721 303.460823 
L 356.023646 303.095706 
L 354.819313 302.634115 
L 349.876387 301.961187 
L 348.726777 301.36229 
L 343.817431 300.178073 
L 335.363924 297.897537 
L 334.310029 297.444457 
L 333.09138 297.041777 
L 331.817478 296.836736 
L 329.399715 295.809805 
L 324.686466 294.335321 
L 323.654715 293.723677 
L 319.995297 292.471403 
L 318.936292 291.83744 
L 317.80468 291.627103 
L 316.767955 290.839271 
L 315.53056 290.436759 
L 313.471447 289.326998 
L 312.370057 288.771188 
L 311.14645 288.301783 
L 309.943512 287.7015 
L 308.841708 287.009532 
L 304.584344 284.861942 
L 303.554868 284.171111 
L 302.442796 283.599354 
L 300.422528 282.271331 
L 299.331279 281.779273 
L 298.016694 280.480077 
L 295.700889 278.147274 
L 294.750052 277.458164 
L 292.10189 274.574396 
L 291.414987 273.490859 
L 289.583118 271.807205 
L 288.915434 270.702812 
L 287.112459 268.985285 
L 285.663283 266.901726 
L 284.699719 266.081654 
L 284.092207 264.996749 
L 283.179556 264.113157 
L 281.665529 262.076644 
L 280.852436 261.169153 
L 279.400857 259.110861 
L 277.925372 257.098694 
L 277.076701 256.168668 
L 276.509609 255.127422 
L 275.840781 254.13266 
L 274.998123 253.157471 
L 274.430859 252.011333 
L 271.070132 246.968754 
L 270.523891 245.737525 
L 269.815561 244.806639 
L 269.376985 243.652359 
L 267.638075 240.576642 
L 267.178563 239.253564 
L 265.166928 235.071115 
L 264.777446 233.720142 
L 264.122339 232.460037 
L 263.497826 231.520912 
L 262.970941 229.173159 
L 262.385601 228.106097 
L 261.690621 225.880065 
L 260.515616 221.091197 
L 258.605932 213.740565 
L 258.607425 212.599991 
L 258.017378 210.112258 
L 258.027415 208.926258 
L 257.396117 206.383419 
L 257.40358 205.08069 
L 256.790944 202.594922 
L 256.785369 201.35115 
L 256.154872 198.716411 
L 256.112415 197.559539 
L 255.824837 196.220188 
L 255.776213 194.972737 
L 255.185239 192.417822 
L 255.131811 191.066394 
L 254.789662 189.838583 
L 254.91215 188.66776 
L 254.184386 186.029423 
L 254.215622 184.748159 
L 253.592842 182.233202 
L 253.530881 180.979555 
L 253.248603 179.677361 
L 253.283316 178.274584 
L 252.929372 177.19155 
L 252.648225 175.962302 
L 252.631026 174.46206 
L 252.010093 172.047178 
L 252.016281 170.748303 
L 251.653138 169.532299 
L 251.730262 168.154307 
L 251.037417 165.589248 
L 251.042964 164.069818 
L 250.463874 162.07788 
L 248.234875 158.110632 
L 246.753881 156.386294 
L 245.051213 154.624396 
L 242.753106 153.220825 
L 238.09851 152.310205 
L 236.655738 152.216241 
L 238.090463 152.920874 
L 240.016235 155.017376 
L 239.025667 151.724784 
L 239.030161 150.706684 
L 238.743775 149.48573 
L 238.733772 148.262606 
L 238.464229 146.849236 
L 238.364626 145.499643 
L 237.692428 143.028651 
L 237.773765 142.372559 
L 238.066579 141.993008 
L 238.634241 139.673084 
L 239.256069 138.886337 
L 240.56208 136.470762 
L 241.217916 134.760638 
L 241.667282 132.746544 
L 241.759492 130.720312 
L 242.106162 129.049193 
L 241.72505 127.094146 
L 241.584135 125.376 
L 241.280383 124.395185 
L 241.037401 123.133418 
L 240.970966 121.864265 
L 240.682373 120.641468 
L 240.634579 119.391069 
L 240.36495 118.097896 
L 240.367931 116.794893 
L 240.025979 115.554228 
L 240.043022 114.310273 
L 239.450266 111.664412 
L 239.380014 110.438166 
L 239.107735 109.057089 
L 239.031117 107.831936 
L 238.765579 106.605151 
L 238.763672 105.354518 
L 238.449254 104.058731 
L 238.431105 102.802957 
L 238.135829 101.446472 
L 238.066074 100.181248 
L 237.787442 98.93051 
L 237.720853 97.579865 
L 237.426405 96.331363 
L 237.426266 94.923414 
L 236.784606 92.338041 
L 236.769673 91.028482 
L 236.112075 88.532872 
L 236.056343 87.278384 
L 235.238166 83.461428 
L 235.174827 82.166382 
L 234.611764 79.63299 
L 234.526679 78.349957 
L 233.963898 75.798054 
L 233.862011 74.355637 
L 232.454652 69.648172 
L 231.643827 67.974284 
L 230.728082 66.413125 
L 228.623098 63.383257 
L 227.28139 62.09402 
L 225.762806 60.857575 
L 224.051811 59.847026 
L 220.879298 58.378637 
L 219.409231 57.905155 
L 217.891178 57.792557 
L 215.293966 57.143175 
L 213.969998 56.581577 
L 211.276799 56.104016 
L 208.576904 55.679562 
L 207.260222 55.310735 
L 205.844647 55.23552 
L 204.619076 54.865175 
L 203.29577 54.844851 
L 200.684896 54.387418 
L 199.328284 54.164823 
L 198.142747 54.175264 
L 196.583653 53.813643 
L 195.466174 53.966936 
L 194.14371 53.616433 
L 191.513569 53.660722 
L 190.33662 53.3254 
L 188.545828 53.039391 
L 187.545819 53.172146 
L 186.537319 53.139636 
L 184.920653 52.763411 
L 183.194529 53.028637 
L 181.058577 52.858947 
L 176.795744 54.298304 
L 174.942539 55.527284 
L 171.486228 58.858757 
L 170.819849 59.048346 
L 168.732321 59.111208 
L 165.988619 59.670151 
L 164.854192 59.650619 
L 163.577043 60.035689 
L 162.297011 60.165596 
L 158.500104 60.89678 
L 155.898866 61.110112 
L 152.140035 61.847612 
L 149.46147 62.098588 
L 148.311748 62.343459 
L 146.940638 62.492711 
L 145.730067 62.74119 
L 142.969037 63.028745 
L 142.575332 63.284358 
L 142.085382 63.174059 
L 141.174506 63.183237 
L 140.538753 62.703072 
L 139.478338 62.58769 
L 135.535248 60.876838 
L 134.501839 60.20859 
L 130.389094 58.445328 
L 128.573741 57.791242 
L 126.780341 57.484828 
L 125.006727 57.048929 
L 123.360017 57.212909 
L 120.139551 57.130496 
L 116.971288 57.732576 
L 115.395484 58.041888 
L 112.472521 58.921846 
L 110.98749 59.66782 
L 107.936661 60.924572 
L 106.692096 61.907331 
L 105.551221 62.644739 
L 104.483715 63.580275 
L 103.117513 64.222036 
L 102.045271 65.174887 
L 100.818568 65.862835 
L 99.769128 66.953562 
L 98.538435 67.816796 
L 97.536101 68.760503 
L 96.706339 69.868956 
L 94.741377 71.855132 
L 93.59106 72.768831 
L 91.893318 75.243924 
L 90.973428 76.362412 
L 89.963388 77.401656 
L 89.377685 78.76448 
L 88.630483 79.94147 
L 87.860162 80.93629 
L 87.220211 81.965107 
L 86.364952 82.933369 
L 85.634974 84.041691 
L 85.12533 85.345237 
L 84.259334 86.50393 
L 81.516877 91.367802 
L 80.729048 92.699421 
L 80.2644 94.046912 
L 79.516391 95.312749 
L 79.285377 96.843349 
L 78.375993 98.869517 
L 78.033667 99.440623 
L 77.481998 99.989206 
L 76.705943 100.05716 
L 76.664977 100.111241 
L 76.656467 99.839283 
L 76.22451 99.75217 
L 76.195508 99.604616 
L 76.691226 99.739948 
L 76.94375 100.259594 
L 76.750119 100.436052 
L 76.475034 100.340939 
L 76.11097 99.845193 
L 76.103284 97.9796 
L 75.6974 96.561268 
L 75.549744 93.880067 
L 75.262166 92.741681 
L 75.43149 91.619652 
L 75.277729 85.279872 
L 75.239049 81.114008 
L 75.150535 79.779179 
L 74.756127 78.505332 
L 74.757042 77.301795 
L 74.967958 76.179236 
L 74.991818 68.653203 
L 75.054166 65.722655 
L 74.919969 64.987313 
L 75.367809 64.901702 
L 75.749387 64.617993 
L 76.052926 64.711779 
L 76.04709 64.72304 
L 75.916617 64.875705 
L 75.747925 64.548716 
L 75.752685 64.202204 
L 76.319138 63.613252 
L 77.212762 63.204758 
L 78.120211 63.156174 
L 79.628983 63.234552 
L 82.569945 63.080868 
L 84.831908 62.758203 
L 87.329653 61.615748 
L 87.837502 60.585977 
L 88.532754 60.8463 
L 90.703375 60.772002 
L 94.129956 58.458281 
L 94.901022 57.490912 
L 97.575243 55.153253 
L 98.683418 54.655675 
L 99.522679 53.7655 
L 101.466166 52.447556 
L 102.578228 51.929122 
L 103.622587 51.256021 
L 104.534645 50.497458 
L 106.468327 49.408913 
L 107.662788 48.958359 
L 108.777812 48.3696 
L 109.713383 47.724983 
L 110.71829 47.266267 
L 111.947789 46.913434 
L 112.910643 46.30337 
L 114.005153 46.080309 
L 115.229482 45.453431 
L 116.220983 45.104876 
L 119.557627 44.344088 
L 130.628949 41.46697 
L 131.954454 41.493611 
L 136.878177 40.25928 
L 138.158289 40.23134 
L 141.862073 39.364378 
L 141.862073 39.364378 
" clip-path="url(#pd02ee47241)" style="fill: none; stroke: #05c46b; stroke-linecap: square"/>
   </g>
   <g id="line2d_4">
    <path d="M 142.389281 27.499136 
L 143.675771 27.319725 
L 145.070957 27.010362 
L 146.358642 26.936355 
L 147.932852 26.609471 
L 149.417001 26.660852 
L 150.284467 26.571163 
L 151.901486 26.573929 
L 153.61749 26.018962 
L 154.524666 26.032211 
L 155.41443 26.24005 
L 156.994788 26.192429 
L 158.686785 25.989517 
L 160.856447 25.927824 
L 162.023781 25.803563 
L 165.251306 25.680656 
L 166.488164 25.377201 
L 167.699788 25.373286 
L 169.011589 25.680443 
L 170.363795 25.685048 
L 171.587156 25.376277 
L 172.854646 25.673415 
L 174.261493 25.666854 
L 175.555355 25.381093 
L 177.972024 25.368182 
L 179.292892 25.664926 
L 180.739977 25.661185 
L 182.356934 25.398307 
L 184.900697 25.978588 
L 186.443819 25.735055 
L 187.860168 26.258213 
L 189.153099 26.201074 
L 190.287218 26.614594 
L 191.574499 26.386808 
L 192.875733 26.873539 
L 196.838534 27.207249 
L 198.164055 27.623231 
L 200.87914 27.744241 
L 202.192899 28.268504 
L 206.087627 28.855567 
L 207.410532 29.348669 
L 212.791612 30.588537 
L 214.012498 31.039551 
L 215.255163 31.369607 
L 216.710181 31.595336 
L 220.565139 33.094086 
L 221.953564 33.522046 
L 223.109218 34.152009 
L 224.428929 34.524653 
L 225.679703 35.221182 
L 228.310105 36.173 
L 229.351297 36.649476 
L 230.604238 37.371261 
L 232.709946 38.239634 
L 233.986683 38.914297 
L 236.377443 39.935057 
L 237.575044 40.616401 
L 241.071879 42.016867 
L 242.180428 42.615352 
L 244.812738 43.661153 
L 246.846458 44.612417 
L 248.991947 45.848755 
L 250.643342 47.827835 
L 252.65976 51.772363 
L 253.161381 53.877602 
L 253.082843 57.664222 
L 252.74197 58.931702 
L 252.998146 59.894077 
L 252.707132 65.1408 
L 253.064328 66.40028 
L 252.889213 69.194294 
L 253.049234 71.271663 
L 253.230108 72.782951 
L 253.214336 74.093195 
L 253.565039 76.430696 
L 253.597486 77.590386 
L 253.865083 78.795385 
L 253.913531 79.915754 
L 254.505855 82.560327 
L 254.511458 83.770018 
L 254.78265 85.141791 
L 254.879113 86.392762 
L 255.749535 91.498984 
L 256.059759 94.006471 
L 256.382721 95.147734 
L 256.484873 96.652092 
L 257.415582 101.566015 
L 257.440364 102.956203 
L 257.683382 104.264241 
L 257.791661 105.457439 
L 258.40161 108.094326 
L 258.361708 109.24897 
L 259.005978 111.929421 
L 258.985759 113.12971 
L 259.305068 114.337225 
L 259.385216 115.780446 
L 259.605162 116.938731 
L 259.982951 118.146011 
L 259.976823 119.645629 
L 260.248179 120.752274 
L 260.554311 123.396234 
L 260.93628 124.560947 
L 260.93429 125.962167 
L 261.232924 127.195005 
L 261.278417 128.373672 
L 261.54049 129.662938 
L 261.934723 131.043994 
L 261.883556 132.297728 
L 262.232315 133.5546 
L 262.259003 134.878574 
L 262.913191 137.372647 
L 262.852995 138.709231 
L 263.19289 139.872187 
L 263.252959 141.279685 
L 263.838963 143.634331 
L 263.862808 145.089252 
L 264.142342 146.308723 
L 264.221975 147.549673 
L 264.448667 148.916069 
L 264.801788 150.071714 
L 264.788187 151.234728 
L 265.48825 154.215377 
L 266.093773 155.375862 
L 266.685008 157.452741 
L 267.315946 158.518281 
L 268.805732 161.860002 
L 269.330232 162.965008 
L 269.776914 164.19759 
L 270.624688 165.646792 
L 271.064607 167.244483 
L 271.672743 168.429286 
L 274.101426 178.030455 
L 274.181894 179.372197 
L 275.713031 186.951196 
L 275.728664 188.259182 
L 276.280825 190.648744 
L 276.399199 192.015846 
L 277.660137 198.420052 
L 277.720842 199.680564 
L 278.622553 203.465787 
L 278.648726 204.77902 
L 279.271313 207.25984 
L 279.264603 208.493473 
L 279.876221 211.105799 
L 279.947391 212.315788 
L 280.210782 213.502325 
L 280.572467 214.394266 
L 280.677989 215.077473 
L 281.074857 215.649464 
L 281.386289 216.326952 
L 283.761159 219.656351 
L 286.130497 222.000996 
L 288.22796 223.648809 
L 288.963323 224.689946 
L 289.876274 225.216413 
L 292.049748 226.916042 
L 292.91707 227.373682 
L 293.813391 227.64978 
L 294.210549 227.934678 
L 295.949136 228.079852 
L 296.481953 228.330493 
L 296.622766 228.266036 
L 298.320398 227.981729 
L 299.277892 227.620408 
L 299.961027 227.614537 
L 302.521725 225.902974 
L 303.452893 225.050629 
L 304.641268 224.539773 
L 305.742834 223.782914 
L 306.765862 222.884801 
L 307.851122 222.171121 
L 309.060994 221.701167 
L 310.023758 220.850137 
L 315.394456 217.204692 
L 316.370329 216.347466 
L 317.486369 215.906649 
L 318.507353 215.178832 
L 319.681378 214.156063 
L 321.275539 213.225499 
L 324.401365 211.933353 
L 325.945188 211.643872 
L 329.418319 210.820283 
L 331.046264 210.67677 
L 332.719554 210.663001 
L 334.618727 210.398023 
L 336.968671 211.119003 
L 339.274993 212.036585 
L 346.161725 216.869933 
L 349.33605 219.107445 
L 350.433106 219.828707 
L 351.367488 220.727221 
L 352.517403 221.319452 
L 362.97994 228.889315 
L 363.966633 229.724421 
L 366.176019 231.07525 
L 367.119421 231.976278 
L 368.276238 232.57629 
L 381.914834 242.339535 
L 382.881139 243.186924 
L 385.110786 244.558462 
L 388.431975 246.931773 
L 390.728324 249.00297 
L 391.97435 249.957933 
L 394.71491 252.872763 
L 396.042617 254.893556 
L 396.991979 257.078242 
L 397.397644 259.651022 
L 397.445472 262.617437 
L 396.583584 265.524474 
L 394.710091 268.026156 
L 392.065603 269.903624 
L 389.507157 270.840161 
L 387.844241 271.22805 
L 386.447147 271.324629 
L 385.059482 271.941684 
L 383.551801 272.211159 
L 381.995885 272.334608 
L 379.005433 272.734257 
L 377.745774 272.934868 
L 376.333314 273.027829 
L 374.670255 273.437776 
L 373.498179 273.414005 
L 372.684632 273.213634 
L 371.184982 273.624573 
L 369.591512 273.754275 
L 368.718018 273.555589 
L 367.433724 273.67176 
L 366.11055 274.060169 
L 365.184399 273.903367 
L 364.070628 274.301657 
L 362.873649 274.604615 
L 361.800198 274.515527 
L 360.916881 274.822067 
L 360.106623 275.281885 
L 358.513013 275.715888 
L 358.038729 276.018434 
L 357.78875 276.404485 
L 357.273945 276.82195 
L 356.787986 277.388705 
L 356.574808 277.840617 
L 356.609137 278.471238 
L 356.77448 279.437611 
L 356.725082 279.640632 
L 357.070042 279.705982 
L 357.245568 279.981093 
L 358.392548 280.602896 
L 358.865895 280.822202 
L 359.670432 280.507516 
L 360.89088 280.817268 
L 361.924314 280.825244 
L 363.078287 280.697921 
L 364.283596 280.436705 
L 365.259079 280.499288 
L 366.206609 280.073391 
L 369.436307 279.642766 
L 371.455067 279.504529 
L 373.87941 279.516559 
L 376.542076 280.46288 
L 378.525837 282.087606 
L 380.228905 283.652492 
L 381.616508 285.437716 
L 382.52858 287.318668 
L 383.227985 289.405429 
L 383.396963 291.175814 
L 384.298465 295.072743 
L 384.254034 296.474501 
L 384.909841 299.092854 
L 384.892767 300.457073 
L 385.402841 301.76407 
L 385.603469 303.082463 
L 386.098632 305.190604 
L 385.703614 307.878348 
L 385.053986 310.395074 
L 383.526467 312.800079 
L 381.521711 314.661739 
L 379.260261 315.959852 
L 376.908224 316.461325 
L 374.861478 316.731818 
L 371.12183 316.629907 
L 368.616519 316.297074 
L 367.19398 316.0294 
L 365.703649 316.094723 
L 364.420099 315.693961 
L 363.208803 315.846788 
L 360.640182 315.212758 
L 359.189262 315.297877 
L 357.904844 314.953062 
L 356.604432 315.073957 
L 353.847045 314.489835 
L 352.522828 314.433562 
L 347.343667 313.078499 
L 345.985902 313.066494 
L 340.859904 311.829417 
L 336.93305 310.744968 
L 335.791463 310.187834 
L 329.295922 308.447709 
L 328.12247 307.832676 
L 325.64257 307.228415 
L 324.356973 306.805182 
L 323.018903 306.231742 
L 321.744864 305.837341 
L 320.643305 305.208067 
L 319.259094 304.912033 
L 318.044938 304.301927 
L 316.862534 303.83827 
L 315.739503 303.262695 
L 314.391123 302.965883 
L 313.152762 302.155789 
L 311.838761 301.878293 
L 310.713554 301.241516 
L 309.377265 300.779641 
L 306.897346 299.551095 
L 305.822406 298.8463 
L 304.715824 298.294119 
L 303.498056 297.853993 
L 301.001266 296.498629 
L 297.476458 294.481863 
L 296.371459 293.732031 
L 293.989449 292.364604 
L 292.919196 291.446173 
L 291.524507 290.658692 
L 290.090569 289.676577 
L 287.860588 287.697208 
L 286.821014 286.648644 
L 286.020625 285.442112 
L 283.431586 282.62251 
L 282.365557 281.811513 
L 280.738488 279.663339 
L 279.695904 278.834585 
L 278.109068 276.658959 
L 276.235874 274.791557 
L 275.54563 273.62997 
L 274.522872 272.713826 
L 273.825296 271.580183 
L 272.121233 269.580344 
L 271.351702 268.448899 
L 269.686048 266.392453 
L 268.108529 264.242131 
L 267.437078 263.086187 
L 266.514703 262.019514 
L 265.742753 260.872757 
L 265.160372 259.695892 
L 264.295285 258.694836 
L 261.384731 254.119489 
L 260.801626 252.807424 
L 260.06424 251.799921 
L 259.468091 250.504195 
L 258.096406 248.239922 
L 257.437277 246.89078 
L 256.92632 245.555656 
L 255.732797 243.417302 
L 255.176935 241.940548 
L 254.537021 240.592721 
L 254.133343 239.289205 
L 253.630094 238.218735 
L 253.246977 237.115446 
L 252.878404 235.672682 
L 252.296977 234.374225 
L 251.634591 233.171652 
L 251.387772 231.795478 
L 249.320164 225.272443 
L 248.133486 219.91079 
L 247.468238 216.182098 
L 246.947295 214.794479 
L 246.607506 212.204765 
L 246.161007 210.846975 
L 245.954856 208.296875 
L 245.545237 207.050584 
L 245.33853 204.440455 
L 244.89877 203.142678 
L 244.922023 201.857886 
L 244.739866 200.677883 
L 244.373931 199.286501 
L 244.318751 198.068395 
L 243.891906 196.779399 
L 243.873382 195.433412 
L 243.745327 194.228384 
L 243.429902 193.025915 
L 243.288665 191.718202 
L 242.817342 190.332362 
L 242.889613 189.146912 
L 242.731828 187.874058 
L 242.338231 186.59975 
L 242.148858 184.017848 
L 241.795232 182.725685 
L 241.73371 181.469889 
L 241.248924 180.330956 
L 241.155369 177.536475 
L 240.781808 176.486117 
L 240.544984 173.812131 
L 240.133076 172.562199 
L 240.123133 171.224895 
L 239.669413 170.049349 
L 239.544494 167.517621 
L 239.077982 166.497672 
L 239.167547 165.579713 
L 238.382771 164.794558 
L 238.015203 164.807237 
L 238.014457 164.94113 
L 238.26334 164.832298 
L 237.608842 165.121726 
L 236.477918 165.084237 
L 232.461172 164.439811 
L 229.269036 160.402402 
L 228.452885 158.306061 
L 227.862945 155.256735 
L 227.622799 153.75563 
L 227.262591 152.222831 
L 227.24556 150.87885 
L 226.938684 149.547245 
L 226.967076 148.39171 
L 226.621948 147.197853 
L 226.560208 144.563777 
L 226.204683 142.614709 
L 226.394832 140.117862 
L 226.9137 138.04844 
L 228.182613 135.544355 
L 228.527988 133.942598 
L 229.19466 132.646372 
L 230.198498 130.018066 
L 229.880532 129.106431 
L 230.208795 128.48686 
L 229.785323 127.675745 
L 229.577835 124.815104 
L 229.224696 123.537449 
L 229.20571 122.202219 
L 228.866313 120.901807 
L 228.866108 119.627737 
L 228.452406 118.382675 
L 228.523593 117.057186 
L 228.109174 115.753905 
L 228.195216 114.558041 
L 227.401899 109.455947 
L 227.284249 108.131184 
L 226.989394 106.817659 
L 226.964072 105.555509 
L 226.655289 104.253669 
L 226.646923 103.049226 
L 226.307752 101.767524 
L 226.305648 100.45305 
L 225.974636 99.253428 
L 225.938612 97.942075 
L 225.552476 96.797953 
L 225.350011 94.290934 
L 224.921443 93.058316 
L 224.675108 90.471835 
L 224.343973 89.17438 
L 223.81362 85.366544 
L 223.470708 84.112662 
L 223.189792 81.553482 
L 222.822441 80.295524 
L 222.547967 77.754135 
L 222.221397 76.651397 
L 221.972067 74.542569 
L 220.609297 71.911155 
L 219.989855 71.471114 
L 218.977784 70.590914 
L 218.482859 70.264274 
L 217.797361 69.949182 
L 215.916909 69.407523 
L 214.953545 68.809799 
L 212.542493 68.208378 
L 211.359556 68.155686 
L 204.254108 66.726123 
L 202.921093 66.765496 
L 201.694572 66.387904 
L 200.284751 66.319939 
L 199.212456 66.036797 
L 197.994055 66.111397 
L 196.643179 65.678093 
L 195.630413 65.796636 
L 194.178539 65.477441 
L 192.951607 65.421233 
L 192.052158 65.250815 
L 189.065888 65.121995 
L 188.28038 65.262272 
L 186.701195 65.163285 
L 185.162452 64.800934 
L 184.205008 64.968212 
L 183.353419 64.609849 
L 182.912023 64.943402 
L 182.539834 64.855577 
L 182.171597 65.126839 
L 181.752942 65.242881 
L 181.452827 65.202993 
L 180.857906 66.291173 
L 179.173534 67.801136 
L 177.162245 68.895274 
L 175.129176 69.663303 
L 171.652021 70.561626 
L 170.301433 70.871833 
L 169.185718 70.879446 
L 166.537217 71.553065 
L 165.256512 71.513632 
L 163.987119 71.785392 
L 162.727801 71.872325 
L 161.478951 72.119566 
L 160.124801 72.182597 
L 157.622823 72.724934 
L 156.374928 72.829653 
L 155.081898 73.075738 
L 153.727268 73.138759 
L 151.309332 73.694343 
L 148.716811 74.010138 
L 146.171448 74.378126 
L 145.052535 74.709218 
L 142.901262 74.862074 
L 140.84142 74.70733 
L 139.196421 74.412506 
L 137.325755 74.286571 
L 135.923476 73.629734 
L 134.523899 73.287607 
L 131.602523 72.10151 
L 130.310672 71.470992 
L 129.032777 70.99035 
L 126.233274 69.275514 
L 124.854524 68.924016 
L 124.067379 69.033019 
L 123.134441 68.793015 
L 122.038788 68.781284 
L 121.192876 68.948487 
L 120.299805 68.938647 
L 117.292301 69.642178 
L 116.302561 70.021707 
L 115.375534 70.19181 
L 114.519852 70.642089 
L 113.783547 71.188401 
L 112.840181 71.574413 
L 111.813473 72.23826 
L 110.725905 72.72312 
L 109.984652 73.571163 
L 109.004722 74.183845 
L 108.198449 75.086156 
L 107.250474 75.630018 
L 106.570479 76.50199 
L 105.693768 77.327812 
L 104.664138 78.009515 
L 102.99812 79.692316 
L 102.393948 80.671711 
L 101.537901 81.371263 
L 100.778597 82.153974 
L 100.149491 83.100002 
L 99.653539 84.156895 
L 98.793454 84.932158 
L 98.158204 85.934759 
L 97.562397 87.129851 
L 96.791006 88.262037 
L 96.220309 89.445222 
L 95.530465 90.492393 
L 94.640913 91.357778 
L 94.148766 92.393981 
L 92.270776 95.60577 
L 91.811567 96.51687 
L 91.510659 97.525303 
L 90.95535 98.548842 
L 90.719999 99.66935 
L 90.063915 100.562548 
L 89.296861 103.417151 
L 88.538259 105.17754 
L 87.57572 107.014575 
L 86.067954 108.787321 
L 84.400592 110.394933 
L 82.626116 111.663578 
L 80.290002 112.609342 
L 77.761782 113.306687 
L 75.613633 113.388369 
L 73.094484 113.311617 
L 70.180358 112.276974 
L 67.810367 110.301018 
L 66.348132 108.148758 
L 65.213221 106.0848 
L 64.428667 103.894088 
L 64.022203 101.670296 
L 63.884215 98.384154 
L 64.134207 97.226325 
L 64.000446 94.753817 
L 64.039666 93.323436 
L 63.812772 90.752741 
L 63.709465 87.905232 
L 63.590165 80.491631 
L 63.838659 79.188814 
L 63.377714 75.013224 
L 63.447619 67.090155 
L 63.480618 66.172893 
L 63.354528 64.362579 
L 63.440905 61.922706 
L 63.773206 59.734939 
L 64.687816 57.374136 
L 66.258854 55.318824 
L 68.368953 53.520627 
L 70.819398 52.66063 
L 73.265449 52.232118 
L 76.922238 52.733997 
L 79.652242 52.939198 
L 81.86982 52.789186 
L 82.205965 52.928909 
L 82.004204 52.946827 
L 83.522519 52.445976 
L 85.311782 51.325182 
L 85.66659 50.502887 
L 86.219365 49.685891 
L 87.381914 48.943498 
L 89.449651 47.114848 
L 90.630376 46.295161 
L 91.571809 45.223958 
L 92.804618 44.575129 
L 97.257483 41.305256 
L 99.827327 39.943558 
L 103.349727 37.878262 
L 106.057943 36.74131 
L 107.200945 36.07767 
L 108.593439 35.633069 
L 109.922781 34.977131 
L 111.116652 34.702702 
L 112.526981 34.108599 
L 115.329364 33.186337 
L 117.984063 32.499825 
L 120.550635 31.989951 
L 123.164125 31.43826 
L 128.220759 30.49047 
L 129.414871 29.903748 
L 134.609028 29.085191 
L 135.856816 28.591854 
L 139.750828 27.976122 
L 139.750828 27.976122 
" clip-path="url(#pd02ee47241)" style="fill: none; stroke: #05c46b; stroke-linecap: square"/>
   </g>
   <g id="patch_3">
    <path d="M 46.649981 331.3 
L 46.649981 10.8 
" style="fill: none; stroke: #000000; stroke-width: 0.8; stroke-linejoin: miter; stroke-linecap: square"/>
   </g>
   <g id="patch_4">
    <path d="M 414.150019 331.3 
L 414.150019 10.8 
" style="fill: none; stroke: #000000; stroke-width: 0.8; stroke-linejoin: miter; stroke-linecap: square"/>
   </g>
   <g id="patch_5">
    <path d="M 46.649981 331.3 
L 414.150019 331.3 
" style="fill: none; stroke: #000000; stroke-width: 0.8; stroke-linejoin: miter; stroke-linecap: square"/>
   </g>
   <g id="patch_6">
    <path d="M 46.649981 10.8 
L 414.150019 10.8 
" style="fill: none; stroke: #000000; stroke-width: 0.8; stroke-linejoin: miter; stroke-linecap: square"/>
   </g>
   <g id="legend_1">
    <g id="patch_7">
     <path d="M 318.767207 62.834375 
L 407.150019 62.834375 
Q 409.150019 62.834375 409.150019 60.834375 
L 409.150019 17.8 
Q 409.150019 15.8 407.150019 15.8 
L 318.767207 15.8 
Q 316.767207 15.8 316.767207 17.8 
L 316.767207 60.834375 
Q 316.767207 62.834375 318.767207 62.834375 
z
" style="fill: #ffffff; opacity: 0.8; stroke: #cccccc; stroke-linejoin: miter"/>
    </g>
    <g id="line2d_5">
     <path d="M 320.767207 23.898437 
L 330.767207 23.898437 
L 340.767207 23.898437 
" style="fill: none; stroke: #575fcf; stroke-width: 2; stroke-linecap: square"/>
    </g>
    <g id="text_1">
     <!-- Track -->
     <g transform="translate(348.767207 27.398437)scale(0.1 -0.1)">
      <defs>
       <path id="DejaVuSans-54" d="M -19 4666 
L 3928 4666 
L 3928 4134 
L 2272 4134 
L 2272 0 
L 1638 0 
L 1638 4134 
L -19 4134 
L -19 4666 
z
" transform="scale(0.015625)"/>
       <path id="DejaVuSans-72" d="M 2631 2963 
Q 2534 3019 2420 3045 
Q 2306 3072 2169 3072 
Q 1681 3072 1420 2755 
Q 1159 2438 1159 1844 
L 1159 0 
L 581 0 
L 581 3500 
L 1159 3500 
L 1159 2956 
Q 1341 3275 1631 3429 
Q 1922 3584 2338 3584 
Q 2397 3584 2469 3576 
Q 2541 3569 2628 3553 
L 2631 2963 
z
" transform="scale(0.015625)"/>
       <path id="DejaVuSans-61" d="M 2194 1759 
Q 1497 1759 1228 1600 
Q 959 1441 959 1056 
Q 959 750 1161 570 
Q 1363 391 1709 391 
Q 2188 391 2477 730 
Q 2766 1069 2766 1631 
L 2766 1759 
L 2194 1759 
z
M 3341 1997 
L 3341 0 
L 2766 0 
L 2766 531 
Q 2569 213 2275 61 
Q 1981 -91 1556 -91 
Q 1019 -91 701 211 
Q 384 513 384 1019 
Q 384 1609 779 1909 
Q 1175 2209 1959 2209 
L 2766 2209 
L 2766 2266 
Q 2766 2663 2505 2880 
Q 2244 3097 1772 3097 
Q 1472 3097 1187 3025 
Q 903 2953 641 2809 
L 641 3341 
Q 956 3463 1253 3523 
Q 1550 3584 1831 3584 
Q 2591 3584 2966 3190 
Q 3341 2797 3341 1997 
z
" transform="scale(0.015625)"/>
       <path id="DejaVuSans-63" d="M 3122 3366 
L 3122 2828 
Q 2878 2963 2633 3030 
Q 2388 3097 2138 3097 
Q 1578 3097 1268 2742 
Q 959 2388 959 1747 
Q 959 1106 1268 751 
Q 1578 397 2138 397 
Q 2388 397 2633 464 
Q 2878 531 3122 666 
L 3122 134 
Q 2881 22 2623 -34 
Q 2366 -91 2075 -91 
Q 1284 -91 818 406 
Q 353 903 353 1747 
Q 353 2603 823 3093 
Q 1294 3584 2113 3584 
Q 2378 3584 2631 3529 
Q 2884 3475 3122 3366 
z
" transform="scale(0.015625)"/>
       <path id="DejaVuSans-6b" d="M 581 4863 
L 1159 4863 
L 1159 1991 
L 2875 3500 
L 3609 3500 
L 1753 1863 
L 3688 0 
L 2938 0 
L 1159 1709 
L 1159 0 
L 581 0 
L 581 4863 
z
" transform="scale(0.015625)"/>
      </defs>
      <use xlink:href="#DejaVuSans-54"/>
      <use xlink:href="#DejaVuSans-72" x="46.333984"/>
      <use xlink:href="#DejaVuSans-61" x="87.447266"/>
      <use xlink:href="#DejaVuSans-63" x="148.726562"/>
      <use xlink:href="#DejaVuSans-6b" x="203.707031"/>
     </g>
    </g>
    <g id="line2d_6">
     <path d="M 320.767207 38.576562 
L 330.767207 38.576562 
L 340.767207 38.576562 
" style="fill: none; stroke: #f53b57; stroke-width: 2; stroke-linecap: square"/>
    </g>
    <g id="text_2">
     <!-- Raceline -->
     <g transform="translate(348.767207 42.076562)scale(0.1 -0.1)">
      <defs>
       <path id="DejaVuSans-52" d="M 2841 2188 
Q 3044 2119 3236 1894 
Q 3428 1669 3622 1275 
L 4263 0 
L 3584 0 
L 2988 1197 
Q 2756 1666 2539 1819 
Q 2322 1972 1947 1972 
L 1259 1972 
L 1259 0 
L 628 0 
L 628 4666 
L 2053 4666 
Q 2853 4666 3247 4331 
Q 3641 3997 3641 3322 
Q 3641 2881 3436 2590 
Q 3231 2300 2841 2188 
z
M 1259 4147 
L 1259 2491 
L 2053 2491 
Q 2509 2491 2742 2702 
Q 2975 2913 2975 3322 
Q 2975 3731 2742 3939 
Q 2509 4147 2053 4147 
L 1259 4147 
z
" transform="scale(0.015625)"/>
       <path id="DejaVuSans-65" d="M 3597 1894 
L 3597 1613 
L 953 1613 
Q 991 1019 1311 708 
Q 1631 397 2203 397 
Q 2534 397 2845 478 
Q 3156 559 3463 722 
L 3463 178 
Q 3153 47 2828 -22 
Q 2503 -91 2169 -91 
Q 1331 -91 842 396 
Q 353 884 353 1716 
Q 353 2575 817 3079 
Q 1281 3584 2069 3584 
Q 2775 3584 3186 3129 
Q 3597 2675 3597 1894 
z
M 3022 2063 
Q 3016 2534 2758 2815 
Q 2500 3097 2075 3097 
Q 1594 3097 1305 2825 
Q 1016 2553 972 2059 
L 3022 2063 
z
" transform="scale(0.015625)"/>
       <path id="DejaVuSans-6c" d="M 603 4863 
L 1178 4863 
L 1178 0 
L 603 0 
L 603 4863 
z
" transform="scale(0.015625)"/>
       <path id="DejaVuSans-69" d="M 603 3500 
L 1178 3500 
L 1178 0 
L 603 0 
L 603 3500 
z
M 603 4863 
L 1178 4863 
L 1178 4134 
L 603 4134 
L 603 4863 
z
" transform="scale(0.015625)"/>
       <path id="DejaVuSans-6e" d="M 3513 2113 
L 3513 0 
L 2938 0 
L 2938 2094 
Q 2938 2591 2744 2837 
Q 2550 3084 2163 3084 
Q 1697 3084 1428 2787 
Q 1159 2491 1159 1978 
L 1159 0 
L 581 0 
L 581 3500 
L 1159 3500 
L 1159 2956 
Q 1366 3272 1645 3428 
Q 1925 3584 2291 3584 
Q 2894 3584 3203 3211 
Q 3513 2838 3513 2113 
z
" transform="scale(0.015625)"/>
      </defs>
      <use xlink:href="#DejaVuSans-52"/>
      <use xlink:href="#DejaVuSans-61" x="67.232422"/>
      <use xlink:href="#DejaVuSans-63" x="128.511719"/>
      <use xlink:href="#DejaVuSans-65" x="183.492188"/>
      <use xlink:href="#DejaVuSans-6c" x="245.015625"/>
      <use xlink:href="#DejaVuSans-69" x="272.798828"/>
      <use xlink:href="#DejaVuSans-6e" x="300.582031"/>
      <use xlink:href="#DejaVuSans-65" x="363.960938"/>
     </g>
    </g>
    <g id="line2d_7">
     <path d="M 320.767207 53.254687 
L 330.767207 53.254687 
L 340.767207 53.254687 
" style="fill: none; stroke: #05c46b; stroke-linecap: square"/>
    </g>
    <g id="text_3">
     <!-- Boundaries -->
     <g transform="translate(348.767207 56.754687)scale(0.1 -0.1)">
      <defs>
       <path id="DejaVuSans-42" d="M 1259 2228 
L 1259 519 
L 2272 519 
Q 2781 519 3026 730 
Q 3272 941 3272 1375 
Q 3272 1813 3026 2020 
Q 2781 2228 2272 2228 
L 1259 2228 
z
M 1259 4147 
L 1259 2741 
L 2194 2741 
Q 2656 2741 2882 2914 
Q 3109 3088 3109 3444 
Q 3109 3797 2882 3972 
Q 2656 4147 2194 4147 
L 1259 4147 
z
M 628 4666 
L 2241 4666 
Q 2963 4666 3353 4366 
Q 3744 4066 3744 3513 
Q 3744 3084 3544 2831 
Q 3344 2578 2956 2516 
Q 3422 2416 3680 2098 
Q 3938 1781 3938 1306 
Q 3938 681 3513 340 
Q 3088 0 2303 0 
L 628 0 
L 628 4666 
z
" transform="scale(0.015625)"/>
       <path id="DejaVuSans-6f" d="M 1959 3097 
Q 1497 3097 1228 2736 
Q 959 2375 959 1747 
Q 959 1119 1226 758 
Q 1494 397 1959 397 
Q 2419 397 2687 759 
Q 2956 1122 2956 1747 
Q 2956 2369 2687 2733 
Q 2419 3097 1959 3097 
z
M 1959 3584 
Q 2709 3584 3137 3096 
Q 3566 2609 3566 1747 
Q 3566 888 3137 398 
Q 2709 -91 1959 -91 
Q 1206 -91 779 398 
Q 353 888 353 1747 
Q 353 2609 779 3096 
Q 1206 3584 1959 3584 
z
" transform="scale(0.015625)"/>
       <path id="DejaVuSans-75" d="M 544 1381 
L 544 3500 
L 1119 3500 
L 1119 1403 
Q 1119 906 1312 657 
Q 1506 409 1894 409 
Q 2359 409 2629 706 
Q 2900 1003 2900 1516 
L 2900 3500 
L 3475 3500 
L 3475 0 
L 2900 0 
L 2900 538 
Q 2691 219 2414 64 
Q 2138 -91 1772 -91 
Q 1169 -91 856 284 
Q 544 659 544 1381 
z
M 1991 3584 
L 1991 3584 
z
" transform="scale(0.015625)"/>
       <path id="DejaVuSans-64" d="M 2906 2969 
L 2906 4863 
L 3481 4863 
L 3481 0 
L 2906 0 
L 2906 525 
Q 2725 213 2448 61 
Q 2172 -91 1784 -91 
Q 1150 -91 751 415 
Q 353 922 353 1747 
Q 353 2572 751 3078 
Q 1150 3584 1784 3584 
Q 2172 3584 2448 3432 
Q 2725 3281 2906 2969 
z
M 947 1747 
Q 947 1113 1208 752 
Q 1469 391 1925 391 
Q 2381 391 2643 752 
Q 2906 1113 2906 1747 
Q 2906 2381 2643 2742 
Q 2381 3103 1925 3103 
Q 1469 3103 1208 2742 
Q 947 2381 947 1747 
z
" transform="scale(0.015625)"/>
       <path id="DejaVuSans-73" d="M 2834 3397 
L 2834 2853 
Q 2591 2978 2328 3040 
Q 2066 3103 1784 3103 
Q 1356 3103 1142 2972 
Q 928 2841 928 2578 
Q 928 2378 1081 2264 
Q 1234 2150 1697 2047 
L 1894 2003 
Q 2506 1872 2764 1633 
Q 3022 1394 3022 966 
Q 3022 478 2636 193 
Q 2250 -91 1575 -91 
Q 1294 -91 989 -36 
Q 684 19 347 128 
L 347 722 
Q 666 556 975 473 
Q 1284 391 1588 391 
Q 1994 391 2212 530 
Q 2431 669 2431 922 
Q 2431 1156 2273 1281 
Q 2116 1406 1581 1522 
L 1381 1569 
Q 847 1681 609 1914 
Q 372 2147 372 2553 
Q 372 3047 722 3315 
Q 1072 3584 1716 3584 
Q 2034 3584 2315 3537 
Q 2597 3491 2834 3397 
z
" transform="scale(0.015625)"/>
      </defs>
      <use xlink:href="#DejaVuSans-42"/>
      <use xlink:href="#DejaVuSans-6f" x="68.603516"/>
      <use xlink:href="#DejaVuSans-75" x="129.785156"/>
      <use xlink:href="#DejaVuSans-6e" x="193.164062"/>
      <use xlink:href="#DejaVuSans-64" x="256.542969"/>
      <use xlink:href="#DejaVuSans-61" x="320.019531"/>
      <use xlink:href="#DejaVuSans-72" x="381.298828"/>
      <use xlink:href="#DejaVuSans-69" x="422.412109"/>
      <use xlink:href="#DejaVuSans-65" x="450.195312"/>
      <use xlink:href="#DejaVuSans-73" x="511.71875"/>
     </g>
    </g>
   </g>
  </g>
 </g>
 <defs>
  <clipPath id="pd02ee47241">
   <rect x="46.649981" y="10.8" width="367.500039" height="320.5"/>
  </clipPath>
 </defs>
</svg>
