<?xml version="1.0" encoding="utf-8" standalone="no"?>
<!DOCTYPE svg PUBLIC "-//W3C//DTD SVG 1.1//EN"
  "http://www.w3.org/Graphics/SVG/1.1/DTD/svg11.dtd">
<svg xmlns:xlink="http://www.w3.org/1999/xlink" width="460.8pt" height="345.6pt" viewBox="0 0 460.8 345.6" xmlns="http://www.w3.org/2000/svg" version="1.1">
 <metadata>
  <rdf:RDF xmlns:dc="http://purl.org/dc/elements/1.1/" xmlns:cc="http://creativecommons.org/ns#" xmlns:rdf="http://www.w3.org/1999/02/22-rdf-syntax-ns#">
   <cc:Work>
    <dc:type rdf:resource="http://purl.org/dc/dcmitype/StillImage"/>
    <dc:date>2024-03-12T22:17:06.748201</dc:date>
    <dc:format>image/svg+xml</dc:format>
    <dc:creator>
     <cc:Agent>
      <dc:title>Matplotlib v3.5.2, https://matplotlib.org/</dc:title>
     </cc:Agent>
    </dc:creator>
   </cc:Work>
  </rdf:RDF>
 </metadata>
 <defs>
  <style type="text/css">*{stroke-linejoin: round; stroke-linecap: butt}</style>
 </defs>
 <g id="figure_1">
  <g id="patch_1">
   <path d="M 0 345.6 
L 460.8 345.6 
L 460.8 0 
L 0 0 
z
" style="fill: #ffffff"/>
  </g>
  <g id="axes_1">
   <g id="patch_2">
    <path d="M 14.3 308.681003 
L 450 308.681003 
L 450 36.918997 
L 14.3 36.918997 
z
" style="fill: #ffffff"/>
   </g>
   <g id="matplotlib.axis_1"/>
   <g id="matplotlib.axis_2"/>
   <g id="line2d_1">
    <path d="M 151.752434 276.002436 
L 205.18685 276.119194 
L 209.095734 276.17182 
L 220.825977 276.151435 
L 228.622371 276.552472 
L 231.18399 277.024347 
L 233.703421 277.692074 
L 238.53525 279.630857 
L 242.884287 282.505857 
L 247.2319 285.382653 
L 250.611252 287.349262 
L 252.92694 288.545911 
L 255.377004 289.43032 
L 257.905365 290.064695 
L 260.480135 290.426414 
L 264.356285 290.048 
L 265.629773 289.770773 
L 266.874348 289.384062 
L 269.234355 288.281532 
L 271.385048 286.811744 
L 273.322444 285.071541 
L 274.940977 283.030302 
L 276.239967 280.774441 
L 277.189809 278.347993 
L 278.622878 274.710784 
L 279.689531 272.333011 
L 281.007993 270.085374 
L 282.71226 268.115583 
L 285.641856 265.527264 
L 287.803843 264.07482 
L 290.153883 262.948966 
L 292.615265 262.095428 
L 295.12458 261.39472 
L 300.233621 260.365334 
L 301.516724 260.140961 
L 304.10617 259.87973 
L 307.97925 259.404949 
L 310.569209 259.123515 
L 313.147811 258.761948 
L 315.714771 258.312701 
L 318.189783 257.504386 
L 320.451897 256.214341 
L 322.52661 254.64032 
L 324.320862 252.751276 
L 325.860524 250.65016 
L 327.245238 248.442615 
L 329.248686 245.085365 
L 331.47688 241.873366 
L 333.996246 238.883927 
L 334.890175 237.934182 
L 338.89351 234.598249 
L 343.210207 231.675654 
L 351.06741 227.039698 
L 355.562694 224.400761 
L 366.806849 217.813331 
L 370.214238 215.89865 
L 375.769775 212.493539 
L 381.18954 208.875138 
L 386.508979 205.110814 
L 395.766552 197.911264 
L 400.737695 193.698212 
L 404.619466 190.219307 
L 407.418167 187.489839 
L 411.999255 182.856461 
L 418.771112 174.937602 
L 420.284774 172.816026 
L 421.60251 170.567454 
L 422.194269 169.408168 
L 423.085111 166.959324 
L 423.469916 165.71406 
L 423.898059 163.145677 
L 424.017097 161.848978 
L 423.799026 159.254783 
L 423.263404 156.705038 
L 422.358986 154.26175 
L 421.825461 153.073576 
L 418.480903 147.483851 
L 415.629439 143.119661 
L 395.837096 112.461552 
L 390.100117 103.754964 
L 387.23619 99.398849 
L 377.722635 85.379402 
L 371.79914 76.799046 
L 367.247473 70.442245 
L 364.608327 67.557561 
L 361.578804 65.087952 
L 359.405537 63.649794 
L 357.163734 62.321135 
L 353.611675 60.68738 
L 349.960586 59.292023 
L 342.437541 57.163803 
L 338.633471 56.262904 
L 336.073694 55.773661 
L 332.207766 55.201807 
L 328.299051 55.133377 
L 320.492233 55.314075 
L 313.980979 55.457609 
L 310.072305 55.517508 
L 306.174346 55.800116 
L 303.568268 55.792278 
L 300.987864 56.155197 
L 298.433856 56.667223 
L 295.971357 57.519753 
L 294.79364 58.077288 
L 292.599444 59.483773 
L 291.608096 60.32869 
L 290.027707 62.397978 
L 289.424173 63.548748 
L 288.930534 64.755229 
L 288.371032 67.297607 
L 288.368834 68.600186 
L 288.840507 71.160425 
L 289.808197 73.579096 
L 291.25608 75.7441 
L 293.092901 77.589418 
L 294.13938 78.36494 
L 296.49683 79.469677 
L 297.754442 79.807553 
L 299.039985 80.020334 
L 301.645041 79.993252 
L 304.200438 79.485978 
L 305.447416 79.106833 
L 310.234892 77.046837 
L 317.381841 73.88097 
L 318.645478 73.567953 
L 321.226975 73.212349 
L 322.527236 73.312041 
L 323.804474 73.578706 
L 325.046879 73.971529 
L 326.227362 74.522878 
L 327.334543 75.2117 
L 329.317839 76.899823 
L 331.045318 78.848993 
L 331.77074 79.931817 
L 332.954002 82.252929 
L 333.824634 84.708065 
L 334.293024 87.270819 
L 334.541596 89.864269 
L 334.227779 92.449465 
L 333.748212 95.009403 
L 300.050496 228.989195 
L 299.15093 231.433932 
L 298.585721 232.608569 
L 297.902287 233.718461 
L 297.112226 234.754796 
L 296.214711 235.703822 
L 295.20263 236.524765 
L 292.989285 237.900838 
L 290.695047 239.137063 
L 287.105671 240.686556 
L 282.191416 242.424193 
L 278.437168 243.512906 
L 274.62581 244.382057 
L 270.784435 245.103198 
L 268.202802 245.45194 
L 262.994812 245.617902 
L 261.742245 245.217064 
L 260.599754 244.415129 
L 259.60039 243.306381 
L 258.776429 241.973776 
L 258.160149 240.500273 
L 257.783826 238.968831 
L 257.679737 237.462408 
L 257.880159 236.063963 
L 258.417368 234.856454 
L 259.289272 233.894495 
L 263.118346 230.358525 
L 269.581988 223.921925 
L 271.416251 222.071343 
L 272.247901 221.068998 
L 272.858056 219.918121 
L 273.184503 218.667708 
L 273.297065 217.384123 
L 273.081667 216.101711 
L 272.648188 214.873552 
L 271.940758 213.782725 
L 271.13048 212.762765 
L 269.001272 211.266495 
L 266.656718 210.128271 
L 264.242844 209.147581 
L 259.432404 207.139219 
L 248.652098 202.516542 
L 230.723905 194.730623 
L 227.358215 192.742524 
L 225.254673 191.204359 
L 223.297125 189.483912 
L 221.496766 187.600066 
L 219.830299 185.596329 
L 217.663784 182.342323 
L 216.435954 180.043756 
L 215.360002 177.670092 
L 213.999173 174.005005 
L 212.267692 169.089255 
L 207.121158 155.711859 
L 206.018724 153.351486 
L 204.005514 150.00079 
L 202.418187 147.937258 
L 201.574371 146.944103 
L 199.600775 145.246915 
L 198.560081 144.462269 
L 197.44601 143.787218 
L 196.271256 143.223463 
L 193.801892 142.398812 
L 192.531525 142.107604 
L 182.21599 140.697107 
L 174.492687 139.477514 
L 169.329225 138.764987 
L 115.239612 130.445801 
L 102.410536 128.156744 
L 98.567831 127.441526 
L 88.317663 125.595304 
L 87.03001 125.419274 
L 85.726753 125.430551 
L 83.170779 125.916666 
L 81.956281 126.386437 
L 80.799508 126.98571 
L 78.64382 128.450115 
L 76.695821 130.17991 
L 73.920792 132.933933 
L 72.172325 134.866727 
L 69.822434 137.990373 
L 68.468205 140.217566 
L 66.111153 144.867305 
L 64.054801 149.652803 
L 63.634744 150.886399 
L 63.205723 153.456084 
L 63.25261 156.061275 
L 63.516638 157.331903 
L 63.996251 158.541133 
L 64.728664 159.619143 
L 65.601091 160.578909 
L 66.624458 161.38427 
L 67.752515 162.031079 
L 70.193635 162.939325 
L 71.465393 163.22684 
L 72.659134 163.710248 
L 73.698298 164.515282 
L 74.574084 165.575218 
L 75.27785 166.822936 
L 75.800955 168.191312 
L 76.134754 169.613225 
L 76.270607 171.021553 
L 76.155205 172.340706 
L 75.190975 174.764279 
L 73.841689 178.433941 
L 71.333983 184.447358 
L 68.696577 190.401939 
L 66.581061 196.565016 
L 64.555211 202.758077 
L 62.55178 208.95854 
L 60.704303 213.832844 
L 59.603632 216.194866 
L 55.920088 223.091922 
L 53.298739 227.597641 
L 49.78067 233.082269 
L 46.74199 237.31823 
L 43.682276 241.538775 
L 41.741601 244.930349 
L 40.817513 247.365814 
L 40.283003 249.909686 
L 39.980594 252.49741 
L 39.955676 253.800349 
L 40.236673 256.38883 
L 40.778349 258.934833 
L 41.70318 261.368936 
L 43.034103 263.609194 
L 44.672725 265.634436 
L 46.467947 267.521626 
L 48.488419 269.165577 
L 50.697448 270.544886 
L 53.101838 271.548767 
L 55.591885 272.31794 
L 60.705975 273.318163 
L 62.005196 273.434493 
L 64.576049 273.835608 
L 73.644067 274.746955 
L 74.945289 274.827802 
L 76.227812 275.025973 
L 77.529325 275.082926 
L 80.118993 275.372838 
L 85.324724 275.468517 
L 87.916389 275.694262 
L 93.129286 275.663146 
L 100.932521 276.0094 
L 116.572693 276.012999 
L 119.174116 276.168498 
L 130.904366 276.172104 
L 137.41711 276.064085 
L 140.022167 275.988304 
L 149.145682 276.001433 
L 149.145682 276.001433 
" clip-path="url(#p0c8e6d758b)" style="fill: none; stroke: #575fcf; stroke-width: 2; stroke-linecap: square"/>
   </g>
   <g id="line2d_2">
    <path d="M 154.291913 274.668181 
L 165.962563 273.798734 
L 175.052626 273.32268 
L 182.851745 273.106211 
L 190.653734 273.112815 
L 197.150544 273.359564 
L 204.928789 273.974266 
L 208.798911 274.445558 
L 216.489135 275.762836 
L 220.291653 276.643052 
L 224.063371 277.631211 
L 226.550297 278.378965 
L 228.99441 279.260599 
L 233.948053 280.83949 
L 249.700745 286.955552 
L 252.234238 287.53778 
L 254.811839 287.886778 
L 257.409523 287.976227 
L 260.00674 287.85355 
L 262.584373 287.52981 
L 263.863282 287.285207 
L 266.32388 286.456739 
L 268.6346 285.270756 
L 270.797529 283.824007 
L 272.848055 282.22507 
L 276.664295 278.690406 
L 278.478208 276.828443 
L 282.009274 273.009609 
L 285.671162 269.316964 
L 287.683182 267.664097 
L 290.883667 265.446409 
L 293.124133 264.125205 
L 296.646348 262.448151 
L 300.308982 261.114636 
L 310.220212 257.956568 
L 312.650285 257.036368 
L 314.995893 255.90028 
L 319.553988 253.406016 
L 323.908517 250.566308 
L 327.078892 248.291893 
L 330.139543 245.873434 
L 342.032194 235.783639 
L 346.225023 232.708386 
L 349.44842 230.501895 
L 357.19722 225.733672 
L 362.783656 222.410146 
L 367.258567 219.762835 
L 372.820259 216.393854 
L 387.265676 207.619885 
L 391.570267 204.689683 
L 394.71225 202.392698 
L 398.808435 199.187222 
L 402.716682 195.756712 
L 405.521847 193.049384 
L 409.862182 188.205498 
L 412.167988 185.058747 
L 414.346352 181.825277 
L 416.311673 178.4575 
L 417.452697 176.121128 
L 418.440925 173.715734 
L 419.663798 170.009703 
L 420.587099 166.218786 
L 421.05807 162.347223 
L 421.076328 158.450195 
L 420.647053 154.576336 
L 419.975582 150.738008 
L 419.357917 148.212127 
L 418.127542 144.511191 
L 416.092759 139.725269 
L 414.367321 136.227704 
L 412.449104 132.829586 
L 409.636925 128.454781 
L 403.946086 119.753644 
L 401.119517 115.382529 
L 392.594326 102.314443 
L 385.851205 92.746644 
L 383.425496 89.695034 
L 380.966098 86.668632 
L 376.589544 81.858698 
L 372.070436 77.185574 
L 369.209954 74.534005 
L 365.146201 71.294825 
L 362.017944 68.965426 
L 357.732409 66.01227 
L 351.092176 61.920907 
L 346.495702 59.489666 
L 342.907074 57.961728 
L 340.452813 57.103725 
L 336.717557 55.979891 
L 329.146846 54.101344 
L 325.329541 53.30414 
L 317.564578 52.546098 
L 314.969743 52.614078 
L 312.382759 52.85879 
L 307.233882 53.612572 
L 305.99327 53.970343 
L 301.16003 55.909523 
L 298.886434 57.17208 
L 297.791036 57.871073 
L 295.777244 59.513303 
L 294.834015 60.410461 
L 293.225741 62.450314 
L 292.550505 63.56077 
L 291.988814 64.73463 
L 291.583022 65.969866 
L 291.323539 67.23969 
L 291.263627 68.534927 
L 291.428004 69.826061 
L 291.802433 71.070143 
L 292.332869 72.254437 
L 293.006317 73.363287 
L 293.826641 74.376182 
L 294.797186 75.244115 
L 295.870868 75.97103 
L 297.035736 76.545791 
L 298.264525 76.961378 
L 299.529377 77.252837 
L 302.111517 77.539582 
L 304.710387 77.462989 
L 307.299361 77.199342 
L 309.861415 76.754011 
L 312.410088 76.242215 
L 314.9725 75.819533 
L 317.581321 75.75539 
L 320.174802 75.815458 
L 322.729768 76.283317 
L 323.961932 76.704131 
L 325.136358 77.244205 
L 326.253073 77.908664 
L 327.29371 78.692473 
L 328.235307 79.592201 
L 329.892237 81.59251 
L 331.260312 83.802783 
L 332.347207 86.162142 
L 332.801643 87.383746 
L 333.747764 91.165068 
L 334.180682 93.725867 
L 334.453584 96.314429 
L 334.46704 98.912904 
L 334.272799 101.505367 
L 333.546443 106.65518 
L 332.815778 110.48644 
L 331.568281 115.535585 
L 325.664008 138.185474 
L 319.011377 164.670554 
L 315.006664 181.093494 
L 309.298544 203.792124 
L 307.732497 208.751656 
L 306.351639 212.399636 
L 304.765328 215.963863 
L 303.062033 219.473352 
L 300.670004 224.090239 
L 298.638005 227.421053 
L 292.040307 237.08602 
L 290.323413 239.036851 
L 288.466517 240.855451 
L 286.456536 242.506368 
L 284.299848 243.958313 
L 282.018648 245.203702 
L 279.604658 246.170675 
L 277.094514 246.846748 
L 275.813095 247.046009 
L 273.20999 247.137159 
L 271.917665 247.055453 
L 269.366719 246.52648 
L 268.120081 246.166278 
L 266.913076 245.688091 
L 265.764682 245.068158 
L 264.686679 244.330707 
L 262.760474 242.600004 
L 261.947625 241.590465 
L 261.27821 240.479286 
L 260.815526 239.261591 
L 260.607151 237.98265 
L 260.631113 236.688045 
L 260.818229 235.410056 
L 261.145447 234.147916 
L 261.615429 232.930342 
L 262.213448 231.77448 
L 263.671569 229.62257 
L 267.635187 224.466948 
L 268.95151 222.220924 
L 269.490813 221.03165 
L 270.224317 218.55202 
L 270.387245 217.269922 
L 270.335163 215.97394 
L 270.073015 214.698165 
L 269.656788 213.467005 
L 269.109998 212.28419 
L 268.430967 211.174959 
L 266.787978 209.161704 
L 265.869223 208.23986 
L 263.844635 206.606193 
L 261.658526 205.200619 
L 259.359005 203.993236 
L 255.784707 202.434684 
L 249.712568 200.109221 
L 241.172782 196.957674 
L 237.589345 195.421292 
L 235.248703 194.274873 
L 229.70977 190.87909 
L 226.605287 188.521614 
L 224.697516 186.755269 
L 222.941163 184.836364 
L 220.553203 181.75148 
L 217.002539 176.310474 
L 214.353638 171.831195 
L 213.168759 169.517558 
L 209.766551 162.497681 
L 207.134195 158.012991 
L 204.054277 153.826282 
L 202.382979 151.825551 
L 199.613171 149.079922 
L 197.653377 147.384141 
L 194.446389 145.163051 
L 191.066796 143.214446 
L 186.425079 140.87472 
L 182.81999 139.384019 
L 179.122391 138.141248 
L 175.350289 137.150084 
L 171.546356 136.288623 
L 166.423339 135.3916 
L 161.277851 134.630665 
L 122.719822 128.732587 
L 109.879826 126.679859 
L 107.29017 126.454218 
L 103.395018 126.242827 
L 100.795236 126.206489 
L 93.005199 126.589658 
L 89.15903 127.233358 
L 85.418513 128.33195 
L 81.711499 129.541517 
L 79.320288 130.566434 
L 77.022185 131.78391 
L 74.903401 133.29114 
L 72.958256 135.01972 
L 71.151052 136.881871 
L 69.546317 138.930041 
L 68.100314 141.090476 
L 66.892864 143.391989 
L 66.048527 145.84539 
L 65.70919 147.104771 
L 65.435873 149.693444 
L 65.481687 152.288496 
L 65.870735 154.856812 
L 66.645144 157.328809 
L 67.810752 159.65254 
L 71.125866 165.269767 
L 72.37671 167.529723 
L 72.90918 168.715434 
L 73.677778 171.197935 
L 74.280507 173.719647 
L 74.507224 176.313297 
L 74.426941 178.911311 
L 74.129473 181.494718 
L 73.373704 185.322381 
L 72.347888 189.086609 
L 70.896615 192.704466 
L 68.624516 197.386393 
L 66.751998 200.806989 
L 64.803886 204.182191 
L 59.843097 211.816238 
L 57.684333 215.063121 
L 53.483857 221.63806 
L 50.791249 226.087479 
L 48.322087 230.664114 
L 46.639843 234.184375 
L 45.159477 237.793123 
L 44.360867 240.267228 
L 43.419612 244.051608 
L 42.815215 247.904947 
L 42.594893 250.496019 
L 42.70428 253.094137 
L 42.990558 255.678704 
L 43.61682 258.201507 
L 44.526667 260.632541 
L 45.740861 262.933049 
L 46.458817 264.017379 
L 48.146073 265.993597 
L 50.040313 267.775915 
L 53.142448 270.13787 
L 55.360801 271.493439 
L 57.66295 272.704529 
L 61.308571 274.090982 
L 65.034512 275.240087 
L 68.806544 276.244404 
L 70.060159 276.573802 
L 77.784248 277.588817 
L 80.381495 277.771607 
L 84.238468 278.290206 
L 88.145616 278.307022 
L 92.038371 278.546173 
L 93.333988 278.603734 
L 99.82826 278.389061 
L 106.329611 278.309285 
L 114.124189 277.959809 
L 116.716932 277.784559 
L 119.29917 277.469925 
L 151.698992 274.866363 
L 151.698992 274.866363 
" clip-path="url(#p0c8e6d758b)" style="fill: none; stroke: #f53b57; stroke-width: 2; stroke-linecap: square"/>
   </g>
   <g id="line2d_3">
    <path d="M 151.748515 282.182709 
L 203.598881 282.226585 
L 204.944381 282.049998 
L 206.360151 282.012983 
L 207.762956 282.356843 
L 209.127191 282.352014 
L 210.422324 282.018322 
L 212.986192 282.020353 
L 214.288613 282.350453 
L 218.260381 282.349278 
L 219.56239 282.012039 
L 220.710977 282.005302 
L 221.836003 282.37316 
L 224.330773 282.104048 
L 225.509933 282.284311 
L 227.105296 282.166935 
L 228.056335 282.380043 
L 228.882972 282.328464 
L 231.891141 283.269029 
L 234.017331 284.286072 
L 234.984502 284.545113 
L 235.628401 284.84686 
L 236.384953 285.375427 
L 237.558239 285.890927 
L 238.464697 286.702388 
L 239.486001 287.448075 
L 240.691987 288.103452 
L 242.831887 289.750462 
L 245.18856 291.439618 
L 246.43544 292.000989 
L 247.607709 292.8284 
L 248.959774 293.384087 
L 250.436412 294.126826 
L 252.078412 294.730855 
L 258.339654 296.328185 
L 260.256963 296.313213 
L 263.678127 296.123607 
L 270.5505 294.176482 
L 272.04522 293.228806 
L 273.639773 292.419529 
L 277.569986 289.008384 
L 279.788584 286.329922 
L 280.547255 284.755301 
L 281.483246 283.297493 
L 282.033821 281.643215 
L 282.603771 280.325856 
L 282.92911 279.192723 
L 283.568357 278.135717 
L 283.860163 276.911131 
L 285.374393 274.156961 
L 285.879264 273.538948 
L 287.098144 272.518199 
L 289.867608 269.481659 
L 290.577324 269.032489 
L 291.546894 268.872447 
L 292.460296 268.456862 
L 293.231593 267.847995 
L 297.651205 266.739509 
L 298.771638 266.400317 
L 299.998583 266.405371 
L 301.282698 266.125579 
L 302.227604 265.777035 
L 303.403694 265.865044 
L 304.838629 265.446915 
L 307.364375 265.490615 
L 308.624798 265.224249 
L 309.919979 265.207133 
L 311.269525 264.936479 
L 312.689046 264.87281 
L 315.414742 264.156368 
L 317.101599 264.084177 
L 318.810006 263.594787 
L 323.58094 260.966769 
L 324.996053 260.049545 
L 326.231949 258.757851 
L 327.62549 257.686691 
L 328.81163 256.52219 
L 329.596264 255.002567 
L 330.455235 253.726915 
L 331.546173 252.678535 
L 334.131274 248.199955 
L 334.768913 247.226903 
L 335.212451 246.139564 
L 336.017838 245.40845 
L 336.667149 244.518429 
L 337.526358 243.611294 
L 338.119905 242.582445 
L 338.793801 242.074012 
L 339.432423 241.331836 
L 340.652117 240.615313 
L 341.434815 239.70096 
L 344.253434 237.813401 
L 345.264748 237.122628 
L 346.314277 236.650747 
L 348.374949 235.427977 
L 349.513951 234.732989 
L 350.789787 234.145615 
L 353.874488 231.881055 
L 355.145739 231.422106 
L 357.275648 229.885025 
L 358.448048 229.294166 
L 359.476555 228.586934 
L 360.692897 228.012704 
L 366.292683 224.655802 
L 367.350136 224.047285 
L 368.553228 223.489276 
L 369.563385 222.780441 
L 373.098326 220.92084 
L 374.247725 220.10656 
L 375.433148 219.526311 
L 376.642631 218.796338 
L 377.705577 217.984165 
L 378.902203 217.450825 
L 381.166203 215.878915 
L 387.805271 211.394646 
L 388.820016 210.577902 
L 391.113635 209.108106 
L 392.005407 208.19138 
L 396.404624 205.124433 
L 398.449311 203.169332 
L 399.504962 202.429126 
L 400.433299 201.52765 
L 401.56578 200.731304 
L 402.545155 199.741184 
L 403.806371 199.244822 
L 404.645383 198.24836 
L 406.724454 196.342603 
L 408.464749 194.50077 
L 409.712311 193.653385 
L 416.448265 186.852531 
L 419.998808 182.854113 
L 420.736875 181.740937 
L 421.771258 180.769556 
L 424.180678 177.196345 
L 425.306321 176.047206 
L 426.017855 174.665413 
L 426.858788 173.400827 
L 427.649592 171.858008 
L 428.28818 170.238474 
L 430.042902 163.806508 
L 430.195455 162.002864 
L 430.121325 160.029873 
L 429.617059 158.330283 
L 429.593909 156.706494 
L 429.104302 155.028726 
L 428.335675 153.438869 
L 427.862404 151.944673 
L 424.132965 145.502566 
L 422.626847 143.147187 
L 417.751012 135.577164 
L 417.140949 134.411084 
L 415.569644 132.271822 
L 414.221752 130.108329 
L 413.634456 128.976918 
L 412.769084 127.935928 
L 397.842359 104.899087 
L 396.995431 103.940198 
L 396.386009 102.789029 
L 387.73072 89.670614 
L 386.974265 88.640726 
L 386.329932 87.355944 
L 384.719957 85.273073 
L 383.969922 84.304136 
L 383.411631 83.144343 
L 378.900808 76.540886 
L 377.479275 74.486835 
L 376.759989 73.335135 
L 375.219619 71.257282 
L 372.941235 67.808029 
L 370.203515 64.119297 
L 369.049556 62.893737 
L 367.691179 61.898125 
L 366.690795 60.800009 
L 364.042767 59.003567 
L 361.564976 57.450386 
L 357.375583 55.53015 
L 356.027546 55.111568 
L 354.643908 54.508022 
L 353.258379 54.123129 
L 351.843712 53.514484 
L 350.412771 53.174703 
L 349.130547 53.035147 
L 347.851034 52.539773 
L 341.215496 50.811922 
L 339.821145 50.622659 
L 338.484618 50.100344 
L 329.630268 49.271815 
L 324.464857 49.288098 
L 321.383602 49.780266 
L 320.349458 49.460819 
L 314.01376 49.602704 
L 309.647241 49.677962 
L 308.232401 49.734496 
L 307.129012 49.91125 
L 303.184848 49.94985 
L 301.492569 50.386945 
L 300.025836 50.379776 
L 296.847676 50.947322 
L 291.909569 52.848656 
L 290.568403 53.900352 
L 289.141179 54.838264 
L 287.433149 56.21085 
L 286.031235 57.707324 
L 283.359121 62.925983 
L 282.984222 64.779168 
L 282.715624 66.761854 
L 282.528746 69.017746 
L 282.7628 70.956563 
L 283.151269 72.853295 
L 283.895224 74.541933 
L 284.511971 76.337077 
L 286.612992 79.512919 
L 287.898493 80.923334 
L 289.264536 82.206506 
L 290.978309 83.430913 
L 292.702667 84.497994 
L 294.493997 85.307368 
L 296.468485 85.746613 
L 298.519942 85.861254 
L 300.406922 86.217935 
L 302.303185 85.811141 
L 304.079211 85.568199 
L 305.657706 85.240073 
L 307.455023 84.73993 
L 308.785387 83.877221 
L 310.167787 83.471411 
L 311.46023 82.874088 
L 312.486009 82.12893 
L 313.881061 81.80112 
L 315.04709 81.226838 
L 316.006897 80.525821 
L 317.402319 80.204829 
L 318.440785 79.641542 
L 319.795265 79.318152 
L 321.716121 79.018618 
L 323.520007 79.516966 
L 324.560838 80.479326 
L 325.743804 81.807483 
L 326.39454 82.300168 
L 327.328903 83.658302 
L 328.585161 88.072833 
L 328.601512 90.454528 
L 328.526236 91.603691 
L 327.977206 93.620617 
L 327.423847 96.116362 
L 315.894439 142.938403 
L 315.266797 144.128068 
L 311.228312 160.578144 
L 310.708295 163.09646 
L 309.280164 168.254851 
L 309.09345 169.527773 
L 301.909314 198.552885 
L 301.281502 199.743704 
L 295.28976 223.891412 
L 295.123261 225.11234 
L 293.957841 229.131214 
L 293.345988 229.744716 
L 293.28867 230.550975 
L 291.7868 231.847966 
L 291.039957 232.297882 
L 290.147719 232.971133 
L 288.154251 233.90236 
L 287.207 234.485884 
L 286.084215 234.877725 
L 285.077293 235.51153 
L 283.881799 235.740349 
L 282.706807 236.170376 
L 281.525559 236.361117 
L 278.176612 237.719577 
L 272.30904 238.853095 
L 271.076382 239.248131 
L 268.711647 239.486812 
L 267.794148 239.611222 
L 266.581292 239.660412 
L 265.393432 239.417492 
L 263.896929 239.503822 
L 264.262206 240.199112 
L 264.097961 240.493677 
L 263.304433 240.540016 
L 262.796721 239.910352 
L 262.582397 239.039502 
L 262.645749 238.19996 
L 262.93187 237.636583 
L 263.701942 237.711855 
L 263.335101 238.050619 
L 263.511473 238.129501 
L 267.346852 234.587236 
L 275.888504 226.028035 
L 277.446849 224.55023 
L 278.607875 222.160788 
L 279.307709 219.72854 
L 279.797399 217.123613 
L 279.19648 214.521289 
L 278.315214 212.085454 
L 277.013877 210.135028 
L 275.476265 208.320563 
L 273.572286 207.025121 
L 271.948608 206.073262 
L 268.982106 204.62836 
L 266.556815 203.642857 
L 265.355437 203.015877 
L 264.190777 202.670419 
L 263.020811 202.011427 
L 261.780639 201.639396 
L 260.637501 200.993812 
L 259.341625 200.598917 
L 258.262521 200.001256 
L 257.071583 199.472438 
L 255.741162 199.179067 
L 254.678842 198.452832 
L 253.393745 198.033328 
L 252.222402 197.44461 
L 249.768183 196.612607 
L 248.628177 196.008056 
L 247.381308 195.579754 
L 246.206246 194.955863 
L 244.982209 194.607076 
L 243.857305 193.94534 
L 242.639612 193.419717 
L 241.328608 193.080677 
L 240.182492 192.377475 
L 238.994258 192.043791 
L 237.881558 191.376253 
L 236.500297 190.952506 
L 233.479236 189.605594 
L 228.886272 186.693058 
L 228.081346 186.014247 
L 227.424941 185.156858 
L 225.811806 183.792501 
L 224.377789 182.176268 
L 222.155601 178.465721 
L 221.173825 176.465438 
L 219.060937 170.94796 
L 218.337666 168.22091 
L 217.742113 166.98747 
L 217.366892 165.691879 
L 216.74284 164.560634 
L 216.480903 163.382644 
L 215.432953 160.932489 
L 215.205768 159.68265 
L 214.611193 158.38422 
L 214.183063 157.058604 
L 213.544946 156.049068 
L 213.287921 154.708372 
L 212.60767 153.35503 
L 212.134016 151.932573 
L 210.01838 147.808774 
L 209.103283 146.58326 
L 208.181739 145.146531 
L 207.166164 143.927804 
L 206.218977 142.518499 
L 202.0645 139.289139 
L 200.424227 138.28465 
L 198.665847 137.600716 
L 196.908923 137.205368 
L 195.294122 136.699912 
L 192.174475 136.080715 
L 190.572518 135.874191 
L 188.312513 135.856375 
L 187.035817 135.423798 
L 183.077058 134.905773 
L 181.794847 134.867918 
L 180.515853 134.475079 
L 179.271117 134.31249 
L 178.008766 134.031736 
L 175.286474 133.768501 
L 173.959669 133.480561 
L 172.744215 133.346099 
L 171.484832 133.015229 
L 168.818417 132.858055 
L 165.038279 132.057155 
L 163.704407 132.016505 
L 162.503553 131.618971 
L 159.874854 131.456515 
L 158.593951 131.115344 
L 157.329157 131.076061 
L 156.01082 130.637986 
L 154.674137 130.669547 
L 153.53038 130.516412 
L 152.117439 130.136925 
L 150.82045 130.12626 
L 149.64263 129.704438 
L 148.265405 129.655556 
L 147.013875 129.219422 
L 144.498391 129.127224 
L 143.18962 128.636369 
L 141.855144 128.618368 
L 140.612346 128.236816 
L 138.011175 128.097064 
L 136.863799 127.665465 
L 135.460407 127.518841 
L 132.919591 127.061205 
L 131.561196 127.036032 
L 130.397216 126.640605 
L 129.053627 126.444829 
L 127.708179 126.502269 
L 126.576286 126.048949 
L 123.849788 125.913781 
L 122.683336 125.442112 
L 120.085741 125.265571 
L 118.833881 124.782571 
L 117.502019 124.723312 
L 116.273038 124.343865 
L 115.046214 124.131242 
L 112.386746 123.966251 
L 111.108188 123.455281 
L 109.87013 123.444004 
L 108.693011 123.264663 
L 107.391771 122.775276 
L 103.3791 122.373262 
L 102.254206 121.980326 
L 99.628603 121.674243 
L 98.463513 121.238783 
L 95.843261 120.895674 
L 94.568793 120.698623 
L 93.340602 120.623923 
L 91.882544 120.057164 
L 90.322124 119.942031 
L 89.080351 119.708748 
L 87.401573 119.576079 
L 83.346671 119.870087 
L 81.465523 120.306061 
L 79.564807 121.081853 
L 77.885534 121.980803 
L 76.452519 122.905527 
L 75.257341 124.066582 
L 73.825104 124.984991 
L 72.736389 126.003785 
L 71.902537 127.127566 
L 70.739029 127.950259 
L 68.764133 130.026336 
L 67.921754 131.314792 
L 66.8254 132.450538 
L 64.279159 136.145179 
L 63.421597 137.376423 
L 62.185031 140.015246 
L 61.492865 141.103076 
L 60.858196 142.364465 
L 60.355831 143.818432 
L 59.187911 146.140198 
L 57.220599 153.065996 
L 57.036915 154.870387 
L 57.114054 156.778151 
L 57.467036 159.146012 
L 58.475142 161.46681 
L 59.819818 163.485079 
L 61.343231 165.151966 
L 63.239426 166.399274 
L 65.116543 167.398938 
L 68.650116 168.492745 
L 69.74523 168.72811 
L 69.728361 168.789358 
L 69.728383 168.591587 
L 70.204527 168.566111 
L 70.621388 169.00668 
L 70.97379 169.673745 
L 71.000522 170.465204 
L 70.906143 171.061776 
L 70.557573 170.966134 
L 70.372641 171.444918 
L 69.723426 172.773382 
L 69.424566 174.041417 
L 68.977829 175.212521 
L 68.368656 176.328544 
L 67.070523 179.859133 
L 66.421462 180.831146 
L 65.89445 181.984039 
L 65.57462 183.204325 
L 65.114908 184.326605 
L 64.196001 185.579133 
L 63.740633 187.020354 
L 62.990208 188.214086 
L 62.624101 189.610658 
L 61.634286 192.141108 
L 61.40881 193.503287 
L 60.369229 195.947082 
L 60.056382 197.278499 
L 59.612566 198.400437 
L 59.42142 199.65028 
L 58.866514 200.913899 
L 58.102811 203.410651 
L 57.908912 204.64632 
L 56.906689 206.984911 
L 56.712808 208.13585 
L 55.298454 211.56049 
L 54.641872 212.445241 
L 54.278111 213.493887 
L 53.645404 214.538455 
L 51.488432 219.121544 
L 50.874744 220.248536 
L 49.984621 221.19405 
L 48.425248 224.660709 
L 47.672342 225.633978 
L 46.449681 227.829478 
L 45.634614 228.740591 
L 44.936015 229.778316 
L 44.46197 230.935856 
L 43.586014 231.824367 
L 42.781714 232.805064 
L 42.1574 233.948063 
L 41.320905 234.976807 
L 40.389325 235.89441 
L 39.759914 237.107101 
L 38.821163 238.390772 
L 38.138504 239.722508 
L 37.259777 240.930983 
L 36.4902 242.488398 
L 35.928721 244.117632 
L 35.191662 245.711549 
L 34.766743 247.425054 
L 34.243612 250.515732 
L 34.104545 254.013083 
L 34.173977 255.736425 
L 35.1568 260.603659 
L 36.256726 264.063796 
L 37.218362 265.548688 
L 38.061022 267.05552 
L 41.203764 270.731748 
L 43.681476 273.009883 
L 44.959083 274.080095 
L 47.926041 275.991779 
L 49.531758 276.717875 
L 51.082766 277.177764 
L 52.517688 277.854866 
L 54.111541 278.309481 
L 55.663634 278.395163 
L 59.938676 279.485031 
L 61.156228 279.547531 
L 62.326748 279.816432 
L 66.405371 280.199482 
L 67.80878 280.524553 
L 70.272815 280.577831 
L 71.649014 280.842263 
L 73.26278 280.906874 
L 74.312794 280.684777 
L 75.620581 281.176344 
L 76.977489 281.055308 
L 78.133165 281.407462 
L 79.854679 281.547458 
L 83.734962 281.507249 
L 84.66946 281.367997 
L 86.080857 281.778456 
L 89.241621 281.850265 
L 93.969845 281.902075 
L 95.108696 282.08324 
L 98.286891 282.188139 
L 117.502859 282.289186 
L 119.024219 282.55743 
L 120.451764 282.686561 
L 123.122584 282.674519 
L 124.403469 282.343627 
L 126.981344 282.344626 
L 128.281226 282.673318 
L 132.225012 282.676281 
L 133.521017 282.34545 
L 136.360891 282.341242 
L 140.028497 282.168575 
L 149.15195 282.181704 
L 149.15195 282.181704 
" clip-path="url(#p0c8e6d758b)" style="fill: none; stroke: #05c46b; stroke-linecap: square"/>
   </g>
   <g id="line2d_4">
    <path d="M 151.756353 269.822163 
L 204.172193 269.87934 
L 205.429319 270.188389 
L 206.618262 270.305834 
L 207.821812 269.996435 
L 209.064278 269.991626 
L 210.375838 270.308421 
L 213.025458 270.310426 
L 214.329771 269.989973 
L 218.178222 269.989003 
L 219.482854 270.302316 
L 220.940978 270.297568 
L 222.419876 270.04356 
L 223.551036 270.384916 
L 225.128367 270.42125 
L 227.54507 270.813992 
L 229.188408 270.7249 
L 230.941234 271.155001 
L 233.948396 271.681878 
L 238.274579 272.902737 
L 241.442099 274.414854 
L 242.883016 275.292239 
L 243.89584 276.195763 
L 245.166297 276.81733 
L 246.282573 277.563638 
L 247.234848 278.370101 
L 257.066733 283.69385 
L 258.978868 284.163723 
L 260.056867 284.104801 
L 260.703307 284.539615 
L 262.47744 284.475333 
L 263.203875 284.485389 
L 264.198152 284.341178 
L 264.893836 284.059754 
L 265.586465 283.550782 
L 266.42349 283.334257 
L 267.022466 282.736636 
L 267.84286 282.276325 
L 269.64267 280.491847 
L 270.093369 279.730682 
L 270.685339 279.076521 
L 270.996689 278.251389 
L 271.454081 277.50174 
L 271.775846 276.37013 
L 272.347566 275.055859 
L 272.70908 273.7059 
L 273.385593 272.510436 
L 274.488741 269.723501 
L 276.136722 266.631801 
L 277.180172 265.051394 
L 278.326376 263.712967 
L 279.565063 262.663301 
L 280.75367 261.849431 
L 281.9394 260.842366 
L 283.521484 260.035356 
L 285.030362 259.11715 
L 286.387025 258.102044 
L 287.84747 257.44107 
L 289.509218 257.113627 
L 292.2819 256.057995 
L 293.791943 255.684128 
L 296.56615 255.25498 
L 297.90845 254.810192 
L 299.184544 254.605089 
L 300.805844 254.504887 
L 302.228321 254.214189 
L 303.373711 254.312545 
L 304.752091 253.880667 
L 308.637531 253.405088 
L 311.040569 253.116303 
L 312.17339 252.988606 
L 313.456124 252.965008 
L 314.327943 252.541224 
L 315.124457 252.309856 
L 315.883735 252.312775 
L 316.569645 252.036153 
L 318.039587 250.880245 
L 318.821271 250.522789 
L 319.830094 248.980362 
L 320.660118 248.45431 
L 321.265812 247.573406 
L 321.610929 246.446514 
L 322.224483 245.501563 
L 322.834296 244.352736 
L 325.157204 240.763435 
L 326.193937 239.705218 
L 326.935922 238.338281 
L 330.98655 233.794352 
L 332.347043 232.865116 
L 333.12527 231.908129 
L 334.287797 231.087375 
L 335.534659 230.005362 
L 342.528026 225.261332 
L 343.659317 224.675439 
L 344.618171 223.921282 
L 348.260332 222.19834 
L 349.261579 221.381801 
L 351.602201 220.236931 
L 352.677341 219.507355 
L 353.89211 218.887052 
L 355.980833 217.569298 
L 357.181585 216.938633 
L 359.383879 215.551005 
L 362.801049 213.435728 
L 365.148626 212.248563 
L 371.61512 208.371035 
L 372.637347 207.536253 
L 379.981013 202.662361 
L 380.973634 201.861761 
L 382.077524 201.159824 
L 383.976882 199.532482 
L 385.192465 198.914941 
L 387.068271 197.352779 
L 389.065611 195.635788 
L 391.083893 194.325174 
L 392.028141 193.393402 
L 393.116521 192.643211 
L 393.991715 191.776937 
L 394.98492 191.062974 
L 395.682066 189.838882 
L 396.830008 189.148063 
L 400.774183 185.937845 
L 401.440044 185.015177 
L 407.550245 178.860392 
L 410.919498 175.068538 
L 411.915202 174.234975 
L 412.524562 173.183539 
L 414.176368 171.472713 
L 414.916724 170.586875 
L 415.263227 169.584846 
L 415.899321 168.735621 
L 417.793591 164.242282 
L 417.927692 163.47055 
L 417.753217 162.484845 
L 417.980993 160.179283 
L 417.514149 159.244077 
L 417.336972 157.510194 
L 416.855568 156.578827 
L 416.656899 155.746352 
L 414.96291 152.79262 
L 413.539674 150.641546 
L 410.696236 146.289882 
L 404.330353 136.409709 
L 403.526169 135.33682 
L 403.00663 134.169376 
L 383.949895 104.731008 
L 383.071158 103.736342 
L 377.307494 95.021552 
L 376.501539 94.140376 
L 375.878652 93.080766 
L 362.481988 74.309662 
L 360.786185 72.906614 
L 359.530438 71.539546 
L 358.546756 70.947099 
L 356.97101 69.690026 
L 355.031472 68.474155 
L 353.429665 67.312734 
L 352.217138 66.931141 
L 351.195803 66.263193 
L 350.16753 65.88165 
L 349.115659 65.343063 
L 347.007431 64.67684 
L 345.792526 64.069155 
L 341.00708 62.92462 
L 338.603434 62.245394 
L 337.445797 61.903149 
L 336.232686 61.882716 
L 333.96254 61.359979 
L 332.679956 61.213851 
L 331.629899 60.9367 
L 329.574539 60.981676 
L 324.313249 60.997109 
L 323.411746 60.679252 
L 322.20486 60.809169 
L 320.635009 61.16733 
L 313.948198 61.312514 
L 310.497369 61.357055 
L 309.318231 61.556252 
L 303.951687 61.634707 
L 303.056654 61.507817 
L 301.949892 61.930618 
L 299.113211 62.61272 
L 298.198495 62.836029 
L 297.677711 63.30592 
L 296.819091 63.651777 
L 296.05771 64.129281 
L 295.783043 64.44653 
L 295.522379 64.956049 
L 294.885089 65.361477 
L 294.574361 65.945881 
L 294.501948 66.584476 
L 294.026441 67.83336 
L 294.208922 68.182626 
L 294.700017 70.219029 
L 295.104422 70.821116 
L 295.372249 71.425388 
L 297.300452 73.298967 
L 298.499663 73.631985 
L 299.560027 74.179414 
L 300.27843 73.858054 
L 300.986898 74.175363 
L 301.76769 73.923895 
L 302.743169 73.731884 
L 303.439808 73.473737 
L 304.520717 73.346537 
L 306.631169 72.285829 
L 307.983774 71.964743 
L 308.976448 71.247645 
L 310.148969 70.670349 
L 311.578401 70.32929 
L 312.574312 69.616089 
L 315.640147 68.329009 
L 317.495692 67.817755 
L 321.09493 67.358841 
L 323.338351 67.605464 
L 325.263955 68.00261 
L 327.109515 68.678495 
L 328.934718 69.528791 
L 330.651157 70.464025 
L 333.511436 72.636491 
L 334.694708 73.874616 
L 336.742555 76.90877 
L 337.467563 78.489791 
L 338.334297 79.920715 
L 339.062306 81.468654 
L 339.563505 83.191957 
L 339.938473 84.914595 
L 340.000887 86.468805 
L 340.29923 88.002315 
L 340.395929 89.952446 
L 340.244096 91.867819 
L 339.929323 93.29524 
L 339.874633 94.832227 
L 339.1178 97.702297 
L 336.572843 107.823071 
L 335.81944 110.293485 
L 333.259349 120.402929 
L 328.117046 140.622544 
L 327.420907 143.13352 
L 326.788546 145.665781 
L 326.784407 147.005148 
L 322.604074 163.431074 
L 322.193397 164.653612 
L 318.995203 177.294445 
L 315.704377 190.01262 
L 312.803091 201.281583 
L 312.799345 202.619851 
L 308.895116 217.878455 
L 307.6344 222.820528 
L 305.95959 229.22215 
L 303.825454 235.472422 
L 302.515905 236.885946 
L 301.496975 238.481873 
L 300.126704 239.924419 
L 298.618459 241.201565 
L 297.184456 242.181008 
L 295.83085 242.830543 
L 294.614153 243.663547 
L 293.235843 244.371766 
L 291.812368 244.872091 
L 290.540218 245.509552 
L 289.134049 245.861582 
L 287.88926 246.549233 
L 286.6163 247.015079 
L 285.34112 247.696484 
L 281.224253 248.66465 
L 278.485433 249.445622 
L 275.852619 250.116316 
L 274.392583 250.44946 
L 273.046739 250.43743 
L 271.867334 250.857181 
L 270.28891 251.162816 
L 267.220947 251.352922 
L 265.808112 251.771083 
L 262.092695 251.731982 
L 259.222285 250.235016 
L 257.101548 248.336582 
L 253.737901 241.961045 
L 252.921902 239.737702 
L 252.427604 237.288234 
L 252.058375 234.416072 
L 253.499635 231.662288 
L 255.06707 229.659489 
L 259.753522 225.250931 
L 264.507752 220.457057 
L 266.435039 218.968352 
L 266.943999 218.11465 
L 267.048953 217.587766 
L 267.061297 217.606876 
L 266.796731 217.644634 
L 266.981162 217.66165 
L 266.614638 216.925927 
L 266.053937 216.459728 
L 264.331331 215.628183 
L 263.182533 215.218247 
L 261.928872 214.652306 
L 260.706486 214.320064 
L 259.473851 213.642038 
L 258.251696 213.265445 
L 257.08417 212.639042 
L 255.84077 212.236087 
L 254.728309 211.633697 
L 253.405792 211.217742 
L 252.214337 210.688701 
L 251.14342 209.968317 
L 249.811158 209.664568 
L 248.708716 209.037852 
L 247.471026 208.630714 
L 245.141858 207.389632 
L 243.885412 206.968531 
L 242.74405 206.352079 
L 241.518806 205.95936 
L 240.346841 205.281552 
L 239.085805 204.893336 
L 237.910164 204.385945 
L 236.827231 203.693373 
L 235.56777 203.392472 
L 234.353115 202.715757 
L 233.088151 202.314675 
L 232.072508 201.714743 
L 229.305951 200.719261 
L 227.968575 199.855652 
L 226.676015 199.189005 
L 222.869673 196.673374 
L 219.169308 193.810966 
L 216.223472 190.290977 
L 212.671489 185.331428 
L 211.213149 182.608919 
L 209.933516 179.892711 
L 209.50467 178.520181 
L 208.811603 177.268573 
L 208.538883 175.851124 
L 207.633361 173.444674 
L 207.144916 172.386025 
L 206.79327 171.19104 
L 206.247151 170.048161 
L 205.89096 168.763938 
L 205.25042 167.496681 
L 204.933565 166.284177 
L 204.458657 165.069154 
L 203.796138 163.868919 
L 203.484784 162.723444 
L 202.924956 161.636761 
L 202.587106 160.229128 
L 201.962405 159.117133 
L 201.634646 158.068687 
L 198.330331 152.724513 
L 197.670209 151.946712 
L 196.929764 151.369707 
L 196.572055 150.766045 
L 193.193987 148.329504 
L 191.504772 147.87187 
L 190.303023 147.803795 
L 189.346387 147.519815 
L 188.119854 147.500739 
L 186.427045 147.060291 
L 185.134687 147.05146 
L 183.961718 146.832809 
L 182.729948 146.750255 
L 181.354923 146.48844 
L 180.066543 146.097152 
L 178.764457 146.126235 
L 177.435751 145.877755 
L 176.12324 145.752561 
L 173.698899 145.186527 
L 172.4389 145.164057 
L 171.072903 144.936209 
L 169.753716 144.885306 
L 167.263363 144.280556 
L 165.90745 144.24434 
L 164.516041 143.976003 
L 163.311276 143.927831 
L 162.06078 143.628811 
L 160.685107 143.635532 
L 158.156601 143.03976 
L 156.861758 142.985264 
L 155.544307 142.667501 
L 154.293803 142.669459 
L 151.612737 142.06832 
L 150.455357 142.016865 
L 149.162992 141.736599 
L 147.772119 141.713005 
L 146.567047 141.404961 
L 145.243004 141.452458 
L 142.606383 140.756374 
L 141.340393 140.840478 
L 140.095293 140.484219 
L 138.760817 140.475207 
L 136.210057 139.831156 
L 134.781444 139.866701 
L 133.622908 139.532503 
L 132.375687 139.490689 
L 131.003781 139.25504 
L 129.783537 138.899228 
L 128.370196 138.903037 
L 127.148101 138.640275 
L 125.909985 138.236809 
L 124.473159 138.246622 
L 123.292545 137.849099 
L 122.052889 137.558007 
L 120.645562 137.616158 
L 118.111866 136.881105 
L 116.789187 136.955457 
L 115.554315 136.559778 
L 114.206186 136.547738 
L 112.871149 136.28151 
L 110.390676 135.577992 
L 109.102636 135.634677 
L 106.387049 134.910069 
L 105.128243 134.909376 
L 101.441972 133.940227 
L 99.993116 133.921513 
L 97.50706 133.208809 
L 96.111042 133.162305 
L 93.62333 132.466704 
L 92.333877 132.193364 
L 91.008977 131.743556 
L 89.918519 131.765091 
L 88.900858 131.565453 
L 87.554975 131.48186 
L 86.196456 131.175314 
L 83.713483 131.990618 
L 82.961198 132.48668 
L 82.030299 132.833647 
L 81.467255 133.591153 
L 80.655254 134.356034 
L 79.606664 135.035434 
L 78.918484 136.047482 
L 77.299389 137.747599 
L 76.422896 138.418662 
L 75.896571 139.322203 
L 73.986911 142.047912 
L 73.514813 143.058709 
L 72.906367 143.965515 
L 72.367284 145.055526 
L 71.903452 146.304107 
L 70.798803 148.29359 
L 70.414383 149.597581 
L 69.123879 152.349297 
L 69.070506 153.114242 
L 69.517361 155.615455 
L 69.858952 156.005852 
L 70.009489 156.369265 
L 70.985831 157.07609 
L 71.737153 157.385904 
L 73.185555 157.72557 
L 75.589908 158.631138 
L 77.668213 160.438977 
L 78.94364 162.584326 
L 79.934312 164.639192 
L 81.268987 168.761246 
L 81.635072 170.981331 
L 81.752837 173.715278 
L 80.929281 175.644926 
L 80.658524 176.755176 
L 79.612288 179.211394 
L 79.314723 180.539337 
L 77.719499 184.273998 
L 77.329819 185.692582 
L 76.773515 186.910677 
L 75.353839 189.293518 
L 75.12977 190.383144 
L 74.632973 191.368238 
L 74.402946 192.589791 
L 73.88365 193.644468 
L 72.25351 198.45858 
L 71.945379 199.648062 
L 71.518505 200.816185 
L 71.164645 202.175881 
L 70.533933 203.399841 
L 69.909484 205.758582 
L 69.482856 207.090817 
L 68.834997 208.322242 
L 68.196871 210.932169 
L 67.490073 212.227583 
L 67.079071 213.427212 
L 66.7844 214.740461 
L 66.110152 216.105197 
L 65.720873 217.607908 
L 64.929153 218.895845 
L 64.359293 220.164057 
L 60.965433 225.935309 
L 60.590857 227.269008 
L 58.172231 230.534572 
L 57.555158 231.778976 
L 54.625326 236.386222 
L 53.617875 237.37349 
L 52.976804 238.604812 
L 52.246241 239.731093 
L 51.326579 240.688397 
L 50.619127 241.759989 
L 50.02207 242.953876 
L 49.098409 243.834731 
L 47.415882 246.612935 
L 46.551235 248.148131 
L 46.244171 249.836652 
L 45.946029 251.88331 
L 45.806807 253.587616 
L 45.976157 254.455221 
L 46.028103 255.528412 
L 46.399898 257.266007 
L 46.747589 258.059896 
L 47.149633 258.674076 
L 47.485717 259.448913 
L 49.21334 261.715674 
L 50.526308 263.129364 
L 51.218791 263.746261 
L 53.468855 265.097992 
L 55.12091 265.919769 
L 56.160712 266.061295 
L 57.072229 266.326399 
L 58.072083 266.770521 
L 59.363551 266.974173 
L 61.473275 267.151295 
L 75.577785 268.970827 
L 76.835043 268.875603 
L 78.081161 269.110544 
L 84.321443 269.160622 
L 85.979988 269.569038 
L 87.153448 269.464533 
L 89.197395 269.489796 
L 96.346998 269.63098 
L 97.380852 269.826892 
L 119.324014 269.779565 
L 121.750897 269.673297 
L 123.045685 269.663643 
L 124.371525 269.98312 
L 127.00715 269.984105 
L 128.314011 269.662255 
L 132.19047 269.665223 
L 133.501192 269.984918 
L 137.027384 269.896111 
L 140.015836 269.808033 
L 149.139415 269.821162 
L 149.139415 269.821162 
" clip-path="url(#p0c8e6d758b)" style="fill: none; stroke: #05c46b; stroke-linecap: square"/>
   </g>
   <g id="patch_3">
    <path d="M 14.3 308.681003 
L 14.3 36.918997 
" style="fill: none; stroke: #000000; stroke-width: 0.8; stroke-linejoin: miter; stroke-linecap: square"/>
   </g>
   <g id="patch_4">
    <path d="M 450 308.681003 
L 450 36.918997 
" style="fill: none; stroke: #000000; stroke-width: 0.8; stroke-linejoin: miter; stroke-linecap: square"/>
   </g>
   <g id="patch_5">
    <path d="M 14.3 308.681003 
L 450 308.681003 
" style="fill: none; stroke: #000000; stroke-width: 0.8; stroke-linejoin: miter; stroke-linecap: square"/>
   </g>
   <g id="patch_6">
    <path d="M 14.3 36.918997 
L 450 36.918997 
" style="fill: none; stroke: #000000; stroke-width: 0.8; stroke-linejoin: miter; stroke-linecap: square"/>
   </g>
   <g id="legend_1">
    <g id="patch_7">
     <path d="M 21.3 88.953372 
L 109.682812 88.953372 
Q 111.682812 88.953372 111.682812 86.953372 
L 111.682812 43.918997 
Q 111.682812 41.918997 109.682812 41.918997 
L 21.3 41.918997 
Q 19.3 41.918997 19.3 43.918997 
L 19.3 86.953372 
Q 19.3 88.953372 21.3 88.953372 
z
" style="fill: #ffffff; opacity: 0.8; stroke: #cccccc; stroke-linejoin: miter"/>
    </g>
    <g id="line2d_5">
     <path d="M 23.3 50.017434 
L 33.3 50.017434 
L 43.3 50.017434 
" style="fill: none; stroke: #575fcf; stroke-width: 2; stroke-linecap: square"/>
    </g>
    <g id="text_1">
     <!-- Track -->
     <g transform="translate(51.3 53.517434)scale(0.1 -0.1)">
      <defs>
       <path id="DejaVuSans-54" d="M -19 4666 
L 3928 4666 
L 3928 4134 
L 2272 4134 
L 2272 0 
L 1638 0 
L 1638 4134 
L -19 4134 
L -19 4666 
z
" transform="scale(0.015625)"/>
       <path id="DejaVuSans-72" d="M 2631 2963 
Q 2534 3019 2420 3045 
Q 2306 3072 2169 3072 
Q 1681 3072 1420 2755 
Q 1159 2438 1159 1844 
L 1159 0 
L 581 0 
L 581 3500 
L 1159 3500 
L 1159 2956 
Q 1341 3275 1631 3429 
Q 1922 3584 2338 3584 
Q 2397 3584 2469 3576 
Q 2541 3569 2628 3553 
L 2631 2963 
z
" transform="scale(0.015625)"/>
       <path id="DejaVuSans-61" d="M 2194 1759 
Q 1497 1759 1228 1600 
Q 959 1441 959 1056 
Q 959 750 1161 570 
Q 1363 391 1709 391 
Q 2188 391 2477 730 
Q 2766 1069 2766 1631 
L 2766 1759 
L 2194 1759 
z
M 3341 1997 
L 3341 0 
L 2766 0 
L 2766 531 
Q 2569 213 2275 61 
Q 1981 -91 1556 -91 
Q 1019 -91 701 211 
Q 384 513 384 1019 
Q 384 1609 779 1909 
Q 1175 2209 1959 2209 
L 2766 2209 
L 2766 2266 
Q 2766 2663 2505 2880 
Q 2244 3097 1772 3097 
Q 1472 3097 1187 3025 
Q 903 2953 641 2809 
L 641 3341 
Q 956 3463 1253 3523 
Q 1550 3584 1831 3584 
Q 2591 3584 2966 3190 
Q 3341 2797 3341 1997 
z
" transform="scale(0.015625)"/>
       <path id="DejaVuSans-63" d="M 3122 3366 
L 3122 2828 
Q 2878 2963 2633 3030 
Q 2388 3097 2138 3097 
Q 1578 3097 1268 2742 
Q 959 2388 959 1747 
Q 959 1106 1268 751 
Q 1578 397 2138 397 
Q 2388 397 2633 464 
Q 2878 531 3122 666 
L 3122 134 
Q 2881 22 2623 -34 
Q 2366 -91 2075 -91 
Q 1284 -91 818 406 
Q 353 903 353 1747 
Q 353 2603 823 3093 
Q 1294 3584 2113 3584 
Q 2378 3584 2631 3529 
Q 2884 3475 3122 3366 
z
" transform="scale(0.015625)"/>
       <path id="DejaVuSans-6b" d="M 581 4863 
L 1159 4863 
L 1159 1991 
L 2875 3500 
L 3609 3500 
L 1753 1863 
L 3688 0 
L 2938 0 
L 1159 1709 
L 1159 0 
L 581 0 
L 581 4863 
z
" transform="scale(0.015625)"/>
      </defs>
      <use xlink:href="#DejaVuSans-54"/>
      <use xlink:href="#DejaVuSans-72" x="46.333984"/>
      <use xlink:href="#DejaVuSans-61" x="87.447266"/>
      <use xlink:href="#DejaVuSans-63" x="148.726562"/>
      <use xlink:href="#DejaVuSans-6b" x="203.707031"/>
     </g>
    </g>
    <g id="line2d_6">
     <path d="M 23.3 64.695559 
L 33.3 64.695559 
L 43.3 64.695559 
" style="fill: none; stroke: #f53b57; stroke-width: 2; stroke-linecap: square"/>
    </g>
    <g id="text_2">
     <!-- Raceline -->
     <g transform="translate(51.3 68.195559)scale(0.1 -0.1)">
      <defs>
       <path id="DejaVuSans-52" d="M 2841 2188 
Q 3044 2119 3236 1894 
Q 3428 1669 3622 1275 
L 4263 0 
L 3584 0 
L 2988 1197 
Q 2756 1666 2539 1819 
Q 2322 1972 1947 1972 
L 1259 1972 
L 1259 0 
L 628 0 
L 628 4666 
L 2053 4666 
Q 2853 4666 3247 4331 
Q 3641 3997 3641 3322 
Q 3641 2881 3436 2590 
Q 3231 2300 2841 2188 
z
M 1259 4147 
L 1259 2491 
L 2053 2491 
Q 2509 2491 2742 2702 
Q 2975 2913 2975 3322 
Q 2975 3731 2742 3939 
Q 2509 4147 2053 4147 
L 1259 4147 
z
" transform="scale(0.015625)"/>
       <path id="DejaVuSans-65" d="M 3597 1894 
L 3597 1613 
L 953 1613 
Q 991 1019 1311 708 
Q 1631 397 2203 397 
Q 2534 397 2845 478 
Q 3156 559 3463 722 
L 3463 178 
Q 3153 47 2828 -22 
Q 2503 -91 2169 -91 
Q 1331 -91 842 396 
Q 353 884 353 1716 
Q 353 2575 817 3079 
Q 1281 3584 2069 3584 
Q 2775 3584 3186 3129 
Q 3597 2675 3597 1894 
z
M 3022 2063 
Q 3016 2534 2758 2815 
Q 2500 3097 2075 3097 
Q 1594 3097 1305 2825 
Q 1016 2553 972 2059 
L 3022 2063 
z
" transform="scale(0.015625)"/>
       <path id="DejaVuSans-6c" d="M 603 4863 
L 1178 4863 
L 1178 0 
L 603 0 
L 603 4863 
z
" transform="scale(0.015625)"/>
       <path id="DejaVuSans-69" d="M 603 3500 
L 1178 3500 
L 1178 0 
L 603 0 
L 603 3500 
z
M 603 4863 
L 1178 4863 
L 1178 4134 
L 603 4134 
L 603 4863 
z
" transform="scale(0.015625)"/>
       <path id="DejaVuSans-6e" d="M 3513 2113 
L 3513 0 
L 2938 0 
L 2938 2094 
Q 2938 2591 2744 2837 
Q 2550 3084 2163 3084 
Q 1697 3084 1428 2787 
Q 1159 2491 1159 1978 
L 1159 0 
L 581 0 
L 581 3500 
L 1159 3500 
L 1159 2956 
Q 1366 3272 1645 3428 
Q 1925 3584 2291 3584 
Q 2894 3584 3203 3211 
Q 3513 2838 3513 2113 
z
" transform="scale(0.015625)"/>
      </defs>
      <use xlink:href="#DejaVuSans-52"/>
      <use xlink:href="#DejaVuSans-61" x="67.232422"/>
      <use xlink:href="#DejaVuSans-63" x="128.511719"/>
      <use xlink:href="#DejaVuSans-65" x="183.492188"/>
      <use xlink:href="#DejaVuSans-6c" x="245.015625"/>
      <use xlink:href="#DejaVuSans-69" x="272.798828"/>
      <use xlink:href="#DejaVuSans-6e" x="300.582031"/>
      <use xlink:href="#DejaVuSans-65" x="363.960938"/>
     </g>
    </g>
    <g id="line2d_7">
     <path d="M 23.3 79.373684 
L 33.3 79.373684 
L 43.3 79.373684 
" style="fill: none; stroke: #05c46b; stroke-linecap: square"/>
    </g>
    <g id="text_3">
     <!-- Boundaries -->
     <g transform="translate(51.3 82.873684)scale(0.1 -0.1)">
      <defs>
       <path id="DejaVuSans-42" d="M 1259 2228 
L 1259 519 
L 2272 519 
Q 2781 519 3026 730 
Q 3272 941 3272 1375 
Q 3272 1813 3026 2020 
Q 2781 2228 2272 2228 
L 1259 2228 
z
M 1259 4147 
L 1259 2741 
L 2194 2741 
Q 2656 2741 2882 2914 
Q 3109 3088 3109 3444 
Q 3109 3797 2882 3972 
Q 2656 4147 2194 4147 
L 1259 4147 
z
M 628 4666 
L 2241 4666 
Q 2963 4666 3353 4366 
Q 3744 4066 3744 3513 
Q 3744 3084 3544 2831 
Q 3344 2578 2956 2516 
Q 3422 2416 3680 2098 
Q 3938 1781 3938 1306 
Q 3938 681 3513 340 
Q 3088 0 2303 0 
L 628 0 
L 628 4666 
z
" transform="scale(0.015625)"/>
       <path id="DejaVuSans-6f" d="M 1959 3097 
Q 1497 3097 1228 2736 
Q 959 2375 959 1747 
Q 959 1119 1226 758 
Q 1494 397 1959 397 
Q 2419 397 2687 759 
Q 2956 1122 2956 1747 
Q 2956 2369 2687 2733 
Q 2419 3097 1959 3097 
z
M 1959 3584 
Q 2709 3584 3137 3096 
Q 3566 2609 3566 1747 
Q 3566 888 3137 398 
Q 2709 -91 1959 -91 
Q 1206 -91 779 398 
Q 353 888 353 1747 
Q 353 2609 779 3096 
Q 1206 3584 1959 3584 
z
" transform="scale(0.015625)"/>
       <path id="DejaVuSans-75" d="M 544 1381 
L 544 3500 
L 1119 3500 
L 1119 1403 
Q 1119 906 1312 657 
Q 1506 409 1894 409 
Q 2359 409 2629 706 
Q 2900 1003 2900 1516 
L 2900 3500 
L 3475 3500 
L 3475 0 
L 2900 0 
L 2900 538 
Q 2691 219 2414 64 
Q 2138 -91 1772 -91 
Q 1169 -91 856 284 
Q 544 659 544 1381 
z
M 1991 3584 
L 1991 3584 
z
" transform="scale(0.015625)"/>
       <path id="DejaVuSans-64" d="M 2906 2969 
L 2906 4863 
L 3481 4863 
L 3481 0 
L 2906 0 
L 2906 525 
Q 2725 213 2448 61 
Q 2172 -91 1784 -91 
Q 1150 -91 751 415 
Q 353 922 353 1747 
Q 353 2572 751 3078 
Q 1150 3584 1784 3584 
Q 2172 3584 2448 3432 
Q 2725 3281 2906 2969 
z
M 947 1747 
Q 947 1113 1208 752 
Q 1469 391 1925 391 
Q 2381 391 2643 752 
Q 2906 1113 2906 1747 
Q 2906 2381 2643 2742 
Q 2381 3103 1925 3103 
Q 1469 3103 1208 2742 
Q 947 2381 947 1747 
z
" transform="scale(0.015625)"/>
       <path id="DejaVuSans-73" d="M 2834 3397 
L 2834 2853 
Q 2591 2978 2328 3040 
Q 2066 3103 1784 3103 
Q 1356 3103 1142 2972 
Q 928 2841 928 2578 
Q 928 2378 1081 2264 
Q 1234 2150 1697 2047 
L 1894 2003 
Q 2506 1872 2764 1633 
Q 3022 1394 3022 966 
Q 3022 478 2636 193 
Q 2250 -91 1575 -91 
Q 1294 -91 989 -36 
Q 684 19 347 128 
L 347 722 
Q 666 556 975 473 
Q 1284 391 1588 391 
Q 1994 391 2212 530 
Q 2431 669 2431 922 
Q 2431 1156 2273 1281 
Q 2116 1406 1581 1522 
L 1381 1569 
Q 847 1681 609 1914 
Q 372 2147 372 2553 
Q 372 3047 722 3315 
Q 1072 3584 1716 3584 
Q 2034 3584 2315 3537 
Q 2597 3491 2834 3397 
z
" transform="scale(0.015625)"/>
      </defs>
      <use xlink:href="#DejaVuSans-42"/>
      <use xlink:href="#DejaVuSans-6f" x="68.603516"/>
      <use xlink:href="#DejaVuSans-75" x="129.785156"/>
      <use xlink:href="#DejaVuSans-6e" x="193.164062"/>
      <use xlink:href="#DejaVuSans-64" x="256.542969"/>
      <use xlink:href="#DejaVuSans-61" x="320.019531"/>
      <use xlink:href="#DejaVuSans-72" x="381.298828"/>
      <use xlink:href="#DejaVuSans-69" x="422.412109"/>
      <use xlink:href="#DejaVuSans-65" x="450.195312"/>
      <use xlink:href="#DejaVuSans-73" x="511.71875"/>
     </g>
    </g>
   </g>
  </g>
 </g>
 <defs>
  <clipPath id="p0c8e6d758b">
   <rect x="14.3" y="36.918997" width="435.7" height="271.762006"/>
  </clipPath>
 </defs>
</svg>
