<?xml version="1.0" encoding="utf-8" standalone="no"?>
<!DOCTYPE svg PUBLIC "-//W3C//DTD SVG 1.1//EN"
  "http://www.w3.org/Graphics/SVG/1.1/DTD/svg11.dtd">
<svg xmlns:xlink="http://www.w3.org/1999/xlink" width="460.8pt" height="345.6pt" viewBox="0 0 460.8 345.6" xmlns="http://www.w3.org/2000/svg" version="1.1">
 <metadata>
  <rdf:RDF xmlns:dc="http://purl.org/dc/elements/1.1/" xmlns:cc="http://creativecommons.org/ns#" xmlns:rdf="http://www.w3.org/1999/02/22-rdf-syntax-ns#">
   <cc:Work>
    <dc:type rdf:resource="http://purl.org/dc/dcmitype/StillImage"/>
    <dc:date>2024-03-14T16:32:36.942584</dc:date>
    <dc:format>image/svg+xml</dc:format>
    <dc:creator>
     <cc:Agent>
      <dc:title>Matplotlib v3.5.2, https://matplotlib.org/</dc:title>
     </cc:Agent>
    </dc:creator>
   </cc:Work>
  </rdf:RDF>
 </metadata>
 <defs>
  <style type="text/css">*{stroke-linejoin: round; stroke-linecap: butt}</style>
 </defs>
 <g id="figure_1">
  <g id="patch_1">
   <path d="M 0 345.6 
L 460.8 345.6 
L 460.8 0 
L 0 0 
z
" style="fill: #ffffff"/>
  </g>
  <g id="axes_1">
   <g id="patch_2">
    <path d="M 14.3 313.281872 
L 450 313.281872 
L 450 32.318128 
L 14.3 32.318128 
z
" style="fill: #ffffff"/>
   </g>
   <g id="matplotlib.axis_1"/>
   <g id="matplotlib.axis_2"/>
   <g id="line2d_1">
    <path d="M 413.906948 251.614078 
L 420.027475 195.179411 
L 425.707141 140.339736 
L 425.637857 138.74621 
L 425.329394 137.173033 
L 424.7885 135.634161 
L 424.079045 134.147834 
L 423.261636 132.735314 
L 422.277498 131.500024 
L 420.981947 130.591817 
L 418.000564 129.25892 
L 413.532086 127.333332 
L 409.19539 125.140272 
L 393.542712 116.578408 
L 372.139748 104.924306 
L 370.623416 104.691182 
L 369.139353 105.090944 
L 367.789015 106.008211 
L 364.024493 109.147148 
L 361.54019 111.184068 
L 360.366005 112.315702 
L 359.267497 113.535203 
L 358.265389 114.833901 
L 357.380406 116.203129 
L 356.633273 117.634217 
L 356.044713 119.118498 
L 355.632177 120.647383 
L 355.381961 122.213041 
L 355.244511 125.425032 
L 355.479002 130.333643 
L 355.797494 138.464204 
L 356.455809 159.517593 
L 356.558279 166.016803 
L 356.411447 169.247826 
L 356.033439 172.453632 
L 355.38664 175.621559 
L 354.484172 178.734805 
L 353.342869 181.776261 
L 351.979567 184.728822 
L 350.411102 187.575379 
L 348.654362 190.298902 
L 345.743808 194.176245 
L 337.558853 204.25821 
L 335.275686 206.541908 
L 334.022705 207.533946 
L 332.643401 208.304697 
L 331.097002 208.756606 
L 326.219146 209.448896 
L 324.637382 209.333128 
L 321.480009 208.553097 
L 318.378371 207.6109 
L 316.891628 206.992823 
L 315.477747 206.185841 
L 314.179164 205.188343 
L 313.04696 204.027737 
L 312.128334 202.731378 
L 311.412695 201.323782 
L 310.371608 198.264213 
L 309.679927 195.025133 
L 309.52323 193.391739 
L 309.535474 191.777486 
L 309.748794 190.203658 
L 310.195325 188.691537 
L 310.889828 187.257868 
L 311.781498 185.902272 
L 313.894662 183.404832 
L 317.220344 179.862524 
L 319.264014 177.349173 
L 321.110214 174.688004 
L 322.736685 171.893566 
L 324.864007 167.528199 
L 326.993625 163.130756 
L 328.408319 160.209619 
L 328.886793 158.685839 
L 329.113529 157.091592 
L 329.13922 153.816717 
L 329.107718 152.210639 
L 328.881513 150.651907 
L 328.303362 149.154873 
L 327.454877 147.760219 
L 326.339166 146.637525 
L 324.943601 145.923073 
L 317.288304 143.250841 
L 315.730287 142.813472 
L 314.138757 142.500946 
L 312.523045 142.400285 
L 310.966717 142.699257 
L 309.494498 143.360274 
L 295.220128 151.074913 
L 292.389106 152.631719 
L 290.912227 153.286798 
L 289.367618 153.79643 
L 287.775896 154.147715 
L 286.164563 154.333585 
L 284.557451 154.351704 
L 282.959143 154.224583 
L 279.782088 153.657173 
L 257.672452 148.432389 
L 254.467628 147.931972 
L 251.237007 147.76118 
L 248.021077 148.057959 
L 243.202131 148.746765 
L 238.353629 149.141025 
L 228.646763 149.808453 
L 225.401709 150.016209 
L 223.770932 149.97065 
L 222.161074 149.759091 
L 220.623108 149.335656 
L 219.208031 148.655664 
L 217.927219 147.728079 
L 215.581677 145.48039 
L 207.482853 137.465097 
L 195.951006 126.083896 
L 184.603877 114.493143 
L 160.889462 90.04846 
L 152.727537 82.119246 
L 151.361309 81.395256 
L 149.811658 81.087628 
L 146.57093 80.992089 
L 143.302125 80.924443 
L 140.069616 80.738381 
L 136.853012 80.741239 
L 135.234032 80.608551 
L 133.614814 80.235866 
L 132.118781 79.574476 
L 130.915806 78.600905 
L 130.158146 77.29948 
L 129.78844 75.745788 
L 129.187927 70.831808 
L 128.443537 66.0784 
L 127.766177 61.190937 
L 127.400522 59.619513 
L 126.903485 58.112679 
L 126.244982 56.685978 
L 125.434314 55.32075 
L 123.448288 52.660115 
L 122.292836 51.423805 
L 121.012835 50.421638 
L 119.593853 49.794633 
L 118.058939 49.574638 
L 116.469855 49.680733 
L 114.889777 50.026901 
L 111.843762 51.137108 
L 107.317657 52.974166 
L 89.083795 59.730036 
L 76.880393 64.228022 
L 75.502832 65.002709 
L 74.237962 65.934359 
L 73.113888 67.061578 
L 72.161307 68.40693 
L 71.423696 69.913873 
L 70.948463 71.501523 
L 70.775583 73.094568 
L 70.877947 74.668016 
L 71.192873 76.223561 
L 72.215202 79.291442 
L 73.951867 83.866455 
L 77.751291 94.550445 
L 79.910078 100.688062 
L 80.656885 103.812757 
L 80.856234 105.399111 
L 80.904812 107.00512 
L 80.789205 108.623938 
L 80.513681 110.235317 
L 80.083832 111.818003 
L 79.505252 113.350742 
L 78.783535 114.812278 
L 77.924274 116.181358 
L 76.934711 117.441323 
L 75.82908 118.595029 
L 74.623473 119.650514 
L 71.976688 121.498955 
L 69.122761 123.051131 
L 66.164188 124.38799 
L 57.202352 128.169674 
L 51.278376 130.814431 
L 45.298035 133.362891 
L 43.891724 134.134712 
L 42.559432 135.020292 
L 41.321153 136.049301 
L 40.224151 137.241452 
L 39.350289 138.603821 
L 38.783568 140.142336 
L 38.592759 141.806125 
L 38.814304 143.423739 
L 39.480512 144.808337 
L 40.588285 145.828772 
L 42.009239 146.550952 
L 45.183002 147.529415 
L 54.617606 149.809331 
L 92.41897 159.094033 
L 97.161268 160.313357 
L 98.749048 160.552351 
L 100.33959 160.604243 
L 101.92588 160.458199 
L 103.499745 160.112471 
L 105.046646 159.56595 
L 106.515997 158.821137 
L 107.844548 157.881802 
L 108.972996 156.75334 
L 109.884613 155.458592 
L 110.588558 154.031007 
L 111.09436 152.504188 
L 111.411544 150.911733 
L 111.549638 149.287243 
L 111.518276 147.664138 
L 111.335094 146.062309 
L 110.638691 142.909294 
L 108.047714 133.527544 
L 106.445268 127.227087 
L 105.664007 124.075385 
L 105.490111 122.488896 
L 105.53816 120.897335 
L 105.800518 119.316479 
L 106.264525 117.763199 
L 106.917625 116.259281 
L 107.747549 114.839923 
L 108.742076 113.542601 
L 109.888985 112.404789 
L 111.176056 111.46396 
L 112.591068 110.757587 
L 114.119894 110.313561 
L 117.385888 109.93893 
L 119.041984 109.81812 
L 120.637457 109.880199 
L 122.1173 110.398577 
L 124.938632 111.915067 
L 129.045258 114.521981 
L 137.200409 119.861867 
L 160.396278 134.760792 
L 178.102828 146.204166 
L 202.739368 161.866059 
L 262.476977 200.90614 
L 289.411961 218.981468 
L 400.996793 294.278996 
L 402.412729 295.066022 
L 403.902187 295.708249 
L 405.511809 296.024569 
L 407.096243 295.807989 
L 408.35439 294.915123 
L 409.101835 293.538759 
L 409.402167 291.936161 
L 413.021477 259.676357 
L 413.551775 254.838767 
L 413.551775 254.838767 
" clip-path="url(#pb36b9649c6)" style="fill: none; stroke: #575fcf; stroke-width: 2; stroke-linecap: square"/>
   </g>
   <g id="line2d_2">
    <path d="M 416.024376 252.658534 
L 426.630187 152.041341 
L 426.616721 149.59528 
L 426.415638 147.156265 
L 425.990865 144.750048 
L 425.319644 142.391348 
L 424.423954 140.100266 
L 422.002481 134.929094 
L 418.459642 129.476184 
L 416.791837 127.688532 
L 414.94023 126.083757 
L 412.93001 124.699529 
L 410.099078 123.077184 
L 390.049149 112.123358 
L 382.865337 108.256069 
L 380.620928 107.281821 
L 378.289609 106.552242 
L 376.692345 106.256357 
L 375.060014 106.137649 
L 373.425987 106.202441 
L 371.783737 106.516721 
L 370.330628 107.010256 
L 368.662882 107.17871 
L 367.098035 107.636687 
L 365.630073 108.355063 
L 364.321496 109.321132 
L 363.177791 110.482424 
L 361.708628 112.440776 
L 360.469999 114.54889 
L 359.41989 116.767852 
L 355.383203 126.562055 
L 354.464722 129.701755 
L 353.987287 132.096967 
L 353.697206 134.528349 
L 353.56 137.787146 
L 353.67377 141.864346 
L 354.101196 147.55956 
L 354.628227 154.884235 
L 354.746897 159.778175 
L 354.625845 163.857171 
L 354.23043 168.7364 
L 353.430957 175.21254 
L 352.600084 180.035854 
L 351.678357 184.009052 
L 350.503601 187.916181 
L 349.36338 190.97464 
L 348.018592 193.947899 
L 346.833399 196.091828 
L 345.459917 198.11345 
L 343.858511 199.957387 
L 342.027084 201.58502 
L 340.02852 202.992082 
L 337.891634 204.189222 
L 335.639471 205.165482 
L 333.283075 205.886133 
L 330.970389 206.492864 
L 329.409527 207.006179 
L 327.76257 207.229581 
L 322.89467 207.173095 
L 321.281244 206.862759 
L 319.746709 206.292278 
L 318.312102 205.518628 
L 316.331871 204.095054 
L 315.13564 202.982587 
L 314.067799 201.760075 
L 313.12574 200.432123 
L 312.367345 198.988934 
L 311.841231 197.440951 
L 311.56219 195.829712 
L 311.504905 194.195178 
L 311.634003 192.565323 
L 312.311681 188.577456 
L 312.816562 186.171671 
L 313.513262 183.816558 
L 314.378217 181.523612 
L 315.411997 179.297229 
L 316.645838 177.194358 
L 318.066346 175.202304 
L 320.663141 172.060331 
L 323.285525 168.932456 
L 324.708859 166.93969 
L 325.531948 165.532648 
L 326.20996 164.051709 
L 326.711855 162.49542 
L 327.172209 160.080429 
L 327.740845 155.236685 
L 327.611378 153.599572 
L 327.14125 152.025131 
L 326.110452 149.823001 
L 324.344707 147.100372 
L 323.176959 145.952385 
L 321.819278 145.053577 
L 320.316218 144.42421 
L 318.723497 144.078068 
L 317.095597 143.982738 
L 315.466993 144.084308 
L 313.852734 144.350759 
L 312.273135 144.707889 
L 308.209545 145.096196 
L 305.828342 145.662619 
L 303.511878 146.445274 
L 300.510808 147.725283 
L 296.018918 149.668951 
L 293.691771 150.443138 
L 290.52232 151.233763 
L 284.155383 152.588663 
L 280.925703 153.081454 
L 277.663553 153.319567 
L 275.215892 153.293034 
L 272.781278 153.067371 
L 269.561953 152.539178 
L 260.737568 150.896474 
L 255.88006 150.291539 
L 246.123437 149.485656 
L 243.674636 149.462327 
L 239.603797 149.702641 
L 234.718341 150.003529 
L 232.272377 149.969016 
L 229.840929 149.715184 
L 227.43982 149.217023 
L 225.084134 148.527876 
L 219.690731 146.808901 
L 217.292402 146.184731 
L 214.983414 145.342635 
L 212.785231 144.273801 
L 210.701704 142.995441 
L 208.734629 141.540314 
L 206.272757 139.400009 
L 203.367809 136.536342 
L 200.030062 132.955126 
L 195.760854 128.017462 
L 191.136496 122.312929 
L 182.123554 110.716199 
L 176.524958 103.701051 
L 172.297653 98.727613 
L 168.44987 94.506873 
L 165.019999 91.014025 
L 162.602265 88.822863 
L 160.673934 87.317047 
L 158.626299 85.978384 
L 156.452972 84.869519 
L 154.145225 84.045065 
L 152.482092 83.695283 
L 150.168437 83.390263 
L 147.013152 82.439364 
L 144.60496 81.937035 
L 139.791146 81.124255 
L 138.244646 80.585897 
L 136.019824 79.531806 
L 134.624074 78.673549 
L 130.762251 75.7722 
L 129.676823 74.518123 
L 128.750197 73.137874 
L 128.049389 71.683868 
L 127.565041 70.144866 
L 126.697299 66.152702 
L 125.574232 61.382742 
L 124.615007 58.27523 
L 124.037693 56.756069 
L 123.282102 55.306832 
L 122.274536 54.016204 
L 121.017229 52.970699 
L 119.56736 52.215254 
L 117.370826 51.259541 
L 115.788119 50.798978 
L 114.170874 50.507583 
L 111.719709 50.334391 
L 109.271708 50.463377 
L 106.8759 50.927386 
L 104.536283 51.639173 
L 98.404353 53.87962 
L 86.196943 58.501468 
L 83.990825 59.561239 
L 81.900089 60.820351 
L 79.9549 62.311113 
L 78.16636 63.995973 
L 76.555645 65.848972 
L 75.142251 67.836047 
L 73.890871 69.929969 
L 73.235878 71.429633 
L 72.244912 74.529347 
L 71.78211 76.922686 
L 71.592448 79.373804 
L 71.683577 81.827309 
L 71.932493 83.433426 
L 72.592631 85.784659 
L 73.788467 88.82151 
L 76.985653 96.326759 
L 77.714041 98.66601 
L 78.246027 101.053174 
L 78.573107 103.483861 
L 78.686787 105.922495 
L 78.560062 108.364426 
L 78.280738 109.971258 
L 77.821558 111.537538 
L 77.183359 113.040317 
L 76.376933 114.457642 
L 74.918147 116.413522 
L 73.229291 118.186297 
L 71.366949 119.771583 
L 69.363742 121.179366 
L 67.253805 122.42173 
L 64.318142 123.846671 
L 61.280402 125.038437 
L 57.390335 126.27055 
L 53.498161 127.491556 
L 51.228516 128.401909 
L 49.783792 129.147469 
L 47.743462 130.505314 
L 45.877608 132.091397 
L 44.201689 133.879194 
L 42.760958 135.859865 
L 41.969326 137.293816 
L 41.358473 138.812818 
L 40.959867 140.376734 
L 40.849102 142.013319 
L 41.178434 143.585033 
L 41.395058 144.338307 
L 42.183698 145.784516 
L 43.223991 147.057654 
L 44.4349 148.17469 
L 45.765807 149.115186 
L 47.194792 149.893097 
L 48.696654 150.519891 
L 51.033161 151.236261 
L 59.752932 153.363087 
L 88.305833 160.248396 
L 90.732972 160.539545 
L 93.173002 160.564376 
L 95.615681 160.300954 
L 98.030452 159.81505 
L 101.156498 158.918414 
L 103.435898 158.043954 
L 104.884454 157.280473 
L 106.207912 156.329809 
L 107.358966 155.188392 
L 108.291035 153.85889 
L 109.004392 152.39132 
L 109.523306 150.84104 
L 110.004139 148.444045 
L 110.229134 146.006041 
L 110.240473 143.559022 
L 110.050552 141.115156 
L 109.663913 138.697135 
L 109.081438 136.322563 
L 107.381025 130.025017 
L 107.090341 127.597758 
L 107.130743 125.140114 
L 107.433908 122.708499 
L 108.065123 119.522912 
L 108.585203 117.97621 
L 109.314599 116.51374 
L 110.262394 115.186092 
L 111.422228 114.042106 
L 112.770515 113.130434 
L 114.231705 112.44031 
L 115.794543 111.953779 
L 117.414979 111.736371 
L 119.048921 111.82794 
L 120.626236 112.007134 
L 122.25736 111.975059 
L 124.7236 112.249844 
L 127.121411 112.744618 
L 129.469462 113.435369 
L 131.756494 114.310569 
L 133.964787 115.360775 
L 136.801488 116.971988 
L 142.311256 120.471932 
L 175.186494 141.760138 
L 185.989006 149.091237 
L 205.555487 162.398359 
L 228.512366 177.974746 
L 296.345236 224.7764 
L 333.936561 250.753526 
L 383.562714 285.149899 
L 394.34792 292.504616 
L 396.507813 293.640156 
L 398.032193 294.213679 
L 399.614228 294.615258 
L 401.237845 294.831584 
L 402.881448 294.831016 
L 404.508223 294.561506 
L 405.296629 294.299025 
L 408.063143 292.802479 
L 409.298826 291.650399 
L 410.294332 290.364027 
L 411.116413 288.951786 
L 411.746908 287.449721 
L 412.20506 285.885512 
L 412.651916 283.480548 
L 413.299893 277.806101 
L 415.851654 254.281239 
L 415.851654 254.281239 
" clip-path="url(#pb36b9649c6)" style="fill: none; stroke: #f53b57; stroke-width: 2; stroke-linecap: square"/>
   </g>
   <g id="line2d_3">
    <path d="M 418.368266 252.106491 
L 424.491246 195.649065 
L 430.195455 140.369366 
L 430.094671 138.214569 
L 429.659433 135.991255 
L 428.936573 133.919716 
L 428.050269 132.056133 
L 426.972546 130.210442 
L 425.352104 128.230066 
L 423.2285 126.706096 
L 419.733593 125.118577 
L 415.438651 123.269979 
L 411.305751 121.178933 
L 395.694889 112.63963 
L 375.73427 101.705565 
L 373.52176 100.653958 
L 370.374519 100.209678 
L 367.247985 101.020495 
L 365.060379 102.444452 
L 361.231523 105.633582 
L 358.528482 107.856088 
L 357.138841 109.196208 
L 355.820829 110.660083 
L 354.600994 112.241983 
L 353.502567 113.942996 
L 352.552742 115.764698 
L 351.785238 117.703329 
L 351.243292 119.707426 
L 350.923839 121.692484 
L 350.77881 123.616163 
L 350.810648 127.247126 
L 351.310786 138.58786 
L 351.970033 159.671367 
L 352.070612 165.935069 
L 351.936878 168.895607 
L 351.601935 171.74117 
L 351.02934 174.544633 
L 350.225053 177.318564 
L 349.202058 180.044349 
L 347.974517 182.702641 
L 346.557723 185.273792 
L 344.964489 187.743385 
L 342.224181 191.390915 
L 334.248227 201.227436 
L 332.331789 203.153796 
L 330.912727 204.163369 
L 330.173947 204.364135 
L 325.277962 204.890664 
L 322.69924 204.233455 
L 319.929426 203.399005 
L 318.870799 202.964335 
L 317.963816 202.448824 
L 317.1591 201.831884 
L 316.492735 201.151547 
L 315.969642 200.409699 
L 315.518311 199.510016 
L 314.699376 197.074149 
L 314.126259 194.411974 
L 314.007207 193.192294 
L 314.012692 192.09426 
L 314.137987 191.142175 
L 314.380725 190.312727 
L 314.791486 189.476627 
L 315.414039 188.538648 
L 317.190873 186.451276 
L 320.59586 182.820855 
L 322.850727 180.047565 
L 324.895831 177.099422 
L 326.697235 174.005408 
L 328.929724 169.429721 
L 330.989968 165.174056 
L 332.601186 161.811399 
L 333.264629 159.675982 
L 333.585649 157.473649 
L 333.626985 153.740597 
L 333.581322 151.84636 
L 333.222068 149.509361 
L 332.328556 147.169013 
L 330.993547 144.999124 
L 328.989267 143.014985 
L 326.725833 141.80367 
L 320.273632 139.512254 
L 316.769898 138.447119 
L 314.712257 138.049325 
L 312.242984 137.92062 
L 309.610486 138.420651 
L 307.516358 139.331279 
L 293.008062 147.169455 
L 290.427113 148.594836 
L 289.297842 149.098769 
L 288.179507 149.468125 
L 287.033552 149.721118 
L 285.88065 149.854162 
L 284.709994 149.865886 
L 282.157054 149.564361 
L 279.275628 148.920574 
L 272.875359 147.36667 
L 263.495716 145.151394 
L 258.51553 144.023868 
L 254.962877 143.470967 
L 253.089758 143.311689 
L 251.150721 143.273599 
L 249.213718 143.386462 
L 239.645324 144.557057 
L 224.125936 145.496301 
L 223.048619 145.359307 
L 222.194144 145.131173 
L 221.506822 144.800617 
L 220.763851 144.249667 
L 218.765035 142.316206 
L 210.619223 134.254332 
L 199.133918 122.919261 
L 187.830133 111.37271 
L 164.036031 86.847688 
L 155.36002 78.483883 
L 152.858348 77.16386 
L 150.380441 76.635402 
L 146.565947 76.503681 
L 143.554124 76.443112 
L 140.164398 76.250971 
L 135.926142 76.173823 
L 134.444299 75.735492 
L 134.315794 75.670732 
L 134.332891 75.651046 
L 134.213954 74.997022 
L 133.888762 71.837351 
L 131.722416 58.408287 
L 131.079586 56.467684 
L 130.217015 54.595813 
L 129.200732 52.879453 
L 128.091797 51.301169 
L 126.852258 49.734568 
L 125.330171 48.119198 
L 123.332335 46.579015 
L 120.831005 45.48009 
L 118.222477 45.089207 
L 115.835749 45.23734 
L 113.704126 45.697922 
L 111.815813 46.317407 
L 101.212249 50.445498 
L 76.627002 59.42407 
L 74.86052 60.219787 
L 73.067989 61.232115 
L 71.307762 62.534394 
L 69.676881 64.174916 
L 68.299931 66.118784 
L 67.244775 68.276055 
L 66.550427 70.605359 
L 66.288285 72.994638 
L 66.428926 75.261348 
L 66.840434 77.319966 
L 68.017789 80.88127 
L 69.720209 85.362751 
L 73.53838 96.098737 
L 75.606324 101.962242 
L 76.228982 104.547272 
L 76.41737 106.911848 
L 76.333341 108.084397 
L 76.130872 109.267423 
L 75.813558 110.435762 
L 75.38828 111.562901 
L 74.864912 112.623619 
L 74.252805 113.59947 
L 73.545194 114.499044 
L 71.798582 116.162559 
L 69.63453 117.6701 
L 67.143922 119.02248 
L 64.408989 120.256996 
L 55.347601 124.08241 
L 49.545773 126.673909 
L 44.927385 128.577252 
L 43.261647 129.363021 
L 41.567793 130.294768 
L 39.878356 131.420617 
L 38.227827 132.797045 
L 36.670465 134.499711 
L 35.330282 136.60748 
L 34.415706 139.109085 
L 34.104545 141.848164 
L 34.510125 144.696482 
L 35.868419 147.47266 
L 38.041388 149.524601 
L 40.275888 150.691161 
L 44.028652 151.866846 
L 53.558903 154.171094 
L 91.29069 163.438319 
L 96.315778 164.721415 
L 98.339969 165.022081 
L 100.472555 165.090684 
L 102.616043 164.893231 
L 104.733575 164.427966 
L 106.813163 163.692117 
L 108.830728 162.666635 
L 110.734667 161.315902 
L 112.406604 159.644044 
L 113.744506 157.749237 
L 114.742238 155.731825 
L 115.43426 153.649222 
L 115.855669 151.540687 
L 116.035627 149.434674 
L 115.996787 147.366198 
L 115.771912 145.383725 
L 114.973414 141.744816 
L 112.41257 132.481661 
L 110.770318 126.027183 
L 110.092882 123.346755 
L 109.975007 122.311299 
L 110.005238 121.334419 
L 110.173036 120.329851 
L 110.480308 119.303656 
L 110.920401 118.289951 
L 111.473672 117.34229 
L 112.112604 116.506615 
L 112.803834 115.817924 
L 113.512333 115.296406 
L 114.224748 114.938128 
L 115.073723 114.699452 
L 117.732615 114.413929 
L 119.804981 114.290734 
L 121.414508 115.079227 
L 123.947309 116.563075 
L 129.275708 120.073151 
L 137.522993 125.388695 
L 156.588389 137.636821 
L 177.080806 150.866791 
L 198.935496 164.746862 
L 253.244296 200.160789 
L 277.491305 216.361972 
L 352.785731 267.151556 
L 398.713769 298.143402 
L 400.431491 299.093494 
L 402.575911 299.996235 
L 405.37172 300.510793 
L 408.728158 299.989219 
L 411.717521 297.887527 
L 413.335976 295.028014 
L 413.840247 292.606443 
L 416.783311 266.609443 
L 418.013344 255.328897 
L 418.013344 255.328897 
" clip-path="url(#pb36b9649c6)" style="fill: none; stroke: #05c46b; stroke-linecap: square"/>
   </g>
   <g id="line2d_4">
    <path d="M 409.44563 251.121665 
L 415.563703 194.709756 
L 421.218828 140.310106 
L 421.181043 139.277851 
L 420.999355 138.35481 
L 420.640427 137.348607 
L 419.550726 135.260187 
L 419.202891 134.769983 
L 418.735393 134.477538 
L 414.763194 132.777768 
L 411.62552 131.396685 
L 407.085029 129.101612 
L 391.390535 120.517185 
L 370.757736 109.194655 
L 371.030722 109.161393 
L 365.614315 113.612432 
L 363.593169 115.435197 
L 361.929784 117.42582 
L 360.713803 119.503736 
L 360.304188 120.533668 
L 360.021062 121.587341 
L 359.747424 123.999957 
L 359.779375 126.865974 
L 360.236673 136.705188 
L 361.045946 166.098536 
L 360.886017 169.600046 
L 360.464943 173.166093 
L 359.74394 176.698485 
L 358.743291 180.151045 
L 357.483679 183.508174 
L 355.984616 186.755003 
L 354.264481 189.876966 
L 352.344236 192.854419 
L 350.299341 195.637765 
L 343.144778 204.633596 
L 340.869478 207.288983 
L 338.219583 209.93002 
L 336.520203 211.263334 
L 334.374076 212.446025 
L 332.020056 213.149078 
L 326.325948 213.936036 
L 323.996801 213.775593 
L 321.979912 213.350251 
L 316.827316 211.822795 
L 314.912457 211.02131 
L 312.991678 209.922857 
L 311.199229 208.544802 
L 309.601185 206.903926 
L 308.287027 205.053056 
L 307.307078 203.137547 
L 306.596229 201.273169 
L 305.583985 197.593718 
L 305.233595 195.638292 
L 305.039252 193.591184 
L 305.058255 191.460713 
L 305.3596 189.265142 
L 306.009924 187.070347 
L 306.988169 185.039108 
L 308.148956 183.265897 
L 310.59845 180.358387 
L 313.844828 176.904192 
L 315.6773 174.650781 
L 317.324597 172.276586 
L 318.776135 169.781724 
L 320.798291 165.626678 
L 322.997282 161.087456 
L 324.215452 158.607839 
L 324.508957 157.695697 
L 324.641408 156.709535 
L 324.651454 153.892836 
L 324.540958 151.794454 
L 323.916207 150.521315 
L 323.689064 150.260064 
L 321.92084 149.605854 
L 315.974809 147.542759 
L 313.565258 146.952567 
L 312.803107 146.87995 
L 312.322949 146.977863 
L 310.207652 148.06765 
L 303.010893 151.974656 
L 297.432193 154.98037 
L 294.351099 156.668601 
L 292.526612 157.474828 
L 290.555728 158.124735 
L 288.518241 158.574311 
L 286.448475 158.813008 
L 284.404907 158.837522 
L 282.443526 158.683279 
L 278.807517 158.038502 
L 256.829374 152.840909 
L 253.972378 152.392976 
L 251.323293 152.248762 
L 248.648841 152.502252 
L 243.69363 153.208184 
L 238.633978 153.620672 
L 229.04 154.279604 
L 225.437508 154.504477 
L 223.415928 154.445 
L 221.273528 154.158874 
L 219.052072 153.540139 
L 216.90924 152.510712 
L 215.090588 151.206492 
L 212.398318 148.644574 
L 204.346483 140.675863 
L 192.768095 129.24853 
L 181.37762 117.613576 
L 156.602603 92.134384 
L 149.86427 85.626651 
L 148.070304 85.47818 
L 143.050125 85.405774 
L 139.974835 85.225791 
L 136.664109 85.225673 
L 134.541921 85.04328 
L 132.200799 84.495725 
L 129.793263 83.41346 
L 127.515819 81.531078 
L 125.9834 78.947913 
L 125.362925 76.494555 
L 124.761776 71.576805 
L 124.210758 68.340409 
L 123.36482 62.070649 
L 122.727383 59.757674 
L 122.27295 58.776143 
L 120.898094 56.670895 
L 119.255501 54.728412 
L 118.356701 54.109177 
L 117.8954 54.060068 
L 117.103961 54.124126 
L 116.075427 54.355881 
L 113.547854 55.289445 
L 108.924056 57.165265 
L 90.636027 63.941498 
L 78.900266 68.236256 
L 77.937674 68.773302 
L 77.168162 69.334324 
L 76.550895 69.948239 
L 76.022683 70.695075 
L 75.602618 71.55169 
L 75.346499 72.397687 
L 75.262881 73.194498 
L 75.326968 74.074684 
L 75.545312 75.127155 
L 76.412615 77.701613 
L 78.183525 82.370158 
L 81.964203 93.002154 
L 84.213832 99.413882 
L 84.69821 101.200018 
L 85.084787 103.078241 
L 85.33117 105.051577 
L 85.392253 107.098392 
L 85.24507 109.16348 
L 84.89649 111.203212 
L 84.354106 113.200244 
L 83.622224 115.138582 
L 82.702157 117.000937 
L 81.595744 118.763246 
L 80.324228 120.383602 
L 78.930429 121.839636 
L 77.448363 123.138468 
L 75.903891 124.295672 
L 72.712172 126.250955 
L 69.500864 127.83005 
L 64.845389 129.7783 
L 60.499907 131.606315 
L 51.455922 135.58972 
L 47.334423 137.362761 
L 45.240508 138.619967 
L 44.414478 139.301558 
L 43.777838 139.983193 
L 43.370296 140.600161 
L 43.151431 141.175588 
L 43.118483 142.150996 
L 43.135181 142.132943 
L 43.74259 142.410744 
L 46.337352 143.191984 
L 55.67631 145.447567 
L 93.547249 154.749748 
L 98.006758 155.905298 
L 99.158126 156.082621 
L 100.206626 156.117802 
L 101.235716 156.023168 
L 102.265915 155.796976 
L 103.28013 155.439784 
L 104.201266 154.975639 
L 104.954428 154.447702 
L 105.539389 153.862636 
L 106.024719 153.167947 
L 106.434879 152.33019 
L 106.75446 151.359153 
L 106.967419 150.282778 
L 107.063649 149.139812 
L 107.039764 147.962079 
L 106.648347 145.447019 
L 105.88553 142.619722 
L 104.484807 137.81409 
L 101.235133 124.804016 
L 101.005215 122.666494 
L 101.071081 120.460251 
L 101.428001 118.303107 
L 102.048742 116.222743 
L 102.91485 114.22861 
L 104.021426 112.337556 
L 105.371548 110.578588 
L 106.974136 108.991654 
L 108.83978 107.631513 
L 110.957388 106.577046 
L 113.166065 105.92767 
L 115.21998 105.615451 
L 118.960925 105.330441 
L 121.469933 105.469665 
L 123.88752 106.273999 
L 127.205795 108.041335 
L 131.528735 110.783242 
L 139.616715 116.079368 
L 162.847491 131.000821 
L 180.501389 142.410389 
L 205.187178 158.103871 
L 263.613782 196.270711 
L 290.577304 214.353317 
L 404.393967 291.03855 
L 405.651899 291.538344 
L 405.464329 291.626758 
L 404.867694 292.049504 
L 406.635251 276.921365 
L 409.090205 254.348637 
L 409.090205 254.348637 
" clip-path="url(#pb36b9649c6)" style="fill: none; stroke: #05c46b; stroke-linecap: square"/>
   </g>
   <g id="patch_3">
    <path d="M 14.3 313.281872 
L 14.3 32.318128 
" style="fill: none; stroke: #000000; stroke-width: 0.8; stroke-linejoin: miter; stroke-linecap: square"/>
   </g>
   <g id="patch_4">
    <path d="M 450 313.281872 
L 450 32.318128 
" style="fill: none; stroke: #000000; stroke-width: 0.8; stroke-linejoin: miter; stroke-linecap: square"/>
   </g>
   <g id="patch_5">
    <path d="M 14.3 313.281872 
L 450 313.281872 
" style="fill: none; stroke: #000000; stroke-width: 0.8; stroke-linejoin: miter; stroke-linecap: square"/>
   </g>
   <g id="patch_6">
    <path d="M 14.3 32.318128 
L 450 32.318128 
" style="fill: none; stroke: #000000; stroke-width: 0.8; stroke-linejoin: miter; stroke-linecap: square"/>
   </g>
   <g id="legend_1">
    <g id="patch_7">
     <path d="M 354.617188 84.352503 
L 443 84.352503 
Q 445 84.352503 445 82.352503 
L 445 39.318128 
Q 445 37.318128 443 37.318128 
L 354.617188 37.318128 
Q 352.617188 37.318128 352.617188 39.318128 
L 352.617188 82.352503 
Q 352.617188 84.352503 354.617188 84.352503 
z
" style="fill: #ffffff; opacity: 0.8; stroke: #cccccc; stroke-linejoin: miter"/>
    </g>
    <g id="line2d_5">
     <path d="M 356.617188 45.416565 
L 366.617188 45.416565 
L 376.617188 45.416565 
" style="fill: none; stroke: #575fcf; stroke-width: 2; stroke-linecap: square"/>
    </g>
    <g id="text_1">
     <!-- Track -->
     <g transform="translate(384.617188 48.916565)scale(0.1 -0.1)">
      <defs>
       <path id="DejaVuSans-54" d="M -19 4666 
L 3928 4666 
L 3928 4134 
L 2272 4134 
L 2272 0 
L 1638 0 
L 1638 4134 
L -19 4134 
L -19 4666 
z
" transform="scale(0.015625)"/>
       <path id="DejaVuSans-72" d="M 2631 2963 
Q 2534 3019 2420 3045 
Q 2306 3072 2169 3072 
Q 1681 3072 1420 2755 
Q 1159 2438 1159 1844 
L 1159 0 
L 581 0 
L 581 3500 
L 1159 3500 
L 1159 2956 
Q 1341 3275 1631 3429 
Q 1922 3584 2338 3584 
Q 2397 3584 2469 3576 
Q 2541 3569 2628 3553 
L 2631 2963 
z
" transform="scale(0.015625)"/>
       <path id="DejaVuSans-61" d="M 2194 1759 
Q 1497 1759 1228 1600 
Q 959 1441 959 1056 
Q 959 750 1161 570 
Q 1363 391 1709 391 
Q 2188 391 2477 730 
Q 2766 1069 2766 1631 
L 2766 1759 
L 2194 1759 
z
M 3341 1997 
L 3341 0 
L 2766 0 
L 2766 531 
Q 2569 213 2275 61 
Q 1981 -91 1556 -91 
Q 1019 -91 701 211 
Q 384 513 384 1019 
Q 384 1609 779 1909 
Q 1175 2209 1959 2209 
L 2766 2209 
L 2766 2266 
Q 2766 2663 2505 2880 
Q 2244 3097 1772 3097 
Q 1472 3097 1187 3025 
Q 903 2953 641 2809 
L 641 3341 
Q 956 3463 1253 3523 
Q 1550 3584 1831 3584 
Q 2591 3584 2966 3190 
Q 3341 2797 3341 1997 
z
" transform="scale(0.015625)"/>
       <path id="DejaVuSans-63" d="M 3122 3366 
L 3122 2828 
Q 2878 2963 2633 3030 
Q 2388 3097 2138 3097 
Q 1578 3097 1268 2742 
Q 959 2388 959 1747 
Q 959 1106 1268 751 
Q 1578 397 2138 397 
Q 2388 397 2633 464 
Q 2878 531 3122 666 
L 3122 134 
Q 2881 22 2623 -34 
Q 2366 -91 2075 -91 
Q 1284 -91 818 406 
Q 353 903 353 1747 
Q 353 2603 823 3093 
Q 1294 3584 2113 3584 
Q 2378 3584 2631 3529 
Q 2884 3475 3122 3366 
z
" transform="scale(0.015625)"/>
       <path id="DejaVuSans-6b" d="M 581 4863 
L 1159 4863 
L 1159 1991 
L 2875 3500 
L 3609 3500 
L 1753 1863 
L 3688 0 
L 2938 0 
L 1159 1709 
L 1159 0 
L 581 0 
L 581 4863 
z
" transform="scale(0.015625)"/>
      </defs>
      <use xlink:href="#DejaVuSans-54"/>
      <use xlink:href="#DejaVuSans-72" x="46.333984"/>
      <use xlink:href="#DejaVuSans-61" x="87.447266"/>
      <use xlink:href="#DejaVuSans-63" x="148.726562"/>
      <use xlink:href="#DejaVuSans-6b" x="203.707031"/>
     </g>
    </g>
    <g id="line2d_6">
     <path d="M 356.617188 60.09469 
L 366.617188 60.09469 
L 376.617188 60.09469 
" style="fill: none; stroke: #f53b57; stroke-width: 2; stroke-linecap: square"/>
    </g>
    <g id="text_2">
     <!-- Raceline -->
     <g transform="translate(384.617188 63.59469)scale(0.1 -0.1)">
      <defs>
       <path id="DejaVuSans-52" d="M 2841 2188 
Q 3044 2119 3236 1894 
Q 3428 1669 3622 1275 
L 4263 0 
L 3584 0 
L 2988 1197 
Q 2756 1666 2539 1819 
Q 2322 1972 1947 1972 
L 1259 1972 
L 1259 0 
L 628 0 
L 628 4666 
L 2053 4666 
Q 2853 4666 3247 4331 
Q 3641 3997 3641 3322 
Q 3641 2881 3436 2590 
Q 3231 2300 2841 2188 
z
M 1259 4147 
L 1259 2491 
L 2053 2491 
Q 2509 2491 2742 2702 
Q 2975 2913 2975 3322 
Q 2975 3731 2742 3939 
Q 2509 4147 2053 4147 
L 1259 4147 
z
" transform="scale(0.015625)"/>
       <path id="DejaVuSans-65" d="M 3597 1894 
L 3597 1613 
L 953 1613 
Q 991 1019 1311 708 
Q 1631 397 2203 397 
Q 2534 397 2845 478 
Q 3156 559 3463 722 
L 3463 178 
Q 3153 47 2828 -22 
Q 2503 -91 2169 -91 
Q 1331 -91 842 396 
Q 353 884 353 1716 
Q 353 2575 817 3079 
Q 1281 3584 2069 3584 
Q 2775 3584 3186 3129 
Q 3597 2675 3597 1894 
z
M 3022 2063 
Q 3016 2534 2758 2815 
Q 2500 3097 2075 3097 
Q 1594 3097 1305 2825 
Q 1016 2553 972 2059 
L 3022 2063 
z
" transform="scale(0.015625)"/>
       <path id="DejaVuSans-6c" d="M 603 4863 
L 1178 4863 
L 1178 0 
L 603 0 
L 603 4863 
z
" transform="scale(0.015625)"/>
       <path id="DejaVuSans-69" d="M 603 3500 
L 1178 3500 
L 1178 0 
L 603 0 
L 603 3500 
z
M 603 4863 
L 1178 4863 
L 1178 4134 
L 603 4134 
L 603 4863 
z
" transform="scale(0.015625)"/>
       <path id="DejaVuSans-6e" d="M 3513 2113 
L 3513 0 
L 2938 0 
L 2938 2094 
Q 2938 2591 2744 2837 
Q 2550 3084 2163 3084 
Q 1697 3084 1428 2787 
Q 1159 2491 1159 1978 
L 1159 0 
L 581 0 
L 581 3500 
L 1159 3500 
L 1159 2956 
Q 1366 3272 1645 3428 
Q 1925 3584 2291 3584 
Q 2894 3584 3203 3211 
Q 3513 2838 3513 2113 
z
" transform="scale(0.015625)"/>
      </defs>
      <use xlink:href="#DejaVuSans-52"/>
      <use xlink:href="#DejaVuSans-61" x="67.232422"/>
      <use xlink:href="#DejaVuSans-63" x="128.511719"/>
      <use xlink:href="#DejaVuSans-65" x="183.492188"/>
      <use xlink:href="#DejaVuSans-6c" x="245.015625"/>
      <use xlink:href="#DejaVuSans-69" x="272.798828"/>
      <use xlink:href="#DejaVuSans-6e" x="300.582031"/>
      <use xlink:href="#DejaVuSans-65" x="363.960938"/>
     </g>
    </g>
    <g id="line2d_7">
     <path d="M 356.617188 74.772815 
L 366.617188 74.772815 
L 376.617188 74.772815 
" style="fill: none; stroke: #05c46b; stroke-linecap: square"/>
    </g>
    <g id="text_3">
     <!-- Boundaries -->
     <g transform="translate(384.617188 78.272815)scale(0.1 -0.1)">
      <defs>
       <path id="DejaVuSans-42" d="M 1259 2228 
L 1259 519 
L 2272 519 
Q 2781 519 3026 730 
Q 3272 941 3272 1375 
Q 3272 1813 3026 2020 
Q 2781 2228 2272 2228 
L 1259 2228 
z
M 1259 4147 
L 1259 2741 
L 2194 2741 
Q 2656 2741 2882 2914 
Q 3109 3088 3109 3444 
Q 3109 3797 2882 3972 
Q 2656 4147 2194 4147 
L 1259 4147 
z
M 628 4666 
L 2241 4666 
Q 2963 4666 3353 4366 
Q 3744 4066 3744 3513 
Q 3744 3084 3544 2831 
Q 3344 2578 2956 2516 
Q 3422 2416 3680 2098 
Q 3938 1781 3938 1306 
Q 3938 681 3513 340 
Q 3088 0 2303 0 
L 628 0 
L 628 4666 
z
" transform="scale(0.015625)"/>
       <path id="DejaVuSans-6f" d="M 1959 3097 
Q 1497 3097 1228 2736 
Q 959 2375 959 1747 
Q 959 1119 1226 758 
Q 1494 397 1959 397 
Q 2419 397 2687 759 
Q 2956 1122 2956 1747 
Q 2956 2369 2687 2733 
Q 2419 3097 1959 3097 
z
M 1959 3584 
Q 2709 3584 3137 3096 
Q 3566 2609 3566 1747 
Q 3566 888 3137 398 
Q 2709 -91 1959 -91 
Q 1206 -91 779 398 
Q 353 888 353 1747 
Q 353 2609 779 3096 
Q 1206 3584 1959 3584 
z
" transform="scale(0.015625)"/>
       <path id="DejaVuSans-75" d="M 544 1381 
L 544 3500 
L 1119 3500 
L 1119 1403 
Q 1119 906 1312 657 
Q 1506 409 1894 409 
Q 2359 409 2629 706 
Q 2900 1003 2900 1516 
L 2900 3500 
L 3475 3500 
L 3475 0 
L 2900 0 
L 2900 538 
Q 2691 219 2414 64 
Q 2138 -91 1772 -91 
Q 1169 -91 856 284 
Q 544 659 544 1381 
z
M 1991 3584 
L 1991 3584 
z
" transform="scale(0.015625)"/>
       <path id="DejaVuSans-64" d="M 2906 2969 
L 2906 4863 
L 3481 4863 
L 3481 0 
L 2906 0 
L 2906 525 
Q 2725 213 2448 61 
Q 2172 -91 1784 -91 
Q 1150 -91 751 415 
Q 353 922 353 1747 
Q 353 2572 751 3078 
Q 1150 3584 1784 3584 
Q 2172 3584 2448 3432 
Q 2725 3281 2906 2969 
z
M 947 1747 
Q 947 1113 1208 752 
Q 1469 391 1925 391 
Q 2381 391 2643 752 
Q 2906 1113 2906 1747 
Q 2906 2381 2643 2742 
Q 2381 3103 1925 3103 
Q 1469 3103 1208 2742 
Q 947 2381 947 1747 
z
" transform="scale(0.015625)"/>
       <path id="DejaVuSans-73" d="M 2834 3397 
L 2834 2853 
Q 2591 2978 2328 3040 
Q 2066 3103 1784 3103 
Q 1356 3103 1142 2972 
Q 928 2841 928 2578 
Q 928 2378 1081 2264 
Q 1234 2150 1697 2047 
L 1894 2003 
Q 2506 1872 2764 1633 
Q 3022 1394 3022 966 
Q 3022 478 2636 193 
Q 2250 -91 1575 -91 
Q 1294 -91 989 -36 
Q 684 19 347 128 
L 347 722 
Q 666 556 975 473 
Q 1284 391 1588 391 
Q 1994 391 2212 530 
Q 2431 669 2431 922 
Q 2431 1156 2273 1281 
Q 2116 1406 1581 1522 
L 1381 1569 
Q 847 1681 609 1914 
Q 372 2147 372 2553 
Q 372 3047 722 3315 
Q 1072 3584 1716 3584 
Q 2034 3584 2315 3537 
Q 2597 3491 2834 3397 
z
" transform="scale(0.015625)"/>
      </defs>
      <use xlink:href="#DejaVuSans-42"/>
      <use xlink:href="#DejaVuSans-6f" x="68.603516"/>
      <use xlink:href="#DejaVuSans-75" x="129.785156"/>
      <use xlink:href="#DejaVuSans-6e" x="193.164062"/>
      <use xlink:href="#DejaVuSans-64" x="256.542969"/>
      <use xlink:href="#DejaVuSans-61" x="320.019531"/>
      <use xlink:href="#DejaVuSans-72" x="381.298828"/>
      <use xlink:href="#DejaVuSans-69" x="422.412109"/>
      <use xlink:href="#DejaVuSans-65" x="450.195312"/>
      <use xlink:href="#DejaVuSans-73" x="511.71875"/>
     </g>
    </g>
   </g>
  </g>
 </g>
 <defs>
  <clipPath id="pb36b9649c6">
   <rect x="14.3" y="32.318128" width="435.7" height="280.963744"/>
  </clipPath>
 </defs>
</svg>
