<?xml version="1.0" encoding="utf-8" standalone="no"?>
<!DOCTYPE svg PUBLIC "-//W3C//DTD SVG 1.1//EN"
  "http://www.w3.org/Graphics/SVG/1.1/DTD/svg11.dtd">
<svg xmlns:xlink="http://www.w3.org/1999/xlink" width="460.8pt" height="345.6pt" viewBox="0 0 460.8 345.6" xmlns="http://www.w3.org/2000/svg" version="1.1">
 <metadata>
  <rdf:RDF xmlns:dc="http://purl.org/dc/elements/1.1/" xmlns:cc="http://creativecommons.org/ns#" xmlns:rdf="http://www.w3.org/1999/02/22-rdf-syntax-ns#">
   <cc:Work>
    <dc:type rdf:resource="http://purl.org/dc/dcmitype/StillImage"/>
    <dc:date>2024-03-14T16:32:43.349863</dc:date>
    <dc:format>image/svg+xml</dc:format>
    <dc:creator>
     <cc:Agent>
      <dc:title>Matplotlib v3.5.2, https://matplotlib.org/</dc:title>
     </cc:Agent>
    </dc:creator>
   </cc:Work>
  </rdf:RDF>
 </metadata>
 <defs>
  <style type="text/css">*{stroke-linejoin: round; stroke-linecap: butt}</style>
 </defs>
 <g id="figure_1">
  <g id="patch_1">
   <path d="M 0 345.6 
L 460.8 345.6 
L 460.8 0 
L 0 0 
z
" style="fill: #ffffff"/>
  </g>
  <g id="axes_1">
   <g id="patch_2">
    <path d="M 14.3 299.856498 
L 450 299.856498 
L 450 45.743502 
L 14.3 45.743502 
z
" style="fill: #ffffff"/>
   </g>
   <g id="matplotlib.axis_1"/>
   <g id="matplotlib.axis_2"/>
   <g id="line2d_1">
    <path d="M 61.281364 203.636556 
L 161.375591 280.068635 
L 163.201034 281.156773 
L 169.918839 284.41663 
L 171.945526 285.06688 
L 173.011999 285.243366 
L 174.075558 285.220548 
L 175.071755 284.877261 
L 175.880444 284.187213 
L 176.301469 283.2668 
L 176.292713 282.227281 
L 175.747234 280.119998 
L 174.084755 275.073004 
L 170.146444 264.008722 
L 164.817189 248.912382 
L 164.347306 246.836482 
L 164.095135 244.723489 
L 164.084146 242.588257 
L 164.29392 240.456744 
L 164.686637 238.357841 
L 165.245151 236.304108 
L 165.961825 234.300613 
L 166.829071 232.352387 
L 167.839783 230.46512 
L 169.006063 228.670812 
L 170.365132 227.035903 
L 171.922091 225.590885 
L 174.471368 223.654948 
L 178.018272 221.28014 
L 191.587278 212.786308 
L 203.356548 205.437827 
L 206.870115 203.032083 
L 208.460893 201.62462 
L 209.837029 199.974455 
L 210.998775 198.157647 
L 211.965964 196.264817 
L 213.171849 193.341816 
L 215.491927 187.333853 
L 216.454184 185.401265 
L 217.595838 183.613897 
L 218.966466 182.043793 
L 220.60357 180.750304 
L 222.459484 179.703235 
L 224.449911 178.833877 
L 230.402237 176.504512 
L 232.148666 175.343566 
L 234.569098 173.131062 
L 235.27328 172.319965 
L 235.865928 171.451358 
L 236.758511 169.568076 
L 237.341468 167.539021 
L 237.711593 165.422974 
L 238.83472 156.940886 
L 239.408532 154.910489 
L 240.223056 152.946688 
L 241.259107 151.070142 
L 242.485795 149.302296 
L 243.872235 147.664595 
L 245.389894 146.173951 
L 247.02193 144.824818 
L 248.755112 143.604701 
L 251.515598 141.989096 
L 254.43199 140.622924 
L 256.447102 139.897461 
L 258.508801 139.363083 
L 260.60833 139.05621 
L 262.730688 138.995966 
L 264.851209 139.174688 
L 266.944397 139.582414 
L 268.984756 140.209181 
L 270.955897 141.030868 
L 281.618678 145.946857 
L 287.511081 148.441016 
L 289.557229 149.069073 
L 290.601947 149.128866 
L 291.640964 148.935649 
L 293.640696 148.154099 
L 295.501848 147.112982 
L 297.244908 145.895557 
L 299.719817 143.875848 
L 302.859013 140.982616 
L 305.07837 138.676796 
L 307.092797 136.195415 
L 310.827532 131.008382 
L 312.489405 129.682262 
L 313.411784 129.154409 
L 315.391704 128.404922 
L 317.491311 128.027186 
L 319.639656 127.937048 
L 321.769091 128.127344 
L 323.815838 128.676299 
L 325.722423 129.605508 
L 327.438188 130.86816 
L 328.912835 132.413848 
L 330.096106 134.192143 
L 331.133462 136.043624 
L 331.826947 136.841759 
L 332.676061 137.490718 
L 333.630399 137.969462 
L 334.650734 138.279032 
L 335.705083 138.43286 
L 336.769398 138.448796 
L 338.869812 138.157089 
L 354.462163 134.520904 
L 374.238191 129.961702 
L 375.212954 129.562847 
L 376.095816 128.987934 
L 377.642191 127.518938 
L 379.674672 125.04939 
L 384.998125 118.37379 
L 418.522735 76.854502 
L 423.140314 70.983375 
L 424.942065 68.345978 
L 426.608915 65.600742 
L 426.98564 64.625798 
L 427.125036 63.595019 
L 426.970405 62.543014 
L 426.492443 61.545665 
L 425.734673 60.795153 
L 424.768467 60.441863 
L 423.703353 60.364171 
L 421.583668 60.530103 
L 419.513678 60.974006 
L 416.465546 61.954744 
L 410.397772 64.050578 
L 379.918603 73.834707 
L 362.503301 78.922417 
L 351.191806 82.061307 
L 339.811525 84.942856 
L 316.99884 90.498395 
L 300.302587 94.080815 
L 289.837589 96.173385 
L 277.237984 98.465954 
L 263.552415 100.740665 
L 250.886535 102.635644 
L 238.189828 104.308285 
L 187.339842 110.523269 
L 180.986424 111.286375 
L 179.964146 111.577008 
L 179.074358 112.093576 
L 178.440696 112.908632 
L 178.105692 113.935502 
L 178.046383 114.988806 
L 178.312525 115.956386 
L 179.447002 117.726364 
L 182.736066 121.952747 
L 190.024495 131.146844 
L 193.15851 135.468109 
L 196.735542 140.775592 
L 200.714659 147.102995 
L 201.783641 148.958733 
L 202.166652 149.935246 
L 202.324762 150.974811 
L 202.259312 152.045208 
L 202.003632 153.091309 
L 201.551588 154.05192 
L 200.882644 154.863893 
L 200.023985 155.478135 
L 199.056323 155.863085 
L 198.032948 156.030897 
L 195.892452 155.960655 
L 192.671549 155.692035 
L 186.300963 155.35999 
L 184.188736 154.865122 
L 183.206017 154.45442 
L 182.323835 153.908658 
L 181.580713 153.208387 
L 180.989705 152.355759 
L 180.122181 150.366621 
L 178.676436 146.331762 
L 177.384178 143.419176 
L 176.297503 141.574071 
L 174.95014 139.932571 
L 168.194869 133.110743 
L 167.317663 132.51939 
L 166.385695 132.02539 
L 165.396614 131.645191 
L 163.299253 131.163259 
L 159.091942 130.604036 
L 156.948423 130.501469 
L 155.830731 130.572331 
L 154.820169 130.867278 
L 154.092862 131.540254 
L 153.717022 132.536543 
L 153.655028 133.604595 
L 153.849411 134.621657 
L 154.22774 135.597418 
L 155.778518 138.419141 
L 160.655685 146.710006 
L 172.124986 165.955653 
L 173.057282 167.869168 
L 173.83855 169.860055 
L 174.389125 171.924186 
L 174.602583 174.035091 
L 174.455232 176.160753 
L 174.041209 178.262357 
L 173.125907 181.330012 
L 171.317121 186.338716 
L 170.452605 188.303687 
L 169.392934 190.154844 
L 168.050521 191.794526 
L 166.435667 193.168017 
L 164.60735 194.247802 
L 161.656816 195.517229 
L 157.764688 197.260651 
L 152.978623 199.632233 
L 150.988792 200.377489 
L 148.929397 200.833838 
L 146.802384 200.930557 
L 142.513713 200.637796 
L 140.414721 200.368069 
L 138.351109 199.873358 
L 132.250411 197.878027 
L 130.288693 197.062269 
L 128.418209 196.042315 
L 126.660391 194.830792 
L 125.03588 193.445895 
L 123.565221 191.905855 
L 122.246581 190.237422 
L 119.846525 186.702898 
L 118.018195 184.07121 
L 105.029536 167.139314 
L 100.95849 162.200884 
L 98.805654 159.827512 
L 97.224564 158.391122 
L 96.327542 157.838857 
L 95.338489 157.457094 
L 94.295532 157.215413 
L 92.163268 157.053306 
L 90.038247 157.269573 
L 87.981056 157.803898 
L 84.998726 158.958247 
L 80.131466 161.146494 
L 69.455191 166.023563 
L 41.227351 178.750695 
L 40.323455 179.284527 
L 39.497006 179.918185 
L 38.76693 180.676691 
L 37.512661 182.466425 
L 37.12235 183.450969 
L 37.136498 184.470571 
L 37.622749 185.376265 
L 38.388324 186.1276 
L 45.1608 191.333679 
L 60.433259 202.988657 
L 60.433259 202.988657 
" clip-path="url(#pa7bb321ea2)" style="fill: none; stroke: #575fcf; stroke-width: 2; stroke-linecap: square"/>
   </g>
   <g id="line2d_2">
    <path d="M 60.80918 205.173747 
L 114.960636 246.433105 
L 158.886467 279.929356 
L 165.021984 283.791162 
L 166.568312 284.426083 
L 168.191469 284.820088 
L 169.861993 284.956656 
L 171.530102 284.820194 
L 172.625034 284.540642 
L 173.6446 284.056287 
L 175.302312 282.718245 
L 175.88576 281.721737 
L 176.238201 280.627535 
L 176.415984 279.533331 
L 176.439321 278.423148 
L 176.207534 276.770109 
L 175.744497 275.162622 
L 174.7364 272.561817 
L 173.085458 269.022398 
L 167.900018 258.517356 
L 166.926707 255.903508 
L 166.327983 253.754814 
L 165.93412 251.557335 
L 165.671 248.7796 
L 165.557621 244.875853 
L 165.655816 242.090005 
L 165.9236 239.873816 
L 166.392418 237.692269 
L 167.057586 235.562583 
L 167.915343 233.502947 
L 168.965196 231.5328 
L 170.507419 229.207984 
L 173.184186 225.639305 
L 175.052931 223.567447 
L 177.105084 221.678474 
L 179.31282 219.973452 
L 181.651249 218.45336 
L 184.587945 216.846968 
L 189.120697 214.684542 
L 194.642568 212.005183 
L 197.554874 210.354739 
L 199.87664 208.809116 
L 202.059653 207.073287 
L 203.674852 205.534223 
L 205.149327 203.857065 
L 206.812704 201.614763 
L 210.552064 196.067162 
L 215.360143 188.544062 
L 217.05386 186.322639 
L 218.915911 184.246045 
L 221.339372 181.944081 
L 223.904675 179.795246 
L 233.110719 172.539752 
L 234.158786 171.246376 
L 235.401449 169.400547 
L 236.488908 167.448322 
L 237.629223 164.901709 
L 238.761958 161.748673 
L 241.266426 154.353114 
L 242.202672 152.328114 
L 243.329894 150.401924 
L 244.637527 148.593336 
L 246.107778 146.915055 
L 247.729097 145.382705 
L 249.496088 144.020871 
L 251.402434 142.862042 
L 253.434833 141.940468 
L 255.560524 141.261867 
L 257.745123 140.811085 
L 259.963218 140.565207 
L 262.19306 140.506568 
L 264.418386 140.665619 
L 266.610814 141.078915 
L 269.283952 141.871309 
L 271.892242 142.858597 
L 274.40987 144.063756 
L 279.872916 146.857874 
L 281.963996 147.635055 
L 283.584948 148.04312 
L 285.244923 148.264367 
L 286.915586 148.282573 
L 288.585382 148.1018 
L 292.375652 147.20112 
L 293.960688 146.657419 
L 295.469541 145.936556 
L 296.895837 145.060112 
L 298.649134 143.680711 
L 300.237993 142.114292 
L 302.048789 139.991274 
L 304.900329 136.559204 
L 306.518957 135.033284 
L 308.322592 133.713109 
L 310.710845 132.265757 
L 314.183349 130.480878 
L 315.737925 129.863624 
L 317.354505 129.442238 
L 319.021974 129.278442 
L 320.690203 129.400418 
L 322.319986 129.775283 
L 323.883657 130.365038 
L 325.342299 131.182615 
L 327.570938 132.85319 
L 329.40158 134.109008 
L 331.387464 135.213814 
L 336.442276 137.488899 
L 338.595659 138.087181 
L 340.809421 138.42223 
L 342.479723 138.478831 
L 344.144761 138.335961 
L 346.885067 137.816663 
L 361.028554 134.581701 
L 364.790778 133.534921 
L 367.411777 132.581832 
L 369.439576 131.652005 
L 371.380162 130.55228 
L 373.216477 129.258281 
L 374.95964 127.903451 
L 379.332778 125.420508 
L 381.156082 124.131836 
L 383.272964 122.318417 
L 385.22884 120.329652 
L 387.779096 117.371637 
L 397.608949 105.226588 
L 423.833703 72.611593 
L 425.057048 70.745925 
L 425.771071 69.235308 
L 426.094279 68.1719 
L 426.271544 67.07243 
L 426.267376 65.389339 
L 426.066606 64.285048 
L 425.694452 63.239031 
L 425.120252 62.285148 
L 424.416353 61.467122 
L 423.453851 60.862025 
L 422.409609 60.465152 
L 420.768257 60.149419 
L 419.09579 60.11186 
L 417.43234 60.298914 
L 415.260785 60.811433 
L 412.092661 61.88667 
L 398.947289 66.555262 
L 387.787972 70.131516 
L 371.257922 75.229839 
L 361.058136 78.123386 
L 340.574942 83.607913 
L 331.362967 85.87209 
L 317.748901 88.917252 
L 303.564872 91.967008 
L 286.576069 95.225911 
L 272.840659 97.665721 
L 259.068127 99.886525 
L 239.196647 102.83297 
L 225.925875 104.633602 
L 212.069097 106.247721 
L 185.466078 109.30088 
L 183.875443 109.816787 
L 182.387396 110.577005 
L 181.47623 111.226728 
L 180.656183 112.025127 
L 180.054789 112.968974 
L 179.524447 114.516696 
L 179.206491 116.118769 
L 179.223744 117.265992 
L 179.521946 118.916404 
L 180.09946 120.48659 
L 180.907877 121.948173 
L 182.216625 123.754608 
L 184.399351 126.292333 
L 187.138837 129.075857 
L 196.339252 138.018065 
L 198.101155 140.180234 
L 199.363915 142.019649 
L 200.425286 143.979729 
L 201.003788 145.549583 
L 201.330549 147.184276 
L 201.388277 148.870767 
L 201.176643 150.534871 
L 200.79533 152.155511 
L 200.305939 153.154363 
L 199.616394 154.010393 
L 198.403172 155.139894 
L 196.973603 156.053335 
L 195.430973 156.727349 
L 193.816504 157.138645 
L 192.708987 157.224829 
L 191.048429 157.083547 
L 189.427244 156.658831 
L 187.878263 156.028578 
L 186.404047 155.232935 
L 185.018562 154.275027 
L 183.358762 152.785758 
L 182.067487 151.743218 
L 180.379646 150.282225 
L 178.879102 148.626359 
L 177.585072 146.812856 
L 176.171897 144.405256 
L 174.956291 141.90528 
L 173.38507 138.322271 
L 172.501814 136.902018 
L 171.41781 135.6313 
L 169.763339 134.133152 
L 167.532974 132.458902 
L 164.749424 130.602518 
L 163.251128 129.842407 
L 162.195711 129.486193 
L 161.100504 129.31866 
L 159.991303 129.364572 
L 158.900581 129.594008 
L 157.856726 129.985261 
L 156.876621 130.536441 
L 156.010872 131.246298 
L 155.627864 131.737045 
L 154.609192 134.225349 
L 154.419844 135.328994 
L 154.393415 137.016095 
L 154.656844 138.666739 
L 155.197333 140.245241 
L 156.210303 142.231931 
L 157.708298 144.584679 
L 159.71008 147.267763 
L 162.927831 151.123257 
L 166.491143 155.417283 
L 168.439152 158.138973 
L 169.578829 160.057299 
L 170.54601 162.067852 
L 171.515003 164.683597 
L 172.23751 167.378541 
L 172.719198 170.126017 
L 173.092412 174.012353 
L 173.263881 177.353162 
L 173.135876 179.582109 
L 172.863473 181.233523 
L 172.407965 182.843495 
L 171.760518 184.3857 
L 170.946229 185.847246 
L 169.645085 187.66303 
L 167.440837 190.179257 
L 162.951192 195.143968 
L 161.236403 196.575515 
L 159.818122 197.457359 
L 158.290341 198.134951 
L 156.687528 198.603685 
L 154.485985 198.988503 
L 151.705171 199.209662 
L 146.695267 199.486669 
L 144.462722 199.57971 
L 142.235 199.416423 
L 137.829017 198.736494 
L 135.668722 198.1731 
L 134.11345 197.55102 
L 132.132368 196.521358 
L 128.81027 194.474012 
L 125.633254 192.204647 
L 122.130044 189.438745 
L 120.062852 187.56215 
L 118.531956 185.937788 
L 117.171348 184.17315 
L 115.687898 181.809508 
L 111.550692 174.533325 
L 109.010273 170.201426 
L 107.152041 167.417015 
L 105.444757 165.21129 
L 103.932849 163.570976 
L 102.249977 162.108733 
L 100.869468 161.162437 
L 99.400744 160.359598 
L 97.848846 159.718564 
L 95.697896 159.142594 
L 92.989448 158.4883 
L 90.778078 158.208475 
L 88.548609 158.116925 
L 86.315845 158.217815 
L 84.106332 158.536665 
L 81.940459 159.071435 
L 79.302228 159.975917 
L 76.220226 161.282395 
L 44.743864 175.632843 
L 43.346255 176.54537 
L 42.072929 177.634416 
L 40.928788 178.867561 
L 39.618861 180.664665 
L 39.065507 181.626337 
L 38.691754 182.702778 
L 38.57277 184.283914 
L 38.528481 184.865225 
L 38.735335 185.990562 
L 39.349602 187.557615 
L 40.226016 188.96944 
L 41.3493 190.208386 
L 43.054387 191.646325 
L 53.25516 199.435447 
L 59.920368 204.498804 
L 59.920368 204.498804 
" clip-path="url(#pa7bb321ea2)" style="fill: none; stroke: #f53b57; stroke-width: 2; stroke-linecap: square"/>
   </g>
   <g id="line2d_3">
    <path d="M 59.417278 206.076466 
L 159.62537 282.591472 
L 161.782808 283.880118 
L 168.780409 287.268288 
L 171.284861 288.065463 
L 172.791057 288.305907 
L 174.612892 288.243667 
L 176.597344 287.541948 
L 178.320847 286.050653 
L 179.306215 283.898844 
L 179.341285 281.860967 
L 178.687509 279.23526 
L 176.988003 274.073441 
L 173.034682 262.966583 
L 167.777212 248.096146 
L 167.372366 246.310183 
L 167.15968 244.532339 
L 167.150988 242.738101 
L 167.333056 240.894502 
L 167.67936 239.044563 
L 168.174067 237.225751 
L 169.182228 234.56797 
L 170.488067 232.019007 
L 171.486087 230.481187 
L 172.588635 229.153451 
L 173.896854 227.942117 
L 176.248577 226.158847 
L 179.674493 223.865659 
L 193.197637 215.400638 
L 205.030824 208.01169 
L 208.758657 205.453112 
L 210.663112 203.764296 
L 212.322117 201.777873 
L 213.66737 199.676389 
L 214.751833 197.555905 
L 216.043064 194.429982 
L 218.29147 188.595017 
L 219.133748 186.900569 
L 220.063325 185.441321 
L 221.086953 184.264493 
L 222.297095 183.311543 
L 223.812942 182.459342 
L 226.541511 181.321488 
L 230.708932 179.76132 
L 231.849887 179.212331 
L 232.997611 178.531428 
L 235.006742 176.934141 
L 236.798848 175.242032 
L 237.703708 174.196397 
L 238.491917 173.042634 
L 239.131614 171.846656 
L 240.03376 169.415967 
L 240.571667 167.017237 
L 241.018377 163.602761 
L 241.644157 158.530892 
L 242.047847 156.753521 
L 242.622388 155.095397 
L 243.40335 153.480242 
L 244.373225 151.921747 
L 245.504467 150.44978 
L 246.767528 149.091386 
L 248.148789 147.849053 
L 250.432642 146.176445 
L 252.946234 144.705943 
L 255.586894 143.467949 
L 257.359248 142.829349 
L 259.123088 142.371509 
L 260.873787 142.115215 
L 262.643312 142.065224 
L 264.426815 142.215719 
L 266.198335 142.560898 
L 267.933001 143.093932 
L 270.597259 144.256536 
L 276.453211 147.007688 
L 284.344571 150.463404 
L 287.621484 151.735718 
L 289.078138 152.101967 
L 290.798152 152.193092 
L 292.425865 151.904135 
L 294.967998 150.922898 
L 297.143979 149.707473 
L 299.093534 148.347201 
L 301.731552 146.195525 
L 305.005056 143.17863 
L 307.368511 140.722092 
L 308.864939 138.941382 
L 310.252493 137.031132 
L 312.456099 133.766727 
L 313.539939 132.703165 
L 314.793864 131.896276 
L 316.192101 131.369267 
L 317.812469 131.080845 
L 319.579932 131.006968 
L 321.249203 131.153512 
L 322.737827 131.551342 
L 324.130196 132.23092 
L 325.408791 133.172401 
L 326.515587 134.332487 
L 327.420961 135.699319 
L 328.646887 137.84499 
L 329.726204 139.081146 
L 331.048132 140.094143 
L 332.491981 140.821125 
L 333.981405 141.275692 
L 335.459835 141.493551 
L 336.892576 141.516826 
L 339.504851 141.161203 
L 356.186988 137.275932 
L 375.225973 132.86898 
L 376.638523 132.282356 
L 377.952127 131.433764 
L 379.898691 129.601288 
L 382.095472 126.938227 
L 387.383428 120.307261 
L 420.916669 78.777275 
L 425.623512 72.789394 
L 427.518775 70.01587 
L 429.386519 66.909516 
L 429.959268 65.390985 
L 430.195455 63.57256 
L 429.90431 61.637378 
L 428.999626 59.773095 
L 427.390324 58.209269 
L 425.405743 57.438223 
L 423.754276 57.294093 
L 421.124227 57.49417 
L 418.721864 58.007357 
L 415.438766 59.06101 
L 409.445742 61.131398 
L 379.038393 70.893074 
L 361.655917 75.971161 
L 350.409794 79.09206 
L 339.073356 81.962406 
L 316.330564 87.5015 
L 299.671032 91.075966 
L 289.262676 93.157186 
L 276.710652 95.441074 
L 263.073464 97.707749 
L 250.458362 99.595143 
L 237.810585 101.261295 
L 185.964524 107.584166 
L 181.548733 108.058756 
L 180.284298 108.297229 
L 178.769952 108.748249 
L 177.053618 109.78174 
L 175.723087 111.479445 
L 175.088912 113.363648 
L 174.991839 115.301432 
L 175.483712 117.15045 
L 176.248229 118.509983 
L 178.318877 121.317237 
L 183.689983 128.018867 
L 188.198265 133.831782 
L 191.832849 138.95386 
L 195.87006 145.107439 
L 199.005359 150.266067 
L 199.257217 151.109525 
L 199.107941 152.070061 
L 198.78723 152.619519 
L 198.234942 152.904485 
L 197.073379 152.973453 
L 190.635013 152.545119 
L 187.645939 152.426164 
L 185.933635 152.170874 
L 184.607259 151.722297 
L 183.909731 151.207475 
L 183.331106 150.165504 
L 180.116269 142.017871 
L 178.819607 139.822794 
L 177.196582 137.839374 
L 170.021942 130.642996 
L 168.897262 129.886361 
L 167.657477 129.230655 
L 166.345883 128.725111 
L 163.81483 128.136353 
L 159.382273 127.547292 
L 156.881173 127.431704 
L 155.310593 127.546205 
L 153.326123 128.184779 
L 151.531205 129.847361 
L 150.713336 131.899478 
L 150.590697 133.799157 
L 150.898359 135.469752 
L 151.428324 136.858863 
L 153.113989 139.945005 
L 158.020714 148.286365 
L 169.846727 168.24891 
L 170.611969 169.975681 
L 171.182606 171.675912 
L 171.489223 173.284439 
L 171.505528 174.886137 
L 171.262525 176.623513 
L 170.527417 179.396354 
L 168.836359 184.25098 
L 167.700074 186.942969 
L 166.853949 188.428132 
L 165.861171 189.641685 
L 164.658446 190.664128 
L 163.23424 191.501433 
L 160.487548 192.678076 
L 157.42003 194.019627 
L 150.094745 197.440031 
L 148.533548 197.78896 
L 146.855434 197.860514 
L 142.804951 197.581138 
L 140.958683 197.346135 
L 139.204584 196.923857 
L 133.307406 194.995192 
L 131.612966 194.292021 
L 130.027477 193.427313 
L 128.530343 192.395375 
L 127.144737 191.214148 
L 125.888632 189.898433 
L 124.147591 187.614195 
L 119.80353 181.34693 
L 114.652112 174.601769 
L 108.768646 166.910843 
L 103.99698 161.037019 
L 101.795103 158.515654 
L 100.104579 156.803841 
L 99.023232 155.902594 
L 97.690187 155.08728 
L 96.239116 154.521647 
L 94.831487 154.19205 
L 93.465849 154.022201 
L 92.115198 153.983181 
L 89.482649 154.249757 
L 87.036079 154.882426 
L 83.799905 156.131445 
L 78.835661 158.362816 
L 68.200997 163.220891 
L 39.773344 176.046284 
L 38.606092 176.73921 
L 37.450034 177.629543 
L 36.434181 178.680129 
L 35.595891 179.776103 
L 34.784642 181.05721 
L 34.104545 182.884549 
L 34.164731 185.242956 
L 35.17279 187.227123 
L 36.359882 188.432681 
L 42.439024 193.112696 
L 58.569394 205.428736 
L 58.569394 205.428736 
" clip-path="url(#pa7bb321ea2)" style="fill: none; stroke: #05c46b; stroke-linecap: square"/>
   </g>
   <g id="line2d_4">
    <path d="M 63.145449 201.196646 
L 163.838599 278.010456 
L 167.443936 279.842547 
L 171.057269 281.564972 
L 172.60619 282.068297 
L 173.546166 282.212575 
L 173.440041 282.323772 
L 173.296724 282.634756 
L 173.244141 282.593596 
L 172.506254 280.040969 
L 170.485382 274.069432 
L 163.676854 255.004001 
L 161.857166 249.728617 
L 161.322246 247.362782 
L 161.030589 244.914639 
L 161.017303 242.438414 
L 161.254785 240.018985 
L 161.693914 237.67112 
L 162.316235 235.382465 
L 163.112087 233.157384 
L 164.07152 231.001874 
L 165.191498 228.911233 
L 166.526038 226.860438 
L 168.141628 224.918356 
L 169.947328 223.239654 
L 172.69416 221.15105 
L 176.362051 218.694621 
L 189.976919 210.171979 
L 201.682271 202.863963 
L 204.981572 200.611054 
L 206.258675 199.484945 
L 207.351942 198.171037 
L 208.33018 196.638905 
L 209.180094 194.97373 
L 210.300635 192.253651 
L 212.692384 186.072689 
L 213.77462 183.901961 
L 215.12835 181.786472 
L 215.9363 180.777926 
L 216.845979 179.823093 
L 217.848883 178.952759 
L 220.000676 177.526 
L 222.214172 176.436829 
L 225.450704 175.18426 
L 228.223861 174.145599 
L 229.597971 173.417296 
L 230.932378 172.339419 
L 232.339349 171.020092 
L 233.23994 169.860081 
L 233.878409 168.503656 
L 234.344771 166.869858 
L 234.797811 163.990321 
L 235.604291 157.420973 
L 236.138306 155.08342 
L 236.949957 152.742647 
L 238.027292 150.512094 
L 239.327878 148.420836 
L 240.817487 146.481894 
L 242.464353 144.710222 
L 244.236096 143.1159 
L 246.109196 141.688658 
L 248.064159 140.413169 
L 251.123307 138.744374 
L 253.277085 137.777898 
L 255.534957 136.965573 
L 257.894514 136.354657 
L 260.342872 135.997206 
L 262.818064 135.926709 
L 265.275603 136.133658 
L 267.690459 136.60393 
L 270.036511 137.32443 
L 272.229795 138.237096 
L 282.851125 143.134553 
L 288.593609 145.567671 
L 290.036319 146.036178 
L 290.405742 146.064641 
L 291.539932 145.725475 
L 293.089356 144.980042 
L 294.627529 144.004884 
L 296.940715 142.209978 
L 299.976918 139.493583 
L 302.121467 137.357175 
L 304.03401 135.150072 
L 305.15484 133.606831 
L 306.969228 130.83742 
L 307.758056 129.811946 
L 308.679248 128.814561 
L 309.709638 127.903092 
L 310.829073 127.099381 
L 312.029703 126.412543 
L 313.295287 125.856463 
L 314.591308 125.440577 
L 317.170154 124.973527 
L 319.69938 124.867128 
L 322.288978 125.101176 
L 323.602128 125.386803 
L 324.893849 125.801257 
L 326.135046 126.335928 
L 327.31465 126.980095 
L 328.427229 127.725281 
L 329.467585 128.563919 
L 330.430421 129.489257 
L 331.310084 130.49521 
L 332.100331 131.57612 
L 333.927691 134.602372 
L 334.768817 135.117799 
L 335.95033 135.372169 
L 337.403112 135.306417 
L 339.150188 134.931931 
L 343.380024 133.868287 
L 363.157244 129.402716 
L 373.250409 127.054425 
L 373.787385 126.843338 
L 374.783226 126.057804 
L 375.997459 124.736679 
L 385.971831 112.295669 
L 418.788422 71.612931 
L 421.237155 68.361889 
L 423.444692 64.968833 
L 424.012012 63.860612 
L 424.0365 63.448649 
L 423.985259 63.318236 
L 424.13119 63.445504 
L 422.87589 63.467632 
L 421.187322 63.725447 
L 419.396201 64.205112 
L 414.43914 65.936751 
L 406.270949 68.605408 
L 380.798813 76.77634 
L 363.350685 81.873674 
L 351.973819 85.030555 
L 340.549694 87.923306 
L 317.667117 93.495291 
L 300.934141 97.085664 
L 290.412501 99.189583 
L 277.765315 101.490833 
L 264.031366 103.773582 
L 251.314708 105.676145 
L 238.569072 107.355276 
L 187.683772 113.574447 
L 181.688549 114.275521 
L 181.095098 114.405412 
L 181.122471 114.507356 
L 181.141339 114.762321 
L 181.930586 115.920875 
L 185.129957 120.02992 
L 192.477189 129.299611 
L 195.675152 133.708993 
L 199.306883 139.097445 
L 203.343041 145.515674 
L 204.561923 147.651398 
L 205.132191 149.139288 
L 205.392306 150.840097 
L 205.295069 152.505813 
L 204.899324 154.112557 
L 204.146696 155.693076 
L 202.978058 157.108268 
L 201.497729 158.171842 
L 199.877705 158.821684 
L 198.296075 159.090103 
L 195.619621 159.019011 
L 192.509226 158.758243 
L 185.840728 158.395803 
L 184.532809 158.149971 
L 183.17888 157.764806 
L 181.804774 157.186543 
L 180.455678 156.345452 
L 179.251695 155.2093 
L 178.340713 153.908441 
L 177.702155 152.620462 
L 174.652086 144.820481 
L 173.7754 143.325348 
L 172.703698 142.025768 
L 168.293264 137.373176 
L 167.003263 136.09498 
L 165.738065 135.15242 
L 164.447345 134.56527 
L 162.783677 134.190165 
L 158.80161 133.66078 
L 157.015672 133.571233 
L 156.314215 133.549778 
L 156.720707 133.173607 
L 156.800463 133.773561 
L 157.419497 135.089449 
L 161.658436 142.396115 
L 175.367344 165.559172 
L 176.328562 167.732365 
L 177.116156 170.093228 
L 177.599067 172.666603 
L 177.672879 173.99961 
L 177.496673 176.582192 
L 177.023204 178.99426 
L 176.038479 182.302071 
L 174.16369 187.489812 
L 173.205135 189.664405 
L 171.931919 191.881555 
L 171.135106 192.950888 
L 170.239871 193.947366 
L 169.262913 194.855598 
L 168.212889 195.671907 
L 165.98046 196.994172 
L 162.826084 198.356382 
L 159.120246 200.015726 
L 154.194582 202.451705 
L 151.882839 203.314946 
L 150.632531 203.647126 
L 149.325246 203.878715 
L 146.749334 204.0006 
L 143.331334 203.787078 
L 139.870759 203.390002 
L 137.497635 202.822859 
L 131.193417 200.760863 
L 128.96442 199.832518 
L 126.808942 198.657317 
L 124.790439 197.266209 
L 122.927023 195.677643 
L 121.241811 193.913276 
L 119.772893 192.056445 
L 117.288637 188.401481 
L 115.553883 185.902914 
L 101.972499 168.237511 
L 97.960167 163.431271 
L 95.975214 161.349196 
L 94.964897 160.590433 
L 93.759578 160.238777 
L 92.211339 160.123431 
L 90.593845 160.289389 
L 88.926033 160.725369 
L 86.197546 161.785048 
L 81.427272 163.930173 
L 70.709385 168.826236 
L 42.681359 181.455106 
L 41.543978 182.206827 
L 40.624876 183.300479 
L 40.140155 184.017389 
L 40.072709 183.525407 
L 41.093941 184.350537 
L 46.192442 188.252269 
L 62.297125 200.548579 
L 62.297125 200.548579 
" clip-path="url(#pa7bb321ea2)" style="fill: none; stroke: #05c46b; stroke-linecap: square"/>
   </g>
   <g id="patch_3">
    <path d="M 14.3 299.856498 
L 14.3 45.743502 
" style="fill: none; stroke: #000000; stroke-width: 0.8; stroke-linejoin: miter; stroke-linecap: square"/>
   </g>
   <g id="patch_4">
    <path d="M 450 299.856498 
L 450 45.743502 
" style="fill: none; stroke: #000000; stroke-width: 0.8; stroke-linejoin: miter; stroke-linecap: square"/>
   </g>
   <g id="patch_5">
    <path d="M 14.3 299.856498 
L 450 299.856498 
" style="fill: none; stroke: #000000; stroke-width: 0.8; stroke-linejoin: miter; stroke-linecap: square"/>
   </g>
   <g id="patch_6">
    <path d="M 14.3 45.743502 
L 450 45.743502 
" style="fill: none; stroke: #000000; stroke-width: 0.8; stroke-linejoin: miter; stroke-linecap: square"/>
   </g>
   <g id="legend_1">
    <g id="patch_7">
     <path d="M 21.3 97.777877 
L 109.682812 97.777877 
Q 111.682812 97.777877 111.682812 95.777877 
L 111.682812 52.743502 
Q 111.682812 50.743502 109.682812 50.743502 
L 21.3 50.743502 
Q 19.3 50.743502 19.3 52.743502 
L 19.3 95.777877 
Q 19.3 97.777877 21.3 97.777877 
z
" style="fill: #ffffff; opacity: 0.8; stroke: #cccccc; stroke-linejoin: miter"/>
    </g>
    <g id="line2d_5">
     <path d="M 23.3 58.84194 
L 33.3 58.84194 
L 43.3 58.84194 
" style="fill: none; stroke: #575fcf; stroke-width: 2; stroke-linecap: square"/>
    </g>
    <g id="text_1">
     <!-- Track -->
     <g transform="translate(51.3 62.34194)scale(0.1 -0.1)">
      <defs>
       <path id="DejaVuSans-54" d="M -19 4666 
L 3928 4666 
L 3928 4134 
L 2272 4134 
L 2272 0 
L 1638 0 
L 1638 4134 
L -19 4134 
L -19 4666 
z
" transform="scale(0.015625)"/>
       <path id="DejaVuSans-72" d="M 2631 2963 
Q 2534 3019 2420 3045 
Q 2306 3072 2169 3072 
Q 1681 3072 1420 2755 
Q 1159 2438 1159 1844 
L 1159 0 
L 581 0 
L 581 3500 
L 1159 3500 
L 1159 2956 
Q 1341 3275 1631 3429 
Q 1922 3584 2338 3584 
Q 2397 3584 2469 3576 
Q 2541 3569 2628 3553 
L 2631 2963 
z
" transform="scale(0.015625)"/>
       <path id="DejaVuSans-61" d="M 2194 1759 
Q 1497 1759 1228 1600 
Q 959 1441 959 1056 
Q 959 750 1161 570 
Q 1363 391 1709 391 
Q 2188 391 2477 730 
Q 2766 1069 2766 1631 
L 2766 1759 
L 2194 1759 
z
M 3341 1997 
L 3341 0 
L 2766 0 
L 2766 531 
Q 2569 213 2275 61 
Q 1981 -91 1556 -91 
Q 1019 -91 701 211 
Q 384 513 384 1019 
Q 384 1609 779 1909 
Q 1175 2209 1959 2209 
L 2766 2209 
L 2766 2266 
Q 2766 2663 2505 2880 
Q 2244 3097 1772 3097 
Q 1472 3097 1187 3025 
Q 903 2953 641 2809 
L 641 3341 
Q 956 3463 1253 3523 
Q 1550 3584 1831 3584 
Q 2591 3584 2966 3190 
Q 3341 2797 3341 1997 
z
" transform="scale(0.015625)"/>
       <path id="DejaVuSans-63" d="M 3122 3366 
L 3122 2828 
Q 2878 2963 2633 3030 
Q 2388 3097 2138 3097 
Q 1578 3097 1268 2742 
Q 959 2388 959 1747 
Q 959 1106 1268 751 
Q 1578 397 2138 397 
Q 2388 397 2633 464 
Q 2878 531 3122 666 
L 3122 134 
Q 2881 22 2623 -34 
Q 2366 -91 2075 -91 
Q 1284 -91 818 406 
Q 353 903 353 1747 
Q 353 2603 823 3093 
Q 1294 3584 2113 3584 
Q 2378 3584 2631 3529 
Q 2884 3475 3122 3366 
z
" transform="scale(0.015625)"/>
       <path id="DejaVuSans-6b" d="M 581 4863 
L 1159 4863 
L 1159 1991 
L 2875 3500 
L 3609 3500 
L 1753 1863 
L 3688 0 
L 2938 0 
L 1159 1709 
L 1159 0 
L 581 0 
L 581 4863 
z
" transform="scale(0.015625)"/>
      </defs>
      <use xlink:href="#DejaVuSans-54"/>
      <use xlink:href="#DejaVuSans-72" x="46.333984"/>
      <use xlink:href="#DejaVuSans-61" x="87.447266"/>
      <use xlink:href="#DejaVuSans-63" x="148.726562"/>
      <use xlink:href="#DejaVuSans-6b" x="203.707031"/>
     </g>
    </g>
    <g id="line2d_6">
     <path d="M 23.3 73.520065 
L 33.3 73.520065 
L 43.3 73.520065 
" style="fill: none; stroke: #f53b57; stroke-width: 2; stroke-linecap: square"/>
    </g>
    <g id="text_2">
     <!-- Raceline -->
     <g transform="translate(51.3 77.020065)scale(0.1 -0.1)">
      <defs>
       <path id="DejaVuSans-52" d="M 2841 2188 
Q 3044 2119 3236 1894 
Q 3428 1669 3622 1275 
L 4263 0 
L 3584 0 
L 2988 1197 
Q 2756 1666 2539 1819 
Q 2322 1972 1947 1972 
L 1259 1972 
L 1259 0 
L 628 0 
L 628 4666 
L 2053 4666 
Q 2853 4666 3247 4331 
Q 3641 3997 3641 3322 
Q 3641 2881 3436 2590 
Q 3231 2300 2841 2188 
z
M 1259 4147 
L 1259 2491 
L 2053 2491 
Q 2509 2491 2742 2702 
Q 2975 2913 2975 3322 
Q 2975 3731 2742 3939 
Q 2509 4147 2053 4147 
L 1259 4147 
z
" transform="scale(0.015625)"/>
       <path id="DejaVuSans-65" d="M 3597 1894 
L 3597 1613 
L 953 1613 
Q 991 1019 1311 708 
Q 1631 397 2203 397 
Q 2534 397 2845 478 
Q 3156 559 3463 722 
L 3463 178 
Q 3153 47 2828 -22 
Q 2503 -91 2169 -91 
Q 1331 -91 842 396 
Q 353 884 353 1716 
Q 353 2575 817 3079 
Q 1281 3584 2069 3584 
Q 2775 3584 3186 3129 
Q 3597 2675 3597 1894 
z
M 3022 2063 
Q 3016 2534 2758 2815 
Q 2500 3097 2075 3097 
Q 1594 3097 1305 2825 
Q 1016 2553 972 2059 
L 3022 2063 
z
" transform="scale(0.015625)"/>
       <path id="DejaVuSans-6c" d="M 603 4863 
L 1178 4863 
L 1178 0 
L 603 0 
L 603 4863 
z
" transform="scale(0.015625)"/>
       <path id="DejaVuSans-69" d="M 603 3500 
L 1178 3500 
L 1178 0 
L 603 0 
L 603 3500 
z
M 603 4863 
L 1178 4863 
L 1178 4134 
L 603 4134 
L 603 4863 
z
" transform="scale(0.015625)"/>
       <path id="DejaVuSans-6e" d="M 3513 2113 
L 3513 0 
L 2938 0 
L 2938 2094 
Q 2938 2591 2744 2837 
Q 2550 3084 2163 3084 
Q 1697 3084 1428 2787 
Q 1159 2491 1159 1978 
L 1159 0 
L 581 0 
L 581 3500 
L 1159 3500 
L 1159 2956 
Q 1366 3272 1645 3428 
Q 1925 3584 2291 3584 
Q 2894 3584 3203 3211 
Q 3513 2838 3513 2113 
z
" transform="scale(0.015625)"/>
      </defs>
      <use xlink:href="#DejaVuSans-52"/>
      <use xlink:href="#DejaVuSans-61" x="67.232422"/>
      <use xlink:href="#DejaVuSans-63" x="128.511719"/>
      <use xlink:href="#DejaVuSans-65" x="183.492188"/>
      <use xlink:href="#DejaVuSans-6c" x="245.015625"/>
      <use xlink:href="#DejaVuSans-69" x="272.798828"/>
      <use xlink:href="#DejaVuSans-6e" x="300.582031"/>
      <use xlink:href="#DejaVuSans-65" x="363.960938"/>
     </g>
    </g>
    <g id="line2d_7">
     <path d="M 23.3 88.19819 
L 33.3 88.19819 
L 43.3 88.19819 
" style="fill: none; stroke: #05c46b; stroke-linecap: square"/>
    </g>
    <g id="text_3">
     <!-- Boundaries -->
     <g transform="translate(51.3 91.69819)scale(0.1 -0.1)">
      <defs>
       <path id="DejaVuSans-42" d="M 1259 2228 
L 1259 519 
L 2272 519 
Q 2781 519 3026 730 
Q 3272 941 3272 1375 
Q 3272 1813 3026 2020 
Q 2781 2228 2272 2228 
L 1259 2228 
z
M 1259 4147 
L 1259 2741 
L 2194 2741 
Q 2656 2741 2882 2914 
Q 3109 3088 3109 3444 
Q 3109 3797 2882 3972 
Q 2656 4147 2194 4147 
L 1259 4147 
z
M 628 4666 
L 2241 4666 
Q 2963 4666 3353 4366 
Q 3744 4066 3744 3513 
Q 3744 3084 3544 2831 
Q 3344 2578 2956 2516 
Q 3422 2416 3680 2098 
Q 3938 1781 3938 1306 
Q 3938 681 3513 340 
Q 3088 0 2303 0 
L 628 0 
L 628 4666 
z
" transform="scale(0.015625)"/>
       <path id="DejaVuSans-6f" d="M 1959 3097 
Q 1497 3097 1228 2736 
Q 959 2375 959 1747 
Q 959 1119 1226 758 
Q 1494 397 1959 397 
Q 2419 397 2687 759 
Q 2956 1122 2956 1747 
Q 2956 2369 2687 2733 
Q 2419 3097 1959 3097 
z
M 1959 3584 
Q 2709 3584 3137 3096 
Q 3566 2609 3566 1747 
Q 3566 888 3137 398 
Q 2709 -91 1959 -91 
Q 1206 -91 779 398 
Q 353 888 353 1747 
Q 353 2609 779 3096 
Q 1206 3584 1959 3584 
z
" transform="scale(0.015625)"/>
       <path id="DejaVuSans-75" d="M 544 1381 
L 544 3500 
L 1119 3500 
L 1119 1403 
Q 1119 906 1312 657 
Q 1506 409 1894 409 
Q 2359 409 2629 706 
Q 2900 1003 2900 1516 
L 2900 3500 
L 3475 3500 
L 3475 0 
L 2900 0 
L 2900 538 
Q 2691 219 2414 64 
Q 2138 -91 1772 -91 
Q 1169 -91 856 284 
Q 544 659 544 1381 
z
M 1991 3584 
L 1991 3584 
z
" transform="scale(0.015625)"/>
       <path id="DejaVuSans-64" d="M 2906 2969 
L 2906 4863 
L 3481 4863 
L 3481 0 
L 2906 0 
L 2906 525 
Q 2725 213 2448 61 
Q 2172 -91 1784 -91 
Q 1150 -91 751 415 
Q 353 922 353 1747 
Q 353 2572 751 3078 
Q 1150 3584 1784 3584 
Q 2172 3584 2448 3432 
Q 2725 3281 2906 2969 
z
M 947 1747 
Q 947 1113 1208 752 
Q 1469 391 1925 391 
Q 2381 391 2643 752 
Q 2906 1113 2906 1747 
Q 2906 2381 2643 2742 
Q 2381 3103 1925 3103 
Q 1469 3103 1208 2742 
Q 947 2381 947 1747 
z
" transform="scale(0.015625)"/>
       <path id="DejaVuSans-73" d="M 2834 3397 
L 2834 2853 
Q 2591 2978 2328 3040 
Q 2066 3103 1784 3103 
Q 1356 3103 1142 2972 
Q 928 2841 928 2578 
Q 928 2378 1081 2264 
Q 1234 2150 1697 2047 
L 1894 2003 
Q 2506 1872 2764 1633 
Q 3022 1394 3022 966 
Q 3022 478 2636 193 
Q 2250 -91 1575 -91 
Q 1294 -91 989 -36 
Q 684 19 347 128 
L 347 722 
Q 666 556 975 473 
Q 1284 391 1588 391 
Q 1994 391 2212 530 
Q 2431 669 2431 922 
Q 2431 1156 2273 1281 
Q 2116 1406 1581 1522 
L 1381 1569 
Q 847 1681 609 1914 
Q 372 2147 372 2553 
Q 372 3047 722 3315 
Q 1072 3584 1716 3584 
Q 2034 3584 2315 3537 
Q 2597 3491 2834 3397 
z
" transform="scale(0.015625)"/>
      </defs>
      <use xlink:href="#DejaVuSans-42"/>
      <use xlink:href="#DejaVuSans-6f" x="68.603516"/>
      <use xlink:href="#DejaVuSans-75" x="129.785156"/>
      <use xlink:href="#DejaVuSans-6e" x="193.164062"/>
      <use xlink:href="#DejaVuSans-64" x="256.542969"/>
      <use xlink:href="#DejaVuSans-61" x="320.019531"/>
      <use xlink:href="#DejaVuSans-72" x="381.298828"/>
      <use xlink:href="#DejaVuSans-69" x="422.412109"/>
      <use xlink:href="#DejaVuSans-65" x="450.195312"/>
      <use xlink:href="#DejaVuSans-73" x="511.71875"/>
     </g>
    </g>
   </g>
  </g>
 </g>
 <defs>
  <clipPath id="pa7bb321ea2">
   <rect x="14.3" y="45.743502" width="435.7" height="254.112996"/>
  </clipPath>
 </defs>
</svg>
