<?xml version="1.0" encoding="utf-8" standalone="no"?>
<!DOCTYPE svg PUBLIC "-//W3C//DTD SVG 1.1//EN"
  "http://www.w3.org/Graphics/SVG/1.1/DTD/svg11.dtd">
<svg xmlns:xlink="http://www.w3.org/1999/xlink" width="460.8pt" height="345.6pt" viewBox="0 0 460.8 345.6" xmlns="http://www.w3.org/2000/svg" version="1.1">
 <metadata>
  <rdf:RDF xmlns:dc="http://purl.org/dc/elements/1.1/" xmlns:cc="http://creativecommons.org/ns#" xmlns:rdf="http://www.w3.org/1999/02/22-rdf-syntax-ns#">
   <cc:Work>
    <dc:type rdf:resource="http://purl.org/dc/dcmitype/StillImage"/>
    <dc:date>2024-03-14T16:32:53.910788</dc:date>
    <dc:format>image/svg+xml</dc:format>
    <dc:creator>
     <cc:Agent>
      <dc:title>Matplotlib v3.5.2, https://matplotlib.org/</dc:title>
     </cc:Agent>
    </dc:creator>
   </cc:Work>
  </rdf:RDF>
 </metadata>
 <defs>
  <style type="text/css">*{stroke-linejoin: round; stroke-linecap: butt}</style>
 </defs>
 <g id="figure_1">
  <g id="patch_1">
   <path d="M 0 345.6 
L 460.8 345.6 
L 460.8 0 
L 0 0 
z
" style="fill: #ffffff"/>
  </g>
  <g id="axes_1">
   <g id="patch_2">
    <path d="M 14.3 311.65101 
L 450 311.65101 
L 450 33.94899 
L 14.3 33.94899 
z
" style="fill: #ffffff"/>
   </g>
   <g id="matplotlib.axis_1"/>
   <g id="matplotlib.axis_2"/>
   <g id="line2d_1">
    <path d="M 333.334752 259.429752 
L 202.296034 294.689489 
L 200.77963 294.7852 
L 199.395632 294.398292 
L 198.169473 293.56926 
L 197.103411 292.437821 
L 196.199493 291.143921 
L 194.766234 288.415374 
L 193.426288 285.662307 
L 191.936485 282.969247 
L 189.460897 279.051279 
L 186.781443 275.276175 
L 178.597288 264.091955 
L 166.133417 246.484803 
L 148.285125 221.358296 
L 145.806792 217.461887 
L 142.740484 212.117582 
L 136.158079 199.906341 
L 131.220753 190.317375 
L 126.495243 180.62202 
L 120.632482 168.050675 
L 105.116805 134.476206 
L 103.628995 131.77291 
L 101.986717 129.170179 
L 96.782225 121.527093 
L 94.204278 117.677205 
L 91.423818 113.991338 
L 88.448155 110.464725 
L 84.274607 105.93213 
L 72.475377 93.751023 
L 56.313847 77.227289 
L 41.11413 61.930428 
L 40.128869 60.730006 
L 39.24205 59.451604 
L 38.60019 58.078396 
L 38.367245 56.594293 
L 38.683699 55.05191 
L 39.569307 53.857323 
L 40.956663 53.379876 
L 45.632165 52.969924 
L 53.245071 51.931917 
L 57.841913 51.369581 
L 62.450772 51.027193 
L 68.607996 50.848797 
L 79.395826 50.87577 
L 96.340427 50.961047 
L 100.949057 51.316292 
L 108.616844 52.09093 
L 113.221249 52.528954 
L 116.269778 52.979116 
L 125.345258 54.749355 
L 185.831623 66.645576 
L 196.440032 68.582772 
L 204.056798 69.751215 
L 211.709354 70.669177 
L 219.378755 71.339827 
L 227.066313 71.795248 
L 240.931218 72.330758 
L 256.324135 72.999973 
L 274.799933 73.797683 
L 277.864849 73.941887 
L 279.390884 74.157393 
L 280.898429 74.539392 
L 282.329329 75.125601 
L 283.615631 75.950547 
L 284.691922 77.037598 
L 285.509034 78.338727 
L 286.024201 79.777772 
L 286.195047 81.278661 
L 286.023346 82.783993 
L 285.595902 84.272331 
L 284.342362 87.133275 
L 282.836861 89.82168 
L 281.153865 92.385606 
L 278.429141 96.107616 
L 275.543209 99.729077 
L 272.468061 103.187902 
L 270.295011 105.368801 
L 268.011118 107.425467 
L 265.605685 109.337123 
L 263.071662 111.08669 
L 260.427139 112.6826 
L 256.315922 114.830326 
L 252.099118 116.715622 
L 249.22685 117.791303 
L 246.294179 118.684032 
L 243.297047 119.377354 
L 238.721717 120.145618 
L 232.58895 120.937681 
L 229.530803 121.19433 
L 226.474472 121.239253 
L 223.41679 121.008141 
L 218.825074 120.348741 
L 214.225184 119.715182 
L 203.522131 118.536068 
L 198.979388 117.687469 
L 177.847998 113.385899 
L 173.266262 112.647456 
L 170.179215 112.341674 
L 167.099711 112.296207 
L 164.059181 112.609518 
L 161.091154 113.341432 
L 158.233797 114.466351 
L 155.5259 115.94724 
L 153.008512 117.748375 
L 150.739275 119.84363 
L 148.783219 122.211154 
L 147.942954 123.49019 
L 147.20283 124.827818 
L 146.022188 127.651116 
L 145.235888 130.623665 
L 144.837771 133.687705 
L 144.821678 136.785475 
L 145.181451 139.859215 
L 145.910931 142.851163 
L 146.994041 145.71299 
L 148.340944 148.466508 
L 157.231477 164.699686 
L 163.465723 175.320153 
L 167.271547 182.042944 
L 169.578566 186.060002 
L 171.278507 188.614232 
L 173.199902 190.99491 
L 175.368845 193.147509 
L 177.787545 195.021741 
L 180.455378 196.567645 
L 183.329281 197.740083 
L 186.332477 198.497753 
L 187.858277 198.708176 
L 189.387327 198.799594 
L 192.432619 198.638817 
L 195.445076 198.087763 
L 198.406754 197.229902 
L 201.290849 196.128315 
L 202.676084 195.461332 
L 204.002366 194.68918 
L 205.256181 193.797477 
L 206.434165 192.8 
L 208.561599 190.572655 
L 210.441688 188.14952 
L 214.978692 181.914957 
L 217.043013 179.617993 
L 219.310807 177.570208 
L 224.166104 173.786002 
L 227.954621 171.072812 
L 230.590019 169.464089 
L 233.330958 168.08366 
L 236.165276 166.921406 
L 239.077104 165.957916 
L 242.050571 165.173783 
L 245.069807 164.549596 
L 249.649765 163.870757 
L 254.252416 163.435118 
L 261.939662 162.980343 
L 277.333211 162.289709 
L 283.497207 162.216697 
L 309.693471 162.321714 
L 326.643043 161.989692 
L 392.879066 160.405657 
L 395.932929 160.708206 
L 398.94769 161.384011 
L 401.84826 162.452738 
L 403.229769 163.136715 
L 404.551585 163.921642 
L 405.803456 164.808234 
L 406.978104 165.792729 
L 408.07125 166.866856 
L 409.078746 168.022146 
L 409.996444 169.250132 
L 410.820195 170.542345 
L 412.17418 173.285523 
L 413.202686 176.18279 
L 414.850491 182.160268 
L 416.619039 188.061593 
L 419.302843 196.896625 
L 425.740436 219.138482 
L 425.932548 220.64561 
L 425.817187 222.116574 
L 425.316203 223.525848 
L 424.504283 224.852481 
L 423.485652 226.076405 
L 422.362683 227.178681 
L 419.984787 229.081753 
L 416.206564 231.674684 
L 412.268006 234.137306 
L 408.239087 236.418286 
L 401.406936 239.938212 
L 397.215665 241.932411 
L 394.327588 242.980474 
L 388.411349 244.65066 
L 334.823136 259.029621 
L 334.823136 259.029621 
" clip-path="url(#pbe882b6edc)" style="fill: none; stroke: #575fcf; stroke-width: 2; stroke-linecap: square"/>
   </g>
   <g id="line2d_2">
    <path d="M 333.112452 261.587931 
L 250.783907 283.687365 
L 211.126667 294.342398 
L 208.814046 294.606028 
L 206.514268 294.607428 
L 204.985524 294.38041 
L 203.444974 293.974828 
L 201.996409 293.418282 
L 200.010041 292.357517 
L 198.557597 291.78844 
L 197.168646 291.05601 
L 195.235907 289.739354 
L 193.456899 288.228139 
L 191.874527 286.540755 
L 190.502994 284.66609 
L 188.500266 281.350554 
L 184.369251 273.894375 
L 181.66319 269.192618 
L 178.759347 264.611308 
L 173.121202 256.262878 
L 160.501767 237.667956 
L 155.92218 230.478634 
L 151.955187 223.821231 
L 139.256667 201.62826 
L 135.396289 194.028316 
L 118.107287 159.355053 
L 113.993844 151.889202 
L 110.435479 145.891468 
L 107.059782 140.691429 
L 101.0622 131.65213 
L 96.614176 124.383217 
L 93.850506 120.643283 
L 81.02195 104.119731 
L 77.447784 100.039433 
L 73.176462 95.546775 
L 68.19521 90.665645 
L 61.379366 84.339688 
L 48.854384 72.774534 
L 44.996024 68.961795 
L 43.463211 67.217164 
L 42.135198 65.309919 
L 41.410173 63.942242 
L 40.828546 62.507875 
L 40.408438 61.01517 
L 40.182229 59.460269 
L 40.208952 57.889701 
L 40.801865 55.006728 
L 41.218056 54.25324 
L 42.329501 53.163025 
L 43.610807 52.23216 
L 44.960516 51.504473 
L 46.402635 50.959572 
L 48.661877 50.440202 
L 51.734861 50.037639 
L 57.913306 49.516517 
L 67.966681 48.8743 
L 74.163831 48.716975 
L 78.81179 48.80571 
L 83.450647 49.111397 
L 88.84144 49.712335 
L 110.324471 52.730954 
L 115.677002 53.600299 
L 130.274926 55.519635 
L 139.449737 57.034655 
L 151.642879 59.283919 
L 176.780286 63.980358 
L 185.967714 65.416576 
L 195.954953 66.737167 
L 209.812306 68.330078 
L 219.8412 69.280994 
L 231.432774 70.146215 
L 241.492828 70.676226 
L 251.562488 70.9753 
L 267.829881 71.424265 
L 270.917753 71.673686 
L 273.20451 72.085049 
L 275.416037 72.778197 
L 277.538738 73.741439 
L 279.534648 74.946136 
L 280.766553 75.897317 
L 281.883601 76.976983 
L 282.86675 78.151917 
L 283.689514 79.459234 
L 284.286761 80.87185 
L 284.750273 82.349376 
L 285.020939 83.880274 
L 285.099485 85.435022 
L 284.995441 86.985387 
L 284.72546 88.510627 
L 284.053401 90.732438 
L 283.10973 92.857106 
L 281.946675 94.866719 
L 280.60548 96.764202 
L 278.603567 99.129101 
L 276.405696 101.314333 
L 274.050925 103.330026 
L 271.571778 105.190785 
L 268.339069 107.325896 
L 264.320695 109.663392 
L 260.188916 111.793491 
L 256.647322 113.364287 
L 253.012103 114.703667 
L 248.562238 116.04974 
L 242.562843 117.604478 
L 238.768448 118.389378 
L 235.698104 118.817594 
L 232.605218 119.032151 
L 226.408993 119.139404 
L 218.66096 119.236644 
L 215.569754 119.010619 
L 212.508626 118.528227 
L 207.971193 117.509778 
L 201.173197 115.96268 
L 187.497355 113.214615 
L 183.660478 112.688979 
L 180.569812 112.458546 
L 177.470804 112.413132 
L 174.374763 112.571002 
L 171.295438 112.942674 
L 168.247953 113.516495 
L 164.498065 114.476757 
L 161.546182 115.416473 
L 159.38961 116.282413 
L 157.317137 117.333608 
L 155.359091 118.586613 
L 153.546653 120.041803 
L 151.907071 121.689143 
L 150.468756 123.512367 
L 149.258302 125.494831 
L 148.301241 127.611147 
L 147.600007 129.827015 
L 147.144268 132.10548 
L 146.906926 134.417375 
L 146.865117 137.515732 
L 147.049183 140.609064 
L 147.564337 145.22825 
L 148.216838 149.049251 
L 148.947372 152.063758 
L 149.91847 155.004413 
L 151.141644 157.850865 
L 152.905945 161.299741 
L 156.329396 167.376789 
L 161.458764 176.046856 
L 163.593215 179.278819 
L 165.478594 181.73659 
L 167.537314 184.055842 
L 169.733623 186.244947 
L 172.639349 188.810552 
L 175.694929 191.189691 
L 178.26233 192.923954 
L 180.958341 194.447542 
L 183.08353 195.389516 
L 185.29713 196.095434 
L 187.580652 196.531644 
L 189.894937 196.708071 
L 192.219222 196.654686 
L 194.522465 196.363271 
L 196.782608 195.818926 
L 198.963207 195.010611 
L 201.04326 193.963081 
L 204.349701 191.96604 
L 208.228391 189.402963 
L 211.989442 186.658496 
L 215.615252 183.743163 
L 219.068463 180.636743 
L 223.028173 176.932009 
L 225.486596 175.043515 
L 228.080315 173.345305 
L 231.444397 171.425525 
L 235.581706 169.307116 
L 239.812183 167.38083 
L 244.131698 165.661329 
L 248.532565 164.160562 
L 253.003613 162.884301 
L 257.537294 161.853559 
L 261.357426 161.209181 
L 265.205985 160.765801 
L 269.844759 160.457862 
L 275.267354 160.327232 
L 297.740467 160.250837 
L 314.013928 160.193283 
L 331.060089 159.910048 
L 352.749733 159.300873 
L 375.990002 158.700378 
L 380.63906 158.709013 
L 383.731573 158.902195 
L 386.799775 159.336784 
L 389.82759 160.001466 
L 392.806705 160.857457 
L 396.458122 162.159911 
L 399.30346 163.386906 
L 402.038966 164.839842 
L 403.982774 166.11232 
L 405.799272 167.559155 
L 407.486018 169.158767 
L 409.576923 171.444711 
L 412.015257 174.450619 
L 413.809361 176.982978 
L 415.424541 179.633934 
L 416.807966 182.404491 
L 417.938984 185.287116 
L 419.363637 189.712011 
L 423.297002 203.09589 
L 424.90761 209.080626 
L 425.301103 211.36998 
L 425.462372 213.68389 
L 425.355987 216.010188 
L 424.953382 218.311667 
L 424.503705 219.821477 
L 423.209883 223.391092 
L 422.415353 225.603593 
L 421.380366 227.68866 
L 420.138058 229.654763 
L 418.694118 231.475616 
L 417.056914 233.122876 
L 415.262955 234.600365 
L 413.3535 235.925445 
L 410.688602 237.507948 
L 407.239757 239.273237 
L 403.68051 240.80085 
L 400.024743 242.079899 
L 395.625791 243.591143 
L 386.188353 247.108845 
L 381.012093 248.730029 
L 373.545805 250.80443 
L 334.609861 261.188062 
L 334.609861 261.188062 
" clip-path="url(#pbe882b6edc)" style="fill: none; stroke: #f53b57; stroke-width: 2; stroke-linecap: square"/>
   </g>
   <g id="line2d_3">
    <path d="M 332.227734 255.311627 
L 201.196357 290.532825 
L 200.941159 290.32855 
L 200.413417 289.749271 
L 199.809451 288.873977 
L 198.609115 286.56694 
L 197.211999 283.699443 
L 195.615314 280.812709 
L 192.996296 276.666872 
L 190.21423 272.746272 
L 182.087969 261.64255 
L 169.601776 244.00389 
L 151.835017 218.99552 
L 149.455574 215.254891 
L 146.47322 210.055757 
L 139.929559 197.916272 
L 135.034013 188.408582 
L 130.345504 178.789008 
L 124.507379 166.270334 
L 108.896659 132.502086 
L 107.307528 129.615866 
L 105.519583 126.78202 
L 100.354612 119.198468 
L 97.688687 115.218886 
L 94.750626 111.323607 
L 91.646674 107.644456 
L 87.364125 102.992858 
L 75.536187 90.781867 
L 59.338989 74.221802 
L 44.345209 59.147521 
L 42.936405 57.321773 
L 42.629945 56.711911 
L 42.588055 56.766681 
L 41.79763 57.560452 
L 44.500299 57.375774 
L 49.249097 56.806418 
L 58.26328 55.613034 
L 62.672273 55.285758 
L 68.65318 55.11288 
L 79.381789 55.140069 
L 96.150934 55.221156 
L 100.496231 55.556504 
L 108.25952 56.340255 
L 112.709485 56.762456 
L 115.543296 57.181099 
L 124.515338 58.932138 
L 185.026896 70.833279 
L 195.731443 72.78781 
L 203.478759 73.976178 
L 211.271275 74.910937 
L 219.070746 75.593011 
L 226.861798 76.054663 
L 240.775389 76.592232 
L 256.11785 77.259302 
L 274.688852 78.060558 
L 277.425438 78.183509 
L 279.563924 78.589521 
L 280.363936 78.91 
L 280.933018 79.265366 
L 281.350378 79.686849 
L 281.673978 80.203341 
L 281.871437 80.746791 
L 281.930726 81.277448 
L 281.841945 81.947138 
L 281.56434 82.882742 
L 280.532955 85.216803 
L 279.198836 87.596996 
L 277.649871 89.955283 
L 275.037902 93.522283 
L 272.274709 96.990217 
L 269.375173 100.252177 
L 266.314015 103.245119 
L 264.171115 105.06227 
L 261.931428 106.723129 
L 259.558119 108.251643 
L 255.768225 110.342769 
L 251.816331 112.208268 
L 249.174342 113.280838 
L 246.526853 114.183075 
L 243.841787 114.899124 
L 239.587801 115.703876 
L 233.601842 116.526427 
L 229.304468 116.936019 
L 226.604545 116.976916 
L 223.891566 116.770332 
L 219.477669 116.13465 
L 214.695138 115.476835 
L 204.204609 114.326714 
L 199.829438 113.50873 
L 178.620707 109.19217 
L 173.814202 108.418484 
L 170.438357 108.085233 
L 166.930486 108.035244 
L 165.135504 108.16006 
L 163.330104 108.407984 
L 161.542764 108.783743 
L 159.792208 109.279759 
L 158.084088 109.889185 
L 156.422847 110.605664 
L 153.257396 112.336377 
L 150.319651 114.438622 
L 148.94598 115.627561 
L 147.646515 116.907768 
L 146.430591 118.278628 
L 145.308332 119.739393 
L 144.292738 121.285566 
L 143.398023 122.902231 
L 142.628649 124.572011 
L 141.98271 126.284712 
L 141.457599 128.03185 
L 141.050781 129.805544 
L 140.759916 131.598405 
L 140.582936 133.403415 
L 140.563981 137.023085 
L 140.98414 140.612224 
L 141.357403 142.379136 
L 141.83911 144.117935 
L 143.089748 147.427906 
L 144.568177 150.454138 
L 153.527812 166.813287 
L 159.010777 176.154628 
L 162.794257 182.752234 
L 165.951108 188.301874 
L 167.831867 191.125231 
L 170.029705 193.846978 
L 172.550642 196.347849 
L 173.93487 197.493323 
L 175.402954 198.557016 
L 176.953197 199.528396 
L 178.576661 200.395812 
L 180.260523 201.151528 
L 181.996311 201.790718 
L 183.776423 202.308104 
L 185.593285 202.69752 
L 187.438974 202.951833 
L 189.296563 203.06295 
L 191.137778 203.031598 
L 192.944292 202.87233 
L 196.436917 202.235135 
L 199.760939 201.273493 
L 203.021832 200.025511 
L 204.675242 199.228003 
L 206.313459 198.272933 
L 207.872306 197.165018 
L 209.307982 195.950495 
L 210.619399 194.663524 
L 212.893396 191.992942 
L 215.70278 188.085635 
L 218.272627 184.623175 
L 220.065287 182.626365 
L 222.030581 180.854607 
L 226.73953 177.186285 
L 230.302431 174.63262 
L 232.663738 173.19023 
L 235.096596 171.965279 
L 237.640963 170.922255 
L 240.287146 170.046955 
L 243.022338 169.325904 
L 247.259679 168.503086 
L 251.613603 167.945535 
L 257.579757 167.488194 
L 272.896065 166.721749 
L 280.466001 166.48955 
L 288.050196 166.537513 
L 300.450984 166.651015 
L 314.389171 166.516276 
L 334.455428 166.058734 
L 376.025699 165.09711 
L 385.386298 164.832066 
L 391.308454 164.629769 
L 393.987712 164.758064 
L 396.516627 165.158504 
L 398.943124 165.870161 
L 401.193814 166.883624 
L 403.199491 168.185186 
L 404.967616 169.791218 
L 406.4882 171.674316 
L 407.721965 173.777725 
L 408.701842 176.145836 
L 409.535803 178.829117 
L 412.087607 187.850593 
L 415.634429 199.560207 
L 421.669641 220.755473 
L 421.647271 221.224249 
L 421.471636 221.680922 
L 421.039875 222.366054 
L 420.348411 223.188126 
L 418.527835 224.838659 
L 415.100637 227.288739 
L 411.359221 229.702499 
L 407.514932 231.953584 
L 402.221012 234.747476 
L 395.574834 237.996409 
L 393.034118 238.917055 
L 387.302449 240.533041 
L 333.715945 254.911542 
L 333.715945 254.911542 
" clip-path="url(#pbe882b6edc)" style="fill: none; stroke: #05c46b; stroke-linecap: square"/>
   </g>
   <g id="line2d_4">
    <path d="M 334.441771 263.547877 
L 202.961935 298.901498 
L 200.353638 299.028191 
L 197.594907 298.263759 
L 195.397788 296.80997 
L 193.793405 295.126372 
L 192.589535 293.413865 
L 190.923353 290.263807 
L 188.968346 286.371995 
L 186.733093 282.656983 
L 184.231596 279.014894 
L 171.571985 261.500238 
L 159.078327 243.957381 
L 145.621731 225.035967 
L 142.997959 221.0352 
L 140.546725 216.92369 
L 136.776543 210.090901 
L 130.229179 197.768631 
L 125.340813 188.046679 
L 120.003978 176.848563 
L 110.982119 157.216739 
L 101.336951 136.450325 
L 99.223562 132.731605 
L 96.731749 129.113282 
L 94.055529 125.156187 
L 90.719869 120.135525 
L 88.097009 116.659069 
L 85.249637 113.284995 
L 81.185089 108.871401 
L 69.414568 96.72018 
L 53.288705 80.232777 
L 37.883051 64.713335 
L 36.725971 63.299974 
L 35.547694 61.581435 
L 34.522693 59.326778 
L 34.104545 56.476674 
L 34.779342 53.337138 
L 37.042441 50.422299 
L 40.115697 49.1993 
L 46.608876 48.555112 
L 59.028314 46.980812 
L 63.821426 46.696508 
L 70.131169 46.573775 
L 94.918086 46.644538 
L 99.790869 46.914742 
L 115.371996 48.513866 
L 120.119173 49.367861 
L 192.6511 63.587612 
L 201.639191 65.095965 
L 209.139331 66.096803 
L 216.667047 66.850407 
L 224.229147 67.377849 
L 234.922731 67.849421 
L 254.989068 68.666367 
L 274.911014 69.534808 
L 278.30426 69.700264 
L 280.214969 69.973456 
L 282.232934 70.489264 
L 284.294722 71.341203 
L 286.298244 72.635727 
L 288.033466 74.388348 
L 289.344091 76.474114 
L 290.176964 78.808753 
L 290.459369 81.279873 
L 290.204747 83.620848 
L 289.627463 85.66192 
L 288.151769 89.049747 
L 286.474885 92.046364 
L 284.657858 94.815929 
L 281.820379 98.692948 
L 278.811709 102.467936 
L 275.560949 106.123628 
L 273.23614 108.45655 
L 270.768814 110.678091 
L 268.145677 112.762454 
L 265.381075 114.671527 
L 262.532102 116.391181 
L 258.173758 118.66867 
L 253.702731 120.666934 
L 250.601864 121.827859 
L 247.393292 122.804273 
L 244.138541 123.557824 
L 239.331279 124.366148 
L 233.042632 125.1778 
L 229.757138 125.452641 
L 226.344399 125.501591 
L 222.942015 125.245951 
L 218.172478 124.562832 
L 213.755231 123.953529 
L 202.839653 122.745423 
L 198.129338 121.866208 
L 175.613799 117.319305 
L 171.303421 116.711746 
L 168.573603 116.544092 
L 166.00971 116.643781 
L 163.584751 117.064327 
L 161.208346 117.824976 
L 158.904825 118.906002 
L 156.721564 120.277737 
L 154.731645 121.893648 
L 153.005474 123.710817 
L 151.59317 125.694814 
L 150.497014 127.86239 
L 149.702662 130.212837 
L 149.217468 132.697312 
L 149.046621 135.258136 
L 149.190375 137.833216 
L 149.643322 140.35891 
L 150.400114 142.789484 
L 151.472795 145.226195 
L 153.546467 149.07668 
L 157.29152 155.934678 
L 160.935142 162.586086 
L 167.147317 173.168338 
L 171.003785 179.980217 
L 173.206024 183.818129 
L 174.725147 186.103233 
L 176.370099 188.142841 
L 178.187048 189.94717 
L 180.172137 191.486466 
L 182.334095 192.739477 
L 184.66225 193.689449 
L 187.071669 194.297987 
L 189.47809 194.536238 
L 191.920946 194.405304 
L 194.453235 193.940391 
L 197.052569 193.186312 
L 199.559866 192.231119 
L 201.691272 191.105426 
L 203.560349 189.649504 
L 205.312564 187.810732 
L 206.994887 185.638742 
L 211.684758 179.20674 
L 214.020739 176.609621 
L 216.591034 174.28581 
L 221.592677 170.38572 
L 225.606812 167.513004 
L 228.516301 165.737947 
L 231.56532 164.202041 
L 234.689589 162.920557 
L 237.867061 161.868877 
L 241.078804 161.021662 
L 244.307702 160.353927 
L 249.148154 159.63604 
L 253.931348 159.1829 
L 261.718543 158.721758 
L 277.211781 158.027116 
L 283.517695 157.952424 
L 309.639683 158.057731 
L 326.539107 157.726637 
L 393.086211 156.146369 
L 396.601692 156.496651 
L 398.382157 156.83639 
L 400.148913 157.292373 
L 401.891755 157.867452 
L 403.600899 158.565233 
L 405.265724 159.389805 
L 406.874246 160.345374 
L 408.407422 161.431282 
L 409.844303 162.635301 
L 411.174885 163.942493 
L 412.395975 165.342513 
L 413.504688 166.825949 
L 414.497973 168.384015 
L 415.369746 170.002911 
L 416.739085 173.29268 
L 417.741856 176.505656 
L 420.237622 185.337622 
L 423.829291 197.19758 
L 429.932378 218.356137 
L 430.195455 220.535748 
L 429.987103 223.008899 
L 429.160769 225.370773 
L 427.968691 227.338908 
L 426.622894 228.964685 
L 425.236304 230.329355 
L 422.504387 232.52211 
L 418.543604 235.241572 
L 414.450091 237.80104 
L 410.264355 240.170982 
L 403.323881 243.747381 
L 398.856495 245.868414 
L 395.621058 247.043894 
L 389.520249 248.768279 
L 335.930327 263.147699 
L 335.930327 263.147699 
" clip-path="url(#pbe882b6edc)" style="fill: none; stroke: #05c46b; stroke-linecap: square"/>
   </g>
   <g id="patch_3">
    <path d="M 14.3 311.65101 
L 14.3 33.94899 
" style="fill: none; stroke: #000000; stroke-width: 0.8; stroke-linejoin: miter; stroke-linecap: square"/>
   </g>
   <g id="patch_4">
    <path d="M 450 311.65101 
L 450 33.94899 
" style="fill: none; stroke: #000000; stroke-width: 0.8; stroke-linejoin: miter; stroke-linecap: square"/>
   </g>
   <g id="patch_5">
    <path d="M 14.3 311.65101 
L 450 311.65101 
" style="fill: none; stroke: #000000; stroke-width: 0.8; stroke-linejoin: miter; stroke-linecap: square"/>
   </g>
   <g id="patch_6">
    <path d="M 14.3 33.94899 
L 450 33.94899 
" style="fill: none; stroke: #000000; stroke-width: 0.8; stroke-linejoin: miter; stroke-linecap: square"/>
   </g>
   <g id="legend_1">
    <g id="patch_7">
     <path d="M 354.617188 85.983365 
L 443 85.983365 
Q 445 85.983365 445 83.983365 
L 445 40.94899 
Q 445 38.94899 443 38.94899 
L 354.617188 38.94899 
Q 352.617188 38.94899 352.617188 40.94899 
L 352.617188 83.983365 
Q 352.617188 85.983365 354.617188 85.983365 
z
" style="fill: #ffffff; opacity: 0.8; stroke: #cccccc; stroke-linejoin: miter"/>
    </g>
    <g id="line2d_5">
     <path d="M 356.617188 47.047428 
L 366.617188 47.047428 
L 376.617188 47.047428 
" style="fill: none; stroke: #575fcf; stroke-width: 2; stroke-linecap: square"/>
    </g>
    <g id="text_1">
     <!-- Track -->
     <g transform="translate(384.617188 50.547428)scale(0.1 -0.1)">
      <defs>
       <path id="DejaVuSans-54" d="M -19 4666 
L 3928 4666 
L 3928 4134 
L 2272 4134 
L 2272 0 
L 1638 0 
L 1638 4134 
L -19 4134 
L -19 4666 
z
" transform="scale(0.015625)"/>
       <path id="DejaVuSans-72" d="M 2631 2963 
Q 2534 3019 2420 3045 
Q 2306 3072 2169 3072 
Q 1681 3072 1420 2755 
Q 1159 2438 1159 1844 
L 1159 0 
L 581 0 
L 581 3500 
L 1159 3500 
L 1159 2956 
Q 1341 3275 1631 3429 
Q 1922 3584 2338 3584 
Q 2397 3584 2469 3576 
Q 2541 3569 2628 3553 
L 2631 2963 
z
" transform="scale(0.015625)"/>
       <path id="DejaVuSans-61" d="M 2194 1759 
Q 1497 1759 1228 1600 
Q 959 1441 959 1056 
Q 959 750 1161 570 
Q 1363 391 1709 391 
Q 2188 391 2477 730 
Q 2766 1069 2766 1631 
L 2766 1759 
L 2194 1759 
z
M 3341 1997 
L 3341 0 
L 2766 0 
L 2766 531 
Q 2569 213 2275 61 
Q 1981 -91 1556 -91 
Q 1019 -91 701 211 
Q 384 513 384 1019 
Q 384 1609 779 1909 
Q 1175 2209 1959 2209 
L 2766 2209 
L 2766 2266 
Q 2766 2663 2505 2880 
Q 2244 3097 1772 3097 
Q 1472 3097 1187 3025 
Q 903 2953 641 2809 
L 641 3341 
Q 956 3463 1253 3523 
Q 1550 3584 1831 3584 
Q 2591 3584 2966 3190 
Q 3341 2797 3341 1997 
z
" transform="scale(0.015625)"/>
       <path id="DejaVuSans-63" d="M 3122 3366 
L 3122 2828 
Q 2878 2963 2633 3030 
Q 2388 3097 2138 3097 
Q 1578 3097 1268 2742 
Q 959 2388 959 1747 
Q 959 1106 1268 751 
Q 1578 397 2138 397 
Q 2388 397 2633 464 
Q 2878 531 3122 666 
L 3122 134 
Q 2881 22 2623 -34 
Q 2366 -91 2075 -91 
Q 1284 -91 818 406 
Q 353 903 353 1747 
Q 353 2603 823 3093 
Q 1294 3584 2113 3584 
Q 2378 3584 2631 3529 
Q 2884 3475 3122 3366 
z
" transform="scale(0.015625)"/>
       <path id="DejaVuSans-6b" d="M 581 4863 
L 1159 4863 
L 1159 1991 
L 2875 3500 
L 3609 3500 
L 1753 1863 
L 3688 0 
L 2938 0 
L 1159 1709 
L 1159 0 
L 581 0 
L 581 4863 
z
" transform="scale(0.015625)"/>
      </defs>
      <use xlink:href="#DejaVuSans-54"/>
      <use xlink:href="#DejaVuSans-72" x="46.333984"/>
      <use xlink:href="#DejaVuSans-61" x="87.447266"/>
      <use xlink:href="#DejaVuSans-63" x="148.726562"/>
      <use xlink:href="#DejaVuSans-6b" x="203.707031"/>
     </g>
    </g>
    <g id="line2d_6">
     <path d="M 356.617188 61.725553 
L 366.617188 61.725553 
L 376.617188 61.725553 
" style="fill: none; stroke: #f53b57; stroke-width: 2; stroke-linecap: square"/>
    </g>
    <g id="text_2">
     <!-- Raceline -->
     <g transform="translate(384.617188 65.225553)scale(0.1 -0.1)">
      <defs>
       <path id="DejaVuSans-52" d="M 2841 2188 
Q 3044 2119 3236 1894 
Q 3428 1669 3622 1275 
L 4263 0 
L 3584 0 
L 2988 1197 
Q 2756 1666 2539 1819 
Q 2322 1972 1947 1972 
L 1259 1972 
L 1259 0 
L 628 0 
L 628 4666 
L 2053 4666 
Q 2853 4666 3247 4331 
Q 3641 3997 3641 3322 
Q 3641 2881 3436 2590 
Q 3231 2300 2841 2188 
z
M 1259 4147 
L 1259 2491 
L 2053 2491 
Q 2509 2491 2742 2702 
Q 2975 2913 2975 3322 
Q 2975 3731 2742 3939 
Q 2509 4147 2053 4147 
L 1259 4147 
z
" transform="scale(0.015625)"/>
       <path id="DejaVuSans-65" d="M 3597 1894 
L 3597 1613 
L 953 1613 
Q 991 1019 1311 708 
Q 1631 397 2203 397 
Q 2534 397 2845 478 
Q 3156 559 3463 722 
L 3463 178 
Q 3153 47 2828 -22 
Q 2503 -91 2169 -91 
Q 1331 -91 842 396 
Q 353 884 353 1716 
Q 353 2575 817 3079 
Q 1281 3584 2069 3584 
Q 2775 3584 3186 3129 
Q 3597 2675 3597 1894 
z
M 3022 2063 
Q 3016 2534 2758 2815 
Q 2500 3097 2075 3097 
Q 1594 3097 1305 2825 
Q 1016 2553 972 2059 
L 3022 2063 
z
" transform="scale(0.015625)"/>
       <path id="DejaVuSans-6c" d="M 603 4863 
L 1178 4863 
L 1178 0 
L 603 0 
L 603 4863 
z
" transform="scale(0.015625)"/>
       <path id="DejaVuSans-69" d="M 603 3500 
L 1178 3500 
L 1178 0 
L 603 0 
L 603 3500 
z
M 603 4863 
L 1178 4863 
L 1178 4134 
L 603 4134 
L 603 4863 
z
" transform="scale(0.015625)"/>
       <path id="DejaVuSans-6e" d="M 3513 2113 
L 3513 0 
L 2938 0 
L 2938 2094 
Q 2938 2591 2744 2837 
Q 2550 3084 2163 3084 
Q 1697 3084 1428 2787 
Q 1159 2491 1159 1978 
L 1159 0 
L 581 0 
L 581 3500 
L 1159 3500 
L 1159 2956 
Q 1366 3272 1645 3428 
Q 1925 3584 2291 3584 
Q 2894 3584 3203 3211 
Q 3513 2838 3513 2113 
z
" transform="scale(0.015625)"/>
      </defs>
      <use xlink:href="#DejaVuSans-52"/>
      <use xlink:href="#DejaVuSans-61" x="67.232422"/>
      <use xlink:href="#DejaVuSans-63" x="128.511719"/>
      <use xlink:href="#DejaVuSans-65" x="183.492188"/>
      <use xlink:href="#DejaVuSans-6c" x="245.015625"/>
      <use xlink:href="#DejaVuSans-69" x="272.798828"/>
      <use xlink:href="#DejaVuSans-6e" x="300.582031"/>
      <use xlink:href="#DejaVuSans-65" x="363.960938"/>
     </g>
    </g>
    <g id="line2d_7">
     <path d="M 356.617188 76.403678 
L 366.617188 76.403678 
L 376.617188 76.403678 
" style="fill: none; stroke: #05c46b; stroke-linecap: square"/>
    </g>
    <g id="text_3">
     <!-- Boundaries -->
     <g transform="translate(384.617188 79.903678)scale(0.1 -0.1)">
      <defs>
       <path id="DejaVuSans-42" d="M 1259 2228 
L 1259 519 
L 2272 519 
Q 2781 519 3026 730 
Q 3272 941 3272 1375 
Q 3272 1813 3026 2020 
Q 2781 2228 2272 2228 
L 1259 2228 
z
M 1259 4147 
L 1259 2741 
L 2194 2741 
Q 2656 2741 2882 2914 
Q 3109 3088 3109 3444 
Q 3109 3797 2882 3972 
Q 2656 4147 2194 4147 
L 1259 4147 
z
M 628 4666 
L 2241 4666 
Q 2963 4666 3353 4366 
Q 3744 4066 3744 3513 
Q 3744 3084 3544 2831 
Q 3344 2578 2956 2516 
Q 3422 2416 3680 2098 
Q 3938 1781 3938 1306 
Q 3938 681 3513 340 
Q 3088 0 2303 0 
L 628 0 
L 628 4666 
z
" transform="scale(0.015625)"/>
       <path id="DejaVuSans-6f" d="M 1959 3097 
Q 1497 3097 1228 2736 
Q 959 2375 959 1747 
Q 959 1119 1226 758 
Q 1494 397 1959 397 
Q 2419 397 2687 759 
Q 2956 1122 2956 1747 
Q 2956 2369 2687 2733 
Q 2419 3097 1959 3097 
z
M 1959 3584 
Q 2709 3584 3137 3096 
Q 3566 2609 3566 1747 
Q 3566 888 3137 398 
Q 2709 -91 1959 -91 
Q 1206 -91 779 398 
Q 353 888 353 1747 
Q 353 2609 779 3096 
Q 1206 3584 1959 3584 
z
" transform="scale(0.015625)"/>
       <path id="DejaVuSans-75" d="M 544 1381 
L 544 3500 
L 1119 3500 
L 1119 1403 
Q 1119 906 1312 657 
Q 1506 409 1894 409 
Q 2359 409 2629 706 
Q 2900 1003 2900 1516 
L 2900 3500 
L 3475 3500 
L 3475 0 
L 2900 0 
L 2900 538 
Q 2691 219 2414 64 
Q 2138 -91 1772 -91 
Q 1169 -91 856 284 
Q 544 659 544 1381 
z
M 1991 3584 
L 1991 3584 
z
" transform="scale(0.015625)"/>
       <path id="DejaVuSans-64" d="M 2906 2969 
L 2906 4863 
L 3481 4863 
L 3481 0 
L 2906 0 
L 2906 525 
Q 2725 213 2448 61 
Q 2172 -91 1784 -91 
Q 1150 -91 751 415 
Q 353 922 353 1747 
Q 353 2572 751 3078 
Q 1150 3584 1784 3584 
Q 2172 3584 2448 3432 
Q 2725 3281 2906 2969 
z
M 947 1747 
Q 947 1113 1208 752 
Q 1469 391 1925 391 
Q 2381 391 2643 752 
Q 2906 1113 2906 1747 
Q 2906 2381 2643 2742 
Q 2381 3103 1925 3103 
Q 1469 3103 1208 2742 
Q 947 2381 947 1747 
z
" transform="scale(0.015625)"/>
       <path id="DejaVuSans-73" d="M 2834 3397 
L 2834 2853 
Q 2591 2978 2328 3040 
Q 2066 3103 1784 3103 
Q 1356 3103 1142 2972 
Q 928 2841 928 2578 
Q 928 2378 1081 2264 
Q 1234 2150 1697 2047 
L 1894 2003 
Q 2506 1872 2764 1633 
Q 3022 1394 3022 966 
Q 3022 478 2636 193 
Q 2250 -91 1575 -91 
Q 1294 -91 989 -36 
Q 684 19 347 128 
L 347 722 
Q 666 556 975 473 
Q 1284 391 1588 391 
Q 1994 391 2212 530 
Q 2431 669 2431 922 
Q 2431 1156 2273 1281 
Q 2116 1406 1581 1522 
L 1381 1569 
Q 847 1681 609 1914 
Q 372 2147 372 2553 
Q 372 3047 722 3315 
Q 1072 3584 1716 3584 
Q 2034 3584 2315 3537 
Q 2597 3491 2834 3397 
z
" transform="scale(0.015625)"/>
      </defs>
      <use xlink:href="#DejaVuSans-42"/>
      <use xlink:href="#DejaVuSans-6f" x="68.603516"/>
      <use xlink:href="#DejaVuSans-75" x="129.785156"/>
      <use xlink:href="#DejaVuSans-6e" x="193.164062"/>
      <use xlink:href="#DejaVuSans-64" x="256.542969"/>
      <use xlink:href="#DejaVuSans-61" x="320.019531"/>
      <use xlink:href="#DejaVuSans-72" x="381.298828"/>
      <use xlink:href="#DejaVuSans-69" x="422.412109"/>
      <use xlink:href="#DejaVuSans-65" x="450.195312"/>
      <use xlink:href="#DejaVuSans-73" x="511.71875"/>
     </g>
    </g>
   </g>
  </g>
 </g>
 <defs>
  <clipPath id="pbe882b6edc">
   <rect x="14.3" y="33.94899" width="435.7" height="277.702019"/>
  </clipPath>
 </defs>
</svg>
