<?xml version="1.0" encoding="utf-8" standalone="no"?>
<!DOCTYPE svg PUBLIC "-//W3C//DTD SVG 1.1//EN"
  "http://www.w3.org/Graphics/SVG/1.1/DTD/svg11.dtd">
<svg xmlns:xlink="http://www.w3.org/1999/xlink" width="460.8pt" height="345.6pt" viewBox="0 0 460.8 345.6" xmlns="http://www.w3.org/2000/svg" version="1.1">
 <metadata>
  <rdf:RDF xmlns:dc="http://purl.org/dc/elements/1.1/" xmlns:cc="http://creativecommons.org/ns#" xmlns:rdf="http://www.w3.org/1999/02/22-rdf-syntax-ns#">
   <cc:Work>
    <dc:type rdf:resource="http://purl.org/dc/dcmitype/StillImage"/>
    <dc:date>2024-03-12T22:16:54.900983</dc:date>
    <dc:format>image/svg+xml</dc:format>
    <dc:creator>
     <cc:Agent>
      <dc:title>Matplotlib v3.5.2, https://matplotlib.org/</dc:title>
     </cc:Agent>
    </dc:creator>
   </cc:Work>
  </rdf:RDF>
 </metadata>
 <defs>
  <style type="text/css">*{stroke-linejoin: round; stroke-linecap: butt}</style>
 </defs>
 <g id="figure_1">
  <g id="patch_1">
   <path d="M 0 345.6 
L 460.8 345.6 
L 460.8 0 
L 0 0 
z
" style="fill: #ffffff"/>
  </g>
  <g id="axes_1">
   <g id="patch_2">
    <path d="M 40.459399 331.3 
L 420.340601 331.3 
L 420.340601 10.8 
L 40.459399 10.8 
z
" style="fill: #ffffff"/>
   </g>
   <g id="matplotlib.axis_1"/>
   <g id="matplotlib.axis_2"/>
   <g id="line2d_1">
    <path d="M 170.05342 38.132809 
L 291.518148 38.172977 
L 294.208312 38.369687 
L 296.862728 38.83906 
L 299.366151 39.819618 
L 301.40167 41.565747 
L 302.643033 43.95252 
L 303.538523 46.492753 
L 306.588351 56.848173 
L 308.468925 61.908139 
L 311.574019 69.386625 
L 320.086856 89.231142 
L 322.982388 96.793154 
L 325.58027 104.462407 
L 327.876244 112.227442 
L 329.896672 120.068824 
L 331.708539 127.961204 
L 335.041947 143.810024 
L 337.921926 156.995309 
L 345.746108 191.201182 
L 349.074035 207.050699 
L 350.398019 212.28404 
L 351.966954 217.448878 
L 353.842318 222.510351 
L 355.992347 227.461744 
L 358.345659 232.320086 
L 362.105289 239.49201 
L 368.449517 251.404126 
L 372.063723 258.650393 
L 376.806526 268.349673 
L 385.552413 285.089172 
L 387.777378 289.99656 
L 388.422558 292.607431 
L 388.674026 295.286794 
L 388.027653 297.891003 
L 386.542639 300.13263 
L 384.492987 301.874635 
L 381.981573 302.829454 
L 379.2966 303.044363 
L 376.611438 302.787197 
L 373.948865 302.372302 
L 366.058029 300.570042 
L 360.787893 299.401123 
L 347.556957 296.741068 
L 342.333866 295.379409 
L 337.209976 293.683142 
L 332.193964 291.688461 
L 324.794002 288.400482 
L 280.627693 268.151351 
L 268.311563 262.632175 
L 260.855343 259.473545 
L 253.320901 256.506474 
L 243.18413 252.789 
L 215.177665 242.927214 
L 199.858434 237.672144 
L 189.586005 234.347721 
L 181.870478 231.889894 
L 176.792506 230.064429 
L 174.341332 228.941897 
L 172.043938 227.533649 
L 170.057029 225.716947 
L 168.478172 223.537024 
L 167.574434 221.002311 
L 167.333831 218.321399 
L 167.742448 215.658877 
L 168.651712 213.11979 
L 170.061111 210.822392 
L 171.801734 208.762827 
L 173.789972 206.939404 
L 175.921454 205.284893 
L 178.155309 203.770353 
L 182.776505 200.980239 
L 187.512894 198.391293 
L 189.947122 197.225318 
L 192.429031 196.164664 
L 194.95776 195.221062 
L 197.527353 194.3953 
L 200.134386 193.696645 
L 202.772746 193.127668 
L 205.436335 192.691786 
L 208.118175 192.387644 
L 210.811889 192.218491 
L 213.510642 192.183754 
L 216.207744 192.284279 
L 218.896361 192.521048 
L 221.571077 192.882727 
L 226.864848 193.934517 
L 232.075206 195.344575 
L 237.206399 197.021054 
L 242.262657 198.911911 
L 247.252416 200.97214 
L 252.180992 203.174795 
L 259.468701 206.704556 
L 273.954635 213.94443 
L 276.437565 215.00278 
L 278.972633 215.928843 
L 281.563625 216.683972 
L 284.203502 217.244289 
L 286.880192 217.587543 
L 289.576694 217.691733 
L 292.269792 217.524201 
L 294.927039 217.055307 
L 297.518088 216.301205 
L 300.017298 215.284072 
L 302.394683 214.007719 
L 304.617387 212.478642 
L 306.650305 210.704595 
L 308.471685 208.714045 
L 310.088376 206.553307 
L 311.466444 204.233197 
L 312.54162 201.756639 
L 313.221736 199.141283 
L 313.559709 196.46384 
L 313.651625 193.766857 
L 313.510022 191.071658 
L 313.169334 188.394414 
L 312.653872 185.745121 
L 311.295152 180.521253 
L 307.621866 167.534897 
L 305.717211 159.664742 
L 303.303511 149.141707 
L 302.563231 146.546072 
L 301.689046 143.992398 
L 300.632075 141.509167 
L 299.316671 139.153112 
L 297.725659 136.973699 
L 295.89058 134.995583 
L 293.836521 133.246399 
L 291.580473 131.766546 
L 289.155515 130.583811 
L 286.599722 129.718541 
L 283.959066 129.164047 
L 281.272346 128.913798 
L 278.574342 128.952247 
L 275.894722 129.269385 
L 273.260267 129.853464 
L 270.694094 130.687783 
L 268.210611 131.743592 
L 265.826696 133.008378 
L 263.547507 134.453776 
L 259.166815 137.607978 
L 254.79546 140.775622 
L 250.28508 143.740534 
L 247.946459 145.087806 
L 245.544737 146.318808 
L 243.073171 147.402999 
L 240.536986 148.325805 
L 237.948683 149.090363 
L 235.319603 149.700441 
L 232.659642 150.157541 
L 229.978168 150.464397 
L 227.283609 150.618815 
L 224.584662 150.615402 
L 221.890562 150.455021 
L 219.207395 150.16355 
L 213.888187 149.248164 
L 208.627809 148.036222 
L 153.679834 134.114711 
L 119.663504 125.498613 
L 90.848829 118.334713 
L 85.583905 117.144018 
L 82.997813 116.372084 
L 80.493558 115.368765 
L 78.160877 114.017089 
L 76.067308 112.320276 
L 74.294423 110.291501 
L 72.952961 107.95364 
L 72.001361 105.430164 
L 71.338185 102.815086 
L 70.887469 100.15473 
L 70.590946 97.472164 
L 70.348962 92.07998 
L 70.377111 86.681759 
L 70.570823 75.886677 
L 70.411713 67.790937 
L 70.218844 62.396053 
L 70.327993 57.001271 
L 70.591067 54.317351 
L 71.314391 51.722122 
L 72.615417 49.363925 
L 74.400992 47.346579 
L 76.580632 45.761609 
L 79.021783 44.617567 
L 81.581059 43.766258 
L 84.204016 43.132075 
L 102.728574 39.426073 
L 107.970038 38.15069 
L 164.654865 38.136289 
L 164.654865 38.136289 
" clip-path="url(#p7dcd330e60)" style="fill: none; stroke: #575fcf; stroke-width: 2; stroke-linecap: square"/>
   </g>
   <g id="line2d_2">
    <path d="M 175.430852 32.123014 
L 221.138626 32.153577 
L 253.402896 32.156626 
L 258.775862 32.364318 
L 264.12888 32.864445 
L 266.787561 33.262621 
L 269.426237 33.775103 
L 272.038319 34.409067 
L 277.1807 35.994217 
L 284.733692 38.818042 
L 289.658464 40.970154 
L 292.01789 42.26211 
L 294.284401 43.723558 
L 300.873984 48.340942 
L 302.890361 50.125001 
L 306.645576 53.962659 
L 310.21062 57.993953 
L 313.471541 62.27462 
L 316.35176 66.81197 
L 318.89656 71.547624 
L 321.190601 76.410806 
L 324.336629 83.837815 
L 327.221566 91.369968 
L 328.98344 96.450369 
L 330.595439 101.579859 
L 332.750393 109.352415 
L 334.68138 117.183902 
L 337.02657 127.679767 
L 339.155022 138.221682 
L 341.01978 148.812941 
L 343.436359 164.763103 
L 345.174164 175.376627 
L 346.740211 183.288833 
L 347.979594 188.521194 
L 349.407614 193.7052 
L 351.035991 198.829871 
L 352.835712 203.897044 
L 355.767635 211.411443 
L 359.905508 221.337507 
L 363.175164 228.710281 
L 366.601981 236.012108 
L 370.214946 243.223991 
L 374.018257 250.337406 
L 380.47153 262.132272 
L 381.646411 264.547914 
L 382.700303 267.014942 
L 383.597842 269.547936 
L 384.348854 272.132202 
L 384.951731 274.755989 
L 385.407308 277.408671 
L 385.734135 280.076286 
L 385.915434 282.757417 
L 385.889103 285.44509 
L 385.529005 288.110697 
L 384.834458 290.713318 
L 383.82718 293.216119 
L 382.449868 295.515974 
L 380.732504 297.55374 
L 378.773945 299.353981 
L 376.555338 300.887962 
L 374.155091 302.111999 
L 371.63603 303.065488 
L 369.042455 303.763801 
L 366.395563 304.261016 
L 363.721941 304.628668 
L 361.039879 304.788804 
L 358.355542 304.733942 
L 355.683185 304.469299 
L 353.032044 304.028744 
L 347.800462 302.790838 
L 342.649554 301.244568 
L 335.000215 298.683951 
L 327.430126 295.8993 
L 319.983091 292.802562 
L 312.646939 289.451581 
L 298.091173 282.495902 
L 283.501106 275.613077 
L 273.669398 271.254009 
L 263.738466 267.126069 
L 246.235691 260.20735 
L 236.176842 256.401482 
L 226.045727 252.79259 
L 213.301145 248.514437 
L 198.009182 243.378291 
L 195.508661 242.390731 
L 193.058509 241.284882 
L 190.673192 240.046633 
L 188.353538 238.688005 
L 186.094256 237.226889 
L 183.897346 235.673471 
L 181.789074 234.006043 
L 179.811641 232.188918 
L 178.050817 230.154881 
L 176.50785 227.943064 
L 175.239318 225.575911 
L 174.214376 223.100679 
L 173.595816 220.484628 
L 173.412184 217.817634 
L 173.848446 215.160871 
L 174.744307 212.635582 
L 175.990218 210.260952 
L 177.548202 208.069056 
L 179.368088 206.089482 
L 181.394562 204.323624 
L 183.600798 202.784706 
L 185.954085 201.483665 
L 188.415897 200.404105 
L 190.954044 199.521005 
L 193.546017 198.81294 
L 196.176746 198.260828 
L 198.834536 197.853781 
L 201.508755 197.575937 
L 204.191309 197.418754 
L 209.565742 197.438619 
L 214.924851 197.868553 
L 220.242238 198.667986 
L 225.498147 199.804271 
L 230.680753 201.238339 
L 235.783951 202.934447 
L 253.480164 209.33427 
L 258.624081 210.90587 
L 263.826195 212.265175 
L 269.106988 213.272471 
L 271.775128 213.609637 
L 274.456665 213.827561 
L 279.833347 213.926547 
L 282.518231 213.809448 
L 285.194328 213.563104 
L 287.852555 213.163934 
L 290.477421 212.588362 
L 293.053933 211.825172 
L 295.559146 210.841904 
L 297.956667 209.621974 
L 300.222028 208.184338 
L 302.332398 206.529327 
L 304.273161 204.670719 
L 306.043911 202.64453 
L 307.653443 200.491418 
L 309.138471 198.253801 
L 310.467464 195.914566 
L 311.598972 193.475941 
L 312.564436 190.966645 
L 313.368563 188.400502 
L 314.022292 185.792407 
L 314.51575 183.149664 
L 314.843598 180.480453 
L 314.988014 177.796064 
L 314.940068 175.109305 
L 314.709157 172.431753 
L 314.311702 169.77289 
L 313.767001 167.14005 
L 313.084412 164.539592 
L 312.268312 161.977423 
L 311.310244 159.465813 
L 310.199218 157.018995 
L 308.92942 154.650679 
L 307.502549 152.371863 
L 305.92901 150.190736 
L 304.215025 148.117508 
L 302.369612 146.158581 
L 300.402599 144.319539 
L 298.33031 142.603538 
L 296.186967 140.990049 
L 293.966798 139.480276 
L 291.636548 138.131413 
L 289.193701 136.996445 
L 286.672136 136.08133 
L 284.096289 135.338732 
L 281.474679 134.774042 
L 278.811108 134.414715 
L 276.124293 134.272188 
L 273.43551 134.323451 
L 268.087927 134.830877 
L 262.766223 135.630621 
L 257.499754 136.743471 
L 252.31859 138.180183 
L 244.648793 140.675254 
L 239.528182 142.317816 
L 234.350659 143.757927 
L 229.09409 144.894853 
L 221.139512 146.204342 
L 215.80655 146.89731 
L 210.451685 147.394846 
L 205.080496 147.654781 
L 199.703249 147.653196 
L 194.332431 147.402203 
L 186.294302 146.728436 
L 180.954081 146.09288 
L 175.640386 145.272842 
L 170.357737 144.270242 
L 162.48517 142.515998 
L 146.82732 138.632947 
L 123.377009 132.662486 
L 118.20292 131.199523 
L 113.097555 129.515371 
L 108.109846 127.513048 
L 103.276799 125.154054 
L 98.580726 122.521653 
L 93.983831 119.742928 
L 91.730205 118.277879 
L 89.561541 116.679774 
L 85.477836 113.17655 
L 81.644828 109.417734 
L 78.032725 105.448809 
L 76.275532 103.415521 
L 74.632999 101.279956 
L 73.136144 99.043928 
L 71.79877 96.710823 
L 70.622395 94.292947 
L 69.625178 91.79645 
L 68.80472 89.236571 
L 68.162929 86.626037 
L 67.699347 83.977807 
L 67.410172 81.304815 
L 67.305385 78.618992 
L 67.406866 75.933205 
L 67.718703 73.262345 
L 68.20274 70.617587 
L 68.837158 68.00565 
L 69.649494 65.442853 
L 70.640502 62.945025 
L 71.810407 60.525937 
L 73.199897 58.214845 
L 74.830113 56.063705 
L 78.361855 52.029055 
L 82.192931 48.274182 
L 84.252179 46.537949 
L 86.399243 44.918233 
L 88.64019 43.433883 
L 90.957053 42.070031 
L 95.76531 39.669068 
L 100.740282 37.625818 
L 103.292585 36.775874 
L 111.08985 34.717071 
L 116.363692 33.679895 
L 121.6857 32.91649 
L 127.040206 32.428412 
L 132.411849 32.187475 
L 140.477315 32.102295 
L 170.0531 32.111392 
L 170.0531 32.111392 
" clip-path="url(#p7dcd330e60)" style="fill: none; stroke: #f53b57; stroke-width: 2; stroke-linecap: square"/>
   </g>
   <g id="line2d_3">
    <path d="M 170.059872 50.237995 
L 205.130977 50.248081 
L 207.829395 50.923564 
L 259.160283 50.9262 
L 261.862104 50.246921 
L 288.566386 50.180341 
L 290.826911 50.931965 
L 292.628081 51.049294 
L 293.34779 51.342741 
L 292.353828 51.492585 
L 290.968227 49.838185 
L 290.936609 49.02962 
L 291.765746 50.270198 
L 293.241168 55.07488 
L 294.678467 60.847799 
L 295.929459 63.689046 
L 297.377337 66.265837 
L 298.254996 69.004173 
L 299.429088 71.580323 
L 301.136257 76.890095 
L 302.429143 79.294288 
L 303.492725 81.76421 
L 304.866046 84.074224 
L 305.606193 86.627287 
L 308.632348 93.836503 
L 312.215186 103.37569 
L 312.822295 105.847175 
L 314.022454 108.123657 
L 314.971626 110.491267 
L 317.053603 117.867328 
L 317.439691 120.42322 
L 319.596986 130.622443 
L 319.99714 133.235512 
L 322.072772 140.986039 
L 324.040022 151.709698 
L 325.099995 154.296957 
L 325.698255 156.979023 
L 326.104401 159.703438 
L 327.289271 165.038671 
L 328.9432 172.989876 
L 329.561441 175.603808 
L 330.013254 178.24315 
L 330.899451 180.773249 
L 331.582194 183.34257 
L 332.634596 188.516547 
L 333.188128 191.098707 
L 333.6045 193.721752 
L 334.143655 196.332979 
L 335.150879 198.861739 
L 335.69169 201.525699 
L 336.048143 204.274711 
L 338.44438 215.58289 
L 341.085 224.358986 
L 342.126749 227.242881 
L 343.563513 229.916174 
L 346.037182 235.283004 
L 347.061583 238.005246 
L 348.899953 240.265465 
L 349.925188 242.893251 
L 356.273125 254.754195 
L 357.332902 257.140535 
L 358.653157 259.366039 
L 359.806281 261.68272 
L 360.695232 264.164812 
L 361.852588 266.565567 
L 363.582944 268.765035 
L 364.533605 271.427181 
L 365.832659 274.005586 
L 366.922244 276.694036 
L 368.474602 278.950791 
L 370.94334 283.613694 
L 372.434918 285.791473 
L 374.253914 290.583373 
L 375.199526 292.737427 
L 375.224691 294.228693 
L 374.769441 294.921515 
L 374.274778 294.210563 
L 373.138385 291.342123 
L 373.658581 288.700641 
L 376.687782 288.673903 
L 378.852092 288.927091 
L 379.40362 289.444102 
L 378.239631 289.831315 
L 376.298221 289.79445 
L 371.499982 289.138243 
L 368.937928 288.508612 
L 357.781044 286.458059 
L 355.241742 285.686612 
L 348.030556 284.226152 
L 343.613464 282.927334 
L 341.262425 282.659526 
L 339.25222 281.243356 
L 337.104356 280.046319 
L 334.684392 279.295413 
L 332.320133 278.262541 
L 330.057757 276.913781 
L 327.60181 275.860456 
L 325.062897 274.930452 
L 322.70108 273.599558 
L 320.272055 272.402587 
L 317.703955 271.518984 
L 315.245538 270.388968 
L 312.903046 269.014819 
L 310.23405 268.352329 
L 305.533186 265.635269 
L 302.861487 264.973438 
L 298.160324 262.261311 
L 295.488195 261.603139 
L 290.783275 258.892842 
L 288.109882 258.236802 
L 283.359324 255.592829 
L 280.659383 254.956137 
L 278.379321 253.345614 
L 275.861018 252.2257 
L 273.11553 251.602742 
L 270.777503 250.011613 
L 268.207863 248.922079 
L 265.539483 248.031247 
L 257.712658 244.948799 
L 255.109334 243.970112 
L 252.396407 243.324944 
L 249.923427 242.07211 
L 247.413506 240.958754 
L 244.626779 240.653246 
L 242.209927 239.343222 
L 239.727399 238.236075 
L 237.028934 237.752282 
L 232.073884 235.545012 
L 229.382669 235.066068 
L 226.917728 233.945455 
L 219.261289 231.257108 
L 216.762124 230.172881 
L 214.046954 229.695017 
L 211.547078 228.578099 
L 208.960943 227.692931 
L 206.224182 227.237162 
L 198.5989 224.035299 
L 195.843416 223.611158 
L 193.216764 222.780291 
L 188.285824 220.777425 
L 185.856086 220.18595 
L 181.504407 218.633534 
L 180.224877 217.902448 
L 179.770879 217.268512 
L 179.800536 217.023847 
L 180.745523 217.07738 
L 180.972319 218.062731 
L 180.777396 218.744106 
L 180.583631 218.912322 
L 180.363686 218.734636 
L 180.080679 218.066397 
L 180.38343 217.00389 
L 181.177701 215.690395 
L 182.832591 214.804919 
L 184.743304 213.948082 
L 186.718354 212.731149 
L 189.036864 211.810448 
L 191.046958 210.483679 
L 193.060847 209.420133 
L 194.910523 208.183929 
L 196.790976 207.06952 
L 198.932749 206.674765 
L 202.982323 205.481258 
L 207.070534 204.496119 
L 209.181517 204.464777 
L 211.286579 204.773052 
L 213.354864 204.960502 
L 215.422459 204.823245 
L 217.551907 204.570126 
L 219.59136 205.488204 
L 221.854407 205.304555 
L 228.586142 206.95553 
L 230.949099 207.481959 
L 233.044011 208.875035 
L 235.419054 209.506296 
L 237.653434 210.5994 
L 240.138332 211.129474 
L 242.367326 212.330101 
L 246.990358 214.376241 
L 253.943082 217.744602 
L 256.213589 219.073871 
L 258.659016 220.140094 
L 261.002032 221.523707 
L 263.70353 222.357961 
L 266.153455 223.919591 
L 268.820689 225.411118 
L 271.979048 226.277064 
L 274.996148 228.053399 
L 278.451667 229.058665 
L 282.050754 229.910951 
L 293.699628 229.544648 
L 297.69118 228.917187 
L 301.294753 227.154763 
L 305.015772 225.912229 
L 308.347391 223.768425 
L 311.912638 221.877573 
L 314.96378 219.216161 
L 317.291947 216.018931 
L 320.090373 213.238107 
L 322.17712 209.711145 
L 323.807918 205.640374 
L 325.626357 197.429025 
L 325.756299 193.655316 
L 325.640922 189.982652 
L 324.7318 183.10107 
L 322.326819 174.501171 
L 320.509042 169.500543 
L 319.815615 167.008311 
L 319.352111 164.470716 
L 317.546648 157.00913 
L 316.977639 154.428019 
L 316.625496 151.69552 
L 315.894281 148.905733 
L 315.282402 145.935763 
L 314.395764 142.836214 
L 312.816167 139.726245 
L 311.717331 136.074814 
L 309.711191 132.492102 
L 307.267241 129.110776 
L 304.445518 126.069195 
L 301.249687 123.351332 
L 297.684409 121.035421 
L 293.850448 119.165725 
L 289.858341 117.791733 
L 285.792082 117.029548 
L 281.748119 116.817963 
L 277.770733 116.799104 
L 273.842777 117.169983 
L 269.997389 117.889955 
L 262.993053 120.799875 
L 259.809996 122.656131 
L 256.894507 124.498512 
L 254.579188 126.617248 
L 252.206634 128.147623 
L 249.747356 129.209194 
L 247.732231 130.650115 
L 245.904491 132.163465 
L 243.89508 133.177249 
L 242.047713 134.242535 
L 240.38239 135.452499 
L 238.597765 136.236207 
L 236.8637 137.170116 
L 234.956348 137.733058 
L 232.962609 138.018941 
L 230.943101 138.155818 
L 228.885829 137.733475 
L 226.926006 137.846122 
L 224.972559 137.843593 
L 222.960501 137.722197 
L 220.780668 138.161034 
L 218.531519 138.17888 
L 216.378727 137.100361 
L 211.616414 136.001267 
L 177.635079 127.303355 
L 174.982765 126.774112 
L 151.429998 120.900446 
L 148.782405 120.388315 
L 127.890348 115.079716 
L 125.214445 114.611761 
L 114.671367 111.96438 
L 112.150478 110.844419 
L 87.081265 104.663227 
L 85.759791 104.552421 
L 84.952558 104.155915 
L 84.646252 103.416957 
L 84.360485 103.112243 
L 84.135332 102.678987 
L 83.831471 101.712584 
L 83.840232 100.175317 
L 82.87598 98.478068 
L 82.670633 96.438228 
L 82.332195 94.243767 
L 82.452559 91.883768 
L 82.480274 86.903142 
L 82.540318 84.268548 
L 83.279235 81.554062 
L 83.330504 73.01982 
L 83.273257 70.152197 
L 82.508344 67.335835 
L 82.322985 62.236814 
L 82.405409 57.820773 
L 83.151392 56.664224 
L 83.337449 56.635664 
L 83.171712 56.81056 
L 82.812635 56.605617 
L 83.033297 56.687328 
L 83.570077 56.01577 
L 84.937214 55.474413 
L 91.604177 53.694985 
L 94.49109 53.825268 
L 102.685167 51.861769 
L 105.523438 51.010615 
L 108.085504 50.032474 
L 109.326707 50.254578 
L 110.653774 50.915003 
L 126.866645 50.938545 
L 151.168982 50.924597 
L 153.86773 50.249775 
L 164.663289 50.241474 
L 164.663289 50.241474 
" clip-path="url(#p7dcd330e60)" style="fill: none; stroke: #05c46b; stroke-linecap: square"/>
   </g>
   <g id="line2d_4">
    <path d="M 170.046969 26.027622 
L 205.157085 26.037719 
L 207.85722 25.368182 
L 259.098848 25.370876 
L 261.795567 26.036637 
L 289.076247 25.975335 
L 292.209385 25.413989 
L 295.788543 25.690079 
L 300.377666 26.335379 
L 306.378473 28.146651 
L 311.835113 33.293309 
L 314.349457 38.87542 
L 316.081261 45.683794 
L 317.606358 50.717094 
L 318.498235 52.848547 
L 319.073979 55.087211 
L 319.560514 57.55044 
L 320.696505 59.821033 
L 321.597773 62.228565 
L 324.163458 66.834382 
L 325.03983 69.373742 
L 326.145085 71.847556 
L 326.9329 74.48465 
L 328.33492 76.886936 
L 331.541363 84.62578 
L 333.619207 89.905324 
L 336.673521 97.942218 
L 337.138085 100.801158 
L 337.784681 103.590829 
L 341.824697 117.18296 
L 343.820091 125.299964 
L 344.56473 127.96267 
L 344.974679 130.679151 
L 345.263868 133.405007 
L 346.416943 138.690477 
L 348.281809 146.472965 
L 348.373643 149.159952 
L 348.950713 151.746936 
L 349.73945 154.287181 
L 351.003055 159.467755 
L 353.077279 167.277273 
L 353.7016 169.916953 
L 354.482999 172.533426 
L 354.817059 175.262164 
L 355.338396 177.955407 
L 356.623055 183.322525 
L 357.201054 186.019001 
L 357.887715 188.680611 
L 358.440187 191.356419 
L 358.507881 194.118116 
L 359.04109 196.744797 
L 359.776439 199.282781 
L 360.931814 204.269021 
L 363.011845 211.273041 
L 365.557888 217.777822 
L 366.211765 220.08169 
L 368.258798 224.51917 
L 369.629735 226.634927 
L 370.253944 229.178849 
L 371.74115 231.329335 
L 378.129723 243.267269 
L 379.566132 245.667716 
L 380.700833 248.250267 
L 381.953414 250.766453 
L 383.432214 253.135973 
L 384.619262 255.598153 
L 385.230426 258.26301 
L 386.650981 260.45075 
L 387.780392 262.693761 
L 389.208534 264.780728 
L 390.228356 267.270271 
L 392.811802 272.149368 
L 393.816174 274.757531 
L 395.37668 277.120178 
L 396.850913 279.594971 
L 398.215079 282.30239 
L 400.330064 285.764427 
L 402.075676 290.293347 
L 403.073274 296.363026 
L 402.916921 304.439882 
L 399.426697 311.564619 
L 392.298192 315.075367 
L 385.111053 316.731818 
L 379.18958 316.644624 
L 371.599508 314.950155 
L 365.858803 313.289116 
L 353.199084 310.268919 
L 350.437559 310.017815 
L 344.762707 308.822627 
L 335.899751 306.228035 
L 333.157527 304.706758 
L 330.128348 304.187098 
L 327.283573 303.330603 
L 324.748277 301.939244 
L 322.180863 300.775994 
L 319.530247 299.887183 
L 317.083636 298.680126 
L 314.719496 297.350854 
L 312.180296 296.418025 
L 309.705236 295.357935 
L 307.369544 293.983832 
L 304.922775 292.85917 
L 302.359137 291.980699 
L 300.121884 290.390829 
L 295.007371 288.609448 
L 292.771388 287.022049 
L 287.653341 285.244109 
L 285.414872 283.65942 
L 280.297906 281.885509 
L 278.058657 280.303163 
L 272.98114 278.476505 
L 270.762883 276.887058 
L 268.119671 276.282679 
L 265.705204 275.208928 
L 263.507596 273.661609 
L 260.88989 273.111493 
L 258.489325 272.093599 
L 256.171204 270.915844 
L 248.929145 268.064148 
L 246.479196 267.14316 
L 244.12725 265.919789 
L 241.525729 265.330401 
L 238.954753 264.619245 
L 236.655467 263.114539 
L 233.983006 262.623646 
L 231.374689 261.934209 
L 228.980899 260.625422 
L 223.749478 259.253104 
L 221.347001 257.943555 
L 218.718659 257.274508 
L 211.094041 254.59732 
L 208.496541 253.901545 
L 206.112161 252.607687 
L 203.508952 251.963094 
L 200.987436 251.100037 
L 198.61146 249.82251 
L 190.859691 247.940821 
L 188.475771 246.71244 
L 185.955246 245.915151 
L 180.581602 244.694246 
L 177.884871 243.593838 
L 172.080605 241.495323 
L 168.457787 239.981345 
L 164.316997 237.798786 
L 160.313522 234.410046 
L 156.210822 229.996667 
L 154.17655 223.941892 
L 153.890266 217.898692 
L 154.901265 212.405433 
L 156.939738 207.504945 
L 160.041543 203.578386 
L 163.220039 200.521765 
L 166.402242 198.188414 
L 169.010316 195.764867 
L 171.567314 193.592624 
L 174.1856 191.973465 
L 176.516145 190.15003 
L 181.964941 187.362453 
L 188.067087 185.259808 
L 190.982771 183.767359 
L 194.102522 182.765236 
L 197.286448 181.912032 
L 200.515146 181.215863 
L 203.802136 180.887454 
L 210.337199 179.66393 
L 213.66642 179.407005 
L 216.993028 179.745313 
L 220.240815 180.471969 
L 223.550794 180.277251 
L 226.601444 181.412208 
L 229.689837 181.991928 
L 232.686328 182.754824 
L 235.564269 183.733619 
L 238.351103 184.826676 
L 241.368787 185.167073 
L 244.067736 186.379241 
L 246.87188 187.224423 
L 249.392231 188.71705 
L 252.137505 189.61418 
L 259.950068 193.18895 
L 267.543433 196.767443 
L 269.904896 198.158498 
L 272.36719 199.235251 
L 274.479134 200.845351 
L 279.088582 202.477742 
L 280.896083 203.728497 
L 282.949118 203.804286 
L 284.675582 204.309279 
L 286.35625 204.577626 
L 287.898611 205.357709 
L 289.434437 205.58738 
L 290.839957 205.503754 
L 292.162898 205.193428 
L 293.741423 205.447647 
L 295.018824 204.655916 
L 296.441975 204.247013 
L 297.322136 203.07971 
L 298.33683 202.19303 
L 299.651423 201.409159 
L 300.086379 199.868507 
L 301.275322 197.872904 
L 301.688277 196.92278 
L 301.493061 195.498655 
L 301.546951 193.878397 
L 301.19912 190.318423 
L 300.575944 188.389173 
L 300.138269 186.211837 
L 298.14166 178.709039 
L 297.574562 175.985999 
L 296.821003 173.277229 
L 295.891621 170.599077 
L 293.887774 162.320354 
L 293.294406 159.629544 
L 292.492776 157.088226 
L 292.023141 154.614732 
L 290.730697 150.255931 
L 290.561926 148.258551 
L 289.546819 146.94352 
L 288.922152 145.814123 
L 288.184076 144.836622 
L 287.335642 143.92197 
L 286.423356 143.141466 
L 285.476536 142.497671 
L 284.460582 142.001897 
L 282.12605 141.298546 
L 280.796573 141.009632 
L 279.377952 141.105389 
L 277.946666 141.368788 
L 276.523144 141.816972 
L 274.944177 142.042282 
L 271.843395 143.360625 
L 270.200507 144.40904 
L 268.100652 145.39644 
L 266.126996 147.068333 
L 264.235588 149.202981 
L 261.858689 150.901129 
L 259.223771 152.425453 
L 256.67508 154.303819 
L 253.845204 155.933077 
L 250.707083 157.185117 
L 247.548577 158.56979 
L 240.941018 160.447667 
L 237.676597 161.381942 
L 234.376182 162.159263 
L 231.070507 163.195319 
L 227.641212 163.391509 
L 224.196764 163.387211 
L 220.820623 163.187845 
L 217.634122 162.166066 
L 214.547706 161.328372 
L 211.397647 161.395967 
L 205.639205 160.071177 
L 195.050336 157.300197 
L 192.495784 156.503667 
L 187.281226 155.298351 
L 145.455852 144.706614 
L 142.867546 143.90354 
L 121.901323 138.576161 
L 119.34567 137.711739 
L 108.944759 135.100011 
L 106.224231 134.926928 
L 82.389055 129.125873 
L 78.914361 128.080941 
L 75.227324 126.185108 
L 71.369196 123.878263 
L 67.488365 121.223595 
L 64.22836 117.47076 
L 61.770591 113.228292 
L 58.836137 105.454855 
L 58.898959 101.831391 
L 58.51126 98.5061 
L 58.522327 95.312282 
L 58.245364 92.276191 
L 58.273947 86.460377 
L 58.33667 83.697815 
L 57.729516 81.015368 
L 57.777307 73.355126 
L 57.726726 70.825314 
L 58.315083 68.246039 
L 58.114704 62.555292 
L 58.12332 59.452211 
L 58.250576 56.181769 
L 58.030742 51.970479 
L 59.291333 46.80858 
L 62.059121 41.91729 
L 65.989349 38.087541 
L 70.127966 34.83589 
L 74.473488 33.219365 
L 78.224905 32.058103 
L 81.601399 31.290866 
L 87.415535 30.581677 
L 89.836297 29.465044 
L 94.957082 28.658058 
L 97.507019 28.173414 
L 102.59598 27.472081 
L 106.613369 26.046802 
L 110.684837 25.395044 
L 132.258613 25.381572 
L 151.147974 25.369208 
L 153.84778 26.039408 
L 164.646442 26.031104 
L 164.646442 26.031104 
" clip-path="url(#p7dcd330e60)" style="fill: none; stroke: #05c46b; stroke-linecap: square"/>
   </g>
   <g id="patch_3">
    <path d="M 40.459399 331.3 
L 40.459399 10.8 
" style="fill: none; stroke: #000000; stroke-width: 0.8; stroke-linejoin: miter; stroke-linecap: square"/>
   </g>
   <g id="patch_4">
    <path d="M 420.340601 331.3 
L 420.340601 10.8 
" style="fill: none; stroke: #000000; stroke-width: 0.8; stroke-linejoin: miter; stroke-linecap: square"/>
   </g>
   <g id="patch_5">
    <path d="M 40.459399 331.3 
L 420.340601 331.3 
" style="fill: none; stroke: #000000; stroke-width: 0.8; stroke-linejoin: miter; stroke-linecap: square"/>
   </g>
   <g id="patch_6">
    <path d="M 40.459399 10.8 
L 420.340601 10.8 
" style="fill: none; stroke: #000000; stroke-width: 0.8; stroke-linejoin: miter; stroke-linecap: square"/>
   </g>
   <g id="legend_1">
    <g id="patch_7">
     <path d="M 324.957788 62.834375 
L 413.340601 62.834375 
Q 415.340601 62.834375 415.340601 60.834375 
L 415.340601 17.8 
Q 415.340601 15.8 413.340601 15.8 
L 324.957788 15.8 
Q 322.957788 15.8 322.957788 17.8 
L 322.957788 60.834375 
Q 322.957788 62.834375 324.957788 62.834375 
z
" style="fill: #ffffff; opacity: 0.8; stroke: #cccccc; stroke-linejoin: miter"/>
    </g>
    <g id="line2d_5">
     <path d="M 326.957788 23.898438 
L 336.957788 23.898438 
L 346.957788 23.898438 
" style="fill: none; stroke: #575fcf; stroke-width: 2; stroke-linecap: square"/>
    </g>
    <g id="text_1">
     <!-- Track -->
     <g transform="translate(354.957788 27.398438)scale(0.1 -0.1)">
      <defs>
       <path id="DejaVuSans-54" d="M -19 4666 
L 3928 4666 
L 3928 4134 
L 2272 4134 
L 2272 0 
L 1638 0 
L 1638 4134 
L -19 4134 
L -19 4666 
z
" transform="scale(0.015625)"/>
       <path id="DejaVuSans-72" d="M 2631 2963 
Q 2534 3019 2420 3045 
Q 2306 3072 2169 3072 
Q 1681 3072 1420 2755 
Q 1159 2438 1159 1844 
L 1159 0 
L 581 0 
L 581 3500 
L 1159 3500 
L 1159 2956 
Q 1341 3275 1631 3429 
Q 1922 3584 2338 3584 
Q 2397 3584 2469 3576 
Q 2541 3569 2628 3553 
L 2631 2963 
z
" transform="scale(0.015625)"/>
       <path id="DejaVuSans-61" d="M 2194 1759 
Q 1497 1759 1228 1600 
Q 959 1441 959 1056 
Q 959 750 1161 570 
Q 1363 391 1709 391 
Q 2188 391 2477 730 
Q 2766 1069 2766 1631 
L 2766 1759 
L 2194 1759 
z
M 3341 1997 
L 3341 0 
L 2766 0 
L 2766 531 
Q 2569 213 2275 61 
Q 1981 -91 1556 -91 
Q 1019 -91 701 211 
Q 384 513 384 1019 
Q 384 1609 779 1909 
Q 1175 2209 1959 2209 
L 2766 2209 
L 2766 2266 
Q 2766 2663 2505 2880 
Q 2244 3097 1772 3097 
Q 1472 3097 1187 3025 
Q 903 2953 641 2809 
L 641 3341 
Q 956 3463 1253 3523 
Q 1550 3584 1831 3584 
Q 2591 3584 2966 3190 
Q 3341 2797 3341 1997 
z
" transform="scale(0.015625)"/>
       <path id="DejaVuSans-63" d="M 3122 3366 
L 3122 2828 
Q 2878 2963 2633 3030 
Q 2388 3097 2138 3097 
Q 1578 3097 1268 2742 
Q 959 2388 959 1747 
Q 959 1106 1268 751 
Q 1578 397 2138 397 
Q 2388 397 2633 464 
Q 2878 531 3122 666 
L 3122 134 
Q 2881 22 2623 -34 
Q 2366 -91 2075 -91 
Q 1284 -91 818 406 
Q 353 903 353 1747 
Q 353 2603 823 3093 
Q 1294 3584 2113 3584 
Q 2378 3584 2631 3529 
Q 2884 3475 3122 3366 
z
" transform="scale(0.015625)"/>
       <path id="DejaVuSans-6b" d="M 581 4863 
L 1159 4863 
L 1159 1991 
L 2875 3500 
L 3609 3500 
L 1753 1863 
L 3688 0 
L 2938 0 
L 1159 1709 
L 1159 0 
L 581 0 
L 581 4863 
z
" transform="scale(0.015625)"/>
      </defs>
      <use xlink:href="#DejaVuSans-54"/>
      <use xlink:href="#DejaVuSans-72" x="46.333984"/>
      <use xlink:href="#DejaVuSans-61" x="87.447266"/>
      <use xlink:href="#DejaVuSans-63" x="148.726562"/>
      <use xlink:href="#DejaVuSans-6b" x="203.707031"/>
     </g>
    </g>
    <g id="line2d_6">
     <path d="M 326.957788 38.576563 
L 336.957788 38.576563 
L 346.957788 38.576563 
" style="fill: none; stroke: #f53b57; stroke-width: 2; stroke-linecap: square"/>
    </g>
    <g id="text_2">
     <!-- Raceline -->
     <g transform="translate(354.957788 42.076563)scale(0.1 -0.1)">
      <defs>
       <path id="DejaVuSans-52" d="M 2841 2188 
Q 3044 2119 3236 1894 
Q 3428 1669 3622 1275 
L 4263 0 
L 3584 0 
L 2988 1197 
Q 2756 1666 2539 1819 
Q 2322 1972 1947 1972 
L 1259 1972 
L 1259 0 
L 628 0 
L 628 4666 
L 2053 4666 
Q 2853 4666 3247 4331 
Q 3641 3997 3641 3322 
Q 3641 2881 3436 2590 
Q 3231 2300 2841 2188 
z
M 1259 4147 
L 1259 2491 
L 2053 2491 
Q 2509 2491 2742 2702 
Q 2975 2913 2975 3322 
Q 2975 3731 2742 3939 
Q 2509 4147 2053 4147 
L 1259 4147 
z
" transform="scale(0.015625)"/>
       <path id="DejaVuSans-65" d="M 3597 1894 
L 3597 1613 
L 953 1613 
Q 991 1019 1311 708 
Q 1631 397 2203 397 
Q 2534 397 2845 478 
Q 3156 559 3463 722 
L 3463 178 
Q 3153 47 2828 -22 
Q 2503 -91 2169 -91 
Q 1331 -91 842 396 
Q 353 884 353 1716 
Q 353 2575 817 3079 
Q 1281 3584 2069 3584 
Q 2775 3584 3186 3129 
Q 3597 2675 3597 1894 
z
M 3022 2063 
Q 3016 2534 2758 2815 
Q 2500 3097 2075 3097 
Q 1594 3097 1305 2825 
Q 1016 2553 972 2059 
L 3022 2063 
z
" transform="scale(0.015625)"/>
       <path id="DejaVuSans-6c" d="M 603 4863 
L 1178 4863 
L 1178 0 
L 603 0 
L 603 4863 
z
" transform="scale(0.015625)"/>
       <path id="DejaVuSans-69" d="M 603 3500 
L 1178 3500 
L 1178 0 
L 603 0 
L 603 3500 
z
M 603 4863 
L 1178 4863 
L 1178 4134 
L 603 4134 
L 603 4863 
z
" transform="scale(0.015625)"/>
       <path id="DejaVuSans-6e" d="M 3513 2113 
L 3513 0 
L 2938 0 
L 2938 2094 
Q 2938 2591 2744 2837 
Q 2550 3084 2163 3084 
Q 1697 3084 1428 2787 
Q 1159 2491 1159 1978 
L 1159 0 
L 581 0 
L 581 3500 
L 1159 3500 
L 1159 2956 
Q 1366 3272 1645 3428 
Q 1925 3584 2291 3584 
Q 2894 3584 3203 3211 
Q 3513 2838 3513 2113 
z
" transform="scale(0.015625)"/>
      </defs>
      <use xlink:href="#DejaVuSans-52"/>
      <use xlink:href="#DejaVuSans-61" x="67.232422"/>
      <use xlink:href="#DejaVuSans-63" x="128.511719"/>
      <use xlink:href="#DejaVuSans-65" x="183.492188"/>
      <use xlink:href="#DejaVuSans-6c" x="245.015625"/>
      <use xlink:href="#DejaVuSans-69" x="272.798828"/>
      <use xlink:href="#DejaVuSans-6e" x="300.582031"/>
      <use xlink:href="#DejaVuSans-65" x="363.960938"/>
     </g>
    </g>
    <g id="line2d_7">
     <path d="M 326.957788 53.254687 
L 336.957788 53.254687 
L 346.957788 53.254687 
" style="fill: none; stroke: #05c46b; stroke-linecap: square"/>
    </g>
    <g id="text_3">
     <!-- Boundaries -->
     <g transform="translate(354.957788 56.754687)scale(0.1 -0.1)">
      <defs>
       <path id="DejaVuSans-42" d="M 1259 2228 
L 1259 519 
L 2272 519 
Q 2781 519 3026 730 
Q 3272 941 3272 1375 
Q 3272 1813 3026 2020 
Q 2781 2228 2272 2228 
L 1259 2228 
z
M 1259 4147 
L 1259 2741 
L 2194 2741 
Q 2656 2741 2882 2914 
Q 3109 3088 3109 3444 
Q 3109 3797 2882 3972 
Q 2656 4147 2194 4147 
L 1259 4147 
z
M 628 4666 
L 2241 4666 
Q 2963 4666 3353 4366 
Q 3744 4066 3744 3513 
Q 3744 3084 3544 2831 
Q 3344 2578 2956 2516 
Q 3422 2416 3680 2098 
Q 3938 1781 3938 1306 
Q 3938 681 3513 340 
Q 3088 0 2303 0 
L 628 0 
L 628 4666 
z
" transform="scale(0.015625)"/>
       <path id="DejaVuSans-6f" d="M 1959 3097 
Q 1497 3097 1228 2736 
Q 959 2375 959 1747 
Q 959 1119 1226 758 
Q 1494 397 1959 397 
Q 2419 397 2687 759 
Q 2956 1122 2956 1747 
Q 2956 2369 2687 2733 
Q 2419 3097 1959 3097 
z
M 1959 3584 
Q 2709 3584 3137 3096 
Q 3566 2609 3566 1747 
Q 3566 888 3137 398 
Q 2709 -91 1959 -91 
Q 1206 -91 779 398 
Q 353 888 353 1747 
Q 353 2609 779 3096 
Q 1206 3584 1959 3584 
z
" transform="scale(0.015625)"/>
       <path id="DejaVuSans-75" d="M 544 1381 
L 544 3500 
L 1119 3500 
L 1119 1403 
Q 1119 906 1312 657 
Q 1506 409 1894 409 
Q 2359 409 2629 706 
Q 2900 1003 2900 1516 
L 2900 3500 
L 3475 3500 
L 3475 0 
L 2900 0 
L 2900 538 
Q 2691 219 2414 64 
Q 2138 -91 1772 -91 
Q 1169 -91 856 284 
Q 544 659 544 1381 
z
M 1991 3584 
L 1991 3584 
z
" transform="scale(0.015625)"/>
       <path id="DejaVuSans-64" d="M 2906 2969 
L 2906 4863 
L 3481 4863 
L 3481 0 
L 2906 0 
L 2906 525 
Q 2725 213 2448 61 
Q 2172 -91 1784 -91 
Q 1150 -91 751 415 
Q 353 922 353 1747 
Q 353 2572 751 3078 
Q 1150 3584 1784 3584 
Q 2172 3584 2448 3432 
Q 2725 3281 2906 2969 
z
M 947 1747 
Q 947 1113 1208 752 
Q 1469 391 1925 391 
Q 2381 391 2643 752 
Q 2906 1113 2906 1747 
Q 2906 2381 2643 2742 
Q 2381 3103 1925 3103 
Q 1469 3103 1208 2742 
Q 947 2381 947 1747 
z
" transform="scale(0.015625)"/>
       <path id="DejaVuSans-73" d="M 2834 3397 
L 2834 2853 
Q 2591 2978 2328 3040 
Q 2066 3103 1784 3103 
Q 1356 3103 1142 2972 
Q 928 2841 928 2578 
Q 928 2378 1081 2264 
Q 1234 2150 1697 2047 
L 1894 2003 
Q 2506 1872 2764 1633 
Q 3022 1394 3022 966 
Q 3022 478 2636 193 
Q 2250 -91 1575 -91 
Q 1294 -91 989 -36 
Q 684 19 347 128 
L 347 722 
Q 666 556 975 473 
Q 1284 391 1588 391 
Q 1994 391 2212 530 
Q 2431 669 2431 922 
Q 2431 1156 2273 1281 
Q 2116 1406 1581 1522 
L 1381 1569 
Q 847 1681 609 1914 
Q 372 2147 372 2553 
Q 372 3047 722 3315 
Q 1072 3584 1716 3584 
Q 2034 3584 2315 3537 
Q 2597 3491 2834 3397 
z
" transform="scale(0.015625)"/>
      </defs>
      <use xlink:href="#DejaVuSans-42"/>
      <use xlink:href="#DejaVuSans-6f" x="68.603516"/>
      <use xlink:href="#DejaVuSans-75" x="129.785156"/>
      <use xlink:href="#DejaVuSans-6e" x="193.164062"/>
      <use xlink:href="#DejaVuSans-64" x="256.542969"/>
      <use xlink:href="#DejaVuSans-61" x="320.019531"/>
      <use xlink:href="#DejaVuSans-72" x="381.298828"/>
      <use xlink:href="#DejaVuSans-69" x="422.412109"/>
      <use xlink:href="#DejaVuSans-65" x="450.195312"/>
      <use xlink:href="#DejaVuSans-73" x="511.71875"/>
     </g>
    </g>
   </g>
  </g>
 </g>
 <defs>
  <clipPath id="p7dcd330e60">
   <rect x="40.459399" y="10.8" width="379.881202" height="320.5"/>
  </clipPath>
 </defs>
</svg>
