<?xml version="1.0" encoding="utf-8" standalone="no"?>
<!DOCTYPE svg PUBLIC "-//W3C//DTD SVG 1.1//EN"
  "http://www.w3.org/Graphics/SVG/1.1/DTD/svg11.dtd">
<svg xmlns:xlink="http://www.w3.org/1999/xlink" width="460.8pt" height="345.6pt" viewBox="0 0 460.8 345.6" xmlns="http://www.w3.org/2000/svg" version="1.1">
 <metadata>
  <rdf:RDF xmlns:dc="http://purl.org/dc/elements/1.1/" xmlns:cc="http://creativecommons.org/ns#" xmlns:rdf="http://www.w3.org/1999/02/22-rdf-syntax-ns#">
   <cc:Work>
    <dc:type rdf:resource="http://purl.org/dc/dcmitype/StillImage"/>
    <dc:date>2024-03-14T16:32:56.453606</dc:date>
    <dc:format>image/svg+xml</dc:format>
    <dc:creator>
     <cc:Agent>
      <dc:title>Matplotlib v3.5.2, https://matplotlib.org/</dc:title>
     </cc:Agent>
    </dc:creator>
   </cc:Work>
  </rdf:RDF>
 </metadata>
 <defs>
  <style type="text/css">*{stroke-linejoin: round; stroke-linecap: butt}</style>
 </defs>
 <g id="figure_1">
  <g id="patch_1">
   <path d="M 0 345.6 
L 460.8 345.6 
L 460.8 0 
L 0 0 
z
" style="fill: #ffffff"/>
  </g>
  <g id="axes_1">
   <g id="patch_2">
    <path d="M 14.3 273.699233 
L 450 273.699233 
L 450 71.900767 
L 14.3 71.900767 
z
" style="fill: #ffffff"/>
   </g>
   <g id="matplotlib.axis_1"/>
   <g id="matplotlib.axis_2"/>
   <g id="line2d_1">
    <path d="M 291.389961 224.652561 
L 182.946263 192.854144 
L 161.498456 186.638084 
L 159.647638 186.21641 
L 157.80935 185.92244 
L 155.999435 185.811417 
L 154.233736 185.938585 
L 152.526933 186.353473 
L 150.88053 187.040866 
L 149.287697 187.944585 
L 146.234897 190.173711 
L 140.422256 194.864703 
L 137.406251 196.872839 
L 135.79963 197.741023 
L 134.108353 198.499073 
L 132.346834 199.130012 
L 130.534664 199.616445 
L 128.691429 199.940975 
L 126.836718 200.086208 
L 124.990119 200.034749 
L 123.170094 199.775699 
L 121.391604 199.318348 
L 119.668932 198.675906 
L 118.01636 197.861578 
L 116.44817 196.888572 
L 114.978485 195.770101 
L 113.617534 194.519485 
L 112.371525 193.150165 
L 111.246483 191.67558 
L 110.248431 190.109176 
L 109.383395 188.464393 
L 108.657398 186.754676 
L 108.076464 184.993465 
L 107.646618 183.194206 
L 107.373883 181.370339 
L 107.264284 179.535307 
L 107.323844 177.702554 
L 107.557075 175.885243 
L 107.960119 174.09499 
L 108.526246 172.342884 
L 109.248724 170.640011 
L 110.120818 168.997459 
L 111.135798 167.426312 
L 112.286382 165.939117 
L 113.56231 164.556349 
L 114.952315 163.301168 
L 116.445128 162.196736 
L 118.029479 161.266215 
L 119.694087 160.532531 
L 121.426592 160.000975 
L 123.212827 159.647251 
L 125.038457 159.444242 
L 128.750547 159.381881 
L 132.461138 159.610227 
L 137.989061 160.244271 
L 189.409675 166.987307 
L 228.060612 171.861943 
L 229.891495 171.975672 
L 231.706646 171.959795 
L 233.500051 171.76649 
L 235.2657 171.347934 
L 236.99534 170.662878 
L 238.658554 169.73509 
L 240.212278 168.62545 
L 241.619081 167.387692 
L 242.871158 166.036742 
L 243.970164 164.575136 
L 244.915763 163.008611 
L 245.701999 161.351946 
L 246.321932 159.621502 
L 246.768623 157.833641 
L 247.035132 156.004724 
L 247.114522 154.151117 
L 247.00141 152.291825 
L 246.694744 150.453204 
L 246.194219 148.662879 
L 245.499529 146.948474 
L 244.610369 145.337612 
L 243.527078 143.8574 
L 242.263082 142.524465 
L 240.843986 141.345678 
L 239.295858 140.327539 
L 237.644767 139.476549 
L 235.916779 138.799208 
L 234.137683 138.299939 
L 230.501946 137.650603 
L 223.203246 136.368955 
L 115.753975 116.362177 
L 113.908803 116.26302 
L 112.05112 116.341855 
L 110.202196 116.590649 
L 108.386403 116.99334 
L 106.617758 117.533514 
L 104.894407 118.194221 
L 101.570775 119.809242 
L 98.389419 121.702566 
L 87.496219 128.747954 
L 84.319715 130.674527 
L 81.281834 132.798562 
L 79.858761 133.989312 
L 78.526608 135.273867 
L 77.306777 136.651486 
L 76.220672 138.121423 
L 75.289695 139.682936 
L 74.53522 141.335271 
L 73.963474 143.072659 
L 73.540919 144.876156 
L 72.983439 148.597154 
L 72.293092 154.164879 
L 71.410982 159.598318 
L 70.133895 166.911261 
L 69.723006 170.613689 
L 69.647837 172.468325 
L 69.70821 174.310095 
L 69.97614 176.106968 
L 70.526031 177.825492 
L 71.377251 179.452026 
L 74.473508 184.170553 
L 75.382868 185.784627 
L 76.176604 187.43596 
L 76.831259 189.131661 
L 77.323379 190.878841 
L 77.631346 192.682288 
L 77.749245 194.526976 
L 77.679121 196.387827 
L 77.423084 198.239683 
L 76.983242 200.057389 
L 76.361705 201.815789 
L 75.561436 203.490686 
L 74.592666 205.066056 
L 73.469293 206.529999 
L 72.205246 207.870648 
L 70.814453 209.076136 
L 69.310844 210.134601 
L 67.708992 211.036857 
L 66.025078 211.780395 
L 64.27553 212.363726 
L 62.476776 212.785364 
L 60.645244 213.043824 
L 58.797361 213.137618 
L 56.949556 213.065259 
L 55.118256 212.825262 
L 53.319889 212.416139 
L 51.570883 211.836405 
L 49.887666 211.084571 
L 48.286611 210.159717 
L 46.783202 209.070351 
L 45.39218 207.832784 
L 44.128268 206.463559 
L 43.006187 204.979222 
L 42.040657 203.396316 
L 41.246167 201.73132 
L 40.633382 199.999628 
L 40.209847 198.21575 
L 39.977016 196.39404 
L 39.876874 192.690016 
L 40.016622 179.703628 
L 40.418047 151.922596 
L 40.495065 142.642753 
L 40.832161 138.96591 
L 41.146016 137.150367 
L 41.649411 135.410553 
L 42.453962 133.827162 
L 43.630349 132.457164 
L 45.076347 131.257155 
L 49.68007 127.939744 
L 50.989407 126.640922 
L 52.072284 125.152456 
L 52.884851 123.519353 
L 53.389051 121.790843 
L 53.615813 119.998081 
L 53.577315 116.287673 
L 53.457058 112.522017 
L 53.566295 110.658513 
L 53.821554 108.821176 
L 54.217016 107.016609 
L 54.746863 105.251411 
L 55.405276 103.532183 
L 56.186435 101.865527 
L 57.084522 100.258043 
L 58.093718 98.716333 
L 59.208203 97.246997 
L 60.422159 95.856637 
L 61.729767 94.551853 
L 63.125182 93.339196 
L 64.601626 92.223306 
L 66.151124 91.206388 
L 67.765623 90.290485 
L 69.437073 89.477644 
L 71.15742 88.769909 
L 72.918612 88.169325 
L 74.712599 87.677938 
L 76.531327 87.297791 
L 78.366744 87.030931 
L 80.210799 86.879402 
L 82.055439 86.845249 
L 85.723864 87.113848 
L 89.368228 87.705257 
L 143.898888 98.488475 
L 231.224344 115.297173 
L 283.908046 125.907037 
L 285.655257 126.456014 
L 287.26717 127.253963 
L 288.686862 128.384741 
L 289.920903 129.775501 
L 290.990679 131.317033 
L 291.919328 132.929242 
L 293.46073 136.294097 
L 296.032203 143.246199 
L 299.987748 153.632847 
L 301.486598 157.00691 
L 302.377956 158.619612 
L 303.40491 160.160825 
L 304.596334 161.61118 
L 305.956521 162.912634 
L 307.472345 163.979743 
L 309.126972 164.745335 
L 310.881414 165.267215 
L 314.506474 165.99513 
L 319.989791 166.870278 
L 327.342026 167.809301 
L 343.895932 169.845392 
L 367.784991 172.906401 
L 391.668874 175.992829 
L 395.281662 176.775205 
L 397.051509 177.347593 
L 398.775519 178.081282 
L 400.386768 179.006481 
L 401.807712 180.153368 
L 402.976083 181.540694 
L 403.928216 183.11348 
L 405.473938 186.493723 
L 406.79216 189.953052 
L 422.643286 235.456559 
L 423.682566 239.043033 
L 424.077471 240.845027 
L 424.337397 242.650594 
L 424.42348 244.458036 
L 424.296995 246.265583 
L 423.936252 248.063091 
L 423.352442 249.82424 
L 422.560509 251.520866 
L 421.575396 253.124805 
L 420.412045 254.607892 
L 419.085521 255.940465 
L 417.612359 257.074785 
L 416.010065 257.951146 
L 414.296593 258.511759 
L 412.501899 258.758686 
L 410.669294 258.760552 
L 408.840469 258.587313 
L 405.233497 257.877078 
L 401.669039 256.86699 
L 389.226993 253.115179 
L 342.964829 239.685912 
L 293.168166 225.17203 
L 293.168166 225.17203 
" clip-path="url(#p586a73c167)" style="fill: none; stroke: #575fcf; stroke-width: 2; stroke-linecap: square"/>
   </g>
   <g id="line2d_2">
    <path d="M 290.457822 224.103835 
L 246.595978 209.693519 
L 219.612514 201.061433 
L 197.562606 194.22911 
L 179.461964 188.836345 
L 175.397076 187.794619 
L 172.310118 187.189558 
L 169.186255 186.800951 
L 166.046189 186.682405 
L 162.901654 186.875583 
L 159.785395 187.378104 
L 156.713769 188.165811 
L 153.726661 189.030193 
L 148.606144 190.187407 
L 145.59691 191.111225 
L 141.644897 192.547251 
L 131.848463 196.279528 
L 129.820763 196.818174 
L 127.744718 197.142745 
L 125.650498 197.187599 
L 123.575605 196.913317 
L 121.563632 196.327686 
L 119.650941 195.465543 
L 117.868491 194.359959 
L 116.236418 193.044174 
L 114.767416 191.546342 
L 113.477072 189.891989 
L 112.379486 188.104479 
L 111.487092 186.205649 
L 110.81224 184.220062 
L 110.364958 182.169292 
L 110.156293 180.081948 
L 110.196421 177.986804 
L 110.488867 175.911528 
L 111.025141 173.884304 
L 111.792716 171.93083 
L 112.779206 170.08093 
L 113.977312 168.358091 
L 115.373802 166.791313 
L 116.946758 165.402433 
L 118.661216 164.190315 
L 121.352677 162.590655 
L 124.158248 161.166247 
L 127.089461 159.992101 
L 130.107814 159.096504 
L 133.194023 158.473971 
L 136.318343 158.106172 
L 139.464968 157.980296 
L 142.608444 158.087029 
L 146.783492 158.506912 
L 151.971812 159.282239 
L 158.157538 160.451767 
L 165.322751 162.065381 
L 174.47637 164.386967 
L 193.779188 169.371194 
L 200.951385 170.953392 
L 207.143932 172.085649 
L 212.338039 172.821113 
L 216.51875 173.180409 
L 219.663744 173.202328 
L 222.796445 172.930398 
L 224.860373 172.559913 
L 227.900653 171.726213 
L 230.857091 170.598586 
L 233.680351 169.219923 
L 237.320137 167.162311 
L 238.993176 165.888144 
L 240.47062 164.404422 
L 241.729951 162.730787 
L 242.748219 160.897891 
L 243.510597 158.943699 
L 244.005507 156.905858 
L 244.224329 154.820742 
L 244.158415 152.724354 
L 243.792184 150.657733 
L 243.114542 148.672213 
L 242.135275 146.822662 
L 240.921686 145.119347 
L 239.543594 143.535633 
L 237.273072 141.361756 
L 234.841199 139.373689 
L 232.265119 137.5398 
L 229.545016 135.944528 
L 227.644554 135.067934 
L 224.679834 134.019663 
L 221.638423 133.213118 
L 216.498308 132.164954 
L 140.161884 117.96357 
L 134.961541 117.276572 
L 130.776712 116.960482 
L 127.631067 116.900605 
L 124.486431 117.017952 
L 121.353612 117.330525 
L 118.242228 117.852452 
L 108.992481 119.694987 
L 102.780347 120.684732 
L 99.704363 121.372727 
L 96.683618 122.261371 
L 93.748386 123.405236 
L 91.87323 124.344043 
L 90.096351 125.453062 
L 88.447068 126.748866 
L 86.927764 128.19332 
L 84.839753 130.550779 
L 82.936956 133.066264 
L 80.612501 136.562314 
L 77.189211 141.821096 
L 74.132287 146.083057 
L 72.49831 148.789366 
L 71.545744 150.662768 
L 70.745874 152.601515 
L 70.134533 154.604649 
L 69.722603 156.658166 
L 69.508452 158.742718 
L 69.480306 160.840085 
L 69.619287 162.935504 
L 70.078662 166.049248 
L 70.779549 169.121497 
L 71.679888 172.144076 
L 72.944016 176.121323 
L 73.272206 179.226548 
L 74.036044 185.526295 
L 74.712658 191.770708 
L 74.861837 194.911011 
L 74.706946 197.003461 
L 74.27325 199.056054 
L 73.559348 201.027974 
L 72.577661 202.879618 
L 71.344148 204.575388 
L 69.888907 206.085517 
L 68.242336 207.383423 
L 66.436932 208.45043 
L 64.510476 209.27633 
L 62.495096 209.857958 
L 60.423586 210.190952 
L 58.32725 210.271985 
L 56.236561 210.098795 
L 54.184525 209.669873 
L 52.203065 208.982085 
L 50.334186 208.034985 
L 48.6109 206.838647 
L 47.066568 205.419939 
L 45.706694 203.822033 
L 43.935853 201.22426 
L 41.824396 197.608043 
L 40.385576 194.802663 
L 39.190503 191.880005 
L 38.305659 188.865481 
L 37.711579 185.774204 
L 37.368501 182.646587 
L 37.20273 178.45402 
L 37.272147 172.159217 
L 37.697603 156.428197 
L 38.02613 153.298695 
L 38.566139 150.197881 
L 39.350845 147.152623 
L 40.365743 144.169418 
L 41.596976 141.270953 
L 43.066223 138.462779 
L 44.691362 135.788946 
L 49.401103 124.105198 
L 50.316907 122.249757 
L 52.871103 117.669057 
L 54.639026 113.832137 
L 55.815434 110.929669 
L 58.338715 104.037669 
L 59.302901 102.174455 
L 60.431979 100.405856 
L 61.713518 98.745082 
L 63.136018 97.203083 
L 64.687408 95.791101 
L 66.355186 94.518252 
L 68.123729 93.39055 
L 69.976886 92.406703 
L 72.874158 91.178655 
L 75.863643 90.195812 
L 79.926844 89.150657 
L 85.058706 88.082694 
L 89.212233 87.447438 
L 92.350392 87.157114 
L 95.49417 87.071272 
L 98.638059 87.20275 
L 102.809816 87.652218 
L 107.986285 88.503419 
L 119.309363 90.740984 
L 207.824202 108.291342 
L 269.649106 120.160648 
L 272.67199 121.0309 
L 275.618215 122.134725 
L 278.446223 123.514569 
L 280.242329 124.600046 
L 281.949623 125.820552 
L 283.546816 127.182725 
L 285.028633 128.704815 
L 286.427134 130.221686 
L 289.430341 133.150619 
L 291.451879 135.56797 
L 293.273339 138.137601 
L 294.901887 140.833592 
L 296.343905 143.630035 
L 299.574118 150.2244 
L 301.196724 152.922774 
L 303.027552 155.49086 
L 305.045189 157.905406 
L 307.24389 160.164214 
L 311.797446 164.472544 
L 313.500312 165.72283 
L 315.290448 166.818001 
L 317.158348 167.771184 
L 320.075834 168.944768 
L 323.09305 169.836447 
L 326.172566 170.486691 
L 330.328356 171.064546 
L 334.512146 171.384276 
L 338.707297 171.47892 
L 343.952651 171.368825 
L 352.335575 170.927878 
L 360.720029 170.529482 
L 365.965768 170.460099 
L 371.209104 170.622494 
L 375.391059 170.971719 
L 379.545169 171.564955 
L 382.62001 172.233914 
L 385.623298 173.160955 
L 388.524057 174.382832 
L 391.30702 175.86014 
L 393.969892 177.552197 
L 396.488577 179.437084 
L 400.521783 182.733412 
L 403.050416 184.621538 
L 404.610419 186.047552 
L 406.735578 188.371809 
L 408.633808 190.882727 
L 410.303701 193.55112 
L 411.736276 196.349872 
L 412.972676 199.244031 
L 414.788886 204.165554 
L 422.062577 224.961792 
L 422.83361 228.012638 
L 423.36973 231.11392 
L 423.604996 234.247023 
L 423.505632 237.398534 
L 423.097785 240.526697 
L 422.397569 243.603624 
L 421.478821 246.596239 
L 420.759008 248.564385 
L 419.853196 250.456656 
L 418.68895 252.202858 
L 417.248709 253.725309 
L 415.55021 254.967981 
L 412.823123 256.464167 
L 410.868189 257.278142 
L 408.852777 257.877378 
L 406.796586 258.292329 
L 404.712017 258.545305 
L 402.613567 258.646181 
L 400.514006 258.59817 
L 398.427142 258.396374 
L 395.336413 257.823833 
L 391.284201 256.734017 
L 379.250376 253.028914 
L 355.25258 245.395019 
L 325.32562 235.634431 
L 292.449997 224.763543 
L 292.449997 224.763543 
" clip-path="url(#p586a73c167)" style="fill: none; stroke: #f53b57; stroke-width: 2; stroke-linecap: square"/>
   </g>
   <g id="line2d_3">
    <path d="M 293.0088 219.111873 
L 184.577592 187.317121 
L 162.885937 181.034982 
L 160.746912 180.549713 
L 158.446235 180.185347 
L 155.97337 180.03914 
L 153.343458 180.235318 
L 150.724323 180.86982 
L 148.335602 181.859823 
L 146.222728 183.053183 
L 144.337459 184.345992 
L 141.084417 186.935462 
L 137.002645 190.214313 
L 134.498184 191.886557 
L 131.954041 193.143814 
L 130.624256 193.620694 
L 129.28445 193.981126 
L 127.963995 194.214659 
L 126.690521 194.315724 
L 125.477208 194.283002 
L 124.297147 194.114461 
L 123.121484 193.811319 
L 121.956339 193.37613 
L 120.817284 192.814333 
L 119.721486 192.134074 
L 118.683271 191.343542 
L 117.709311 190.447973 
L 116.805089 189.453766 
L 115.979454 188.371214 
L 115.241277 187.212394 
L 114.598833 185.99072 
L 114.05947 184.720598 
L 113.629371 183.417053 
L 113.313392 182.095329 
L 113.11496 180.770429 
L 113.036082 179.456564 
L 113.077698 178.164101 
L 113.241671 176.887848 
L 113.527831 175.618288 
L 113.934653 174.36006 
L 114.459423 173.123653 
L 115.098449 171.920308 
L 115.846719 170.762041 
L 116.694356 169.665995 
L 117.622376 168.659485 
L 118.608453 167.767992 
L 119.629159 167.011484 
L 120.661077 166.403777 
L 121.708771 165.941866 
L 122.834964 165.598862 
L 124.09219 165.352212 
L 126.986101 165.136346 
L 130.254698 165.230667 
L 133.687386 165.53269 
L 140.89993 166.456402 
L 184.997617 172.239253 
L 227.576138 177.613912 
L 229.736634 177.74593 
L 232.040698 177.722456 
L 234.478064 177.455369 
L 237.003697 176.852407 
L 239.473552 175.876161 
L 241.747091 174.611646 
L 243.798608 173.148512 
L 245.645797 171.523561 
L 247.299941 169.738868 
L 248.754105 167.80527 
L 250.000591 165.740713 
L 251.033168 163.565199 
L 251.845993 161.2962 
L 252.431901 158.950395 
L 252.782171 156.544543 
L 252.886619 154.098692 
L 252.736909 151.640746 
L 252.329374 149.199887 
L 251.657594 146.79971 
L 250.710906 144.466255 
L 249.476409 142.232533 
L 247.959185 140.159254 
L 246.207946 138.310452 
L 244.278812 136.706515 
L 242.207761 135.343497 
L 240.023551 134.217154 
L 237.752797 133.32665 
L 235.478685 132.685532 
L 231.41697 131.951253 
L 224.258098 130.693822 
L 116.279118 110.613779 
L 113.940482 110.490772 
L 111.542883 110.591937 
L 109.191876 110.907418 
L 106.917976 111.410905 
L 104.740579 112.074938 
L 102.665805 112.869449 
L 98.808017 114.741005 
L 95.296745 116.828633 
L 84.544433 123.787428 
L 81.206569 125.813644 
L 77.717121 128.258443 
L 76.001061 129.695362 
L 74.359623 131.279359 
L 72.820853 133.018809 
L 71.414958 134.923772 
L 70.177692 137.002026 
L 69.159671 139.2321 
L 68.406086 141.512113 
L 67.882323 143.735916 
L 67.253919 147.895406 
L 66.579634 153.342537 
L 65.405479 160.379977 
L 64.421253 166.083264 
L 63.96316 170.234181 
L 63.875548 172.44522 
L 63.959228 174.828808 
L 64.35394 177.414914 
L 65.201877 180.055568 
L 66.40174 182.378482 
L 70.264821 188.453981 
L 71.354735 190.955815 
L 71.692239 192.147744 
L 71.897943 193.351578 
L 71.977389 194.601392 
L 71.928932 195.882673 
L 71.751821 197.164212 
L 71.449494 198.414987 
L 71.028591 199.607225 
L 70.491417 200.7312 
L 69.83793 201.793084 
L 69.073844 202.788357 
L 68.20977 203.704592 
L 67.258115 204.529454 
L 66.229157 205.253713 
L 65.123868 205.875754 
L 63.944318 206.396131 
L 62.70253 206.809851 
L 61.413877 207.111732 
L 60.095137 207.297761 
L 58.763881 207.365379 
L 57.43787 207.313615 
L 56.134442 207.143077 
L 54.869877 206.855798 
L 53.658705 206.454876 
L 52.512311 205.943453 
L 51.428429 205.317317 
L 50.399934 204.571562 
L 49.436324 203.713954 
L 48.556568 202.760855 
L 47.778119 201.731374 
L 47.115741 200.646156 
L 46.578931 199.521913 
L 46.170167 198.367494 
L 45.888851 197.181937 
L 45.727378 195.890849 
L 45.649202 192.680891 
L 45.788095 179.803384 
L 46.190382 151.922396 
L 46.259314 142.9482 
L 46.546268 139.783735 
L 47.020699 137.524583 
L 47.247817 137.042563 
L 47.670627 136.579786 
L 48.577992 135.846092 
L 51.611338 133.742749 
L 53.486086 132.279571 
L 55.369675 130.400325 
L 57.006261 128.148409 
L 58.259562 125.624664 
L 59.040898 122.96408 
L 59.37333 120.41143 
L 59.421879 118.098239 
L 59.228012 112.648316 
L 59.310835 111.224293 
L 59.80469 108.464975 
L 60.717412 105.790737 
L 62.021928 103.248341 
L 63.684408 100.891644 
L 65.66384 98.775941 
L 67.927156 96.941432 
L 70.453211 95.398981 
L 73.187952 94.173315 
L 76.066288 93.2893 
L 79.018909 92.766307 
L 81.978623 92.617073 
L 85.016026 92.842619 
L 88.295287 93.376999 
L 142.8134 104.157828 
L 230.086354 120.956222 
L 283.506963 131.81369 
L 284.168689 132.124206 
L 284.710761 132.569293 
L 285.381914 133.341653 
L 286.114838 134.406698 
L 287.485695 136.996367 
L 288.723237 140.049356 
L 293.266316 152.218916 
L 295.424854 157.682582 
L 296.347461 159.635431 
L 297.44622 161.619251 
L 298.768289 163.599081 
L 300.363614 165.535965 
L 302.286928 167.36841 
L 304.583529 168.977202 
L 307.087578 170.145402 
L 309.454022 170.860283 
L 313.484297 171.67624 
L 319.174582 172.584759 
L 326.664996 173.541795 
L 343.14098 175.568145 
L 367.072375 178.63458 
L 390.714038 181.685644 
L 393.703146 182.327515 
L 395.030298 182.754493 
L 396.204896 183.249623 
L 397.129977 183.772314 
L 397.770184 184.278683 
L 398.283547 184.902236 
L 398.855824 185.868602 
L 400.13745 188.694123 
L 401.946707 193.582507 
L 406.836722 207.646034 
L 415.436123 231.966335 
L 417.647301 238.85291 
L 418.397942 241.875954 
L 418.591351 243.200877 
L 418.651505 244.393526 
L 418.576666 245.492473 
L 418.357097 246.58225 
L 417.989031 247.690304 
L 417.478019 248.784419 
L 416.837552 249.827428 
L 416.087898 250.784071 
L 415.269394 251.609526 
L 414.453666 252.243375 
L 413.71475 252.65479 
L 413.001729 252.886531 
L 412.106907 252.99988 
L 410.939172 252.994529 
L 408.144923 252.619921 
L 405.021676 251.842032 
L 369.479637 241.374092 
L 294.786576 219.631217 
L 294.786576 219.631217 
" clip-path="url(#p586a73c167)" style="fill: none; stroke: #05c46b; stroke-linecap: square"/>
   </g>
   <g id="line2d_4">
    <path d="M 289.771122 230.193248 
L 181.314934 198.391167 
L 160.110974 192.241186 
L 157.172465 191.659532 
L 156.0255 191.583693 
L 155.124015 191.641853 
L 154.329543 191.837126 
L 153.425458 192.221908 
L 152.352667 192.835988 
L 149.834644 194.686103 
L 143.841866 199.515092 
L 142.139405 200.714087 
L 140.314317 201.85912 
L 138.352531 202.918141 
L 136.262664 203.854332 
L 134.069413 204.639329 
L 131.784878 205.251764 
L 129.418863 205.667292 
L 126.982915 205.856692 
L 124.50303 205.786497 
L 122.043041 205.436936 
L 119.661724 204.825378 
L 117.381525 203.975682 
L 115.215436 202.908823 
L 113.174854 201.643071 
L 111.273699 200.196659 
L 109.525756 198.590998 
L 107.93796 196.846563 
L 106.513511 194.979946 
L 105.255585 193.005958 
L 104.167956 190.938066 
L 103.255326 188.788753 
L 102.523557 186.569878 
L 101.979844 184.293082 
L 101.632806 181.970248 
L 101.492485 179.61405 
L 101.569991 177.241007 
L 101.872478 174.882637 
L 102.392407 172.571692 
L 103.11784 170.325709 
L 104.038025 168.15637 
L 105.143188 166.074609 
L 106.424878 164.090583 
L 107.878408 162.212239 
L 109.502244 160.453213 
L 111.296177 158.834344 
L 113.261096 157.381987 
L 115.397881 156.128652 
L 117.679403 155.123196 
L 120.01822 154.403087 
L 122.333465 153.942291 
L 124.59631 153.688865 
L 128.912486 153.611817 
L 132.965734 153.859989 
L 138.736773 154.520567 
L 190.145855 161.262108 
L 228.545087 166.109975 
L 231.372594 166.197134 
L 232.522038 166.077611 
L 233.527703 165.843461 
L 234.517128 165.449595 
L 235.570018 164.858534 
L 236.625947 164.102388 
L 237.592364 163.251824 
L 238.442375 162.334616 
L 239.186223 161.345002 
L 239.830935 160.276509 
L 240.370829 159.138693 
L 240.797872 157.946804 
L 241.105345 156.716888 
L 241.288093 155.464906 
L 241.342424 154.203541 
L 241.265911 152.942904 
L 241.060114 151.706522 
L 240.730845 150.526048 
L 240.288152 149.430692 
L 239.744329 148.44269 
L 239.094971 147.555546 
L 238.318218 146.738478 
L 237.409161 145.984841 
L 236.383956 145.311582 
L 235.265983 144.735945 
L 234.080761 144.271766 
L 232.796681 143.914347 
L 229.586921 143.349952 
L 222.148394 142.044089 
L 115.228831 122.110575 
L 113.877124 122.035269 
L 112.559358 122.091772 
L 111.212517 122.273879 
L 109.85483 122.575774 
L 107.123009 123.518992 
L 104.333532 124.877479 
L 101.482094 126.576498 
L 90.448005 133.70848 
L 86.082503 136.430392 
L 83.716461 138.283262 
L 81.792701 140.284163 
L 81.026386 141.319074 
L 80.401699 142.363846 
L 79.910769 143.438443 
L 79.520861 144.633205 
L 78.936193 147.579947 
L 77.415761 158.74784 
L 75.629255 169.397188 
L 75.420126 172.491431 
L 75.457192 173.791383 
L 75.59834 174.799021 
L 75.850186 175.595417 
L 76.352762 176.52557 
L 79.428642 181.209726 
L 80.500915 183.115273 
L 81.474192 185.143489 
L 82.307784 187.307508 
L 82.954519 189.609938 
L 83.364749 192.012999 
L 83.521101 194.452561 
L 83.42931 196.892981 
L 83.094346 199.315155 
L 82.516991 201.699791 
L 81.694819 204.024352 
L 80.631456 206.250171 
L 79.347401 208.339028 
L 77.864742 210.271641 
L 76.200722 212.036705 
L 74.370791 213.622818 
L 72.392531 215.015488 
L 70.294115 216.197961 
L 68.105837 217.164658 
L 65.848529 217.917601 
L 63.539675 218.458997 
L 61.19535 218.789887 
L 58.830841 218.909856 
L 56.461242 218.816903 
L 54.102069 218.507447 
L 51.769901 217.976481 
L 49.483061 217.217934 
L 47.26302 216.225689 
L 45.144793 215.002117 
L 43.166469 213.569141 
L 41.348037 211.951614 
L 39.699968 210.166263 
L 38.234254 208.22707 
L 36.965573 206.146475 
L 35.913402 203.940727 
L 35.096596 201.631762 
L 34.530842 199.249562 
L 34.226655 196.897231 
L 34.104545 192.69914 
L 34.245148 179.603871 
L 34.645711 151.922797 
L 34.730817 142.337306 
L 35.118054 138.148084 
L 35.52039 135.857235 
L 36.278123 133.296523 
L 37.660106 130.611761 
L 39.590071 128.334543 
L 41.574702 126.668218 
L 45.874054 123.599917 
L 46.609139 122.881518 
L 47.138308 122.156502 
L 47.510139 121.414042 
L 47.737204 120.617607 
L 47.858296 119.584732 
L 47.81058 116.541886 
L 47.686105 112.395717 
L 47.821754 110.092734 
L 48.139211 107.805876 
L 48.629343 105.568243 
L 49.283474 103.388285 
L 50.09314 101.273629 
L 51.050238 99.231265 
L 52.147117 97.267745 
L 53.376604 95.389368 
L 54.731998 93.602351 
L 56.207021 91.912975 
L 57.795693 90.327765 
L 59.489742 88.855511 
L 61.276096 87.505181 
L 63.14197 86.280451 
L 65.078035 85.18199 
L 67.075715 84.210401 
L 69.126888 83.366503 
L 71.223786 82.651407 
L 73.35891 82.066576 
L 75.524925 81.613866 
L 77.71458 81.295555 
L 79.920598 81.114366 
L 82.132256 81.073424 
L 84.314993 81.17149 
L 88.472877 81.682194 
L 94.174708 82.794933 
L 108.66344 85.674699 
L 150.43744 93.85978 
L 223.271645 107.815786 
L 285.434028 120.34006 
L 287.803552 121.098339 
L 290.365652 122.383719 
L 292.662963 124.200189 
L 294.459891 126.209349 
L 295.86652 128.227369 
L 297.015089 130.217586 
L 298.808101 134.120279 
L 301.441566 141.231591 
L 305.975358 152.995761 
L 307.309692 155.619972 
L 308.041531 156.722569 
L 308.829055 157.686395 
L 309.626114 158.456857 
L 310.361161 158.982284 
L 311.166366 159.345267 
L 312.308806 159.674147 
L 317.273583 160.61471 
L 324.388315 161.635375 
L 375.880635 168.112921 
L 392.623709 170.300013 
L 394.707126 170.692189 
L 396.860178 171.222895 
L 399.07272 171.940694 
L 401.346143 172.91294 
L 403.64356 174.240647 
L 405.84524 176.028053 
L 407.668619 178.179153 
L 409.000608 180.358359 
L 410.810425 184.293323 
L 412.225317 188.003523 
L 428.152132 233.73247 
L 429.28756 237.663212 
L 429.757 239.8141 
L 430.083443 242.10031 
L 430.195455 244.522546 
L 430.017323 247.038693 
L 429.515406 249.543932 
L 428.715853 251.958176 
L 427.643 254.257313 
L 426.31324 256.422181 
L 424.736192 258.431714 
L 422.901649 260.271404 
L 420.771052 261.906194 
L 418.30538 263.247502 
L 415.591457 264.136987 
L 412.896891 264.517491 
L 410.399416 264.526576 
L 408.090292 264.310694 
L 405.914532 263.947092 
L 401.874114 262.949339 
L 362.705318 251.429815 
L 291.549756 230.712842 
L 291.549756 230.712842 
" clip-path="url(#p586a73c167)" style="fill: none; stroke: #05c46b; stroke-linecap: square"/>
   </g>
   <g id="patch_3">
    <path d="M 14.3 273.699233 
L 14.3 71.900767 
" style="fill: none; stroke: #000000; stroke-width: 0.8; stroke-linejoin: miter; stroke-linecap: square"/>
   </g>
   <g id="patch_4">
    <path d="M 450 273.699233 
L 450 71.900767 
" style="fill: none; stroke: #000000; stroke-width: 0.8; stroke-linejoin: miter; stroke-linecap: square"/>
   </g>
   <g id="patch_5">
    <path d="M 14.3 273.699233 
L 450 273.699233 
" style="fill: none; stroke: #000000; stroke-width: 0.8; stroke-linejoin: miter; stroke-linecap: square"/>
   </g>
   <g id="patch_6">
    <path d="M 14.3 71.900767 
L 450 71.900767 
" style="fill: none; stroke: #000000; stroke-width: 0.8; stroke-linejoin: miter; stroke-linecap: square"/>
   </g>
   <g id="legend_1">
    <g id="patch_7">
     <path d="M 354.617188 123.935142 
L 443 123.935142 
Q 445 123.935142 445 121.935142 
L 445 78.900767 
Q 445 76.900767 443 76.900767 
L 354.617188 76.900767 
Q 352.617188 76.900767 352.617188 78.900767 
L 352.617188 121.935142 
Q 352.617188 123.935142 354.617188 123.935142 
z
" style="fill: #ffffff; opacity: 0.8; stroke: #cccccc; stroke-linejoin: miter"/>
    </g>
    <g id="line2d_5">
     <path d="M 356.617188 84.999204 
L 366.617188 84.999204 
L 376.617188 84.999204 
" style="fill: none; stroke: #575fcf; stroke-width: 2; stroke-linecap: square"/>
    </g>
    <g id="text_1">
     <!-- Track -->
     <g transform="translate(384.617188 88.499204)scale(0.1 -0.1)">
      <defs>
       <path id="DejaVuSans-54" d="M -19 4666 
L 3928 4666 
L 3928 4134 
L 2272 4134 
L 2272 0 
L 1638 0 
L 1638 4134 
L -19 4134 
L -19 4666 
z
" transform="scale(0.015625)"/>
       <path id="DejaVuSans-72" d="M 2631 2963 
Q 2534 3019 2420 3045 
Q 2306 3072 2169 3072 
Q 1681 3072 1420 2755 
Q 1159 2438 1159 1844 
L 1159 0 
L 581 0 
L 581 3500 
L 1159 3500 
L 1159 2956 
Q 1341 3275 1631 3429 
Q 1922 3584 2338 3584 
Q 2397 3584 2469 3576 
Q 2541 3569 2628 3553 
L 2631 2963 
z
" transform="scale(0.015625)"/>
       <path id="DejaVuSans-61" d="M 2194 1759 
Q 1497 1759 1228 1600 
Q 959 1441 959 1056 
Q 959 750 1161 570 
Q 1363 391 1709 391 
Q 2188 391 2477 730 
Q 2766 1069 2766 1631 
L 2766 1759 
L 2194 1759 
z
M 3341 1997 
L 3341 0 
L 2766 0 
L 2766 531 
Q 2569 213 2275 61 
Q 1981 -91 1556 -91 
Q 1019 -91 701 211 
Q 384 513 384 1019 
Q 384 1609 779 1909 
Q 1175 2209 1959 2209 
L 2766 2209 
L 2766 2266 
Q 2766 2663 2505 2880 
Q 2244 3097 1772 3097 
Q 1472 3097 1187 3025 
Q 903 2953 641 2809 
L 641 3341 
Q 956 3463 1253 3523 
Q 1550 3584 1831 3584 
Q 2591 3584 2966 3190 
Q 3341 2797 3341 1997 
z
" transform="scale(0.015625)"/>
       <path id="DejaVuSans-63" d="M 3122 3366 
L 3122 2828 
Q 2878 2963 2633 3030 
Q 2388 3097 2138 3097 
Q 1578 3097 1268 2742 
Q 959 2388 959 1747 
Q 959 1106 1268 751 
Q 1578 397 2138 397 
Q 2388 397 2633 464 
Q 2878 531 3122 666 
L 3122 134 
Q 2881 22 2623 -34 
Q 2366 -91 2075 -91 
Q 1284 -91 818 406 
Q 353 903 353 1747 
Q 353 2603 823 3093 
Q 1294 3584 2113 3584 
Q 2378 3584 2631 3529 
Q 2884 3475 3122 3366 
z
" transform="scale(0.015625)"/>
       <path id="DejaVuSans-6b" d="M 581 4863 
L 1159 4863 
L 1159 1991 
L 2875 3500 
L 3609 3500 
L 1753 1863 
L 3688 0 
L 2938 0 
L 1159 1709 
L 1159 0 
L 581 0 
L 581 4863 
z
" transform="scale(0.015625)"/>
      </defs>
      <use xlink:href="#DejaVuSans-54"/>
      <use xlink:href="#DejaVuSans-72" x="46.333984"/>
      <use xlink:href="#DejaVuSans-61" x="87.447266"/>
      <use xlink:href="#DejaVuSans-63" x="148.726562"/>
      <use xlink:href="#DejaVuSans-6b" x="203.707031"/>
     </g>
    </g>
    <g id="line2d_6">
     <path d="M 356.617188 99.677329 
L 366.617188 99.677329 
L 376.617188 99.677329 
" style="fill: none; stroke: #f53b57; stroke-width: 2; stroke-linecap: square"/>
    </g>
    <g id="text_2">
     <!-- Raceline -->
     <g transform="translate(384.617188 103.177329)scale(0.1 -0.1)">
      <defs>
       <path id="DejaVuSans-52" d="M 2841 2188 
Q 3044 2119 3236 1894 
Q 3428 1669 3622 1275 
L 4263 0 
L 3584 0 
L 2988 1197 
Q 2756 1666 2539 1819 
Q 2322 1972 1947 1972 
L 1259 1972 
L 1259 0 
L 628 0 
L 628 4666 
L 2053 4666 
Q 2853 4666 3247 4331 
Q 3641 3997 3641 3322 
Q 3641 2881 3436 2590 
Q 3231 2300 2841 2188 
z
M 1259 4147 
L 1259 2491 
L 2053 2491 
Q 2509 2491 2742 2702 
Q 2975 2913 2975 3322 
Q 2975 3731 2742 3939 
Q 2509 4147 2053 4147 
L 1259 4147 
z
" transform="scale(0.015625)"/>
       <path id="DejaVuSans-65" d="M 3597 1894 
L 3597 1613 
L 953 1613 
Q 991 1019 1311 708 
Q 1631 397 2203 397 
Q 2534 397 2845 478 
Q 3156 559 3463 722 
L 3463 178 
Q 3153 47 2828 -22 
Q 2503 -91 2169 -91 
Q 1331 -91 842 396 
Q 353 884 353 1716 
Q 353 2575 817 3079 
Q 1281 3584 2069 3584 
Q 2775 3584 3186 3129 
Q 3597 2675 3597 1894 
z
M 3022 2063 
Q 3016 2534 2758 2815 
Q 2500 3097 2075 3097 
Q 1594 3097 1305 2825 
Q 1016 2553 972 2059 
L 3022 2063 
z
" transform="scale(0.015625)"/>
       <path id="DejaVuSans-6c" d="M 603 4863 
L 1178 4863 
L 1178 0 
L 603 0 
L 603 4863 
z
" transform="scale(0.015625)"/>
       <path id="DejaVuSans-69" d="M 603 3500 
L 1178 3500 
L 1178 0 
L 603 0 
L 603 3500 
z
M 603 4863 
L 1178 4863 
L 1178 4134 
L 603 4134 
L 603 4863 
z
" transform="scale(0.015625)"/>
       <path id="DejaVuSans-6e" d="M 3513 2113 
L 3513 0 
L 2938 0 
L 2938 2094 
Q 2938 2591 2744 2837 
Q 2550 3084 2163 3084 
Q 1697 3084 1428 2787 
Q 1159 2491 1159 1978 
L 1159 0 
L 581 0 
L 581 3500 
L 1159 3500 
L 1159 2956 
Q 1366 3272 1645 3428 
Q 1925 3584 2291 3584 
Q 2894 3584 3203 3211 
Q 3513 2838 3513 2113 
z
" transform="scale(0.015625)"/>
      </defs>
      <use xlink:href="#DejaVuSans-52"/>
      <use xlink:href="#DejaVuSans-61" x="67.232422"/>
      <use xlink:href="#DejaVuSans-63" x="128.511719"/>
      <use xlink:href="#DejaVuSans-65" x="183.492188"/>
      <use xlink:href="#DejaVuSans-6c" x="245.015625"/>
      <use xlink:href="#DejaVuSans-69" x="272.798828"/>
      <use xlink:href="#DejaVuSans-6e" x="300.582031"/>
      <use xlink:href="#DejaVuSans-65" x="363.960938"/>
     </g>
    </g>
    <g id="line2d_7">
     <path d="M 356.617188 114.355454 
L 366.617188 114.355454 
L 376.617188 114.355454 
" style="fill: none; stroke: #05c46b; stroke-linecap: square"/>
    </g>
    <g id="text_3">
     <!-- Boundaries -->
     <g transform="translate(384.617188 117.855454)scale(0.1 -0.1)">
      <defs>
       <path id="DejaVuSans-42" d="M 1259 2228 
L 1259 519 
L 2272 519 
Q 2781 519 3026 730 
Q 3272 941 3272 1375 
Q 3272 1813 3026 2020 
Q 2781 2228 2272 2228 
L 1259 2228 
z
M 1259 4147 
L 1259 2741 
L 2194 2741 
Q 2656 2741 2882 2914 
Q 3109 3088 3109 3444 
Q 3109 3797 2882 3972 
Q 2656 4147 2194 4147 
L 1259 4147 
z
M 628 4666 
L 2241 4666 
Q 2963 4666 3353 4366 
Q 3744 4066 3744 3513 
Q 3744 3084 3544 2831 
Q 3344 2578 2956 2516 
Q 3422 2416 3680 2098 
Q 3938 1781 3938 1306 
Q 3938 681 3513 340 
Q 3088 0 2303 0 
L 628 0 
L 628 4666 
z
" transform="scale(0.015625)"/>
       <path id="DejaVuSans-6f" d="M 1959 3097 
Q 1497 3097 1228 2736 
Q 959 2375 959 1747 
Q 959 1119 1226 758 
Q 1494 397 1959 397 
Q 2419 397 2687 759 
Q 2956 1122 2956 1747 
Q 2956 2369 2687 2733 
Q 2419 3097 1959 3097 
z
M 1959 3584 
Q 2709 3584 3137 3096 
Q 3566 2609 3566 1747 
Q 3566 888 3137 398 
Q 2709 -91 1959 -91 
Q 1206 -91 779 398 
Q 353 888 353 1747 
Q 353 2609 779 3096 
Q 1206 3584 1959 3584 
z
" transform="scale(0.015625)"/>
       <path id="DejaVuSans-75" d="M 544 1381 
L 544 3500 
L 1119 3500 
L 1119 1403 
Q 1119 906 1312 657 
Q 1506 409 1894 409 
Q 2359 409 2629 706 
Q 2900 1003 2900 1516 
L 2900 3500 
L 3475 3500 
L 3475 0 
L 2900 0 
L 2900 538 
Q 2691 219 2414 64 
Q 2138 -91 1772 -91 
Q 1169 -91 856 284 
Q 544 659 544 1381 
z
M 1991 3584 
L 1991 3584 
z
" transform="scale(0.015625)"/>
       <path id="DejaVuSans-64" d="M 2906 2969 
L 2906 4863 
L 3481 4863 
L 3481 0 
L 2906 0 
L 2906 525 
Q 2725 213 2448 61 
Q 2172 -91 1784 -91 
Q 1150 -91 751 415 
Q 353 922 353 1747 
Q 353 2572 751 3078 
Q 1150 3584 1784 3584 
Q 2172 3584 2448 3432 
Q 2725 3281 2906 2969 
z
M 947 1747 
Q 947 1113 1208 752 
Q 1469 391 1925 391 
Q 2381 391 2643 752 
Q 2906 1113 2906 1747 
Q 2906 2381 2643 2742 
Q 2381 3103 1925 3103 
Q 1469 3103 1208 2742 
Q 947 2381 947 1747 
z
" transform="scale(0.015625)"/>
       <path id="DejaVuSans-73" d="M 2834 3397 
L 2834 2853 
Q 2591 2978 2328 3040 
Q 2066 3103 1784 3103 
Q 1356 3103 1142 2972 
Q 928 2841 928 2578 
Q 928 2378 1081 2264 
Q 1234 2150 1697 2047 
L 1894 2003 
Q 2506 1872 2764 1633 
Q 3022 1394 3022 966 
Q 3022 478 2636 193 
Q 2250 -91 1575 -91 
Q 1294 -91 989 -36 
Q 684 19 347 128 
L 347 722 
Q 666 556 975 473 
Q 1284 391 1588 391 
Q 1994 391 2212 530 
Q 2431 669 2431 922 
Q 2431 1156 2273 1281 
Q 2116 1406 1581 1522 
L 1381 1569 
Q 847 1681 609 1914 
Q 372 2147 372 2553 
Q 372 3047 722 3315 
Q 1072 3584 1716 3584 
Q 2034 3584 2315 3537 
Q 2597 3491 2834 3397 
z
" transform="scale(0.015625)"/>
      </defs>
      <use xlink:href="#DejaVuSans-42"/>
      <use xlink:href="#DejaVuSans-6f" x="68.603516"/>
      <use xlink:href="#DejaVuSans-75" x="129.785156"/>
      <use xlink:href="#DejaVuSans-6e" x="193.164062"/>
      <use xlink:href="#DejaVuSans-64" x="256.542969"/>
      <use xlink:href="#DejaVuSans-61" x="320.019531"/>
      <use xlink:href="#DejaVuSans-72" x="381.298828"/>
      <use xlink:href="#DejaVuSans-69" x="422.412109"/>
      <use xlink:href="#DejaVuSans-65" x="450.195312"/>
      <use xlink:href="#DejaVuSans-73" x="511.71875"/>
     </g>
    </g>
   </g>
  </g>
 </g>
 <defs>
  <clipPath id="p586a73c167">
   <rect x="14.3" y="71.900767" width="435.7" height="201.798466"/>
  </clipPath>
 </defs>
</svg>
