<?xml version="1.0" encoding="utf-8" standalone="no"?>
<!DOCTYPE svg PUBLIC "-//W3C//DTD SVG 1.1//EN"
  "http://www.w3.org/Graphics/SVG/1.1/DTD/svg11.dtd">
<svg xmlns:xlink="http://www.w3.org/1999/xlink" width="460.8pt" height="345.6pt" viewBox="0 0 460.8 345.6" xmlns="http://www.w3.org/2000/svg" version="1.1">
 <metadata>
  <rdf:RDF xmlns:dc="http://purl.org/dc/elements/1.1/" xmlns:cc="http://creativecommons.org/ns#" xmlns:rdf="http://www.w3.org/1999/02/22-rdf-syntax-ns#">
   <cc:Work>
    <dc:type rdf:resource="http://purl.org/dc/dcmitype/StillImage"/>
    <dc:date>2024-03-12T22:17:02.277962</dc:date>
    <dc:format>image/svg+xml</dc:format>
    <dc:creator>
     <cc:Agent>
      <dc:title>Matplotlib v3.5.2, https://matplotlib.org/</dc:title>
     </cc:Agent>
    </dc:creator>
   </cc:Work>
  </rdf:RDF>
 </metadata>
 <defs>
  <style type="text/css">*{stroke-linejoin: round; stroke-linecap: butt}</style>
 </defs>
 <g id="figure_1">
  <g id="patch_1">
   <path d="M 0 345.6 
L 460.8 345.6 
L 460.8 0 
L 0 0 
z
" style="fill: #ffffff"/>
  </g>
  <g id="axes_1">
   <g id="patch_2">
    <path d="M 14.3 241.316966 
L 450 241.316966 
L 450 104.283034 
L 14.3 104.283034 
z
" style="fill: #ffffff"/>
   </g>
   <g id="matplotlib.axis_1"/>
   <g id="matplotlib.axis_2"/>
   <g id="line2d_1">
    <path d="M 237.129916 116.051002 
L 247.117723 116.011388 
L 250.437954 115.780612 
L 324.799986 115.779786 
L 328.116418 116.066747 
L 338.104877 116.045864 
L 344.763062 116.113803 
L 346.974134 116.295294 
L 351.413142 116.329612 
L 356.961874 116.346067 
L 362.492298 116.767031 
L 364.662996 117.227189 
L 366.745821 117.989437 
L 367.742827 118.475865 
L 368.681886 119.066526 
L 369.548456 119.759323 
L 370.335456 120.541031 
L 371.033051 121.402943 
L 371.613294 122.348215 
L 372.458081 124.397785 
L 372.917735 126.567935 
L 373.155032 128.7739 
L 373.33151 135.423787 
L 373.622542 137.624175 
L 374.121479 139.785971 
L 374.85863 141.878695 
L 375.864098 143.856095 
L 377.160671 145.655673 
L 378.69159 147.26145 
L 380.399263 148.678129 
L 382.241291 149.915724 
L 384.177763 151.000006 
L 387.193432 152.41028 
L 392.316342 154.542637 
L 403.717078 158.908729 
L 407.802067 160.646081 
L 410.805703 162.082022 
L 412.71434 163.212628 
L 414.464976 164.575144 
L 416.04049 166.137615 
L 418.136105 168.723232 
L 419.962741 171.505971 
L 421.584691 174.412867 
L 422.999724 177.426379 
L 423.734339 179.519839 
L 424.2579 181.676089 
L 424.758152 184.966639 
L 424.930278 187.179157 
L 424.890377 189.397718 
L 424.540219 192.708611 
L 424.15341 194.893783 
L 423.262312 198.10065 
L 422.096887 201.218673 
L 420.694513 204.237861 
L 419.047927 207.130333 
L 417.783892 208.954482 
L 416.387668 210.679556 
L 414.09106 213.088886 
L 411.61024 215.308748 
L 408.998232 217.373026 
L 405.347487 219.897962 
L 402.487634 221.601882 
L 398.594986 223.735109 
L 395.551382 225.083145 
L 391.396503 226.644622 
L 387.132717 227.879053 
L 383.878378 228.578925 
L 380.580004 229.02092 
L 377.261769 229.271452 
L 370.605046 229.321564 
L 366.172829 229.551909 
L 352.854657 229.529711 
L 342.875215 229.814828 
L 328.446938 229.824625 
L 324.008563 229.765815 
L 320.686708 229.542109 
L 316.247603 229.534114 
L 305.152445 229.434332 
L 302.980152 228.993364 
L 301.931706 228.629752 
L 300.925735 228.16179 
L 299.06165 226.959795 
L 297.371024 225.523911 
L 295.920771 223.845447 
L 294.688173 222.001617 
L 293.709732 220.010363 
L 292.894953 217.946266 
L 292.315896 215.806776 
L 292.041136 213.607318 
L 292.083764 212.498517 
L 292.440988 210.308233 
L 292.96204 208.151653 
L 293.711384 206.063013 
L 294.625601 204.040782 
L 295.715839 202.108489 
L 297.008694 200.304838 
L 298.42573 198.59686 
L 300.744569 196.208996 
L 303.272814 194.043702 
L 305.060042 192.728613 
L 306.960853 191.58327 
L 308.943586 190.586397 
L 312.057916 189.413008 
L 314.222054 188.932208 
L 316.43294 188.762279 
L 319.752284 188.557251 
L 323.080716 188.524003 
L 326.398972 188.262924 
L 333.053304 188.164326 
L 335.266591 188.015204 
L 353.024592 188.011984 
L 373.000421 187.969286 
L 375.190624 187.586182 
L 376.229107 187.198541 
L 377.214425 186.6821 
L 378.124457 186.045185 
L 378.923651 185.272887 
L 379.605706 184.391993 
L 380.646728 182.434173 
L 381.338287 180.327092 
L 381.54719 179.234352 
L 381.614153 178.118994 
L 381.518026 177.009235 
L 381.247821 175.931785 
L 380.339911 173.907968 
L 379.130384 172.04875 
L 377.661131 170.386509 
L 375.991815 168.925116 
L 374.18817 167.631972 
L 361.992043 159.923928 
L 353.396992 154.834975 
L 342.749276 148.862746 
L 335.878459 145.237832 
L 330.832743 142.93025 
L 327.707583 141.783039 
L 324.51403 140.843369 
L 321.254039 140.170158 
L 319.05403 139.883999 
L 315.734643 139.680021 
L 313.519935 139.553119 
L 311.300445 139.59531 
L 306.87332 139.293299 
L 304.656967 139.239434 
L 301.33693 139.000131 
L 296.898012 139.014075 
L 293.5797 138.765094 
L 290.266173 139.05173 
L 285.82922 139.058431 
L 283.641164 139.422957 
L 282.583165 139.763464 
L 281.574273 140.227571 
L 280.627955 140.807721 
L 279.749544 141.485991 
L 278.21268 143.084748 
L 277.001702 144.942238 
L 276.099758 146.969259 
L 275.476579 149.098191 
L 275.084038 151.282418 
L 274.877393 153.491816 
L 274.912766 155.710134 
L 275.205941 160.138305 
L 275.116246 162.355449 
L 274.723638 164.537492 
L 274.034403 166.646791 
L 273.18626 168.697702 
L 272.093912 170.628378 
L 269.651906 174.335384 
L 267.193992 178.031402 
L 258.097117 191.973901 
L 250.593634 202.97681 
L 245.984733 209.230688 
L 241.205805 215.355469 
L 239.767783 217.045375 
L 238.126476 218.537298 
L 236.324374 219.831854 
L 234.416158 220.965313 
L 232.423161 221.941228 
L 230.336914 222.696254 
L 228.195143 223.277255 
L 226.002466 223.620509 
L 223.785799 223.717663 
L 219.347054 223.699361 
L 216.050439 223.242856 
L 212.829056 222.405862 
L 209.707572 221.250133 
L 206.656085 219.91909 
L 203.727283 218.336707 
L 198.022757 214.901422 
L 153.523256 187.682695 
L 117.409662 165.899008 
L 94.461705 152.374549 
L 89.64805 149.617866 
L 88.604034 149.238619 
L 87.515197 149.009869 
L 86.400261 148.978502 
L 85.283414 149.189296 
L 84.201935 149.63087 
L 83.19833 150.269397 
L 82.315121 151.070991 
L 81.594827 152.001767 
L 81.079968 153.027839 
L 80.808981 154.115056 
L 80.77371 155.226247 
L 80.934716 156.3254 
L 81.618847 158.436536 
L 83.809309 164.724489 
L 89.533863 181.533556 
L 90.295835 183.61798 
L 90.813572 184.604651 
L 91.464364 185.509038 
L 92.248824 186.298122 
L 93.148013 186.952344 
L 95.156662 187.891776 
L 102.477664 190.490916 
L 104.512837 191.376097 
L 106.456227 192.446613 
L 108.262215 193.735143 
L 109.894195 195.237667 
L 111.293602 196.957936 
L 112.405697 198.876663 
L 113.24147 200.93108 
L 113.792019 203.080215 
L 113.993298 204.171267 
L 114.058174 205.278843 
L 113.807942 207.481541 
L 113.251058 209.628989 
L 112.500255 211.717454 
L 111.589723 213.741062 
L 110.4729 215.658097 
L 109.127118 217.421343 
L 107.553542 218.984944 
L 105.783814 220.322131 
L 103.847362 221.405058 
L 101.803896 222.268408 
L 99.66048 222.831452 
L 98.567075 223.019193 
L 97.457981 223.057063 
L 95.253357 222.804177 
L 93.087769 222.325594 
L 89.924421 221.28799 
L 80.507269 217.957559 
L 70.010027 214.357751 
L 53.364362 208.176294 
L 52.363758 207.696891 
L 51.432854 207.093336 
L 50.601862 206.359196 
L 49.874401 205.521364 
L 49.274794 204.589033 
L 48.881777 203.552789 
L 48.711103 202.459602 
L 48.839163 199.134892 
L 50.504733 182.571691 
L 51.512495 173.750087 
L 51.48817 172.64211 
L 51.217427 171.544335 
L 50.73497 170.484888 
L 50.072547 169.494493 
L 49.261903 168.603874 
L 48.334786 167.843753 
L 47.322942 167.244853 
L 46.258117 166.837898 
L 44.065008 166.509553 
L 43.016472 166.148189 
L 42.042404 165.617943 
L 41.168559 164.936511 
L 40.394333 164.141932 
L 39.79183 163.212993 
L 39.432918 162.164036 
L 39.279714 161.068316 
L 39.345891 157.740606 
L 39.38755 155.524509 
L 39.628128 152.205956 
L 39.651027 148.87665 
L 39.888251 146.67013 
L 40.150919 140.023774 
L 40.426229 137.821442 
L 40.915822 135.657193 
L 41.554452 133.532017 
L 42.38452 131.473647 
L 43.371079 129.48566 
L 44.538289 127.598504 
L 45.880584 125.831626 
L 47.388283 124.203526 
L 49.042036 122.723631 
L 51.67424 120.685599 
L 53.545715 119.493604 
L 55.506025 118.453297 
L 57.551609 117.593311 
L 59.649234 116.868037 
L 61.816193 116.397862 
L 64.013941 116.097189 
L 68.452722 116.039566 
L 140.594275 116.070486 
L 146.134098 116.343528 
L 157.232745 116.326535 
L 202.736364 116.259909 
L 204.943801 116.034805 
L 213.822481 116.050822 
L 234.91016 116.049502 
L 234.91016 116.049502 
" clip-path="url(#p453b381f1f)" style="fill: none; stroke: #575fcf; stroke-width: 2; stroke-linecap: square"/>
   </g>
   <g id="line2d_2">
    <path d="M 239.329435 113.964021 
L 247.076596 114.011385 
L 250.391697 113.799035 
L 263.660355 113.565434 
L 288.001888 113.320664 
L 311.238127 113.300469 
L 324.514438 113.432115 
L 327.822924 113.704435 
L 343.311448 113.578966 
L 346.619342 113.847101 
L 351.031376 114.172873 
L 354.308089 114.698689 
L 356.457384 115.220947 
L 358.547201 115.95954 
L 362.640306 117.627455 
L 364.550079 118.742493 
L 366.322228 120.063572 
L 367.931004 121.586066 
L 369.339616 123.2836 
L 370.575078 125.120958 
L 372.113405 128.059999 
L 372.947982 130.110262 
L 375.231438 136.342839 
L 376.449323 139.432017 
L 377.377422 141.438501 
L 378.492329 143.347793 
L 379.823976 145.114488 
L 381.322682 146.742021 
L 382.958077 148.231199 
L 385.594041 150.248035 
L 389.290319 152.677906 
L 393.085858 154.957436 
L 411.386711 165.288529 
L 413.092857 166.696422 
L 414.633455 168.285075 
L 416.023955 170.004493 
L 417.28231 171.826845 
L 418.967706 174.683118 
L 420.426346 177.659935 
L 421.209606 179.734265 
L 421.765086 181.876004 
L 422.144077 184.05513 
L 422.44003 187.357766 
L 422.384496 189.572018 
L 422.011186 192.867625 
L 421.567248 195.035679 
L 420.602653 198.209923 
L 419.358282 201.286581 
L 417.869188 204.25117 
L 416.717065 206.140788 
L 415.425003 207.936854 
L 413.997268 209.627213 
L 411.654498 211.977494 
L 409.131491 214.133544 
L 406.477744 216.128496 
L 402.783525 218.564076 
L 397.979227 221.3041 
L 394.985137 222.739342 
L 389.885131 224.880153 
L 384.669867 226.723521 
L 380.407675 227.909214 
L 377.170285 228.63997 
L 370.62255 229.707732 
L 366.274613 230.534289 
L 358.569678 231.337513 
L 354.15912 231.649402 
L 350.842305 231.907088 
L 347.544829 232.209975 
L 342.011491 232.286708 
L 324.314827 232.24724 
L 315.498923 231.432152 
L 313.33506 230.97092 
L 310.156557 230.00961 
L 307.04938 228.844595 
L 305.028336 227.943384 
L 303.104926 226.848981 
L 301.285083 225.58494 
L 299.583429 224.184022 
L 298.072065 222.566629 
L 296.812758 220.748046 
L 295.836649 218.762562 
L 295.065045 216.692259 
L 294.619013 214.531298 
L 294.536098 213.423448 
L 294.588683 212.309935 
L 294.973155 210.145661 
L 295.573557 208.010947 
L 296.406927 205.963956 
L 297.419226 203.999062 
L 298.656438 202.158299 
L 300.048964 200.443158 
L 302.355821 198.058842 
L 304.875386 195.905483 
L 306.690123 194.632087 
L 308.596388 193.511881 
L 311.58765 192.084084 
L 313.649255 191.269795 
L 315.788214 190.670602 
L 322.297423 189.453546 
L 325.569526 188.895695 
L 327.778958 188.779298 
L 332.200438 188.784187 
L 334.413367 188.706422 
L 337.725814 188.920215 
L 356.468544 190.467476 
L 360.893601 190.465819 
L 363.10076 190.315549 
L 365.288418 189.994047 
L 367.43478 189.46067 
L 369.52986 188.734331 
L 371.568973 187.87903 
L 373.517001 186.832029 
L 375.305962 185.523227 
L 376.847378 183.944932 
L 377.511711 183.062717 
L 378.073466 182.108088 
L 378.859949 180.048893 
L 379.082056 178.970356 
L 379.149866 177.863483 
L 378.894447 175.665413 
L 378.36315 173.521461 
L 377.570716 171.455862 
L 376.542257 169.495998 
L 375.299508 167.665649 
L 373.884555 165.965615 
L 371.56017 163.595353 
L 369.883446 162.152654 
L 367.180785 160.228438 
L 362.475548 157.319092 
L 357.660705 154.594373 
L 352.719343 152.107591 
L 347.668919 149.851087 
L 341.48183 147.443068 
L 331.067057 143.707747 
L 321.605374 140.604089 
L 319.490134 139.948112 
L 311.957636 138.229119 
L 309.786662 137.731536 
L 307.641965 137.247055 
L 301.056727 136.522709 
L 294.417009 136.88161 
L 293.369693 137.138665 
L 287.0984 139.385454 
L 285.14285 140.420979 
L 283.308677 141.66324 
L 281.629696 143.098948 
L 280.097696 144.69104 
L 278.782423 146.466756 
L 277.626326 148.351407 
L 276.149752 151.322851 
L 274.880631 154.397241 
L 274.228247 156.506681 
L 271.746417 166.148403 
L 270.964452 169.378801 
L 268.668253 176.770931 
L 267.539496 179.89399 
L 265.703089 183.91993 
L 264.163213 186.85971 
L 261.311685 191.601647 
L 257.649428 197.137365 
L 254.459683 201.657694 
L 251.721055 205.132506 
L 249.505839 207.605136 
L 247.122476 209.913193 
L 243.731549 212.758299 
L 239.275941 216.033852 
L 237.370193 217.162594 
L 234.365502 218.573046 
L 231.285568 219.800787 
L 228.101849 220.738857 
L 225.927407 221.139985 
L 223.717942 221.341992 
L 218.199702 221.566028 
L 215.989454 221.45136 
L 212.69645 221.045746 
L 208.359335 220.168928 
L 205.155021 219.304222 
L 200.986258 217.819226 
L 196.8926 216.13719 
L 192.878633 214.272503 
L 188.975724 212.187195 
L 184.219937 209.361321 
L 176.732485 204.639564 
L 168.43079 199.140232 
L 158.416258 192.220629 
L 152.094756 187.748397 
L 135.878319 176.184904 
L 124.060342 167.984939 
L 115.784206 162.44654 
L 107.373102 157.117278 
L 100.71077 153.168062 
L 98.731397 152.180148 
L 96.671187 151.377799 
L 94.525648 150.845513 
L 92.324968 150.581655 
L 90.115814 150.507467 
L 87.922767 150.80369 
L 86.856685 151.113774 
L 85.837745 151.546633 
L 84.896455 152.108967 
L 84.06088 152.827233 
L 83.345876 153.663826 
L 82.747474 154.588331 
L 82.277575 155.595865 
L 81.669991 157.72161 
L 81.32702 159.908996 
L 81.206298 162.123922 
L 81.362956 164.32909 
L 81.807534 166.491951 
L 82.867796 169.63727 
L 84.207995 172.672082 
L 85.252697 174.62302 
L 86.451728 176.4806 
L 88.543521 179.058957 
L 91.6 182.257939 
L 93.188215 183.799187 
L 94.892946 185.211687 
L 97.510221 187.241245 
L 107.375667 196.131075 
L 108.827684 197.798922 
L 110.017956 199.663217 
L 110.882046 201.697296 
L 111.411125 203.83507 
L 111.548899 204.93845 
L 111.528879 206.052016 
L 111.145694 208.225687 
L 110.463154 210.326171 
L 109.58536 212.354058 
L 108.469478 214.264541 
L 107.090273 215.99443 
L 105.46646 217.49403 
L 103.622113 218.719892 
L 101.633511 219.676824 
L 99.550665 220.416134 
L 97.407328 220.987541 
L 94.127852 221.454732 
L 90.812647 221.610522 
L 87.493276 221.519133 
L 84.19138 221.181549 
L 80.945507 220.497291 
L 76.680967 219.302863 
L 73.555919 218.204603 
L 62.143031 213.989073 
L 60.20484 212.925875 
L 58.377734 211.676694 
L 56.679712 210.257186 
L 54.36924 207.874926 
L 52.98333 206.151096 
L 51.899285 204.221728 
L 51.016111 202.198754 
L 50.44646 200.064198 
L 49.931868 196.787835 
L 49.865921 194.572454 
L 50.07312 191.260531 
L 50.879462 183.5577 
L 50.883831 180.239777 
L 50.62587 178.039347 
L 50.125026 175.876757 
L 49.540622 173.756407 
L 49.113796 172.733494 
L 47.449696 169.869795 
L 46.253464 168.004022 
L 43.5076 164.510477 
L 41.737794 161.741893 
L 40.575527 159.841638 
L 38.480605 155.945898 
L 37.836657 153.84422 
L 37.218888 150.571962 
L 37.143225 149.46982 
L 37.215521 148.396802 
L 38.161206 142.926577 
L 39.256991 139.792211 
L 40.149313 137.768956 
L 41.804934 134.891779 
L 43.6813 132.153815 
L 45.717832 129.534768 
L 47.937541 127.068183 
L 49.542746 125.542669 
L 52.116205 123.454057 
L 53.915678 122.162248 
L 56.76483 120.461008 
L 60.726001 118.485799 
L 63.818205 117.28225 
L 68.078659 116.088591 
L 72.375512 115.024704 
L 75.633849 114.392393 
L 78.924806 113.963051 
L 83.339737 113.660655 
L 88.870922 113.558554 
L 128.704639 113.589601 
L 140.871594 113.686044 
L 145.291787 113.944291 
L 159.675592 113.934806 
L 187.337189 114.1235 
L 202.82586 114.250195 
L 206.134527 114.019238 
L 219.412656 113.976226 
L 237.116661 113.950895 
L 237.116661 113.950895 
" clip-path="url(#p453b381f1f)" style="fill: none; stroke: #f53b57; stroke-width: 2; stroke-linecap: square"/>
   </g>
   <g id="line2d_3">
    <path d="M 237.127641 121.309876 
L 243.798575 121.306957 
L 244.911272 121.027912 
L 247.398722 120.985548 
L 250.683542 120.787343 
L 251.555525 121.031213 
L 259.320253 121.029701 
L 260.429457 120.752283 
L 278.183352 120.752467 
L 279.293278 121.029597 
L 298.163919 121.029597 
L 299.273762 120.752553 
L 314.806534 120.752135 
L 315.915872 121.029991 
L 324.560484 120.944967 
L 325.419678 120.843948 
L 326.584466 120.959638 
L 327.981591 121.323892 
L 329.289031 121.310993 
L 330.367175 121.022126 
L 332.528296 121.025634 
L 333.640223 121.309462 
L 337.014063 121.309754 
L 338.130744 121.027888 
L 342.468661 121.024064 
L 343.485134 121.322931 
L 344.377522 121.14988 
L 346.771388 121.273258 
L 347.995316 121.584554 
L 351.43662 121.588433 
L 352.554621 121.305822 
L 355.765701 121.293551 
L 356.684299 121.590311 
L 357.613332 121.421547 
L 362.53516 121.915139 
L 364.003121 122.256877 
L 365.317003 122.83628 
L 366.55924 123.951887 
L 367.034011 124.812572 
L 367.585215 125.863709 
L 367.780035 126.52233 
L 367.809711 127.370768 
L 368.081752 128.203903 
L 368.178902 129.017549 
L 367.915367 129.88714 
L 367.898519 130.90019 
L 368.152987 132.070737 
L 368.127538 134.755572 
L 368.38108 135.984568 
L 368.256173 137.214521 
L 368.682625 138.475581 
L 369.236171 141.209883 
L 370.097419 143.895453 
L 371.522743 146.49613 
L 374.218296 149.993544 
L 376.276837 151.90978 
L 377.424712 152.68436 
L 378.436153 153.589682 
L 382.975767 156.082187 
L 384.131923 156.466049 
L 385.113016 157.144023 
L 386.258183 157.40073 
L 387.253427 157.965745 
L 391.55098 159.77658 
L 392.630542 159.984359 
L 393.555526 160.534906 
L 394.652128 160.771946 
L 395.660268 161.35543 
L 396.756065 161.67882 
L 397.765948 162.143396 
L 399.819985 162.825491 
L 400.774635 163.2966 
L 401.840178 163.532049 
L 403.793958 164.43378 
L 404.741753 164.849456 
L 405.646002 165.37834 
L 406.663504 165.717038 
L 408.434541 166.575878 
L 411.059784 168.436658 
L 412.131523 169.698818 
L 412.869486 170.246996 
L 413.355846 171.058069 
L 414.007454 171.723434 
L 415.169598 173.23893 
L 415.556974 174.169772 
L 416.125428 174.996481 
L 417.053206 176.7113 
L 418.305976 179.372112 
L 419.17435 181.768726 
L 419.775093 185.511428 
L 419.90049 186.45752 
L 419.67401 187.344722 
L 419.679407 188.194353 
L 419.91931 189.066469 
L 419.805344 189.97202 
L 419.517393 191.023031 
L 419.599727 192.066135 
L 419.343657 192.915525 
L 419.002577 194.700365 
L 418.414078 196.506412 
L 418.238795 197.483991 
L 417.772804 198.346475 
L 417.577762 199.31272 
L 417.020034 200.149282 
L 415.460972 203.720387 
L 414.330721 205.211603 
L 412.620034 207.408045 
L 412.053167 208.179394 
L 409.9744 210.236342 
L 409.109818 210.762467 
L 408.466669 211.554218 
L 407.622712 212.12632 
L 406.880439 212.831414 
L 405.967629 213.294718 
L 403.579903 215.263995 
L 402.594343 215.627441 
L 401.828842 216.263476 
L 393.732314 220.604679 
L 392.655915 220.768621 
L 391.738298 221.315402 
L 390.73477 221.494393 
L 389.843181 221.902783 
L 387.887153 222.498798 
L 386.838125 222.607205 
L 385.856881 222.868195 
L 384.956996 223.36131 
L 381.996396 223.718966 
L 381.1029 223.973368 
L 380.083108 223.941544 
L 378.996396 224.178474 
L 378.069943 224.261714 
L 377.180471 224.013206 
L 375.116623 223.995154 
L 373.987806 224.255785 
L 372.778634 224.246904 
L 371.493242 224.002828 
L 369.145151 224.431171 
L 368.081201 224.506314 
L 367.109307 224.282696 
L 363.99761 224.275987 
L 362.876688 224.543948 
L 359.488272 224.53878 
L 358.367548 224.270192 
L 355.121526 224.271497 
L 353.965463 224.535916 
L 352.727129 224.272384 
L 350.243542 224.693078 
L 348.256094 224.820053 
L 347.243637 224.564657 
L 341.797327 224.548816 
L 340.680164 224.819305 
L 332.861706 224.819056 
L 331.745997 224.548366 
L 325.251236 224.552626 
L 324.309656 224.792831 
L 322.099124 224.557088 
L 320.879656 224.286776 
L 319.625413 224.535457 
L 318.440778 224.538603 
L 317.325508 224.270361 
L 315.152678 224.274122 
L 314.050691 224.545764 
L 310.668017 224.543707 
L 309.545363 224.276114 
L 307.441734 224.285698 
L 306.505684 224.537052 
L 305.709778 224.475781 
L 304.462474 224.039661 
L 303.840956 223.912918 
L 303.355804 223.564221 
L 302.725853 223.32384 
L 300.959792 221.916351 
L 299.516176 220.107898 
L 298.836235 218.727459 
L 298.374327 217.976819 
L 298.166789 217.058062 
L 297.858796 216.231795 
L 297.396371 215.579668 
L 297.203812 214.842666 
L 297.192764 214.080595 
L 297.022211 213.506698 
L 297.233397 212.965137 
L 297.165854 212.203173 
L 298.254169 207.911864 
L 299.051444 206.260403 
L 299.568773 205.556119 
L 299.880448 204.786329 
L 300.883178 203.299318 
L 301.61105 202.681445 
L 304.798909 199.142241 
L 305.667196 198.655198 
L 306.340575 197.900359 
L 307.857087 196.970509 
L 309.362288 195.913156 
L 310.330378 195.814782 
L 311.841281 194.88855 
L 315.705842 193.771426 
L 317.98302 193.669231 
L 318.924339 193.809998 
L 319.735992 193.539316 
L 320.830778 193.832016 
L 322.088596 193.828041 
L 323.429601 193.493863 
L 324.662184 193.382015 
L 325.644862 193.470414 
L 326.515219 193.243659 
L 328.49565 193.267759 
L 329.708626 193.573593 
L 331.010784 193.551367 
L 332.240219 193.215038 
L 334.500155 193.142394 
L 335.366153 193.273135 
L 336.395376 192.990345 
L 343.028535 192.992329 
L 344.141878 193.270117 
L 355.246582 193.270187 
L 356.355719 192.992955 
L 368.547549 192.992747 
L 369.636841 193.273986 
L 372.0265 193.28445 
L 373.443623 192.931625 
L 374.975848 192.804898 
L 376.640226 192.463929 
L 378.350178 191.946587 
L 379.855744 191.022674 
L 382.713512 188.668576 
L 384.661287 185.824044 
L 385.331041 184.402511 
L 386.611443 179.867048 
L 386.551537 176.16618 
L 386.169361 174.345943 
L 385.474164 172.819817 
L 384.716135 171.510782 
L 384.088075 170.14641 
L 383.275066 168.871593 
L 381.387397 166.634559 
L 378.009259 164.20674 
L 377.040607 163.345921 
L 376.018945 162.689185 
L 374.998044 162.23254 
L 372.323994 160.306652 
L 369.404333 158.529669 
L 368.400035 158.013164 
L 366.552372 156.763165 
L 365.551673 156.253381 
L 364.67079 155.527232 
L 363.667149 154.998326 
L 361.78862 153.791238 
L 360.794496 153.273811 
L 359.859912 152.638601 
L 357.872385 151.551314 
L 356.932667 150.928933 
L 355.925067 150.427484 
L 354.989869 149.814555 
L 353.991707 149.321678 
L 353.063064 148.713145 
L 352.064274 148.219083 
L 351.117135 147.601232 
L 349.090465 146.546442 
L 348.158701 145.902036 
L 347.137153 145.480221 
L 346.207596 144.890598 
L 343.156936 143.409618 
L 342.219801 142.804221 
L 341.177026 142.391713 
L 340.219235 141.733849 
L 337.073321 140.174436 
L 335.989662 139.801188 
L 335.012302 139.103091 
L 333.868984 138.694179 
L 332.777208 138.13906 
L 331.601069 137.773927 
L 330.485562 137.269915 
L 329.278161 137.046888 
L 328.136756 136.617435 
L 322.120181 135.072487 
L 320.804704 135.023576 
L 319.3977 134.643671 
L 318.070265 134.868762 
L 317.214835 134.860255 
L 316.304901 134.699813 
L 314.930246 134.332381 
L 313.509575 134.571038 
L 312.310449 134.322058 
L 311.46169 134.338909 
L 310.649451 134.550759 
L 308.217925 134.066517 
L 306.889764 134.311235 
L 305.891641 134.055493 
L 305.051481 134.272987 
L 304.008628 134.106985 
L 302.770598 133.789818 
L 301.390078 134.018323 
L 300.157577 134.033388 
L 299.062588 133.772528 
L 298.047898 133.779395 
L 297.20306 134.041332 
L 296.316716 133.947738 
L 295.0066 133.68733 
L 293.332262 133.720346 
L 291.011501 134.050672 
L 290.211508 133.79314 
L 289.258563 133.784637 
L 288.153588 134.027645 
L 285.366198 134.028886 
L 282.370037 134.597807 
L 280.829613 135.258942 
L 279.223553 135.826212 
L 277.847907 136.776609 
L 275.41304 138.855489 
L 273.507322 141.34076 
L 272.633053 142.612065 
L 271.419096 145.240316 
L 270.85273 146.588991 
L 270.233994 149.28339 
L 270.148687 150.601574 
L 269.872418 151.9093 
L 269.880201 154.680916 
L 269.665698 156.062313 
L 270.141879 158.29971 
L 269.92501 159.257199 
L 269.930593 161.035302 
L 270.15773 161.871355 
L 269.488147 163.993965 
L 269.437277 164.937527 
L 268.93428 165.73849 
L 268.466643 167.301764 
L 267.350965 168.905726 
L 266.777249 169.791 
L 266.072348 170.573322 
L 265.476805 171.43958 
L 265.033258 172.490815 
L 264.234528 173.397908 
L 259.961177 179.977997 
L 259.224091 180.834682 
L 258.816811 181.879449 
L 254.612374 188.324949 
L 253.88109 189.138013 
L 253.252139 190.072813 
L 252.825664 191.149328 
L 252.094393 191.989106 
L 249.071216 196.545771 
L 248.304837 197.349868 
L 247.828744 198.344959 
L 247.206766 199.233123 
L 246.438326 200.013639 
L 245.948617 200.997413 
L 242.069219 206.238411 
L 239.937995 208.776409 
L 239.418637 209.704202 
L 238.70217 210.501905 
L 238.078603 211.424562 
L 236.777913 213.044458 
L 236.091713 213.526814 
L 234.366554 215.204815 
L 233.643929 215.696617 
L 232.723812 215.943157 
L 231.252091 217.026824 
L 230.453966 217.356459 
L 228.822072 217.838373 
L 227.161865 218.333264 
L 226.301404 218.355064 
L 225.4741 218.658789 
L 224.677351 218.721137 
L 223.731647 218.459068 
L 220.517227 218.471948 
L 219.70589 218.730209 
L 217.051823 218.238438 
L 215.25768 217.800721 
L 214.37791 217.472556 
L 213.443755 217.350995 
L 211.664719 216.464109 
L 209.683027 215.862416 
L 208.920905 215.237907 
L 205.345785 213.398439 
L 203.524234 212.232074 
L 202.559604 211.725368 
L 200.720648 210.516447 
L 198.737134 209.484992 
L 196.888097 208.247424 
L 195.895789 207.747316 
L 195.033752 207.033155 
L 194.052877 206.511139 
L 192.198936 205.295074 
L 188.37618 203.026536 
L 187.375124 202.520979 
L 186.504645 201.805371 
L 184.594988 200.717854 
L 182.742811 199.49612 
L 181.754638 198.968222 
L 179.889554 197.74844 
L 178.864405 197.307847 
L 176.092451 195.489315 
L 174.195046 194.251271 
L 173.206662 193.734171 
L 171.365491 192.537008 
L 169.436093 191.436427 
L 147.641015 178.136415 
L 146.608182 177.66281 
L 145.718587 176.975746 
L 144.72213 176.482598 
L 143.858041 175.776252 
L 141.929511 174.688333 
L 141.010071 174.052587 
L 140.01485 173.531936 
L 138.143542 172.331407 
L 137.164993 171.821733 
L 135.318456 170.624746 
L 134.288003 170.183176 
L 133.309808 169.634336 
L 132.413565 168.942606 
L 131.406355 168.445587 
L 129.534231 167.221773 
L 128.602528 166.591609 
L 126.66467 165.526572 
L 125.766156 164.912259 
L 124.794717 164.405206 
L 122.919059 163.194376 
L 121.925385 162.677342 
L 120.043202 161.475086 
L 119.053346 160.965154 
L 118.13312 160.338796 
L 117.087603 159.902598 
L 116.097294 159.363955 
L 115.200603 158.689342 
L 114.212751 158.21585 
L 111.465105 156.385159 
L 109.439501 155.367092 
L 107.549132 154.158793 
L 106.637138 153.549361 
L 105.664963 153.054737 
L 104.751075 152.433614 
L 103.75249 151.919872 
L 101.845035 150.724318 
L 100.849016 150.223303 
L 99.931394 149.611177 
L 98.948833 149.113584 
L 98.021369 148.490412 
L 97.006388 147.976625 
L 95.152321 146.833454 
L 94.220902 146.349302 
L 93.13813 145.616558 
L 91.698745 144.871172 
L 89.971939 144.440007 
L 88.130784 143.794488 
L 86.001008 144.012434 
L 83.857316 144.383683 
L 81.861369 145.112518 
L 80.074646 146.176816 
L 78.58073 147.614391 
L 77.298104 149.289697 
L 76.403086 151.288698 
L 75.874541 153.427643 
L 75.79966 155.509194 
L 75.946796 157.405971 
L 76.402193 158.960969 
L 76.929124 160.140749 
L 77.593936 162.250891 
L 78.04994 163.226615 
L 78.219491 164.269469 
L 79.430263 167.365485 
L 79.614569 168.47629 
L 80.832509 171.568708 
L 81.017234 172.687067 
L 81.881756 174.707695 
L 82.057136 175.823597 
L 82.896437 178.024035 
L 83.417926 179.040985 
L 83.64773 180.081018 
L 84.453245 182.117301 
L 84.647797 183.225542 
L 85.208547 184.296211 
L 85.588272 185.756975 
L 86.491153 187.275576 
L 87.704948 188.695221 
L 90.425472 191.322057 
L 93.355079 192.650773 
L 94.563476 192.96772 
L 95.521051 193.494194 
L 97.698709 194.081953 
L 98.699626 194.616172 
L 100.668637 195.049706 
L 102.242783 196.054744 
L 103.047684 196.335203 
L 104.42782 197.1995 
L 106.201256 198.738517 
L 107.183148 199.786717 
L 107.489588 200.44441 
L 107.95463 201.045257 
L 108.067485 201.838799 
L 108.402684 202.505854 
L 108.455885 203.301879 
L 108.846226 204.104833 
L 109.028317 205.822969 
L 108.994651 206.539536 
L 108.61993 207.282069 
L 108.571435 208.160562 
L 108.280351 209.021198 
L 107.784726 209.82512 
L 107.286948 211.538384 
L 106.609547 212.123556 
L 106.440286 212.97849 
L 104.778416 214.61852 
L 104.316766 215.268999 
L 103.615799 215.613104 
L 102.395885 216.536822 
L 100.86023 217.184975 
L 99.51789 217.928514 
L 98.058612 218.055393 
L 97.602109 218.008307 
L 96.952038 217.731366 
L 96.056562 217.817637 
L 94.42156 217.605833 
L 91.662315 216.418064 
L 90.57898 216.216687 
L 88.484009 215.282765 
L 87.385205 215.094353 
L 85.365095 214.271235 
L 84.276109 213.985907 
L 82.161573 213.058607 
L 81.01245 212.8672 
L 78.939083 212.091393 
L 78.006313 211.689933 
L 76.983688 211.508304 
L 75.98471 210.93944 
L 74.835555 210.531726 
L 73.673011 210.339934 
L 71.769038 209.495413 
L 69.613019 208.797772 
L 68.539685 208.342132 
L 67.454317 208.16771 
L 65.54778 207.281518 
L 64.45779 207.065165 
L 63.499513 206.509473 
L 62.418168 206.288631 
L 61.406664 205.79876 
L 60.291708 205.515129 
L 58.307562 204.536071 
L 57.197292 204.306691 
L 56.256328 203.761983 
L 54.848674 203.264924 
L 54.450158 203.119205 
L 54.215544 202.776592 
L 53.86682 202.5283 
L 53.705684 201.414119 
L 53.715086 200.498885 
L 53.921292 199.602808 
L 53.988702 197.296527 
L 54.192202 196.280801 
L 54.275584 194.097355 
L 54.738424 190.842112 
L 54.740344 189.726524 
L 55.044698 188.628904 
L 54.981092 187.510499 
L 55.579971 182.033409 
L 55.82819 180.933994 
L 55.829918 179.800406 
L 56.135146 178.727489 
L 56.080345 177.6047 
L 56.487217 174.020959 
L 56.426274 171.981529 
L 55.728384 169.969321 
L 54.955151 168.127827 
L 53.646592 166.695574 
L 52.508148 165.186502 
L 49.5477 162.65166 
L 47.600125 161.753139 
L 45.900408 161.73964 
L 44.828528 161.368865 
L 44.56342 161.145908 
L 44.474693 160.88258 
L 44.547988 160.942637 
L 44.256413 160.83658 
L 44.308835 160.147347 
L 44.622033 158.887344 
L 44.32662 157.624098 
L 44.292595 156.725005 
L 44.47223 155.963828 
L 44.460386 154.910043 
L 44.610064 152.245233 
L 44.602605 150.049007 
L 44.740671 149.254143 
L 44.738451 148.307689 
L 44.861012 146.974888 
L 45.17924 145.611949 
L 45.1685 144.401029 
L 44.880555 143.444807 
L 45.052144 141.569137 
L 45.116774 140.425663 
L 45.3325 139.553056 
L 45.334981 138.673141 
L 45.99213 136.024166 
L 46.260224 135.1914 
L 46.670686 134.39864 
L 46.901961 133.500349 
L 47.411206 132.729408 
L 47.740655 131.894944 
L 48.252511 131.200266 
L 48.572585 130.37393 
L 49.23478 129.773149 
L 49.704293 129.037417 
L 50.945558 127.842145 
L 51.466535 127.096929 
L 53.859774 125.413953 
L 54.513594 124.713382 
L 55.254349 124.241287 
L 56.086481 123.893792 
L 56.837293 123.329008 
L 57.640458 122.920845 
L 58.533907 122.792746 
L 59.312836 122.261921 
L 60.258025 122.024699 
L 61.028703 121.574651 
L 61.76365 121.384702 
L 62.654826 121.378565 
L 63.587517 121.159237 
L 66.280612 121.308405 
L 67.3657 121.02477 
L 73.995474 121.028426 
L 75.106701 121.306508 
L 89.542072 121.306469 
L 90.651823 121.029334 
L 109.516995 121.029249 
L 110.626783 121.306304 
L 129.498417 121.306503 
L 130.608583 121.029166 
L 139.400108 121.020441 
L 140.347053 121.316249 
L 141.321529 121.141859 
L 143.672574 121.28751 
L 144.947913 121.605122 
L 147.296754 121.589408 
L 148.385363 121.30321 
L 155.004664 121.305955 
L 156.116555 121.58437 
L 165.004734 121.5833 
L 166.113862 121.305978 
L 182.759097 121.305951 
L 183.868326 121.583005 
L 191.642391 121.583603 
L 192.753555 121.305919 
L 197.175756 121.304971 
L 198.278485 121.585729 
L 200.563099 121.589212 
L 201.786219 121.291747 
L 204.346893 121.117163 
L 206.05296 121.005208 
L 208.234256 121.028655 
L 209.366103 121.311197 
L 217.156219 121.30679 
L 218.265515 121.029179 
L 231.576611 121.028703 
L 232.685851 121.306421 
L 234.905584 121.308374 
L 234.905584 121.308374 
" clip-path="url(#p453b381f1f)" style="fill: none; stroke: #05c46b; stroke-linecap: square"/>
   </g>
   <g id="line2d_4">
    <path d="M 237.132191 110.792129 
L 243.779791 110.789226 
L 244.886856 111.06376 
L 246.836724 111.037227 
L 253.760972 110.516994 
L 259.313693 110.511955 
L 260.424246 110.788103 
L 278.186448 110.788285 
L 279.296278 110.51185 
L 298.161491 110.511849 
L 299.271404 110.788371 
L 314.815217 110.787956 
L 315.925634 110.512248 
L 325.039488 110.614606 
L 327.432585 111.031616 
L 328.251246 110.809602 
L 329.162919 110.794001 
L 330.304406 111.058142 
L 332.582767 111.061601 
L 333.690551 110.791835 
L 336.975959 110.792075 
L 338.079011 111.06384 
L 342.619954 111.06103 
L 343.822741 110.810603 
L 346.273309 111.270701 
L 347.17688 111.317329 
L 348.171735 111.068286 
L 351.389665 111.07079 
L 352.491389 111.34184 
L 355.939412 111.330883 
L 357.239449 111.101822 
L 358.523734 111.437468 
L 360.490963 111.617279 
L 361.790901 111.486084 
L 363.241215 111.833781 
L 364.630012 112.033113 
L 366.022736 112.362848 
L 368.781557 113.433823 
L 371.62565 114.925101 
L 372.935112 115.961387 
L 374.111673 117.130174 
L 375.236789 118.430534 
L 376.192577 119.883858 
L 376.86339 121.383195 
L 377.330947 122.931861 
L 378.025759 125.765102 
L 378.131161 128.530251 
L 378.433112 129.879848 
L 378.414622 131.086241 
L 378.116962 132.135006 
L 378.121298 133.038483 
L 378.297598 133.885071 
L 378.28194 134.863005 
L 378.668661 135.837326 
L 378.562458 136.772768 
L 379.2241 139.164768 
L 379.619842 139.861937 
L 379.854609 140.582536 
L 380.526356 141.863853 
L 383.373814 144.671897 
L 384.178582 145.042693 
L 385.681881 146.042414 
L 388.227714 147.450302 
L 389.273848 147.676537 
L 390.165699 148.301801 
L 391.212678 148.606637 
L 394.166633 149.714296 
L 395.161024 150.085688 
L 396.162361 150.650677 
L 397.308579 150.898496 
L 398.277579 151.474233 
L 399.340001 151.690784 
L 400.322545 152.147019 
L 401.392302 152.458595 
L 403.489865 153.349174 
L 404.601438 153.68924 
L 405.593979 154.285409 
L 406.679626 154.621491 
L 410.955806 156.505918 
L 414.400633 158.189603 
L 415.614337 158.958613 
L 419.949457 162.576412 
L 420.665635 163.705201 
L 421.578272 164.617374 
L 423.590597 167.883733 
L 424.368509 168.842169 
L 427.166967 174.294204 
L 428.199735 176.777265 
L 429.441762 181.928743 
L 429.834656 185.684678 
L 430.186545 187.013593 
L 430.195455 188.383485 
L 429.861444 189.728966 
L 429.793225 192.186249 
L 429.48071 193.351087 
L 429.394648 194.694702 
L 428.110547 199.694888 
L 427.563774 200.816251 
L 427.258044 202.035002 
L 426.616011 203.124626 
L 426.285745 204.322433 
L 425.768397 205.43638 
L 423.796427 208.648803 
L 423.250173 209.820866 
L 421.777966 211.945337 
L 420.908123 212.910706 
L 420.155301 213.951066 
L 416.588163 217.459381 
L 415.79831 218.413131 
L 414.75381 219.063279 
L 413.881694 219.899126 
L 412.882395 220.57032 
L 412.028835 221.451333 
L 408.968128 223.309871 
L 408.100631 224.168482 
L 406.988118 224.715758 
L 404.929452 225.909122 
L 400.848497 228.2891 
L 399.655871 228.713754 
L 398.534254 229.24977 
L 397.37045 229.561611 
L 396.385649 230.221539 
L 395.234843 230.480267 
L 394.159087 231.078185 
L 391.793277 231.749976 
L 390.659621 232.085496 
L 389.572527 232.580612 
L 388.408552 232.889911 
L 387.151698 232.921847 
L 384.749796 233.51535 
L 383.57086 233.804051 
L 382.267844 233.869217 
L 381.076901 234.100297 
L 379.95621 234.096321 
L 378.672012 234.20769 
L 377.343066 234.529697 
L 374.967635 234.511847 
L 373.876937 234.21935 
L 372.866355 234.2107 
L 371.932844 234.511385 
L 370.931903 234.361789 
L 368.70052 234.451231 
L 367.455925 234.794731 
L 363.908693 234.793359 
L 362.809928 234.507906 
L 359.539126 234.502833 
L 358.440153 234.787689 
L 355.02702 234.788821 
L 353.963453 234.500098 
L 352.982186 234.787039 
L 352.040839 234.614007 
L 349.846944 234.72031 
L 348.592467 234.778556 
L 347.3857 235.081446 
L 341.733394 235.06637 
L 340.630836 234.783365 
L 332.911066 234.783116 
L 331.807052 235.065937 
L 324.98358 235.066968 
L 323.707469 234.7388 
L 321.491226 234.640406 
L 320.49376 234.797442 
L 319.528956 234.499172 
L 318.493853 234.502644 
L 317.389431 234.787915 
L 315.122776 234.791828 
L 314.005031 234.509842 
L 310.728481 234.507705 
L 309.631454 234.79351 
L 307.295645 234.802432 
L 306.01293 234.489043 
L 303.027257 234.332767 
L 301.49783 233.947067 
L 298.495665 232.75936 
L 294.85686 230.197366 
L 292.721775 228.075227 
L 290.159225 224.601875 
L 289.501693 223.314165 
L 289.045136 222.043906 
L 288.397216 220.91449 
L 287.93111 219.660737 
L 287.42798 216.770886 
L 287.064241 215.345865 
L 287.060062 213.707937 
L 286.934132 212.031896 
L 287.316444 210.596786 
L 287.710327 208.023969 
L 288.09037 206.681759 
L 290.718233 200.562472 
L 293.13421 197.310358 
L 293.790175 196.192801 
L 295.47448 194.295393 
L 296.35015 193.380955 
L 298.334821 191.784952 
L 299.156602 190.832974 
L 300.205052 190.187044 
L 301.137511 189.269881 
L 302.262996 188.486717 
L 304.559418 187.253385 
L 305.553766 186.314336 
L 306.813414 185.786239 
L 308.098577 185.440759 
L 310.539189 184.385821 
L 311.991023 184.001049 
L 314.942245 183.836546 
L 317.09586 183.68306 
L 318.360826 183.321956 
L 319.768576 183.575187 
L 320.893372 183.314454 
L 321.855262 183.312882 
L 322.731831 183.554143 
L 323.708402 183.448151 
L 324.935708 183.153297 
L 326.282725 183.282189 
L 328.741081 183.3066 
L 329.747343 183.055916 
L 330.664261 183.039329 
L 331.652048 183.26823 
L 332.623794 183.200783 
L 335.167029 182.757273 
L 336.357489 183.026235 
L 343.042846 183.028157 
L 344.149257 182.752371 
L 355.242115 182.75244 
L 356.352733 183.028773 
L 368.578216 183.028612 
L 369.70866 182.756483 
L 371.758407 182.770119 
L 372.55722 183.006948 
L 373.741022 182.708436 
L 374.108036 182.450495 
L 375.009407 182.266958 
L 375.133789 181.877198 
L 375.483743 181.580008 
L 375.962415 180.465835 
L 376.293129 179.838108 
L 376.461281 179.168441 
L 376.482936 178.601656 
L 376.63249 178.184287 
L 376.202306 176.979292 
L 375.963686 176.305154 
L 373.934864 174.138459 
L 373.487173 173.470213 
L 372.194403 172.317154 
L 371.335734 171.918023 
L 370.489521 171.375494 
L 369.63325 170.647428 
L 367.677616 169.488777 
L 365.814031 168.360772 
L 364.022908 167.149927 
L 363.141721 166.494998 
L 361.213594 165.4099 
L 360.324844 164.754652 
L 359.313295 164.320624 
L 358.418118 163.699835 
L 356.490989 162.620824 
L 355.581304 161.996838 
L 354.608883 161.495982 
L 352.766714 160.337708 
L 351.785788 159.847237 
L 350.868916 159.242467 
L 349.877597 158.752741 
L 348.94858 158.144119 
L 347.950151 157.650965 
L 347.022476 157.042283 
L 346.0415 156.560274 
L 344.192307 155.450184 
L 343.175636 155.031143 
L 342.24883 154.389367 
L 341.234623 153.90703 
L 338.437352 152.20262 
L 337.417653 151.76011 
L 336.504715 151.122618 
L 334.592381 150.266892 
L 331.763413 148.756522 
L 330.729292 148.515935 
L 329.843466 148.024976 
L 328.888277 147.721441 
L 327.99804 147.275862 
L 327.029169 147.016666 
L 326.137005 146.51919 
L 321.40664 145.266737 
L 320.387898 145.267829 
L 319.511566 144.96533 
L 318.71036 145.124327 
L 317.818049 144.829751 
L 314.329403 144.818352 
L 313.530296 144.535199 
L 312.51035 144.837906 
L 311.139199 144.851711 
L 309.738665 144.473228 
L 308.654108 144.424385 
L 307.747957 144.57376 
L 306.856877 144.275363 
L 305.636098 144.570136 
L 304.262453 144.20588 
L 303.095096 144.167218 
L 302.121425 144.287513 
L 301.283783 143.981939 
L 300.296667 143.996599 
L 299.172138 144.289706 
L 297.967139 144.296833 
L 296.592965 143.986819 
L 293.827138 143.809842 
L 291.739474 143.988227 
L 290.320839 144.310319 
L 289.054171 144.300399 
L 287.940474 143.989548 
L 287.048899 143.975873 
L 284.336718 144.267987 
L 283.924992 144.62893 
L 282.89707 145.165034 
L 281.619134 146.629202 
L 280.78042 148.698202 
L 280.280293 151.088872 
L 280.019388 151.963262 
L 280.03531 152.859834 
L 279.855181 153.69885 
L 279.843117 154.522048 
L 280.159835 155.357956 
L 280.041201 156.367937 
L 280.077255 157.542598 
L 280.432836 158.800451 
L 280.439745 161.46045 
L 280.074762 162.839543 
L 279.992617 164.359162 
L 279.318128 167.206014 
L 278.631528 168.356055 
L 278.325071 169.621995 
L 275.647946 174.2255 
L 275.014383 175.202977 
L 274.488844 176.26816 
L 273.827006 177.231188 
L 272.997786 177.998573 
L 272.544231 178.924227 
L 268.355226 185.375338 
L 267.895187 186.387933 
L 267.105311 187.212426 
L 261.702914 195.716658 
L 260.902966 196.49033 
L 260.412006 197.503513 
L 257.825089 201.207434 
L 257.19565 202.125507 
L 256.703897 203.150186 
L 255.915352 203.979376 
L 255.264013 204.909446 
L 254.748943 205.939981 
L 253.944588 206.759734 
L 248.001154 214.986118 
L 247.156112 215.809231 
L 246.487093 216.745808 
L 245.718484 217.55207 
L 243.443852 220.563935 
L 241.316646 222.520988 
L 239.004819 223.967091 
L 238.035276 224.885187 
L 233.122742 227.133984 
L 230.594633 227.884449 
L 227.900834 228.57209 
L 225.113652 228.675762 
L 223.83995 228.976259 
L 220.395158 228.988987 
L 218.988219 228.668513 
L 215.049056 228.247275 
L 211.280201 227.339167 
L 210.109159 226.756941 
L 207.750425 226.036157 
L 205.645238 224.904288 
L 204.391264 224.600273 
L 203.24417 224.018527 
L 202.219576 223.324187 
L 201.157641 222.798048 
L 200.191474 222.156388 
L 198.201472 221.046534 
L 197.26858 220.401406 
L 195.324866 219.286398 
L 193.524908 217.995225 
L 191.58634 216.916909 
L 190.685175 216.258536 
L 189.654375 215.813179 
L 188.742583 215.175397 
L 186.812039 214.070485 
L 183.06864 211.692481 
L 182.176312 211.039413 
L 181.150658 210.600899 
L 179.271728 209.374151 
L 177.345452 208.265099 
L 176.442205 207.631168 
L 174.520035 206.534495 
L 173.651183 205.81747 
L 170.756661 204.137894 
L 168.865514 203.061639 
L 167.952823 202.432778 
L 165.999569 201.32526 
L 164.141252 200.110137 
L 142.356143 186.816203 
L 141.490148 186.140128 
L 140.477998 185.682342 
L 139.572559 185.030889 
L 138.535742 184.590991 
L 136.665767 183.380949 
L 135.686613 182.866627 
L 134.780262 182.242141 
L 132.843961 181.159824 
L 131.920107 180.525741 
L 129.969141 179.423117 
L 129.103578 178.710374 
L 128.184371 178.10718 
L 127.17945 177.653096 
L 126.282486 177.009309 
L 123.364394 175.456622 
L 121.478617 174.265761 
L 120.470656 173.743124 
L 119.541159 173.103982 
L 117.61599 172.020698 
L 116.705739 171.39651 
L 114.776121 170.322931 
L 113.857828 169.69872 
L 112.87078 169.189461 
L 112.00761 168.49242 
L 111.085335 167.904415 
L 110.065731 167.458702 
L 109.13882 166.809254 
L 107.152527 165.72848 
L 106.173479 165.218345 
L 104.38169 163.969993 
L 102.437195 162.941542 
L 101.431301 162.433378 
L 100.491036 161.801111 
L 99.496352 161.288803 
L 98.585598 160.670404 
L 96.662452 159.62192 
L 95.739386 159.007395 
L 94.738598 158.502823 
L 93.805945 157.878245 
L 92.819616 157.376821 
L 91.917022 156.772473 
L 89.922173 155.70318 
L 88.953569 155.039744 
L 87.236129 154.037231 
L 86.899611 154.22525 
L 86.799514 153.944569 
L 86.709512 153.994908 
L 85.74776 154.9433 
L 85.922635 155.244829 
L 86.308569 156.732323 
L 87.165562 158.792711 
L 87.460751 159.905772 
L 88.017288 160.960545 
L 88.890831 164.189164 
L 89.417068 165.181319 
L 90.298499 168.408581 
L 90.820526 169.39446 
L 91.360286 171.585382 
L 91.876356 172.578796 
L 92.472847 174.579125 
L 92.719771 175.644685 
L 93.244179 176.692334 
L 93.884052 178.853677 
L 94.419928 179.841571 
L 94.581471 180.869891 
L 95.003397 181.478984 
L 95.22378 182.322855 
L 95.456138 182.556718 
L 95.870555 182.582631 
L 96.282499 182.867575 
L 97.846823 183.543761 
L 98.984578 183.749976 
L 100.986301 184.659474 
L 102.085337 184.844643 
L 103.180896 185.323958 
L 104.286691 185.932126 
L 105.532417 186.249731 
L 106.782891 186.69745 
L 111.475403 189.769996 
L 113.587135 191.736817 
L 114.575894 192.858549 
L 116.281659 195.348522 
L 116.856764 196.708068 
L 117.646607 197.941847 
L 118.080255 199.356307 
L 118.630509 200.695422 
L 118.737811 202.055596 
L 119.059932 203.557924 
L 118.944085 206.949425 
L 118.621233 208.423546 
L 118.500359 209.8443 
L 117.93068 211.097416 
L 117.511183 212.33968 
L 117.215784 213.609788 
L 115.892499 215.94374 
L 115.506729 217.306861 
L 114.505514 218.337705 
L 113.796851 219.590261 
L 112.947366 220.78281 
L 111.951854 221.837717 
L 110.790319 222.70089 
L 109.769238 223.757001 
L 108.548177 224.585398 
L 104.821023 226.559789 
L 100.579159 227.649249 
L 99.075538 227.982993 
L 95.753436 228.180594 
L 91.753977 227.045355 
L 88.186526 226.157915 
L 87.183682 225.600893 
L 85.093899 225.052769 
L 84.094798 224.515849 
L 81.931895 223.851849 
L 80.93129 223.388223 
L 78.852964 222.85651 
L 77.895714 222.347565 
L 75.745838 221.754633 
L 74.575607 221.445754 
L 73.513513 220.865079 
L 72.434821 220.652529 
L 71.492118 220.3178 
L 70.545784 219.816843 
L 68.251015 219.220089 
L 66.235703 218.398228 
L 65.209683 218.132785 
L 64.191382 217.598756 
L 61.925787 216.96795 
L 60.93793 216.403363 
L 59.819856 216.174147 
L 58.828595 215.600254 
L 57.770336 215.288002 
L 56.809537 214.785171 
L 54.637272 214.204306 
L 53.673264 213.643317 
L 52.535016 213.410695 
L 49.878842 212.128859 
L 46.98818 209.941801 
L 44.731143 206.880099 
L 43.883216 204.875981 
L 43.74233 201.285675 
L 43.757035 198.666975 
L 43.977808 197.622572 
L 44.45576 191.98107 
L 44.59222 190.898499 
L 44.589968 189.748159 
L 44.83366 188.657629 
L 44.759934 187.547503 
L 45.05715 186.458479 
L 45.679958 180.904401 
L 45.684301 179.798477 
L 45.923888 178.725466 
L 45.856281 177.591382 
L 46.161181 176.508552 
L 46.550067 173.302691 
L 46.706469 173.119348 
L 46.514789 172.841949 
L 46.498501 172.293413 
L 45.634138 171.696859 
L 44.91611 171.922657 
L 44.422772 171.609186 
L 42.849079 171.466214 
L 40.930758 170.8796 
L 39.256281 169.86702 
L 37.773698 168.727115 
L 36.313973 167.401283 
L 35.11481 165.486398 
L 34.317848 163.385435 
L 34.351719 159.772155 
L 34.104545 158.813344 
L 34.365162 157.857114 
L 34.30287 155.085191 
L 34.63149 153.03338 
L 34.639213 149.92351 
L 34.561384 148.499158 
L 34.915489 146.365372 
L 34.661991 145.509523 
L 34.651226 144.500896 
L 34.918525 143.23771 
L 34.923671 141.801309 
L 35.126519 140.693417 
L 35.204085 138.286919 
L 36.434791 133.152122 
L 37.232074 130.592381 
L 37.867078 129.446945 
L 38.308359 128.212025 
L 39.001503 127.076375 
L 39.609909 125.854799 
L 40.503993 124.823077 
L 41.142916 123.625767 
L 42.056876 122.625835 
L 42.880865 121.541602 
L 43.831009 120.564906 
L 44.935687 119.798836 
L 46.745551 118.044703 
L 47.701527 117.27369 
L 48.834885 116.657816 
L 51.004949 115.093416 
L 53.371591 113.985748 
L 54.503127 113.205028 
L 55.790382 112.924701 
L 56.93235 112.406232 
L 59.683696 111.798547 
L 60.977559 111.417158 
L 62.236906 111.287014 
L 65.010779 110.805159 
L 66.185375 110.791089 
L 67.319997 111.060693 
L 74.008738 111.064253 
L 75.117265 110.788765 
L 89.538723 110.788721 
L 90.648727 111.065152 
L 109.51941 111.065067 
L 110.629378 110.788557 
L 129.493598 110.788756 
L 130.603188 111.064986 
L 139.569622 111.057701 
L 140.841496 110.824723 
L 142.081843 111.14523 
L 144.157397 111.33513 
L 145.100549 111.088482 
L 147.191054 111.072192 
L 148.322117 111.339229 
L 155.021318 111.341787 
L 156.12918 111.06663 
L 164.999048 111.065554 
L 166.109676 111.341796 
L 182.760784 111.341769 
L 183.871311 111.065257 
L 191.635538 111.065857 
L 192.744129 111.341741 
L 197.200948 111.34082 
L 198.317961 111.068055 
L 200.47284 111.071852 
L 201.46917 111.33261 
L 203.329809 111.143387 
L 206.054015 111.041026 
L 208.31196 111.064776 
L 209.399839 110.793503 
L 217.148008 110.789045 
L 218.258469 111.065 
L 231.584443 111.064524 
L 232.694959 110.788677 
L 234.914736 110.79063 
L 234.914736 110.79063 
" clip-path="url(#p453b381f1f)" style="fill: none; stroke: #05c46b; stroke-linecap: square"/>
   </g>
   <g id="patch_3">
    <path d="M 14.3 241.316966 
L 14.3 104.283034 
" style="fill: none; stroke: #000000; stroke-width: 0.8; stroke-linejoin: miter; stroke-linecap: square"/>
   </g>
   <g id="patch_4">
    <path d="M 450 241.316966 
L 450 104.283034 
" style="fill: none; stroke: #000000; stroke-width: 0.8; stroke-linejoin: miter; stroke-linecap: square"/>
   </g>
   <g id="patch_5">
    <path d="M 14.3 241.316966 
L 450 241.316966 
" style="fill: none; stroke: #000000; stroke-width: 0.8; stroke-linejoin: miter; stroke-linecap: square"/>
   </g>
   <g id="patch_6">
    <path d="M 14.3 104.283034 
L 450 104.283034 
" style="fill: none; stroke: #000000; stroke-width: 0.8; stroke-linejoin: miter; stroke-linecap: square"/>
   </g>
   <g id="legend_1">
    <g id="patch_7">
     <path d="M 187.958594 196.317187 
L 276.341406 196.317187 
Q 278.341406 196.317187 278.341406 194.317187 
L 278.341406 151.282812 
Q 278.341406 149.282812 276.341406 149.282812 
L 187.958594 149.282812 
Q 185.958594 149.282812 185.958594 151.282812 
L 185.958594 194.317187 
Q 185.958594 196.317187 187.958594 196.317187 
z
" style="fill: #ffffff; opacity: 0.8; stroke: #cccccc; stroke-linejoin: miter"/>
    </g>
    <g id="line2d_5">
     <path d="M 189.958594 157.38125 
L 199.958594 157.38125 
L 209.958594 157.38125 
" style="fill: none; stroke: #575fcf; stroke-width: 2; stroke-linecap: square"/>
    </g>
    <g id="text_1">
     <!-- Track -->
     <g transform="translate(217.958594 160.88125)scale(0.1 -0.1)">
      <defs>
       <path id="DejaVuSans-54" d="M -19 4666 
L 3928 4666 
L 3928 4134 
L 2272 4134 
L 2272 0 
L 1638 0 
L 1638 4134 
L -19 4134 
L -19 4666 
z
" transform="scale(0.015625)"/>
       <path id="DejaVuSans-72" d="M 2631 2963 
Q 2534 3019 2420 3045 
Q 2306 3072 2169 3072 
Q 1681 3072 1420 2755 
Q 1159 2438 1159 1844 
L 1159 0 
L 581 0 
L 581 3500 
L 1159 3500 
L 1159 2956 
Q 1341 3275 1631 3429 
Q 1922 3584 2338 3584 
Q 2397 3584 2469 3576 
Q 2541 3569 2628 3553 
L 2631 2963 
z
" transform="scale(0.015625)"/>
       <path id="DejaVuSans-61" d="M 2194 1759 
Q 1497 1759 1228 1600 
Q 959 1441 959 1056 
Q 959 750 1161 570 
Q 1363 391 1709 391 
Q 2188 391 2477 730 
Q 2766 1069 2766 1631 
L 2766 1759 
L 2194 1759 
z
M 3341 1997 
L 3341 0 
L 2766 0 
L 2766 531 
Q 2569 213 2275 61 
Q 1981 -91 1556 -91 
Q 1019 -91 701 211 
Q 384 513 384 1019 
Q 384 1609 779 1909 
Q 1175 2209 1959 2209 
L 2766 2209 
L 2766 2266 
Q 2766 2663 2505 2880 
Q 2244 3097 1772 3097 
Q 1472 3097 1187 3025 
Q 903 2953 641 2809 
L 641 3341 
Q 956 3463 1253 3523 
Q 1550 3584 1831 3584 
Q 2591 3584 2966 3190 
Q 3341 2797 3341 1997 
z
" transform="scale(0.015625)"/>
       <path id="DejaVuSans-63" d="M 3122 3366 
L 3122 2828 
Q 2878 2963 2633 3030 
Q 2388 3097 2138 3097 
Q 1578 3097 1268 2742 
Q 959 2388 959 1747 
Q 959 1106 1268 751 
Q 1578 397 2138 397 
Q 2388 397 2633 464 
Q 2878 531 3122 666 
L 3122 134 
Q 2881 22 2623 -34 
Q 2366 -91 2075 -91 
Q 1284 -91 818 406 
Q 353 903 353 1747 
Q 353 2603 823 3093 
Q 1294 3584 2113 3584 
Q 2378 3584 2631 3529 
Q 2884 3475 3122 3366 
z
" transform="scale(0.015625)"/>
       <path id="DejaVuSans-6b" d="M 581 4863 
L 1159 4863 
L 1159 1991 
L 2875 3500 
L 3609 3500 
L 1753 1863 
L 3688 0 
L 2938 0 
L 1159 1709 
L 1159 0 
L 581 0 
L 581 4863 
z
" transform="scale(0.015625)"/>
      </defs>
      <use xlink:href="#DejaVuSans-54"/>
      <use xlink:href="#DejaVuSans-72" x="46.333984"/>
      <use xlink:href="#DejaVuSans-61" x="87.447266"/>
      <use xlink:href="#DejaVuSans-63" x="148.726562"/>
      <use xlink:href="#DejaVuSans-6b" x="203.707031"/>
     </g>
    </g>
    <g id="line2d_6">
     <path d="M 189.958594 172.059375 
L 199.958594 172.059375 
L 209.958594 172.059375 
" style="fill: none; stroke: #f53b57; stroke-width: 2; stroke-linecap: square"/>
    </g>
    <g id="text_2">
     <!-- Raceline -->
     <g transform="translate(217.958594 175.559375)scale(0.1 -0.1)">
      <defs>
       <path id="DejaVuSans-52" d="M 2841 2188 
Q 3044 2119 3236 1894 
Q 3428 1669 3622 1275 
L 4263 0 
L 3584 0 
L 2988 1197 
Q 2756 1666 2539 1819 
Q 2322 1972 1947 1972 
L 1259 1972 
L 1259 0 
L 628 0 
L 628 4666 
L 2053 4666 
Q 2853 4666 3247 4331 
Q 3641 3997 3641 3322 
Q 3641 2881 3436 2590 
Q 3231 2300 2841 2188 
z
M 1259 4147 
L 1259 2491 
L 2053 2491 
Q 2509 2491 2742 2702 
Q 2975 2913 2975 3322 
Q 2975 3731 2742 3939 
Q 2509 4147 2053 4147 
L 1259 4147 
z
" transform="scale(0.015625)"/>
       <path id="DejaVuSans-65" d="M 3597 1894 
L 3597 1613 
L 953 1613 
Q 991 1019 1311 708 
Q 1631 397 2203 397 
Q 2534 397 2845 478 
Q 3156 559 3463 722 
L 3463 178 
Q 3153 47 2828 -22 
Q 2503 -91 2169 -91 
Q 1331 -91 842 396 
Q 353 884 353 1716 
Q 353 2575 817 3079 
Q 1281 3584 2069 3584 
Q 2775 3584 3186 3129 
Q 3597 2675 3597 1894 
z
M 3022 2063 
Q 3016 2534 2758 2815 
Q 2500 3097 2075 3097 
Q 1594 3097 1305 2825 
Q 1016 2553 972 2059 
L 3022 2063 
z
" transform="scale(0.015625)"/>
       <path id="DejaVuSans-6c" d="M 603 4863 
L 1178 4863 
L 1178 0 
L 603 0 
L 603 4863 
z
" transform="scale(0.015625)"/>
       <path id="DejaVuSans-69" d="M 603 3500 
L 1178 3500 
L 1178 0 
L 603 0 
L 603 3500 
z
M 603 4863 
L 1178 4863 
L 1178 4134 
L 603 4134 
L 603 4863 
z
" transform="scale(0.015625)"/>
       <path id="DejaVuSans-6e" d="M 3513 2113 
L 3513 0 
L 2938 0 
L 2938 2094 
Q 2938 2591 2744 2837 
Q 2550 3084 2163 3084 
Q 1697 3084 1428 2787 
Q 1159 2491 1159 1978 
L 1159 0 
L 581 0 
L 581 3500 
L 1159 3500 
L 1159 2956 
Q 1366 3272 1645 3428 
Q 1925 3584 2291 3584 
Q 2894 3584 3203 3211 
Q 3513 2838 3513 2113 
z
" transform="scale(0.015625)"/>
      </defs>
      <use xlink:href="#DejaVuSans-52"/>
      <use xlink:href="#DejaVuSans-61" x="67.232422"/>
      <use xlink:href="#DejaVuSans-63" x="128.511719"/>
      <use xlink:href="#DejaVuSans-65" x="183.492188"/>
      <use xlink:href="#DejaVuSans-6c" x="245.015625"/>
      <use xlink:href="#DejaVuSans-69" x="272.798828"/>
      <use xlink:href="#DejaVuSans-6e" x="300.582031"/>
      <use xlink:href="#DejaVuSans-65" x="363.960938"/>
     </g>
    </g>
    <g id="line2d_7">
     <path d="M 189.958594 186.7375 
L 199.958594 186.7375 
L 209.958594 186.7375 
" style="fill: none; stroke: #05c46b; stroke-linecap: square"/>
    </g>
    <g id="text_3">
     <!-- Boundaries -->
     <g transform="translate(217.958594 190.2375)scale(0.1 -0.1)">
      <defs>
       <path id="DejaVuSans-42" d="M 1259 2228 
L 1259 519 
L 2272 519 
Q 2781 519 3026 730 
Q 3272 941 3272 1375 
Q 3272 1813 3026 2020 
Q 2781 2228 2272 2228 
L 1259 2228 
z
M 1259 4147 
L 1259 2741 
L 2194 2741 
Q 2656 2741 2882 2914 
Q 3109 3088 3109 3444 
Q 3109 3797 2882 3972 
Q 2656 4147 2194 4147 
L 1259 4147 
z
M 628 4666 
L 2241 4666 
Q 2963 4666 3353 4366 
Q 3744 4066 3744 3513 
Q 3744 3084 3544 2831 
Q 3344 2578 2956 2516 
Q 3422 2416 3680 2098 
Q 3938 1781 3938 1306 
Q 3938 681 3513 340 
Q 3088 0 2303 0 
L 628 0 
L 628 4666 
z
" transform="scale(0.015625)"/>
       <path id="DejaVuSans-6f" d="M 1959 3097 
Q 1497 3097 1228 2736 
Q 959 2375 959 1747 
Q 959 1119 1226 758 
Q 1494 397 1959 397 
Q 2419 397 2687 759 
Q 2956 1122 2956 1747 
Q 2956 2369 2687 2733 
Q 2419 3097 1959 3097 
z
M 1959 3584 
Q 2709 3584 3137 3096 
Q 3566 2609 3566 1747 
Q 3566 888 3137 398 
Q 2709 -91 1959 -91 
Q 1206 -91 779 398 
Q 353 888 353 1747 
Q 353 2609 779 3096 
Q 1206 3584 1959 3584 
z
" transform="scale(0.015625)"/>
       <path id="DejaVuSans-75" d="M 544 1381 
L 544 3500 
L 1119 3500 
L 1119 1403 
Q 1119 906 1312 657 
Q 1506 409 1894 409 
Q 2359 409 2629 706 
Q 2900 1003 2900 1516 
L 2900 3500 
L 3475 3500 
L 3475 0 
L 2900 0 
L 2900 538 
Q 2691 219 2414 64 
Q 2138 -91 1772 -91 
Q 1169 -91 856 284 
Q 544 659 544 1381 
z
M 1991 3584 
L 1991 3584 
z
" transform="scale(0.015625)"/>
       <path id="DejaVuSans-64" d="M 2906 2969 
L 2906 4863 
L 3481 4863 
L 3481 0 
L 2906 0 
L 2906 525 
Q 2725 213 2448 61 
Q 2172 -91 1784 -91 
Q 1150 -91 751 415 
Q 353 922 353 1747 
Q 353 2572 751 3078 
Q 1150 3584 1784 3584 
Q 2172 3584 2448 3432 
Q 2725 3281 2906 2969 
z
M 947 1747 
Q 947 1113 1208 752 
Q 1469 391 1925 391 
Q 2381 391 2643 752 
Q 2906 1113 2906 1747 
Q 2906 2381 2643 2742 
Q 2381 3103 1925 3103 
Q 1469 3103 1208 2742 
Q 947 2381 947 1747 
z
" transform="scale(0.015625)"/>
       <path id="DejaVuSans-73" d="M 2834 3397 
L 2834 2853 
Q 2591 2978 2328 3040 
Q 2066 3103 1784 3103 
Q 1356 3103 1142 2972 
Q 928 2841 928 2578 
Q 928 2378 1081 2264 
Q 1234 2150 1697 2047 
L 1894 2003 
Q 2506 1872 2764 1633 
Q 3022 1394 3022 966 
Q 3022 478 2636 193 
Q 2250 -91 1575 -91 
Q 1294 -91 989 -36 
Q 684 19 347 128 
L 347 722 
Q 666 556 975 473 
Q 1284 391 1588 391 
Q 1994 391 2212 530 
Q 2431 669 2431 922 
Q 2431 1156 2273 1281 
Q 2116 1406 1581 1522 
L 1381 1569 
Q 847 1681 609 1914 
Q 372 2147 372 2553 
Q 372 3047 722 3315 
Q 1072 3584 1716 3584 
Q 2034 3584 2315 3537 
Q 2597 3491 2834 3397 
z
" transform="scale(0.015625)"/>
      </defs>
      <use xlink:href="#DejaVuSans-42"/>
      <use xlink:href="#DejaVuSans-6f" x="68.603516"/>
      <use xlink:href="#DejaVuSans-75" x="129.785156"/>
      <use xlink:href="#DejaVuSans-6e" x="193.164062"/>
      <use xlink:href="#DejaVuSans-64" x="256.542969"/>
      <use xlink:href="#DejaVuSans-61" x="320.019531"/>
      <use xlink:href="#DejaVuSans-72" x="381.298828"/>
      <use xlink:href="#DejaVuSans-69" x="422.412109"/>
      <use xlink:href="#DejaVuSans-65" x="450.195312"/>
      <use xlink:href="#DejaVuSans-73" x="511.71875"/>
     </g>
    </g>
   </g>
  </g>
 </g>
 <defs>
  <clipPath id="p453b381f1f">
   <rect x="14.3" y="104.283034" width="435.7" height="137.033932"/>
  </clipPath>
 </defs>
</svg>
