<?xml version="1.0" encoding="utf-8" standalone="no"?>
<!DOCTYPE svg PUBLIC "-//W3C//DTD SVG 1.1//EN"
  "http://www.w3.org/Graphics/SVG/1.1/DTD/svg11.dtd">
<svg xmlns:xlink="http://www.w3.org/1999/xlink" width="409.970625pt" height="130.186332pt" viewBox="0 0 409.970625 130.186332" xmlns="http://www.w3.org/2000/svg" version="1.1">
 <metadata>
  <rdf:RDF xmlns:dc="http://purl.org/dc/elements/1.1/" xmlns:cc="http://creativecommons.org/ns#" xmlns:rdf="http://www.w3.org/1999/02/22-rdf-syntax-ns#">
   <cc:Work>
    <dc:type rdf:resource="http://purl.org/dc/dcmitype/StillImage"/>
    <dc:date>2024-03-07T16:04:23.200328</dc:date>
    <dc:format>image/svg+xml</dc:format>
    <dc:creator>
     <cc:Agent>
      <dc:title>Matplotlib v3.5.2, https://matplotlib.org/</dc:title>
     </cc:Agent>
    </dc:creator>
   </cc:Work>
  </rdf:RDF>
 </metadata>
 <defs>
  <style type="text/css">*{stroke-linejoin: round; stroke-linecap: butt}</style>
 </defs>
 <g id="figure_1">
  <g id="patch_1">
   <path d="M 0 130.186332 
L 409.970625 130.186332 
L 409.970625 0 
L 0 0 
z
" style="fill: #ffffff"/>
  </g>
  <g id="axes_1">
   <g id="patch_2">
    <path d="M 27.040625 99.830082 
L 409.970625 99.830082 
L 409.970625 20.055282 
L 27.040625 20.055282 
z
" style="fill: #ffffff"/>
   </g>
   <g id="matplotlib.axis_1">
    <g id="xtick_1">
     <g id="line2d_1">
      <path d="M 44.446534 99.830082 
L 44.446534 20.055282 
" clip-path="url(#p2874bb4d0a)" style="fill: none; stroke: #b0b0b0; stroke-width: 0.8; stroke-linecap: square"/>
     </g>
     <g id="line2d_2">
      <defs>
       <path id="m7651bbe8c7" d="M 0 0 
L 0 3.5 
" style="stroke: #000000; stroke-width: 0.8"/>
      </defs>
      <g>
       <use xlink:href="#m7651bbe8c7" x="44.446534" y="99.830082" style="stroke: #000000; stroke-width: 0.8"/>
      </g>
     </g>
     <g id="text_1">
      <!-- 0 -->
      <g transform="translate(41.265284 114.42852)scale(0.1 -0.1)">
       <defs>
        <path id="DejaVuSans-30" d="M 2034 4250 
Q 1547 4250 1301 3770 
Q 1056 3291 1056 2328 
Q 1056 1369 1301 889 
Q 1547 409 2034 409 
Q 2525 409 2770 889 
Q 3016 1369 3016 2328 
Q 3016 3291 2770 3770 
Q 2525 4250 2034 4250 
z
M 2034 4750 
Q 2819 4750 3233 4129 
Q 3647 3509 3647 2328 
Q 3647 1150 3233 529 
Q 2819 -91 2034 -91 
Q 1250 -91 836 529 
Q 422 1150 422 2328 
Q 422 3509 836 4129 
Q 1250 4750 2034 4750 
z
" transform="scale(0.015625)"/>
       </defs>
       <use xlink:href="#DejaVuSans-30"/>
      </g>
     </g>
    </g>
    <g id="xtick_2">
     <g id="line2d_3">
      <path d="M 114.458057 99.830082 
L 114.458057 20.055282 
" clip-path="url(#p2874bb4d0a)" style="fill: none; stroke: #b0b0b0; stroke-width: 0.8; stroke-linecap: square"/>
     </g>
     <g id="line2d_4">
      <g>
       <use xlink:href="#m7651bbe8c7" x="114.458057" y="99.830082" style="stroke: #000000; stroke-width: 0.8"/>
      </g>
     </g>
     <g id="text_2">
      <!-- 20 -->
      <g transform="translate(108.095557 114.42852)scale(0.1 -0.1)">
       <defs>
        <path id="DejaVuSans-32" d="M 1228 531 
L 3431 531 
L 3431 0 
L 469 0 
L 469 531 
Q 828 903 1448 1529 
Q 2069 2156 2228 2338 
Q 2531 2678 2651 2914 
Q 2772 3150 2772 3378 
Q 2772 3750 2511 3984 
Q 2250 4219 1831 4219 
Q 1534 4219 1204 4116 
Q 875 4013 500 3803 
L 500 4441 
Q 881 4594 1212 4672 
Q 1544 4750 1819 4750 
Q 2544 4750 2975 4387 
Q 3406 4025 3406 3419 
Q 3406 3131 3298 2873 
Q 3191 2616 2906 2266 
Q 2828 2175 2409 1742 
Q 1991 1309 1228 531 
z
" transform="scale(0.015625)"/>
       </defs>
       <use xlink:href="#DejaVuSans-32"/>
       <use xlink:href="#DejaVuSans-30" x="63.623047"/>
      </g>
     </g>
    </g>
    <g id="xtick_3">
     <g id="line2d_5">
      <path d="M 184.469579 99.830082 
L 184.469579 20.055282 
" clip-path="url(#p2874bb4d0a)" style="fill: none; stroke: #b0b0b0; stroke-width: 0.8; stroke-linecap: square"/>
     </g>
     <g id="line2d_6">
      <g>
       <use xlink:href="#m7651bbe8c7" x="184.469579" y="99.830082" style="stroke: #000000; stroke-width: 0.8"/>
      </g>
     </g>
     <g id="text_3">
      <!-- 40 -->
      <g transform="translate(178.107079 114.42852)scale(0.1 -0.1)">
       <defs>
        <path id="DejaVuSans-34" d="M 2419 4116 
L 825 1625 
L 2419 1625 
L 2419 4116 
z
M 2253 4666 
L 3047 4666 
L 3047 1625 
L 3713 1625 
L 3713 1100 
L 3047 1100 
L 3047 0 
L 2419 0 
L 2419 1100 
L 313 1100 
L 313 1709 
L 2253 4666 
z
" transform="scale(0.015625)"/>
       </defs>
       <use xlink:href="#DejaVuSans-34"/>
       <use xlink:href="#DejaVuSans-30" x="63.623047"/>
      </g>
     </g>
    </g>
    <g id="xtick_4">
     <g id="line2d_7">
      <path d="M 254.481102 99.830082 
L 254.481102 20.055282 
" clip-path="url(#p2874bb4d0a)" style="fill: none; stroke: #b0b0b0; stroke-width: 0.8; stroke-linecap: square"/>
     </g>
     <g id="line2d_8">
      <g>
       <use xlink:href="#m7651bbe8c7" x="254.481102" y="99.830082" style="stroke: #000000; stroke-width: 0.8"/>
      </g>
     </g>
     <g id="text_4">
      <!-- 60 -->
      <g transform="translate(248.118602 114.42852)scale(0.1 -0.1)">
       <defs>
        <path id="DejaVuSans-36" d="M 2113 2584 
Q 1688 2584 1439 2293 
Q 1191 2003 1191 1497 
Q 1191 994 1439 701 
Q 1688 409 2113 409 
Q 2538 409 2786 701 
Q 3034 994 3034 1497 
Q 3034 2003 2786 2293 
Q 2538 2584 2113 2584 
z
M 3366 4563 
L 3366 3988 
Q 3128 4100 2886 4159 
Q 2644 4219 2406 4219 
Q 1781 4219 1451 3797 
Q 1122 3375 1075 2522 
Q 1259 2794 1537 2939 
Q 1816 3084 2150 3084 
Q 2853 3084 3261 2657 
Q 3669 2231 3669 1497 
Q 3669 778 3244 343 
Q 2819 -91 2113 -91 
Q 1303 -91 875 529 
Q 447 1150 447 2328 
Q 447 3434 972 4092 
Q 1497 4750 2381 4750 
Q 2619 4750 2861 4703 
Q 3103 4656 3366 4563 
z
" transform="scale(0.015625)"/>
       </defs>
       <use xlink:href="#DejaVuSans-36"/>
       <use xlink:href="#DejaVuSans-30" x="63.623047"/>
      </g>
     </g>
    </g>
    <g id="xtick_5">
     <g id="line2d_9">
      <path d="M 324.492625 99.830082 
L 324.492625 20.055282 
" clip-path="url(#p2874bb4d0a)" style="fill: none; stroke: #b0b0b0; stroke-width: 0.8; stroke-linecap: square"/>
     </g>
     <g id="line2d_10">
      <g>
       <use xlink:href="#m7651bbe8c7" x="324.492625" y="99.830082" style="stroke: #000000; stroke-width: 0.8"/>
      </g>
     </g>
     <g id="text_5">
      <!-- 80 -->
      <g transform="translate(318.130125 114.42852)scale(0.1 -0.1)">
       <defs>
        <path id="DejaVuSans-38" d="M 2034 2216 
Q 1584 2216 1326 1975 
Q 1069 1734 1069 1313 
Q 1069 891 1326 650 
Q 1584 409 2034 409 
Q 2484 409 2743 651 
Q 3003 894 3003 1313 
Q 3003 1734 2745 1975 
Q 2488 2216 2034 2216 
z
M 1403 2484 
Q 997 2584 770 2862 
Q 544 3141 544 3541 
Q 544 4100 942 4425 
Q 1341 4750 2034 4750 
Q 2731 4750 3128 4425 
Q 3525 4100 3525 3541 
Q 3525 3141 3298 2862 
Q 3072 2584 2669 2484 
Q 3125 2378 3379 2068 
Q 3634 1759 3634 1313 
Q 3634 634 3220 271 
Q 2806 -91 2034 -91 
Q 1263 -91 848 271 
Q 434 634 434 1313 
Q 434 1759 690 2068 
Q 947 2378 1403 2484 
z
M 1172 3481 
Q 1172 3119 1398 2916 
Q 1625 2713 2034 2713 
Q 2441 2713 2670 2916 
Q 2900 3119 2900 3481 
Q 2900 3844 2670 4047 
Q 2441 4250 2034 4250 
Q 1625 4250 1398 4047 
Q 1172 3844 1172 3481 
z
" transform="scale(0.015625)"/>
       </defs>
       <use xlink:href="#DejaVuSans-38"/>
       <use xlink:href="#DejaVuSans-30" x="63.623047"/>
      </g>
     </g>
    </g>
    <g id="xtick_6">
     <g id="line2d_11">
      <path d="M 394.504148 99.830082 
L 394.504148 20.055282 
" clip-path="url(#p2874bb4d0a)" style="fill: none; stroke: #b0b0b0; stroke-width: 0.8; stroke-linecap: square"/>
     </g>
     <g id="line2d_12">
      <g>
       <use xlink:href="#m7651bbe8c7" x="394.504148" y="99.830082" style="stroke: #000000; stroke-width: 0.8"/>
      </g>
     </g>
     <g id="text_6">
      <!-- 100 -->
      <g transform="translate(384.960398 114.42852)scale(0.1 -0.1)">
       <defs>
        <path id="DejaVuSans-31" d="M 794 531 
L 1825 531 
L 1825 4091 
L 703 3866 
L 703 4441 
L 1819 4666 
L 2450 4666 
L 2450 531 
L 3481 531 
L 3481 0 
L 794 0 
L 794 531 
z
" transform="scale(0.015625)"/>
       </defs>
       <use xlink:href="#DejaVuSans-31"/>
       <use xlink:href="#DejaVuSans-30" x="63.623047"/>
       <use xlink:href="#DejaVuSans-30" x="127.246094"/>
      </g>
     </g>
    </g>
    <g id="text_7">
     <!-- Track progress [%] -->
     <g transform="translate(172.015 128.106645)scale(0.1 -0.1)">
      <defs>
       <path id="DejaVuSans-54" d="M -19 4666 
L 3928 4666 
L 3928 4134 
L 2272 4134 
L 2272 0 
L 1638 0 
L 1638 4134 
L -19 4134 
L -19 4666 
z
" transform="scale(0.015625)"/>
       <path id="DejaVuSans-72" d="M 2631 2963 
Q 2534 3019 2420 3045 
Q 2306 3072 2169 3072 
Q 1681 3072 1420 2755 
Q 1159 2438 1159 1844 
L 1159 0 
L 581 0 
L 581 3500 
L 1159 3500 
L 1159 2956 
Q 1341 3275 1631 3429 
Q 1922 3584 2338 3584 
Q 2397 3584 2469 3576 
Q 2541 3569 2628 3553 
L 2631 2963 
z
" transform="scale(0.015625)"/>
       <path id="DejaVuSans-61" d="M 2194 1759 
Q 1497 1759 1228 1600 
Q 959 1441 959 1056 
Q 959 750 1161 570 
Q 1363 391 1709 391 
Q 2188 391 2477 730 
Q 2766 1069 2766 1631 
L 2766 1759 
L 2194 1759 
z
M 3341 1997 
L 3341 0 
L 2766 0 
L 2766 531 
Q 2569 213 2275 61 
Q 1981 -91 1556 -91 
Q 1019 -91 701 211 
Q 384 513 384 1019 
Q 384 1609 779 1909 
Q 1175 2209 1959 2209 
L 2766 2209 
L 2766 2266 
Q 2766 2663 2505 2880 
Q 2244 3097 1772 3097 
Q 1472 3097 1187 3025 
Q 903 2953 641 2809 
L 641 3341 
Q 956 3463 1253 3523 
Q 1550 3584 1831 3584 
Q 2591 3584 2966 3190 
Q 3341 2797 3341 1997 
z
" transform="scale(0.015625)"/>
       <path id="DejaVuSans-63" d="M 3122 3366 
L 3122 2828 
Q 2878 2963 2633 3030 
Q 2388 3097 2138 3097 
Q 1578 3097 1268 2742 
Q 959 2388 959 1747 
Q 959 1106 1268 751 
Q 1578 397 2138 397 
Q 2388 397 2633 464 
Q 2878 531 3122 666 
L 3122 134 
Q 2881 22 2623 -34 
Q 2366 -91 2075 -91 
Q 1284 -91 818 406 
Q 353 903 353 1747 
Q 353 2603 823 3093 
Q 1294 3584 2113 3584 
Q 2378 3584 2631 3529 
Q 2884 3475 3122 3366 
z
" transform="scale(0.015625)"/>
       <path id="DejaVuSans-6b" d="M 581 4863 
L 1159 4863 
L 1159 1991 
L 2875 3500 
L 3609 3500 
L 1753 1863 
L 3688 0 
L 2938 0 
L 1159 1709 
L 1159 0 
L 581 0 
L 581 4863 
z
" transform="scale(0.015625)"/>
       <path id="DejaVuSans-20" transform="scale(0.015625)"/>
       <path id="DejaVuSans-70" d="M 1159 525 
L 1159 -1331 
L 581 -1331 
L 581 3500 
L 1159 3500 
L 1159 2969 
Q 1341 3281 1617 3432 
Q 1894 3584 2278 3584 
Q 2916 3584 3314 3078 
Q 3713 2572 3713 1747 
Q 3713 922 3314 415 
Q 2916 -91 2278 -91 
Q 1894 -91 1617 61 
Q 1341 213 1159 525 
z
M 3116 1747 
Q 3116 2381 2855 2742 
Q 2594 3103 2138 3103 
Q 1681 3103 1420 2742 
Q 1159 2381 1159 1747 
Q 1159 1113 1420 752 
Q 1681 391 2138 391 
Q 2594 391 2855 752 
Q 3116 1113 3116 1747 
z
" transform="scale(0.015625)"/>
       <path id="DejaVuSans-6f" d="M 1959 3097 
Q 1497 3097 1228 2736 
Q 959 2375 959 1747 
Q 959 1119 1226 758 
Q 1494 397 1959 397 
Q 2419 397 2687 759 
Q 2956 1122 2956 1747 
Q 2956 2369 2687 2733 
Q 2419 3097 1959 3097 
z
M 1959 3584 
Q 2709 3584 3137 3096 
Q 3566 2609 3566 1747 
Q 3566 888 3137 398 
Q 2709 -91 1959 -91 
Q 1206 -91 779 398 
Q 353 888 353 1747 
Q 353 2609 779 3096 
Q 1206 3584 1959 3584 
z
" transform="scale(0.015625)"/>
       <path id="DejaVuSans-67" d="M 2906 1791 
Q 2906 2416 2648 2759 
Q 2391 3103 1925 3103 
Q 1463 3103 1205 2759 
Q 947 2416 947 1791 
Q 947 1169 1205 825 
Q 1463 481 1925 481 
Q 2391 481 2648 825 
Q 2906 1169 2906 1791 
z
M 3481 434 
Q 3481 -459 3084 -895 
Q 2688 -1331 1869 -1331 
Q 1566 -1331 1297 -1286 
Q 1028 -1241 775 -1147 
L 775 -588 
Q 1028 -725 1275 -790 
Q 1522 -856 1778 -856 
Q 2344 -856 2625 -561 
Q 2906 -266 2906 331 
L 2906 616 
Q 2728 306 2450 153 
Q 2172 0 1784 0 
Q 1141 0 747 490 
Q 353 981 353 1791 
Q 353 2603 747 3093 
Q 1141 3584 1784 3584 
Q 2172 3584 2450 3431 
Q 2728 3278 2906 2969 
L 2906 3500 
L 3481 3500 
L 3481 434 
z
" transform="scale(0.015625)"/>
       <path id="DejaVuSans-65" d="M 3597 1894 
L 3597 1613 
L 953 1613 
Q 991 1019 1311 708 
Q 1631 397 2203 397 
Q 2534 397 2845 478 
Q 3156 559 3463 722 
L 3463 178 
Q 3153 47 2828 -22 
Q 2503 -91 2169 -91 
Q 1331 -91 842 396 
Q 353 884 353 1716 
Q 353 2575 817 3079 
Q 1281 3584 2069 3584 
Q 2775 3584 3186 3129 
Q 3597 2675 3597 1894 
z
M 3022 2063 
Q 3016 2534 2758 2815 
Q 2500 3097 2075 3097 
Q 1594 3097 1305 2825 
Q 1016 2553 972 2059 
L 3022 2063 
z
" transform="scale(0.015625)"/>
       <path id="DejaVuSans-73" d="M 2834 3397 
L 2834 2853 
Q 2591 2978 2328 3040 
Q 2066 3103 1784 3103 
Q 1356 3103 1142 2972 
Q 928 2841 928 2578 
Q 928 2378 1081 2264 
Q 1234 2150 1697 2047 
L 1894 2003 
Q 2506 1872 2764 1633 
Q 3022 1394 3022 966 
Q 3022 478 2636 193 
Q 2250 -91 1575 -91 
Q 1294 -91 989 -36 
Q 684 19 347 128 
L 347 722 
Q 666 556 975 473 
Q 1284 391 1588 391 
Q 1994 391 2212 530 
Q 2431 669 2431 922 
Q 2431 1156 2273 1281 
Q 2116 1406 1581 1522 
L 1381 1569 
Q 847 1681 609 1914 
Q 372 2147 372 2553 
Q 372 3047 722 3315 
Q 1072 3584 1716 3584 
Q 2034 3584 2315 3537 
Q 2597 3491 2834 3397 
z
" transform="scale(0.015625)"/>
       <path id="DejaVuSans-5b" d="M 550 4863 
L 1875 4863 
L 1875 4416 
L 1125 4416 
L 1125 -397 
L 1875 -397 
L 1875 -844 
L 550 -844 
L 550 4863 
z
" transform="scale(0.015625)"/>
       <path id="DejaVuSans-25" d="M 4653 2053 
Q 4381 2053 4226 1822 
Q 4072 1591 4072 1178 
Q 4072 772 4226 539 
Q 4381 306 4653 306 
Q 4919 306 5073 539 
Q 5228 772 5228 1178 
Q 5228 1588 5073 1820 
Q 4919 2053 4653 2053 
z
M 4653 2450 
Q 5147 2450 5437 2106 
Q 5728 1763 5728 1178 
Q 5728 594 5436 251 
Q 5144 -91 4653 -91 
Q 4153 -91 3862 251 
Q 3572 594 3572 1178 
Q 3572 1766 3864 2108 
Q 4156 2450 4653 2450 
z
M 1428 4353 
Q 1159 4353 1004 4120 
Q 850 3888 850 3481 
Q 850 3069 1003 2837 
Q 1156 2606 1428 2606 
Q 1700 2606 1854 2837 
Q 2009 3069 2009 3481 
Q 2009 3884 1853 4118 
Q 1697 4353 1428 4353 
z
M 4250 4750 
L 4750 4750 
L 1831 -91 
L 1331 -91 
L 4250 4750 
z
M 1428 4750 
Q 1922 4750 2215 4408 
Q 2509 4066 2509 3481 
Q 2509 2891 2217 2550 
Q 1925 2209 1428 2209 
Q 931 2209 642 2551 
Q 353 2894 353 3481 
Q 353 4063 643 4406 
Q 934 4750 1428 4750 
z
" transform="scale(0.015625)"/>
       <path id="DejaVuSans-5d" d="M 1947 4863 
L 1947 -844 
L 622 -844 
L 622 -397 
L 1369 -397 
L 1369 4416 
L 622 4416 
L 622 4863 
L 1947 4863 
z
" transform="scale(0.015625)"/>
      </defs>
      <use xlink:href="#DejaVuSans-54"/>
      <use xlink:href="#DejaVuSans-72" x="46.333984"/>
      <use xlink:href="#DejaVuSans-61" x="87.447266"/>
      <use xlink:href="#DejaVuSans-63" x="148.726562"/>
      <use xlink:href="#DejaVuSans-6b" x="203.707031"/>
      <use xlink:href="#DejaVuSans-20" x="261.617188"/>
      <use xlink:href="#DejaVuSans-70" x="293.404297"/>
      <use xlink:href="#DejaVuSans-72" x="356.880859"/>
      <use xlink:href="#DejaVuSans-6f" x="395.744141"/>
      <use xlink:href="#DejaVuSans-67" x="456.925781"/>
      <use xlink:href="#DejaVuSans-72" x="520.402344"/>
      <use xlink:href="#DejaVuSans-65" x="559.265625"/>
      <use xlink:href="#DejaVuSans-73" x="620.789062"/>
      <use xlink:href="#DejaVuSans-73" x="672.888672"/>
      <use xlink:href="#DejaVuSans-20" x="724.988281"/>
      <use xlink:href="#DejaVuSans-5b" x="756.775391"/>
      <use xlink:href="#DejaVuSans-25" x="795.789062"/>
      <use xlink:href="#DejaVuSans-5d" x="890.808594"/>
     </g>
    </g>
   </g>
   <g id="matplotlib.axis_2">
    <g id="ytick_1">
     <g id="line2d_13">
      <path d="M 27.040625 89.193442 
L 409.970625 89.193442 
" clip-path="url(#p2874bb4d0a)" style="fill: none; stroke: #b0b0b0; stroke-width: 0.8; stroke-linecap: square"/>
     </g>
     <g id="line2d_14">
      <defs>
       <path id="me46b580d40" d="M 0 0 
L -3.5 0 
" style="stroke: #000000; stroke-width: 0.8"/>
      </defs>
      <g>
       <use xlink:href="#me46b580d40" x="27.040625" y="89.193442" style="stroke: #000000; stroke-width: 0.8"/>
      </g>
     </g>
     <g id="text_8">
      <!-- 2 -->
      <g transform="translate(13.678125 92.992661)scale(0.1 -0.1)">
       <use xlink:href="#DejaVuSans-32"/>
      </g>
     </g>
    </g>
    <g id="ytick_2">
     <g id="line2d_15">
      <path d="M 27.040625 67.920162 
L 409.970625 67.920162 
" clip-path="url(#p2874bb4d0a)" style="fill: none; stroke: #b0b0b0; stroke-width: 0.8; stroke-linecap: square"/>
     </g>
     <g id="line2d_16">
      <g>
       <use xlink:href="#me46b580d40" x="27.040625" y="67.920162" style="stroke: #000000; stroke-width: 0.8"/>
      </g>
     </g>
     <g id="text_9">
      <!-- 4 -->
      <g transform="translate(13.678125 71.719381)scale(0.1 -0.1)">
       <use xlink:href="#DejaVuSans-34"/>
      </g>
     </g>
    </g>
    <g id="ytick_3">
     <g id="line2d_17">
      <path d="M 27.040625 46.646882 
L 409.970625 46.646882 
" clip-path="url(#p2874bb4d0a)" style="fill: none; stroke: #b0b0b0; stroke-width: 0.8; stroke-linecap: square"/>
     </g>
     <g id="line2d_18">
      <g>
       <use xlink:href="#me46b580d40" x="27.040625" y="46.646882" style="stroke: #000000; stroke-width: 0.8"/>
      </g>
     </g>
     <g id="text_10">
      <!-- 6 -->
      <g transform="translate(13.678125 50.446101)scale(0.1 -0.1)">
       <use xlink:href="#DejaVuSans-36"/>
      </g>
     </g>
    </g>
    <g id="ytick_4">
     <g id="line2d_19">
      <path d="M 27.040625 25.373602 
L 409.970625 25.373602 
" clip-path="url(#p2874bb4d0a)" style="fill: none; stroke: #b0b0b0; stroke-width: 0.8; stroke-linecap: square"/>
     </g>
     <g id="line2d_20">
      <g>
       <use xlink:href="#me46b580d40" x="27.040625" y="25.373602" style="stroke: #000000; stroke-width: 0.8"/>
      </g>
     </g>
     <g id="text_11">
      <!-- 8 -->
      <g transform="translate(13.678125 29.172821)scale(0.1 -0.1)">
       <use xlink:href="#DejaVuSans-38"/>
      </g>
     </g>
    </g>
    <g id="text_12">
     <!-- Speed [m/s] -->
     <g transform="translate(7.598438 90.268464)rotate(-90)scale(0.1 -0.1)">
      <defs>
       <path id="DejaVuSans-53" d="M 3425 4513 
L 3425 3897 
Q 3066 4069 2747 4153 
Q 2428 4238 2131 4238 
Q 1616 4238 1336 4038 
Q 1056 3838 1056 3469 
Q 1056 3159 1242 3001 
Q 1428 2844 1947 2747 
L 2328 2669 
Q 3034 2534 3370 2195 
Q 3706 1856 3706 1288 
Q 3706 609 3251 259 
Q 2797 -91 1919 -91 
Q 1588 -91 1214 -16 
Q 841 59 441 206 
L 441 856 
Q 825 641 1194 531 
Q 1563 422 1919 422 
Q 2459 422 2753 634 
Q 3047 847 3047 1241 
Q 3047 1584 2836 1778 
Q 2625 1972 2144 2069 
L 1759 2144 
Q 1053 2284 737 2584 
Q 422 2884 422 3419 
Q 422 4038 858 4394 
Q 1294 4750 2059 4750 
Q 2388 4750 2728 4690 
Q 3069 4631 3425 4513 
z
" transform="scale(0.015625)"/>
       <path id="DejaVuSans-64" d="M 2906 2969 
L 2906 4863 
L 3481 4863 
L 3481 0 
L 2906 0 
L 2906 525 
Q 2725 213 2448 61 
Q 2172 -91 1784 -91 
Q 1150 -91 751 415 
Q 353 922 353 1747 
Q 353 2572 751 3078 
Q 1150 3584 1784 3584 
Q 2172 3584 2448 3432 
Q 2725 3281 2906 2969 
z
M 947 1747 
Q 947 1113 1208 752 
Q 1469 391 1925 391 
Q 2381 391 2643 752 
Q 2906 1113 2906 1747 
Q 2906 2381 2643 2742 
Q 2381 3103 1925 3103 
Q 1469 3103 1208 2742 
Q 947 2381 947 1747 
z
" transform="scale(0.015625)"/>
       <path id="DejaVuSans-6d" d="M 3328 2828 
Q 3544 3216 3844 3400 
Q 4144 3584 4550 3584 
Q 5097 3584 5394 3201 
Q 5691 2819 5691 2113 
L 5691 0 
L 5113 0 
L 5113 2094 
Q 5113 2597 4934 2840 
Q 4756 3084 4391 3084 
Q 3944 3084 3684 2787 
Q 3425 2491 3425 1978 
L 3425 0 
L 2847 0 
L 2847 2094 
Q 2847 2600 2669 2842 
Q 2491 3084 2119 3084 
Q 1678 3084 1418 2786 
Q 1159 2488 1159 1978 
L 1159 0 
L 581 0 
L 581 3500 
L 1159 3500 
L 1159 2956 
Q 1356 3278 1631 3431 
Q 1906 3584 2284 3584 
Q 2666 3584 2933 3390 
Q 3200 3197 3328 2828 
z
" transform="scale(0.015625)"/>
       <path id="DejaVuSans-2f" d="M 1625 4666 
L 2156 4666 
L 531 -594 
L 0 -594 
L 1625 4666 
z
" transform="scale(0.015625)"/>
      </defs>
      <use xlink:href="#DejaVuSans-53"/>
      <use xlink:href="#DejaVuSans-70" x="63.476562"/>
      <use xlink:href="#DejaVuSans-65" x="126.953125"/>
      <use xlink:href="#DejaVuSans-65" x="188.476562"/>
      <use xlink:href="#DejaVuSans-64" x="250"/>
      <use xlink:href="#DejaVuSans-20" x="313.476562"/>
      <use xlink:href="#DejaVuSans-5b" x="345.263672"/>
      <use xlink:href="#DejaVuSans-6d" x="384.277344"/>
      <use xlink:href="#DejaVuSans-2f" x="481.689453"/>
      <use xlink:href="#DejaVuSans-73" x="515.380859"/>
      <use xlink:href="#DejaVuSans-5d" x="567.480469"/>
     </g>
    </g>
   </g>
   <g id="line2d_21">
    <path d="M 44.446534 110.466722 
L 44.446534 82.750404 
L 44.838338 78.704226 
L 45.602357 74.658048 
L 45.602357 70.611871 
L 46.385966 62.519515 
L 46.405556 58.473337 
L 47.972773 42.623436 
L 48.756382 39.569199 
L 49.539991 34.987315 
L 50.3236 33.285122 
L 50.715404 31.884317 
L 51.499013 30.731537 
L 51.890817 29.782867 
L 52.694016 29.002167 
L 53.08582 28.359697 
L 53.869429 27.830983 
L 54.261234 27.395882 
L 56.220255 26.500663 
L 59.35469 25.798996 
L 60.549694 25.661693 
L 62.508715 25.534162 
L 62.90052 25.703223 
L 65.251346 25.597894 
L 66.034955 26.391816 
L 66.426759 27.480915 
L 67.210368 28.31232 
L 67.621763 29.344463 
L 68.405371 30.107257 
L 68.797176 31.033674 
L 69.580784 31.723827 
L 70.364393 33.112426 
L 71.148002 33.55986 
L 71.539806 34.121163 
L 72.323415 34.501106 
L 73.107024 35.023592 
L 73.890632 36.123158 
L 74.282437 39.334378 
L 74.693831 38.609009 
L 75.47744 38.012074 
L 75.869244 37.518459 
L 77.436462 36.74459 
L 77.828266 37.650491 
L 78.220071 37.155832 
L 79.003679 36.687856 
L 79.787288 35.862678 
L 80.570897 35.417055 
L 81.354506 34.525813 
L 82.138114 33.936566 
L 82.529919 33.321776 
L 83.313527 32.529963 
L 83.705332 31.708846 
L 84.488941 30.848715 
L 84.880745 29.879298 
L 85.664354 29.081524 
L 86.056158 28.425004 
L 88.03477 27.074216 
L 90.385596 26.153577 
L 93.520031 25.667993 
L 98.633078 25.435529 
L 110.818194 25.37513 
L 120.241089 25.373685 
L 120.632894 25.682473 
L 121.416502 26.630874 
L 121.808307 28.596562 
L 122.591915 30.162862 
L 122.98372 32.152369 
L 123.786919 33.627153 
L 124.178723 35.43884 
L 124.962332 36.760299 
L 125.745941 39.6149 
L 126.529549 40.665843 
L 126.921354 41.64223 
L 127.704962 44.120335 
L 128.096767 45.019609 
L 128.880376 46.258264 
L 129.663984 48.006952 
L 130.075379 48.761358 
L 130.858988 49.478015 
L 131.250792 50.160442 
L 132.034401 51.84736 
L 132.81801 52.869282 
L 133.601618 53.557444 
L 135.56064 54.01669 
L 137.931057 54.013771 
L 139.10647 53.833215 
L 139.890078 53.476488 
L 140.281883 53.187942 
L 141.065491 52.804878 
L 141.8491 51.684994 
L 142.240905 50.928288 
L 143.024513 48.373843 
L 143.827712 45.223496 
L 144.611321 43.899756 
L 145.003125 43.650221 
L 145.39493 45.075234 
L 145.786734 47.004452 
L 146.570343 46.848899 
L 147.353952 45.903625 
L 148.921169 45.300804 
L 150.096582 45.140275 
L 150.488387 46.260947 
L 150.880191 45.96992 
L 152.075194 45.492763 
L 154.817825 43.874054 
L 156.385042 42.238029 
L 157.168651 40.597444 
L 157.95226 39.444395 
L 158.755459 37.023872 
L 159.539067 35.484804 
L 159.930872 34.006536 
L 160.714481 33.083169 
L 161.106285 32.983118 
L 161.498089 33.875713 
L 162.281698 36.659733 
L 162.673502 39.065622 
L 163.457111 41.301323 
L 164.24072 47.186144 
L 166.611136 60.1704 
L 167.394745 63.004608 
L 167.786549 63.581104 
L 168.570158 65.315623 
L 168.570158 66.116379 
L 169.353767 67.337654 
L 169.745571 67.571235 
L 169.745571 67.848936 
L 170.52918 68.232466 
L 171.312789 68.351091 
L 173.663615 68.37234 
L 174.839028 68.204196 
L 175.230832 67.97229 
L 176.014441 67.559005 
L 176.406246 67.219259 
L 176.406246 66.939667 
L 177.189854 65.994227 
L 177.973463 64.413853 
L 178.776662 62.456173 
L 178.776662 61.331103 
L 179.168466 60.401305 
L 179.560271 60.127908 
L 179.952075 60.812717 
L 181.127488 66.012524 
L 181.911097 69.126409 
L 182.302901 69.754928 
L 182.302901 70.635824 
L 183.08651 72.247578 
L 184.653728 73.457843 
L 185.456926 73.679431 
L 186.240535 73.728987 
L 186.65193 74.122278 
L 187.043734 74.054633 
L 187.455129 74.165485 
L 189.022346 73.734075 
L 189.825545 73.431785 
L 189.825545 73.208521 
L 191.000958 72.193817 
L 191.000958 71.617475 
L 191.392763 71.143181 
L 191.784567 70.464233 
L 191.784567 69.55717 
L 193.351785 64.740399 
L 193.351785 63.969089 
L 194.135393 63.662368 
L 194.919002 63.753151 
L 195.702611 64.485805 
L 196.486219 66.267558 
L 196.486219 67.04085 
L 197.269828 67.822244 
L 198.053437 68.715579 
L 199.24844 69.114033 
L 201.207462 69.124034 
L 203.166484 68.933266 
L 203.950093 68.607013 
L 205.125506 68.00813 
L 205.125506 67.754468 
L 206.300919 66.734973 
L 206.300919 66.340863 
L 207.084528 65.307345 
L 208.651745 62.634304 
L 208.651745 61.831012 
L 209.846748 58.897304 
L 211.022162 55.336398 
L 212.981183 48.490389 
L 213.764792 47.040998 
L 214.940205 41.937164 
L 215.723814 40.302823 
L 216.527013 36.666516 
L 217.310622 34.959075 
L 218.09423 31.865191 
L 218.877839 30.715798 
L 219.269644 29.769914 
L 220.053252 28.991508 
L 220.445057 28.350926 
L 222.404078 27.03293 
L 224.774495 26.134642 
L 227.90893 25.660846 
L 233.021977 25.434025 
L 245.207093 25.375093 
L 264.836492 25.373606 
L 265.6201 29.380932 
L 266.011905 33.42711 
L 266.815104 37.430958 
L 267.598712 33.53923 
L 268.774126 31.364131 
L 269.16593 35.410309 
L 269.949539 35.353545 
L 270.341343 33.586507 
L 271.144542 32.132339 
L 271.555937 30.935645 
L 272.398316 29.950835 
L 272.79012 31.155057 
L 273.573729 39.247412 
L 275.513161 43.29359 
L 275.904965 47.339768 
L 276.688574 41.088408 
L 277.472183 38.776412 
L 277.863987 36.873775 
L 278.255791 35.987728 
L 279.0394 39.959607 
L 279.431204 43.982307 
L 279.823009 44.214133 
L 280.214813 41.042443 
L 280.998422 38.330478 
L 281.782031 34.148414 
L 282.565639 32.594755 
L 283.349248 31.316186 
L 284.132857 30.263998 
L 284.524661 29.39811 
L 285.30827 28.685535 
L 285.719664 28.099128 
L 286.503273 27.616549 
L 286.895078 27.219416 
L 289.245904 26.220172 
L 290.029513 26.070279 
L 290.813121 26.351492 
L 291.988534 28.712582 
L 292.380339 29.926491 
L 293.163948 31.397902 
L 293.967146 33.6994 
L 294.750755 34.603786 
L 295.14256 35.6895 
L 295.926168 36.483496 
L 296.317973 37.145448 
L 296.709777 38.055863 
L 297.493386 38.745346 
L 298.668799 40.618148 
L 299.452408 41.085642 
L 300.236016 42.186214 
L 300.627821 42.557147 
L 301.43102 42.857952 
L 301.822824 43.206038 
L 304.17365 43.797371 
L 304.957259 43.869736 
L 308.111284 43.804093 
L 308.894893 43.652878 
L 310.46211 43.0869 
L 311.245719 42.18871 
L 312.029328 41.643616 
L 312.421132 41.036226 
L 312.812937 40.163391 
L 313.596545 39.243767 
L 314.380154 37.015487 
L 315.163763 35.739406 
L 315.555567 34.438712 
L 316.339176 32.833654 
L 317.142375 31.512785 
L 317.945574 30.425788 
L 318.729183 28.795104 
L 320.688204 27.280481 
L 322.666816 26.436348 
L 326.193056 25.7037 
L 328.152078 25.557573 
L 329.719295 33.329638 
L 330.502904 37.375816 
L 330.894708 38.527701 
L 331.306103 36.495477 
L 331.697907 35.151855 
L 332.481516 34.403886 
L 332.87332 34.444167 
L 334.048733 37.053235 
L 334.832342 38.336386 
L 336.007755 44.538946 
L 336.39956 48.585124 
L 336.791364 49.781398 
L 337.574973 48.4896 
L 338.378172 46.668162 
L 339.16178 46.002434 
L 339.553585 45.931675 
L 339.945389 48.024558 
L 340.337194 48.017789 
L 340.728998 47.112964 
L 341.512607 46.34481 
L 342.68802 44.566367 
L 343.471628 44.062739 
L 344.255237 42.957389 
L 344.647042 42.33054 
L 345.450241 41.677819 
L 345.842045 40.986617 
L 347.017458 40.382048 
L 347.409262 41.046364 
L 347.801067 43.931747 
L 348.584675 46.577353 
L 350.935502 61.162205 
L 351.327306 62.819342 
L 351.71911 63.531981 
L 352.522309 65.618026 
L 352.522309 66.593871 
L 353.305918 68.121811 
L 355.26494 69.477178 
L 356.440353 69.749525 
L 359.182984 69.741079 
L 359.182984 69.689285 
L 360.358397 69.376869 
L 360.358397 69.168821 
L 361.53381 68.29637 
L 361.53381 67.847451 
L 362.709223 66.084495 
L 363.101027 65.414448 
L 363.101027 64.63127 
L 364.296031 61.746942 
L 365.471444 58.830187 
L 368.214074 52.097831 
L 368.997683 50.636723 
L 369.389487 50.371463 
L 369.781292 51.030785 
L 370.564901 51.685528 
L 370.956705 51.612319 
L 371.740314 50.914945 
L 372.523922 49.79639 
L 373.699336 48.575729 
L 374.482944 47.745174 
L 375.658357 47.255628 
L 376.050162 46.726054 
L 376.050162 46.726054 
" clip-path="url(#p2874bb4d0a)" style="fill: none; stroke: #ff3f34; stroke-opacity: 0.99; stroke-width: 2.4; stroke-linecap: square"/>
   </g>
   <g id="line2d_22">
    <path d="M 44.446534 110.466722 
L 44.446534 82.469582 
L 44.838338 78.423404 
L 45.602357 74.377226 
L 45.602357 70.331048 
L 46.385966 62.238692 
L 46.405556 58.192515 
L 47.972773 42.392336 
L 48.756382 40.479803 
L 49.539991 35.604006 
L 50.3236 35.079942 
L 50.715404 33.361349 
L 51.499013 31.947047 
L 51.890817 30.78316 
L 52.694016 29.82535 
L 53.08582 29.037129 
L 53.869429 28.388469 
L 54.261234 27.85466 
L 55.044842 27.415366 
L 55.436647 27.053854 
L 58.571082 26.025883 
L 61.725107 25.6398 
L 67.210368 25.419685 
L 68.013567 26.829104 
L 70.364393 26.041159 
L 71.539806 25.825693 
L 72.323415 29.140384 
L 73.107024 28.473443 
L 73.498828 32.519621 
L 74.282437 36.565799 
L 75.869244 52.75051 
L 76.652853 56.796688 
L 76.652853 60.596176 
L 77.828266 51.607359 
L 78.611875 58.030896 
L 79.003679 57.843707 
L 79.395484 56.065194 
L 80.179093 47.972838 
L 80.962701 44.03948 
L 81.74631 38.014732 
L 82.529919 35.776508 
L 83.313527 32.418783 
L 84.097136 31.171371 
L 84.488941 30.144824 
L 85.272549 29.991561 
L 85.664354 32.386468 
L 86.467553 33.944328 
L 86.859357 33.356767 
L 87.642966 31.943277 
L 88.03477 30.780058 
L 88.818379 29.822797 
L 89.210183 29.035027 
L 89.993792 28.386739 
L 90.385596 27.853236 
L 91.169205 27.414195 
L 91.561009 27.05289 
L 93.520031 26.309506 
L 95.890448 25.80285 
L 96.674056 27.668932 
L 97.457665 27.262524 
L 97.84947 26.928074 
L 100.200296 26.08655 
L 103.354321 25.643545 
L 105.313343 25.52405 
L 106.096952 29.570228 
L 106.488756 28.827178 
L 107.272365 31.879229 
L 107.664169 35.713786 
L 108.447778 37.49473 
L 109.250977 33.850651 
L 110.034585 32.349714 
L 110.42639 31.114532 
L 111.209999 30.098049 
L 111.601803 29.261544 
L 112.385412 28.573149 
L 112.777216 28.006641 
L 113.560825 27.540438 
L 113.952629 28.029461 
L 114.736238 32.075639 
L 115.128042 36.121816 
L 115.911651 38.116006 
L 116.71485 34.529529 
L 117.498459 32.908391 
L 117.890263 31.574289 
L 118.673872 30.476403 
L 119.065676 29.572906 
L 119.849285 28.829382 
L 120.241089 28.217505 
L 122.200111 26.958572 
L 124.178723 26.256941 
L 124.570528 30.303119 
L 125.354136 34.349297 
L 125.745941 38.395475 
L 126.529549 42.441653 
L 127.313158 50.534008 
L 127.704962 52.698753 
L 128.096767 51.423947 
L 128.488571 49.467031 
L 128.880376 48.509905 
L 129.27218 49.178342 
L 130.075379 51.207054 
L 130.467183 51.854011 
L 130.858988 51.298755 
L 131.642596 49.093473 
L 132.034401 48.703881 
L 132.426205 50.040094 
L 132.81801 51.808487 
L 133.209814 52.804001 
L 133.601618 52.753056 
L 134.385227 60.845412 
L 134.777031 58.986902 
L 135.168836 57.684454 
L 135.56064 61.730632 
L 135.952444 61.501032 
L 136.344249 61.832221 
L 136.736053 62.690044 
L 137.147448 62.860269 
L 137.539252 62.699692 
L 137.931057 62.352795 
L 137.931057 61.832099 
L 138.714665 60.278234 
L 139.498274 58.013758 
L 139.890078 56.298199 
L 140.281883 53.869564 
L 141.065491 47.343922 
L 142.240905 42.869899 
L 142.632709 41.276699 
L 143.024513 39.195979 
L 143.827712 36.748604 
L 144.219517 34.734559 
L 145.003125 33.077118 
L 145.786734 41.169474 
L 146.570343 45.215652 
L 148.13756 61.400363 
L 148.921169 53.876321 
L 149.312973 53.357206 
L 150.096582 61.449562 
L 150.488387 63.809785 
L 150.488387 63.413263 
L 150.880191 62.077246 
L 152.075194 55.236167 
L 152.858803 49.841176 
L 153.250607 45.796713 
L 154.034216 42.18062 
L 154.817825 36.755853 
L 155.601434 34.740524 
L 155.993238 33.082027 
L 156.776847 31.717181 
L 157.168651 30.593994 
L 157.95226 29.669677 
L 158.344064 28.909019 
L 159.147263 28.283042 
L 159.539067 27.7679 
L 160.322676 27.343968 
L 160.714481 26.995097 
L 162.673502 26.280268 
L 165.827528 25.715812 
L 166.219332 29.761989 
L 167.002941 33.808167 
L 167.394745 37.854345 
L 168.178354 41.900523 
L 171.312789 74.269946 
L 171.312789 78.316124 
L 171.704593 75.13564 
L 171.704593 79.181818 
L 172.096397 83.227995 
L 172.488202 80.109985 
L 172.880006 77.894012 
L 172.880006 76.025059 
L 173.663615 73.442618 
L 174.055419 72.48985 
L 174.055419 71.644081 
L 174.839028 69.99942 
L 174.839028 69.08689 
L 175.622637 66.837592 
L 176.406246 63.838417 
L 176.406246 62.074409 
L 177.189854 57.637208 
L 177.973463 50.591792 
L 178.776662 46.545615 
L 179.560271 39.711967 
L 179.952075 37.173232 
L 180.735684 41.219409 
L 182.694706 61.450299 
L 183.08651 62.749423 
L 184.261923 74.887956 
L 184.261923 78.934134 
L 184.653728 82.980312 
L 184.653728 86.431154 
L 185.065122 88.005542 
L 185.065122 88.682595 
L 185.848731 89.175971 
L 187.043734 89.193186 
L 187.043734 87.129688 
L 187.455129 85.520395 
L 187.455129 84.164277 
L 187.846933 83.094494 
L 187.846933 82.166783 
L 188.630542 80.73476 
L 188.630542 80.15494 
L 189.022346 79.611037 
L 189.022346 79.062122 
L 189.414151 78.500037 
L 189.414151 77.917525 
L 190.21735 76.5858 
L 190.21735 75.846228 
L 190.609154 75.024817 
L 190.609154 74.1375 
L 191.392763 72.151176 
L 191.392763 70.954618 
L 191.784567 69.497758 
L 192.568176 65.154869 
L 192.568176 69.201047 
L 193.743589 81.339581 
L 193.743589 85.290831 
L 194.135393 84.394056 
L 194.135393 87.129504 
L 194.527198 88.305862 
L 194.527198 86.9806 
L 194.919002 88.241827 
L 194.919002 87.14448 
L 195.310806 86.160468 
L 195.310806 84.800614 
L 195.702611 84.125198 
L 195.702611 83.488307 
L 196.094415 82.850159 
L 196.094415 82.307394 
L 196.486219 81.544169 
L 196.486219 79.826726 
L 197.269828 77.714404 
L 197.269828 76.479117 
L 197.661633 75.105315 
L 197.661633 73.558737 
L 198.856636 68.156259 
L 198.856636 66.424715 
L 199.24844 65.10869 
L 199.640245 64.262282 
L 200.423853 72.354638 
L 200.423853 76.400816 
L 200.815658 80.446994 
L 200.815658 84.493172 
L 201.207462 87.172128 
L 201.207462 88.819628 
L 201.991071 89.180658 
L 202.382875 89.191078 
L 202.77468 86.984497 
L 202.77468 84.901149 
L 203.166484 83.156926 
L 203.166484 81.671796 
L 203.558288 80.352632 
L 203.558288 79.138258 
L 203.950093 78.018927 
L 203.950093 76.940124 
L 204.733701 74.63811 
L 204.733701 73.325021 
L 205.51731 70.36712 
L 205.51731 68.520977 
L 206.300919 64.048591 
L 207.084528 57.349365 
L 208.651745 41.715084 
L 209.454944 38.821679 
L 210.238553 34.481071 
L 211.022162 32.868512 
L 211.413966 31.541472 
L 212.197575 30.449395 
L 212.589379 29.550681 
L 213.372988 28.811092 
L 213.764792 28.202454 
L 214.548401 27.70158 
L 214.940205 27.289391 
L 215.723814 26.978869 
L 216.115618 26.694643 
L 216.918817 30.727316 
L 217.702426 29.779396 
L 218.09423 28.999313 
L 218.877839 33.045491 
L 219.661448 41.137847 
L 220.445057 45.184024 
L 221.62047 57.322558 
L 222.012274 53.27638 
L 222.404078 57.322558 
L 223.599082 45.205487 
L 224.382691 49.251665 
L 225.166299 57.34402 
L 226.341712 45.329453 
L 226.733517 43.297629 
L 227.125321 42.527284 
L 227.90893 42.732355 
L 228.300734 43.375697 
L 228.692539 43.267704 
L 229.476147 42.798642 
L 230.671151 40.284497 
L 231.454759 39.882307 
L 231.846564 39.491154 
L 232.238368 38.792735 
L 233.021977 37.660331 
L 233.805586 34.165131 
L 234.589194 32.608513 
L 234.980999 31.327508 
L 235.764607 30.273316 
L 236.156412 29.405778 
L 236.940021 28.691845 
L 237.331825 28.10432 
L 238.135024 27.620822 
L 238.526828 27.222932 
L 240.48585 26.404275 
L 242.836676 25.846319 
L 243.620285 26.944441 
L 244.012089 26.666311 
L 244.815288 30.712489 
L 245.207093 34.758667 
L 245.990701 33.592461 
L 246.382506 32.137239 
L 247.166115 30.939677 
L 247.557919 29.954154 
L 248.341528 29.143126 
L 248.733332 28.475699 
L 249.516941 27.926445 
L 249.908745 27.474441 
L 251.887357 26.544446 
L 255.021792 25.815522 
L 258.548032 25.510867 
L 259.35123 28.968018 
L 260.134839 28.331596 
L 260.526644 27.807859 
L 261.310252 31.854037 
L 261.702057 35.900214 
L 262.093861 34.036391 
L 262.87747 33.802556 
L 263.269274 32.310136 
L 264.052883 31.465377 
L 264.444687 30.386789 
L 265.228296 34.432967 
L 265.6201 32.828936 
L 266.423299 31.508904 
L 266.815104 30.422595 
L 267.598712 34.468773 
L 268.382321 42.561129 
L 269.16593 46.607307 
L 269.949539 54.699663 
L 270.341343 56.333058 
L 270.733147 55.302723 
L 271.144542 53.479021 
L 271.555937 52.436188 
L 271.986921 52.217621 
L 272.398316 54.969885 
L 273.181925 63.062241 
L 273.181925 67.108419 
L 273.573729 71.154597 
L 275.513161 76.566877 
L 275.513161 77.159337 
L 275.904965 77.338702 
L 275.904965 77.246712 
L 276.296769 77.024631 
L 276.296769 76.695788 
L 276.688574 76.287906 
L 277.080378 75.434389 
L 277.080378 74.448869 
L 277.863987 72.20221 
L 277.863987 71.091007 
L 279.0394 67.869776 
L 279.0394 66.891359 
L 279.431204 66.068117 
L 279.823009 64.136032 
L 282.173835 40.759064 
L 282.957444 38.45366 
L 283.741052 38.182857 
L 284.916466 49.91799 
L 285.30827 48.880262 
L 285.719664 44.872185 
L 286.503273 41.503427 
L 286.895078 40.888369 
L 287.286882 43.225872 
L 288.070491 44.066498 
L 288.462295 42.65272 
L 289.245904 37.075574 
L 290.029513 35.003636 
L 290.421317 33.298552 
L 291.204926 31.895369 
L 291.59673 30.740632 
L 292.380339 29.790352 
L 292.772143 29.008327 
L 293.555752 28.364766 
L 293.967146 27.835154 
L 294.750755 27.399315 
L 295.14256 27.040645 
L 295.926168 26.745481 
L 296.317973 30.791659 
L 297.101581 30.690808 
L 297.493386 29.749361 
L 298.276995 33.795538 
L 298.668799 32.30436 
L 299.452408 36.350537 
L 299.844212 40.396715 
L 300.627821 44.442893 
L 302.606433 64.673782 
L 302.606433 63.444308 
L 302.998237 59.39813 
L 303.390042 56.921801 
L 303.781846 57.588872 
L 304.17365 60.438311 
L 304.565455 61.610744 
L 304.957259 61.180373 
L 304.957259 59.965456 
L 305.740868 56.082353 
L 306.524476 51.649293 
L 307.308085 49.141169 
L 308.894893 37.73053 
L 309.678502 35.771578 
L 310.070306 33.930524 
L 310.853915 32.415445 
L 311.245719 31.168624 
L 312.029328 30.142564 
L 312.421132 29.298177 
L 313.204741 28.804883 
L 313.596545 30.461929 
L 314.380154 34.49771 
L 314.771958 37.772583 
L 315.163763 38.206922 
L 315.947372 42.2531 
L 316.339176 39.264435 
L 317.142375 47.356791 
L 317.945574 51.402968 
L 318.337378 51.295637 
L 319.904596 66.955418 
L 320.2964 68.749114 
L 320.2964 68.704289 
L 320.688204 68.180468 
L 321.080009 67.251153 
L 321.883208 64.24527 
L 321.883208 62.038659 
L 322.666816 56.422448 
L 323.450425 49.127776 
L 324.234034 45.107929 
L 325.017643 38.738321 
L 326.193056 35.869295 
L 327.368469 39.136368 
L 327.760273 41.655077 
L 328.152078 41.777458 
L 328.543882 41.565692 
L 329.327491 41.63807 
L 329.719295 43.146044 
L 330.111099 43.763901 
L 331.306103 42.28201 
L 331.697907 42.265392 
L 332.87332 54.403926 
L 333.656929 58.450104 
L 334.048733 62.496282 
L 334.048733 66.542459 
L 334.832342 73.784578 
L 335.224147 73.37886 
L 335.615951 72.748102 
L 335.615951 71.989852 
L 336.791364 69.058932 
L 336.791364 67.875158 
L 337.966777 63.858161 
L 337.966777 62.494527 
L 339.16178 58.477126 
L 339.945389 55.035836 
L 340.728998 51.211849 
L 341.512607 48.390867 
L 342.296215 47.112294 
L 343.863433 41.582532 
L 345.038846 40.826535 
L 345.450241 40.101119 
L 346.233849 38.222404 
L 347.017458 34.14148 
L 347.801067 33.882436 
L 348.192871 36.763132 
L 348.97648 38.164462 
L 349.760089 34.514541 
L 350.543697 32.896058 
L 351.327306 40.988414 
L 352.110915 45.034592 
L 354.481331 69.311659 
L 354.873136 73.357837 
L 354.873136 77.404015 
L 355.26494 81.450192 
L 355.26494 85.380405 
L 355.656744 87.553675 
L 355.656744 88.89019 
L 356.048549 85.006138 
L 356.048549 87.392725 
L 356.440353 88.419058 
L 356.440353 88.860425 
L 356.832157 89.050231 
L 357.223962 86.334779 
L 357.223962 83.957474 
L 357.615766 82.069883 
L 357.615766 80.508085 
L 358.399375 77.996188 
L 358.399375 76.918875 
L 358.791179 75.8678 
L 358.791179 74.809199 
L 359.574788 72.472163 
L 359.574788 71.137017 
L 360.358397 67.786214 
L 361.142006 63.453672 
L 361.142006 60.892875 
L 362.317419 49.026734 
L 363.101027 45.011691 
L 363.904226 38.673145 
L 364.687835 36.318342 
L 365.471444 32.78573 
L 366.255053 31.473347 
L 366.646857 30.393333 
L 367.430466 29.504545 
L 367.82227 33.550723 
L 368.605879 37.596901 
L 369.389487 45.689256 
L 370.173096 49.735434 
L 370.956705 57.82779 
L 371.348509 58.475209 
L 371.740314 54.444529 
L 372.132118 52.118767 
L 372.915727 59.586699 
L 373.307531 60.311505 
L 373.307531 63.085541 
L 373.699336 59.257058 
L 374.482944 55.21088 
L 374.874749 52.373875 
L 375.658357 50.119547 
L 375.658357 50.819392 
L 376.050162 53.814868 
L 376.853361 55.607803 
L 377.245165 55.779747 
L 377.636969 55.52335 
L 378.028774 54.931928 
L 378.420578 53.903737 
L 378.812383 52.076183 
L 379.204187 49.072792 
L 379.987796 41.570693 
L 380.771404 38.702854 
L 381.574603 34.400598 
L 382.358212 32.802288 
L 382.750016 31.486973 
L 383.533625 33.695223 
L 383.92543 37.7414 
L 384.709038 41.787578 
L 385.100843 45.532497 
L 385.492647 44.905378 
L 386.276256 40.521458 
L 387.059865 40.353044 
L 387.451669 42.520662 
L 387.843473 42.286574 
L 388.646672 39.291983 
L 389.430281 34.799576 
L 390.21389 33.130623 
L 390.605694 31.757173 
L 391.389303 30.626905 
L 391.781107 29.696761 
L 392.564716 28.931307 
L 392.564716 28.931307 
" clip-path="url(#p2874bb4d0a)" style="fill: none; stroke: #05c46b; stroke-opacity: 0.99; stroke-width: 2.4; stroke-linecap: square"/>
   </g>
   <g id="line2d_23">
    <path d="M 44.446534 110.466722 
L 44.446534 82.64925 
L 44.838338 78.603072 
L 45.602357 74.830157 
L 45.602357 71.723369 
L 46.385966 67.062649 
L 46.405556 65.331167 
L 46.79736 63.90626 
L 46.79736 62.733645 
L 47.580969 60.97452 
L 48.364578 59.783184 
L 49.148187 58.976374 
L 49.931795 58.429975 
L 51.107208 57.922466 
L 52.694016 57.57657 
L 55.044842 57.374545 
L 59.746495 57.292304 
L 74.693831 57.283529 
L 74.693831 61.329707 
L 75.085636 65.375885 
L 75.869244 69.422063 
L 77.044658 67.272826 
L 77.436462 65.504131 
L 78.220071 64.048599 
L 79.003679 61.865049 
L 79.003679 61.053849 
L 79.787288 59.836908 
L 80.570897 59.012757 
L 81.354506 58.454616 
L 82.529919 57.936198 
L 84.097136 57.582868 
L 86.056158 57.396506 
L 90.385596 57.296768 
L 110.818194 57.283523 
L 133.993423 57.283523 
L 134.777031 65.375878 
L 135.168836 63.943054 
L 135.952444 62.763925 
L 136.344249 61.793571 
L 136.736053 65.839749 
L 137.539252 69.885927 
L 137.931057 67.654559 
L 137.931057 65.818274 
L 138.714665 64.30712 
L 139.498274 62.040128 
L 140.281883 60.504848 
L 140.673687 59.934484 
L 140.673687 59.465107 
L 141.457296 58.760962 
L 142.632709 58.106932 
L 143.827712 57.742427 
L 145.39493 57.493996 
L 147.745756 57.348897 
L 148.529365 57.337322 
L 149.312973 65.429678 
L 150.488387 63.987328 
L 151.271995 61.823555 
L 152.075194 60.358178 
L 152.075194 59.813782 
L 152.858803 58.997096 
L 153.642412 58.444009 
L 154.817825 57.930287 
L 156.385042 57.580157 
L 158.344064 57.395483 
L 162.673502 57.296648 
L 169.353767 57.284 
L 170.137376 61.330178 
L 170.52918 65.376356 
L 171.312789 69.422534 
L 172.096397 76.368709 
L 172.488202 77.61583 
L 172.880006 78.152145 
L 172.880006 78.382782 
L 173.663615 78.542963 
L 174.447224 78.556329 
L 175.230832 71.690149 
L 175.230832 69.139327 
L 176.014441 65.312653 
L 176.406246 63.891024 
L 176.406246 62.721107 
L 177.189854 60.966029 
L 177.973463 59.777434 
L 178.776662 58.972479 
L 179.560271 58.427338 
L 180.735684 57.920996 
L 181.911097 57.638801 
L 182.694706 61.684978 
L 183.870119 73.823512 
L 184.261923 76.521288 
L 184.653728 77.681445 
L 185.848731 78.394917 
L 187.846933 78.543928 
L 189.825545 78.556721 
L 190.609154 71.690414 
L 190.609154 69.139545 
L 191.392763 65.312801 
L 191.784567 63.891146 
L 191.784567 62.721207 
L 192.568176 60.966097 
L 192.95998 60.314064 
L 192.95998 59.77748 
L 193.351785 59.335902 
L 194.135393 63.38208 
L 195.310806 67.428258 
L 196.094415 71.474436 
L 196.486219 75.239049 
L 196.878024 77.130029 
L 197.269828 77.943229 
L 197.269828 74.285244 
L 198.053437 68.797633 
L 198.464832 66.758957 
L 198.464832 65.081247 
L 199.24844 62.564391 
L 200.423853 74.616784 
L 200.423853 76.862428 
L 200.815658 77.82815 
L 201.599266 78.243451 
L 204.733701 78.552194 
L 204.733701 74.786386 
L 205.51731 69.137022 
L 205.51731 67.038254 
L 206.300919 63.889739 
L 207.084528 61.757464 
L 207.868136 60.313419 
L 208.651745 59.335465 
L 209.454944 58.673164 
L 210.630357 58.058 
L 211.80577 57.715156 
L 213.372988 57.481488 
L 216.115618 57.334125 
L 223.187687 57.285039 
L 272.79012 57.283523 
L 273.181925 61.3297 
L 273.181925 69.422056 
L 273.181925 67.27282 
L 275.101766 65.504126 
L 276.296769 77.639459 
L 276.688574 78.162306 
L 277.080378 78.387152 
L 277.080378 74.650567 
L 277.863987 69.045041 
L 277.863987 66.962559 
L 278.647596 63.838476 
L 279.0394 62.677863 
L 279.823009 61.722747 
L 280.606617 60.289908 
L 280.998422 59.7576 
L 280.998422 59.319543 
L 281.782031 58.662381 
L 282.957444 58.051991 
L 283.741052 57.803954 
L 288.462295 57.333732 
L 295.14256 57.285351 
L 301.43102 57.283621 
L 302.214628 65.375977 
L 302.998237 69.422154 
L 303.781846 65.504193 
L 304.565455 62.850824 
L 305.349063 61.053877 
L 306.132672 59.836927 
L 306.916281 59.01277 
L 307.69989 58.454624 
L 308.894893 57.936203 
L 310.46211 57.58287 
L 312.421132 57.396507 
L 321.080009 57.285815 
L 333.265125 57.283528 
L 333.656929 61.329706 
L 334.440538 60.023727 
L 335.224147 59.53855 
L 336.007755 58.810699 
L 336.791364 58.317775 
L 337.574973 57.983952 
L 341.904411 57.404773 
L 345.450241 57.304512 
L 353.305918 57.283948 
L 354.089527 61.330126 
L 354.481331 65.376304 
L 355.656744 69.422482 
L 356.048549 73.46866 
L 357.223962 77.61582 
L 357.615766 78.15214 
L 358.007571 78.382781 
L 358.791179 78.542962 
L 359.574788 71.681096 
L 359.574788 69.131877 
L 360.358397 65.307608 
L 361.142006 62.71769 
L 361.925614 60.963715 
L 361.925614 60.312104 
L 362.709223 59.334575 
L 363.492832 58.672561 
L 364.687835 58.057664 
L 365.863248 57.714969 
L 367.430466 57.481402 
L 368.605879 57.393805 
L 369.781292 69.532339 
L 370.956705 67.363577 
L 372.523922 65.578813 
L 373.307531 62.901359 
L 373.699336 61.906671 
L 373.699336 61.088101 
L 374.482944 59.860105 
L 375.286143 59.028467 
L 375.286143 58.719509 
L 376.050162 58.256018 
L 377.245165 57.825516 
L 378.812383 57.532104 
L 381.163209 57.360734 
L 386.276256 57.290972 
L 392.564716 57.283852 
L 392.564716 57.283852 
" clip-path="url(#p2874bb4d0a)" style="fill: none; stroke: #ffa801; stroke-opacity: 0.99; stroke-width: 2.4; stroke-linecap: square"/>
   </g>
   <g id="line2d_24">
    <path d="M 44.446534 110.466722 
L 44.446534 87.201434 
L 44.838338 83.155256 
L 44.838338 79.109079 
L 45.602357 75.062901 
L 45.602357 71.016723 
L 45.994161 67.107947 
L 46.385966 64.506299 
L 46.405556 62.681285 
L 47.189165 59.476236 
L 48.364578 52.978845 
L 48.756382 51.406458 
L 49.148187 50.741012 
L 49.539991 50.484559 
L 49.931795 49.988264 
L 50.3236 48.774001 
L 51.107208 47.819193 
L 51.890817 45.919263 
L 52.694016 44.093917 
L 53.477625 43.593931 
L 54.653038 55.732465 
L 55.044842 55.59378 
L 56.61206 50.812286 
L 57.003864 50.281082 
L 57.395668 50.003885 
L 57.787473 49.922304 
L 58.571082 49.907417 
L 58.962886 50.239989 
L 59.35469 50.096677 
L 60.549694 49.357738 
L 62.90052 48.835484 
L 64.075933 48.474632 
L 64.467737 48.454218 
L 65.251346 48.653413 
L 65.64315 49.243632 
L 66.426759 51.408853 
L 67.210368 54.045652 
L 68.797176 57.771869 
L 69.18898 58.834693 
L 70.364393 56.783638 
L 70.756197 56.358006 
L 71.931611 53.986953 
L 72.323415 53.437124 
L 72.715219 53.135392 
L 73.107024 53.306957 
L 73.498828 56.950352 
L 73.890632 56.915989 
L 74.282437 56.622924 
L 75.085636 54.519508 
L 75.47744 52.329186 
L 76.261049 50.37976 
L 77.436462 45.807689 
L 77.828266 48.192487 
L 78.611875 50.251296 
L 79.003679 54.297474 
L 79.395484 51.036335 
L 80.179093 47.113458 
L 80.962701 52.471018 
L 81.74631 48.310506 
L 82.529919 52.356684 
L 82.921723 56.402862 
L 83.313527 57.673593 
L 83.705332 61.719771 
L 83.705332 65.618492 
L 84.097136 62.960238 
L 84.488941 58.91406 
L 85.272549 55.008151 
L 86.056158 47.31965 
L 86.859357 44.688361 
L 87.642966 41.670215 
L 88.03477 41.605906 
L 88.818379 45.652084 
L 89.210183 49.217493 
L 89.601988 49.058693 
L 89.993792 47.804237 
L 90.385596 46.923806 
L 91.169205 45.53115 
L 91.561009 44.386281 
L 91.952814 43.725624 
L 92.344618 44.841934 
L 93.128227 52.934289 
L 93.520031 53.428996 
L 93.911836 52.098063 
L 94.715035 54.830635 
L 95.106839 58.876813 
L 95.106839 57.919596 
L 96.282252 51.424636 
L 97.457665 43.846043 
L 97.84947 42.721329 
L 98.633078 41.991401 
L 99.024883 44.238942 
L 100.200296 56.377476 
L 100.5921 59.096391 
L 100.983905 60.012576 
L 101.375709 59.782458 
L 101.787103 57.654562 
L 102.962517 47.100423 
L 103.354321 45.05904 
L 104.13793 44.128064 
L 104.921538 40.833998 
L 105.705147 44.880176 
L 106.096952 48.398111 
L 106.488756 49.084731 
L 106.88056 48.623652 
L 107.272365 48.477979 
L 108.055973 45.974308 
L 109.642781 43.465999 
L 110.818194 54.983998 
L 111.601803 54.327404 
L 112.385412 50.370782 
L 112.777216 50.779881 
L 113.16902 54.826058 
L 113.560825 53.780271 
L 114.344434 52.756235 
L 114.736238 53.343599 
L 115.128042 54.504772 
L 115.519847 55.116757 
L 115.911651 51.862703 
L 116.323046 51.503882 
L 116.71485 51.424575 
L 117.106654 51.616985 
L 117.498459 51.467762 
L 117.890263 49.159168 
L 118.673872 46.567418 
L 119.065676 44.539009 
L 119.457481 43.550224 
L 119.849285 43.205276 
L 120.632894 43.518343 
L 121.024698 43.854549 
L 121.416502 43.434574 
L 121.808307 42.707247 
L 122.591915 42.410917 
L 122.98372 43.373339 
L 123.395114 45.226314 
L 123.786919 46.121255 
L 124.178723 47.814073 
L 124.962332 47.348103 
L 125.354136 46.139553 
L 125.745941 45.932129 
L 126.137745 45.956736 
L 126.529549 46.468574 
L 127.313158 46.811974 
L 127.704962 47.196329 
L 128.096767 48.861587 
L 128.488571 49.308365 
L 128.880376 49.161889 
L 129.27218 48.394153 
L 130.075379 53.590211 
L 130.858988 55.036374 
L 131.250792 56.266803 
L 132.034401 57.280277 
L 132.426205 58.486227 
L 132.81801 59.107085 
L 132.81801 60.316105 
L 133.209814 60.478663 
L 133.601618 60.417531 
L 133.993423 60.514566 
L 134.385227 60.295539 
L 134.777031 59.147559 
L 135.168836 58.782527 
L 135.56064 60.196883 
L 135.952444 63.355741 
L 136.344249 62.779678 
L 137.539252 55.143294 
L 137.931057 53.774258 
L 138.322861 53.234259 
L 138.714665 54.540873 
L 139.10647 56.640754 
L 139.498274 56.259694 
L 139.890078 55.185374 
L 140.281883 53.465151 
L 141.065491 59.970401 
L 141.8491 57.436524 
L 142.240905 56.599373 
L 142.632709 54.563143 
L 143.024513 54.349715 
L 143.435908 55.060625 
L 144.219517 57.986585 
L 144.611321 57.822709 
L 145.39493 59.846647 
L 145.786734 60.181196 
L 146.570343 59.858637 
L 147.353952 59.428112 
L 147.745756 58.655273 
L 148.13756 57.452781 
L 148.529365 56.783685 
L 149.312973 52.807211 
L 149.704778 51.944519 
L 150.096582 51.686932 
L 150.880191 49.521509 
L 151.6638 50.441822 
L 152.075194 52.049461 
L 152.858803 50.856178 
L 153.250607 52.102023 
L 153.642412 52.840081 
L 154.42602 55.286485 
L 154.817825 54.945789 
L 155.209629 50.945828 
L 157.168651 70.55261 
L 157.168651 66.506432 
L 157.560455 62.460254 
L 157.95226 59.701776 
L 158.344064 58.15333 
L 159.539067 55.708022 
L 159.930872 55.492692 
L 160.322676 53.090569 
L 160.714481 51.60634 
L 161.498089 56.309112 
L 161.889894 56.938407 
L 162.673502 55.99573 
L 163.065307 55.841776 
L 163.457111 54.531897 
L 164.24072 53.887906 
L 164.632524 53.416685 
L 165.024329 53.175112 
L 165.416133 51.960291 
L 166.219332 56.078588 
L 166.611136 58.90308 
L 167.394745 60.754 
L 167.786549 62.362377 
L 167.786549 65.410155 
L 168.178354 69.252522 
L 168.570158 71.543939 
L 168.961963 71.6922 
L 168.961963 71.409835 
L 169.745571 70.288838 
L 170.137376 70.233291 
L 170.52918 69.557979 
L 170.52918 69.063019 
L 171.704593 80.888768 
L 172.096397 81.338518 
L 172.488202 79.228711 
L 172.488202 76.781409 
L 172.880006 74.684934 
L 173.271811 73.388671 
L 174.055419 72.005344 
L 174.055419 70.764926 
L 174.447224 69.484128 
L 174.839028 69.101185 
L 175.230832 69.329294 
L 175.230832 66.767558 
L 176.014441 63.660088 
L 176.79805 61.741114 
L 177.189854 61.356035 
L 177.973463 54.711317 
L 178.384858 53.624089 
L 178.776662 53.448445 
L 179.168466 51.730782 
L 179.560271 51.621896 
L 179.952075 51.917628 
L 180.343879 52.865989 
L 181.519293 63.111042 
L 182.302901 68.492785 
L 182.694706 70.569769 
L 182.694706 71.799228 
L 183.08651 72.402836 
L 183.478314 72.546968 
L 183.870119 73.033069 
L 184.261923 73.936632 
L 184.653728 74.181638 
L 184.653728 77.891888 
L 185.456926 77.464362 
L 185.848731 77.492107 
L 186.240535 74.52106 
L 186.240535 73.616996 
L 187.043734 81.021781 
L 187.455129 84.89876 
L 187.455129 87.435453 
L 187.846933 83.473125 
L 187.846933 81.995933 
L 188.238737 81.017836 
L 188.238737 79.399905 
L 188.630542 77.982664 
L 188.630542 77.095392 
L 189.022346 76.52725 
L 189.414151 77.557266 
L 189.825545 81.189384 
L 189.825545 83.04143 
L 190.21735 81.316142 
L 190.21735 77.269964 
L 190.609154 74.845362 
L 190.609154 72.752944 
L 191.000958 70.964117 
L 191.392763 70.316486 
L 191.392763 70.640464 
L 191.784567 70.509817 
L 192.176371 73.424094 
L 192.176371 74.762119 
L 193.351785 67.870183 
L 193.743589 66.662282 
L 194.135393 66.632718 
L 194.527198 66.879407 
L 195.702611 67.298824 
L 196.094415 67.241811 
L 196.094415 66.924676 
L 196.486219 66.333551 
L 196.878024 65.530989 
L 196.878024 64.944048 
L 197.269828 64.696277 
L 198.053437 64.647982 
L 198.464832 64.856756 
L 198.464832 64.735857 
L 198.856636 64.395912 
L 199.24844 63.8442 
L 200.032049 61.318539 
L 200.423853 60.592247 
L 200.815658 62.561634 
L 200.815658 66.607811 
L 201.207462 70.653989 
L 201.207462 69.394877 
L 201.991071 67.674084 
L 201.991071 66.384594 
L 202.382875 68.116597 
L 202.77468 67.611045 
L 202.77468 65.412293 
L 203.558288 59.680819 
L 203.950093 58.886649 
L 204.341897 58.426766 
L 204.733701 61.587895 
L 205.125506 62.453224 
L 206.300919 56.09805 
L 206.692723 54.240946 
L 207.084528 53.132557 
L 207.476332 50.686658 
L 207.868136 49.575745 
L 208.651745 46.959969 
L 209.454944 45.921286 
L 210.238553 43.565214 
L 211.413966 55.703748 
L 211.80577 56.838781 
L 212.981183 51.374878 
L 214.156597 49.65658 
L 214.548401 49.476386 
L 215.33201 49.384619 
L 217.702426 48.481645 
L 218.877839 60.383175 
L 219.269644 62.223349 
L 219.661448 61.165819 
L 220.053252 58.629242 
L 220.836861 55.34086 
L 221.62047 55.124603 
L 222.012274 54.472442 
L 222.404078 53.388394 
L 223.990886 46.588549 
L 224.382691 46.102713 
L 225.166299 44.333881 
L 226.733517 60.427225 
L 227.125321 60.42601 
L 227.90893 57.154351 
L 228.692539 55.191813 
L 229.084343 53.352923 
L 229.476147 52.300943 
L 229.867952 51.984797 
L 230.259756 52.079177 
L 230.671151 52.019242 
L 231.062955 56.06542 
L 231.454759 58.565704 
L 231.846564 61.923022 
L 232.238368 60.214952 
L 232.238368 56.168774 
L 233.021977 53.547869 
L 233.805586 52.144044 
L 236.156412 44.331271 
L 236.940021 45.557621 
L 237.331825 45.214879 
L 237.74322 48.321776 
L 238.135024 49.976889 
L 238.526828 49.23172 
L 238.918633 48.220519 
L 240.094046 46.66121 
L 240.48585 46.38407 
L 242.444872 45.964929 
L 243.228481 45.414604 
L 243.620285 45.259887 
L 244.815288 45.078309 
L 245.207093 45.210856 
L 246.77431 44.972784 
L 247.166115 45.080064 
L 247.557919 44.989291 
L 247.949723 45.098789 
L 249.125136 45.706607 
L 249.516941 45.632866 
L 250.30055 52.428332 
L 251.084158 58.341224 
L 251.475963 59.103193 
L 251.887357 55.057015 
L 252.670966 60.297365 
L 253.454575 62.271073 
L 253.846379 61.622707 
L 255.021792 49.648948 
L 255.805401 44.283381 
L 256.197205 42.405774 
L 256.980814 41.52035 
L 257.764423 49.445989 
L 258.156227 48.316377 
L 258.548032 46.40748 
L 259.35123 45.266103 
L 259.743035 44.168994 
L 260.134839 44.608937 
L 260.526644 44.595326 
L 261.310252 45.545273 
L 261.702057 46.376895 
L 263.269274 53.823171 
L 263.661079 57.470983 
L 264.052883 56.102235 
L 265.228296 44.635094 
L 266.423299 41.355091 
L 266.815104 43.220083 
L 267.598712 42.956831 
L 267.990517 46.704894 
L 268.382321 46.563795 
L 268.774126 50.609973 
L 269.16593 49.797267 
L 270.341343 61.9358 
L 270.733147 63.225471 
L 271.144542 67.271648 
L 271.555937 66.259234 
L 271.986921 64.522136 
L 272.398316 64.355312 
L 272.79012 64.268712 
L 273.181925 61.221185 
L 273.573729 60.025843 
L 275.513161 57.996968 
L 275.904965 55.985059 
L 276.688574 54.819801 
L 277.080378 53.689061 
L 277.472183 51.328181 
L 278.255791 48.505406 
L 278.647596 48.224115 
L 279.0394 49.60436 
L 279.823009 57.683392 
L 280.214813 57.062583 
L 280.606617 53.016405 
L 280.998422 51.544968 
L 281.782031 51.158203 
L 282.957444 53.174016 
L 283.349248 54.899241 
L 284.132857 56.980709 
L 284.524661 57.191057 
L 284.916466 56.263405 
L 285.719664 53.404178 
L 286.111469 52.570765 
L 286.503273 52.334926 
L 286.895078 53.473787 
L 287.286882 54.044168 
L 287.678686 55.273745 
L 288.070491 55.215155 
L 288.854099 54.221039 
L 289.637708 50.119904 
L 290.029513 47.562039 
L 290.421317 45.806245 
L 291.59673 43.888196 
L 291.988534 43.6232 
L 292.380339 43.501154 
L 293.163948 43.517518 
L 293.555752 43.19119 
L 293.967146 43.187325 
L 294.750755 51.044194 
L 295.14256 52.713811 
L 296.317973 52.388625 
L 296.709777 52.114184 
L 297.101581 52.055968 
L 297.88519 53.713327 
L 298.276995 50.882217 
L 299.452408 50.207552 
L 299.844212 49.946259 
L 300.236016 50.254655 
L 301.039215 53.960089 
L 301.822824 61.390722 
L 302.214628 65.4369 
L 302.606433 64.137761 
L 302.998237 63.36452 
L 303.390042 63.294352 
L 303.781846 63.685343 
L 303.781846 63.655085 
L 304.17365 61.889677 
L 304.565455 58.57062 
L 305.349063 54.417231 
L 305.740868 52.757456 
L 306.132672 52.074647 
L 306.524476 49.543792 
L 307.308085 46.645532 
L 307.69989 44.04573 
L 308.111284 42.460052 
L 308.503089 42.558342 
L 309.286697 42.575984 
L 310.070306 39.966827 
L 310.46211 41.009751 
L 311.245719 40.432691 
L 311.637524 39.463315 
L 312.029328 39.004537 
L 312.812937 38.542048 
L 313.204741 37.477259 
L 313.596545 36.761321 
L 314.380154 36.273651 
L 315.163763 44.366007 
L 315.947372 48.042641 
L 316.339176 47.693678 
L 316.750571 47.164074 
L 317.553769 43.264624 
L 317.945574 42.830734 
L 318.729183 42.150066 
L 319.120987 42.514857 
L 319.904596 45.132371 
L 320.2964 43.678453 
L 321.080009 42.331321 
L 321.883208 41.896906 
L 322.275012 43.077403 
L 323.058621 51.157725 
L 323.450425 51.576126 
L 323.84223 48.925637 
L 324.625838 49.063829 
L 325.017643 51.69123 
L 325.409447 55.737407 
L 325.801251 55.512824 
L 326.193056 56.537913 
L 326.976665 56.315597 
L 327.368469 56.167869 
L 327.760273 55.842882 
L 328.543882 48.019991 
L 328.935686 45.67089 
L 329.327491 44.534781 
L 330.111099 45.167909 
L 330.502904 47.663884 
L 330.894708 46.993041 
L 331.306103 49.311738 
L 332.089712 51.028246 
L 332.481516 52.749634 
L 332.87332 53.177977 
L 333.265125 53.049765 
L 333.656929 53.099729 
L 334.048733 53.331861 
L 334.440538 53.831671 
L 334.832342 53.685866 
L 336.007755 52.837508 
L 336.791364 54.24956 
L 337.183168 53.916637 
L 337.574973 52.523406 
L 338.769976 51.318872 
L 339.553585 49.158991 
L 339.945389 48.61962 
L 340.728998 43.073721 
L 341.120802 41.14893 
L 342.296215 39.468754 
L 342.68802 39.163703 
L 343.471628 39.302418 
L 343.863433 40.68084 
L 344.255237 42.543521 
L 345.038846 50.366505 
L 345.842045 51.154582 
L 346.625654 50.184791 
L 347.409262 49.889029 
L 347.801067 50.080563 
L 348.192871 49.677266 
L 349.368284 54.173485 
L 350.543697 60.655696 
L 351.327306 68.368803 
L 351.71911 69.779266 
L 352.110915 69.052158 
L 353.697723 67.057652 
L 353.697723 67.172076 
L 354.089527 67.388036 
L 355.26494 75.046691 
L 356.440353 87.185224 
L 356.440353 91.231402 
L 356.832157 91.199075 
L 356.832157 88.26211 
L 357.223962 86.51038 
L 357.223962 85.337195 
L 357.615766 82.171589 
L 357.615766 78.859375 
L 358.399375 73.107072 
L 358.399375 71.371442 
L 358.791179 69.695557 
L 358.791179 68.792094 
L 360.358397 61.359485 
L 360.750201 63.221173 
L 361.142006 63.165953 
L 361.142006 62.495381 
L 361.925614 60.473005 
L 362.317419 59.043886 
L 362.709223 57.033768 
L 363.492832 55.546707 
L 363.904226 55.339371 
L 364.296031 54.561004 
L 364.687835 54.215854 
L 365.079639 54.461497 
L 365.863248 56.59155 
L 366.255053 57.232506 
L 366.646857 59.449602 
L 367.038661 58.700106 
L 367.430466 62.746283 
L 367.82227 62.384708 
L 368.214074 61.701941 
L 368.605879 61.376843 
L 368.997683 65.42302 
L 368.997683 63.495665 
L 369.389487 62.421711 
L 370.173096 63.354668 
L 370.564901 63.165201 
L 370.956705 60.970421 
L 371.348509 59.599622 
L 371.740314 61.924963 
L 372.132118 65.021781 
L 372.132118 62.738024 
L 372.523922 62.60574 
L 372.915727 61.284464 
L 373.307531 61.087877 
L 373.307531 60.289004 
L 373.699336 58.352496 
L 374.09114 54.975379 
L 374.874749 51.264986 
L 374.874749 51.264986 
" clip-path="url(#p2874bb4d0a)" style="fill: none; stroke: #a55eea; stroke-opacity: 0.99; stroke-width: 2.4; stroke-linecap: square"/>
   </g>
   <g id="line2d_25">
    <path d="M 44.446534 110.466722 
L 44.446534 83.814421 
L 44.838338 81.610418 
L 44.838338 78.90009 
L 45.602357 77.850865 
L 45.994161 76.651231 
L 45.994161 75.787189 
L 46.385966 75.260436 
L 46.405556 75.387612 
L 46.405556 75.564776 
L 46.79736 74.784038 
L 47.189165 74.377526 
L 47.189165 73.021536 
L 47.580969 72.234803 
L 48.364578 71.349604 
L 48.364578 70.984273 
L 49.148187 69.789183 
L 49.539991 69.350124 
L 49.539991 71.047893 
L 49.931795 70.990236 
L 50.3236 73.942097 
L 50.3236 73.516208 
L 50.715404 73.960468 
L 51.107208 73.424351 
L 51.107208 72.931667 
L 51.499013 72.673528 
L 51.890817 73.177419 
L 51.890817 72.790142 
L 52.282621 73.611581 
L 52.694016 73.207816 
L 53.08582 72.502818 
L 53.08582 72.768758 
L 53.477625 72.537831 
L 53.869429 71.12449 
L 54.261234 71.395579 
L 54.653038 72.722843 
L 55.044842 72.42532 
L 55.044842 72.24727 
L 55.436647 74.45276 
L 55.828451 74.201529 
L 55.828451 73.653639 
L 56.220255 72.669544 
L 56.61206 72.33284 
L 56.61206 71.547242 
L 57.003864 71.399554 
L 57.395668 70.928267 
L 57.395668 70.400834 
L 58.179277 69.035663 
L 58.571082 68.03663 
L 58.962886 67.676902 
L 58.962886 67.101588 
L 60.157889 65.421849 
L 60.549694 66.518123 
L 60.549694 66.10272 
L 61.333302 66.9651 
L 61.725107 66.872588 
L 62.116911 66.927605 
L 62.116911 66.484587 
L 62.508715 67.772269 
L 62.90052 68.064011 
L 63.292324 67.508281 
L 63.684129 67.333546 
L 63.684129 68.008211 
L 64.467737 67.553536 
L 64.859542 67.949403 
L 64.859542 69.188201 
L 65.251346 69.618798 
L 65.64315 68.743376 
L 66.034955 68.408307 
L 66.426759 68.364605 
L 66.426759 68.182534 
L 67.210368 67.21292 
L 67.621763 67.185885 
L 67.621763 68.59414 
L 68.013567 68.298486 
L 68.405371 70.643227 
L 68.797176 69.758569 
L 68.797176 68.975523 
L 69.18898 68.755074 
L 69.580784 69.275202 
L 69.972589 69.136335 
L 70.364393 68.979636 
L 70.756197 70.816258 
L 71.148002 70.716986 
L 71.539806 70.213909 
L 71.539806 72.26249 
L 72.323415 73.184357 
L 72.323415 73.081949 
L 73.107024 72.252419 
L 73.107024 74.050769 
L 73.498828 74.002199 
L 73.890632 73.780317 
L 73.890632 73.451231 
L 74.282437 72.710166 
L 74.693831 72.571368 
L 75.085636 73.183884 
L 75.085636 75.35527 
L 75.47744 75.283714 
L 75.869244 74.972612 
L 75.869244 74.581874 
L 76.261049 74.529669 
L 76.652853 74.059059 
L 76.652853 73.447827 
L 77.044658 72.896585 
L 77.436462 72.650462 
L 77.828266 72.080186 
L 78.220071 72.115624 
L 78.220071 72.056577 
L 78.611875 73.21524 
L 78.611875 73.742021 
L 79.003679 73.855302 
L 79.395484 75.082198 
L 79.787288 74.455254 
L 80.179093 74.365539 
L 80.570897 73.996338 
L 80.570897 73.211642 
L 80.962701 71.883136 
L 81.354506 71.606748 
L 81.354506 71.184544 
L 81.74631 70.704039 
L 82.529919 72.727448 
L 82.529919 72.481539 
L 82.921723 71.777738 
L 83.705332 70.947678 
L 83.705332 69.940321 
L 84.097136 69.857946 
L 84.488941 70.86238 
L 85.272549 69.647048 
L 85.272549 69.329744 
L 85.664354 69.137188 
L 86.056158 68.549488 
L 86.859357 68.124529 
L 86.859357 67.326116 
L 87.251161 66.987074 
L 87.642966 67.72912 
L 88.03477 67.52134 
L 88.426575 67.498013 
L 88.426575 67.864349 
L 89.210183 69.516864 
L 89.601988 69.301745 
L 89.601988 68.912116 
L 89.993792 69.015602 
L 90.385596 68.841595 
L 91.169205 67.431519 
L 91.561009 67.318347 
L 91.952814 68.412408 
L 92.344618 67.822311 
L 92.736423 67.502558 
L 92.736423 67.211 
L 93.520031 71.185224 
L 93.911836 71.037495 
L 93.911836 71.378284 
L 94.32323 70.891653 
L 94.715035 70.875501 
L 95.106839 70.460432 
L 95.106839 69.85412 
L 95.498643 69.595989 
L 96.282252 68.622888 
L 96.282252 68.049409 
L 96.674056 69.860651 
L 97.065861 69.264345 
L 97.457665 71.271499 
L 97.457665 71.220837 
L 97.84947 70.491724 
L 98.241274 72.389007 
L 98.633078 71.119545 
L 98.633078 69.603825 
L 99.416687 67.738077 
L 99.808491 69.835194 
L 100.200296 69.602661 
L 100.200296 69.262759 
L 100.5921 68.740222 
L 100.983905 67.771988 
L 101.375709 67.277823 
L 101.787103 66.524862 
L 101.787103 66.154676 
L 102.570712 65.634244 
L 102.962517 66.076147 
L 103.746125 64.815319 
L 104.529734 63.853379 
L 105.705147 63.204579 
L 106.096952 64.327688 
L 106.488756 64.618809 
L 106.488756 65.935167 
L 106.88056 66.570418 
L 107.272365 66.727967 
L 107.664169 66.559006 
L 108.055973 67.019468 
L 108.859172 65.959841 
L 109.250977 67.336559 
L 110.034585 66.184756 
L 110.42639 65.661119 
L 110.818194 65.539963 
L 110.818194 66.347699 
L 111.209999 67.144164 
L 111.601803 66.95154 
L 112.385412 72.499166 
L 112.385412 72.38445 
L 112.777216 72.630111 
L 113.16902 72.212169 
L 113.16902 71.834426 
L 113.560825 71.517773 
L 113.952629 70.991708 
L 114.344434 70.774393 
L 114.344434 70.493212 
L 114.736238 70.490002 
L 115.128042 71.545865 
L 115.519847 73.405303 
L 115.519847 73.249363 
L 115.911651 73.761954 
L 116.323046 73.203433 
L 116.323046 72.537345 
L 116.71485 72.414182 
L 117.106654 74.644735 
L 117.106654 74.544955 
L 117.498459 74.213716 
L 117.890263 76.529492 
L 117.890263 76.353947 
L 118.282067 76.021668 
L 118.282067 76.271371 
L 118.673872 75.464508 
L 119.065676 75.153106 
L 119.065676 73.999402 
L 119.849285 71.27413 
L 120.241089 70.158148 
L 120.632894 69.886008 
L 121.024698 69.752838 
L 121.416502 69.095223 
L 121.416502 69.924634 
L 121.808307 69.605677 
L 122.200111 69.091555 
L 122.591915 69.805272 
L 122.591915 71.159775 
L 123.395114 70.692569 
L 123.786919 71.260014 
L 123.786919 71.223313 
L 124.178723 72.675861 
L 124.570528 75.964153 
L 124.570528 77.158743 
L 124.962332 81.204921 
L 125.354136 81.037371 
L 125.354136 80.81893 
L 125.745941 80.528464 
L 125.745941 80.313702 
L 126.137745 80.832518 
L 126.137745 81.228794 
L 126.529549 80.671873 
L 126.529549 80.316808 
L 126.921354 80.328093 
L 127.313158 79.613452 
L 127.313158 79.237274 
L 128.096767 77.866644 
L 128.488571 78.333886 
L 128.488571 78.93116 
L 129.27218 78.644533 
L 129.27218 78.546697 
L 130.467183 78.362723 
L 130.467183 79.551296 
L 130.858988 79.488647 
L 131.250792 78.986455 
L 131.250792 78.642742 
L 131.642596 78.63167 
L 131.642596 79.400207 
L 132.034401 79.15683 
L 132.426205 80.02113 
L 132.426205 79.958617 
L 132.81801 79.540601 
L 132.81801 79.369391 
L 133.601618 80.170087 
L 133.601618 79.969597 
L 133.993423 79.48277 
L 134.777031 77.719923 
L 134.777031 77.049828 
L 135.168836 79.353998 
L 135.56064 78.463825 
L 135.952444 78.173495 
L 135.952444 77.65129 
L 136.344249 77.398189 
L 136.736053 76.953784 
L 137.147448 76.973297 
L 137.539252 76.115749 
L 137.539252 75.646696 
L 137.931057 76.566364 
L 138.322861 76.156593 
L 139.10647 73.977445 
L 139.10647 73.182329 
L 139.498274 72.749413 
L 139.890078 72.861228 
L 139.890078 72.211961 
L 140.281883 72.134287 
L 140.673687 72.689436 
L 140.673687 72.942665 
L 141.065491 72.24921 
L 141.457296 72.51774 
L 141.8491 71.925445 
L 141.8491 72.265393 
L 142.240905 72.255731 
L 142.632709 72.019354 
L 142.632709 72.590546 
L 143.024513 73.565412 
L 143.435908 73.406182 
L 143.827712 73.90249 
L 144.219517 73.72486 
L 144.611321 75.145323 
L 144.611321 76.942337 
L 145.003125 76.7846 
L 145.003125 78.290971 
L 145.39493 77.760715 
L 145.786734 79.648874 
L 145.786734 79.262586 
L 146.178538 78.915177 
L 146.178538 81.608207 
L 146.570343 81.498641 
L 146.962147 81.10018 
L 146.962147 80.690664 
L 147.353952 81.643235 
L 147.745756 81.041756 
L 148.13756 82.192537 
L 148.529365 81.531603 
L 148.529365 80.604018 
L 148.921169 79.928804 
L 149.312973 80.979518 
L 149.312973 81.902698 
L 149.704778 81.333937 
L 150.096582 80.481919 
L 150.096582 79.811689 
L 150.488387 78.390046 
L 150.488387 77.513125 
L 150.880191 75.995943 
L 150.880191 74.653651 
L 151.271995 73.932959 
L 151.6638 73.520878 
L 151.6638 72.74115 
L 152.466999 72.392981 
L 152.466999 74.347566 
L 152.858803 73.576379 
L 153.250607 73.389253 
L 153.250607 73.861901 
L 154.034216 74.751302 
L 154.034216 74.343066 
L 154.817825 73.588162 
L 154.817825 74.090926 
L 155.601434 72.630675 
L 155.601434 72.004632 
L 155.993238 71.298502 
L 156.385042 70.923415 
L 156.776847 69.911195 
L 156.776847 70.565955 
L 157.168651 70.299105 
L 157.560455 69.590235 
L 157.95226 69.464364 
L 157.95226 69.088406 
L 158.344064 68.707901 
L 158.755459 68.754574 
L 159.539067 67.929258 
L 159.539067 67.676399 
L 159.930872 67.234764 
L 160.714481 66.902919 
L 161.106285 67.250078 
L 161.106285 66.832287 
L 161.498089 66.485373 
L 161.889894 66.803871 
L 162.673502 66.646932 
L 163.065307 66.819366 
L 163.065307 66.467143 
L 163.457111 67.591652 
L 163.848916 67.239701 
L 164.24072 68.99474 
L 164.632524 68.739591 
L 164.632524 70.319855 
L 165.024329 73.03297 
L 165.416133 73.900197 
L 165.416133 73.7179 
L 165.827528 73.664705 
L 166.219332 74.293777 
L 166.219332 73.927462 
L 166.611136 73.50616 
L 167.002941 73.273731 
L 167.002941 74.256911 
L 167.394745 75.683039 
L 167.786549 75.228766 
L 167.786549 77.128355 
L 168.570158 80.057555 
L 168.570158 81.519637 
L 168.961963 81.17047 
L 168.961963 81.188127 
L 169.353767 84.02785 
L 169.353767 83.39009 
L 169.745571 83.226945 
L 169.745571 82.907283 
L 170.137376 83.651413 
L 170.137376 84.57295 
L 170.52918 84.395745 
L 170.52918 83.948066 
L 170.920984 84.097317 
L 170.920984 85.346945 
L 171.312789 87.467878 
L 171.704593 86.707802 
L 171.704593 86.830968 
L 172.096397 88.596295 
L 172.096397 88.161441 
L 172.488202 87.66813 
L 172.488202 87.367978 
L 172.880006 86.257515 
L 173.271811 84.913238 
L 173.271811 84.139498 
L 173.663615 82.91721 
L 173.663615 81.386963 
L 174.055419 80.916414 
L 174.055419 80.518672 
L 174.447224 79.460676 
L 174.447224 78.94674 
L 174.839028 78.832314 
L 174.839028 78.477816 
L 175.622637 77.120264 
L 175.622637 77.941242 
L 176.014441 80.573194 
L 176.014441 82.197818 
L 176.406246 82.335584 
L 176.406246 81.106511 
L 176.79805 80.036404 
L 176.79805 79.43266 
L 177.189854 78.874117 
L 177.189854 77.717476 
L 177.581659 76.789968 
L 177.973463 76.259513 
L 178.384858 76.256941 
L 178.384858 76.019844 
L 178.776662 75.808389 
L 178.776662 75.661328 
L 179.168466 78.203986 
L 179.560271 79.053605 
L 179.560271 79.458681 
L 179.952075 81.523605 
L 179.952075 81.359178 
L 180.343879 81.913764 
L 180.735684 82.880803 
L 180.735684 83.634997 
L 181.127488 84.24775 
L 181.127488 85.278079 
L 181.519293 85.062786 
L 181.911097 85.927025 
L 181.911097 85.20602 
L 182.694706 87.679562 
L 182.694706 87.166683 
L 183.08651 88.434835 
L 183.08651 88.35358 
L 183.478314 88.164979 
L 183.870119 90.288336 
L 184.261923 90.175097 
L 184.261923 89.733859 
L 184.653728 89.384281 
L 184.653728 88.939996 
L 185.065122 88.802682 
L 185.065122 89.223789 
L 185.456926 88.563597 
L 185.456926 89.973916 
L 185.848731 89.319178 
L 186.240535 89.181578 
L 186.240535 89.388621 
L 186.65193 88.52366 
L 187.455129 88.489803 
L 187.455129 87.803156 
L 187.846933 87.538439 
L 188.238737 86.477516 
L 188.238737 84.997678 
L 189.022346 82.787129 
L 189.022346 81.570141 
L 189.825545 79.663388 
L 189.825545 79.080691 
L 190.609154 78.174738 
L 190.609154 78.793397 
L 191.000958 78.640184 
L 191.000958 78.009567 
L 191.784567 79.936362 
L 192.176371 79.411614 
L 192.176371 79.624119 
L 192.568176 81.155951 
L 192.95998 80.961451 
L 192.95998 80.407828 
L 193.351785 79.953422 
L 193.743589 81.61604 
L 194.135393 82.011296 
L 194.527198 82.123458 
L 194.919002 84.830037 
L 195.310806 85.843508 
L 195.310806 86.90279 
L 195.702611 85.624958 
L 196.094415 85.44514 
L 196.486219 85.121611 
L 196.486219 85.659935 
L 196.878024 84.526138 
L 196.878024 83.708907 
L 197.269828 83.551846 
L 197.269828 82.513066 
L 197.661633 82.397669 
L 197.661633 82.090831 
L 198.053437 81.849332 
L 198.053437 82.434701 
L 198.464832 82.358172 
L 198.856636 81.493843 
L 199.24844 81.276054 
L 199.640245 82.37052 
L 199.640245 82.274883 
L 200.032049 81.459593 
L 200.032049 81.602038 
L 200.423853 81.457633 
L 200.423853 84.571227 
L 200.815658 83.678864 
L 200.815658 83.741397 
L 200.815658 84.749746 
L 201.207462 85.972451 
L 201.207462 85.453741 
L 201.599266 85.35765 
L 201.599266 84.306233 
L 201.991071 83.723555 
L 201.991071 84.810169 
L 202.382875 83.655113 
L 202.382875 83.229732 
L 202.77468 82.224723 
L 202.77468 81.877148 
L 203.166484 81.45986 
L 203.166484 80.89713 
L 203.950093 77.09253 
L 203.950093 75.135184 
L 204.341897 74.733524 
L 204.341897 73.793141 
L 205.125506 72.888171 
L 205.125506 72.524877 
L 205.909115 70.71483 
L 205.909115 70.432108 
L 206.300919 70.164864 
L 206.692723 70.47294 
L 207.084528 71.869091 
L 207.084528 72.778832 
L 207.868136 71.949679 
L 207.868136 71.408313 
L 208.259941 71.08441 
L 208.651745 70.91349 
L 208.651745 70.377162 
L 209.043549 70.208763 
L 209.846748 69.121881 
L 209.846748 69.431337 
L 210.238553 69.376267 
L 210.630357 68.771361 
L 211.022162 68.515365 
L 211.022162 70.017443 
L 211.413966 69.21666 
L 211.80577 68.858581 
L 212.197575 69.410436 
L 212.197575 69.103237 
L 212.589379 68.910927 
L 212.981183 69.795951 
L 213.764792 69.090535 
L 213.764792 68.774538 
L 214.156597 68.653353 
L 214.548401 68.385026 
L 214.940205 68.336822 
L 214.940205 69.547941 
L 215.723814 68.776687 
L 216.115618 68.744803 
L 216.918817 68.314846 
L 217.310622 68.7547 
L 217.310622 68.570583 
L 217.702426 68.197311 
L 218.09423 68.503354 
L 218.486035 68.186541 
L 218.877839 67.508511 
L 218.877839 67.081058 
L 220.445057 65.749607 
L 220.445057 65.129066 
L 220.836861 64.645654 
L 221.228665 64.528569 
L 221.62047 65.103498 
L 222.404078 67.981535 
L 222.404078 68.632368 
L 222.795883 69.937192 
L 223.187687 69.873889 
L 223.599082 69.559551 
L 223.599082 69.939894 
L 223.990886 69.410655 
L 224.382691 69.337185 
L 224.774495 68.95701 
L 225.166299 69.101 
L 225.949908 68.943083 
L 225.949908 68.644183 
L 226.341712 68.601785 
L 226.733517 68.982128 
L 227.125321 70.203083 
L 227.125321 70.18406 
L 227.90893 69.386897 
L 228.300734 71.194901 
L 228.300734 71.122115 
L 228.692539 71.722535 
L 229.084343 71.498863 
L 229.084343 71.147833 
L 229.476147 70.840973 
L 229.867952 70.804269 
L 229.867952 70.07807 
L 230.671151 68.809786 
L 231.062955 69.593304 
L 231.062955 69.327897 
L 231.454759 70.034856 
L 231.846564 73.50872 
L 232.238368 72.989894 
L 233.021977 71.030471 
L 233.021977 70.556102 
L 233.413781 69.595058 
L 234.19739 68.353434 
L 234.19739 67.783833 
L 234.589194 67.277288 
L 235.372803 68.592038 
L 235.764607 67.652711 
L 235.764607 67.857812 
L 236.156412 67.689838 
L 236.940021 68.549265 
L 237.331825 68.173568 
L 237.331825 67.310373 
L 237.74322 67.516236 
L 238.135024 67.04677 
L 238.526828 66.928427 
L 238.526828 66.22173 
L 239.310437 65.763145 
L 239.702241 66.766219 
L 240.094046 67.043985 
L 240.48585 66.80593 
L 240.48585 67.105724 
L 240.877654 67.247126 
L 241.269459 67.18561 
L 241.661263 67.379997 
L 242.053068 66.708223 
L 242.053068 66.465333 
L 242.444872 66.322014 
L 242.836676 65.114203 
L 243.228481 65.699144 
L 243.620285 65.606937 
L 243.620285 67.383413 
L 244.012089 69.274876 
L 244.403894 70.127792 
L 244.815288 69.477366 
L 245.207093 70.41052 
L 245.598897 71.716939 
L 245.990701 71.663236 
L 245.990701 72.155478 
L 246.382506 71.365574 
L 246.77431 70.845194 
L 246.77431 70.353297 
L 247.166115 71.202685 
L 247.557919 70.620171 
L 247.557919 71.881327 
L 247.949723 71.794713 
L 249.125136 70.474605 
L 249.516941 71.896829 
L 249.908745 71.169247 
L 249.908745 70.74557 
L 250.30055 70.555109 
L 250.692354 70.16016 
L 250.692354 69.489768 
L 251.887357 68.718066 
L 251.887357 69.234857 
L 252.279162 69.757787 
L 252.670966 69.661243 
L 253.06277 70.380468 
L 253.06277 71.602401 
L 253.454575 71.370392 
L 253.846379 71.285453 
L 254.238183 71.451747 
L 254.238183 71.414533 
L 255.021792 71.025597 
L 255.021792 70.681318 
L 255.413597 71.404764 
L 255.805401 71.206452 
L 256.197205 69.800014 
L 256.197205 68.973113 
L 257.764423 66.801389 
L 257.764423 67.669181 
L 258.548032 68.183415 
L 258.959426 70.211638 
L 258.959426 70.042624 
L 259.35123 69.857888 
L 259.743035 69.159184 
L 260.134839 68.151427 
L 260.526644 67.620388 
L 260.526644 66.657371 
L 260.918448 67.664027 
L 261.310252 66.796711 
L 261.702057 66.383235 
L 262.093861 65.791485 
L 262.485665 65.45372 
L 262.485665 65.09563 
L 263.269274 67.093388 
L 263.661079 69.338579 
L 264.052883 68.819163 
L 264.052883 68.506453 
L 264.444687 67.920589 
L 265.228296 67.864731 
L 265.228296 69.326421 
L 265.6201 72.813385 
L 266.011905 74.265542 
L 266.815104 78.062553 
L 266.815104 77.633115 
L 267.598712 76.829582 
L 267.990517 77.350167 
L 268.382321 76.649326 
L 268.774126 76.484523 
L 268.774126 76.115044 
L 269.16593 76.82723 
L 269.557734 75.958349 
L 269.557734 75.125111 
L 270.341343 74.249655 
L 271.144542 72.117523 
L 271.144542 71.813669 
L 271.555937 72.88505 
L 272.398316 70.924823 
L 272.79012 70.598333 
L 272.79012 72.918685 
L 273.181925 72.856145 
L 273.181925 75.838845 
L 273.573729 75.612224 
L 273.573729 76.054702 
L 275.101766 76.172029 
L 275.101766 77.533841 
L 275.513161 77.168172 
L 275.513161 76.971562 
L 275.904965 77.719577 
L 276.296769 79.6287 
L 276.296769 79.447031 
L 276.688574 78.295651 
L 276.688574 78.626353 
L 277.080378 79.074986 
L 277.080378 78.90969 
L 277.472183 81.750028 
L 277.472183 80.383402 
L 277.863987 79.669054 
L 278.255791 78.670471 
L 278.255791 78.132262 
L 278.647596 79.629074 
L 278.647596 78.876593 
L 279.0394 77.374792 
L 279.0394 76.786724 
L 279.431204 79.229697 
L 279.431204 83.241182 
L 279.823009 83.670621 
L 279.823009 83.537555 
L 279.823009 81.510419 
L 280.214813 79.923587 
L 280.606617 77.359715 
L 280.606617 75.521338 
L 280.998422 73.796425 
L 280.998422 72.074045 
L 281.782031 69.672458 
L 282.565639 67.671265 
L 282.957444 67.103402 
L 283.349248 68.587347 
L 284.132857 69.2259 
L 284.132857 70.938267 
L 284.524661 72.865851 
L 284.916466 73.540198 
L 284.916466 74.26143 
L 285.30827 74.454594 
L 285.719664 73.812158 
L 286.503273 71.534306 
L 286.895078 71.212586 
L 287.286882 72.209823 
L 287.286882 71.826252 
L 288.070491 74.562923 
L 288.070491 74.071088 
L 288.462295 73.412685 
L 288.854099 73.355937 
L 288.854099 72.398921 
L 289.245904 73.670897 
L 289.637708 73.259097 
L 290.029513 72.56804 
L 290.029513 71.804591 
L 290.421317 71.419804 
L 290.813121 71.230471 
L 290.813121 70.358933 
L 291.204926 69.810259 
L 291.988534 69.359205 
L 292.380339 69.169428 
L 292.380339 68.931151 
L 292.772143 68.777512 
L 293.555752 69.169854 
L 293.555752 69.128154 
L 293.967146 70.347384 
L 294.358951 72.551362 
L 294.750755 72.334293 
L 294.750755 72.140812 
L 295.14256 71.785275 
L 295.534364 73.065316 
L 295.534364 72.743412 
L 296.317973 72.185152 
L 296.709777 72.75621 
L 296.709777 73.843892 
L 297.101581 75.105241 
L 297.493386 77.853183 
L 297.493386 77.645965 
L 297.88519 78.004297 
L 297.88519 77.598709 
L 298.276995 77.723424 
L 298.668799 78.296885 
L 298.668799 81.462651 
L 299.060603 81.04147 
L 299.060603 81.290503 
L 299.452408 81.448434 
L 299.452408 81.332145 
L 299.844212 81.235365 
L 299.844212 80.598236 
L 300.236016 80.167992 
L 300.627821 79.992084 
L 300.627821 79.366612 
L 301.039215 78.796175 
L 301.039215 78.39041 
L 301.43102 77.319808 
L 301.822824 76.769908 
L 302.998237 76.331523 
L 303.390042 76.023486 
L 303.781846 76.008308 
L 303.781846 75.688473 
L 304.565455 75.383524 
L 304.957259 74.724965 
L 304.957259 74.830436 
L 305.349063 74.447535 
L 306.132672 77.071422 
L 306.132672 76.113793 
L 306.524476 76.073087 
L 306.524476 75.936434 
L 306.916281 75.565619 
L 307.308085 76.012924 
L 307.308085 75.617242 
L 308.111284 75.389587 
L 308.111284 76.049028 
L 308.503089 75.56538 
L 308.894893 75.4722 
L 308.894893 75.548551 
L 309.286697 75.861953 
L 309.678502 75.803607 
L 309.678502 76.680042 
L 310.070306 76.666734 
L 310.46211 76.102728 
L 310.46211 79.170075 
L 310.853915 79.694705 
L 310.853915 79.440445 
L 311.245719 78.603168 
L 311.245719 77.626238 
L 312.029328 76.052928 
L 312.029328 76.284519 
L 312.421132 75.678493 
L 312.812937 75.872237 
L 312.812937 75.828124 
L 313.204741 75.80939 
L 313.596545 75.302794 
L 313.596545 74.467307 
L 314.380154 73.459446 
L 315.163763 71.84888 
L 315.163763 70.369962 
L 315.947372 67.648069 
L 316.339176 67.376436 
L 316.750571 67.970224 
L 317.142375 67.476927 
L 317.553769 69.885616 
L 317.945574 69.224488 
L 317.945574 68.886283 
L 318.337378 71.550638 
L 318.729183 72.616634 
L 318.729183 72.061711 
L 319.120987 71.26494 
L 319.512791 71.838204 
L 319.904596 71.68505 
L 320.2964 71.684563 
L 320.2964 72.305088 
L 320.688204 73.632884 
L 321.080009 73.013818 
L 321.080009 72.11982 
L 321.471813 72.083148 
L 321.883208 70.594098 
L 322.275012 70.150959 
L 322.275012 69.147568 
L 322.666816 70.129842 
L 323.058621 70.300941 
L 323.450425 70.098293 
L 323.450425 70.464105 
L 323.84223 70.187392 
L 324.234034 70.641996 
L 324.625838 71.651847 
L 324.625838 72.930143 
L 325.017643 72.643801 
L 325.409447 72.567802 
L 325.409447 72.297902 
L 325.801251 71.990456 
L 326.193056 75.215955 
L 326.58486 74.665402 
L 326.58486 74.400579 
L 326.976665 74.329724 
L 327.368469 73.574556 
L 327.368469 73.079651 
L 327.760273 72.948454 
L 328.152078 74.036139 
L 328.152078 75.944613 
L 328.543882 76.30794 
L 328.935686 75.814549 
L 328.935686 77.83782 
L 329.327491 77.969395 
L 329.327491 78.094047 
L 329.719295 81.972232 
L 329.719295 81.285824 
L 330.111099 81.240543 
L 330.111099 80.64554 
L 330.502904 79.689593 
L 330.502904 79.161605 
L 330.894708 78.374406 
L 330.894708 77.858435 
L 331.306103 77.029771 
L 331.697907 76.751337 
L 331.697907 76.017364 
L 332.089712 75.900146 
L 332.089712 76.627552 
L 332.481516 80.53883 
L 332.481516 81.97699 
L 333.265125 81.928001 
L 333.265125 81.645023 
L 333.656929 81.769571 
L 334.048733 82.456526 
L 334.440538 81.858983 
L 334.440538 81.289293 
L 334.832342 80.765364 
L 335.224147 80.833393 
L 335.224147 80.69786 
L 335.615951 80.374234 
L 335.615951 80.789517 
L 336.007755 79.81435 
L 336.39956 79.491834 
L 336.39956 79.087447 
L 337.183168 78.58689 
L 337.183168 78.610214 
L 337.574973 78.594394 
L 337.966777 78.270505 
L 337.966777 77.999834 
L 338.378172 77.611685 
L 338.769976 77.458859 
L 339.16178 78.72867 
L 339.16178 77.704355 
L 339.553585 77.439705 
L 339.553585 77.300161 
L 340.337194 76.763242 
L 340.337194 76.071791 
L 340.728998 75.590014 
L 341.120802 75.860948 
L 341.512607 75.888046 
L 341.512607 75.709359 
L 341.904411 75.021103 
L 342.296215 74.775637 
L 342.296215 74.123688 
L 343.079824 73.094615 
L 343.079824 73.645759 
L 343.471628 74.481245 
L 343.863433 74.278918 
L 343.863433 73.699015 
L 344.255237 73.485384 
L 344.647042 73.894666 
L 345.038846 73.253611 
L 345.038846 74.002911 
L 345.842045 73.287731 
L 345.842045 72.503744 
L 346.233849 72.000861 
L 346.625654 72.644915 
L 347.017458 73.02637 
L 347.017458 73.280774 
L 347.409262 73.036958 
L 347.801067 72.635459 
L 347.801067 72.368698 
L 348.192871 74.451117 
L 348.584675 74.244775 
L 348.584675 73.906575 
L 348.97648 73.375309 
L 349.368284 73.164397 
L 349.760089 73.653423 
L 349.760089 75.169043 
L 350.151893 76.899998 
L 350.543697 76.670918 
L 350.543697 76.152245 
L 350.935502 76.805743 
L 350.935502 77.304454 
L 351.327306 77.5893 
L 351.71911 77.184878 
L 351.71911 78.582818 
L 352.110915 79.318724 
L 352.110915 80.062892 
L 352.522309 80.911976 
L 352.914114 82.070682 
L 352.914114 82.507864 
L 353.305918 82.809809 
L 353.305918 82.159004 
L 353.697723 86.041391 
L 353.697723 86.005115 
L 354.089527 85.944513 
L 354.089527 85.725697 
L 354.481331 86.486024 
L 354.873136 86.084274 
L 354.873136 88.288492 
L 355.26494 88.325404 
L 355.26494 89.009852 
L 355.26494 88.841212 
L 355.656744 88.607395 
L 355.656744 87.920812 
L 356.048549 87.388041 
L 356.048549 87.56214 
L 356.440353 87.117311 
L 356.440353 89.31055 
L 356.832157 91.521944 
L 356.832157 93.666763 
L 356.832157 93.257628 
L 357.223962 92.867655 
L 357.223962 91.716527 
L 357.615766 90.674804 
L 357.615766 88.926748 
L 357.615766 89.210679 
L 358.007571 90.561512 
L 358.007571 90.291782 
L 358.007571 91.130748 
L 358.007571 91.010705 
L 358.399375 90.856109 
L 358.399375 88.947921 
L 358.399375 88.947921 
" clip-path="url(#p2874bb4d0a)" style="fill: none; stroke: #000000; stroke-opacity: 0.99; stroke-width: 2.4; stroke-linecap: square"/>
   </g>
   <g id="patch_3">
    <path d="M 27.040625 99.830082 
L 27.040625 20.055282 
" style="fill: none; stroke: #000000; stroke-width: 0.8; stroke-linejoin: miter; stroke-linecap: square"/>
   </g>
   <g id="patch_4">
    <path d="M 409.970625 99.830082 
L 409.970625 20.055282 
" style="fill: none; stroke: #000000; stroke-width: 0.8; stroke-linejoin: miter; stroke-linecap: square"/>
   </g>
   <g id="patch_5">
    <path d="M 27.040625 99.830082 
L 409.970625 99.830082 
" style="fill: none; stroke: #000000; stroke-width: 0.8; stroke-linejoin: miter; stroke-linecap: square"/>
   </g>
   <g id="patch_6">
    <path d="M 27.040625 20.055282 
L 409.970625 20.055282 
" style="fill: none; stroke: #000000; stroke-width: 0.8; stroke-linejoin: miter; stroke-linecap: square"/>
   </g>
   <g id="legend_1">
    <g id="patch_7">
     <path d="M 98.950931 16.178125 
L 322.743119 16.178125 
Q 323.743119 16.178125 323.743119 15.178125 
L 323.743119 1 
Q 323.743119 -0 322.743119 -0 
L 98.950931 -0 
Q 97.950931 -0 97.950931 1 
L 97.950931 15.178125 
Q 97.950931 16.178125 98.950931 16.178125 
z
" style="fill: #ffffff; opacity: 0.8; stroke: #cccccc; stroke-linejoin: miter"/>
    </g>
    <g id="line2d_26">
     <path d="M 99.950931 4.049219 
L 104.950931 4.049219 
L 109.950931 4.049219 
" style="fill: none; stroke: #ff3f34; stroke-opacity: 0.99; stroke-width: 2.4; stroke-linecap: square"/>
    </g>
    <g id="text_13">
     <!-- Opti. &amp; tracking -->
     <g transform="translate(113.950931 5.799219)scale(0.05 -0.05)">
      <defs>
       <path id="DejaVuSans-4f" d="M 2522 4238 
Q 1834 4238 1429 3725 
Q 1025 3213 1025 2328 
Q 1025 1447 1429 934 
Q 1834 422 2522 422 
Q 3209 422 3611 934 
Q 4013 1447 4013 2328 
Q 4013 3213 3611 3725 
Q 3209 4238 2522 4238 
z
M 2522 4750 
Q 3503 4750 4090 4092 
Q 4678 3434 4678 2328 
Q 4678 1225 4090 567 
Q 3503 -91 2522 -91 
Q 1538 -91 948 565 
Q 359 1222 359 2328 
Q 359 3434 948 4092 
Q 1538 4750 2522 4750 
z
" transform="scale(0.015625)"/>
       <path id="DejaVuSans-74" d="M 1172 4494 
L 1172 3500 
L 2356 3500 
L 2356 3053 
L 1172 3053 
L 1172 1153 
Q 1172 725 1289 603 
Q 1406 481 1766 481 
L 2356 481 
L 2356 0 
L 1766 0 
Q 1100 0 847 248 
Q 594 497 594 1153 
L 594 3053 
L 172 3053 
L 172 3500 
L 594 3500 
L 594 4494 
L 1172 4494 
z
" transform="scale(0.015625)"/>
       <path id="DejaVuSans-69" d="M 603 3500 
L 1178 3500 
L 1178 0 
L 603 0 
L 603 3500 
z
M 603 4863 
L 1178 4863 
L 1178 4134 
L 603 4134 
L 603 4863 
z
" transform="scale(0.015625)"/>
       <path id="DejaVuSans-2e" d="M 684 794 
L 1344 794 
L 1344 0 
L 684 0 
L 684 794 
z
" transform="scale(0.015625)"/>
       <path id="DejaVuSans-26" d="M 1556 2509 
Q 1272 2256 1139 2004 
Q 1006 1753 1006 1478 
Q 1006 1022 1337 719 
Q 1669 416 2169 416 
Q 2466 416 2725 514 
Q 2984 613 3213 813 
L 1556 2509 
z
M 1997 2859 
L 3584 1234 
Q 3769 1513 3872 1830 
Q 3975 2147 3994 2503 
L 4575 2503 
Q 4538 2091 4375 1687 
Q 4213 1284 3922 891 
L 4794 0 
L 4006 0 
L 3559 459 
Q 3234 181 2878 45 
Q 2522 -91 2113 -91 
Q 1359 -91 881 339 
Q 403 769 403 1441 
Q 403 1841 612 2192 
Q 822 2544 1241 2853 
Q 1091 3050 1012 3245 
Q 934 3441 934 3628 
Q 934 4134 1281 4442 
Q 1628 4750 2203 4750 
Q 2463 4750 2720 4694 
Q 2978 4638 3244 4525 
L 3244 3956 
Q 2972 4103 2725 4179 
Q 2478 4256 2266 4256 
Q 1938 4256 1733 4082 
Q 1528 3909 1528 3634 
Q 1528 3475 1620 3314 
Q 1713 3153 1997 2859 
z
" transform="scale(0.015625)"/>
       <path id="DejaVuSans-6e" d="M 3513 2113 
L 3513 0 
L 2938 0 
L 2938 2094 
Q 2938 2591 2744 2837 
Q 2550 3084 2163 3084 
Q 1697 3084 1428 2787 
Q 1159 2491 1159 1978 
L 1159 0 
L 581 0 
L 581 3500 
L 1159 3500 
L 1159 2956 
Q 1366 3272 1645 3428 
Q 1925 3584 2291 3584 
Q 2894 3584 3203 3211 
Q 3513 2838 3513 2113 
z
" transform="scale(0.015625)"/>
      </defs>
      <use xlink:href="#DejaVuSans-4f"/>
      <use xlink:href="#DejaVuSans-70" x="78.710938"/>
      <use xlink:href="#DejaVuSans-74" x="142.1875"/>
      <use xlink:href="#DejaVuSans-69" x="181.396484"/>
      <use xlink:href="#DejaVuSans-2e" x="209.179688"/>
      <use xlink:href="#DejaVuSans-20" x="240.966797"/>
      <use xlink:href="#DejaVuSans-26" x="272.753906"/>
      <use xlink:href="#DejaVuSans-20" x="350.732422"/>
      <use xlink:href="#DejaVuSans-74" x="382.519531"/>
      <use xlink:href="#DejaVuSans-72" x="421.728516"/>
      <use xlink:href="#DejaVuSans-61" x="462.841797"/>
      <use xlink:href="#DejaVuSans-63" x="524.121094"/>
      <use xlink:href="#DejaVuSans-6b" x="579.101562"/>
      <use xlink:href="#DejaVuSans-69" x="637.011719"/>
      <use xlink:href="#DejaVuSans-6e" x="664.794922"/>
      <use xlink:href="#DejaVuSans-67" x="728.173828"/>
     </g>
    </g>
    <g id="line2d_27">
     <path d="M 99.950931 11.388281 
L 104.950931 11.388281 
L 109.950931 11.388281 
" style="fill: none; stroke: #05c46b; stroke-opacity: 0.99; stroke-width: 2.4; stroke-linecap: square"/>
    </g>
    <g id="text_14">
     <!-- MPCC -->
     <g transform="translate(113.950931 13.138281)scale(0.05 -0.05)">
      <defs>
       <path id="DejaVuSans-4d" d="M 628 4666 
L 1569 4666 
L 2759 1491 
L 3956 4666 
L 4897 4666 
L 4897 0 
L 4281 0 
L 4281 4097 
L 3078 897 
L 2444 897 
L 1241 4097 
L 1241 0 
L 628 0 
L 628 4666 
z
" transform="scale(0.015625)"/>
       <path id="DejaVuSans-50" d="M 1259 4147 
L 1259 2394 
L 2053 2394 
Q 2494 2394 2734 2622 
Q 2975 2850 2975 3272 
Q 2975 3691 2734 3919 
Q 2494 4147 2053 4147 
L 1259 4147 
z
M 628 4666 
L 2053 4666 
Q 2838 4666 3239 4311 
Q 3641 3956 3641 3272 
Q 3641 2581 3239 2228 
Q 2838 1875 2053 1875 
L 1259 1875 
L 1259 0 
L 628 0 
L 628 4666 
z
" transform="scale(0.015625)"/>
       <path id="DejaVuSans-43" d="M 4122 4306 
L 4122 3641 
Q 3803 3938 3442 4084 
Q 3081 4231 2675 4231 
Q 1875 4231 1450 3742 
Q 1025 3253 1025 2328 
Q 1025 1406 1450 917 
Q 1875 428 2675 428 
Q 3081 428 3442 575 
Q 3803 722 4122 1019 
L 4122 359 
Q 3791 134 3420 21 
Q 3050 -91 2638 -91 
Q 1578 -91 968 557 
Q 359 1206 359 2328 
Q 359 3453 968 4101 
Q 1578 4750 2638 4750 
Q 3056 4750 3426 4639 
Q 3797 4528 4122 4306 
z
" transform="scale(0.015625)"/>
      </defs>
      <use xlink:href="#DejaVuSans-4d"/>
      <use xlink:href="#DejaVuSans-50" x="86.279297"/>
      <use xlink:href="#DejaVuSans-43" x="146.582031"/>
      <use xlink:href="#DejaVuSans-43" x="216.40625"/>
     </g>
    </g>
    <g id="line2d_28">
     <path d="M 163.532962 4.049219 
L 168.532962 4.049219 
L 173.532962 4.049219 
" style="fill: none; stroke: #ffa801; stroke-opacity: 0.99; stroke-width: 2.4; stroke-linecap: square"/>
    </g>
    <g id="text_15">
     <!-- Follow-the-gap -->
     <g transform="translate(177.532962 5.799219)scale(0.05 -0.05)">
      <defs>
       <path id="DejaVuSans-46" d="M 628 4666 
L 3309 4666 
L 3309 4134 
L 1259 4134 
L 1259 2759 
L 3109 2759 
L 3109 2228 
L 1259 2228 
L 1259 0 
L 628 0 
L 628 4666 
z
" transform="scale(0.015625)"/>
       <path id="DejaVuSans-6c" d="M 603 4863 
L 1178 4863 
L 1178 0 
L 603 0 
L 603 4863 
z
" transform="scale(0.015625)"/>
       <path id="DejaVuSans-77" d="M 269 3500 
L 844 3500 
L 1563 769 
L 2278 3500 
L 2956 3500 
L 3675 769 
L 4391 3500 
L 4966 3500 
L 4050 0 
L 3372 0 
L 2619 2869 
L 1863 0 
L 1184 0 
L 269 3500 
z
" transform="scale(0.015625)"/>
       <path id="DejaVuSans-2d" d="M 313 2009 
L 1997 2009 
L 1997 1497 
L 313 1497 
L 313 2009 
z
" transform="scale(0.015625)"/>
       <path id="DejaVuSans-68" d="M 3513 2113 
L 3513 0 
L 2938 0 
L 2938 2094 
Q 2938 2591 2744 2837 
Q 2550 3084 2163 3084 
Q 1697 3084 1428 2787 
Q 1159 2491 1159 1978 
L 1159 0 
L 581 0 
L 581 4863 
L 1159 4863 
L 1159 2956 
Q 1366 3272 1645 3428 
Q 1925 3584 2291 3584 
Q 2894 3584 3203 3211 
Q 3513 2838 3513 2113 
z
" transform="scale(0.015625)"/>
      </defs>
      <use xlink:href="#DejaVuSans-46"/>
      <use xlink:href="#DejaVuSans-6f" x="53.894531"/>
      <use xlink:href="#DejaVuSans-6c" x="115.076172"/>
      <use xlink:href="#DejaVuSans-6c" x="142.859375"/>
      <use xlink:href="#DejaVuSans-6f" x="170.642578"/>
      <use xlink:href="#DejaVuSans-77" x="231.824219"/>
      <use xlink:href="#DejaVuSans-2d" x="313.611328"/>
      <use xlink:href="#DejaVuSans-74" x="349.695312"/>
      <use xlink:href="#DejaVuSans-68" x="388.904297"/>
      <use xlink:href="#DejaVuSans-65" x="452.283203"/>
      <use xlink:href="#DejaVuSans-2d" x="513.806641"/>
      <use xlink:href="#DejaVuSans-67" x="549.890625"/>
      <use xlink:href="#DejaVuSans-61" x="613.367188"/>
      <use xlink:href="#DejaVuSans-70" x="674.646484"/>
     </g>
    </g>
    <g id="line2d_29">
     <path d="M 224.439212 4.049219 
L 229.439212 4.049219 
L 234.439212 4.049219 
" style="fill: none; stroke: #a55eea; stroke-opacity: 0.99; stroke-width: 2.4; stroke-linecap: square"/>
    </g>
    <g id="text_16">
     <!-- End-to-end -->
     <g transform="translate(238.439212 5.799219)scale(0.05 -0.05)">
      <defs>
       <path id="DejaVuSans-45" d="M 628 4666 
L 3578 4666 
L 3578 4134 
L 1259 4134 
L 1259 2753 
L 3481 2753 
L 3481 2222 
L 1259 2222 
L 1259 531 
L 3634 531 
L 3634 0 
L 628 0 
L 628 4666 
z
" transform="scale(0.015625)"/>
      </defs>
      <use xlink:href="#DejaVuSans-45"/>
      <use xlink:href="#DejaVuSans-6e" x="63.183594"/>
      <use xlink:href="#DejaVuSans-64" x="126.5625"/>
      <use xlink:href="#DejaVuSans-2d" x="190.039062"/>
      <use xlink:href="#DejaVuSans-74" x="226.123047"/>
      <use xlink:href="#DejaVuSans-6f" x="265.332031"/>
      <use xlink:href="#DejaVuSans-2d" x="328.388672"/>
      <use xlink:href="#DejaVuSans-65" x="364.472656"/>
      <use xlink:href="#DejaVuSans-6e" x="425.996094"/>
      <use xlink:href="#DejaVuSans-64" x="489.375"/>
     </g>
    </g>
    <g id="line2d_30">
     <path d="M 276.082181 4.049219 
L 281.082181 4.049219 
L 286.082181 4.049219 
" style="fill: none; stroke: #000000; stroke-opacity: 0.99; stroke-width: 2.4; stroke-linecap: square"/>
    </g>
    <g id="text_17">
     <!-- TinyLidarNet -->
     <g transform="translate(290.082181 5.799219)scale(0.05 -0.05)">
      <defs>
       <path id="DejaVuSans-79" d="M 2059 -325 
Q 1816 -950 1584 -1140 
Q 1353 -1331 966 -1331 
L 506 -1331 
L 506 -850 
L 844 -850 
Q 1081 -850 1212 -737 
Q 1344 -625 1503 -206 
L 1606 56 
L 191 3500 
L 800 3500 
L 1894 763 
L 2988 3500 
L 3597 3500 
L 2059 -325 
z
" transform="scale(0.015625)"/>
       <path id="DejaVuSans-4c" d="M 628 4666 
L 1259 4666 
L 1259 531 
L 3531 531 
L 3531 0 
L 628 0 
L 628 4666 
z
" transform="scale(0.015625)"/>
       <path id="DejaVuSans-4e" d="M 628 4666 
L 1478 4666 
L 3547 763 
L 3547 4666 
L 4159 4666 
L 4159 0 
L 3309 0 
L 1241 3903 
L 1241 0 
L 628 0 
L 628 4666 
z
" transform="scale(0.015625)"/>
      </defs>
      <use xlink:href="#DejaVuSans-54"/>
      <use xlink:href="#DejaVuSans-69" x="57.958984"/>
      <use xlink:href="#DejaVuSans-6e" x="85.742188"/>
      <use xlink:href="#DejaVuSans-79" x="149.121094"/>
      <use xlink:href="#DejaVuSans-4c" x="208.300781"/>
      <use xlink:href="#DejaVuSans-69" x="264.013672"/>
      <use xlink:href="#DejaVuSans-64" x="291.796875"/>
      <use xlink:href="#DejaVuSans-61" x="355.273438"/>
      <use xlink:href="#DejaVuSans-72" x="416.552734"/>
      <use xlink:href="#DejaVuSans-4e" x="457.666016"/>
      <use xlink:href="#DejaVuSans-65" x="532.470703"/>
      <use xlink:href="#DejaVuSans-74" x="593.994141"/>
     </g>
    </g>
   </g>
  </g>
 </g>
 <defs>
  <clipPath id="p2874bb4d0a">
   <rect x="27.040625" y="20.055282" width="382.93" height="79.7748"/>
  </clipPath>
 </defs>
</svg>
