<?xml version="1.0" encoding="utf-8" standalone="no"?>
<!DOCTYPE svg PUBLIC "-//W3C//DTD SVG 1.1//EN"
  "http://www.w3.org/Graphics/SVG/1.1/DTD/svg11.dtd">
<svg xmlns:xlink="http://www.w3.org/1999/xlink" width="409.970625pt" height="130.438301pt" viewBox="0 0 409.970625 130.438301" xmlns="http://www.w3.org/2000/svg" version="1.1">
 <metadata>
  <rdf:RDF xmlns:dc="http://purl.org/dc/elements/1.1/" xmlns:cc="http://creativecommons.org/ns#" xmlns:rdf="http://www.w3.org/1999/02/22-rdf-syntax-ns#">
   <cc:Work>
    <dc:type rdf:resource="http://purl.org/dc/dcmitype/StillImage"/>
    <dc:date>2024-03-11T21:40:36.421509</dc:date>
    <dc:format>image/svg+xml</dc:format>
    <dc:creator>
     <cc:Agent>
      <dc:title>Matplotlib v3.5.2, https://matplotlib.org/</dc:title>
     </cc:Agent>
    </dc:creator>
   </cc:Work>
  </rdf:RDF>
 </metadata>
 <defs>
  <style type="text/css">*{stroke-linejoin: round; stroke-linecap: butt}</style>
 </defs>
 <g id="figure_1">
  <g id="patch_1">
   <path d="M 0 130.438301 
L 409.970625 130.438301 
L 409.970625 0 
L 0 0 
z
" style="fill: #ffffff"/>
  </g>
  <g id="axes_1">
   <g id="patch_2">
    <path d="M 27.040625 100.082051 
L 409.970625 100.082051 
L 409.970625 16.897251 
L 27.040625 16.897251 
z
" style="fill: #ffffff"/>
   </g>
   <g id="matplotlib.axis_1">
    <g id="xtick_1">
     <g id="line2d_1">
      <path d="M 44.446534 100.082051 
L 44.446534 16.897251 
" clip-path="url(#p5292473bd4)" style="fill: none; stroke: #b0b0b0; stroke-width: 0.8; stroke-linecap: square"/>
     </g>
     <g id="line2d_2">
      <defs>
       <path id="me1a9d7a43e" d="M 0 0 
L 0 3.5 
" style="stroke: #000000; stroke-width: 0.8"/>
      </defs>
      <g>
       <use xlink:href="#me1a9d7a43e" x="44.446534" y="100.082051" style="stroke: #000000; stroke-width: 0.8"/>
      </g>
     </g>
     <g id="text_1">
      <!-- 0 -->
      <g transform="translate(41.265284 114.680489)scale(0.1 -0.1)">
       <defs>
        <path id="DejaVuSans-30" d="M 2034 4250 
Q 1547 4250 1301 3770 
Q 1056 3291 1056 2328 
Q 1056 1369 1301 889 
Q 1547 409 2034 409 
Q 2525 409 2770 889 
Q 3016 1369 3016 2328 
Q 3016 3291 2770 3770 
Q 2525 4250 2034 4250 
z
M 2034 4750 
Q 2819 4750 3233 4129 
Q 3647 3509 3647 2328 
Q 3647 1150 3233 529 
Q 2819 -91 2034 -91 
Q 1250 -91 836 529 
Q 422 1150 422 2328 
Q 422 3509 836 4129 
Q 1250 4750 2034 4750 
z
" transform="scale(0.015625)"/>
       </defs>
       <use xlink:href="#DejaVuSans-30"/>
      </g>
     </g>
    </g>
    <g id="xtick_2">
     <g id="line2d_3">
      <path d="M 114.537003 100.082051 
L 114.537003 16.897251 
" clip-path="url(#p5292473bd4)" style="fill: none; stroke: #b0b0b0; stroke-width: 0.8; stroke-linecap: square"/>
     </g>
     <g id="line2d_4">
      <g>
       <use xlink:href="#me1a9d7a43e" x="114.537003" y="100.082051" style="stroke: #000000; stroke-width: 0.8"/>
      </g>
     </g>
     <g id="text_2">
      <!-- 20 -->
      <g transform="translate(108.174503 114.680489)scale(0.1 -0.1)">
       <defs>
        <path id="DejaVuSans-32" d="M 1228 531 
L 3431 531 
L 3431 0 
L 469 0 
L 469 531 
Q 828 903 1448 1529 
Q 2069 2156 2228 2338 
Q 2531 2678 2651 2914 
Q 2772 3150 2772 3378 
Q 2772 3750 2511 3984 
Q 2250 4219 1831 4219 
Q 1534 4219 1204 4116 
Q 875 4013 500 3803 
L 500 4441 
Q 881 4594 1212 4672 
Q 1544 4750 1819 4750 
Q 2544 4750 2975 4387 
Q 3406 4025 3406 3419 
Q 3406 3131 3298 2873 
Q 3191 2616 2906 2266 
Q 2828 2175 2409 1742 
Q 1991 1309 1228 531 
z
" transform="scale(0.015625)"/>
       </defs>
       <use xlink:href="#DejaVuSans-32"/>
       <use xlink:href="#DejaVuSans-30" x="63.623047"/>
      </g>
     </g>
    </g>
    <g id="xtick_3">
     <g id="line2d_5">
      <path d="M 184.627472 100.082051 
L 184.627472 16.897251 
" clip-path="url(#p5292473bd4)" style="fill: none; stroke: #b0b0b0; stroke-width: 0.8; stroke-linecap: square"/>
     </g>
     <g id="line2d_6">
      <g>
       <use xlink:href="#me1a9d7a43e" x="184.627472" y="100.082051" style="stroke: #000000; stroke-width: 0.8"/>
      </g>
     </g>
     <g id="text_3">
      <!-- 40 -->
      <g transform="translate(178.264972 114.680489)scale(0.1 -0.1)">
       <defs>
        <path id="DejaVuSans-34" d="M 2419 4116 
L 825 1625 
L 2419 1625 
L 2419 4116 
z
M 2253 4666 
L 3047 4666 
L 3047 1625 
L 3713 1625 
L 3713 1100 
L 3047 1100 
L 3047 0 
L 2419 0 
L 2419 1100 
L 313 1100 
L 313 1709 
L 2253 4666 
z
" transform="scale(0.015625)"/>
       </defs>
       <use xlink:href="#DejaVuSans-34"/>
       <use xlink:href="#DejaVuSans-30" x="63.623047"/>
      </g>
     </g>
    </g>
    <g id="xtick_4">
     <g id="line2d_7">
      <path d="M 254.717941 100.082051 
L 254.717941 16.897251 
" clip-path="url(#p5292473bd4)" style="fill: none; stroke: #b0b0b0; stroke-width: 0.8; stroke-linecap: square"/>
     </g>
     <g id="line2d_8">
      <g>
       <use xlink:href="#me1a9d7a43e" x="254.717941" y="100.082051" style="stroke: #000000; stroke-width: 0.8"/>
      </g>
     </g>
     <g id="text_4">
      <!-- 60 -->
      <g transform="translate(248.355441 114.680489)scale(0.1 -0.1)">
       <defs>
        <path id="DejaVuSans-36" d="M 2113 2584 
Q 1688 2584 1439 2293 
Q 1191 2003 1191 1497 
Q 1191 994 1439 701 
Q 1688 409 2113 409 
Q 2538 409 2786 701 
Q 3034 994 3034 1497 
Q 3034 2003 2786 2293 
Q 2538 2584 2113 2584 
z
M 3366 4563 
L 3366 3988 
Q 3128 4100 2886 4159 
Q 2644 4219 2406 4219 
Q 1781 4219 1451 3797 
Q 1122 3375 1075 2522 
Q 1259 2794 1537 2939 
Q 1816 3084 2150 3084 
Q 2853 3084 3261 2657 
Q 3669 2231 3669 1497 
Q 3669 778 3244 343 
Q 2819 -91 2113 -91 
Q 1303 -91 875 529 
Q 447 1150 447 2328 
Q 447 3434 972 4092 
Q 1497 4750 2381 4750 
Q 2619 4750 2861 4703 
Q 3103 4656 3366 4563 
z
" transform="scale(0.015625)"/>
       </defs>
       <use xlink:href="#DejaVuSans-36"/>
       <use xlink:href="#DejaVuSans-30" x="63.623047"/>
      </g>
     </g>
    </g>
    <g id="xtick_5">
     <g id="line2d_9">
      <path d="M 324.80841 100.082051 
L 324.80841 16.897251 
" clip-path="url(#p5292473bd4)" style="fill: none; stroke: #b0b0b0; stroke-width: 0.8; stroke-linecap: square"/>
     </g>
     <g id="line2d_10">
      <g>
       <use xlink:href="#me1a9d7a43e" x="324.80841" y="100.082051" style="stroke: #000000; stroke-width: 0.8"/>
      </g>
     </g>
     <g id="text_5">
      <!-- 80 -->
      <g transform="translate(318.44591 114.680489)scale(0.1 -0.1)">
       <defs>
        <path id="DejaVuSans-38" d="M 2034 2216 
Q 1584 2216 1326 1975 
Q 1069 1734 1069 1313 
Q 1069 891 1326 650 
Q 1584 409 2034 409 
Q 2484 409 2743 651 
Q 3003 894 3003 1313 
Q 3003 1734 2745 1975 
Q 2488 2216 2034 2216 
z
M 1403 2484 
Q 997 2584 770 2862 
Q 544 3141 544 3541 
Q 544 4100 942 4425 
Q 1341 4750 2034 4750 
Q 2731 4750 3128 4425 
Q 3525 4100 3525 3541 
Q 3525 3141 3298 2862 
Q 3072 2584 2669 2484 
Q 3125 2378 3379 2068 
Q 3634 1759 3634 1313 
Q 3634 634 3220 271 
Q 2806 -91 2034 -91 
Q 1263 -91 848 271 
Q 434 634 434 1313 
Q 434 1759 690 2068 
Q 947 2378 1403 2484 
z
M 1172 3481 
Q 1172 3119 1398 2916 
Q 1625 2713 2034 2713 
Q 2441 2713 2670 2916 
Q 2900 3119 2900 3481 
Q 2900 3844 2670 4047 
Q 2441 4250 2034 4250 
Q 1625 4250 1398 4047 
Q 1172 3844 1172 3481 
z
" transform="scale(0.015625)"/>
       </defs>
       <use xlink:href="#DejaVuSans-38"/>
       <use xlink:href="#DejaVuSans-30" x="63.623047"/>
      </g>
     </g>
    </g>
    <g id="xtick_6">
     <g id="line2d_11">
      <path d="M 394.898879 100.082051 
L 394.898879 16.897251 
" clip-path="url(#p5292473bd4)" style="fill: none; stroke: #b0b0b0; stroke-width: 0.8; stroke-linecap: square"/>
     </g>
     <g id="line2d_12">
      <g>
       <use xlink:href="#me1a9d7a43e" x="394.898879" y="100.082051" style="stroke: #000000; stroke-width: 0.8"/>
      </g>
     </g>
     <g id="text_6">
      <!-- 100 -->
      <g transform="translate(385.355129 114.680489)scale(0.1 -0.1)">
       <defs>
        <path id="DejaVuSans-31" d="M 794 531 
L 1825 531 
L 1825 4091 
L 703 3866 
L 703 4441 
L 1819 4666 
L 2450 4666 
L 2450 531 
L 3481 531 
L 3481 0 
L 794 0 
L 794 531 
z
" transform="scale(0.015625)"/>
       </defs>
       <use xlink:href="#DejaVuSans-31"/>
       <use xlink:href="#DejaVuSans-30" x="63.623047"/>
       <use xlink:href="#DejaVuSans-30" x="127.246094"/>
      </g>
     </g>
    </g>
    <g id="text_7">
     <!-- Track progress [%] -->
     <g transform="translate(172.015 128.358614)scale(0.1 -0.1)">
      <defs>
       <path id="DejaVuSans-54" d="M -19 4666 
L 3928 4666 
L 3928 4134 
L 2272 4134 
L 2272 0 
L 1638 0 
L 1638 4134 
L -19 4134 
L -19 4666 
z
" transform="scale(0.015625)"/>
       <path id="DejaVuSans-72" d="M 2631 2963 
Q 2534 3019 2420 3045 
Q 2306 3072 2169 3072 
Q 1681 3072 1420 2755 
Q 1159 2438 1159 1844 
L 1159 0 
L 581 0 
L 581 3500 
L 1159 3500 
L 1159 2956 
Q 1341 3275 1631 3429 
Q 1922 3584 2338 3584 
Q 2397 3584 2469 3576 
Q 2541 3569 2628 3553 
L 2631 2963 
z
" transform="scale(0.015625)"/>
       <path id="DejaVuSans-61" d="M 2194 1759 
Q 1497 1759 1228 1600 
Q 959 1441 959 1056 
Q 959 750 1161 570 
Q 1363 391 1709 391 
Q 2188 391 2477 730 
Q 2766 1069 2766 1631 
L 2766 1759 
L 2194 1759 
z
M 3341 1997 
L 3341 0 
L 2766 0 
L 2766 531 
Q 2569 213 2275 61 
Q 1981 -91 1556 -91 
Q 1019 -91 701 211 
Q 384 513 384 1019 
Q 384 1609 779 1909 
Q 1175 2209 1959 2209 
L 2766 2209 
L 2766 2266 
Q 2766 2663 2505 2880 
Q 2244 3097 1772 3097 
Q 1472 3097 1187 3025 
Q 903 2953 641 2809 
L 641 3341 
Q 956 3463 1253 3523 
Q 1550 3584 1831 3584 
Q 2591 3584 2966 3190 
Q 3341 2797 3341 1997 
z
" transform="scale(0.015625)"/>
       <path id="DejaVuSans-63" d="M 3122 3366 
L 3122 2828 
Q 2878 2963 2633 3030 
Q 2388 3097 2138 3097 
Q 1578 3097 1268 2742 
Q 959 2388 959 1747 
Q 959 1106 1268 751 
Q 1578 397 2138 397 
Q 2388 397 2633 464 
Q 2878 531 3122 666 
L 3122 134 
Q 2881 22 2623 -34 
Q 2366 -91 2075 -91 
Q 1284 -91 818 406 
Q 353 903 353 1747 
Q 353 2603 823 3093 
Q 1294 3584 2113 3584 
Q 2378 3584 2631 3529 
Q 2884 3475 3122 3366 
z
" transform="scale(0.015625)"/>
       <path id="DejaVuSans-6b" d="M 581 4863 
L 1159 4863 
L 1159 1991 
L 2875 3500 
L 3609 3500 
L 1753 1863 
L 3688 0 
L 2938 0 
L 1159 1709 
L 1159 0 
L 581 0 
L 581 4863 
z
" transform="scale(0.015625)"/>
       <path id="DejaVuSans-20" transform="scale(0.015625)"/>
       <path id="DejaVuSans-70" d="M 1159 525 
L 1159 -1331 
L 581 -1331 
L 581 3500 
L 1159 3500 
L 1159 2969 
Q 1341 3281 1617 3432 
Q 1894 3584 2278 3584 
Q 2916 3584 3314 3078 
Q 3713 2572 3713 1747 
Q 3713 922 3314 415 
Q 2916 -91 2278 -91 
Q 1894 -91 1617 61 
Q 1341 213 1159 525 
z
M 3116 1747 
Q 3116 2381 2855 2742 
Q 2594 3103 2138 3103 
Q 1681 3103 1420 2742 
Q 1159 2381 1159 1747 
Q 1159 1113 1420 752 
Q 1681 391 2138 391 
Q 2594 391 2855 752 
Q 3116 1113 3116 1747 
z
" transform="scale(0.015625)"/>
       <path id="DejaVuSans-6f" d="M 1959 3097 
Q 1497 3097 1228 2736 
Q 959 2375 959 1747 
Q 959 1119 1226 758 
Q 1494 397 1959 397 
Q 2419 397 2687 759 
Q 2956 1122 2956 1747 
Q 2956 2369 2687 2733 
Q 2419 3097 1959 3097 
z
M 1959 3584 
Q 2709 3584 3137 3096 
Q 3566 2609 3566 1747 
Q 3566 888 3137 398 
Q 2709 -91 1959 -91 
Q 1206 -91 779 398 
Q 353 888 353 1747 
Q 353 2609 779 3096 
Q 1206 3584 1959 3584 
z
" transform="scale(0.015625)"/>
       <path id="DejaVuSans-67" d="M 2906 1791 
Q 2906 2416 2648 2759 
Q 2391 3103 1925 3103 
Q 1463 3103 1205 2759 
Q 947 2416 947 1791 
Q 947 1169 1205 825 
Q 1463 481 1925 481 
Q 2391 481 2648 825 
Q 2906 1169 2906 1791 
z
M 3481 434 
Q 3481 -459 3084 -895 
Q 2688 -1331 1869 -1331 
Q 1566 -1331 1297 -1286 
Q 1028 -1241 775 -1147 
L 775 -588 
Q 1028 -725 1275 -790 
Q 1522 -856 1778 -856 
Q 2344 -856 2625 -561 
Q 2906 -266 2906 331 
L 2906 616 
Q 2728 306 2450 153 
Q 2172 0 1784 0 
Q 1141 0 747 490 
Q 353 981 353 1791 
Q 353 2603 747 3093 
Q 1141 3584 1784 3584 
Q 2172 3584 2450 3431 
Q 2728 3278 2906 2969 
L 2906 3500 
L 3481 3500 
L 3481 434 
z
" transform="scale(0.015625)"/>
       <path id="DejaVuSans-65" d="M 3597 1894 
L 3597 1613 
L 953 1613 
Q 991 1019 1311 708 
Q 1631 397 2203 397 
Q 2534 397 2845 478 
Q 3156 559 3463 722 
L 3463 178 
Q 3153 47 2828 -22 
Q 2503 -91 2169 -91 
Q 1331 -91 842 396 
Q 353 884 353 1716 
Q 353 2575 817 3079 
Q 1281 3584 2069 3584 
Q 2775 3584 3186 3129 
Q 3597 2675 3597 1894 
z
M 3022 2063 
Q 3016 2534 2758 2815 
Q 2500 3097 2075 3097 
Q 1594 3097 1305 2825 
Q 1016 2553 972 2059 
L 3022 2063 
z
" transform="scale(0.015625)"/>
       <path id="DejaVuSans-73" d="M 2834 3397 
L 2834 2853 
Q 2591 2978 2328 3040 
Q 2066 3103 1784 3103 
Q 1356 3103 1142 2972 
Q 928 2841 928 2578 
Q 928 2378 1081 2264 
Q 1234 2150 1697 2047 
L 1894 2003 
Q 2506 1872 2764 1633 
Q 3022 1394 3022 966 
Q 3022 478 2636 193 
Q 2250 -91 1575 -91 
Q 1294 -91 989 -36 
Q 684 19 347 128 
L 347 722 
Q 666 556 975 473 
Q 1284 391 1588 391 
Q 1994 391 2212 530 
Q 2431 669 2431 922 
Q 2431 1156 2273 1281 
Q 2116 1406 1581 1522 
L 1381 1569 
Q 847 1681 609 1914 
Q 372 2147 372 2553 
Q 372 3047 722 3315 
Q 1072 3584 1716 3584 
Q 2034 3584 2315 3537 
Q 2597 3491 2834 3397 
z
" transform="scale(0.015625)"/>
       <path id="DejaVuSans-5b" d="M 550 4863 
L 1875 4863 
L 1875 4416 
L 1125 4416 
L 1125 -397 
L 1875 -397 
L 1875 -844 
L 550 -844 
L 550 4863 
z
" transform="scale(0.015625)"/>
       <path id="DejaVuSans-25" d="M 4653 2053 
Q 4381 2053 4226 1822 
Q 4072 1591 4072 1178 
Q 4072 772 4226 539 
Q 4381 306 4653 306 
Q 4919 306 5073 539 
Q 5228 772 5228 1178 
Q 5228 1588 5073 1820 
Q 4919 2053 4653 2053 
z
M 4653 2450 
Q 5147 2450 5437 2106 
Q 5728 1763 5728 1178 
Q 5728 594 5436 251 
Q 5144 -91 4653 -91 
Q 4153 -91 3862 251 
Q 3572 594 3572 1178 
Q 3572 1766 3864 2108 
Q 4156 2450 4653 2450 
z
M 1428 4353 
Q 1159 4353 1004 4120 
Q 850 3888 850 3481 
Q 850 3069 1003 2837 
Q 1156 2606 1428 2606 
Q 1700 2606 1854 2837 
Q 2009 3069 2009 3481 
Q 2009 3884 1853 4118 
Q 1697 4353 1428 4353 
z
M 4250 4750 
L 4750 4750 
L 1831 -91 
L 1331 -91 
L 4250 4750 
z
M 1428 4750 
Q 1922 4750 2215 4408 
Q 2509 4066 2509 3481 
Q 2509 2891 2217 2550 
Q 1925 2209 1428 2209 
Q 931 2209 642 2551 
Q 353 2894 353 3481 
Q 353 4063 643 4406 
Q 934 4750 1428 4750 
z
" transform="scale(0.015625)"/>
       <path id="DejaVuSans-5d" d="M 1947 4863 
L 1947 -844 
L 622 -844 
L 622 -397 
L 1369 -397 
L 1369 4416 
L 622 4416 
L 622 4863 
L 1947 4863 
z
" transform="scale(0.015625)"/>
      </defs>
      <use xlink:href="#DejaVuSans-54"/>
      <use xlink:href="#DejaVuSans-72" x="46.333984"/>
      <use xlink:href="#DejaVuSans-61" x="87.447266"/>
      <use xlink:href="#DejaVuSans-63" x="148.726562"/>
      <use xlink:href="#DejaVuSans-6b" x="203.707031"/>
      <use xlink:href="#DejaVuSans-20" x="261.617188"/>
      <use xlink:href="#DejaVuSans-70" x="293.404297"/>
      <use xlink:href="#DejaVuSans-72" x="356.880859"/>
      <use xlink:href="#DejaVuSans-6f" x="395.744141"/>
      <use xlink:href="#DejaVuSans-67" x="456.925781"/>
      <use xlink:href="#DejaVuSans-72" x="520.402344"/>
      <use xlink:href="#DejaVuSans-65" x="559.265625"/>
      <use xlink:href="#DejaVuSans-73" x="620.789062"/>
      <use xlink:href="#DejaVuSans-73" x="672.888672"/>
      <use xlink:href="#DejaVuSans-20" x="724.988281"/>
      <use xlink:href="#DejaVuSans-5b" x="756.775391"/>
      <use xlink:href="#DejaVuSans-25" x="795.789062"/>
      <use xlink:href="#DejaVuSans-5d" x="890.808594"/>
     </g>
    </g>
   </g>
   <g id="matplotlib.axis_2">
    <g id="ytick_1">
     <g id="line2d_13">
      <path d="M 27.040625 88.990745 
L 409.970625 88.990745 
" clip-path="url(#p5292473bd4)" style="fill: none; stroke: #b0b0b0; stroke-width: 0.8; stroke-linecap: square"/>
     </g>
     <g id="line2d_14">
      <defs>
       <path id="m49f893dfd7" d="M 0 0 
L -3.5 0 
" style="stroke: #000000; stroke-width: 0.8"/>
      </defs>
      <g>
       <use xlink:href="#m49f893dfd7" x="27.040625" y="88.990745" style="stroke: #000000; stroke-width: 0.8"/>
      </g>
     </g>
     <g id="text_8">
      <!-- 2 -->
      <g transform="translate(13.678125 92.789963)scale(0.1 -0.1)">
       <use xlink:href="#DejaVuSans-32"/>
      </g>
     </g>
    </g>
    <g id="ytick_2">
     <g id="line2d_15">
      <path d="M 27.040625 66.808131 
L 409.970625 66.808131 
" clip-path="url(#p5292473bd4)" style="fill: none; stroke: #b0b0b0; stroke-width: 0.8; stroke-linecap: square"/>
     </g>
     <g id="line2d_16">
      <g>
       <use xlink:href="#m49f893dfd7" x="27.040625" y="66.808131" style="stroke: #000000; stroke-width: 0.8"/>
      </g>
     </g>
     <g id="text_9">
      <!-- 4 -->
      <g transform="translate(13.678125 70.60735)scale(0.1 -0.1)">
       <use xlink:href="#DejaVuSans-34"/>
      </g>
     </g>
    </g>
    <g id="ytick_3">
     <g id="line2d_17">
      <path d="M 27.040625 44.625518 
L 409.970625 44.625518 
" clip-path="url(#p5292473bd4)" style="fill: none; stroke: #b0b0b0; stroke-width: 0.8; stroke-linecap: square"/>
     </g>
     <g id="line2d_18">
      <g>
       <use xlink:href="#m49f893dfd7" x="27.040625" y="44.625518" style="stroke: #000000; stroke-width: 0.8"/>
      </g>
     </g>
     <g id="text_10">
      <!-- 6 -->
      <g transform="translate(13.678125 48.424737)scale(0.1 -0.1)">
       <use xlink:href="#DejaVuSans-36"/>
      </g>
     </g>
    </g>
    <g id="ytick_4">
     <g id="line2d_19">
      <path d="M 27.040625 22.442905 
L 409.970625 22.442905 
" clip-path="url(#p5292473bd4)" style="fill: none; stroke: #b0b0b0; stroke-width: 0.8; stroke-linecap: square"/>
     </g>
     <g id="line2d_20">
      <g>
       <use xlink:href="#m49f893dfd7" x="27.040625" y="22.442905" style="stroke: #000000; stroke-width: 0.8"/>
      </g>
     </g>
     <g id="text_11">
      <!-- 8 -->
      <g transform="translate(13.678125 26.242123)scale(0.1 -0.1)">
       <use xlink:href="#DejaVuSans-38"/>
      </g>
     </g>
    </g>
    <g id="text_12">
     <!-- Speed [m/s] -->
     <g transform="translate(7.598438 88.815433)rotate(-90)scale(0.1 -0.1)">
      <defs>
       <path id="DejaVuSans-53" d="M 3425 4513 
L 3425 3897 
Q 3066 4069 2747 4153 
Q 2428 4238 2131 4238 
Q 1616 4238 1336 4038 
Q 1056 3838 1056 3469 
Q 1056 3159 1242 3001 
Q 1428 2844 1947 2747 
L 2328 2669 
Q 3034 2534 3370 2195 
Q 3706 1856 3706 1288 
Q 3706 609 3251 259 
Q 2797 -91 1919 -91 
Q 1588 -91 1214 -16 
Q 841 59 441 206 
L 441 856 
Q 825 641 1194 531 
Q 1563 422 1919 422 
Q 2459 422 2753 634 
Q 3047 847 3047 1241 
Q 3047 1584 2836 1778 
Q 2625 1972 2144 2069 
L 1759 2144 
Q 1053 2284 737 2584 
Q 422 2884 422 3419 
Q 422 4038 858 4394 
Q 1294 4750 2059 4750 
Q 2388 4750 2728 4690 
Q 3069 4631 3425 4513 
z
" transform="scale(0.015625)"/>
       <path id="DejaVuSans-64" d="M 2906 2969 
L 2906 4863 
L 3481 4863 
L 3481 0 
L 2906 0 
L 2906 525 
Q 2725 213 2448 61 
Q 2172 -91 1784 -91 
Q 1150 -91 751 415 
Q 353 922 353 1747 
Q 353 2572 751 3078 
Q 1150 3584 1784 3584 
Q 2172 3584 2448 3432 
Q 2725 3281 2906 2969 
z
M 947 1747 
Q 947 1113 1208 752 
Q 1469 391 1925 391 
Q 2381 391 2643 752 
Q 2906 1113 2906 1747 
Q 2906 2381 2643 2742 
Q 2381 3103 1925 3103 
Q 1469 3103 1208 2742 
Q 947 2381 947 1747 
z
" transform="scale(0.015625)"/>
       <path id="DejaVuSans-6d" d="M 3328 2828 
Q 3544 3216 3844 3400 
Q 4144 3584 4550 3584 
Q 5097 3584 5394 3201 
Q 5691 2819 5691 2113 
L 5691 0 
L 5113 0 
L 5113 2094 
Q 5113 2597 4934 2840 
Q 4756 3084 4391 3084 
Q 3944 3084 3684 2787 
Q 3425 2491 3425 1978 
L 3425 0 
L 2847 0 
L 2847 2094 
Q 2847 2600 2669 2842 
Q 2491 3084 2119 3084 
Q 1678 3084 1418 2786 
Q 1159 2488 1159 1978 
L 1159 0 
L 581 0 
L 581 3500 
L 1159 3500 
L 1159 2956 
Q 1356 3278 1631 3431 
Q 1906 3584 2284 3584 
Q 2666 3584 2933 3390 
Q 3200 3197 3328 2828 
z
" transform="scale(0.015625)"/>
       <path id="DejaVuSans-2f" d="M 1625 4666 
L 2156 4666 
L 531 -594 
L 0 -594 
L 1625 4666 
z
" transform="scale(0.015625)"/>
      </defs>
      <use xlink:href="#DejaVuSans-53"/>
      <use xlink:href="#DejaVuSans-70" x="63.476562"/>
      <use xlink:href="#DejaVuSans-65" x="126.953125"/>
      <use xlink:href="#DejaVuSans-65" x="188.476562"/>
      <use xlink:href="#DejaVuSans-64" x="250"/>
      <use xlink:href="#DejaVuSans-20" x="313.476562"/>
      <use xlink:href="#DejaVuSans-5b" x="345.263672"/>
      <use xlink:href="#DejaVuSans-6d" x="384.277344"/>
      <use xlink:href="#DejaVuSans-2f" x="481.689453"/>
      <use xlink:href="#DejaVuSans-73" x="515.380859"/>
      <use xlink:href="#DejaVuSans-5d" x="567.480469"/>
     </g>
    </g>
   </g>
   <g id="line2d_21">
    <path d="M 44.446534 111.173358 
L 45.103902 107.587095 
L 45.103902 103.367962 
L 45.842552 99.148829 
L 45.842552 87.784504 
L 46.581201 84.182977 
L 46.581201 81.399281 
L 48.058501 72.984179 
L 48.058501 68.765046 
L 49.5358 60.32678 
L 50.27445 57.466898 
L 51.013099 56.455747 
L 51.751749 56.143111 
L 51.751749 55.735864 
L 52.490399 54.770449 
L 53.229048 52.968756 
L 54.74328 50.407764 
L 56.22058 44.58833 
L 56.959229 42.47714 
L 57.697879 40.994621 
L 59.913828 39.454318 
L 60.652478 39.434652 
L 61.391128 40.062351 
L 62.868427 40.990008 
L 63.607077 42.644259 
L 65.084376 45.079222 
L 67.337258 48.060382 
L 68.075907 49.483845 
L 68.814557 50.578683 
L 70.291856 51.506546 
L 71.030506 52.331555 
L 72.507805 53.080344 
L 74.723754 55.010885 
L 76.201054 56.086731 
L 77.678353 56.951183 
L 79.192585 57.539474 
L 81.408534 58.057512 
L 84.363133 58.140217 
L 87.317732 58.062683 
L 91.786562 57.533808 
L 93.263862 57.143595 
L 94.741161 56.577757 
L 94.741161 56.220514 
L 96.21846 55.35574 
L 97.69576 54.293381 
L 99.911709 52.352314 
L 102.127658 50.009076 
L 102.90324 49.142571 
L 104.380539 48.230298 
L 107.335138 43.306664 
L 108.812438 41.995101 
L 109.551087 40.646358 
L 111.028387 37.302519 
L 112.505686 35.629847 
L 114.019918 31.67562 
L 115.460285 28.695595 
L 116.198934 27.588501 
L 117.454639 26.677427 
L 119.116601 25.927667 
L 119.153533 25.310659 
L 122.846782 24.041167 
L 127.315612 23.175937 
L 132.48616 22.779105 
L 133.22481 22.890506 
L 134.702109 23.886961 
L 135.440759 26.067596 
L 136.918058 28.567416 
L 137.69364 30.360008 
L 139.17094 32.435446 
L 139.90959 33.902509 
L 141.386889 35.413415 
L 142.125539 38.237601 
L 142.864188 38.754407 
L 144.341488 38.795243 
L 145.818787 39.66335 
L 147.296086 40.139149 
L 150.287618 40.45762 
L 156.196815 40.474874 
L 158.412764 40.327411 
L 161.367363 39.757378 
L 162.881595 39.00748 
L 163.620245 38.552945 
L 165.097544 37.899472 
L 166.574843 36.459213 
L 168.052143 35.484375 
L 169.529442 33.462586 
L 171.006741 32.191738 
L 171.745391 30.925202 
L 172.484041 29.436673 
L 173.998273 28.198364 
L 174.736922 27.179309 
L 176.214222 26.340686 
L 176.952871 25.650549 
L 178.430171 25.082607 
L 179.168821 24.615224 
L 182.862069 23.653586 
L 188.808199 22.89986 
L 193.240097 22.652484 
L 194.717397 24.596594 
L 196.970278 24.375716 
L 201.402176 23.329375 
L 202.879476 23.172418 
L 204.356775 23.215832 
L 205.095425 23.983635 
L 206.609657 25.966404 
L 207.348306 27.73224 
L 208.825606 30.533442 
L 209.564255 32.89494 
L 211.041555 36.481838 
L 213.257504 45.893684 
L 214.734803 48.823047 
L 216.212102 53.413372 
L 218.464984 58.839883 
L 219.942283 61.663947 
L 219.942283 62.820431 
L 221.419583 64.625284 
L 222.158232 64.978075 
L 222.158232 65.441651 
L 223.635532 66.239714 
L 224.374182 66.627109 
L 228.80608 66.888157 
L 231.760678 66.836509 
L 233.237978 66.584175 
L 234.715277 66.145317 
L 236.229509 65.510085 
L 236.229509 65.111744 
L 237.706808 63.959879 
L 239.184108 62.585108 
L 239.184108 61.825445 
L 240.661407 59.924752 
L 242.138707 57.572366 
L 243.616006 54.833538 
L 245.831955 50.1385 
L 247.346187 46.695782 
L 248.084837 44.902536 
L 249.562136 43.07195 
L 251.778085 36.530031 
L 253.255384 34.404564 
L 253.994034 32.286645 
L 255.471333 30.543723 
L 256.209983 29.109401 
L 257.724215 27.929038 
L 258.462865 26.95767 
L 259.940164 26.15829 
L 260.678814 25.500448 
L 262.156113 24.959083 
L 262.894763 24.513571 
L 264.372062 24.146941 
L 265.110712 23.845226 
L 268.840893 23.224449 
L 270.318192 23.08607 
L 271.056842 24.453795 
L 272.534141 26.145905 
L 273.272791 29.227071 
L 274.75009 31.826147 
L 275.48874 35.545434 
L 276.966039 38.671035 
L 277.704689 42.497576 
L 278.443339 45.666751 
L 279.957571 50.656533 
L 282.17352 56.924064 
L 283.650819 60.54696 
L 285.128119 63.618389 
L 286.605418 66.075411 
L 286.605418 67.068773 
L 287.344068 67.49596 
L 288.082717 68.088762 
L 288.082717 68.669244 
L 289.560017 69.568099 
L 290.335599 69.740023 
L 290.335599 69.941558 
L 294.028847 70.24008 
L 296.983446 70.301538 
L 299.938045 70.18881 
L 299.938045 70.094878 
L 301.415344 69.881166 
L 302.153994 69.67411 
L 302.153994 69.503716 
L 303.631293 68.897421 
L 304.369943 68.452416 
L 304.369943 68.086203 
L 305.145525 67.60846 
L 306.622825 66.32568 
L 310.316073 62.228195 
L 311.793372 59.998058 
L 312.532022 58.762169 
L 314.009321 56.613557 
L 315.486621 54.038666 
L 317.000853 51.071427 
L 318.478152 47.027548 
L 319.216802 45.779767 
L 319.955451 45.138489 
L 321.432751 44.970175 
L 322.1714 45.601698 
L 322.91005 46.873953 
L 323.6487 49.200006 
L 324.38735 50.981726 
L 325.864649 53.726069 
L 327.378881 55.806665 
L 328.85618 57.388895 
L 330.33348 58.544923 
L 331.810779 59.357909 
L 332.549429 59.661147 
L 334.765378 59.962292 
L 336.981327 60.335883 
L 339.234208 60.422864 
L 342.927457 60.405015 
L 342.927457 60.372744 
L 345.882056 60.088356 
L 347.359355 59.822752 
L 347.359355 59.652965 
L 355.521434 57.656065 
L 358.476033 57.437524 
L 361.467564 57.23221 
L 363.683513 56.924197 
L 365.160812 56.510664 
L 366.638112 55.866226 
L 368.115411 54.922477 
L 369.592711 53.599016 
L 371.07001 51.814081 
L 371.80866 50.724549 
L 373.322891 49.494468 
L 374.800191 46.602511 
L 376.27749 44.49934 
L 377.01614 42.376568 
L 377.75479 40.739377 
L 379.970739 38.17979 
L 380.709388 37.98102 
L 382.186688 36.675159 
L 382.925337 35.567306 
L 383.70092 35.266485 
L 384.439569 34.038493 
L 385.916869 33.212314 
L 386.655518 32.993497 
L 388.132818 31.125421 
L 389.610117 28.507344 
L 391.087417 27.433581 
L 391.826066 26.549937 
L 391.826066 26.549937 
" clip-path="url(#p5292473bd4)" style="fill: none; stroke: #ff3f34; stroke-opacity: 0.99; stroke-width: 2.4; stroke-linecap: square"/>
   </g>
   <g id="line2d_22">
    <path d="M 44.446534 111.173358 
L 45.103902 107.481616 
L 45.103902 103.262483 
L 45.842552 99.04335 
L 45.842552 90.605084 
L 46.581201 86.385951 
L 46.581201 82.166818 
L 47.319851 77.947685 
L 47.319851 74.013495 
L 48.058501 70.773907 
L 48.79715 68.107916 
L 48.79715 65.913963 
L 49.5358 64.108469 
L 50.27445 62.622653 
L 51.013099 61.399915 
L 52.490399 59.565595 
L 53.967698 58.323335 
L 55.48193 57.482037 
L 56.22058 57.169491 
L 56.22058 56.912283 
L 58.436529 56.38308 
L 61.391128 56.022398 
L 65.084376 55.832159 
L 68.075907 55.769722 
L 69.553207 64.207988 
L 72.507805 72.646254 
L 73.246455 69.648748 
L 73.985105 67.181977 
L 74.723754 65.151969 
L 75.462404 63.481393 
L 76.201054 62.106607 
L 77.678353 60.04419 
L 79.192585 58.647455 
L 80.669884 57.701541 
L 82.147184 57.060938 
L 83.624483 56.627101 
L 85.840432 56.224142 
L 87.317732 64.662408 
L 89.533681 68.881541 
L 91.047913 73.100674 
L 91.786562 75.835767 
L 92.525212 72.273529 
L 93.263862 69.342017 
L 94.002511 66.929555 
L 94.002511 64.944241 
L 94.741161 63.310445 
L 95.479811 61.965927 
L 96.95711 59.948917 
L 98.434409 58.582933 
L 98.434409 58.075463 
L 99.911709 57.657845 
L 101.389008 57.031346 
L 102.90324 56.60706 
L 105.119189 56.212973 
L 108.073788 55.94438 
L 112.505686 55.787505 
L 122.846782 55.719952 
L 147.296086 55.716829 
L 148.810318 59.935962 
L 149.548968 64.155095 
L 152.503567 68.374228 
L 153.242216 66.133122 
L 153.980866 64.288824 
L 154.719516 62.771075 
L 155.458166 61.522057 
L 155.458166 60.494189 
L 156.935465 58.952209 
L 158.412764 57.90793 
L 159.890064 57.200712 
L 161.367363 56.72176 
L 163.620245 56.276897 
L 166.574843 55.973698 
L 171.006741 55.796612 
L 180.64612 55.723159 
L 223.635532 55.716825 
L 226.590131 72.593357 
L 227.32878 75.617599 
L 227.32878 77.477443 
L 228.06743 77.821396 
L 228.06743 77.865876 
L 230.283379 77.899347 
L 231.022029 73.971733 
L 231.760678 70.739539 
L 231.760678 68.079633 
L 232.499328 65.890688 
L 233.237978 64.089315 
L 233.976628 62.606891 
L 234.715277 61.386943 
L 235.490859 60.382998 
L 235.490859 59.55681 
L 236.968159 58.317386 
L 238.445458 57.478008 
L 239.922758 56.909554 
L 242.138707 56.381559 
L 245.093305 56.021701 
L 248.823486 55.831896 
L 256.209983 55.733217 
L 286.605418 55.716829 
L 288.082717 64.155095 
L 288.821367 62.661024 
L 290.335599 61.431492 
L 294.028847 65.650625 
L 295.506147 73.959493 
L 295.506147 76.205095 
L 296.244796 77.170799 
L 296.983446 77.586092 
L 296.983446 77.764686 
L 299.199395 77.897456 
L 299.938045 73.970177 
L 299.938045 70.738259 
L 300.676695 68.07858 
L 301.415344 65.889821 
L 302.153994 64.088601 
L 302.892644 62.606303 
L 303.631293 61.38646 
L 304.369943 60.3826 
L 305.884175 58.876637 
L 307.361474 57.856751 
L 308.838774 57.166051 
L 310.316073 56.698287 
L 311.793372 56.381503 
L 319.955451 55.811513 
L 328.11753 55.72596 
L 330.33348 55.723011 
L 331.072129 59.942144 
L 332.549429 64.161277 
L 334.026728 72.599544 
L 334.765378 75.62026 
L 335.504027 72.096179 
L 336.242677 69.196068 
L 336.981327 73.41394 
L 337.719976 75.970484 
L 338.458626 77.069906 
L 339.234208 77.542704 
L 339.972858 77.746027 
L 340.711508 73.845561 
L 341.450157 70.635706 
L 342.188807 67.994185 
L 342.927457 65.820369 
L 343.666106 64.031446 
L 344.404756 62.559269 
L 345.143406 61.347753 
L 346.620705 59.53027 
L 347.359355 58.855065 
L 347.359355 58.299412 
L 348.836654 57.465835 
L 350.350886 56.901311 
L 352.566835 56.376965 
L 354.044135 56.163893 
L 354.782784 60.383026 
L 356.260084 64.602159 
L 357.737383 73.040425 
L 358.476033 69.973127 
L 359.214682 67.448922 
L 360.691982 71.668055 
L 361.467564 75.150418 
L 362.206214 76.717243 
L 362.944863 72.998932 
L 363.683513 69.938981 
L 364.422163 67.420821 
L 365.160812 65.348524 
L 365.899462 63.643146 
L 366.638112 62.23972 
L 368.115411 60.134338 
L 369.592711 58.708506 
L 371.07001 57.742887 
L 371.80866 57.384155 
L 371.80866 57.088939 
L 374.061541 56.481534 
L 374.800191 56.346136 
L 382.925337 55.825764 
L 391.087417 55.729596 
L 392.564716 55.725474 
L 392.564716 55.725474 
" clip-path="url(#p5292473bd4)" style="fill: none; stroke: #05c46b; stroke-opacity: 0.99; stroke-width: 2.4; stroke-linecap: square"/>
   </g>
   <g id="line2d_23">
    <path d="M 44.446534 111.173358 
L 45.103902 107.704318 
L 45.103902 103.485185 
L 45.842552 99.266052 
L 45.842552 87.711428 
L 46.581201 83.854315 
L 46.581201 82.249821 
L 47.319851 79.062692 
L 47.319851 78.48491 
L 48.058501 82.532887 
L 48.79715 78.469952 
L 48.79715 75.027546 
L 49.5358 75.054831 
L 50.27445 73.947097 
L 50.27445 72.452129 
L 51.013099 76.671262 
L 51.013099 76.251633 
L 51.751749 75.066767 
L 52.490399 73.629179 
L 52.490399 73.166727 
L 53.229048 72.922885 
L 53.967698 71.730368 
L 54.74328 71.336264 
L 54.74328 75.555397 
L 55.48193 76.25868 
L 55.48193 78.507783 
L 56.22058 76.710156 
L 56.959229 75.666801 
L 56.959229 78.516334 
L 57.697879 76.184902 
L 57.697879 75.387434 
L 58.436529 75.823116 
L 59.175178 73.785454 
L 59.175178 74.879063 
L 59.913828 75.576557 
L 60.652478 73.911056 
L 60.652478 72.67235 
L 61.391128 71.377961 
L 62.129777 71.294762 
L 62.129777 71.883356 
L 62.868427 70.335604 
L 63.607077 72.044316 
L 63.607077 76.263449 
L 64.345726 75.33577 
L 65.084376 76.732309 
L 65.084376 73.931334 
L 65.859958 71.695405 
L 66.598608 73.874348 
L 66.598608 73.013367 
L 67.337258 77.2325 
L 68.075907 77.021071 
L 68.075907 81.240204 
L 68.814557 77.967545 
L 69.553207 81.324124 
L 69.553207 76.864377 
L 70.291856 76.697413 
L 71.030506 75.920791 
L 71.030506 77.665961 
L 71.769156 81.885094 
L 71.769156 86.104227 
L 72.507805 90.32336 
L 72.507805 92.778317 
L 73.246455 93.825778 
L 73.246455 105.34504 
L 73.985105 105.767753 
L 73.985105 115.207104 
L 73.246455 117.872948 
L 73.246455 119.234703 
L 73.246455 91.619651 
L 71.769156 83.95025 
L 71.769156 82.598447 
L 71.030506 82.484748 
L 71.030506 86.062397 
L 70.291856 83.162929 
L 70.291856 82.049466 
L 69.553207 81.103645 
L 69.553207 85.322778 
L 68.814557 83.222714 
L 68.814557 80.441538 
L 68.075907 83.764198 
L 68.075907 82.446755 
L 67.337258 79.170334 
L 67.337258 77.198415 
L 66.598608 75.448936 
L 65.859958 72.371921 
L 65.859958 76.591054 
L 65.084376 75.190147 
L 64.345726 73.140017 
L 64.345726 71.061133 
L 63.607077 68.107842 
L 62.868427 69.313179 
L 62.868427 73.491583 
L 62.129777 74.114775 
L 61.391128 72.850956 
L 61.391128 72.094678 
L 60.652478 69.690185 
L 59.913828 73.909318 
L 59.175178 73.497092 
L 59.175178 70.703105 
L 58.436529 71.909885 
L 57.697879 71.071137 
L 57.697879 74.551824 
L 56.959229 73.255806 
L 56.22058 77.474939 
L 56.22058 74.749493 
L 55.48193 73.321359 
L 54.74328 71.647008 
L 54.74328 69.846165 
L 53.967698 73.116152 
L 53.229048 70.177096 
L 53.229048 68.896955 
L 52.490399 68.491108 
L 51.751749 66.786362 
L 51.013099 68.313714 
L 51.013099 72.138784 
L 49.5358 69.210742 
L 48.79715 73.429875 
L 48.79715 71.691209 
L 48.058501 75.910342 
L 48.058501 76.989327 
L 47.319851 75.973585 
L 46.581201 74.314369 
L 46.581201 73.045649 
L 45.842552 70.416809 
L 45.103902 74.50445 
L 45.103902 74.282121 
L 44.446534 75.403004 
L 44.446534 75.403004 
" clip-path="url(#p5292473bd4)" style="fill: none; stroke: #ffa801; stroke-opacity: 0.99; stroke-width: 2.4; stroke-linecap: square"/>
   </g>
   <g id="line2d_24">
    <path d="M 44.446534 111.173358 
L 45.103902 107.41758 
L 45.103902 103.198447 
L 45.842552 98.979314 
L 45.842552 94.760181 
L 45.842552 90.541048 
L 46.581201 86.321915 
L 46.581201 82.102782 
L 47.319851 77.883649 
L 47.319851 73.664516 
L 48.058501 69.816126 
L 48.79715 66.336957 
L 48.79715 62.801034 
L 49.5358 60.137585 
L 50.27445 58.403087 
L 51.013099 56.899779 
L 51.751749 55.767376 
L 52.490399 55.691744 
L 53.229048 54.913631 
L 53.967698 53.931671 
L 54.74328 53.744855 
L 55.48193 53.384174 
L 56.22058 53.6376 
L 56.959229 53.291532 
L 57.697879 52.603355 
L 58.436529 51.872938 
L 59.913828 52.19508 
L 60.652478 53.892066 
L 61.391128 55.678646 
L 62.129777 55.65163 
L 62.868427 55.322559 
L 63.607077 57.015157 
L 64.345726 56.537457 
L 65.084376 56.31676 
L 65.084376 58.903562 
L 65.859958 58.869232 
L 66.598608 59.010098 
L 67.337258 59.687028 
L 68.075907 59.231773 
L 68.814557 58.744066 
L 69.553207 59.898762 
L 70.291856 60.446235 
L 71.030506 59.853653 
L 71.769156 61.667593 
L 71.769156 61.561452 
L 72.507805 60.908441 
L 73.246455 60.092694 
L 73.985105 59.283338 
L 74.723754 59.074445 
L 75.462404 58.69711 
L 75.462404 58.573397 
L 76.201054 58.542181 
L 76.939703 58.513418 
L 77.678353 58.199981 
L 78.453935 58.785336 
L 79.192585 58.59184 
L 79.931235 58.247691 
L 80.669884 58.276347 
L 81.408534 58.133766 
L 82.147184 57.828397 
L 82.885833 57.379379 
L 83.624483 56.965877 
L 84.363133 58.253588 
L 85.101783 58.100636 
L 85.101783 58.452348 
L 85.840432 58.33375 
L 86.579082 57.746457 
L 87.317732 58.024243 
L 88.056381 57.641318 
L 88.795031 57.599962 
L 88.795031 57.445595 
L 89.533681 56.729041 
L 90.27233 55.171146 
L 91.047913 54.104349 
L 91.786562 53.499149 
L 92.525212 52.542341 
L 93.263862 52.160673 
L 93.263862 52.807918 
L 94.002511 52.489406 
L 94.741161 51.970024 
L 96.21846 51.494794 
L 96.95711 52.434834 
L 97.69576 53.566775 
L 98.434409 54.435919 
" clip-path="url(#p5292473bd4)" style="fill: none; stroke: #a55eea; stroke-opacity: 0.99; stroke-width: 2.4; stroke-linecap: square"/>
   </g>
   <g id="patch_3">
    <path d="M 27.040625 100.082051 
L 27.040625 16.897251 
" style="fill: none; stroke: #000000; stroke-width: 0.8; stroke-linejoin: miter; stroke-linecap: square"/>
   </g>
   <g id="patch_4">
    <path d="M 409.970625 100.082051 
L 409.970625 16.897251 
" style="fill: none; stroke: #000000; stroke-width: 0.8; stroke-linejoin: miter; stroke-linecap: square"/>
   </g>
   <g id="patch_5">
    <path d="M 27.040625 100.082051 
L 409.970625 100.082051 
" style="fill: none; stroke: #000000; stroke-width: 0.8; stroke-linejoin: miter; stroke-linecap: square"/>
   </g>
   <g id="patch_6">
    <path d="M 27.040625 16.897251 
L 409.970625 16.897251 
" style="fill: none; stroke: #000000; stroke-width: 0.8; stroke-linejoin: miter; stroke-linecap: square"/>
   </g>
   <g id="legend_1">
    <g id="patch_7">
     <path d="M 98.510306 8.839063 
L 323.183744 8.839063 
Q 324.183744 8.839063 324.183744 7.839063 
L 324.183744 1 
Q 324.183744 0 323.183744 0 
L 98.510306 0 
Q 97.510306 0 97.510306 1 
L 97.510306 7.839063 
Q 97.510306 8.839063 98.510306 8.839063 
z
" style="fill: #ffffff; opacity: 0.8; stroke: #cccccc; stroke-linejoin: miter"/>
    </g>
    <g id="line2d_25">
     <path d="M 99.510306 4.049219 
L 104.510306 4.049219 
L 109.510306 4.049219 
" style="fill: none; stroke: #ff3f34; stroke-opacity: 0.99; stroke-width: 2.4; stroke-linecap: square"/>
    </g>
    <g id="text_13">
     <!-- Opti. &amp; tracking -->
     <g transform="translate(113.510306 5.799219)scale(0.05 -0.05)">
      <defs>
       <path id="DejaVuSans-4f" d="M 2522 4238 
Q 1834 4238 1429 3725 
Q 1025 3213 1025 2328 
Q 1025 1447 1429 934 
Q 1834 422 2522 422 
Q 3209 422 3611 934 
Q 4013 1447 4013 2328 
Q 4013 3213 3611 3725 
Q 3209 4238 2522 4238 
z
M 2522 4750 
Q 3503 4750 4090 4092 
Q 4678 3434 4678 2328 
Q 4678 1225 4090 567 
Q 3503 -91 2522 -91 
Q 1538 -91 948 565 
Q 359 1222 359 2328 
Q 359 3434 948 4092 
Q 1538 4750 2522 4750 
z
" transform="scale(0.015625)"/>
       <path id="DejaVuSans-74" d="M 1172 4494 
L 1172 3500 
L 2356 3500 
L 2356 3053 
L 1172 3053 
L 1172 1153 
Q 1172 725 1289 603 
Q 1406 481 1766 481 
L 2356 481 
L 2356 0 
L 1766 0 
Q 1100 0 847 248 
Q 594 497 594 1153 
L 594 3053 
L 172 3053 
L 172 3500 
L 594 3500 
L 594 4494 
L 1172 4494 
z
" transform="scale(0.015625)"/>
       <path id="DejaVuSans-69" d="M 603 3500 
L 1178 3500 
L 1178 0 
L 603 0 
L 603 3500 
z
M 603 4863 
L 1178 4863 
L 1178 4134 
L 603 4134 
L 603 4863 
z
" transform="scale(0.015625)"/>
       <path id="DejaVuSans-2e" d="M 684 794 
L 1344 794 
L 1344 0 
L 684 0 
L 684 794 
z
" transform="scale(0.015625)"/>
       <path id="DejaVuSans-26" d="M 1556 2509 
Q 1272 2256 1139 2004 
Q 1006 1753 1006 1478 
Q 1006 1022 1337 719 
Q 1669 416 2169 416 
Q 2466 416 2725 514 
Q 2984 613 3213 813 
L 1556 2509 
z
M 1997 2859 
L 3584 1234 
Q 3769 1513 3872 1830 
Q 3975 2147 3994 2503 
L 4575 2503 
Q 4538 2091 4375 1687 
Q 4213 1284 3922 891 
L 4794 0 
L 4006 0 
L 3559 459 
Q 3234 181 2878 45 
Q 2522 -91 2113 -91 
Q 1359 -91 881 339 
Q 403 769 403 1441 
Q 403 1841 612 2192 
Q 822 2544 1241 2853 
Q 1091 3050 1012 3245 
Q 934 3441 934 3628 
Q 934 4134 1281 4442 
Q 1628 4750 2203 4750 
Q 2463 4750 2720 4694 
Q 2978 4638 3244 4525 
L 3244 3956 
Q 2972 4103 2725 4179 
Q 2478 4256 2266 4256 
Q 1938 4256 1733 4082 
Q 1528 3909 1528 3634 
Q 1528 3475 1620 3314 
Q 1713 3153 1997 2859 
z
" transform="scale(0.015625)"/>
       <path id="DejaVuSans-6e" d="M 3513 2113 
L 3513 0 
L 2938 0 
L 2938 2094 
Q 2938 2591 2744 2837 
Q 2550 3084 2163 3084 
Q 1697 3084 1428 2787 
Q 1159 2491 1159 1978 
L 1159 0 
L 581 0 
L 581 3500 
L 1159 3500 
L 1159 2956 
Q 1366 3272 1645 3428 
Q 1925 3584 2291 3584 
Q 2894 3584 3203 3211 
Q 3513 2838 3513 2113 
z
" transform="scale(0.015625)"/>
      </defs>
      <use xlink:href="#DejaVuSans-4f"/>
      <use xlink:href="#DejaVuSans-70" x="78.710938"/>
      <use xlink:href="#DejaVuSans-74" x="142.1875"/>
      <use xlink:href="#DejaVuSans-69" x="181.396484"/>
      <use xlink:href="#DejaVuSans-2e" x="209.179688"/>
      <use xlink:href="#DejaVuSans-20" x="240.966797"/>
      <use xlink:href="#DejaVuSans-26" x="272.753906"/>
      <use xlink:href="#DejaVuSans-20" x="350.732422"/>
      <use xlink:href="#DejaVuSans-74" x="382.519531"/>
      <use xlink:href="#DejaVuSans-72" x="421.728516"/>
      <use xlink:href="#DejaVuSans-61" x="462.841797"/>
      <use xlink:href="#DejaVuSans-63" x="524.121094"/>
      <use xlink:href="#DejaVuSans-6b" x="579.101562"/>
      <use xlink:href="#DejaVuSans-69" x="637.011719"/>
      <use xlink:href="#DejaVuSans-6e" x="664.794922"/>
      <use xlink:href="#DejaVuSans-67" x="728.173828"/>
     </g>
    </g>
    <g id="line2d_26">
     <path d="M 163.092337 4.049219 
L 168.092337 4.049219 
L 173.092337 4.049219 
" style="fill: none; stroke: #05c46b; stroke-opacity: 0.99; stroke-width: 2.4; stroke-linecap: square"/>
    </g>
    <g id="text_14">
     <!-- Follow-the-Gap -->
     <g transform="translate(177.092337 5.799219)scale(0.05 -0.05)">
      <defs>
       <path id="DejaVuSans-46" d="M 628 4666 
L 3309 4666 
L 3309 4134 
L 1259 4134 
L 1259 2759 
L 3109 2759 
L 3109 2228 
L 1259 2228 
L 1259 0 
L 628 0 
L 628 4666 
z
" transform="scale(0.015625)"/>
       <path id="DejaVuSans-6c" d="M 603 4863 
L 1178 4863 
L 1178 0 
L 603 0 
L 603 4863 
z
" transform="scale(0.015625)"/>
       <path id="DejaVuSans-77" d="M 269 3500 
L 844 3500 
L 1563 769 
L 2278 3500 
L 2956 3500 
L 3675 769 
L 4391 3500 
L 4966 3500 
L 4050 0 
L 3372 0 
L 2619 2869 
L 1863 0 
L 1184 0 
L 269 3500 
z
" transform="scale(0.015625)"/>
       <path id="DejaVuSans-2d" d="M 313 2009 
L 1997 2009 
L 1997 1497 
L 313 1497 
L 313 2009 
z
" transform="scale(0.015625)"/>
       <path id="DejaVuSans-68" d="M 3513 2113 
L 3513 0 
L 2938 0 
L 2938 2094 
Q 2938 2591 2744 2837 
Q 2550 3084 2163 3084 
Q 1697 3084 1428 2787 
Q 1159 2491 1159 1978 
L 1159 0 
L 581 0 
L 581 4863 
L 1159 4863 
L 1159 2956 
Q 1366 3272 1645 3428 
Q 1925 3584 2291 3584 
Q 2894 3584 3203 3211 
Q 3513 2838 3513 2113 
z
" transform="scale(0.015625)"/>
       <path id="DejaVuSans-47" d="M 3809 666 
L 3809 1919 
L 2778 1919 
L 2778 2438 
L 4434 2438 
L 4434 434 
Q 4069 175 3628 42 
Q 3188 -91 2688 -91 
Q 1594 -91 976 548 
Q 359 1188 359 2328 
Q 359 3472 976 4111 
Q 1594 4750 2688 4750 
Q 3144 4750 3555 4637 
Q 3966 4525 4313 4306 
L 4313 3634 
Q 3963 3931 3569 4081 
Q 3175 4231 2741 4231 
Q 1884 4231 1454 3753 
Q 1025 3275 1025 2328 
Q 1025 1384 1454 906 
Q 1884 428 2741 428 
Q 3075 428 3337 486 
Q 3600 544 3809 666 
z
" transform="scale(0.015625)"/>
      </defs>
      <use xlink:href="#DejaVuSans-46"/>
      <use xlink:href="#DejaVuSans-6f" x="53.894531"/>
      <use xlink:href="#DejaVuSans-6c" x="115.076172"/>
      <use xlink:href="#DejaVuSans-6c" x="142.859375"/>
      <use xlink:href="#DejaVuSans-6f" x="170.642578"/>
      <use xlink:href="#DejaVuSans-77" x="231.824219"/>
      <use xlink:href="#DejaVuSans-2d" x="313.611328"/>
      <use xlink:href="#DejaVuSans-74" x="349.695312"/>
      <use xlink:href="#DejaVuSans-68" x="388.904297"/>
      <use xlink:href="#DejaVuSans-65" x="452.283203"/>
      <use xlink:href="#DejaVuSans-2d" x="513.806641"/>
      <use xlink:href="#DejaVuSans-47" x="553.515625"/>
      <use xlink:href="#DejaVuSans-61" x="631.005859"/>
      <use xlink:href="#DejaVuSans-70" x="692.285156"/>
     </g>
    </g>
    <g id="line2d_27">
     <path d="M 224.879837 4.049219 
L 229.879837 4.049219 
L 234.879837 4.049219 
" style="fill: none; stroke: #ffa801; stroke-opacity: 0.99; stroke-width: 2.4; stroke-linecap: square"/>
    </g>
    <g id="text_15">
     <!-- End-to-end -->
     <g transform="translate(238.879837 5.799219)scale(0.05 -0.05)">
      <defs>
       <path id="DejaVuSans-45" d="M 628 4666 
L 3578 4666 
L 3578 4134 
L 1259 4134 
L 1259 2753 
L 3481 2753 
L 3481 2222 
L 1259 2222 
L 1259 531 
L 3634 531 
L 3634 0 
L 628 0 
L 628 4666 
z
" transform="scale(0.015625)"/>
      </defs>
      <use xlink:href="#DejaVuSans-45"/>
      <use xlink:href="#DejaVuSans-6e" x="63.183594"/>
      <use xlink:href="#DejaVuSans-64" x="126.5625"/>
      <use xlink:href="#DejaVuSans-2d" x="190.039062"/>
      <use xlink:href="#DejaVuSans-74" x="226.123047"/>
      <use xlink:href="#DejaVuSans-6f" x="265.332031"/>
      <use xlink:href="#DejaVuSans-2d" x="328.388672"/>
      <use xlink:href="#DejaVuSans-65" x="364.472656"/>
      <use xlink:href="#DejaVuSans-6e" x="425.996094"/>
      <use xlink:href="#DejaVuSans-64" x="489.375"/>
     </g>
    </g>
    <g id="line2d_28">
     <path d="M 276.522806 4.049219 
L 281.522806 4.049219 
L 286.522806 4.049219 
" style="fill: none; stroke: #a55eea; stroke-opacity: 0.99; stroke-width: 2.4; stroke-linecap: square"/>
    </g>
    <g id="text_16">
     <!-- TinyLidarNet -->
     <g transform="translate(290.522806 5.799219)scale(0.05 -0.05)">
      <defs>
       <path id="DejaVuSans-79" d="M 2059 -325 
Q 1816 -950 1584 -1140 
Q 1353 -1331 966 -1331 
L 506 -1331 
L 506 -850 
L 844 -850 
Q 1081 -850 1212 -737 
Q 1344 -625 1503 -206 
L 1606 56 
L 191 3500 
L 800 3500 
L 1894 763 
L 2988 3500 
L 3597 3500 
L 2059 -325 
z
" transform="scale(0.015625)"/>
       <path id="DejaVuSans-4c" d="M 628 4666 
L 1259 4666 
L 1259 531 
L 3531 531 
L 3531 0 
L 628 0 
L 628 4666 
z
" transform="scale(0.015625)"/>
       <path id="DejaVuSans-4e" d="M 628 4666 
L 1478 4666 
L 3547 763 
L 3547 4666 
L 4159 4666 
L 4159 0 
L 3309 0 
L 1241 3903 
L 1241 0 
L 628 0 
L 628 4666 
z
" transform="scale(0.015625)"/>
      </defs>
      <use xlink:href="#DejaVuSans-54"/>
      <use xlink:href="#DejaVuSans-69" x="57.958984"/>
      <use xlink:href="#DejaVuSans-6e" x="85.742188"/>
      <use xlink:href="#DejaVuSans-79" x="149.121094"/>
      <use xlink:href="#DejaVuSans-4c" x="208.300781"/>
      <use xlink:href="#DejaVuSans-69" x="264.013672"/>
      <use xlink:href="#DejaVuSans-64" x="291.796875"/>
      <use xlink:href="#DejaVuSans-61" x="355.273438"/>
      <use xlink:href="#DejaVuSans-72" x="416.552734"/>
      <use xlink:href="#DejaVuSans-4e" x="457.666016"/>
      <use xlink:href="#DejaVuSans-65" x="532.470703"/>
      <use xlink:href="#DejaVuSans-74" x="593.994141"/>
     </g>
    </g>
   </g>
  </g>
 </g>
 <defs>
  <clipPath id="p5292473bd4">
   <rect x="27.040625" y="16.897251" width="382.93" height="83.1848"/>
  </clipPath>
 </defs>
</svg>
