<?xml version="1.0" encoding="utf-8" standalone="no"?>
<!DOCTYPE svg PUBLIC "-//W3C//DTD SVG 1.1//EN"
  "http://www.w3.org/Graphics/SVG/1.1/DTD/svg11.dtd">
<svg xmlns:xlink="http://www.w3.org/1999/xlink" width="409.970625pt" height="130.438301pt" viewBox="0 0 409.970625 130.438301" xmlns="http://www.w3.org/2000/svg" version="1.1">
 <metadata>
  <rdf:RDF xmlns:dc="http://purl.org/dc/elements/1.1/" xmlns:cc="http://creativecommons.org/ns#" xmlns:rdf="http://www.w3.org/1999/02/22-rdf-syntax-ns#">
   <cc:Work>
    <dc:type rdf:resource="http://purl.org/dc/dcmitype/StillImage"/>
    <dc:date>2024-03-11T21:41:08.569223</dc:date>
    <dc:format>image/svg+xml</dc:format>
    <dc:creator>
     <cc:Agent>
      <dc:title>Matplotlib v3.5.2, https://matplotlib.org/</dc:title>
     </cc:Agent>
    </dc:creator>
   </cc:Work>
  </rdf:RDF>
 </metadata>
 <defs>
  <style type="text/css">*{stroke-linejoin: round; stroke-linecap: butt}</style>
 </defs>
 <g id="figure_1">
  <g id="patch_1">
   <path d="M 0 130.438301 
L 409.970625 130.438301 
L 409.970625 0 
L 0 0 
z
" style="fill: #ffffff"/>
  </g>
  <g id="axes_1">
   <g id="patch_2">
    <path d="M 27.040625 100.082051 
L 409.970625 100.082051 
L 409.970625 16.897251 
L 27.040625 16.897251 
z
" style="fill: #ffffff"/>
   </g>
   <g id="matplotlib.axis_1">
    <g id="xtick_1">
     <g id="line2d_1">
      <path d="M 44.446534 100.082051 
L 44.446534 16.897251 
" clip-path="url(#p836aaca0f0)" style="fill: none; stroke: #b0b0b0; stroke-width: 0.8; stroke-linecap: square"/>
     </g>
     <g id="line2d_2">
      <defs>
       <path id="m925caad0c7" d="M 0 0 
L 0 3.5 
" style="stroke: #000000; stroke-width: 0.8"/>
      </defs>
      <g>
       <use xlink:href="#m925caad0c7" x="44.446534" y="100.082051" style="stroke: #000000; stroke-width: 0.8"/>
      </g>
     </g>
     <g id="text_1">
      <!-- 0 -->
      <g transform="translate(41.265284 114.680489)scale(0.1 -0.1)">
       <defs>
        <path id="DejaVuSans-30" d="M 2034 4250 
Q 1547 4250 1301 3770 
Q 1056 3291 1056 2328 
Q 1056 1369 1301 889 
Q 1547 409 2034 409 
Q 2525 409 2770 889 
Q 3016 1369 3016 2328 
Q 3016 3291 2770 3770 
Q 2525 4250 2034 4250 
z
M 2034 4750 
Q 2819 4750 3233 4129 
Q 3647 3509 3647 2328 
Q 3647 1150 3233 529 
Q 2819 -91 2034 -91 
Q 1250 -91 836 529 
Q 422 1150 422 2328 
Q 422 3509 836 4129 
Q 1250 4750 2034 4750 
z
" transform="scale(0.015625)"/>
       </defs>
       <use xlink:href="#DejaVuSans-30"/>
      </g>
     </g>
    </g>
    <g id="xtick_2">
     <g id="line2d_3">
      <path d="M 114.476276 100.082051 
L 114.476276 16.897251 
" clip-path="url(#p836aaca0f0)" style="fill: none; stroke: #b0b0b0; stroke-width: 0.8; stroke-linecap: square"/>
     </g>
     <g id="line2d_4">
      <g>
       <use xlink:href="#m925caad0c7" x="114.476276" y="100.082051" style="stroke: #000000; stroke-width: 0.8"/>
      </g>
     </g>
     <g id="text_2">
      <!-- 20 -->
      <g transform="translate(108.113776 114.680489)scale(0.1 -0.1)">
       <defs>
        <path id="DejaVuSans-32" d="M 1228 531 
L 3431 531 
L 3431 0 
L 469 0 
L 469 531 
Q 828 903 1448 1529 
Q 2069 2156 2228 2338 
Q 2531 2678 2651 2914 
Q 2772 3150 2772 3378 
Q 2772 3750 2511 3984 
Q 2250 4219 1831 4219 
Q 1534 4219 1204 4116 
Q 875 4013 500 3803 
L 500 4441 
Q 881 4594 1212 4672 
Q 1544 4750 1819 4750 
Q 2544 4750 2975 4387 
Q 3406 4025 3406 3419 
Q 3406 3131 3298 2873 
Q 3191 2616 2906 2266 
Q 2828 2175 2409 1742 
Q 1991 1309 1228 531 
z
" transform="scale(0.015625)"/>
       </defs>
       <use xlink:href="#DejaVuSans-32"/>
       <use xlink:href="#DejaVuSans-30" x="63.623047"/>
      </g>
     </g>
    </g>
    <g id="xtick_3">
     <g id="line2d_5">
      <path d="M 184.506017 100.082051 
L 184.506017 16.897251 
" clip-path="url(#p836aaca0f0)" style="fill: none; stroke: #b0b0b0; stroke-width: 0.8; stroke-linecap: square"/>
     </g>
     <g id="line2d_6">
      <g>
       <use xlink:href="#m925caad0c7" x="184.506017" y="100.082051" style="stroke: #000000; stroke-width: 0.8"/>
      </g>
     </g>
     <g id="text_3">
      <!-- 40 -->
      <g transform="translate(178.143517 114.680489)scale(0.1 -0.1)">
       <defs>
        <path id="DejaVuSans-34" d="M 2419 4116 
L 825 1625 
L 2419 1625 
L 2419 4116 
z
M 2253 4666 
L 3047 4666 
L 3047 1625 
L 3713 1625 
L 3713 1100 
L 3047 1100 
L 3047 0 
L 2419 0 
L 2419 1100 
L 313 1100 
L 313 1709 
L 2253 4666 
z
" transform="scale(0.015625)"/>
       </defs>
       <use xlink:href="#DejaVuSans-34"/>
       <use xlink:href="#DejaVuSans-30" x="63.623047"/>
      </g>
     </g>
    </g>
    <g id="xtick_4">
     <g id="line2d_7">
      <path d="M 254.535759 100.082051 
L 254.535759 16.897251 
" clip-path="url(#p836aaca0f0)" style="fill: none; stroke: #b0b0b0; stroke-width: 0.8; stroke-linecap: square"/>
     </g>
     <g id="line2d_8">
      <g>
       <use xlink:href="#m925caad0c7" x="254.535759" y="100.082051" style="stroke: #000000; stroke-width: 0.8"/>
      </g>
     </g>
     <g id="text_4">
      <!-- 60 -->
      <g transform="translate(248.173259 114.680489)scale(0.1 -0.1)">
       <defs>
        <path id="DejaVuSans-36" d="M 2113 2584 
Q 1688 2584 1439 2293 
Q 1191 2003 1191 1497 
Q 1191 994 1439 701 
Q 1688 409 2113 409 
Q 2538 409 2786 701 
Q 3034 994 3034 1497 
Q 3034 2003 2786 2293 
Q 2538 2584 2113 2584 
z
M 3366 4563 
L 3366 3988 
Q 3128 4100 2886 4159 
Q 2644 4219 2406 4219 
Q 1781 4219 1451 3797 
Q 1122 3375 1075 2522 
Q 1259 2794 1537 2939 
Q 1816 3084 2150 3084 
Q 2853 3084 3261 2657 
Q 3669 2231 3669 1497 
Q 3669 778 3244 343 
Q 2819 -91 2113 -91 
Q 1303 -91 875 529 
Q 447 1150 447 2328 
Q 447 3434 972 4092 
Q 1497 4750 2381 4750 
Q 2619 4750 2861 4703 
Q 3103 4656 3366 4563 
z
" transform="scale(0.015625)"/>
       </defs>
       <use xlink:href="#DejaVuSans-36"/>
       <use xlink:href="#DejaVuSans-30" x="63.623047"/>
      </g>
     </g>
    </g>
    <g id="xtick_5">
     <g id="line2d_9">
      <path d="M 324.565501 100.082051 
L 324.565501 16.897251 
" clip-path="url(#p836aaca0f0)" style="fill: none; stroke: #b0b0b0; stroke-width: 0.8; stroke-linecap: square"/>
     </g>
     <g id="line2d_10">
      <g>
       <use xlink:href="#m925caad0c7" x="324.565501" y="100.082051" style="stroke: #000000; stroke-width: 0.8"/>
      </g>
     </g>
     <g id="text_5">
      <!-- 80 -->
      <g transform="translate(318.203001 114.680489)scale(0.1 -0.1)">
       <defs>
        <path id="DejaVuSans-38" d="M 2034 2216 
Q 1584 2216 1326 1975 
Q 1069 1734 1069 1313 
Q 1069 891 1326 650 
Q 1584 409 2034 409 
Q 2484 409 2743 651 
Q 3003 894 3003 1313 
Q 3003 1734 2745 1975 
Q 2488 2216 2034 2216 
z
M 1403 2484 
Q 997 2584 770 2862 
Q 544 3141 544 3541 
Q 544 4100 942 4425 
Q 1341 4750 2034 4750 
Q 2731 4750 3128 4425 
Q 3525 4100 3525 3541 
Q 3525 3141 3298 2862 
Q 3072 2584 2669 2484 
Q 3125 2378 3379 2068 
Q 3634 1759 3634 1313 
Q 3634 634 3220 271 
Q 2806 -91 2034 -91 
Q 1263 -91 848 271 
Q 434 634 434 1313 
Q 434 1759 690 2068 
Q 947 2378 1403 2484 
z
M 1172 3481 
Q 1172 3119 1398 2916 
Q 1625 2713 2034 2713 
Q 2441 2713 2670 2916 
Q 2900 3119 2900 3481 
Q 2900 3844 2670 4047 
Q 2441 4250 2034 4250 
Q 1625 4250 1398 4047 
Q 1172 3844 1172 3481 
z
" transform="scale(0.015625)"/>
       </defs>
       <use xlink:href="#DejaVuSans-38"/>
       <use xlink:href="#DejaVuSans-30" x="63.623047"/>
      </g>
     </g>
    </g>
    <g id="xtick_6">
     <g id="line2d_11">
      <path d="M 394.595242 100.082051 
L 394.595242 16.897251 
" clip-path="url(#p836aaca0f0)" style="fill: none; stroke: #b0b0b0; stroke-width: 0.8; stroke-linecap: square"/>
     </g>
     <g id="line2d_12">
      <g>
       <use xlink:href="#m925caad0c7" x="394.595242" y="100.082051" style="stroke: #000000; stroke-width: 0.8"/>
      </g>
     </g>
     <g id="text_6">
      <!-- 100 -->
      <g transform="translate(385.051492 114.680489)scale(0.1 -0.1)">
       <defs>
        <path id="DejaVuSans-31" d="M 794 531 
L 1825 531 
L 1825 4091 
L 703 3866 
L 703 4441 
L 1819 4666 
L 2450 4666 
L 2450 531 
L 3481 531 
L 3481 0 
L 794 0 
L 794 531 
z
" transform="scale(0.015625)"/>
       </defs>
       <use xlink:href="#DejaVuSans-31"/>
       <use xlink:href="#DejaVuSans-30" x="63.623047"/>
       <use xlink:href="#DejaVuSans-30" x="127.246094"/>
      </g>
     </g>
    </g>
    <g id="text_7">
     <!-- Track progress [%] -->
     <g transform="translate(172.015 128.358614)scale(0.1 -0.1)">
      <defs>
       <path id="DejaVuSans-54" d="M -19 4666 
L 3928 4666 
L 3928 4134 
L 2272 4134 
L 2272 0 
L 1638 0 
L 1638 4134 
L -19 4134 
L -19 4666 
z
" transform="scale(0.015625)"/>
       <path id="DejaVuSans-72" d="M 2631 2963 
Q 2534 3019 2420 3045 
Q 2306 3072 2169 3072 
Q 1681 3072 1420 2755 
Q 1159 2438 1159 1844 
L 1159 0 
L 581 0 
L 581 3500 
L 1159 3500 
L 1159 2956 
Q 1341 3275 1631 3429 
Q 1922 3584 2338 3584 
Q 2397 3584 2469 3576 
Q 2541 3569 2628 3553 
L 2631 2963 
z
" transform="scale(0.015625)"/>
       <path id="DejaVuSans-61" d="M 2194 1759 
Q 1497 1759 1228 1600 
Q 959 1441 959 1056 
Q 959 750 1161 570 
Q 1363 391 1709 391 
Q 2188 391 2477 730 
Q 2766 1069 2766 1631 
L 2766 1759 
L 2194 1759 
z
M 3341 1997 
L 3341 0 
L 2766 0 
L 2766 531 
Q 2569 213 2275 61 
Q 1981 -91 1556 -91 
Q 1019 -91 701 211 
Q 384 513 384 1019 
Q 384 1609 779 1909 
Q 1175 2209 1959 2209 
L 2766 2209 
L 2766 2266 
Q 2766 2663 2505 2880 
Q 2244 3097 1772 3097 
Q 1472 3097 1187 3025 
Q 903 2953 641 2809 
L 641 3341 
Q 956 3463 1253 3523 
Q 1550 3584 1831 3584 
Q 2591 3584 2966 3190 
Q 3341 2797 3341 1997 
z
" transform="scale(0.015625)"/>
       <path id="DejaVuSans-63" d="M 3122 3366 
L 3122 2828 
Q 2878 2963 2633 3030 
Q 2388 3097 2138 3097 
Q 1578 3097 1268 2742 
Q 959 2388 959 1747 
Q 959 1106 1268 751 
Q 1578 397 2138 397 
Q 2388 397 2633 464 
Q 2878 531 3122 666 
L 3122 134 
Q 2881 22 2623 -34 
Q 2366 -91 2075 -91 
Q 1284 -91 818 406 
Q 353 903 353 1747 
Q 353 2603 823 3093 
Q 1294 3584 2113 3584 
Q 2378 3584 2631 3529 
Q 2884 3475 3122 3366 
z
" transform="scale(0.015625)"/>
       <path id="DejaVuSans-6b" d="M 581 4863 
L 1159 4863 
L 1159 1991 
L 2875 3500 
L 3609 3500 
L 1753 1863 
L 3688 0 
L 2938 0 
L 1159 1709 
L 1159 0 
L 581 0 
L 581 4863 
z
" transform="scale(0.015625)"/>
       <path id="DejaVuSans-20" transform="scale(0.015625)"/>
       <path id="DejaVuSans-70" d="M 1159 525 
L 1159 -1331 
L 581 -1331 
L 581 3500 
L 1159 3500 
L 1159 2969 
Q 1341 3281 1617 3432 
Q 1894 3584 2278 3584 
Q 2916 3584 3314 3078 
Q 3713 2572 3713 1747 
Q 3713 922 3314 415 
Q 2916 -91 2278 -91 
Q 1894 -91 1617 61 
Q 1341 213 1159 525 
z
M 3116 1747 
Q 3116 2381 2855 2742 
Q 2594 3103 2138 3103 
Q 1681 3103 1420 2742 
Q 1159 2381 1159 1747 
Q 1159 1113 1420 752 
Q 1681 391 2138 391 
Q 2594 391 2855 752 
Q 3116 1113 3116 1747 
z
" transform="scale(0.015625)"/>
       <path id="DejaVuSans-6f" d="M 1959 3097 
Q 1497 3097 1228 2736 
Q 959 2375 959 1747 
Q 959 1119 1226 758 
Q 1494 397 1959 397 
Q 2419 397 2687 759 
Q 2956 1122 2956 1747 
Q 2956 2369 2687 2733 
Q 2419 3097 1959 3097 
z
M 1959 3584 
Q 2709 3584 3137 3096 
Q 3566 2609 3566 1747 
Q 3566 888 3137 398 
Q 2709 -91 1959 -91 
Q 1206 -91 779 398 
Q 353 888 353 1747 
Q 353 2609 779 3096 
Q 1206 3584 1959 3584 
z
" transform="scale(0.015625)"/>
       <path id="DejaVuSans-67" d="M 2906 1791 
Q 2906 2416 2648 2759 
Q 2391 3103 1925 3103 
Q 1463 3103 1205 2759 
Q 947 2416 947 1791 
Q 947 1169 1205 825 
Q 1463 481 1925 481 
Q 2391 481 2648 825 
Q 2906 1169 2906 1791 
z
M 3481 434 
Q 3481 -459 3084 -895 
Q 2688 -1331 1869 -1331 
Q 1566 -1331 1297 -1286 
Q 1028 -1241 775 -1147 
L 775 -588 
Q 1028 -725 1275 -790 
Q 1522 -856 1778 -856 
Q 2344 -856 2625 -561 
Q 2906 -266 2906 331 
L 2906 616 
Q 2728 306 2450 153 
Q 2172 0 1784 0 
Q 1141 0 747 490 
Q 353 981 353 1791 
Q 353 2603 747 3093 
Q 1141 3584 1784 3584 
Q 2172 3584 2450 3431 
Q 2728 3278 2906 2969 
L 2906 3500 
L 3481 3500 
L 3481 434 
z
" transform="scale(0.015625)"/>
       <path id="DejaVuSans-65" d="M 3597 1894 
L 3597 1613 
L 953 1613 
Q 991 1019 1311 708 
Q 1631 397 2203 397 
Q 2534 397 2845 478 
Q 3156 559 3463 722 
L 3463 178 
Q 3153 47 2828 -22 
Q 2503 -91 2169 -91 
Q 1331 -91 842 396 
Q 353 884 353 1716 
Q 353 2575 817 3079 
Q 1281 3584 2069 3584 
Q 2775 3584 3186 3129 
Q 3597 2675 3597 1894 
z
M 3022 2063 
Q 3016 2534 2758 2815 
Q 2500 3097 2075 3097 
Q 1594 3097 1305 2825 
Q 1016 2553 972 2059 
L 3022 2063 
z
" transform="scale(0.015625)"/>
       <path id="DejaVuSans-73" d="M 2834 3397 
L 2834 2853 
Q 2591 2978 2328 3040 
Q 2066 3103 1784 3103 
Q 1356 3103 1142 2972 
Q 928 2841 928 2578 
Q 928 2378 1081 2264 
Q 1234 2150 1697 2047 
L 1894 2003 
Q 2506 1872 2764 1633 
Q 3022 1394 3022 966 
Q 3022 478 2636 193 
Q 2250 -91 1575 -91 
Q 1294 -91 989 -36 
Q 684 19 347 128 
L 347 722 
Q 666 556 975 473 
Q 1284 391 1588 391 
Q 1994 391 2212 530 
Q 2431 669 2431 922 
Q 2431 1156 2273 1281 
Q 2116 1406 1581 1522 
L 1381 1569 
Q 847 1681 609 1914 
Q 372 2147 372 2553 
Q 372 3047 722 3315 
Q 1072 3584 1716 3584 
Q 2034 3584 2315 3537 
Q 2597 3491 2834 3397 
z
" transform="scale(0.015625)"/>
       <path id="DejaVuSans-5b" d="M 550 4863 
L 1875 4863 
L 1875 4416 
L 1125 4416 
L 1125 -397 
L 1875 -397 
L 1875 -844 
L 550 -844 
L 550 4863 
z
" transform="scale(0.015625)"/>
       <path id="DejaVuSans-25" d="M 4653 2053 
Q 4381 2053 4226 1822 
Q 4072 1591 4072 1178 
Q 4072 772 4226 539 
Q 4381 306 4653 306 
Q 4919 306 5073 539 
Q 5228 772 5228 1178 
Q 5228 1588 5073 1820 
Q 4919 2053 4653 2053 
z
M 4653 2450 
Q 5147 2450 5437 2106 
Q 5728 1763 5728 1178 
Q 5728 594 5436 251 
Q 5144 -91 4653 -91 
Q 4153 -91 3862 251 
Q 3572 594 3572 1178 
Q 3572 1766 3864 2108 
Q 4156 2450 4653 2450 
z
M 1428 4353 
Q 1159 4353 1004 4120 
Q 850 3888 850 3481 
Q 850 3069 1003 2837 
Q 1156 2606 1428 2606 
Q 1700 2606 1854 2837 
Q 2009 3069 2009 3481 
Q 2009 3884 1853 4118 
Q 1697 4353 1428 4353 
z
M 4250 4750 
L 4750 4750 
L 1831 -91 
L 1331 -91 
L 4250 4750 
z
M 1428 4750 
Q 1922 4750 2215 4408 
Q 2509 4066 2509 3481 
Q 2509 2891 2217 2550 
Q 1925 2209 1428 2209 
Q 931 2209 642 2551 
Q 353 2894 353 3481 
Q 353 4063 643 4406 
Q 934 4750 1428 4750 
z
" transform="scale(0.015625)"/>
       <path id="DejaVuSans-5d" d="M 1947 4863 
L 1947 -844 
L 622 -844 
L 622 -397 
L 1369 -397 
L 1369 4416 
L 622 4416 
L 622 4863 
L 1947 4863 
z
" transform="scale(0.015625)"/>
      </defs>
      <use xlink:href="#DejaVuSans-54"/>
      <use xlink:href="#DejaVuSans-72" x="46.333984"/>
      <use xlink:href="#DejaVuSans-61" x="87.447266"/>
      <use xlink:href="#DejaVuSans-63" x="148.726562"/>
      <use xlink:href="#DejaVuSans-6b" x="203.707031"/>
      <use xlink:href="#DejaVuSans-20" x="261.617188"/>
      <use xlink:href="#DejaVuSans-70" x="293.404297"/>
      <use xlink:href="#DejaVuSans-72" x="356.880859"/>
      <use xlink:href="#DejaVuSans-6f" x="395.744141"/>
      <use xlink:href="#DejaVuSans-67" x="456.925781"/>
      <use xlink:href="#DejaVuSans-72" x="520.402344"/>
      <use xlink:href="#DejaVuSans-65" x="559.265625"/>
      <use xlink:href="#DejaVuSans-73" x="620.789062"/>
      <use xlink:href="#DejaVuSans-73" x="672.888672"/>
      <use xlink:href="#DejaVuSans-20" x="724.988281"/>
      <use xlink:href="#DejaVuSans-5b" x="756.775391"/>
      <use xlink:href="#DejaVuSans-25" x="795.789062"/>
      <use xlink:href="#DejaVuSans-5d" x="890.808594"/>
     </g>
    </g>
   </g>
   <g id="matplotlib.axis_2">
    <g id="ytick_1">
     <g id="line2d_13">
      <path d="M 27.040625 88.990745 
L 409.970625 88.990745 
" clip-path="url(#p836aaca0f0)" style="fill: none; stroke: #b0b0b0; stroke-width: 0.8; stroke-linecap: square"/>
     </g>
     <g id="line2d_14">
      <defs>
       <path id="m0ef3fa3744" d="M 0 0 
L -3.5 0 
" style="stroke: #000000; stroke-width: 0.8"/>
      </defs>
      <g>
       <use xlink:href="#m0ef3fa3744" x="27.040625" y="88.990745" style="stroke: #000000; stroke-width: 0.8"/>
      </g>
     </g>
     <g id="text_8">
      <!-- 2 -->
      <g transform="translate(13.678125 92.789963)scale(0.1 -0.1)">
       <use xlink:href="#DejaVuSans-32"/>
      </g>
     </g>
    </g>
    <g id="ytick_2">
     <g id="line2d_15">
      <path d="M 27.040625 66.808131 
L 409.970625 66.808131 
" clip-path="url(#p836aaca0f0)" style="fill: none; stroke: #b0b0b0; stroke-width: 0.8; stroke-linecap: square"/>
     </g>
     <g id="line2d_16">
      <g>
       <use xlink:href="#m0ef3fa3744" x="27.040625" y="66.808131" style="stroke: #000000; stroke-width: 0.8"/>
      </g>
     </g>
     <g id="text_9">
      <!-- 4 -->
      <g transform="translate(13.678125 70.60735)scale(0.1 -0.1)">
       <use xlink:href="#DejaVuSans-34"/>
      </g>
     </g>
    </g>
    <g id="ytick_3">
     <g id="line2d_17">
      <path d="M 27.040625 44.625518 
L 409.970625 44.625518 
" clip-path="url(#p836aaca0f0)" style="fill: none; stroke: #b0b0b0; stroke-width: 0.8; stroke-linecap: square"/>
     </g>
     <g id="line2d_18">
      <g>
       <use xlink:href="#m0ef3fa3744" x="27.040625" y="44.625518" style="stroke: #000000; stroke-width: 0.8"/>
      </g>
     </g>
     <g id="text_10">
      <!-- 6 -->
      <g transform="translate(13.678125 48.424737)scale(0.1 -0.1)">
       <use xlink:href="#DejaVuSans-36"/>
      </g>
     </g>
    </g>
    <g id="ytick_4">
     <g id="line2d_19">
      <path d="M 27.040625 22.442905 
L 409.970625 22.442905 
" clip-path="url(#p836aaca0f0)" style="fill: none; stroke: #b0b0b0; stroke-width: 0.8; stroke-linecap: square"/>
     </g>
     <g id="line2d_20">
      <g>
       <use xlink:href="#m0ef3fa3744" x="27.040625" y="22.442905" style="stroke: #000000; stroke-width: 0.8"/>
      </g>
     </g>
     <g id="text_11">
      <!-- 8 -->
      <g transform="translate(13.678125 26.242123)scale(0.1 -0.1)">
       <use xlink:href="#DejaVuSans-38"/>
      </g>
     </g>
    </g>
    <g id="text_12">
     <!-- Speed [m/s] -->
     <g transform="translate(7.598438 88.815433)rotate(-90)scale(0.1 -0.1)">
      <defs>
       <path id="DejaVuSans-53" d="M 3425 4513 
L 3425 3897 
Q 3066 4069 2747 4153 
Q 2428 4238 2131 4238 
Q 1616 4238 1336 4038 
Q 1056 3838 1056 3469 
Q 1056 3159 1242 3001 
Q 1428 2844 1947 2747 
L 2328 2669 
Q 3034 2534 3370 2195 
Q 3706 1856 3706 1288 
Q 3706 609 3251 259 
Q 2797 -91 1919 -91 
Q 1588 -91 1214 -16 
Q 841 59 441 206 
L 441 856 
Q 825 641 1194 531 
Q 1563 422 1919 422 
Q 2459 422 2753 634 
Q 3047 847 3047 1241 
Q 3047 1584 2836 1778 
Q 2625 1972 2144 2069 
L 1759 2144 
Q 1053 2284 737 2584 
Q 422 2884 422 3419 
Q 422 4038 858 4394 
Q 1294 4750 2059 4750 
Q 2388 4750 2728 4690 
Q 3069 4631 3425 4513 
z
" transform="scale(0.015625)"/>
       <path id="DejaVuSans-64" d="M 2906 2969 
L 2906 4863 
L 3481 4863 
L 3481 0 
L 2906 0 
L 2906 525 
Q 2725 213 2448 61 
Q 2172 -91 1784 -91 
Q 1150 -91 751 415 
Q 353 922 353 1747 
Q 353 2572 751 3078 
Q 1150 3584 1784 3584 
Q 2172 3584 2448 3432 
Q 2725 3281 2906 2969 
z
M 947 1747 
Q 947 1113 1208 752 
Q 1469 391 1925 391 
Q 2381 391 2643 752 
Q 2906 1113 2906 1747 
Q 2906 2381 2643 2742 
Q 2381 3103 1925 3103 
Q 1469 3103 1208 2742 
Q 947 2381 947 1747 
z
" transform="scale(0.015625)"/>
       <path id="DejaVuSans-6d" d="M 3328 2828 
Q 3544 3216 3844 3400 
Q 4144 3584 4550 3584 
Q 5097 3584 5394 3201 
Q 5691 2819 5691 2113 
L 5691 0 
L 5113 0 
L 5113 2094 
Q 5113 2597 4934 2840 
Q 4756 3084 4391 3084 
Q 3944 3084 3684 2787 
Q 3425 2491 3425 1978 
L 3425 0 
L 2847 0 
L 2847 2094 
Q 2847 2600 2669 2842 
Q 2491 3084 2119 3084 
Q 1678 3084 1418 2786 
Q 1159 2488 1159 1978 
L 1159 0 
L 581 0 
L 581 3500 
L 1159 3500 
L 1159 2956 
Q 1356 3278 1631 3431 
Q 1906 3584 2284 3584 
Q 2666 3584 2933 3390 
Q 3200 3197 3328 2828 
z
" transform="scale(0.015625)"/>
       <path id="DejaVuSans-2f" d="M 1625 4666 
L 2156 4666 
L 531 -594 
L 0 -594 
L 1625 4666 
z
" transform="scale(0.015625)"/>
      </defs>
      <use xlink:href="#DejaVuSans-53"/>
      <use xlink:href="#DejaVuSans-70" x="63.476562"/>
      <use xlink:href="#DejaVuSans-65" x="126.953125"/>
      <use xlink:href="#DejaVuSans-65" x="188.476562"/>
      <use xlink:href="#DejaVuSans-64" x="250"/>
      <use xlink:href="#DejaVuSans-20" x="313.476562"/>
      <use xlink:href="#DejaVuSans-5b" x="345.263672"/>
      <use xlink:href="#DejaVuSans-6d" x="384.277344"/>
      <use xlink:href="#DejaVuSans-2f" x="481.689453"/>
      <use xlink:href="#DejaVuSans-73" x="515.380859"/>
      <use xlink:href="#DejaVuSans-5d" x="567.480469"/>
     </g>
    </g>
   </g>
   <g id="line2d_21">
    <path d="M 44.446534 111.173358 
L 44.780779 107.587095 
L 44.780779 99.148829 
L 45.076375 94.929696 
L 45.076375 86.49143 
L 45.371972 82.272296 
L 45.371972 78.053163 
L 45.963165 69.614897 
L 45.963165 65.395764 
L 46.554357 56.957498 
L 46.849954 54.512598 
L 47.14555 53.502684 
L 47.751523 52.694987 
L 48.638312 51.917377 
L 49.525101 50.043426 
L 50.131074 47.519529 
L 50.781386 47.014811 
L 51.091762 46.537208 
L 52.008111 41.024926 
L 52.303707 39.629174 
L 52.8949 38.815172 
L 53.781689 39.197171 
L 54.372882 40.321104 
L 54.668478 41.6102 
L 54.964075 43.670364 
L 55.259671 47.217382 
L 55.865644 47.13349 
L 56.16124 47.288087 
L 57.048029 49.06935 
L 57.639222 48.696905 
L 58.821608 48.301794 
L 60.29959 47.872628 
L 60.890782 47.409819 
L 61.777572 46.058606 
L 62.383544 44.978723 
L 62.974737 44.402811 
L 63.56593 43.028848 
L 64.157123 42.360555 
L 64.748315 41.045373 
L 65.339508 40.305254 
L 65.930701 38.927936 
L 66.521894 38.292031 
L 67.113087 36.986527 
L 67.704279 36.396039 
L 68.014656 35.7613 
L 68.605848 35.159538 
L 69.197041 33.913959 
L 69.788234 33.259796 
L 70.08383 32.610801 
L 70.675023 31.851564 
L 71.266216 30.280612 
L 71.857409 29.477691 
L 72.153005 28.697859 
L 72.744198 27.80382 
L 73.039794 26.93659 
L 73.630987 26.140943 
L 73.926583 25.486172 
L 74.532556 24.947334 
L 74.828152 24.503903 
L 76.306134 23.591544 
L 78.670906 22.876443 
L 81.937246 22.553722 
L 88.15955 22.451703 
L 110.683995 22.442905 
L 142.357149 22.442905 
L 142.948341 22.915367 
L 143.243938 25.089281 
L 143.83513 26.976667 
L 144.426323 31.359926 
L 145.017516 33.650824 
L 145.313112 35.330788 
L 145.919085 37.339365 
L 146.510278 40.008679 
L 147.101471 41.549785 
L 147.692663 43.470223 
L 148.579453 45.250762 
L 148.875049 45.588905 
L 150.353031 45.971988 
L 152.141389 45.889358 
L 152.732582 45.65536 
L 153.323775 45.169514 
L 153.914968 44.615571 
L 154.50616 43.130161 
L 154.801757 42.162494 
L 155.392949 41.020012 
L 155.984142 37.660785 
L 156.575335 38.600853 
L 156.870931 42.661464 
L 157.462124 46.375395 
L 157.757721 46.170276 
L 158.068097 44.787567 
L 158.65929 43.615485 
L 158.954886 43.789236 
L 159.546079 42.644775 
L 160.137272 42.178893 
L 160.432868 41.635369 
L 160.728464 40.797432 
L 161.024061 39.51811 
L 161.615254 38.332005 
L 162.206446 36.250252 
L 162.797639 35.100601 
L 163.388832 32.801218 
L 163.980025 31.365235 
L 164.290401 29.919795 
L 164.881594 28.595945 
L 165.17719 27.506494 
L 165.768383 26.694111 
L 166.063979 26.756818 
L 166.655172 27.789218 
L 166.950768 30.008595 
L 167.541961 31.72385 
L 167.837558 33.754527 
L 168.42875 35.177661 
L 168.724347 36.735889 
L 169.31554 37.811773 
L 169.611136 38.639137 
L 170.808301 40.654617 
L 171.399494 40.974917 
L 171.990687 41.436739 
L 172.286283 41.530746 
L 174.059862 41.588554 
L 176.439413 41.316335 
L 179.09978 40.84817 
L 181.464551 39.828609 
L 181.760148 39.588875 
L 182.36612 39.346089 
L 182.957313 38.842936 
L 183.548506 38.517717 
L 184.139699 37.846091 
L 184.730892 37.492893 
L 185.322084 36.569118 
L 185.913277 36.085155 
L 186.208874 35.469605 
L 186.800066 34.842337 
L 187.095663 34.196359 
L 187.686855 33.385576 
L 188.292828 31.602636 
L 188.884021 30.649428 
L 189.179617 29.707886 
L 189.77081 28.618762 
L 190.066406 27.566705 
L 191.544388 25.298512 
L 192.135581 24.792901 
L 192.431178 24.376813 
L 193.90916 23.520714 
L 196.288711 22.849709 
L 199.540271 22.546889 
L 206.058171 22.449699 
L 207.550933 22.446691 
L 208.142126 23.053701 
L 208.437722 25.197232 
L 209.028915 27.938717 
L 209.324511 29.986793 
L 209.915704 32.498809 
L 210.506897 35.922052 
L 211.09809 38.047157 
L 211.689283 41.078714 
L 212.295255 43.068964 
L 213.182044 47.061869 
L 213.477641 48.150711 
L 214.068834 50.884655 
L 214.660026 52.754123 
L 215.251219 53.566124 
L 216.138008 55.650744 
L 216.729201 56.703871 
L 217.320394 57.130637 
L 217.911587 57.759632 
L 218.50278 58.094742 
L 219.404349 58.209286 
L 221.177927 58.140511 
L 222.655909 57.803352 
L 223.247102 57.500713 
L 223.838294 57.006379 
L 224.725084 55.892634 
L 225.626653 54.362723 
L 226.809038 51.902531 
L 227.400231 51.246097 
L 228.582617 48.550422 
L 229.173809 47.720111 
L 230.356195 44.512462 
L 230.947388 43.725273 
L 231.848957 41.045165 
L 232.440149 40.119219 
L 233.031342 38.076805 
L 233.622535 36.975613 
L 234.213728 34.605004 
L 234.804921 33.367709 
L 235.396113 30.774413 
L 235.987306 29.421114 
L 236.282903 28.18556 
L 236.874095 27.168771 
L 237.169692 26.332014 
L 238.071261 25.420568 
L 238.662454 26.04659 
L 238.95805 28.706647 
L 239.549243 30.990417 
L 239.844839 34.104921 
L 240.436032 36.448793 
L 241.027225 41.550281 
L 241.618417 43.383504 
L 241.914014 45.046587 
L 242.505207 49.290546 
L 243.406776 53.681373 
L 244.589161 58.329595 
L 245.180354 60.063265 
L 245.180354 60.761633 
L 245.771547 61.844351 
L 246.067143 62.240803 
L 247.249529 62.810017 
L 247.855501 63.025143 
L 249.037887 63.095749 
L 250.811465 63.005 
L 251.402658 62.791806 
L 251.402658 62.68602 
L 251.993851 62.289945 
L 252.599824 61.592882 
L 252.89542 61.120701 
L 252.89542 60.564353 
L 253.486613 59.547758 
L 254.077805 58.146157 
L 254.964595 55.406943 
L 256.14698 50.854796 
L 257.033769 46.965807 
L 257.624962 45.330552 
L 258.822128 38.943324 
L 259.41332 37.106597 
L 260.004513 33.609514 
L 260.595706 31.688323 
L 260.891302 30.051339 
L 261.482495 28.704198 
L 261.778092 27.59558 
L 262.369284 26.683253 
L 262.664881 25.932462 
L 263.256074 25.314604 
L 263.55167 24.806144 
L 264.157643 24.387712 
L 264.453239 24.043366 
L 265.931221 23.334877 
L 268.295992 22.779567 
L 269.773974 22.630534 
L 270.08435 23.001033 
L 270.675543 24.788756 
L 270.971139 26.318702 
L 271.562332 28.398064 
L 271.857929 30.011986 
L 272.449121 32.13766 
L 272.744718 33.677341 
L 273.335911 35.502682 
L 274.2227 39.789808 
L 274.813893 40.752787 
L 275.996278 44.129319 
L 276.602251 44.653433 
L 277.48904 45.987496 
L 278.080233 46.259707 
L 279.558215 46.450305 
L 281.627389 46.397258 
L 282.233362 46.210518 
L 283.711344 45.035828 
L 284.302537 44.008934 
L 284.598133 43.357038 
L 284.89373 42.376291 
L 285.484922 41.319252 
L 285.780519 40.181625 
L 286.371711 38.960974 
L 286.667308 37.332802 
L 287.258501 35.651798 
L 287.554097 33.91268 
L 288.16007 31.881854 
L 288.751262 28.835263 
L 289.342455 27.703439 
L 289.638052 26.772015 
L 290.229244 26.005507 
L 290.524841 26.805683 
L 291.116034 26.033214 
L 291.41163 25.397518 
L 292.002823 24.874377 
L 292.298419 24.443863 
L 293.776401 23.558083 
L 296.451549 22.789288 
L 299.407512 22.550494 
L 299.703109 23.150414 
L 300.309081 23.815563 
L 300.604678 24.838547 
L 301.195871 25.933408 
L 301.787063 26.707939 
L 302.378256 28.198997 
L 304.151835 30.255446 
L 304.743027 30.571834 
L 305.038624 30.881834 
L 305.940193 31.157407 
L 308.009368 31.207885 
L 309.487349 31.063913 
L 310.374139 30.816638 
L 310.965331 30.635802 
L 312.75369 29.357187 
L 313.344882 28.326792 
L 313.936075 27.74864 
L 314.231672 27.04354 
L 314.822864 26.341113 
L 315.118461 25.6509 
L 315.709654 25.082896 
L 316.00525 24.615462 
L 317.483232 23.653719 
L 319.862783 22.89991 
L 323.114343 22.559721 
L 329.336647 22.452179 
L 341.485659 22.442963 
L 342.091632 23.082815 
L 342.387228 25.60989 
L 342.978421 28.978454 
L 343.274017 31.65306 
L 343.86521 35.103547 
L 344.456403 40.131228 
L 345.047596 43.342023 
L 345.934385 49.857263 
L 346.821174 55.9432 
L 347.412367 59.399791 
L 348.018339 61.019268 
L 348.609532 62.901161 
L 348.609532 63.682716 
L 349.200725 64.830904 
L 349.496321 65.209374 
L 349.791918 65.372132 
L 349.791918 65.550351 
L 351.314239 65.872891 
L 353.146937 65.879409 
L 353.146937 65.851186 
L 354.033726 65.700713 
L 354.033726 65.57574 
L 354.624919 65.310377 
L 355.230891 64.76463 
L 355.230891 64.366462 
L 356.413277 62.392209 
L 357.300066 60.15323 
L 357.300066 59.285212 
L 358.186855 56.940474 
L 359.664837 52.143119 
L 360.551626 48.642695 
L 360.847223 47.293088 
L 362.044388 44.541251 
L 362.931177 40.295732 
L 363.817967 39.321931 
L 364.113563 40.118522 
L 364.409159 42.929898 
L 365.000352 45.254864 
L 366.197518 52.998941 
L 366.78871 54.550228 
L 367.379903 56.7878 
L 367.971096 58.440329 
L 368.562289 59.234802 
L 369.449078 60.461692 
L 371.222656 61.230909 
L 372.419822 61.280044 
L 373.602207 61.098094 
L 374.784593 60.592988 
L 375.966978 59.478962 
L 376.853768 58.274238 
L 377.740557 56.692373 
L 378.937722 54.002485 
L 380.120108 50.662783 
L 382.484879 43.088037 
L 383.076072 40.485082 
L 383.667264 39.185793 
L 383.962861 38.127299 
L 384.258457 37.486611 
L 384.86443 37.191796 
L 385.160026 37.887695 
L 386.638008 43.410339 
L 387.524797 47.026827 
L 388.11599 47.960319 
L 388.707183 49.148099 
L 389.298376 49.778429 
L 389.889569 50.053318 
L 391.086734 50.120911 
L 392.26912 50.074865 
L 392.564716 49.983691 
L 392.564716 49.983691 
" clip-path="url(#p836aaca0f0)" style="fill: none; stroke: #ff3f34; stroke-opacity: 0.99; stroke-width: 2.4; stroke-linecap: square"/>
   </g>
   <g id="line2d_22">
    <path d="M 44.446534 111.173358 
L 44.780779 107.481616 
L 44.780779 99.04335 
L 45.076375 94.824217 
L 45.076375 86.385951 
L 45.371972 82.166818 
L 45.371972 77.947685 
L 45.963165 70.773907 
L 45.963165 68.107916 
L 46.554357 64.108469 
L 47.14555 61.399915 
L 47.455926 60.393673 
L 47.455926 59.565595 
L 48.047119 58.323335 
L 48.638312 57.482037 
L 48.933908 57.169491 
L 51.402138 56.168034 
L 52.008111 56.022398 
L 52.008111 60.241531 
L 52.303707 64.460664 
L 52.599304 62.912489 
L 53.190496 61.638433 
L 54.372882 70.076699 
L 54.668478 74.127074 
L 54.668478 76.277162 
L 54.964075 72.636771 
L 54.964075 69.640944 
L 55.555268 65.146684 
L 56.16124 62.103027 
L 56.752433 60.041766 
L 56.752433 59.275996 
L 57.343626 58.12721 
L 57.934818 57.349215 
L 58.821608 56.626592 
L 59.708397 56.223858 
L 60.29959 56.060204 
L 64.157123 55.757081 
L 70.379427 55.718031 
L 149.761838 55.716825 
L 150.353031 64.155091 
L 150.944224 68.374224 
L 151.535417 64.288821 
L 152.141389 62.771072 
L 152.732582 60.494187 
L 153.323775 58.952208 
L 153.914968 57.90793 
L 154.50616 57.200711 
L 154.50616 56.937976 
L 155.392949 56.397399 
L 156.575335 56.028965 
L 158.068097 55.859986 
L 160.432868 55.753418 
L 166.950768 55.717328 
L 215.251219 55.716825 
L 215.546816 59.935958 
L 216.138008 64.155091 
L 216.729201 61.431489 
L 217.320394 59.586978 
L 217.61599 58.901733 
L 218.207183 58.337817 
L 218.813156 66.776083 
L 218.813156 64.817942 
L 219.404349 63.206508 
L 219.995541 60.789078 
L 220.291138 59.890991 
L 220.88233 59.151917 
L 221.473523 58.043179 
L 222.064716 57.292307 
L 222.951505 56.594875 
L 226.217845 55.84191 
L 232.440149 55.719909 
L 245.47595 55.716825 
L 246.067143 59.935958 
L 246.36274 64.155091 
L 246.953932 68.374224 
L 247.249529 72.593357 
L 247.855501 67.146153 
L 248.446694 74.989633 
L 248.742291 76.648099 
L 249.037887 77.361309 
L 249.333483 77.66802 
L 250.811465 77.896034 
L 251.402658 70.737296 
L 251.993851 65.889169 
L 252.599824 62.605862 
L 252.89542 61.386096 
L 252.89542 60.382301 
L 253.486613 58.876435 
L 254.077805 57.856614 
L 254.668998 57.165958 
L 255.555787 56.524459 
L 256.442577 56.166937 
L 257.624962 55.923266 
L 259.708917 55.769593 
L 264.748835 55.718746 
L 278.080233 55.716825 
L 278.375829 59.935958 
L 278.967022 64.155091 
L 279.262618 68.374224 
L 279.558215 66.133119 
L 280.149407 64.288821 
L 280.445004 62.771073 
L 280.7406 66.990206 
L 281.331793 63.351519 
L 281.937766 61.999729 
L 282.528958 59.971808 
L 283.120151 58.598436 
L 283.711344 57.668344 
L 284.302537 57.038456 
L 285.484922 56.215656 
L 286.371711 55.994835 
L 290.820437 55.734989 
L 302.673853 55.716832 
L 348.905129 55.716825 
L 349.200725 59.935958 
L 351.639395 76.918151 
L 352.555744 77.717962 
L 352.85134 77.821396 
L 353.442533 70.686748 
L 354.033726 65.854936 
L 354.033726 64.059893 
L 354.624919 61.367018 
L 355.230891 59.543316 
L 355.822084 58.308247 
L 356.413277 57.471819 
L 357.300066 56.694922 
L 358.186855 56.26194 
L 359.664837 55.886142 
L 361.748792 55.780731 
L 368.562289 55.717892 
L 369.153482 64.156158 
L 369.449078 62.661899 
L 370.040271 61.432211 
L 370.631464 59.587468 
L 371.222656 58.338148 
L 371.813849 57.492069 
L 372.419822 57.177746 
L 372.715418 61.396879 
L 373.306611 59.563539 
L 373.897804 58.321943 
L 374.1934 57.860684 
L 375.080189 57.168715 
L 375.671382 65.606981 
L 376.262575 62.414755 
L 376.558171 61.228827 
L 377.149364 60.252878 
L 377.740557 58.788785 
L 378.33175 57.797255 
L 379.233319 56.876294 
L 380.120108 56.363023 
L 381.302493 56.013199 
L 383.076072 55.808881 
L 386.342412 55.727617 
L 389.298376 55.718362 
L 389.889569 64.156628 
L 390.480761 68.375761 
L 390.791138 72.594894 
L 391.38233 69.606482 
L 391.973523 65.123345 
L 392.564716 62.087222 
L 392.564716 62.087222 
" clip-path="url(#p836aaca0f0)" style="fill: none; stroke: #05c46b; stroke-opacity: 0.99; stroke-width: 2.4; stroke-linecap: square"/>
   </g>
   <g id="line2d_23">
    <path d="M 44.446534 111.173358 
L 44.780779 107.578358 
L 44.780779 99.140092 
L 45.076375 96.408103 
L 45.076375 89.879491 
L 45.667568 81.977368 
L 45.667568 84.20484 
L 45.963165 85.513403 
L 45.963165 85.165012 
L 46.258761 89.384145 
L 46.258761 88.707846 
L 46.554357 87.332336 
L 46.554357 85.966665 
L 46.554357 90.185798 
L 46.849954 90.187924 
L 46.849954 88.235482 
L 47.14555 86.517269 
L 47.14555 85.440888 
L 47.455926 84.336105 
L 47.455926 82.899109 
L 47.751523 79.402346 
L 47.751523 83.492886 
L 48.047119 88.416589 
L 48.047119 87.40195 
L 48.342716 90.05784 
L 48.342716 87.838569 
L 48.638312 85.616022 
L 48.638312 92.631594 
L 48.933908 89.240014 
L 48.933908 86.612361 
L 49.229505 83.67536 
L 49.229505 87.785592 
L 49.229505 86.967831 
L 49.525101 85.126841 
L 49.525101 86.022602 
L 49.820697 82.316911 
L 49.820697 86.515218 
L 50.131074 82.164395 
L 50.45623 81.544994 
L 50.45623 80.351897 
L 50.781386 78.227388 
L 51.091762 79.920164 
L 51.091762 79.747764 
L 51.402138 79.232935 
L 51.402138 76.864824 
L 51.712514 77.079226 
L 51.712514 81.29836 
L 52.008111 78.678188 
L 52.008111 77.195571 
L 52.303707 74.71874 
L 52.8949 73.057288 
L 53.190496 73.63268 
L 53.486093 75.36952 
L 53.781689 74.240997 
L 54.077286 75.136119 
L 54.372882 73.708024 
L 54.372882 74.677122 
L 54.668478 74.558548 
L 54.668478 78.329386 
L 55.259671 76.71557 
L 55.259671 74.352981 
L 55.555268 74.865392 
L 55.865644 70.807206 
L 55.865644 72.628684 
L 56.16124 74.721063 
L 56.456837 72.465058 
L 56.456837 70.826624 
L 56.752433 67.702639 
L 57.048029 66.493698 
L 57.343626 68.71761 
L 57.343626 68.449247 
L 57.639222 72.66838 
L 57.934818 72.262682 
L 57.934818 74.067927 
L 58.230415 71.454393 
L 58.526011 74.211124 
L 58.821608 72.240203 
L 59.117204 74.944749 
L 59.4128 73.342784 
L 59.4128 75.806666 
L 59.708397 76.37135 
L 59.708397 80.590483 
L 60.29959 81.506663 
L 60.29959 78.106238 
L 60.595186 82.259524 
L 60.595186 82.092132 
L 60.890782 79.425448 
L 60.890782 76.8705 
L 61.186379 76.838001 
L 61.481975 74.835008 
L 62.087948 72.546663 
L 62.087948 73.206624 
L 62.383544 77.425757 
L 62.679141 75.321251 
L 62.679141 74.104872 
L 62.974737 72.506227 
L 63.270333 74.4818 
L 63.270333 72.618209 
L 63.56593 72.308644 
L 63.861526 72.259394 
L 63.861526 76.478527 
L 64.157123 76.134557 
L 64.452719 75.986856 
L 64.452719 73.112733 
L 64.748315 71.666436 
L 65.043912 72.133097 
L 65.043912 74.077288 
L 65.930701 68.025427 
L 66.521894 70.136387 
L 66.81749 67.825791 
L 67.113087 67.491228 
L 67.113087 65.264411 
L 67.408683 66.117689 
L 67.704279 65.320735 
L 68.014656 65.315343 
L 68.310252 69.534476 
L 68.310252 69.047135 
L 68.605848 69.545714 
L 68.901445 69.015886 
L 69.197041 69.238021 
L 69.197041 68.991759 
L 69.492637 68.846416 
L 69.788234 68.217923 
L 70.08383 71.447956 
L 70.379427 69.402191 
L 70.379427 71.701048 
L 70.675023 75.920181 
L 70.970619 73.822861 
L 70.970619 76.028999 
L 71.266216 75.228139 
L 71.561812 79.447272 
L 71.561812 78.274789 
L 71.857409 77.376405 
L 71.857409 73.442747 
L 71.857409 73.442747 
" clip-path="url(#p836aaca0f0)" style="fill: none; stroke: #ffa801; stroke-opacity: 0.99; stroke-width: 2.4; stroke-linecap: square"/>
   </g>
   <g id="line2d_24">
    <path d="M 44.446534 111.173358 
L 44.780779 107.446114 
L 44.780779 99.007848 
L 45.076375 94.788715 
L 45.076375 86.350449 
L 45.371972 82.131316 
L 45.371972 77.912183 
L 46.258761 67.295766 
L 46.554357 65.717662 
L 46.849954 64.917899 
L 47.14555 64.697518 
L 47.14555 64.220349 
L 47.455926 65.047526 
L 48.638312 61.59836 
L 48.933908 61.660145 
L 48.933908 60.992748 
L 49.525101 60.379847 
L 49.820697 60.251538 
L 50.131074 59.6975 
L 50.781386 59.178532 
L 51.091762 58.710327 
L 51.712514 57.199991 
L 51.712514 57.861945 
L 52.008111 57.804106 
L 52.303707 59.752233 
L 53.190496 61.710762 
L 54.077286 61.093058 
L 54.372882 60.712234 
L 54.372882 60.724986 
L 54.964075 59.218018 
L 55.259671 58.949972 
L 55.555268 57.511931 
L 55.555268 56.35524 
L 55.865644 55.519532 
L 56.16124 55.278404 
L 56.456837 54.634154 
L 57.048029 54.490674 
L 57.934818 52.929272 
L 58.526011 52.412462 
L 58.821608 52.692264 
L 59.4128 52.425783 
L 59.708397 52.335367 
L 60.003993 52.507396 
L 60.29959 51.962477 
L 60.29959 54.069472 
L 61.186379 53.191743 
L 61.777572 52.777691 
L 62.087948 52.523367 
L 62.679141 52.281554 
L 62.974737 52.981219 
L 63.56593 52.547576 
L 63.861526 52.422296 
L 64.157123 52.128588 
L 64.748315 51.904293 
L 65.043912 51.600026 
L 65.339508 52.403511 
L 65.930701 51.468653 
L 66.226297 51.201178 
L 66.521894 50.727439 
L 66.81749 50.636373 
L 66.81749 51.751778 
L 67.408683 51.004147 
L 67.704279 51.859125 
L 68.014656 54.493602 
L 68.605848 56.025628 
L 69.197041 55.444997 
L 69.492637 55.523373 
L 69.788234 54.905091 
L 69.788234 54.571261 
L 70.08383 53.697142 
L 70.379427 53.640793 
L 70.675023 53.095893 
L 70.970619 52.023232 
L 71.857409 50.792015 
L 72.153005 50.548863 
L 72.448601 52.408695 
L 72.744198 52.273535 
L 73.039794 51.924855 
L 73.335391 51.917428 
L 73.630987 51.354819 
L 73.926583 51.177943 
L 74.23696 51.65024 
L 74.532556 51.628905 
L 74.828152 51.404115 
L 75.123749 50.848487 
L 75.419345 50.677369 
L 76.601731 49.395217 
L 77.192924 49.351026 
L 77.784116 50.225829 
L 78.079713 50.501866 
L 78.966502 50.183225 
L 79.262098 50.475031 
L 79.557695 50.223035 
L 79.853291 50.191398 
L 80.163667 50.648359 
L 80.459264 49.811278 
L 80.75486 49.805572 
L 81.641649 49.176215 
L 82.232842 49.099372 
L 82.528438 50.321141 
L 82.824035 49.854587 
L 83.119631 49.65484 
L 83.415228 50.411899 
L 83.710824 50.1155 
L 84.00642 49.294356 
L 84.302017 50.907458 
L 84.89321 50.811933 
L 85.188806 50.673488 
L 85.779999 50.542173 
L 86.075595 51.326044 
L 86.385971 50.920121 
L 87.272761 49.177489 
L 87.568357 49.169664 
L 88.15955 50.388195 
L 88.455146 51.581214 
L 89.341935 51.62574 
L 89.637532 51.272016 
L 89.933128 52.01045 
L 90.524321 51.346464 
L 90.819917 52.27351 
L 91.41111 51.52843 
L 91.706706 50.726428 
L 92.002303 50.334201 
L 92.312679 49.478388 
L 92.608275 49.053811 
L 93.199468 48.952979 
L 93.790661 51.274362 
L 94.086257 53.395501 
L 94.381854 53.036587 
L 94.67745 52.908126 
L 94.973047 52.657626 
L 95.268643 52.637197 
L 95.564239 51.808207 
L 95.859836 51.482385 
L 96.746625 49.809178 
L 97.337818 48.981039 
L 97.633414 48.917204 
L 98.239387 48.575575 
L 98.534983 48.212046 
L 98.83058 48.491658 
L 99.126176 48.421086 
L 99.421772 48.748616 
L 100.012965 49.105613 
L 100.308562 51.04008 
L 100.899754 50.398355 
L 101.195351 50.071388 
L 101.490947 49.963215 
L 101.786543 49.417457 
L 102.08214 51.772194 
L 102.377736 51.553534 
L 102.673333 52.452553 
L 102.968929 52.110243 
L 103.264525 52.978478 
L 103.855718 52.424595 
L 104.166094 51.929325 
L 104.461691 52.009025 
L 105.34848 50.324471 
L 105.939673 52.558785 
L 106.235269 52.387181 
L 106.530866 53.415211 
L 107.122058 52.36498 
L 107.417655 50.816656 
L 108.008848 49.146708 
L 108.895637 49.063832 
L 109.191233 49.952291 
L 109.48683 49.934667 
L 110.092802 53.412581 
L 111.275188 51.070752 
L 111.570784 50.178671 
L 111.866381 49.836525 
L 112.457573 49.694094 
L 112.75317 49.475928 
L 113.048766 50.412551 
L 113.344362 50.404473 
L 113.639959 50.11276 
L 113.935555 51.157866 
L 114.231152 51.084822 
L 114.526748 50.727458 
L 114.822344 51.672848 
L 115.398757 51.109789 
L 115.398757 50.698266 
L 115.871712 51.229176 
L 116.285547 50.772061 
L 116.86196 50.320062 
L 116.876739 50.766307 
L 117.172336 50.973287 
L 117.467932 50.968828 
L 117.763529 50.827228 
L 118.650318 49.984081 
L 118.945914 49.445085 
L 119.241511 49.248065 
L 119.537107 48.478028 
L 119.832703 48.187379 
L 120.1283 49.35683 
L 120.423896 49.305278 
L 120.719493 50.294734 
L 121.015089 52.564952 
L 121.621062 51.958464 
L 122.507851 51.05384 
L 122.803447 50.977389 
L 123.39464 50.360594 
L 123.690236 50.914088 
L 123.985833 50.822741 
L 124.577025 51.46286 
L 124.872622 51.411197 
L 125.168218 51.178847 
L 125.759411 50.278959 
L 126.350604 50.263871 
L 126.6462 50.680626 
L 126.941797 52.061734 
L 127.237393 52.058602 
L 127.547769 52.663652 
L 128.434558 50.374136 
L 129.025751 49.741752 
L 129.321348 50.735251 
L 129.616944 50.378945 
L 130.208137 49.98426 
L 130.503733 49.966802 
L 130.79933 49.7732 
L 131.094926 50.942123 
L 131.981715 50.380902 
L 132.277311 49.691072 
L 132.572908 50.143077 
L 133.474477 49.603692 
L 133.770073 49.962486 
L 134.06567 49.824261 
L 134.361266 52.461151 
L 134.656862 52.097596 
L 135.248055 51.835898 
L 135.543652 51.600733 
L 135.839248 51.215779 
L 136.134844 51.050379 
L 136.430441 53.223257 
L 136.726037 53.013737 
L 137.31723 51.883224 
L 137.908423 51.722765 
L 138.204019 50.693812 
L 138.795212 50.137886 
L 139.090808 52.764731 
L 139.401185 52.844776 
L 139.696781 52.783379 
L 140.58357 51.478426 
L 140.879167 50.892807 
L 141.174763 49.952569 
L 141.470359 50.644518 
L 142.061552 50.520914 
L 142.357149 49.803763 
L 142.948341 49.174612 
L 143.539534 49.51213 
L 143.83513 49.010744 
L 144.130727 49.320773 
L 144.72192 49.273014 
L 145.313112 49.623584 
L 145.623489 51.607622 
L 145.919085 52.015534 
L 146.214681 51.896702 
L 146.510278 54.515109 
L 146.805874 54.486882 
L 147.101471 54.830499 
L 147.397067 55.937888 
L 147.692663 55.644894 
L 147.98826 55.577757 
L 148.283856 56.51824 
L 148.579453 56.698149 
L 149.170645 59.287121 
L 149.466242 59.194393 
L 149.761838 59.819253 
L 150.057435 59.366954 
L 150.353031 59.25715 
L 150.648627 61.163244 
L 151.23982 60.479827 
L 151.23982 61.567328 
L 151.831013 60.140073 
L 152.141389 60.993471 
L 152.141389 60.740743 
L 152.436986 60.487178 
L 152.732582 61.083818 
L 153.028178 60.919107 
L 153.323775 62.408377 
L 153.323775 63.350109 
L 153.914968 62.58096 
L 154.50616 60.921139 
L 154.801757 60.900443 
L 155.097353 62.500772 
L 155.392949 63.250847 
L 155.392949 63.798196 
L 155.688546 63.064841 
L 156.279739 62.626412 
L 158.068097 58.986837 
L 158.65929 58.416272 
L 158.954886 57.478063 
L 159.250482 55.849769 
L 159.546079 54.952653 
L 160.432868 53.700922 
L 160.728464 54.691159 
L 161.024061 53.914719 
L 161.319657 54.132419 
L 161.615254 53.637212 
L 161.91085 52.621273 
L 162.206446 52.33229 
L 162.502043 51.761735 
L 162.797639 52.140331 
L 163.388832 53.346231 
L 163.980025 55.875707 
L 164.290401 54.432722 
L 164.881594 53.624774 
L 165.17719 53.556032 
L 165.472786 53.150657 
L 165.768383 55.329923 
L 166.063979 55.253645 
L 166.359576 55.595827 
L 166.655172 57.54106 
L 166.950768 56.813974 
L 167.541961 56.177758 
L 167.837558 56.291244 
L 168.133154 58.162238 
L 168.133154 57.746371 
L 168.724347 57.432223 
L 169.019943 59.038116 
L 169.906732 58.147537 
L 170.217109 58.90499 
L 170.808301 57.837719 
L 170.808301 57.380322 
L 171.103898 56.90476 
L 171.399494 56.821862 
L 171.695091 55.906849 
L 172.286283 55.33038 
L 172.58188 55.649622 
L 172.877476 55.427043 
L 173.468669 54.028237 
L 173.764265 53.930521 
L 174.059862 53.482208 
L 174.059862 52.884814 
L 174.355458 52.428741 
L 174.651055 52.4394 
L 174.946651 52.964285 
L 175.242247 52.907818 
L 175.83344 51.778945 
L 176.129036 51.664825 
L 176.439413 52.564894 
L 176.735009 52.312198 
L 177.030605 52.25269 
L 177.621798 51.880016 
L 177.917395 53.141092 
L 178.212991 52.066025 
L 178.804184 51.753486 
L 178.804184 50.953309 
L 179.09978 50.679814 
L 179.395377 51.258101 
L 179.690973 51.048296 
L 180.577762 53.556729 
L 180.873359 53.72168 
L 181.168955 53.331845 
L 181.464551 55.317601 
L 182.055744 53.553969 
L 182.36612 53.406173 
L 182.661717 54.551642 
L 182.957313 54.698333 
L 183.844102 53.475092 
L 184.139699 53.454096 
L 184.435295 53.206112 
L 184.730892 52.245663 
L 185.322084 51.868722 
L 185.617681 51.295653 
L 185.913277 51.035197 
L 186.208874 51.486157 
L 186.50447 51.403736 
L 186.800066 53.761421 
L 187.095663 53.451955 
L 187.391259 54.192701 
L 187.686855 53.84848 
L 187.982452 54.389424 
L 188.588424 53.815202 
L 189.179617 53.50068 
L 189.475214 53.715763 
L 189.77081 53.742989 
L 190.066406 53.395481 
L 190.362003 53.99703 
L 190.657599 53.813671 
L 191.248792 52.233314 
L 191.544388 51.413924 
L 191.839985 51.120045 
L 192.135581 51.209255 
L 192.726774 52.152742 
L 193.02237 52.105345 
L 193.317967 53.346094 
L 193.613563 53.274254 
L 193.90916 53.750996 
L 194.810729 53.35242 
L 195.106325 52.96628 
L 195.401921 52.799877 
L 195.697518 52.410772 
L 195.993114 52.820855 
L 196.288711 52.646286 
L 197.471096 50.386121 
L 197.766693 50.039929 
L 198.062289 51.037448 
L 198.653482 51.768268 
L 198.949078 52.666285 
L 199.540271 52.313154 
L 200.737436 50.309621 
L 201.033033 50.182896 
L 201.328629 49.824146 
L 201.624225 49.793132 
L 201.919822 49.208922 
L 202.511015 49.133767 
L 202.806611 51.919535 
L 203.102207 51.910937 
L 203.397804 53.315064 
L 203.6934 53.397474 
L 203.988997 53.228272 
L 204.580189 52.464464 
L 204.875786 52.440765 
L 205.171382 51.647146 
L 205.466979 51.20503 
L 206.368548 50.787621 
L 206.664144 50.517234 
L 206.95974 49.711774 
L 207.255337 49.357585 
L 207.84653 49.352413 
L 208.142126 48.816284 
L 208.437722 49.265175 
L 208.733319 49.00438 
L 209.028915 48.950321 
L 209.324511 49.015929 
L 209.620108 49.26372 
L 209.915704 49.229122 
L 210.211301 49.586858 
L 211.09809 50.954872 
L 211.984879 53.066509 
L 212.295255 52.902004 
L 212.590852 53.193988 
L 213.182044 56.653765 
L 213.477641 56.6704 
L 213.773237 57.418124 
L 214.068834 57.060249 
L 214.36443 58.530081 
L 214.660026 58.458024 
L 214.660026 59.211263 
L 215.251219 58.755717 
L 215.546816 59.333137 
L 215.842412 59.315713 
L 216.138008 58.752827 
L 216.433605 58.838761 
L 216.729201 58.763897 
L 216.729201 58.427233 
L 217.024798 58.318495 
L 217.61599 61.459276 
L 218.207183 60.916055 
L 218.207183 60.67561 
L 218.813156 60.546537 
L 219.108752 60.075941 
L 219.404349 60.282833 
L 219.699945 59.814155 
L 219.699945 59.193834 
L 219.995541 58.954891 
L 220.291138 58.228291 
L 220.88233 57.483067 
L 220.88233 56.784385 
L 221.177927 56.392717 
L 221.473523 55.69037 
L 221.76912 55.629071 
L 222.360312 54.8397 
L 222.655909 55.123492 
L 223.247102 54.176714 
L 223.542698 53.921067 
L 223.542698 53.65071 
L 224.429487 52.41763 
L 224.725084 51.50012 
L 225.03546 50.939487 
L 225.331056 50.157854 
L 225.626653 50.014703 
L 225.922249 49.692507 
L 226.217845 49.576532 
L 226.809038 48.648741 
L 227.104635 48.594142 
L 227.695827 51.563906 
L 227.991424 52.496622 
L 228.28702 54.765227 
L 228.582617 53.79141 
L 228.878213 53.707759 
L 229.173809 53.137122 
L 229.469406 53.740867 
L 229.765002 54.581989 
L 230.060599 54.57441 
L 230.356195 54.237966 
L 230.651791 53.717538 
L 231.242984 53.494284 
L 231.55336 53.464142 
L 232.440149 52.395336 
L 233.031342 50.647124 
L 233.918131 49.407516 
L 234.213728 50.520679 
L 234.804921 50.084681 
L 235.100517 49.998995 
L 235.396113 50.831538 
L 235.69171 50.830122 
L 235.987306 50.593538 
L 236.578499 50.694164 
L 237.169692 49.559428 
L 237.480068 49.035168 
L 237.775664 49.078004 
L 238.071261 48.773739 
L 238.366857 48.2727 
L 238.662454 48.218528 
L 238.95805 48.297848 
L 239.549243 48.929518 
L 239.844839 48.694984 
L 240.140436 50.313329 
L 240.436032 50.606115 
L 240.731628 50.508026 
L 241.027225 51.484064 
L 241.322821 51.213541 
L 242.505207 60.033528 
L 243.096399 60.087042 
L 243.406776 59.962294 
L 243.702372 61.055472 
L 243.997968 61.499292 
L 244.293565 62.952988 
L 244.293565 62.835051 
L 244.589161 63.438996 
L 244.884758 64.821153 
L 245.180354 64.619762 
L 245.47595 65.237437 
L 245.771547 64.441106 
L 246.067143 64.779949 
L 246.36274 65.79753 
L 246.953932 65.307593 
L 247.545125 64.694261 
L 248.151098 64.538592 
L 248.151098 66.40112 
L 248.742291 64.804257 
L 249.037887 63.854568 
L 249.333483 63.410032 
L 249.62908 62.664126 
L 250.515869 59.704535 
L 250.811465 59.319138 
L 251.698255 54.45351 
L 252.304227 53.509665 
L 252.599824 53.10883 
L 252.89542 52.902731 
L 253.191016 52.889538 
L 253.486613 55.726021 
L 254.373402 53.603264 
L 254.668998 53.313429 
L 254.964595 52.723962 
L 255.260191 51.711939 
L 255.851384 51.17303 
L 256.14698 51.119145 
L 256.442577 51.427666 
L 257.033769 52.657346 
L 257.624962 51.146433 
L 257.920559 51.071296 
L 258.526531 50.619547 
L 258.822128 50.834843 
L 259.117724 53.891155 
L 259.41332 53.382764 
L 259.708917 54.587008 
L 260.004513 54.410316 
L 260.30011 56.621892 
L 260.595706 59.867525 
L 260.891302 59.269762 
L 261.186899 59.080103 
L 261.482495 59.752769 
L 261.778092 59.597531 
L 261.778092 61.734606 
L 262.073688 61.37367 
L 262.369284 61.392336 
L 262.664881 60.725176 
L 263.55167 56.3978 
L 263.847266 55.101244 
L 264.748835 52.961028 
L 265.044432 52.276889 
L 265.340028 52.192722 
L 265.635624 54.43384 
L 265.931221 58.395166 
L 266.226817 60.212091 
L 266.522414 59.730912 
L 266.81801 59.516978 
L 267.409203 58.350693 
L 268.000396 56.646628 
L 268.295992 55.884301 
L 268.591588 56.154964 
L 268.887185 56.007879 
L 269.182781 56.794436 
L 269.478378 56.285094 
L 269.773974 57.130563 
L 270.08435 56.773121 
L 270.971139 54.009127 
L 271.266736 54.598534 
L 271.562332 53.687688 
L 272.153525 52.960976 
L 272.449121 52.932324 
L 272.744718 52.456419 
L 273.335911 52.274065 
L 273.631507 53.142698 
L 274.2227 53.998096 
L 274.518296 53.998927 
L 274.813893 55.365161 
L 275.109489 55.310443 
L 275.405085 56.733044 
L 275.700682 58.712169 
L 275.996278 59.068472 
L 275.996278 61.543621 
L 276.306654 61.470586 
L 276.602251 62.030655 
L 276.897847 61.210082 
L 277.193443 61.069049 
L 277.48904 60.360153 
L 277.784636 61.412958 
L 278.080233 61.086078 
L 278.375829 62.418171 
L 278.671425 63.039393 
L 278.671425 63.530966 
L 278.967022 62.549818 
L 279.262618 60.949322 
L 279.558215 60.700053 
L 279.853811 59.61305 
L 280.445004 58.746653 
L 281.331793 56.664729 
L 281.937766 53.792586 
L 282.528958 51.907202 
L 282.824555 51.23536 
L 283.415748 54.231653 
L 283.711344 54.387179 
L 284.598133 52.389352 
L 285.189326 51.848438 
L 285.484922 52.067275 
L 285.780519 51.507536 
L 286.076115 53.067814 
L 286.371711 55.850881 
L 286.667308 56.142734 
L 286.962904 55.894744 
L 287.258501 56.241944 
L 287.864473 55.377444 
L 288.16007 55.204012 
L 288.455666 54.779243 
L 288.751262 55.839913 
L 289.046859 55.529586 
L 289.342455 55.775823 
L 289.638052 55.714405 
L 289.933648 54.834206 
L 290.229244 54.329377 
L 291.116034 53.525162 
L 291.41163 54.746263 
L 291.707226 55.180528 
L 292.298419 54.106597 
L 292.594016 53.786147 
L 292.889612 53.776158 
L 294.67797 50.535742 
L 295.564759 50.274463 
L 296.155952 49.641283 
L 296.451549 49.827379 
L 296.747145 49.755404 
L 297.042741 50.128371 
L 297.633934 49.807305 
L 297.92953 49.819786 
L 298.225127 49.030563 
L 298.520723 48.611054 
L 299.111916 48.25179 
L 299.407512 49.748737 
L 300.013485 49.07745 
L 300.309081 49.161783 
L 300.900274 53.169848 
L 301.195871 54.799346 
L 301.491467 54.658284 
L 301.787063 54.235304 
L 302.08266 54.18148 
L 302.378256 54.445459 
L 302.673853 55.531984 
L 302.969449 55.52393 
L 303.265045 55.30641 
L 303.856238 54.636917 
L 304.151835 54.47646 
L 304.447431 56.750686 
L 305.038624 56.457149 
L 305.038624 57.200882 
L 305.33422 57.177855 
L 305.629817 56.788161 
L 306.235789 55.604615 
L 306.531386 54.324022 
L 307.418175 52.303414 
L 307.713771 52.586778 
L 307.713771 52.083579 
L 308.304964 50.664631 
L 308.896157 50.379527 
L 309.191753 50.605252 
L 309.191753 50.551187 
L 309.487349 51.956579 
L 309.782946 55.027468 
L 310.078542 54.927459 
L 311.260928 53.867445 
L 311.556524 53.661291 
L 311.852121 53.878571 
L 312.162497 53.766605 
L 312.458093 54.370713 
L 312.75369 57.332303 
L 313.049286 56.741709 
L 313.344882 55.226888 
L 313.344882 54.136387 
L 313.640479 53.09201 
L 313.936075 52.599695 
L 314.527268 52.275794 
L 314.822864 53.809255 
L 315.118461 54.645923 
L 315.414057 55.034752 
L 316.300846 52.65557 
L 316.892039 52.064397 
L 317.483232 51.145378 
L 317.778828 51.045012 
L 318.089205 51.301041 
L 318.384801 50.668817 
L 318.680397 50.646663 
L 318.975994 52.135027 
L 319.27159 52.657612 
L 319.567187 55.402407 
L 319.862783 55.99375 
L 320.158379 55.735707 
L 320.749572 53.667795 
L 321.045168 51.968158 
L 322.227554 49.961429 
L 323.114343 49.402014 
L 323.40994 49.993424 
L 323.705536 49.680642 
L 324.902701 49.472368 
L 325.198298 49.571249 
L 325.493894 49.398444 
L 325.789491 49.941669 
L 326.085087 49.914695 
L 326.380683 49.76781 
L 326.971876 50.700358 
L 327.858665 50.200927 
L 328.154262 51.056918 
L 328.745455 51.315702 
L 329.336647 50.237424 
L 329.632244 50.408222 
L 330.533813 48.717183 
L 330.829409 49.284444 
L 331.716198 49.100054 
L 332.307391 50.622105 
L 332.602987 51.046507 
L 332.898584 52.289485 
L 333.489777 51.316752 
L 334.376566 49.804262 
L 335.263355 51.217413 
L 335.558951 52.924641 
L 335.854548 52.922894 
L 336.164924 52.571811 
L 336.46052 51.579065 
L 337.051713 50.919846 
L 337.642906 50.345363 
L 338.234099 51.456336 
L 338.529695 50.89074 
L 339.120888 50.154452 
L 339.416484 49.137856 
L 340.007677 48.560952 
L 340.303274 48.179558 
L 340.59887 48.01533 
L 340.894466 48.606091 
L 341.190063 48.302528 
L 341.781255 47.988208 
L 342.387228 49.834751 
L 342.682824 49.332316 
L 342.978421 49.096517 
L 343.274017 49.72495 
L 343.569614 49.49495 
L 343.86521 50.774942 
L 344.160806 51.053605 
L 344.751999 52.007913 
L 345.638788 53.81065 
L 345.934385 54.468261 
L 346.229981 56.376668 
L 346.525578 56.644591 
L 347.11677 58.851288 
L 347.11677 60.874977 
L 347.412367 60.789482 
L 347.707963 61.451103 
L 348.313936 64.226589 
L 348.609532 64.665159 
L 348.905129 66.906251 
L 348.905129 66.61281 
L 349.200725 67.838363 
L 349.791918 67.429225 
L 350.087514 68.401595 
L 350.383111 68.35142 
L 350.693487 69.108537 
L 351.003863 68.802153 
L 351.639395 67.186473 
L 352.555744 64.085677 
L 352.85134 63.614381 
L 352.85134 62.664366 
L 353.146937 61.95832 
L 354.329322 56.936538 
L 355.230891 54.725906 
L 355.526488 54.831251 
L 355.822084 55.884127 
L 356.117681 55.455136 
L 356.413277 55.32989 
L 356.708873 55.519142 
L 357.00447 55.316838 
L 357.595663 57.132873 
L 358.186855 56.702906 
L 358.778048 55.841388 
L 359.073645 55.276123 
L 359.369241 55.514334 
L 359.664837 56.97744 
L 359.960434 56.957643 
L 360.25603 56.575835 
L 360.551626 56.912888 
L 361.157599 56.227156 
L 361.453195 56.228369 
L 362.339985 55.27513 
L 362.635581 54.705456 
L 362.931177 54.718211 
L 364.113563 53.897731 
L 364.409159 54.539207 
L 364.704756 57.166562 
L 365.295949 57.710783 
L 365.591545 58.15218 
L 365.901921 58.363526 
L 366.197518 59.704441 
L 366.78871 59.507525 
L 367.084307 61.471214 
L 367.379903 61.500652 
L 367.6755 62.037337 
L 367.971096 62.832409 
L 368.266692 62.955222 
L 368.562289 62.289425 
L 368.562289 62.83432 
L 368.857885 62.894366 
L 369.449078 62.147522 
L 369.744674 63.513107 
L 369.744674 62.495633 
L 370.040271 62.258451 
L 370.335867 62.239298 
L 370.631464 61.969797 
L 370.631464 61.461278 
L 370.92706 60.981641 
L 371.222656 60.789299 
L 371.518253 60.463238 
L 372.109445 59.259542 
L 372.419822 59.16326 
L 372.715418 59.667836 
L 373.306611 59.065565 
L 373.602207 58.970088 
L 373.602207 58.992719 
L 373.897804 58.45842 
L 374.1934 58.537902 
L 374.488996 57.970887 
L 374.784593 57.98042 
L 374.784593 57.635675 
L 375.080189 58.680044 
L 375.375786 57.72267 
L 375.966978 55.027779 
L 376.262575 54.249933 
L 376.558171 53.951326 
L 376.558171 53.257284 
L 376.853768 53.842367 
L 377.149364 53.024778 
L 377.44496 52.644064 
L 377.740557 55.879873 
L 378.036153 57.389557 
L 378.036153 57.306997 
L 379.528915 53.58292 
L 379.824511 53.371811 
L 380.415704 51.626564 
L 380.711301 50.70546 
L 381.006897 50.176084 
L 381.302493 49.253273 
L 381.893686 48.906237 
L 382.189282 48.243768 
L 382.780475 47.902237 
L 383.076072 49.104931 
L 383.371668 48.589478 
L 383.667264 48.488139 
L 383.962861 49.562452 
L 384.86443 49.399624 
L 385.160026 51.521789 
L 386.046815 51.346573 
L 386.342412 52.884544 
L 386.638008 53.533825 
L 386.933605 55.065119 
L 387.229201 55.034303 
L 387.524797 55.446682 
L 387.820394 56.895084 
L 388.11599 57.493929 
L 388.411587 57.345531 
L 388.707183 58.523945 
L 389.002779 59.160558 
L 389.298376 59.141858 
L 389.889569 58.400212 
L 389.889569 58.210914 
L 390.185165 59.767493 
L 390.480761 59.609861 
L 391.086734 57.973851 
L 391.38233 59.145741 
L 391.677927 58.514124 
L 391.677927 57.578403 
L 391.973523 56.920419 
L 392.26912 55.844834 
L 392.564716 57.161042 
L 392.564716 57.161042 
" clip-path="url(#p836aaca0f0)" style="fill: none; stroke: #a55eea; stroke-opacity: 0.99; stroke-width: 2.4; stroke-linecap: square"/>
   </g>
   <g id="patch_3">
    <path d="M 27.040625 100.082051 
L 27.040625 16.897251 
" style="fill: none; stroke: #000000; stroke-width: 0.8; stroke-linejoin: miter; stroke-linecap: square"/>
   </g>
   <g id="patch_4">
    <path d="M 409.970625 100.082051 
L 409.970625 16.897251 
" style="fill: none; stroke: #000000; stroke-width: 0.8; stroke-linejoin: miter; stroke-linecap: square"/>
   </g>
   <g id="patch_5">
    <path d="M 27.040625 100.082051 
L 409.970625 100.082051 
" style="fill: none; stroke: #000000; stroke-width: 0.8; stroke-linejoin: miter; stroke-linecap: square"/>
   </g>
   <g id="patch_6">
    <path d="M 27.040625 16.897251 
L 409.970625 16.897251 
" style="fill: none; stroke: #000000; stroke-width: 0.8; stroke-linejoin: miter; stroke-linecap: square"/>
   </g>
   <g id="legend_1">
    <g id="patch_7">
     <path d="M 98.510306 8.839063 
L 323.183744 8.839063 
Q 324.183744 8.839063 324.183744 7.839063 
L 324.183744 1 
Q 324.183744 0 323.183744 0 
L 98.510306 0 
Q 97.510306 0 97.510306 1 
L 97.510306 7.839063 
Q 97.510306 8.839063 98.510306 8.839063 
z
" style="fill: #ffffff; opacity: 0.8; stroke: #cccccc; stroke-linejoin: miter"/>
    </g>
    <g id="line2d_25">
     <path d="M 99.510306 4.049219 
L 104.510306 4.049219 
L 109.510306 4.049219 
" style="fill: none; stroke: #ff3f34; stroke-opacity: 0.99; stroke-width: 2.4; stroke-linecap: square"/>
    </g>
    <g id="text_13">
     <!-- Opti. &amp; tracking -->
     <g transform="translate(113.510306 5.799219)scale(0.05 -0.05)">
      <defs>
       <path id="DejaVuSans-4f" d="M 2522 4238 
Q 1834 4238 1429 3725 
Q 1025 3213 1025 2328 
Q 1025 1447 1429 934 
Q 1834 422 2522 422 
Q 3209 422 3611 934 
Q 4013 1447 4013 2328 
Q 4013 3213 3611 3725 
Q 3209 4238 2522 4238 
z
M 2522 4750 
Q 3503 4750 4090 4092 
Q 4678 3434 4678 2328 
Q 4678 1225 4090 567 
Q 3503 -91 2522 -91 
Q 1538 -91 948 565 
Q 359 1222 359 2328 
Q 359 3434 948 4092 
Q 1538 4750 2522 4750 
z
" transform="scale(0.015625)"/>
       <path id="DejaVuSans-74" d="M 1172 4494 
L 1172 3500 
L 2356 3500 
L 2356 3053 
L 1172 3053 
L 1172 1153 
Q 1172 725 1289 603 
Q 1406 481 1766 481 
L 2356 481 
L 2356 0 
L 1766 0 
Q 1100 0 847 248 
Q 594 497 594 1153 
L 594 3053 
L 172 3053 
L 172 3500 
L 594 3500 
L 594 4494 
L 1172 4494 
z
" transform="scale(0.015625)"/>
       <path id="DejaVuSans-69" d="M 603 3500 
L 1178 3500 
L 1178 0 
L 603 0 
L 603 3500 
z
M 603 4863 
L 1178 4863 
L 1178 4134 
L 603 4134 
L 603 4863 
z
" transform="scale(0.015625)"/>
       <path id="DejaVuSans-2e" d="M 684 794 
L 1344 794 
L 1344 0 
L 684 0 
L 684 794 
z
" transform="scale(0.015625)"/>
       <path id="DejaVuSans-26" d="M 1556 2509 
Q 1272 2256 1139 2004 
Q 1006 1753 1006 1478 
Q 1006 1022 1337 719 
Q 1669 416 2169 416 
Q 2466 416 2725 514 
Q 2984 613 3213 813 
L 1556 2509 
z
M 1997 2859 
L 3584 1234 
Q 3769 1513 3872 1830 
Q 3975 2147 3994 2503 
L 4575 2503 
Q 4538 2091 4375 1687 
Q 4213 1284 3922 891 
L 4794 0 
L 4006 0 
L 3559 459 
Q 3234 181 2878 45 
Q 2522 -91 2113 -91 
Q 1359 -91 881 339 
Q 403 769 403 1441 
Q 403 1841 612 2192 
Q 822 2544 1241 2853 
Q 1091 3050 1012 3245 
Q 934 3441 934 3628 
Q 934 4134 1281 4442 
Q 1628 4750 2203 4750 
Q 2463 4750 2720 4694 
Q 2978 4638 3244 4525 
L 3244 3956 
Q 2972 4103 2725 4179 
Q 2478 4256 2266 4256 
Q 1938 4256 1733 4082 
Q 1528 3909 1528 3634 
Q 1528 3475 1620 3314 
Q 1713 3153 1997 2859 
z
" transform="scale(0.015625)"/>
       <path id="DejaVuSans-6e" d="M 3513 2113 
L 3513 0 
L 2938 0 
L 2938 2094 
Q 2938 2591 2744 2837 
Q 2550 3084 2163 3084 
Q 1697 3084 1428 2787 
Q 1159 2491 1159 1978 
L 1159 0 
L 581 0 
L 581 3500 
L 1159 3500 
L 1159 2956 
Q 1366 3272 1645 3428 
Q 1925 3584 2291 3584 
Q 2894 3584 3203 3211 
Q 3513 2838 3513 2113 
z
" transform="scale(0.015625)"/>
      </defs>
      <use xlink:href="#DejaVuSans-4f"/>
      <use xlink:href="#DejaVuSans-70" x="78.710938"/>
      <use xlink:href="#DejaVuSans-74" x="142.1875"/>
      <use xlink:href="#DejaVuSans-69" x="181.396484"/>
      <use xlink:href="#DejaVuSans-2e" x="209.179688"/>
      <use xlink:href="#DejaVuSans-20" x="240.966797"/>
      <use xlink:href="#DejaVuSans-26" x="272.753906"/>
      <use xlink:href="#DejaVuSans-20" x="350.732422"/>
      <use xlink:href="#DejaVuSans-74" x="382.519531"/>
      <use xlink:href="#DejaVuSans-72" x="421.728516"/>
      <use xlink:href="#DejaVuSans-61" x="462.841797"/>
      <use xlink:href="#DejaVuSans-63" x="524.121094"/>
      <use xlink:href="#DejaVuSans-6b" x="579.101562"/>
      <use xlink:href="#DejaVuSans-69" x="637.011719"/>
      <use xlink:href="#DejaVuSans-6e" x="664.794922"/>
      <use xlink:href="#DejaVuSans-67" x="728.173828"/>
     </g>
    </g>
    <g id="line2d_26">
     <path d="M 163.092337 4.049219 
L 168.092337 4.049219 
L 173.092337 4.049219 
" style="fill: none; stroke: #05c46b; stroke-opacity: 0.99; stroke-width: 2.4; stroke-linecap: square"/>
    </g>
    <g id="text_14">
     <!-- Follow-the-Gap -->
     <g transform="translate(177.092337 5.799219)scale(0.05 -0.05)">
      <defs>
       <path id="DejaVuSans-46" d="M 628 4666 
L 3309 4666 
L 3309 4134 
L 1259 4134 
L 1259 2759 
L 3109 2759 
L 3109 2228 
L 1259 2228 
L 1259 0 
L 628 0 
L 628 4666 
z
" transform="scale(0.015625)"/>
       <path id="DejaVuSans-6c" d="M 603 4863 
L 1178 4863 
L 1178 0 
L 603 0 
L 603 4863 
z
" transform="scale(0.015625)"/>
       <path id="DejaVuSans-77" d="M 269 3500 
L 844 3500 
L 1563 769 
L 2278 3500 
L 2956 3500 
L 3675 769 
L 4391 3500 
L 4966 3500 
L 4050 0 
L 3372 0 
L 2619 2869 
L 1863 0 
L 1184 0 
L 269 3500 
z
" transform="scale(0.015625)"/>
       <path id="DejaVuSans-2d" d="M 313 2009 
L 1997 2009 
L 1997 1497 
L 313 1497 
L 313 2009 
z
" transform="scale(0.015625)"/>
       <path id="DejaVuSans-68" d="M 3513 2113 
L 3513 0 
L 2938 0 
L 2938 2094 
Q 2938 2591 2744 2837 
Q 2550 3084 2163 3084 
Q 1697 3084 1428 2787 
Q 1159 2491 1159 1978 
L 1159 0 
L 581 0 
L 581 4863 
L 1159 4863 
L 1159 2956 
Q 1366 3272 1645 3428 
Q 1925 3584 2291 3584 
Q 2894 3584 3203 3211 
Q 3513 2838 3513 2113 
z
" transform="scale(0.015625)"/>
       <path id="DejaVuSans-47" d="M 3809 666 
L 3809 1919 
L 2778 1919 
L 2778 2438 
L 4434 2438 
L 4434 434 
Q 4069 175 3628 42 
Q 3188 -91 2688 -91 
Q 1594 -91 976 548 
Q 359 1188 359 2328 
Q 359 3472 976 4111 
Q 1594 4750 2688 4750 
Q 3144 4750 3555 4637 
Q 3966 4525 4313 4306 
L 4313 3634 
Q 3963 3931 3569 4081 
Q 3175 4231 2741 4231 
Q 1884 4231 1454 3753 
Q 1025 3275 1025 2328 
Q 1025 1384 1454 906 
Q 1884 428 2741 428 
Q 3075 428 3337 486 
Q 3600 544 3809 666 
z
" transform="scale(0.015625)"/>
      </defs>
      <use xlink:href="#DejaVuSans-46"/>
      <use xlink:href="#DejaVuSans-6f" x="53.894531"/>
      <use xlink:href="#DejaVuSans-6c" x="115.076172"/>
      <use xlink:href="#DejaVuSans-6c" x="142.859375"/>
      <use xlink:href="#DejaVuSans-6f" x="170.642578"/>
      <use xlink:href="#DejaVuSans-77" x="231.824219"/>
      <use xlink:href="#DejaVuSans-2d" x="313.611328"/>
      <use xlink:href="#DejaVuSans-74" x="349.695312"/>
      <use xlink:href="#DejaVuSans-68" x="388.904297"/>
      <use xlink:href="#DejaVuSans-65" x="452.283203"/>
      <use xlink:href="#DejaVuSans-2d" x="513.806641"/>
      <use xlink:href="#DejaVuSans-47" x="553.515625"/>
      <use xlink:href="#DejaVuSans-61" x="631.005859"/>
      <use xlink:href="#DejaVuSans-70" x="692.285156"/>
     </g>
    </g>
    <g id="line2d_27">
     <path d="M 224.879837 4.049219 
L 229.879837 4.049219 
L 234.879837 4.049219 
" style="fill: none; stroke: #ffa801; stroke-opacity: 0.99; stroke-width: 2.4; stroke-linecap: square"/>
    </g>
    <g id="text_15">
     <!-- End-to-end -->
     <g transform="translate(238.879837 5.799219)scale(0.05 -0.05)">
      <defs>
       <path id="DejaVuSans-45" d="M 628 4666 
L 3578 4666 
L 3578 4134 
L 1259 4134 
L 1259 2753 
L 3481 2753 
L 3481 2222 
L 1259 2222 
L 1259 531 
L 3634 531 
L 3634 0 
L 628 0 
L 628 4666 
z
" transform="scale(0.015625)"/>
      </defs>
      <use xlink:href="#DejaVuSans-45"/>
      <use xlink:href="#DejaVuSans-6e" x="63.183594"/>
      <use xlink:href="#DejaVuSans-64" x="126.5625"/>
      <use xlink:href="#DejaVuSans-2d" x="190.039062"/>
      <use xlink:href="#DejaVuSans-74" x="226.123047"/>
      <use xlink:href="#DejaVuSans-6f" x="265.332031"/>
      <use xlink:href="#DejaVuSans-2d" x="328.388672"/>
      <use xlink:href="#DejaVuSans-65" x="364.472656"/>
      <use xlink:href="#DejaVuSans-6e" x="425.996094"/>
      <use xlink:href="#DejaVuSans-64" x="489.375"/>
     </g>
    </g>
    <g id="line2d_28">
     <path d="M 276.522806 4.049219 
L 281.522806 4.049219 
L 286.522806 4.049219 
" style="fill: none; stroke: #a55eea; stroke-opacity: 0.99; stroke-width: 2.4; stroke-linecap: square"/>
    </g>
    <g id="text_16">
     <!-- TinyLidarNet -->
     <g transform="translate(290.522806 5.799219)scale(0.05 -0.05)">
      <defs>
       <path id="DejaVuSans-79" d="M 2059 -325 
Q 1816 -950 1584 -1140 
Q 1353 -1331 966 -1331 
L 506 -1331 
L 506 -850 
L 844 -850 
Q 1081 -850 1212 -737 
Q 1344 -625 1503 -206 
L 1606 56 
L 191 3500 
L 800 3500 
L 1894 763 
L 2988 3500 
L 3597 3500 
L 2059 -325 
z
" transform="scale(0.015625)"/>
       <path id="DejaVuSans-4c" d="M 628 4666 
L 1259 4666 
L 1259 531 
L 3531 531 
L 3531 0 
L 628 0 
L 628 4666 
z
" transform="scale(0.015625)"/>
       <path id="DejaVuSans-4e" d="M 628 4666 
L 1478 4666 
L 3547 763 
L 3547 4666 
L 4159 4666 
L 4159 0 
L 3309 0 
L 1241 3903 
L 1241 0 
L 628 0 
L 628 4666 
z
" transform="scale(0.015625)"/>
      </defs>
      <use xlink:href="#DejaVuSans-54"/>
      <use xlink:href="#DejaVuSans-69" x="57.958984"/>
      <use xlink:href="#DejaVuSans-6e" x="85.742188"/>
      <use xlink:href="#DejaVuSans-79" x="149.121094"/>
      <use xlink:href="#DejaVuSans-4c" x="208.300781"/>
      <use xlink:href="#DejaVuSans-69" x="264.013672"/>
      <use xlink:href="#DejaVuSans-64" x="291.796875"/>
      <use xlink:href="#DejaVuSans-61" x="355.273438"/>
      <use xlink:href="#DejaVuSans-72" x="416.552734"/>
      <use xlink:href="#DejaVuSans-4e" x="457.666016"/>
      <use xlink:href="#DejaVuSans-65" x="532.470703"/>
      <use xlink:href="#DejaVuSans-74" x="593.994141"/>
     </g>
    </g>
   </g>
  </g>
 </g>
 <defs>
  <clipPath id="p836aaca0f0">
   <rect x="27.040625" y="16.897251" width="382.93" height="83.1848"/>
  </clipPath>
 </defs>
</svg>
