<?xml version="1.0" encoding="utf-8" standalone="no"?>
<!DOCTYPE svg PUBLIC "-//W3C//DTD SVG 1.1//EN"
  "http://www.w3.org/Graphics/SVG/1.1/DTD/svg11.dtd">
<svg xmlns:xlink="http://www.w3.org/1999/xlink" width="1057.9025pt" height="488.17567pt" viewBox="0 0 1057.9025 488.17567" xmlns="http://www.w3.org/2000/svg" version="1.1">
 <metadata>
  <rdf:RDF xmlns:dc="http://purl.org/dc/elements/1.1/" xmlns:cc="http://creativecommons.org/ns#" xmlns:rdf="http://www.w3.org/1999/02/22-rdf-syntax-ns#">
   <cc:Work>
    <dc:type rdf:resource="http://purl.org/dc/dcmitype/StillImage"/>
    <dc:date>2024-09-08T21:29:23.486637</dc:date>
    <dc:format>image/svg+xml</dc:format>
    <dc:creator>
     <cc:Agent>
      <dc:title>Matplotlib v3.5.2, https://matplotlib.org/</dc:title>
     </cc:Agent>
    </dc:creator>
   </cc:Work>
  </rdf:RDF>
 </metadata>
 <defs>
  <style type="text/css">*{stroke-linejoin: round; stroke-linecap: butt}</style>
 </defs>
 <g id="figure_1">
  <g id="patch_1">
   <path d="M 0 488.17567 
L 1057.9025 488.17567 
L 1057.9025 0 
L 0 0 
z
" style="fill: #ffffff"/>
  </g>
  <g id="axes_1">
   <g id="patch_2">
    <path d="M 46.9525 434.59192 
L 1057.9025 434.59192 
L 1057.9025 72.25112 
L 46.9525 72.25112 
z
" style="fill: #ffffff"/>
   </g>
   <g id="matplotlib.axis_1">
    <g id="xtick_1">
     <g id="line2d_1">
      <path d="M 92.904773 434.59192 
L 92.904773 72.25112 
" clip-path="url(#p286dd43b3c)" style="fill: none; stroke: #b0b0b0; stroke-width: 0.8; stroke-linecap: square"/>
     </g>
     <g id="line2d_2">
      <defs>
       <path id="m3eb6e815df" d="M 0 0 
L 0 3.5 
" style="stroke: #000000; stroke-width: 0.8"/>
      </defs>
      <g>
       <use xlink:href="#m3eb6e815df" x="92.904773" y="434.59192" style="stroke: #000000; stroke-width: 0.8"/>
      </g>
     </g>
     <g id="text_1">
      <!-- 0 -->
      <g transform="translate(86.542273 456.788795)scale(0.2 -0.2)">
       <defs>
        <path id="DejaVuSans-30" d="M 2034 4250 
Q 1547 4250 1301 3770 
Q 1056 3291 1056 2328 
Q 1056 1369 1301 889 
Q 1547 409 2034 409 
Q 2525 409 2770 889 
Q 3016 1369 3016 2328 
Q 3016 3291 2770 3770 
Q 2525 4250 2034 4250 
z
M 2034 4750 
Q 2819 4750 3233 4129 
Q 3647 3509 3647 2328 
Q 3647 1150 3233 529 
Q 2819 -91 2034 -91 
Q 1250 -91 836 529 
Q 422 1150 422 2328 
Q 422 3509 836 4129 
Q 1250 4750 2034 4750 
z
" transform="scale(0.015625)"/>
       </defs>
       <use xlink:href="#DejaVuSans-30"/>
      </g>
     </g>
    </g>
    <g id="xtick_2">
     <g id="line2d_3">
      <path d="M 277.657629 434.59192 
L 277.657629 72.25112 
" clip-path="url(#p286dd43b3c)" style="fill: none; stroke: #b0b0b0; stroke-width: 0.8; stroke-linecap: square"/>
     </g>
     <g id="line2d_4">
      <g>
       <use xlink:href="#m3eb6e815df" x="277.657629" y="434.59192" style="stroke: #000000; stroke-width: 0.8"/>
      </g>
     </g>
     <g id="text_2">
      <!-- 20 -->
      <g transform="translate(264.932629 456.788795)scale(0.2 -0.2)">
       <defs>
        <path id="DejaVuSans-32" d="M 1228 531 
L 3431 531 
L 3431 0 
L 469 0 
L 469 531 
Q 828 903 1448 1529 
Q 2069 2156 2228 2338 
Q 2531 2678 2651 2914 
Q 2772 3150 2772 3378 
Q 2772 3750 2511 3984 
Q 2250 4219 1831 4219 
Q 1534 4219 1204 4116 
Q 875 4013 500 3803 
L 500 4441 
Q 881 4594 1212 4672 
Q 1544 4750 1819 4750 
Q 2544 4750 2975 4387 
Q 3406 4025 3406 3419 
Q 3406 3131 3298 2873 
Q 3191 2616 2906 2266 
Q 2828 2175 2409 1742 
Q 1991 1309 1228 531 
z
" transform="scale(0.015625)"/>
       </defs>
       <use xlink:href="#DejaVuSans-32"/>
       <use xlink:href="#DejaVuSans-30" x="63.623047"/>
      </g>
     </g>
    </g>
    <g id="xtick_3">
     <g id="line2d_5">
      <path d="M 462.410486 434.59192 
L 462.410486 72.25112 
" clip-path="url(#p286dd43b3c)" style="fill: none; stroke: #b0b0b0; stroke-width: 0.8; stroke-linecap: square"/>
     </g>
     <g id="line2d_6">
      <g>
       <use xlink:href="#m3eb6e815df" x="462.410486" y="434.59192" style="stroke: #000000; stroke-width: 0.8"/>
      </g>
     </g>
     <g id="text_3">
      <!-- 40 -->
      <g transform="translate(449.685486 456.788795)scale(0.2 -0.2)">
       <defs>
        <path id="DejaVuSans-34" d="M 2419 4116 
L 825 1625 
L 2419 1625 
L 2419 4116 
z
M 2253 4666 
L 3047 4666 
L 3047 1625 
L 3713 1625 
L 3713 1100 
L 3047 1100 
L 3047 0 
L 2419 0 
L 2419 1100 
L 313 1100 
L 313 1709 
L 2253 4666 
z
" transform="scale(0.015625)"/>
       </defs>
       <use xlink:href="#DejaVuSans-34"/>
       <use xlink:href="#DejaVuSans-30" x="63.623047"/>
      </g>
     </g>
    </g>
    <g id="xtick_4">
     <g id="line2d_7">
      <path d="M 647.163342 434.59192 
L 647.163342 72.25112 
" clip-path="url(#p286dd43b3c)" style="fill: none; stroke: #b0b0b0; stroke-width: 0.8; stroke-linecap: square"/>
     </g>
     <g id="line2d_8">
      <g>
       <use xlink:href="#m3eb6e815df" x="647.163342" y="434.59192" style="stroke: #000000; stroke-width: 0.8"/>
      </g>
     </g>
     <g id="text_4">
      <!-- 60 -->
      <g transform="translate(634.438342 456.788795)scale(0.2 -0.2)">
       <defs>
        <path id="DejaVuSans-36" d="M 2113 2584 
Q 1688 2584 1439 2293 
Q 1191 2003 1191 1497 
Q 1191 994 1439 701 
Q 1688 409 2113 409 
Q 2538 409 2786 701 
Q 3034 994 3034 1497 
Q 3034 2003 2786 2293 
Q 2538 2584 2113 2584 
z
M 3366 4563 
L 3366 3988 
Q 3128 4100 2886 4159 
Q 2644 4219 2406 4219 
Q 1781 4219 1451 3797 
Q 1122 3375 1075 2522 
Q 1259 2794 1537 2939 
Q 1816 3084 2150 3084 
Q 2853 3084 3261 2657 
Q 3669 2231 3669 1497 
Q 3669 778 3244 343 
Q 2819 -91 2113 -91 
Q 1303 -91 875 529 
Q 447 1150 447 2328 
Q 447 3434 972 4092 
Q 1497 4750 2381 4750 
Q 2619 4750 2861 4703 
Q 3103 4656 3366 4563 
z
" transform="scale(0.015625)"/>
       </defs>
       <use xlink:href="#DejaVuSans-36"/>
       <use xlink:href="#DejaVuSans-30" x="63.623047"/>
      </g>
     </g>
    </g>
    <g id="xtick_5">
     <g id="line2d_9">
      <path d="M 831.916199 434.59192 
L 831.916199 72.25112 
" clip-path="url(#p286dd43b3c)" style="fill: none; stroke: #b0b0b0; stroke-width: 0.8; stroke-linecap: square"/>
     </g>
     <g id="line2d_10">
      <g>
       <use xlink:href="#m3eb6e815df" x="831.916199" y="434.59192" style="stroke: #000000; stroke-width: 0.8"/>
      </g>
     </g>
     <g id="text_5">
      <!-- 80 -->
      <g transform="translate(819.191199 456.788795)scale(0.2 -0.2)">
       <defs>
        <path id="DejaVuSans-38" d="M 2034 2216 
Q 1584 2216 1326 1975 
Q 1069 1734 1069 1313 
Q 1069 891 1326 650 
Q 1584 409 2034 409 
Q 2484 409 2743 651 
Q 3003 894 3003 1313 
Q 3003 1734 2745 1975 
Q 2488 2216 2034 2216 
z
M 1403 2484 
Q 997 2584 770 2862 
Q 544 3141 544 3541 
Q 544 4100 942 4425 
Q 1341 4750 2034 4750 
Q 2731 4750 3128 4425 
Q 3525 4100 3525 3541 
Q 3525 3141 3298 2862 
Q 3072 2584 2669 2484 
Q 3125 2378 3379 2068 
Q 3634 1759 3634 1313 
Q 3634 634 3220 271 
Q 2806 -91 2034 -91 
Q 1263 -91 848 271 
Q 434 634 434 1313 
Q 434 1759 690 2068 
Q 947 2378 1403 2484 
z
M 1172 3481 
Q 1172 3119 1398 2916 
Q 1625 2713 2034 2713 
Q 2441 2713 2670 2916 
Q 2900 3119 2900 3481 
Q 2900 3844 2670 4047 
Q 2441 4250 2034 4250 
Q 1625 4250 1398 4047 
Q 1172 3844 1172 3481 
z
" transform="scale(0.015625)"/>
       </defs>
       <use xlink:href="#DejaVuSans-38"/>
       <use xlink:href="#DejaVuSans-30" x="63.623047"/>
      </g>
     </g>
    </g>
    <g id="xtick_6">
     <g id="line2d_11">
      <path d="M 1016.669056 434.59192 
L 1016.669056 72.25112 
" clip-path="url(#p286dd43b3c)" style="fill: none; stroke: #b0b0b0; stroke-width: 0.8; stroke-linecap: square"/>
     </g>
     <g id="line2d_12">
      <g>
       <use xlink:href="#m3eb6e815df" x="1016.669056" y="434.59192" style="stroke: #000000; stroke-width: 0.8"/>
      </g>
     </g>
     <g id="text_6">
      <!-- 100 -->
      <g transform="translate(997.581556 456.788795)scale(0.2 -0.2)">
       <defs>
        <path id="DejaVuSans-31" d="M 794 531 
L 1825 531 
L 1825 4091 
L 703 3866 
L 703 4441 
L 1819 4666 
L 2450 4666 
L 2450 531 
L 3481 531 
L 3481 0 
L 794 0 
L 794 531 
z
" transform="scale(0.015625)"/>
       </defs>
       <use xlink:href="#DejaVuSans-31"/>
       <use xlink:href="#DejaVuSans-30" x="63.623047"/>
       <use xlink:href="#DejaVuSans-30" x="127.246094"/>
      </g>
     </g>
    </g>
    <g id="text_7">
     <!-- Track progress [%] -->
     <g transform="translate(440.85 483.18442)scale(0.24 -0.24)">
      <defs>
       <path id="DejaVuSans-54" d="M -19 4666 
L 3928 4666 
L 3928 4134 
L 2272 4134 
L 2272 0 
L 1638 0 
L 1638 4134 
L -19 4134 
L -19 4666 
z
" transform="scale(0.015625)"/>
       <path id="DejaVuSans-72" d="M 2631 2963 
Q 2534 3019 2420 3045 
Q 2306 3072 2169 3072 
Q 1681 3072 1420 2755 
Q 1159 2438 1159 1844 
L 1159 0 
L 581 0 
L 581 3500 
L 1159 3500 
L 1159 2956 
Q 1341 3275 1631 3429 
Q 1922 3584 2338 3584 
Q 2397 3584 2469 3576 
Q 2541 3569 2628 3553 
L 2631 2963 
z
" transform="scale(0.015625)"/>
       <path id="DejaVuSans-61" d="M 2194 1759 
Q 1497 1759 1228 1600 
Q 959 1441 959 1056 
Q 959 750 1161 570 
Q 1363 391 1709 391 
Q 2188 391 2477 730 
Q 2766 1069 2766 1631 
L 2766 1759 
L 2194 1759 
z
M 3341 1997 
L 3341 0 
L 2766 0 
L 2766 531 
Q 2569 213 2275 61 
Q 1981 -91 1556 -91 
Q 1019 -91 701 211 
Q 384 513 384 1019 
Q 384 1609 779 1909 
Q 1175 2209 1959 2209 
L 2766 2209 
L 2766 2266 
Q 2766 2663 2505 2880 
Q 2244 3097 1772 3097 
Q 1472 3097 1187 3025 
Q 903 2953 641 2809 
L 641 3341 
Q 956 3463 1253 3523 
Q 1550 3584 1831 3584 
Q 2591 3584 2966 3190 
Q 3341 2797 3341 1997 
z
" transform="scale(0.015625)"/>
       <path id="DejaVuSans-63" d="M 3122 3366 
L 3122 2828 
Q 2878 2963 2633 3030 
Q 2388 3097 2138 3097 
Q 1578 3097 1268 2742 
Q 959 2388 959 1747 
Q 959 1106 1268 751 
Q 1578 397 2138 397 
Q 2388 397 2633 464 
Q 2878 531 3122 666 
L 3122 134 
Q 2881 22 2623 -34 
Q 2366 -91 2075 -91 
Q 1284 -91 818 406 
Q 353 903 353 1747 
Q 353 2603 823 3093 
Q 1294 3584 2113 3584 
Q 2378 3584 2631 3529 
Q 2884 3475 3122 3366 
z
" transform="scale(0.015625)"/>
       <path id="DejaVuSans-6b" d="M 581 4863 
L 1159 4863 
L 1159 1991 
L 2875 3500 
L 3609 3500 
L 1753 1863 
L 3688 0 
L 2938 0 
L 1159 1709 
L 1159 0 
L 581 0 
L 581 4863 
z
" transform="scale(0.015625)"/>
       <path id="DejaVuSans-20" transform="scale(0.015625)"/>
       <path id="DejaVuSans-70" d="M 1159 525 
L 1159 -1331 
L 581 -1331 
L 581 3500 
L 1159 3500 
L 1159 2969 
Q 1341 3281 1617 3432 
Q 1894 3584 2278 3584 
Q 2916 3584 3314 3078 
Q 3713 2572 3713 1747 
Q 3713 922 3314 415 
Q 2916 -91 2278 -91 
Q 1894 -91 1617 61 
Q 1341 213 1159 525 
z
M 3116 1747 
Q 3116 2381 2855 2742 
Q 2594 3103 2138 3103 
Q 1681 3103 1420 2742 
Q 1159 2381 1159 1747 
Q 1159 1113 1420 752 
Q 1681 391 2138 391 
Q 2594 391 2855 752 
Q 3116 1113 3116 1747 
z
" transform="scale(0.015625)"/>
       <path id="DejaVuSans-6f" d="M 1959 3097 
Q 1497 3097 1228 2736 
Q 959 2375 959 1747 
Q 959 1119 1226 758 
Q 1494 397 1959 397 
Q 2419 397 2687 759 
Q 2956 1122 2956 1747 
Q 2956 2369 2687 2733 
Q 2419 3097 1959 3097 
z
M 1959 3584 
Q 2709 3584 3137 3096 
Q 3566 2609 3566 1747 
Q 3566 888 3137 398 
Q 2709 -91 1959 -91 
Q 1206 -91 779 398 
Q 353 888 353 1747 
Q 353 2609 779 3096 
Q 1206 3584 1959 3584 
z
" transform="scale(0.015625)"/>
       <path id="DejaVuSans-67" d="M 2906 1791 
Q 2906 2416 2648 2759 
Q 2391 3103 1925 3103 
Q 1463 3103 1205 2759 
Q 947 2416 947 1791 
Q 947 1169 1205 825 
Q 1463 481 1925 481 
Q 2391 481 2648 825 
Q 2906 1169 2906 1791 
z
M 3481 434 
Q 3481 -459 3084 -895 
Q 2688 -1331 1869 -1331 
Q 1566 -1331 1297 -1286 
Q 1028 -1241 775 -1147 
L 775 -588 
Q 1028 -725 1275 -790 
Q 1522 -856 1778 -856 
Q 2344 -856 2625 -561 
Q 2906 -266 2906 331 
L 2906 616 
Q 2728 306 2450 153 
Q 2172 0 1784 0 
Q 1141 0 747 490 
Q 353 981 353 1791 
Q 353 2603 747 3093 
Q 1141 3584 1784 3584 
Q 2172 3584 2450 3431 
Q 2728 3278 2906 2969 
L 2906 3500 
L 3481 3500 
L 3481 434 
z
" transform="scale(0.015625)"/>
       <path id="DejaVuSans-65" d="M 3597 1894 
L 3597 1613 
L 953 1613 
Q 991 1019 1311 708 
Q 1631 397 2203 397 
Q 2534 397 2845 478 
Q 3156 559 3463 722 
L 3463 178 
Q 3153 47 2828 -22 
Q 2503 -91 2169 -91 
Q 1331 -91 842 396 
Q 353 884 353 1716 
Q 353 2575 817 3079 
Q 1281 3584 2069 3584 
Q 2775 3584 3186 3129 
Q 3597 2675 3597 1894 
z
M 3022 2063 
Q 3016 2534 2758 2815 
Q 2500 3097 2075 3097 
Q 1594 3097 1305 2825 
Q 1016 2553 972 2059 
L 3022 2063 
z
" transform="scale(0.015625)"/>
       <path id="DejaVuSans-73" d="M 2834 3397 
L 2834 2853 
Q 2591 2978 2328 3040 
Q 2066 3103 1784 3103 
Q 1356 3103 1142 2972 
Q 928 2841 928 2578 
Q 928 2378 1081 2264 
Q 1234 2150 1697 2047 
L 1894 2003 
Q 2506 1872 2764 1633 
Q 3022 1394 3022 966 
Q 3022 478 2636 193 
Q 2250 -91 1575 -91 
Q 1294 -91 989 -36 
Q 684 19 347 128 
L 347 722 
Q 666 556 975 473 
Q 1284 391 1588 391 
Q 1994 391 2212 530 
Q 2431 669 2431 922 
Q 2431 1156 2273 1281 
Q 2116 1406 1581 1522 
L 1381 1569 
Q 847 1681 609 1914 
Q 372 2147 372 2553 
Q 372 3047 722 3315 
Q 1072 3584 1716 3584 
Q 2034 3584 2315 3537 
Q 2597 3491 2834 3397 
z
" transform="scale(0.015625)"/>
       <path id="DejaVuSans-5b" d="M 550 4863 
L 1875 4863 
L 1875 4416 
L 1125 4416 
L 1125 -397 
L 1875 -397 
L 1875 -844 
L 550 -844 
L 550 4863 
z
" transform="scale(0.015625)"/>
       <path id="DejaVuSans-25" d="M 4653 2053 
Q 4381 2053 4226 1822 
Q 4072 1591 4072 1178 
Q 4072 772 4226 539 
Q 4381 306 4653 306 
Q 4919 306 5073 539 
Q 5228 772 5228 1178 
Q 5228 1588 5073 1820 
Q 4919 2053 4653 2053 
z
M 4653 2450 
Q 5147 2450 5437 2106 
Q 5728 1763 5728 1178 
Q 5728 594 5436 251 
Q 5144 -91 4653 -91 
Q 4153 -91 3862 251 
Q 3572 594 3572 1178 
Q 3572 1766 3864 2108 
Q 4156 2450 4653 2450 
z
M 1428 4353 
Q 1159 4353 1004 4120 
Q 850 3888 850 3481 
Q 850 3069 1003 2837 
Q 1156 2606 1428 2606 
Q 1700 2606 1854 2837 
Q 2009 3069 2009 3481 
Q 2009 3884 1853 4118 
Q 1697 4353 1428 4353 
z
M 4250 4750 
L 4750 4750 
L 1831 -91 
L 1331 -91 
L 4250 4750 
z
M 1428 4750 
Q 1922 4750 2215 4408 
Q 2509 4066 2509 3481 
Q 2509 2891 2217 2550 
Q 1925 2209 1428 2209 
Q 931 2209 642 2551 
Q 353 2894 353 3481 
Q 353 4063 643 4406 
Q 934 4750 1428 4750 
z
" transform="scale(0.015625)"/>
       <path id="DejaVuSans-5d" d="M 1947 4863 
L 1947 -844 
L 622 -844 
L 622 -397 
L 1369 -397 
L 1369 4416 
L 622 4416 
L 622 4863 
L 1947 4863 
z
" transform="scale(0.015625)"/>
      </defs>
      <use xlink:href="#DejaVuSans-54"/>
      <use xlink:href="#DejaVuSans-72" x="46.333984"/>
      <use xlink:href="#DejaVuSans-61" x="87.447266"/>
      <use xlink:href="#DejaVuSans-63" x="148.726562"/>
      <use xlink:href="#DejaVuSans-6b" x="203.707031"/>
      <use xlink:href="#DejaVuSans-20" x="261.617188"/>
      <use xlink:href="#DejaVuSans-70" x="293.404297"/>
      <use xlink:href="#DejaVuSans-72" x="356.880859"/>
      <use xlink:href="#DejaVuSans-6f" x="395.744141"/>
      <use xlink:href="#DejaVuSans-67" x="456.925781"/>
      <use xlink:href="#DejaVuSans-72" x="520.402344"/>
      <use xlink:href="#DejaVuSans-65" x="559.265625"/>
      <use xlink:href="#DejaVuSans-73" x="620.789062"/>
      <use xlink:href="#DejaVuSans-73" x="672.888672"/>
      <use xlink:href="#DejaVuSans-20" x="724.988281"/>
      <use xlink:href="#DejaVuSans-5b" x="756.775391"/>
      <use xlink:href="#DejaVuSans-25" x="795.789062"/>
      <use xlink:href="#DejaVuSans-5d" x="890.808594"/>
     </g>
    </g>
   </g>
   <g id="matplotlib.axis_2">
    <g id="ytick_1">
     <g id="line2d_13">
      <path d="M 46.9525 386.279813 
L 1057.9025 386.279813 
" clip-path="url(#p286dd43b3c)" style="fill: none; stroke: #b0b0b0; stroke-width: 0.8; stroke-linecap: square"/>
     </g>
     <g id="line2d_14">
      <defs>
       <path id="m4e126da4f4" d="M 0 0 
L -3.5 0 
" style="stroke: #000000; stroke-width: 0.8"/>
      </defs>
      <g>
       <use xlink:href="#m4e126da4f4" x="46.9525" y="386.279813" style="stroke: #000000; stroke-width: 0.8"/>
      </g>
     </g>
     <g id="text_8">
      <!-- 2 -->
      <g transform="translate(27.2275 393.878251)scale(0.2 -0.2)">
       <use xlink:href="#DejaVuSans-32"/>
      </g>
     </g>
    </g>
    <g id="ytick_2">
     <g id="line2d_15">
      <path d="M 46.9525 289.6556 
L 1057.9025 289.6556 
" clip-path="url(#p286dd43b3c)" style="fill: none; stroke: #b0b0b0; stroke-width: 0.8; stroke-linecap: square"/>
     </g>
     <g id="line2d_16">
      <g>
       <use xlink:href="#m4e126da4f4" x="46.9525" y="289.6556" style="stroke: #000000; stroke-width: 0.8"/>
      </g>
     </g>
     <g id="text_9">
      <!-- 4 -->
      <g transform="translate(27.2275 297.254037)scale(0.2 -0.2)">
       <use xlink:href="#DejaVuSans-34"/>
      </g>
     </g>
    </g>
    <g id="ytick_3">
     <g id="line2d_17">
      <path d="M 46.9525 193.031387 
L 1057.9025 193.031387 
" clip-path="url(#p286dd43b3c)" style="fill: none; stroke: #b0b0b0; stroke-width: 0.8; stroke-linecap: square"/>
     </g>
     <g id="line2d_18">
      <g>
       <use xlink:href="#m4e126da4f4" x="46.9525" y="193.031387" style="stroke: #000000; stroke-width: 0.8"/>
      </g>
     </g>
     <g id="text_10">
      <!-- 6 -->
      <g transform="translate(27.2275 200.629824)scale(0.2 -0.2)">
       <use xlink:href="#DejaVuSans-36"/>
      </g>
     </g>
    </g>
    <g id="ytick_4">
     <g id="line2d_19">
      <path d="M 46.9525 96.407173 
L 1057.9025 96.407173 
" clip-path="url(#p286dd43b3c)" style="fill: none; stroke: #b0b0b0; stroke-width: 0.8; stroke-linecap: square"/>
     </g>
     <g id="line2d_20">
      <g>
       <use xlink:href="#m4e126da4f4" x="46.9525" y="96.407173" style="stroke: #000000; stroke-width: 0.8"/>
      </g>
     </g>
     <g id="text_11">
      <!-- 8 -->
      <g transform="translate(27.2275 104.005611)scale(0.2 -0.2)">
       <use xlink:href="#DejaVuSans-38"/>
      </g>
     </g>
    </g>
    <g id="text_12">
     <!-- Speed [m/s] -->
     <g transform="translate(18.23625 326.203395)rotate(-90)scale(0.24 -0.24)">
      <defs>
       <path id="DejaVuSans-53" d="M 3425 4513 
L 3425 3897 
Q 3066 4069 2747 4153 
Q 2428 4238 2131 4238 
Q 1616 4238 1336 4038 
Q 1056 3838 1056 3469 
Q 1056 3159 1242 3001 
Q 1428 2844 1947 2747 
L 2328 2669 
Q 3034 2534 3370 2195 
Q 3706 1856 3706 1288 
Q 3706 609 3251 259 
Q 2797 -91 1919 -91 
Q 1588 -91 1214 -16 
Q 841 59 441 206 
L 441 856 
Q 825 641 1194 531 
Q 1563 422 1919 422 
Q 2459 422 2753 634 
Q 3047 847 3047 1241 
Q 3047 1584 2836 1778 
Q 2625 1972 2144 2069 
L 1759 2144 
Q 1053 2284 737 2584 
Q 422 2884 422 3419 
Q 422 4038 858 4394 
Q 1294 4750 2059 4750 
Q 2388 4750 2728 4690 
Q 3069 4631 3425 4513 
z
" transform="scale(0.015625)"/>
       <path id="DejaVuSans-64" d="M 2906 2969 
L 2906 4863 
L 3481 4863 
L 3481 0 
L 2906 0 
L 2906 525 
Q 2725 213 2448 61 
Q 2172 -91 1784 -91 
Q 1150 -91 751 415 
Q 353 922 353 1747 
Q 353 2572 751 3078 
Q 1150 3584 1784 3584 
Q 2172 3584 2448 3432 
Q 2725 3281 2906 2969 
z
M 947 1747 
Q 947 1113 1208 752 
Q 1469 391 1925 391 
Q 2381 391 2643 752 
Q 2906 1113 2906 1747 
Q 2906 2381 2643 2742 
Q 2381 3103 1925 3103 
Q 1469 3103 1208 2742 
Q 947 2381 947 1747 
z
" transform="scale(0.015625)"/>
       <path id="DejaVuSans-6d" d="M 3328 2828 
Q 3544 3216 3844 3400 
Q 4144 3584 4550 3584 
Q 5097 3584 5394 3201 
Q 5691 2819 5691 2113 
L 5691 0 
L 5113 0 
L 5113 2094 
Q 5113 2597 4934 2840 
Q 4756 3084 4391 3084 
Q 3944 3084 3684 2787 
Q 3425 2491 3425 1978 
L 3425 0 
L 2847 0 
L 2847 2094 
Q 2847 2600 2669 2842 
Q 2491 3084 2119 3084 
Q 1678 3084 1418 2786 
Q 1159 2488 1159 1978 
L 1159 0 
L 581 0 
L 581 3500 
L 1159 3500 
L 1159 2956 
Q 1356 3278 1631 3431 
Q 1906 3584 2284 3584 
Q 2666 3584 2933 3390 
Q 3200 3197 3328 2828 
z
" transform="scale(0.015625)"/>
       <path id="DejaVuSans-2f" d="M 1625 4666 
L 2156 4666 
L 531 -594 
L 0 -594 
L 1625 4666 
z
" transform="scale(0.015625)"/>
      </defs>
      <use xlink:href="#DejaVuSans-53"/>
      <use xlink:href="#DejaVuSans-70" x="63.476562"/>
      <use xlink:href="#DejaVuSans-65" x="126.953125"/>
      <use xlink:href="#DejaVuSans-65" x="188.476562"/>
      <use xlink:href="#DejaVuSans-64" x="250"/>
      <use xlink:href="#DejaVuSans-20" x="313.476562"/>
      <use xlink:href="#DejaVuSans-5b" x="345.263672"/>
      <use xlink:href="#DejaVuSans-6d" x="384.277344"/>
      <use xlink:href="#DejaVuSans-2f" x="481.689453"/>
      <use xlink:href="#DejaVuSans-73" x="515.380859"/>
      <use xlink:href="#DejaVuSans-5d" x="567.480469"/>
     </g>
    </g>
   </g>
   <g id="line2d_21">
    <path d="M 92.904773 482.904027 
L 92.904773 437.904642 
L 93.226511 426.418439 
L 93.226511 414.932236 
L 93.548249 403.446032 
L 93.548249 391.959829 
L 93.869988 380.473626 
L 94.352595 368.987422 
L 95.049695 346.015015 
L 95.800417 334.528812 
L 96.443894 311.556405 
L 97.24824 300.070202 
L 97.623601 288.583999 
L 98.803308 266.720412 
L 99.125047 256.653535 
L 100.143884 248.545389 
L 100.626492 240.86501 
L 101.591707 234.642545 
L 102.074314 228.182905 
L 103.093152 223.424136 
L 103.57576 217.90048 
L 105.023582 213.616475 
L 105.023582 209.225875 
L 106.525027 205.599959 
L 107.651111 199.969427 
L 109.152557 198.602641 
L 109.152557 196.541028 
L 110.654002 193.91908 
L 111.780086 191.44496 
L 112.90617 185.919028 
L 114.407616 183.453795 
L 115.051092 181.445655 
L 115.5337 180.685763 
L 116.713407 186.496596 
L 118.965575 208.339697 
L 118.965575 212.814538 
L 120.145282 215.669399 
L 120.145282 214.510464 
L 121.593104 211.809827 
L 123.898896 202.683864 
L 123.898896 198.821963 
L 125.02498 194.201977 
L 126.151064 191.686691 
L 127.330771 189.941306 
L 127.330771 201.42751 
L 129.582939 223.301428 
L 129.582939 229.485215 
L 131.084384 226.649801 
L 131.084384 230.854263 
L 132.210468 239.927271 
L 133.390176 234.789522 
L 133.390176 226.539614 
L 134.51626 218.566797 
L 135.642344 211.642924 
L 135.642344 205.348573 
L 137.948135 194.79574 
L 139.074219 191.651032 
L 139.074219 187.908482 
L 140.253926 185.71997 
L 141.38001 184.090213 
L 142.506094 184.8438 
L 142.506094 185.3898 
L 144.007539 183.87035 
L 145.133623 184.051668 
L 146.313331 183.665793 
L 146.313331 184.355523 
L 149.745206 218.440769 
L 149.745206 229.926973 
L 151.997374 251.399102 
L 151.997374 250.197846 
L 153.177081 247.943234 
L 153.177081 245.132442 
L 154.303165 245.683368 
L 155.429249 251.111058 
L 155.429249 249.826856 
L 156.608956 245.673124 
L 156.608956 244.335693 
L 157.73504 240.527245 
L 158.861124 239.367167 
L 158.861124 235.762156 
L 160.040831 240.477142 
L 161.166915 251.963346 
L 161.971261 263.449549 
L 162.292999 274.935752 
L 162.775607 286.421956 
L 163.955314 297.908159 
L 163.955314 309.394362 
L 164.384298 320.880566 
L 168.245158 340.46846 
L 168.727765 337.763608 
L 169.049504 348.179223 
L 169.532111 346.137855 
L 170.711818 345.72807 
L 170.711818 361.153946 
L 172.481379 365.334023 
L 172.481379 387.207524 
L 172.481379 375.738193 
L 174.304563 364.623226 
L 174.626301 358.531736 
L 174.626301 326.359417 
L 176.449485 325.717806 
L 176.824846 314.259772 
L 176.824846 304.020044 
L 178.594407 300.910703 
L 180.095852 299.612246 
L 180.095852 295.830246 
L 180.739329 294.260732 
L 181.11469 290.984989 
L 181.758167 280.889607 
L 182.079905 270.626404 
L 183.58135 261.544703 
L 183.58135 260.423604 
L 184.921927 256.78194 
L 185.940765 264.301846 
L 186.423372 275.788049 
L 187.388587 287.274252 
L 187.871194 298.651667 
L 187.871194 302.098034 
L 188.246556 313.475735 
L 189.694378 320.201339 
L 189.694378 330.121214 
L 189.694378 328.291446 
L 191.195823 316.805242 
L 191.195823 305.319039 
L 191.8393 293.832836 
L 192.643646 283.754685 
L 193.126253 273.380806 
L 193.823353 267.856526 
L 194.252337 260.56523 
L 195.432044 253.658568 
L 195.432044 249.193138 
L 196.558128 243.170167 
L 197.362474 240.072173 
L 197.362474 234.631471 
L 201.974056 208.341326 
L 202.778402 205.872729 
L 204.387094 197.882489 
L 205.995785 193.416835 
L 206.478393 191.073575 
L 207.926215 189.112486 
L 208.784184 187.307444 
L 209.58853 186.856013 
L 210.875483 185.261856 
L 211.679829 184.785255 
L 212.484174 183.130329 
L 214.092866 183.233235 
L 214.897212 182.707696 
L 216.988511 180.460408 
L 217.792856 179.855435 
L 218.597202 179.043853 
L 219.884155 178.165696 
L 220.366763 177.592069 
L 221.975454 181.835075 
L 222.458062 188.669239 
L 223.262407 190.805613 
L 224.066753 188.788647 
L 224.871099 187.439897 
L 226.158052 184.712945 
L 226.64066 182.400809 
L 227.927613 179.428674 
L 228.41022 176.846441 
L 229.697173 174.37494 
L 230.179781 172.001754 
L 231.895718 169.673503 
L 232.860933 165.577081 
L 234.630494 163.725398 
L 235.542086 162.329322 
L 236.507301 161.226238 
L 236.989908 160.249086 
L 237.472516 158.579398 
L 239.242076 157.1535 
L 240.153668 156.126403 
L 241.118883 155.919976 
L 242.99569 154.334682 
L 244.92612 153.508269 
L 245.837711 153.414638 
L 246.802926 153.185322 
L 247.768141 152.829388 
L 249.484079 152.751587 
L 249.484079 153.105438 
L 250.449294 154.569473 
L 251.414509 155.473862 
L 252.3261 155.90623 
L 253.291315 155.321838 
L 255.060876 154.842783 
L 255.060876 153.551875 
L 256.937683 151.457291 
L 259.189851 153.06433 
L 259.189851 154.308455 
L 259.672458 156.467844 
L 260.58405 154.843381 
L 262.353611 161.78057 
L 262.353611 169.318107 
L 263.318826 173.92981 
L 265.088386 172.997167 
L 265.088386 170.744683 
L 265.999978 168.557408 
L 267.769539 166.695871 
L 267.769539 163.269178 
L 268.734754 161.447389 
L 270.450691 161.680737 
L 270.450691 167.714297 
L 272.702859 167.058586 
L 272.702859 173.374715 
L 274.579666 171.841207 
L 274.955028 180.079312 
L 274.955028 188.870663 
L 276.831834 185.724059 
L 277.153573 196.19706 
L 277.63618 194.679673 
L 279.405741 191.731615 
L 279.405741 187.791938 
L 280.370956 185.031216 
L 281.604286 184.064645 
L 282.086893 184.041582 
L 283.373846 194.341147 
L 283.373846 192.122855 
L 284.821669 190.665374 
L 285.143407 187.834298 
L 287.020214 181.850482 
L 287.502821 178.684311 
L 288.468036 177.693681 
L 289.433251 175.819905 
L 290.237597 179.415208 
L 291.041943 178.920095 
L 292.168027 181.011747 
L 293.294111 179.603977 
L 293.99121 177.67886 
L 295.117294 177.159683 
L 295.814394 177.031907 
L 297.637578 176.336785 
L 298.602793 176.255602 
L 299.407138 178.56052 
L 300.104238 190.046724 
L 301.123076 201.532927 
L 301.766553 200.601063 
L 302.463652 198.108381 
L 303.428867 196.033045 
L 304.125967 198.831191 
L 304.447705 206.420736 
L 307.289727 222.803544 
L 307.933203 230.912398 
L 309.434649 230.888795 
L 310.078125 233.91519 
L 310.078125 233.407882 
L 311.579571 232.444734 
L 311.901309 231.633872 
L 312.223047 233.766623 
L 313.081016 235.380278 
L 314.528839 234.916028 
L 314.528839 234.572079 
L 315.654923 232.312025 
L 315.654923 229.380225 
L 318.282452 221.070368 
L 318.282452 216.497269 
L 318.657813 211.359253 
L 320.266505 206.179885 
L 320.266505 201.785431 
L 321.392589 197.843218 
L 322.572296 194.479349 
L 323.69838 193.128059 
L 323.69838 196.534548 
L 324.824464 200.49802 
L 326.004171 198.914223 
L 327.451994 195.395286 
L 327.451994 190.748178 
L 328.953439 185.065143 
L 328.953439 180.117591 
L 330.401261 175.626763 
L 331.902707 171.598599 
L 331.902707 168.192023 
L 333.350529 165.339227 
L 335.173713 162.177484 
L 335.173713 159.940872 
L 336.996896 158.283944 
L 336.996896 157.025467 
L 338.82008 156.331763 
L 338.82008 158.622992 
L 340.643264 163.921534 
L 340.643264 172.626108 
L 342.788186 172.731204 
L 342.788186 170.345083 
L 344.61137 167.229816 
L 344.61137 163.929746 
L 346.434553 161.042705 
L 346.434553 158.334357 
L 348.204114 156.203576 
L 348.204114 154.159368 
L 350.027298 152.701449 
L 350.027298 150.887626 
L 352.17222 150.053149 
L 352.17222 149.06694 
L 353.995403 148.076526 
L 353.995403 147.573407 
L 355.818587 147.211343 
L 355.818587 147.475042 
L 357.641771 148.861921 
L 357.641771 150.912586 
L 359.464954 157.682167 
L 361.609876 169.079667 
L 361.609876 186.147797 
L 363.43306 185.830256 
L 363.43306 182.230753 
L 365.202621 177.860934 
L 365.202621 173.452627 
L 367.025805 169.542235 
L 367.025805 165.63362 
L 368.848988 162.365787 
L 368.848988 159.636441 
L 370.672172 157.078398 
L 370.672172 154.854327 
L 372.817094 152.733742 
L 372.817094 150.831318 
L 374.640278 149.029524 
L 374.640278 147.504022 
L 376.463461 146.200446 
L 376.463461 145.200108 
L 378.286645 144.749706 
L 380.056206 143.999212 
L 380.056206 143.728526 
L 382.254751 143.454705 
L 382.254751 143.311452 
L 384.024311 142.652913 
L 385.847495 142.310166 
L 385.847495 142.142602 
L 387.670679 141.989042 
L 387.670679 141.844941 
L 389.493862 142.314175 
L 389.493862 142.250661 
L 391.638784 142.009055 
L 391.638784 142.050205 
L 393.461968 143.396078 
L 393.461968 144.040965 
L 395.285152 145.537232 
L 397.054713 147.639753 
L 397.054713 150.586918 
L 398.877896 153.298889 
L 398.877896 156.57515 
L 400.70108 168.035461 
L 400.70108 179.521665 
L 402.846002 191.007868 
L 402.846002 213.980275 
L 404.669186 225.466478 
L 404.669186 221.860075 
L 406.492369 214.238777 
L 406.492369 206.745142 
L 408.315553 199.516966 
L 408.315553 186.790955 
L 410.138737 182.030913 
L 410.138737 178.021817 
L 412.283659 174.805669 
L 412.283659 172.041553 
L 414.106842 169.495507 
L 414.106842 167.383462 
L 415.876403 166.044352 
L 415.876403 168.241733 
L 417.699587 179.727937 
L 417.699587 191.21414 
L 419.52277 202.700343 
L 419.52277 214.186547 
L 421.667692 225.181195 
L 421.667692 225.767371 
L 421.667692 222.610454 
L 423.490876 216.152563 
L 423.490876 211.043796 
L 425.31406 205.374404 
L 425.31406 195.940894 
L 427.137244 192.816121 
L 427.137244 189.906126 
L 428.906804 187.935762 
L 428.906804 186.563496 
L 430.729988 184.244352 
L 430.729988 182.074129 
L 432.87491 183.892872 
L 432.87491 183.80059 
L 434.698094 181.842542 
L 434.698094 180.547512 
L 436.521277 181.87315 
L 436.521277 183.303192 
L 438.344461 185.238231 
L 438.344461 208.210637 
L 440.167645 219.696841 
L 440.167645 229.294513 
L 442.312567 233.507051 
L 442.312567 254.880319 
L 444.13575 266.366522 
L 444.13575 289.338929 
L 446.280672 300.825132 
L 446.924149 323.797539 
L 447.621249 335.158993 
L 447.942987 342.965568 
L 447.942987 341.104288 
L 447.942987 331.274709 
L 450.087909 330.64566 
L 450.409647 342.131863 
L 452.554569 343.522821 
L 452.554569 308.59362 
L 454.753114 298.684825 
L 454.753114 284.017645 
L 456.200937 272.625323 
L 456.200937 277.904768 
L 458.989335 289.390971 
L 460.866142 288.286145 
L 461.670488 276.799942 
L 462.796572 279.400483 
L 462.796572 267.914279 
L 463.976279 257.973487 
L 464.298017 256.312562 
L 465.102363 247.050806 
L 466.925547 241.222338 
L 467.247285 247.847184 
L 467.247285 243.572601 
L 468.74873 237.665987 
L 469.392207 234.540454 
L 470.089307 232.506095 
L 470.089307 228.704588 
L 473.574805 216.971929 
L 473.896543 219.134561 
L 475.022627 230.620764 
L 475.719727 242.106968 
L 476.363204 234.811741 
L 477.060303 228.791165 
L 477.70378 221.078684 
L 478.400879 214.444556 
L 479.419717 213.758792 
L 480.063194 216.119914 
L 480.760294 214.544059 
L 481.40377 210.004224 
L 482.10087 210.926459 
L 482.744346 222.412662 
L 483.441446 217.426759 
L 484.406661 209.607331 
L 485.103761 203.029503 
L 485.747237 198.490876 
L 486.766075 194.009043 
L 487.463175 189.936704 
L 488.106651 185.319042 
L 489.768966 177.736138 
L 490.787804 174.925004 
L 491.806642 172.518662 
L 493.951564 171.346869 
L 493.951564 170.481047 
L 494.273302 177.63965 
L 495.29214 189.125854 
L 496.632716 212.09826 
L 497.651554 223.584464 
L 498.295031 224.961376 
L 498.992131 221.993958 
L 500.332707 207.419109 
L 502.477629 201.891775 
L 502.477629 197.167022 
L 502.799367 192.749128 
L 504.461682 184.859761 
L 505.48052 183.338264 
L 506.821096 204.495703 
L 508.48341 219.900437 
L 511.003694 221.436431 
L 511.003694 212.412001 
L 511.325432 206.302533 
L 512.34427 200.956236 
L 513.684846 191.568161 
L 516.365999 183.132528 
L 517.009475 180.616328 
L 519.529759 180.396902 
L 519.529759 179.9597 
L 519.851497 177.776558 
L 520.494974 177.216926 
L 521.513812 175.645005 
L 522.210911 181.912216 
L 523.176126 184.30199 
L 523.873226 195.788193 
L 524.892064 207.274397 
L 525.53554 218.7606 
L 528.002201 226.500947 
L 528.002201 244.670717 
L 528.377562 256.014408 
L 529.021039 267.500611 
L 529.342777 278.986814 
L 530.683353 301.959221 
L 531.380453 324.931628 
L 533.525375 336.417831 
L 533.525375 345.61348 
L 533.525375 340.478422 
L 533.847113 351.964625 
L 535.670297 363.450829 
L 535.670297 388.724081 
L 535.670297 377.994822 
L 535.992035 374.120049 
L 536.367397 373.371859 
L 536.367397 384.858062 
L 538.136957 382.111335 
L 538.136957 351.040586 
L 539.960141 341.888769 
L 539.960141 326.866836 
L 541.139848 317.996162 
L 541.944194 306.509959 
L 541.944194 295.023756 
L 544.035493 287.517065 
L 545.75143 290.578249 
L 545.75143 284.007805 
L 547.896352 272.521602 
L 547.896352 261.056109 
L 548.218091 256.434438 
L 549.505044 256.036393 
L 550.631128 267.522596 
L 550.631128 279.008799 
L 551.757212 290.495003 
L 551.757212 283.040575 
L 553.258657 271.810944 
L 553.258657 263.647372 
L 554.384741 257.227594 
L 554.384741 251.984672 
L 555.564448 245.091004 
L 555.564448 234.483119 
L 556.690532 225.049095 
L 557.816617 218.586599 
L 559.318062 218.141458 
L 559.318062 218.188646 
L 559.318062 209.535425 
L 560.444146 200.604553 
L 561.945591 192.127211 
L 561.945591 184.914056 
L 563.071675 178.788711 
L 564.573121 173.347137 
L 564.573121 168.990208 
L 565.699205 165.844999 
L 566.825289 164.35601 
L 568.326734 163.577998 
L 568.326734 162.39865 
L 569.452818 161.468792 
L 572.080348 160.480215 
L 572.080348 157.456724 
L 573.260055 155.598673 
L 574.707877 154.468048 
L 575.887584 154.218672 
L 577.335407 154.496109 
L 577.335407 156.84718 
L 578.461491 162.431615 
L 579.641198 170.865387 
L 581.08902 179.271951 
L 581.08902 182.786662 
L 582.268727 182.702269 
L 583.71655 181.316751 
L 583.71655 178.834222 
L 586.344079 172.125048 
L 586.344079 169.171982 
L 588.64987 163.960131 
L 590.151316 162.418603 
L 590.151316 161.477373 
L 591.2774 162.362949 
L 592.725222 167.467992 
L 593.904929 175.772261 
L 593.904929 183.392085 
L 595.031013 182.827027 
L 596.532459 180.606686 
L 596.532459 177.33832 
L 597.658543 174.184331 
L 599.159988 171.05133 
L 600.286072 168.162891 
L 600.286072 165.54773 
L 601.787518 163.946658 
L 602.913602 162.960598 
L 604.039686 165.016543 
L 605.541131 171.102786 
L 605.541131 178.058764 
L 606.667215 177.747894 
L 608.168661 175.213201 
L 608.168661 171.940597 
L 609.294745 168.265172 
L 610.420829 165.050756 
L 611.922274 162.475021 
L 611.922274 159.93904 
L 613.048358 157.679408 
L 614.549803 155.769053 
L 614.549803 154.38779 
L 615.675888 152.884928 
L 616.855595 151.593173 
L 618.303417 150.427996 
L 618.303417 149.372371 
L 619.483124 148.619679 
L 620.930946 148.696751 
L 622.110654 149.066153 
L 623.558476 149.733868 
L 623.558476 155.017008 
L 624.68456 160.879574 
L 625.864267 168.06774 
L 627.312089 168.237766 
L 627.312089 166.354789 
L 629.939619 161.358276 
L 629.939619 158.608852 
L 631.119326 156.226491 
L 632.24541 154.62658 
L 634.872939 152.366814 
L 636.320762 152.172222 
L 636.320762 153.688921 
L 637.500469 155.821087 
L 638.626553 155.844389 
L 640.127998 156.988861 
L 642.755528 156.280887 
L 642.755528 155.959011 
L 645.383057 155.030893 
L 647.635225 154.544692 
L 650.262755 154.53406 
L 651.7642 155.384108 
L 651.7642 158.478586 
L 652.890284 167.657751 
L 654.016368 178.411334 
L 656.643898 189.85932 
L 658.145343 190.613406 
L 658.145343 187.535764 
L 660.451134 178.404762 
L 661.898957 173.766742 
L 661.898957 169.863864 
L 663.078664 166.501599 
L 664.526486 163.733697 
L 664.526486 161.963128 
L 665.706193 160.7384 
L 667.154016 160.079605 
L 668.2801 160.818028 
L 669.459807 163.385065 
L 670.907629 165.280624 
L 671.28299 173.372396 
L 672.087336 181.323424 
L 673.21342 189.459222 
L 674.017766 192.170264 
L 675.14385 192.284554 
L 676.323557 194.215146 
L 676.645295 199.561637 
L 677.449641 205.045613 
L 678.253987 204.929249 
L 679.058333 203.77381 
L 680.720647 199.833185 
L 681.524993 199.008578 
L 682.329339 198.666118 
L 683.133684 204.649852 
L 683.455423 210.150455 
L 684.742376 215.242832 
L 685.546722 216.893888 
L 686.351067 216.276548 
L 687.316282 213.889127 
L 688.120628 210.091575 
L 688.442366 205.312143 
L 691.820619 193.878955 
L 693.107572 193.426827 
L 693.107572 192.98068 
L 696.164086 192.397357 
L 697.451039 192.139425 
L 697.451039 190.534019 
L 699.166976 188.84939 
L 699.166976 187.041164 
L 700.936537 185.472435 
L 700.936537 183.62495 
L 702.22349 181.988322 
L 702.22349 180.411366 
L 703.993051 179.218179 
L 703.993051 178.262625 
L 707.156811 176.700571 
L 707.478549 175.721635 
L 707.478549 174.178677 
L 709.730717 172.129241 
L 709.730717 170.060415 
L 711.500278 168.242557 
L 711.500278 166.840131 
L 713.269839 165.20817 
L 713.269839 164.377699 
L 715.146645 164.322178 
L 715.468384 166.167338 
L 715.950991 168.196353 
L 717.720552 167.871789 
L 717.720552 166.37487 
L 719.919097 164.922292 
L 719.919097 163.547554 
L 720.401704 162.058993 
L 722.171265 161.201088 
L 722.171265 163.561628 
L 724.423433 173.678893 
L 724.423433 185.165097 
L 724.852417 190.73535 
L 727.104585 190.448478 
L 727.104585 188.312926 
L 727.587193 185.126666 
L 729.464 181.407832 
L 729.785738 177.718611 
L 730.268345 174.374783 
L 732.198775 171.440914 
L 732.520514 169.151547 
L 733.003121 170.684482 
L 733.485728 176.13065 
L 735.684273 181.484172 
L 735.684273 185.227496 
L 737.132096 179.692192 
L 739.330641 175.405672 
L 739.330641 172.302599 
L 739.813248 169.37686 
L 740.778463 166.363893 
L 741.261071 163.805135 
L 743.459616 161.828648 
L 743.459616 160.188977 
L 745.390046 157.589835 
L 747.266852 156.742846 
L 747.588591 156.145685 
L 748.071198 154.977199 
L 749.036413 154.192853 
L 749.948005 154.013881 
L 752.200173 158.304813 
L 752.200173 169.791017 
L 753.165388 192.763423 
L 754.07698 204.249627 
L 755.042195 214.910704 
L 756.919001 223.453413 
L 757.294363 225.725899 
L 757.294363 225.328086 
L 757.77697 216.646482 
L 758.688562 208.720459 
L 759.171169 202.674565 
L 761.530584 198.839506 
L 761.852322 195.279679 
L 761.852322 192.70265 
L 763.300144 189.748674 
L 764.265359 188.988797 
L 765.176951 191.732702 
L 766.946512 198.949217 
L 766.946512 210.43542 
L 767.429119 215.20491 
L 768.394334 226.691114 
L 768.823318 234.045097 
L 769.788533 231.586687 
L 770.271141 231.199005 
L 772.147948 231.009955 
L 772.523309 230.047866 
L 772.523309 227.597205 
L 772.952293 237.691221 
L 773.917508 249.177424 
L 774.882723 272.149831 
L 775.794315 272.180588 
L 776.276922 264.382031 
L 778.046483 256.390007 
L 778.046483 238.982462 
L 779.92329 231.118255 
L 780.781259 230.439975 
L 781.585604 228.176859 
L 783.355165 226.702811 
L 783.355165 228.694762 
L 785.178349 238.325607 
L 785.178349 236.71933 
L 787.323271 226.026175 
L 787.323271 219.800867 
L 789.629062 213.982929 
L 791.773984 223.567875 
L 791.773984 218.458277 
L 791.773984 221.45356 
L 793.918906 214.969623 
L 793.918906 220.467279 
L 795.420351 231.953482 
L 796.546435 228.315018 
L 798.637734 224.492242 
L 799.602949 220.216182 
L 800.568164 230.13324 
L 800.997148 225.284893 
L 801.962363 218.541261 
L 802.444971 210.943314 
L 803.410186 202.982659 
L 803.83917 195.675539 
L 804.804385 189.950287 
L 805.7696 185.323546 
L 806.681192 189.421957 
L 807.163799 189.315956 
L 808.129014 188.388547 
L 809.094229 184.915365 
L 809.523213 180.774754 
L 809.523213 178.329834 
L 811.292774 176.258665 
L 811.292774 175.32689 
L 812.579727 179.001196 
L 813.062335 190.487399 
L 815.475372 224.378564 
L 816.279718 224.112576 
L 817.566671 228.25113 
L 817.566671 226.624717 
L 818.049278 224.207071 
L 819.175362 219.220506 
L 820.033331 216.531964 
L 820.837677 215.077347 
L 821.642023 211.897527 
L 822.768107 208.961184 
L 823.572453 207.178802 
L 823.572453 205.8453 
L 825.073898 202.81849 
L 825.556505 201.04705 
L 825.556505 199.574671 
L 827.808673 198.251198 
L 827.808673 197.987284 
L 828.988381 197.438257 
L 830.114465 197.851262 
L 830.114465 198.306035 
L 831.61591 201.614113 
L 831.61591 201.042305 
L 833.063732 211.628503 
L 833.063732 223.114707 
L 834.565178 234.60091 
L 834.565178 244.953127 
L 836.388361 243.971933 
L 836.388361 242.486418 
L 837.514446 253.972621 
L 837.514446 265.161917 
L 838.962268 276.64812 
L 838.962268 299.620527 
L 840.785452 311.10673 
L 840.785452 322.592933 
L 841.965159 334.079137 
L 842.286897 345.372115 
L 842.769504 350.761227 
L 842.769504 373.733634 
L 843.895588 370.589605 
L 843.895588 382.075808 
L 843.895588 348.84868 
L 845.718772 347.227996 
L 847.488333 345.81265 
L 847.97094 339.20827 
L 851.295569 331.516604 
L 851.295569 335.62382 
L 851.295569 327.259327 
L 852.797015 315.773124 
L 852.797015 301.841866 
L 854.620198 294.432606 
L 854.620198 282.946402 
L 854.620198 291.66828 
L 857.086859 303.154483 
L 857.408597 296.107107 
L 859.607142 284.620904 
L 859.607142 265.030847 
L 859.92888 256.699989 
L 862.073802 247.280347 
L 862.073802 238.873666 
L 864.218724 236.246069 
L 865.344808 231.726686 
L 865.344808 225.459451 
L 866.524516 218.282159 
L 867.6506 216.466268 
L 868.454945 211.301752 
L 868.454945 207.172518 
L 869.581029 204.328511 
L 870.760737 200.967563 
L 870.760737 198.165923 
L 872.691166 193.80988 
L 873.495512 189.905099 
L 873.495512 186.023633 
L 876.283911 179.25595 
L 877.088256 176.920121 
L 877.892602 176.221961 
L 878.696948 174.94774 
L 881.109985 172.26288 
L 881.592593 170.900656 
L 882.396938 169.919671 
L 883.576645 167.870737 
L 884.380991 165.814811 
L 885.185337 164.248542 
L 886.47229 166.682344 
L 887.276636 167.320669 
L 888.080982 173.776451 
L 890.172281 182.62909 
L 891.780972 182.532703 
L 891.780972 181.722677 
L 892.585318 179.593721 
L 893.389664 178.705599 
L 894.676617 175.933111 
L 895.480963 175.134547 
L 896.285308 173.496296 
L 897.089654 176.779861 
L 898.376607 176.634494 
L 899.180953 182.619975 
L 900.038922 181.455 
L 901.272252 181.507658 
L 901.754859 189.856101 
L 902.559205 193.634747 
L 904.22152 199.574258 
L 904.22152 201.809524 
L 905.025866 207.003061 
L 905.830211 205.922557 
L 907.117164 214.881775 
L 907.599772 217.376708 
L 908.404118 215.462375 
L 909.208463 214.308911 
L 910.012809 225.674626 
L 911.299762 229.079761 
L 911.299762 226.387269 
L 912.104108 226.207353 
L 912.908454 228.963716 
L 914.195407 229.262421 
L 914.195407 224.289118 
L 914.678015 229.415345 
L 915.643229 226.941483 
L 916.125837 238.427687 
L 917.144675 244.527867 
L 917.627282 256.014071 
L 918.270759 254.375881 
L 919.075105 248.920912 
L 919.450466 243.356127 
L 920.093943 241.377018 
L 922.399734 223.728758 
L 923.418572 231.463465 
L 923.847556 230.419039 
L 924.544656 241.905243 
L 925.67074 253.391446 
L 926.367839 264.877649 
L 926.850447 258.012735 
L 928.459138 247.41772 
L 928.941746 238.842657 
L 932.319998 225.464013 
L 932.319998 236.950216 
L 932.641736 234.013634 
L 934.572166 228.802246 
L 934.572166 234.190364 
L 935.751873 233.759393 
L 936.39535 236.570439 
L 936.717088 236.377091 
L 937.896795 247.863294 
L 938.218533 258.13955 
L 938.86201 253.153331 
L 939.55911 261.206007 
L 940.363455 257.267089 
L 940.685194 254.597672 
L 941.382293 255.555571 
L 942.830116 256.006875 
L 943.205477 256.505923 
L 943.848954 257.012339 
L 944.975038 254.146407 
L 945.672137 249.119724 
L 946.315614 250.643941 
L 947.817059 247.359155 
L 947.817059 249.961909 
L 948.138798 247.221666 
L 949.961981 244.548731 
L 949.961981 251.508297 
L 951.088065 248.330768 
L 951.088065 245.473182 
L 952.911249 244.202366 
L 952.911249 255.68857 
L 954.090956 252.604141 
L 955.699648 246.486014 
L 956.503994 246.209474 
L 956.825732 246.823753 
L 957.630078 247.489945 
L 959.721377 266.662821 
L 959.721377 265.071905 
L 961.00833 264.102746 
L 961.00833 263.380314 
L 962.77789 262.557748 
L 963.743105 263.473695 
L 964.17209 263.184598 
L 964.654697 264.59614 
L 965.137305 265.42833 
L 966.102519 263.877949 
L 966.585127 263.348028 
L 967.067734 258.513371 
L 967.979326 258.288291 
L 968.461934 254.55106 
L 970.714102 250.803873 
L 970.714102 247.798721 
L 972.001055 252.837977 
L 972.805401 252.199329 
L 972.805401 257.451126 
L 974.092354 253.722013 
L 974.521338 254.280309 
L 976.505391 254.670013 
L 976.505391 252.430899 
L 977.953214 251.647995 
L 977.953214 246.157195 
L 979.454659 243.173971 
L 979.454659 235.341374 
L 980.956104 228.449873 
L 980.956104 223.64011 
L 983.422765 223.397949 
L 983.422765 220.283276 
L 986.586525 219.674344 
L 986.586525 216.501151 
L 988.731447 215.626487 
L 989.750285 211.067091 
L 990.393761 204.855551 
L 991.090861 200.14772 
L 991.734337 194.794312 
L 993.879259 191.404655 
L 993.879259 188.080921 
L 994.576359 185.471692 
L 995.219836 191.534248 
L 996.238674 193.031295 
L 998.705334 197.420301 
L 998.705334 200.896472 
L 998.705334 200.120107 
L 999.402434 196.662981 
L 1001.225617 194.159208 
L 1001.225617 191.317704 
L 1003.370539 186.908873 
L 1003.370539 183.384214 
L 1003.692278 180.776655 
L 1006.158938 178.976866 
L 1006.158938 177.662193 
L 1006.534299 176.053384 
L 1008.679221 174.383255 
L 1008.679221 172.935405 
L 1010.502405 171.728502 
L 1010.502405 171.460649 
L 1011.950227 175.390094 
L 1011.950227 186.876298 
L 1011.950227 186.876298 
" clip-path="url(#p286dd43b3c)" style="fill: none; stroke: #0be881; stroke-opacity: 0.99; stroke-width: 2.4; stroke-linecap: square"/>
   </g>
   <g id="line2d_22">
    <path d="M 92.904773 482.904027 
L 92.904773 437.738877 
L 93.226511 426.252673 
L 93.226511 414.76647 
L 93.548249 403.280267 
L 93.548249 391.794063 
L 93.869988 380.30786 
L 94.352595 368.821656 
L 95.049695 345.84925 
L 95.800417 334.363046 
L 96.122156 322.876843 
L 98.803308 265.445826 
L 99.125047 254.100676 
L 100.143884 243.148212 
L 100.626492 233.432794 
L 101.591707 225.38554 
L 102.074314 218.469282 
L 103.093152 212.114988 
L 103.57576 207.030877 
L 105.023582 201.571715 
L 105.023582 197.423481 
L 106.525027 193.419327 
L 107.651111 190.771089 
L 107.651111 187.813453 
L 110.171395 183.659686 
L 110.654002 182.799731 
L 111.780086 182.134435 
L 112.90617 183.733679 
L 112.90617 182.764603 
L 115.5337 181.501273 
L 116.713407 182.487063 
L 117.356884 181.885103 
L 117.839491 186.39167 
L 118.965575 185.53581 
L 120.145282 185.886317 
L 120.145282 186.100506 
L 122.719189 185.16904 
L 123.898896 183.851347 
L 123.898896 182.476041 
L 125.02498 181.815194 
L 126.151064 180.592178 
L 128.456855 178.791076 
L 128.456855 179.542223 
L 129.582939 181.523922 
L 129.582939 182.025188 
L 131.084384 184.585446 
L 132.210468 184.446399 
L 133.390176 185.420381 
L 134.51626 185.223007 
L 134.51626 186.426754 
L 135.642344 188.397934 
L 136.822051 188.633642 
L 139.074219 187.557585 
L 139.074219 186.865749 
L 140.253926 188.544409 
L 141.38001 189.508477 
L 142.506094 189.971109 
L 142.506094 191.892126 
L 144.007539 196.854377 
L 145.133623 208.090462 
L 145.133623 217.091663 
L 146.313331 226.560085 
L 147.439415 234.298629 
L 147.439415 238.93612 
L 148.565499 238.481076 
L 149.745206 238.185697 
L 149.745206 237.820671 
L 150.87129 237.733584 
L 150.87129 240.332833 
L 151.997374 240.219907 
L 153.177081 243.069015 
L 154.303165 244.112957 
L 155.429249 245.558616 
L 155.429249 251.416532 
L 156.608956 250.794441 
L 156.608956 251.467828 
L 157.73504 254.286653 
L 158.861124 254.022039 
L 158.861124 254.028157 
L 160.040831 253.351551 
L 160.040831 253.383873 
L 161.488654 252.141223 
L 162.292999 253.166309 
L 162.775607 251.861541 
L 163.955314 251.152694 
L 164.384298 249.20605 
L 168.727765 247.041615 
L 169.532111 245.374886 
L 170.711818 243.897337 
L 172.481379 241.437963 
L 172.481379 237.772343 
L 174.626301 233.289848 
L 174.626301 226.778574 
L 176.824846 223.630628 
L 176.824846 220.76949 
L 180.095852 219.110777 
L 180.095852 217.829866 
L 180.095852 218.547526 
L 180.739329 218.309041 
L 183.58135 217.939807 
L 183.58135 214.317836 
L 183.903089 209.5411 
L 186.423372 203.943499 
L 186.423372 198.819261 
L 187.871194 194.35884 
L 187.871194 190.514097 
L 189.694378 187.332889 
L 189.694378 186.106424 
L 191.195823 185.574064 
L 193.126253 185.386122 
L 193.126253 184.464289 
L 194.252337 183.148951 
L 195.432044 182.023571 
L 196.558128 180.157017 
L 197.362474 178.105114 
L 197.362474 176.164905 
L 198.542181 174.105715 
L 199.990004 171.894628 
L 200.472611 170.116552 
L 202.778402 168.520983 
L 204.065355 169.157976 
L 204.869701 169.716625 
L 205.674047 169.50577 
L 206.478393 168.993407 
L 207.604477 167.700088 
L 208.408823 166.352262 
L 209.58853 164.780415 
L 211.197221 163.437112 
L 212.484174 162.728464 
L 214.092866 162.428188 
L 215.379819 163.428306 
L 216.184165 165.907733 
L 216.988511 167.503612 
L 218.275464 167.092337 
L 219.079809 165.685487 
L 219.884155 164.513139 
L 220.688501 163.132436 
L 222.7798 160.868487 
L 223.584146 159.945802 
L 224.871099 159.29398 
L 226.158052 159.101178 
L 226.64066 159.231954 
L 227.927613 161.474761 
L 229.697173 164.149429 
L 229.697173 166.828867 
L 231.413111 167.499979 
L 232.378326 167.272625 
L 232.378326 166.544548 
L 234.147887 165.642571 
L 235.113101 164.259335 
L 236.024693 163.313363 
L 236.507301 162.208008 
L 236.989908 161.463081 
L 240.153668 160.414452 
L 241.118883 160.607004 
L 242.084098 161.16438 
L 242.99569 161.092075 
L 243.960905 161.502712 
L 244.92612 160.578678 
L 245.837711 159.462944 
L 247.768141 158.335918 
L 249.484079 157.673345 
L 250.449294 157.162402 
L 252.3261 156.779385 
L 253.291315 157.124733 
L 254.739138 156.984474 
L 255.060876 157.919056 
L 256.026091 157.820785 
L 256.937683 159.125117 
L 257.902898 159.286836 
L 259.189851 158.947053 
L 259.672458 158.702658 
L 262.031873 160.492546 
L 262.353611 160.478638 
L 263.318826 161.848748 
L 265.088386 162.019097 
L 265.088386 161.881924 
L 265.999978 163.91001 
L 267.769539 168.338935 
L 267.769539 170.459753 
L 268.734754 173.920249 
L 270.450691 173.977346 
L 271.415906 173.725925 
L 272.702859 176.843031 
L 273.185467 178.704769 
L 274.579666 180.112965 
L 274.955028 181.658078 
L 275.866619 182.918272 
L 277.153573 186.745654 
L 277.63618 187.039792 
L 278.118788 186.598737 
L 279.405741 187.786579 
L 279.888348 187.626817 
L 281.282547 187.307227 
L 281.604286 188.982149 
L 283.052108 188.156694 
L 283.373846 187.42333 
L 284.339061 186.926622 
L 285.143407 189.876597 
L 286.108622 190.363848 
L 287.020214 189.887549 
L 287.502821 190.482685 
L 288.468036 191.326118 
L 289.433251 193.840156 
L 291.363681 193.157901 
L 292.168027 192.607449 
L 293.294111 192.786982 
L 293.99121 192.430918 
L 294.795556 192.318517 
L 295.492656 192.966777 
L 296.61874 192.601953 
L 297.262216 193.324172 
L 297.959316 192.692601 
L 299.0854 191.984537 
L 299.407138 190.639415 
L 300.425976 190.201984 
L 301.123076 189.589734 
L 303.428867 186.367962 
L 304.447705 185.981174 
L 304.447705 184.578693 
L 306.270889 183.635313 
L 306.967988 182.751282 
L 307.611465 181.692737 
L 307.611465 180.509509 
L 309.756387 180.170337 
L 310.078125 179.656573 
L 310.078125 179.804858 
L 311.901309 180.014702 
L 311.901309 180.551115 
L 313.081016 182.72527 
L 313.081016 182.386621 
L 315.654923 179.087299 
L 315.654923 178.15975 
L 316.83463 176.677935 
L 318.282452 175.923161 
L 318.282452 174.677667 
L 319.086798 173.074288 
L 320.266505 172.195122 
L 321.392589 171.069329 
L 322.572296 169.547555 
L 323.69838 167.380717 
L 324.824464 165.784597 
L 324.824464 164.816659 
L 326.004171 164.123275 
L 327.451994 165.610935 
L 328.953439 172.974758 
L 328.953439 180.038973 
L 330.401261 187.560526 
L 331.902707 191.97622 
L 331.902707 191.136076 
L 333.350529 188.844961 
L 333.350529 186.209541 
L 335.173713 182.725903 
L 335.173713 179.497271 
L 336.996896 176.5126 
L 336.996896 173.566003 
L 338.82008 170.978925 
L 338.82008 169.233037 
L 340.643264 167.435182 
L 340.643264 165.997931 
L 342.788186 165.129607 
L 342.788186 163.968935 
L 344.61137 163.053053 
L 344.61137 162.351774 
L 346.434553 162.033827 
L 346.434553 161.66134 
L 348.204114 161.586137 
L 348.204114 162.410954 
L 350.027298 161.767693 
L 350.027298 160.937999 
L 352.17222 159.9605 
L 352.17222 159.443354 
L 353.995403 159.126097 
L 353.995403 158.636394 
L 355.818587 159.198624 
L 355.818587 158.370809 
L 357.641771 158.151131 
L 357.641771 158.529331 
L 359.464954 158.27962 
L 359.464954 159.311081 
L 361.609876 159.129615 
L 361.609876 160.041607 
L 363.43306 159.86313 
L 363.43306 161.483682 
L 365.202621 161.291633 
L 365.202621 164.299634 
L 367.025805 166.549078 
L 367.025805 170.322337 
L 368.848988 174.768059 
L 368.848988 177.181574 
L 370.672172 179.459618 
L 370.672172 179.085682 
L 372.817094 179.129914 
L 372.817094 179.842951 
L 374.640278 182.01819 
L 374.640278 182.335996 
L 376.463461 181.906131 
L 376.463461 180.743337 
L 378.286645 179.317303 
L 378.286645 178.50299 
L 380.056206 176.973012 
L 380.056206 175.426836 
L 382.254751 174.423534 
L 382.254751 173.426985 
L 384.024311 172.551871 
L 384.024311 171.670715 
L 385.847495 171.004531 
L 385.847495 169.95353 
L 387.670679 169.318369 
L 387.670679 168.429928 
L 389.493862 168.124642 
L 389.493862 167.508783 
L 391.638784 167.875017 
L 391.638784 167.151867 
L 393.461968 166.705089 
L 393.461968 166.230762 
L 395.285152 166.110651 
L 397.054713 165.762025 
L 397.054713 165.393375 
L 400.70108 164.99442 
L 402.846002 167.025655 
L 402.846002 166.94125 
L 404.669186 167.980708 
L 404.669186 167.788867 
L 406.492369 167.812969 
L 406.492369 167.807983 
L 410.138737 167.24107 
L 410.138737 168.668591 
L 412.283659 168.121094 
L 412.283659 170.019074 
L 414.106842 171.438258 
L 414.106842 170.92153 
L 415.876403 170.024088 
L 415.876403 169.583046 
L 417.699587 168.516172 
L 417.699587 168.02923 
L 419.52277 167.814512 
L 419.52277 168.111018 
L 421.667692 167.986049 
L 421.667692 174.751612 
L 423.490876 181.064886 
L 423.490876 185.374677 
L 425.31406 193.336973 
L 425.31406 200.759764 
L 427.137244 207.726258 
L 427.137244 207.47835 
L 428.906804 207.023181 
L 428.906804 206.608591 
L 430.729988 205.552388 
L 430.729988 203.832799 
L 432.87491 204.180273 
L 432.87491 203.662332 
L 434.698094 202.573625 
L 434.698094 202.243754 
L 436.521277 204.512071 
L 436.521277 208.825009 
L 438.344461 211.201272 
L 438.344461 213.893029 
L 440.167645 214.411164 
L 440.167645 218.397505 
L 441.990828 222.311037 
L 442.312567 223.721617 
L 442.312567 232.564057 
L 444.13575 239.88261 
L 444.13575 245.395025 
L 446.280672 251.092494 
L 446.924149 253.262346 
L 447.621249 254.469037 
L 447.942987 254.704316 
L 447.942987 261.76833 
L 450.409647 260.962254 
L 452.554569 261.841418 
L 452.554569 261.238997 
L 452.554569 262.642085 
L 454.753114 263.143224 
L 454.753114 259.413069 
L 456.200937 254.099237 
L 461.18788 246.881959 
L 462.796572 242.463727 
L 463.976279 238.214791 
L 463.976279 234.365247 
L 465.102363 228.212241 
L 467.247285 220.737219 
L 467.247285 206.347579 
L 469.767568 200.336479 
L 470.089307 195.290752 
L 470.089307 191.142194 
L 472.234229 188.173939 
L 472.877705 186.155934 
L 473.896543 184.425549 
L 473.896543 181.568581 
L 476.363204 179.304047 
L 477.060303 177.133274 
L 478.079141 174.525466 
L 479.044356 172.629606 
L 479.741456 170.688191 
L 480.760294 168.776822 
L 481.40377 167.272625 
L 483.066085 164.289345 
L 485.103761 162.530739 
L 486.766075 162.036397 
L 489.447228 159.845827 
L 490.466066 159.763179 
L 491.109542 159.518719 
L 492.12838 158.687729 
L 493.951564 158.223678 
L 493.951564 157.986518 
L 494.970402 157.12293 
L 495.98924 156.820951 
L 496.954455 157.027646 
L 497.651554 156.821022 
L 498.670392 157.695007 
L 499.635607 159.607448 
L 500.332707 159.438758 
L 502.477629 161.462623 
L 502.477629 163.541596 
L 503.121105 163.913376 
L 504.139943 165.413775 
L 504.837043 168.38433 
L 505.802258 171.551879 
L 506.821096 176.464783 
L 507.518196 175.965414 
L 508.48341 177.406218 
L 509.18051 177.955132 
L 511.003694 181.235105 
L 511.003694 183.089168 
L 512.022532 184.382245 
L 512.666008 185.4432 
L 513.363108 188.469243 
L 514.328323 189.763347 
L 515.025423 189.95014 
L 516.044261 192.095678 
L 516.687737 196.384847 
L 517.384837 199.445968 
L 519.529759 202.291908 
L 519.529759 203.541326 
L 519.851497 204.410797 
L 520.494974 203.637463 
L 521.513812 202.865579 
L 522.210911 205.529152 
L 522.854388 205.497611 
L 523.551488 210.115463 
L 524.516702 211.025343 
L 525.213802 213.839604 
L 525.857279 219.965971 
L 528.002201 231.13019 
L 528.002201 242.503208 
L 528.6993 245.554363 
L 529.342777 247.854667 
L 530.039877 252.925438 
L 530.683353 252.699013 
L 531.380453 253.288507 
L 533.525375 252.864554 
L 533.525375 256.417098 
L 535.670297 256.318699 
L 535.670297 253.04399 
L 535.992035 250.731008 
L 538.136957 248.126759 
L 538.136957 242.455712 
L 539.960141 238.343752 
L 541.461586 232.906695 
L 545.75143 226.097764 
L 545.75143 218.608761 
L 547.896352 211.690578 
L 548.218091 205.04509 
L 550.631128 194.240287 
L 551.757212 190.423768 
L 553.258657 187.100044 
L 553.258657 184.949728 
L 554.384741 184.428522 
L 554.384741 183.552594 
L 555.564448 182.927705 
L 557.816617 179.374044 
L 559.318062 176.915347 
L 559.318062 174.09238 
L 560.444146 171.665917 
L 561.945591 169.460913 
L 561.945591 167.62779 
L 563.071675 166.15895 
L 564.573121 164.672611 
L 564.573121 164.267634 
L 565.699205 163.127716 
L 566.825289 162.484576 
L 568.326734 161.330526 
L 568.648473 160.736662 
L 569.452818 159.958911 
L 570.954264 159.659649 
L 572.080348 158.831511 
L 573.260055 158.767435 
L 573.581793 158.404349 
L 574.707877 158.186406 
L 575.887584 157.315923 
L 577.335407 157.264826 
L 577.335407 156.558524 
L 578.461491 156.246763 
L 579.641198 156.296543 
L 581.08902 156.613494 
L 581.464382 157.499531 
L 582.268727 157.960733 
L 583.71655 159.132526 
L 584.896257 158.787136 
L 585.217995 158.866874 
L 586.344079 160.692823 
L 587.523786 161.90487 
L 588.64987 163.530693 
L 588.971609 169.619199 
L 590.151316 172.793722 
L 591.2774 177.166257 
L 592.725222 179.150689 
L 592.725222 179.620082 
L 593.904929 179.862083 
L 595.031013 180.993721 
L 595.031013 180.803811 
L 596.532459 180.192981 
L 597.658543 180.305777 
L 597.658543 181.311814 
L 599.159988 181.630381 
L 600.286072 181.279723 
L 600.286072 181.013527 
L 602.913602 179.615713 
L 602.913602 178.487816 
L 604.039686 176.555882 
L 605.541131 175.518725 
L 606.667215 174.228494 
L 606.667215 172.982442 
L 609.294745 170.590986 
L 609.294745 169.75681 
L 610.420829 168.906812 
L 611.922274 168.011423 
L 613.048358 167.958763 
L 614.549803 167.649441 
L 614.549803 167.12001 
L 616.855595 165.922339 
L 618.303417 165.752619 
L 618.303417 164.824224 
L 619.483124 164.457407 
L 620.930946 163.313972 
L 620.930946 162.95601 
L 622.110654 162.042733 
L 623.558476 161.234262 
L 623.558476 160.880892 
L 625.864267 159.465921 
L 627.312089 158.933428 
L 627.312089 157.962683 
L 628.491796 156.897299 
L 631.119326 155.763883 
L 632.24541 155.445004 
L 633.746855 157.115674 
L 633.746855 156.874499 
L 634.872939 158.205798 
L 636.320762 157.570069 
L 636.320762 157.238418 
L 638.626553 156.20337 
L 640.127998 155.342346 
L 640.127998 155.058905 
L 643.881612 153.674574 
L 647.635225 153.460476 
L 649.136671 153.950485 
L 649.136671 154.900675 
L 650.262755 155.17774 
L 651.7642 154.573081 
L 652.085938 154.242933 
L 652.890284 154.129156 
L 654.016368 155.293799 
L 655.517814 155.649733 
L 656.643898 156.225321 
L 657.019259 159.432179 
L 658.145343 160.24073 
L 659.271427 161.64654 
L 660.451134 161.567495 
L 661.898957 162.470979 
L 661.898957 165.444046 
L 663.078664 167.495949 
L 664.526486 167.308935 
L 664.526486 167.172032 
L 667.154016 167.332189 
L 667.475754 168.635117 
L 668.2801 169.069389 
L 669.459807 169.039091 
L 670.907629 169.132134 
L 671.28299 169.753439 
L 672.087336 172.807378 
L 673.21342 172.505996 
L 674.017766 172.439469 
L 675.14385 175.112964 
L 676.323557 177.00044 
L 677.449641 179.014893 
L 677.771379 178.576071 
L 678.629348 178.242051 
L 679.433694 177.334469 
L 680.720647 177.237321 
L 681.524993 176.272216 
L 682.329339 176.243036 
L 683.133684 175.689482 
L 683.455423 176.28777 
L 685.224983 176.245104 
L 686.351067 175.438684 
L 688.442366 175.003993 
L 689.72932 175.272783 
L 689.72932 176.815451 
L 691.49888 176.097601 
L 691.820619 175.818939 
L 693.107572 176.88826 
L 693.107572 176.805769 
L 694.877132 176.702673 
L 695.788724 176.381334 
L 696.164086 177.209068 
L 697.451039 177.865858 
L 697.451039 177.446897 
L 699.166976 177.280165 
L 699.166976 176.417373 
L 700.936537 175.837387 
L 702.22349 173.960988 
L 702.22349 172.375494 
L 703.993051 171.235645 
L 703.993051 170.302097 
L 705.762612 168.736594 
L 705.762612 167.539472 
L 707.478549 166.784587 
L 707.478549 166.132972 
L 709.730717 165.209999 
L 709.730717 164.24565 
L 711.500278 163.678126 
L 711.500278 162.728541 
L 713.269839 162.282913 
L 713.269839 162.107616 
L 713.698823 161.706915 
L 715.468384 161.598048 
L 715.468384 161.271044 
L 717.720552 160.439416 
L 717.720552 159.838182 
L 719.597358 159.538137 
L 719.919097 159.09788 
L 719.919097 158.281231 
L 722.171265 158.068733 
L 722.171265 157.405814 
L 724.423433 156.805602 
L 724.423433 157.378168 
L 724.852417 157.064111 
L 727.104585 156.946591 
L 727.104585 156.717623 
L 727.587193 156.17231 
L 729.785738 156.216618 
L 729.785738 155.633178 
L 730.268345 156.136529 
L 732.520514 155.718887 
L 732.520514 155.137123 
L 733.485728 154.657067 
L 735.362535 154.234162 
L 735.684273 154.812532 
L 736.166881 154.665279 
L 737.132096 154.762708 
L 739.330641 154.480144 
L 739.813248 154.777918 
L 740.778463 156.34028 
L 741.743678 156.327559 
L 743.459616 157.859615 
L 743.459616 159.203556 
L 744.424831 162.781583 
L 745.390046 163.604667 
L 747.588591 164.016765 
L 748.071198 164.454031 
L 750.91322 164.12135 
L 752.200173 164.964107 
L 752.68278 167.720819 
L 753.647995 168.705246 
L 754.07698 172.821204 
L 755.042195 172.856425 
L 756.919001 174.786185 
L 757.294363 175.674377 
L 757.77697 178.859838 
L 758.688562 178.754493 
L 759.653777 179.634153 
L 760.618992 183.633758 
L 761.852322 187.906919 
L 761.852322 188.522874 
L 762.817537 188.603756 
L 763.782752 191.41075 
L 764.747967 192.764949 
L 765.176951 194.260065 
L 766.946512 197.629332 
L 766.946512 198.219459 
L 767.911727 201.565722 
L 768.394334 202.369097 
L 769.305926 207.046904 
L 770.271141 209.934021 
L 770.753748 214.011185 
L 772.523309 219.306992 
L 772.523309 229.160652 
L 772.952293 234.010875 
L 773.917508 236.871196 
L 774.400116 239.651529 
L 774.882723 240.675663 
L 775.794315 244.725732 
L 778.046483 246.63879 
L 778.046483 247.822588 
L 778.52909 250.418955 
L 780.298651 249.595694 
L 781.102997 249.380498 
L 783.355165 248.491846 
L 783.355165 244.989326 
L 785.178349 241.285274 
L 785.178349 237.481312 
L 787.323271 232.854209 
L 787.323271 227.53076 
L 789.629062 221.876095 
L 791.773984 217.070389 
L 791.773984 208.637282 
L 793.918906 204.257503 
L 793.918906 199.635227 
L 795.420351 195.171128 
L 797.350781 190.811677 
L 799.602949 187.72707 
L 800.085557 184.440614 
L 801.962363 178.276112 
L 802.444971 175.962829 
L 803.410186 173.828846 
L 804.321778 172.405081 
L 804.804385 170.719291 
L 805.7696 170.308885 
L 806.681192 169.525319 
L 807.646407 168.95274 
L 808.129014 170.030579 
L 809.094229 171.091334 
L 809.523213 177.745116 
L 810.810167 184.517475 
L 813.062335 192.592787 
L 813.86668 192.70893 
L 814.671026 195.005546 
L 815.957979 195.284226 
L 816.762325 196.697365 
L 817.566671 199.730607 
L 818.049278 202.162216 
L 819.175362 205.134704 
L 820.033331 205.079874 
L 820.837677 205.871598 
L 821.642023 205.611799 
L 822.285499 204.347091 
L 823.089845 205.414155 
L 823.572453 205.244085 
L 824.698537 207.618955 
L 825.556505 210.236819 
L 825.556505 215.024094 
L 827.808673 214.314169 
L 828.988381 215.332867 
L 830.114465 214.093352 
L 830.114465 214.988024 
L 831.61591 214.980633 
L 833.063732 217.573851 
L 833.063732 220.701588 
L 834.565178 225.242908 
L 834.565178 241.704981 
L 836.388361 248.735672 
L 837.514446 248.601892 
L 837.514446 254.296553 
L 838.962268 255.527353 
L 838.962268 261.377681 
L 840.785452 263.246992 
L 840.785452 266.463512 
L 842.286897 264.926929 
L 842.769504 266.910145 
L 842.769504 266.765775 
L 843.895588 266.36 
L 843.895588 263.129406 
L 847.97094 260.002066 
L 851.295569 256.32764 
L 851.295569 251.955496 
L 852.797015 248.8488 
L 852.797015 245.277309 
L 854.620198 241.235727 
L 854.620198 236.303641 
L 857.086859 230.257772 
L 859.607142 222.038415 
L 859.607142 207.920767 
L 862.073802 202.252521 
L 862.073802 193.4457 
L 864.218724 191.104018 
L 865.344808 190.573465 
L 866.524516 192.09075 
L 868.454945 191.134056 
L 868.454945 188.796514 
L 869.581029 186.088314 
L 870.760737 182.387654 
L 873.012905 176.387023 
L 873.495512 174.169993 
L 874.675219 171.947516 
L 876.605649 169.604177 
L 877.409995 169.084312 
L 878.696948 167.485595 
L 879.501294 166.767305 
L 881.109985 165.709807 
L 881.109985 165.026148 
L 882.396938 164.422623 
L 883.201284 163.742839 
L 884.00563 163.316412 
L 885.989683 164.773302 
L 887.276636 166.938168 
L 888.080982 167.818434 
L 888.885327 169.025821 
L 889.689673 168.942239 
L 890.976626 170.403519 
L 891.780972 173.143876 
L 892.585318 173.459711 
L 893.389664 174.260941 
L 894.676617 177.306545 
L 895.480963 178.838193 
L 897.089654 181.437818 
L 898.376607 185.17184 
L 898.859215 184.979765 
L 899.66356 187.041168 
L 901.272252 188.243098 
L 901.754859 189.845707 
L 902.559205 190.670045 
L 903.417174 195.867556 
L 904.22152 197.289052 
L 905.025866 199.181513 
L 905.830211 200.342405 
L 907.117164 202.593577 
L 907.599772 204.733438 
L 908.404118 205.386094 
L 909.208463 209.262251 
L 910.012809 214.406418 
L 911.299762 214.10419 
L 912.586716 221.358014 
L 912.908454 223.960702 
L 913.7128 227.611434 
L 914.678015 229.374424 
L 915.321491 229.115559 
L 916.125837 230.628599 
L 916.822937 229.679801 
L 917.144675 228.822398 
L 918.270759 228.220656 
L 918.64612 227.800848 
L 920.093943 228.961445 
L 920.093943 235.482686 
L 921.702634 238.085242 
L 922.399734 240.213681 
L 923.847556 238.280823 
L 923.847556 237.423992 
L 925.67074 236.023324 
L 925.67074 233.613581 
L 926.850447 232.442411 
L 928.459138 231.299494 
L 929.37073 233.93194 
L 930.818553 232.54485 
L 932.319998 229.467834 
L 932.319998 227.88073 
L 932.641736 231.436472 
L 934.250428 233.477879 
L 934.572166 231.953611 
L 934.947527 228.036232 
L 936.073611 226.642307 
L 936.39535 224.83065 
L 937.521434 222.490028 
L 938.540272 219.40911 
L 939.880848 217.755853 
L 940.363455 216.711595 
L 941.382293 216.257831 
L 941.864901 215.077809 
L 941.864901 213.47141 
L 942.508377 210.560284 
L 944.975038 208.306854 
L 944.975038 204.354605 
L 945.672137 202.863011 
L 947.817059 202.098476 
L 947.817059 215.22663 
L 949.961981 221.920902 
L 951.088065 229.825654 
L 951.088065 234.636142 
L 951.088065 234.611745 
L 952.911249 235.97403 
L 956.503994 234.569891 
L 957.308339 235.396395 
L 958.112685 234.571054 
L 959.721377 236.904222 
L 959.721377 236.798752 
L 961.00833 236.370451 
L 961.00833 236.555479 
L 963.260498 236.10123 
L 964.17209 236.103745 
L 964.654697 236.254657 
L 965.137305 236.170897 
L 966.102519 235.42962 
L 966.585127 234.262336 
L 967.496719 233.038706 
L 967.979326 231.889655 
L 970.714102 227.299573 
L 972.805401 222.223789 
L 972.805401 220.989849 
L 974.521338 220.470845 
L 975.379307 219.808212 
L 976.505391 220.979356 
L 977.953214 219.827798 
L 977.953214 218.819789 
L 979.454659 214.89061 
L 979.454659 210.714752 
L 980.956104 205.796033 
L 983.101026 201.164931 
L 983.422765 196.701234 
L 983.422765 193.164218 
L 985.567687 190.417733 
L 986.586525 188.060747 
L 986.586525 188.684183 
L 989.053185 187.826094 
L 989.750285 186.720012 
L 990.715499 184.376024 
L 991.412599 181.585682 
L 993.879259 179.040469 
L 993.879259 176.516099 
L 994.200998 174.06057 
L 994.898097 172.203155 
L 996.560412 169.502251 
L 998.705334 168.528825 
L 998.705334 167.807403 
L 1001.225617 167.278188 
L 1001.225617 165.714717 
L 1003.370539 165.0229 
L 1003.370539 164.274441 
L 1004.014016 163.498955 
L 1006.158938 162.633942 
L 1006.158938 161.773567 
L 1006.856038 160.9815 
L 1008.679221 160.365203 
L 1010.502405 160.234073 
L 1010.502405 159.836952 
L 1011.950227 159.551073 
L 1011.950227 159.256098 
L 1011.950227 159.256098 
" clip-path="url(#p286dd43b3c)" style="fill: none; stroke: #3c40c6; stroke-opacity: 0.99; stroke-width: 2.4; stroke-linecap: square"/>
   </g>
   <g id="patch_3">
    <path d="M 46.9525 434.59192 
L 46.9525 72.25112 
" style="fill: none; stroke: #000000; stroke-width: 0.8; stroke-linejoin: miter; stroke-linecap: square"/>
   </g>
   <g id="patch_4">
    <path d="M 1057.9025 434.59192 
L 1057.9025 72.25112 
" style="fill: none; stroke: #000000; stroke-width: 0.8; stroke-linejoin: miter; stroke-linecap: square"/>
   </g>
   <g id="patch_5">
    <path d="M 46.9525 434.59192 
L 1057.9025 434.59192 
" style="fill: none; stroke: #000000; stroke-width: 0.8; stroke-linejoin: miter; stroke-linecap: square"/>
   </g>
   <g id="patch_6">
    <path d="M 46.9525 72.25112 
L 1057.9025 72.25112 
" style="fill: none; stroke: #000000; stroke-width: 0.8; stroke-linejoin: miter; stroke-linecap: square"/>
   </g>
   <g id="legend_1">
    <g id="patch_7">
     <path d="M 334.7085 35.8 
L 729.7085 35.8 
Q 733.7085 35.8 733.7085 31.8 
L 733.7085 4 
Q 733.7085 -0 729.7085 -0 
L 334.7085 -0 
Q 330.7085 -0 330.7085 4 
L 330.7085 31.8 
Q 330.7085 35.8 334.7085 35.8 
z
" style="fill: #ffffff; opacity: 0.8; stroke: #cccccc; stroke-linejoin: miter"/>
    </g>
    <g id="line2d_23">
     <path d="M 338.7085 16.6 
L 358.7085 16.6 
L 378.7085 16.6 
" style="fill: none; stroke: #0be881; stroke-opacity: 0.99; stroke-width: 2.4; stroke-linecap: square"/>
    </g>
    <g id="text_13">
     <!-- MLP256$^m$ -->
     <g transform="translate(394.7085 23.6)scale(0.2 -0.2)">
      <defs>
       <path id="DejaVuSans-4d" d="M 628 4666 
L 1569 4666 
L 2759 1491 
L 3956 4666 
L 4897 4666 
L 4897 0 
L 4281 0 
L 4281 4097 
L 3078 897 
L 2444 897 
L 1241 4097 
L 1241 0 
L 628 0 
L 628 4666 
z
" transform="scale(0.015625)"/>
       <path id="DejaVuSans-4c" d="M 628 4666 
L 1259 4666 
L 1259 531 
L 3531 531 
L 3531 0 
L 628 0 
L 628 4666 
z
" transform="scale(0.015625)"/>
       <path id="DejaVuSans-50" d="M 1259 4147 
L 1259 2394 
L 2053 2394 
Q 2494 2394 2734 2622 
Q 2975 2850 2975 3272 
Q 2975 3691 2734 3919 
Q 2494 4147 2053 4147 
L 1259 4147 
z
M 628 4666 
L 2053 4666 
Q 2838 4666 3239 4311 
Q 3641 3956 3641 3272 
Q 3641 2581 3239 2228 
Q 2838 1875 2053 1875 
L 1259 1875 
L 1259 0 
L 628 0 
L 628 4666 
z
" transform="scale(0.015625)"/>
       <path id="DejaVuSans-35" d="M 691 4666 
L 3169 4666 
L 3169 4134 
L 1269 4134 
L 1269 2991 
Q 1406 3038 1543 3061 
Q 1681 3084 1819 3084 
Q 2600 3084 3056 2656 
Q 3513 2228 3513 1497 
Q 3513 744 3044 326 
Q 2575 -91 1722 -91 
Q 1428 -91 1123 -41 
Q 819 9 494 109 
L 494 744 
Q 775 591 1075 516 
Q 1375 441 1709 441 
Q 2250 441 2565 725 
Q 2881 1009 2881 1497 
Q 2881 1984 2565 2268 
Q 2250 2553 1709 2553 
Q 1456 2553 1204 2497 
Q 953 2441 691 2322 
L 691 4666 
z
" transform="scale(0.015625)"/>
       <path id="DejaVuSans-Oblique-6d" d="M 5747 2113 
L 5338 0 
L 4763 0 
L 5166 2094 
Q 5191 2228 5203 2325 
Q 5216 2422 5216 2491 
Q 5216 2772 5059 2928 
Q 4903 3084 4622 3084 
Q 4203 3084 3875 2770 
Q 3547 2456 3450 1953 
L 3066 0 
L 2491 0 
L 2900 2094 
Q 2925 2209 2937 2307 
Q 2950 2406 2950 2484 
Q 2950 2769 2794 2926 
Q 2638 3084 2363 3084 
Q 1938 3084 1609 2770 
Q 1281 2456 1184 1953 
L 800 0 
L 225 0 
L 909 3500 
L 1484 3500 
L 1375 2956 
Q 1609 3263 1923 3423 
Q 2238 3584 2597 3584 
Q 2978 3584 3223 3384 
Q 3469 3184 3519 2828 
Q 3781 3197 4126 3390 
Q 4472 3584 4856 3584 
Q 5306 3584 5551 3325 
Q 5797 3066 5797 2591 
Q 5797 2488 5784 2364 
Q 5772 2241 5747 2113 
z
" transform="scale(0.015625)"/>
      </defs>
      <use xlink:href="#DejaVuSans-4d" transform="translate(0 0.51875)"/>
      <use xlink:href="#DejaVuSans-4c" transform="translate(86.279297 0.51875)"/>
      <use xlink:href="#DejaVuSans-50" transform="translate(141.992188 0.51875)"/>
      <use xlink:href="#DejaVuSans-32" transform="translate(202.294922 0.51875)"/>
      <use xlink:href="#DejaVuSans-35" transform="translate(265.917969 0.51875)"/>
      <use xlink:href="#DejaVuSans-36" transform="translate(329.541016 0.51875)"/>
      <use xlink:href="#DejaVuSans-Oblique-6d" transform="translate(394.121094 38.8)scale(0.7)"/>
     </g>
    </g>
    <g id="line2d_24">
     <path d="M 527.9085 16.6 
L 547.9085 16.6 
L 567.9085 16.6 
" style="fill: none; stroke: #3c40c6; stroke-opacity: 0.99; stroke-width: 2.4; stroke-linecap: square"/>
    </g>
    <g id="text_14">
     <!-- TinyLidarNet$^m$ -->
     <g transform="translate(583.9085 23.6)scale(0.2 -0.2)">
      <defs>
       <path id="DejaVuSans-69" d="M 603 3500 
L 1178 3500 
L 1178 0 
L 603 0 
L 603 3500 
z
M 603 4863 
L 1178 4863 
L 1178 4134 
L 603 4134 
L 603 4863 
z
" transform="scale(0.015625)"/>
       <path id="DejaVuSans-6e" d="M 3513 2113 
L 3513 0 
L 2938 0 
L 2938 2094 
Q 2938 2591 2744 2837 
Q 2550 3084 2163 3084 
Q 1697 3084 1428 2787 
Q 1159 2491 1159 1978 
L 1159 0 
L 581 0 
L 581 3500 
L 1159 3500 
L 1159 2956 
Q 1366 3272 1645 3428 
Q 1925 3584 2291 3584 
Q 2894 3584 3203 3211 
Q 3513 2838 3513 2113 
z
" transform="scale(0.015625)"/>
       <path id="DejaVuSans-79" d="M 2059 -325 
Q 1816 -950 1584 -1140 
Q 1353 -1331 966 -1331 
L 506 -1331 
L 506 -850 
L 844 -850 
Q 1081 -850 1212 -737 
Q 1344 -625 1503 -206 
L 1606 56 
L 191 3500 
L 800 3500 
L 1894 763 
L 2988 3500 
L 3597 3500 
L 2059 -325 
z
" transform="scale(0.015625)"/>
       <path id="DejaVuSans-4e" d="M 628 4666 
L 1478 4666 
L 3547 763 
L 3547 4666 
L 4159 4666 
L 4159 0 
L 3309 0 
L 1241 3903 
L 1241 0 
L 628 0 
L 628 4666 
z
" transform="scale(0.015625)"/>
       <path id="DejaVuSans-74" d="M 1172 4494 
L 1172 3500 
L 2356 3500 
L 2356 3053 
L 1172 3053 
L 1172 1153 
Q 1172 725 1289 603 
Q 1406 481 1766 481 
L 2356 481 
L 2356 0 
L 1766 0 
Q 1100 0 847 248 
Q 594 497 594 1153 
L 594 3053 
L 172 3053 
L 172 3500 
L 594 3500 
L 594 4494 
L 1172 4494 
z
" transform="scale(0.015625)"/>
      </defs>
      <use xlink:href="#DejaVuSans-54" transform="translate(0 0.51875)"/>
      <use xlink:href="#DejaVuSans-69" transform="translate(61.083984 0.51875)"/>
      <use xlink:href="#DejaVuSans-6e" transform="translate(88.867188 0.51875)"/>
      <use xlink:href="#DejaVuSans-79" transform="translate(152.246094 0.51875)"/>
      <use xlink:href="#DejaVuSans-4c" transform="translate(211.425781 0.51875)"/>
      <use xlink:href="#DejaVuSans-69" transform="translate(267.138672 0.51875)"/>
      <use xlink:href="#DejaVuSans-64" transform="translate(294.921875 0.51875)"/>
      <use xlink:href="#DejaVuSans-61" transform="translate(358.398438 0.51875)"/>
      <use xlink:href="#DejaVuSans-72" transform="translate(419.677734 0.51875)"/>
      <use xlink:href="#DejaVuSans-4e" transform="translate(460.791016 0.51875)"/>
      <use xlink:href="#DejaVuSans-65" transform="translate(535.595703 0.51875)"/>
      <use xlink:href="#DejaVuSans-74" transform="translate(597.119141 0.51875)"/>
      <use xlink:href="#DejaVuSans-Oblique-6d" transform="translate(637.285156 38.8)scale(0.7)"/>
     </g>
    </g>
   </g>
  </g>
 </g>
 <defs>
  <clipPath id="p286dd43b3c">
   <rect x="46.9525" y="72.25112" width="1010.95" height="362.3408"/>
  </clipPath>
 </defs>
</svg>
